<?xml version="1.0" encoding="UTF-8"?><svg id="Capa_1" xmlns="http://www.w3.org/2000/svg" xmlns:xlink="http://www.w3.org/1999/xlink" viewBox="0 0 417.23 761.73"><defs><filter id="drop-shadow-1" filterUnits="userSpaceOnUse"><feOffset dx="-2.83" dy="5.67"/><feGaussianBlur result="blur" stdDeviation="2.83"/><feFlood flood-color="#000" flood-opacity=".75"/><feComposite in2="blur" operator="in"/><feComposite in="SourceGraphic"/></filter></defs><g filter="url(#drop-shadow-1)"><polygon points="198.39 156.4 183.71 152.11 180.77 164.23 186.13 165.56 198.39 156.4"/><path d="M268.78,265.54l1.93-9.6c0,1.26-1.94,3.82-5.75,7.7l3.82,1.9Z"/><path d="M78.76,242.88v-1.91h-1.91l.23,.38c.05,.42,.24,.8,.55,1.08,.31,.28,.71,.44,1.13,.45Z"/><polygon points="268.9 306 270.06 302.5 266.99 304.05 268.9 306"/><path d="M141.54,653.22c.09,.24,.23,.47,.41,.65s.41,.32,.65,.41c.25,.08,.51,.11,.76,.08v-3.82l-1.91,1.91c-.03,.26,0,.52,.09,.76Z"/><path d="M128.88,313.73h-.01c.07,.17,.18,.3,.24,.47l-.23-.47Z"/><polygon points="128.83 294.55 126.91 290.73 126.92 294.55 128.83 296.46 128.83 294.55"/><polygon points="270.06 302.5 274.66 300.21 270.84 300.22 270.06 302.5"/><polygon points="111.54 289 111.64 291.7 112.94 290.3 111.54 289"/><polygon points="61.33 160.29 65.33 158.79 66.53 154.64 59.89 158.99 61.33 160.29"/><path d="M71.86,486.68c-.03,.26,0,.52,.09,.76,.09,.25,.23,.47,.41,.65,.18,.18,.41,.32,.65,.41s.51,.11,.77,.08l.23,.33c.28,.02,.55-.04,.8-.16,.25-.12,.47-.29,.63-.52,.16-.22,.27-.48,.31-.75,.04-.27,.01-.55-.08-.81h-3.82Z"/><polygon points="225.1 620.37 227 618.45 219.31 614.66 225.1 620.37"/><path d="M64.43,137.28l-1.4-1.25,.23,.33c.28,1.93,1.24,3.7,2.71,4.97,.88-.98,.37-2.28-1.55-4.05Z"/><path d="M1.15,199.72c-.25,.09-.47,.23-.65,.41-.18,.18-.32,.41-.41,.65s-.11,.51-.08,.76H3.88l-1.96-1.91c-.26-.03-.52,0-.76,.09Z"/><polygon points="56.48 482.82 58.39 482.81 56.47 480.86 56.48 482.82"/><polygon points="159.8 194.81 155.98 192.91 154.09 198.69 157.91 200.59 159.8 194.81"/><path d="M82.77,120.18c1.46,1.52,3.45,2.41,5.55,2.5l-3-10.23c-3.4,3.68-4.17,6.35-2.55,7.73Z"/><polygon points="74.44 106.55 74.44 108.46 75.64 107.84 74.62 106.83 74.6 99.15 68.82 97.26 66.92 99.17 66.74 100.8 68.66 104.66 74.44 106.55"/><path d="M240.12,303.94l3.87,1.94,1.9-1.96c-2.1,.15-4.18-.52-5.78-1.89v1.91Z"/><path d="M67.83,224.27c.23,.15,.49,.23,.75,.23s.52-.08,.75-.23c.23-.15,.44-.37,.6-.64l1.19-5.43-8.25-3.36c.59,3.54,2.14,6.67,4.36,8.8,.16,.27,.37,.49,.6,.63Z"/><polygon points="103.5 261.08 98.24 261.21 98.25 264.31 102.3 263.42 103.5 261.08"/><path d="M191.89,615.06c.33-.67,.51-1.39,.55-2.13l-3.82-1.9-1.9,3.87,3.82,1.9c.56-.48,1.02-1.07,1.35-1.74Z"/><path d="M193.55,189.47c2.58,.14,5.16-.29,7.56-1.25l6-11.91c-6.6,4.39-13.6,8.14-20.95,11.11,2.28,1.21,4.81,1.91,7.39,2.05Z"/><polygon points="198.17 597.59 192.38 591.83 190.49 599.52 196.27 603.32 198.17 597.59"/><path d="M136.51,262.66l-.37-.19-.3,.59c.22-.14,.45-.26,.67-.4Z"/><path d="M85.17,111.93l.15,.52s.05-.06,.08-.1l-.23-.42Z"/><polygon points="166.51 611.97 166.5 608.15 158.82 608.17 162.66 613.93 166.51 611.97"/><path d="M156.92,625.45l-1.9,3.82,13.46-.04c-4.07-.45-8.01-1.74-11.56-3.78Z"/><path d="M179.51,472.81l-1.9,1.91v1.4c.6-.52,1.23-.99,1.91-1.4v-1.91Z"/><polygon points="179.5 470.85 179.51 472.81 181.41 470.85 179.5 470.85"/><polygon points="95.53 74.84 89.8 74.86 93.63 76.76 95.53 74.84"/><polygon points="87.98 148.47 89.37 147.07 87.97 145.77 87.98 148.47"/><path d="M132.47,219.67l-11.5,15.4c3.41-.83,6.42-2.82,8.52-5.63,2.1-2.81,3.15-6.27,2.98-9.77Z"/><polygon points="67.15 78.06 66.9 77.81 66.84 77.85 67.09 78.09 67.15 78.06"/><polygon points="131.67 761.73 132.58 760.82 131.67 759.98 131.67 761.73"/><path d="M150.22,724.47h-2.7l.14,.33c-1.53,1.37-2.48,3.27-2.64,5.32l2.6-2.85,2.6-2.8Z"/><path d="M105.6,219.7c-.48-.57-1.07-1.02-1.74-1.35s-1.39-.51-2.13-.55l.23,.42c-.74-.04-1.48,.07-2.18,.32-.7,.26-1.33,.66-1.87,1.18l1.92,1.9,5.77-1.93Z"/><polygon points="273.01 336.67 276.83 336.66 278.73 334.74 274.9 332.8 273.01 336.67"/><polygon points="218.16 613.81 220.12 615.72 223.92 611.84 220.09 608.03 218.16 613.81"/><path d="M204.8,631.5l.74-.47-.61-.28c1.29-4.76,1.88-9.69,1.73-14.63l-5.76,3.84-3.8,7.69,7.69,3.1v.74Z"/><path d="M212.49,633.39c.73-.05,1.45-.25,2.1-.58,.66-.33,1.24-.79,1.71-1.35l-1.93-5.77-8.83,5.34,1.17,.46c1.6,1.37,3.68,2.05,5.78,1.89Z"/><path d="M267.17,248.78c-.66-.33-1.38-.51-2.11-.55l-1.9,3.82,3.82,1.9,1.9-3.82c-.47-.56-1.05-1.02-1.71-1.35Z"/><polygon points="255.69 323.27 259.52 325.16 261.46 319.43 257.59 317.49 255.69 323.27"/><path d="M240.29,612.87c.73,.03,1.45,.22,2.11,.55s1.24,.79,1.71,1.35l.28,.05c.52-.51,.94-1.12,1.22-1.79s.44-1.4,.44-2.12l-3.87-1.9-1.9,3.87Z"/><path d="M211.29,489.08c-.1,.24-.24,.45-.43,.63-.2,.19-.45,.32-.71,.4-.27,.08-.54,.09-.81,.04h1.96v-1.06Z"/><path d="M140.8,477.61c-.16,.49-.41,.94-.75,1.33-.34,.39-.61,.85-.77,1.35-.17,.5-.23,1.02-.19,1.54l.28,.05c0,1.16,1.92,3.86,5.52,7.62l-3.91-13.4c.04,.51-.02,1.03-.17,1.51Z"/><path d="M235.07,633.48c-.18-.18-.32-.4-.41-.65-.09-.25-.11-.51-.09-.76v1.91h1.91c-.26,.02-.52,0-.76-.09-.25-.09-.47-.22-.65-.41Z"/><polygon points="215.15 503.53 213.25 505.45 215.85 503.9 215.15 503.53"/><path d="M148.7,489.53c-.03,.26,0,.52,.09,.76,.09,.25,.23,.47,.41,.65s.41,.32,.65,.41c.25,.08,.51,.11,.77,.08v-3.79c-.2-.03-.39-.07-.58-.04-.28,.06-.55,.18-.77,.37-.22,.19-.39,.43-.49,.7-.1,.27-.12,.56-.08,.85Z"/><path d="M211.42,488.23l-.14-.05v.9s.03-.03,.03-.05c.1-.26,.13-.53,.11-.81Z"/><path d="M150.6,487.61v.03c.09,.01,.19-.01,.28,.02l-.28-.05Z"/><polygon points="194.12 435.05 192.21 435.05 194.12 437 194.12 435.05"/><path d="M239.35,698.81l5.75-7.65-11.51-1.92-7.68,1.98-1.89,5.73c3.65,1.45,7.58,2.09,11.51,1.87h3.82Z"/><path d="M205.81,611.8c.08,.25,.22,.48,.41,.67,.18,.19,.41,.33,.66,.42,.25,.09,.52,.12,.78,.08v-1.96h-1.91c-.04,.27-.01,.53,.07,.78Z"/><polygon points="79.75 491.6 79.74 489.69 75.91 485.88 73.97 489.71 75.94 493.56 79.75 491.6"/><path d="M280.35,269.46l3.82,1.9,.98-.33,.93,.32v3.86l9.65-.03v-1.96c.02-.26,0-.53-.09-.78-.09-.25-.23-.47-.42-.66-.19-.18-.42-.32-.67-.4-.25-.08-.52-.1-.78-.07-1.47-.11-2.85-.79-3.82-1.9l-4.65,1.6-4.94-1.57Z"/><polygon points="240.27 416.27 240.26 412.45 232.58 412.47 236.42 418.24 240.27 416.27"/><path d="M230.68,429.76l-1.9,3.82,13.46-.04c-4.07-.45-8.01-1.74-11.56-3.78Z"/><polygon points="270.91 400.91 269 398.96 265.14 400.92 269.02 406.03 269.01 404.73 270.91 400.91"/><polygon points="270.93 408.54 269.02 406.03 269.03 408.55 270.93 408.54"/><polygon points="211.21 158.35 213.68 159.51 216.61 156.31 211.18 152.88 211.64 154.1 211.21 158.35"/><polygon points="208.51 151.2 211.18 152.88 210.3 150.53 208.51 151.2"/><polygon points="170.08 182.11 175.44 180.09 181.28 173.81 177.03 173.37 169.41 180.33 170.08 182.11"/><polygon points="219.33 633.52 216.82 632.42 214.61 637.38 219.53 639.61 219.33 633.52"/><path d="M63.54,584.04l-.56,.62h.65c.16,4.13,1.03,8.14,2.59,11.89l4.29-4.98,1.34-7.27-8.09,.31-.22-.57Z"/><path d="M217.78,613.2c-.67,.3-1.27,.74-1.77,1.27-.5,.54-.88,1.17-1.13,1.86l3.82,4.73,6.4-8.09-1.25-.02c-1.98-.72-4.16-.63-6.08,.25Z"/><polygon points="211.85 570.3 204.47 566.96 206.5 572.32 211.43 574.59 211.85 570.3"/><polygon points="123.28 638.68 128.63 636.66 134.47 630.38 130.23 629.94 122.6 636.89 123.28 638.68"/><polygon points="41.75 116.76 34.37 113.42 36.39 118.78 41.33 121.05 41.75 116.76"/><polygon points="220.2 311.21 225.55 309.19 231.39 302.91 227.15 302.47 219.52 309.43 220.2 311.21"/><polygon points="241.36 386.28 242.7 389.85 249.89 387.14 244.28 383.08 241.36 386.28"/><path d="M245.63,370.28l.44-4.24-12.59,4.75c3.97-1.01,8.11-1.18,12.15-.5Z"/><polygon points="218.04 411.39 220.51 412.55 223.44 409.36 218.02 405.93 218.48 407.15 218.04 411.39"/><polygon points="192.34 402.63 189.84 401.53 187.63 406.49 192.55 408.72 192.34 402.63"/><polygon points="215.34 404.25 218.02 405.93 217.13 403.57 215.34 404.25"/><polygon points="184.87 339.41 177.49 336.07 179.51 341.43 184.44 343.7 184.87 339.41"/><polygon points="247.33 445.52 252.69 443.5 258.53 437.22 254.29 436.78 246.66 443.74 247.33 445.52"/><polygon points="120.16 465.22 116.51 464.09 114.24 471.43 120.89 469.48 120.16 465.22"/><path d="M130.17,478.39l3.08,2.95,3.97-12.86c-1.64,3.75-4.04,7.13-7.05,9.91Z"/><polygon points="167.28 476.35 164.85 477.59 165.58 481.86 171.62 479.68 170.37 479.3 167.28 476.35"/><polygon points="137.3 416.47 139.71 415.17 137.14 410.38 132.36 412.9 137.3 416.47"/><path d="M141.53,707.3l-.22-.85-.45,.5c-4.16-2.65-8.69-4.68-13.45-6l1.95,6.64,6.21,5.91,5.25-6.42,.71,.22Z"/><polygon points="174.58 478.6 171.62 479.68 174.02 480.42 174.58 478.6"/><path d="M154.3,427.71c.17-.71,.2-1.45,.08-2.18-.12-.72-.38-1.42-.77-2.04l-6.08,.12,2.46,10.02,.79-.98c1.78-1.12,3.05-2.9,3.53-4.95Z"/><polygon points="242.49 369.35 236.93 368.2 228.31 392.15 233.88 393.3 242.49 369.35"/><path d="M211.42,479.59c.1,.24,.27,.47,.49,.65s.48,.32,.77,.41c.29,.08,.6,.11,.9,.08v-3.82l-2.26,1.91c-.03,.26,0,.52,.1,.76Z"/><polygon points="204.62 515.3 211.46 517.19 213.7 513.37 209.12 511.47 204.62 515.3"/><polygon points="244.07 161.47 244.19 164.17 245.73 162.77 244.07 161.47"/><polygon points="150.96 420.85 155.69 419.35 157.1 415.2 149.25 419.55 150.96 420.85"/><path d="M154.62,397.84l-1.66-1.25,.28,.33c.33,1.93,1.47,3.7,3.21,4.97,1.04-.98,.43-2.28-1.83-4.05Z"/><path d="M176.3,380.74c1.72,1.52,4.07,2.41,6.56,2.5l-3.55-10.23c-4.01,3.68-4.93,6.35-3.01,7.73Z"/><path d="M169.88,339.14c-.23-1.62,.17-3.25,1.14-4.66,.4-.4,.7-.86,.89-1.35,.19-.5,.26-1.02,.2-1.54v-1.91l-2.25,3.82-12.02,5.12,5.23,4.39,6.81-3.88Z"/><path d="M102.68,210.02c-.29-.08-.55-.22-.77-.41-.22-.18-.38-.4-.49-.65-.1-.25-.14-.51-.1-.76v1.91h2.26c-.3,.02-.61,0-.9-.09Z"/><path d="M294.64,185.33c.88,.04,1.75-.08,2.57-.34,.82-.26,1.57-.65,2.21-1.17,.9-.71,1.63-1.57,2.14-2.52,.51-.95,.78-1.98,.82-3.03l-11.34-.95,.3,5.4,3.31,2.6Z"/><path d="M171.82,501.41l-.44-.19-.35,.59c.26-.14,.54-.26,.79-.4Z"/><path d="M179.14,372.49l.18,.52s.06-.06,.1-.1l-.28-.42Z"/><polygon points="191.39 335.4 184.62 335.42 189.14 337.32 191.39 335.4"/><path d="M230,486.92c-.79-.33-1.64-.51-2.52-.55l-2.25,1.91,6.83-.02c-.57-.56-1.27-1.02-2.06-1.35Z"/><polygon points="182.46 409.03 184.1 407.63 182.45 406.33 182.46 409.03"/><polygon points="157.84 338.62 157.55 338.37 157.47 338.41 157.77 338.65 157.84 338.62"/><polygon points="203.67 192.86 205.31 191.46 203.66 190.16 203.67 192.86"/><path d="M131.6,408.09h3.19l1.54-1.41,1.18-9.55c-.37,.42-.84,.76-1.38,1.01-.54,.25-1.14,.4-1.75,.44-.62,.06-1.22,.22-1.77,.48-.55,.26-1.03,.6-1.42,1.02l.44,.33c-1.32,1.93-1.91,4.16-1.68,6.38l1.66,1.3Z"/><path d="M225.33,193.92h-3.19l.17,.33c-1.81,1.37-2.93,3.27-3.12,5.32l3.07-2.85,3.07-2.8Z"/><path d="M168.94,46.07c-.57-.57-1.27-1.02-2.05-1.35s-1.65-.51-2.52-.55l.28,.42c-.88-.04-1.76,.07-2.58,.32-.82,.26-1.58,.66-2.21,1.18l2.27,1.9,6.82-1.93Z"/><path d="M272.29,511.82c-.22-.18-.4-.41-.5-.66-.1-.25-.14-.51-.1-.78v1.91h2.32c-.31,.03-.62,0-.92-.07-.3-.08-.57-.22-.79-.4Z"/><polygon points="262.74 502.73 265.05 500.81 265.03 496.95 260.47 498.91 262.74 502.73"/><path d="M265.18,515c.1,.25,.26,.48,.48,.67,.22,.19,.49,.33,.78,.42,.3,.09,.61,.12,.92,.08l.16,.04c.06-.28,.04-.57-.06-.84-.1-.27-.28-.51-.52-.71-.24-.2-.53-.34-.86-.42-.32-.08-.66-.09-.99-.03-.04,.26-.02,.53,.08,.78Z"/><path d="M318.2,528.32l6.85-1.68-2.27-3.81-8.42,.02c1.33,1.8,2.6,3.62,3.83,5.47Z"/><polygon points="382.07 352.55 379.81 352.55 382.07 354.51 382.07 352.55"/><polygon points="359.36 278.53 359.35 274.71 350.27 274.74 354.8 280.5 359.36 278.53"/><path d="M348.02,292.02l-2.24,3.82,15.91-.04c-4.82-.45-9.47-1.74-13.67-3.78Z"/><polygon points="395.59 263.17 393.32 261.22 388.76 263.19 393.35 268.3 393.34 266.99 395.59 263.17"/><polygon points="377.28 305.71 379.59 307.61 384.1 303.74 379.57 299.93 377.28 305.71"/><polygon points="395.61 270.81 393.35 268.3 393.36 270.81 395.61 270.81"/><polygon points="27.58 170.89 34.37 176.6 34.35 170.87 29.82 167.02 27.58 170.89"/><polygon points="377.27 220.94 370.5 220.96 361.43 224.8 365.95 226.7 377.28 222.85 377.27 220.94"/><polygon points="297.56 366.92 288.83 363.58 291.22 368.94 297.06 371.21 297.56 366.92"/><path d="M271.89,352.76l-1.07,8.55,8.5-2.71,.5-4.29c-4.82-3.79-10.97-6.15-17.52-6.7l-13.27,8.36,3.7,2.9,19.16-6.11Z"/><polygon points="264.93 465.66 256.21 462.32 258.6 467.68 264.43 469.95 264.93 465.66"/><g><path d="M409,125.56c1.82,0,2.75-.5,2.75-1.51-7.32-32.77-20.15-58.49-38.44-77.15-20.31-16.92-41.16-29.25-62.54-37.01l-.21,1.97c-4.78-.76-9.67-.56-14.37,.57l10.77-3.87C290.04,2.86,272.8,0,255.22,0c0,1.01-.92,1.51-2.75,1.51,0-1-.93-1.51-2.75-1.51h-2.75c-14.17,0-27.59,.78-40.24,2.32-.42,.75-.89,1.48-1.43,2.17-2.48,3.17-6.04,5.41-10.07,6.34l6.11-7.8c-20.8,2.96-39.46,8.08-56.02,15.37v1.22c-.49,0-.97-.19-1.33-.51-.03-.03-.06-.06-.09-.09-3.9,1.76-7.69,3.64-11.35,5.64l1.45,1.39-6.75,6.47-4.43-2.07c-3.6,2.32-7.07,4.77-10.41,7.36-31.13,32.52-46.68,60.26-46.68,83.2v9.08l-2.75,7.56c1.82,0,2.75,.51,2.75,1.51h-2.75l2.75,7.56v9.08c0,2.27-.92,4.29-2.75,6.05,1.82,1.76,2.75,3.78,2.75,6.05v11.78c.19,2.22,.47,4.44,.89,6.63,.5,2.62,1.09,6.13,2.59,8.79,.9,.97,1.8,1.95,2.7,2.92,.05,.03,.1,.07,.15,.1,1.5,.84,2.45,1.97,2.96,3.2,2.38,2.46,4.82,4.83,7.46,6.91,7.05,5.54,15.54,8.33,23.14,12.72,8.65,5,17.28,10.85,25.49,17.32,.71,.12,1.42,.2,2.14,.25l1.34-4.12,2.16,.63,.28,3.4c2.46-.38,4.34-1.51,5.76-3.18,.52-22.01,2.29-40.95,5.32-56.77-1.83,0-2.75-.5-2.75-1.51s.92-1.51,2.75-1.51c0-12.37,7.91-21.58,23.7-27.62-.37-.37-.73-.75-1.07-1.14-2.09-2.38-2.81-6.66-1.09-9.55,1-1.68,1.11-3.05,1.33-5.03,.41-3.69,2.38-6.34,4.89-7.31,.27-2.23,.19-4.53,.07-6.84-.21-3.93,2.81-7.25,6.07-7.74,.28-.04,.56-.06,.83-.07,3.27-4.06,8.54-4.08,11.48,.83,.38,.64,.73,1.31,1.05,1.98,1.35-.43,2.82-.36,4.37,.37,1.73,.82,3.15,2.51,3.86,4.49,.96-.56,1.95-1.06,3.01-1.46,6.17-2.3,10.47,5.84,7.91,11.58-2.04,4.57-4.61,8.7-7.45,12.59,9.43-.91,19.97-1.38,31.68-1.38,21.97,.51,32.95,2.02,32.95,4.54,24.71,0,43.01,14.12,54.92,42.36,0,3.03-.92,4.54-2.75,4.54,0,12.23-1.64,23.38-4.9,33.47l-.31,14.87c-2.91,2.91-6.41,5.18-10.25,6.71-5.36,7.78-12.1,14.64-20.24,20.59,0,1.01,.92,2.52,2.75,4.54,0,1.51-3.67,3.03-10.98,4.54l5.49,4.54v7.56h-10.98c-8.66,4.08-16.7,7.45-24.16,10.15l4.08,.65-6.8,8.62h-4.51c-4.64,.26-9.28-.46-13.6-2.1l.4-1.14c-5.77,1.23-11.04,1.89-15.81,1.97,0-1.26-3.67-2.27-10.98-3.03l-2.75,3.03v3.03c9.15,6.05,13.73,12.1,13.73,18.15,0,5.05-11.91,20.17-35.7,45.38-28.38,25.21-36.84,55.21-25.4,90.01l45.4,.22,7.86-6.83,5.02,.49-6.21,6.37,27.57,.13c-5.95-20.42-2.52-40.71,10.3-60.89,23.34-27.73,48.5-41.6,75.51-41.6v1.51c9.15-.76,13.73-2.27,13.73-4.54,0-.15-.09-.43-.26-.82l-.18,.17-4.52-2.19c.72-.79,1.64-1.36,2.65-1.73-1.82-3.05-4.7-7.57-8.67-13.59v-4.54c.71-2.76,2-5.53,3.84-8.3-.22-.04-.44-.1-.66-.17-.89-.27-1.7-.74-2.36-1.37-.66-.62-1.17-1.39-1.47-2.23-.3-.84-.39-1.74-.26-2.62l-12.79-6.05-3.08,1.74,2.25-2.16,.83,.42,8.24-4.74,13.59-2.24c-.37,3.32-1.12,6.59-2.23,9.76-.88,3.13-.95,5.46-.24,7.15,2.73-3.46,6.33-6.92,10.82-10.38,12.21-12.42,21.28-22.05,27.23-28.9-3.33-2.68-5.6-6.38-6.37-10.48l2.25-2.16c1.29-7.7,5.26-14.77,11.28-20.06l.04,13.11,4.02-2.95c1.82,0,2.75,.51,2.75,1.51,15.55-13.61,28.38-41.85,38.44-84.71-1.83-3.78-4.58-21.42-8.24-52.95Zm-332.26,1.51h-2.75c-3.2,0-5.04-1-5.49-3.03h8.24v3.03Zm41.76,2.8l-2.25,2.21-4.58-2.19v-2.15c1.89,1.54,4.34,2.3,6.83,2.13Zm-3.31-10.36h-5.49v-1.51c0-1.76,1.82-2.77,5.49-3.03v4.54Zm-3.45-56l-.28-.63h2.26v4.35h-4.5c.05-2.45,1.03-3.71,2.52-3.72Zm-2.45,25.59l4.52,2.14-2.24,6.51-4.52-2.14,2.24-6.51Zm-21.56,71.25v-3.03h5.49c0,2.02-1.83,3.03-5.49,3.03Zm19.6,21.72l-6.84-4.33,9.07-4.33,4.53,6.44-6.76,2.22Zm13.35-11.13h-2.75c0-1.51-1.83-3.53-5.49-6.05h5.49c0,1.01,.92,2.52,2.75,4.54v1.51Zm11.15-127.47c-.04-.29,0-.58,.1-.86,.1-.28,.26-.53,.48-.73,.22-.21,.48-.37,.77-.46,.29-.1,.6-.13,.9-.1l2.32,2.14h-4.57Zm9.21,41.04c3.87-3.75,6.1-6.41,6.65-7.98l.15-.69c0,.2-.06,.43-.15,.69l-2.13,10.12-4.52-2.14Zm6.03,43.77l-1.36,3.94-2.26-2.2,3.63-1.74,.93-2.57h4.51l-5.44,2.57Zm15.79-88.24c-3.83,2.37-7.93,4.33-12.2,5.85l-.28-.42-6.77,.02c.05-.59-.03-1.18-.23-1.74-.2-.56-.52-1.07-.94-1.51-.95-1.59-1.36-3.42-1.17-5.24,6.4-3.72,13.27-6.65,20.45-8.71l13.62,6.46c-4.37,1.27-8.56,3.04-12.48,5.28Zm41.69,37.79v2.15l-2.26-2.14v-4.3l2.26,4.29Zm.06,21.61c-1.24-.07-2.46,.33-3.4,1.11-.93,.76-2.13,1.14-3.35,1.06-2.2,.04-4.38-.41-6.36-1.31-1.98-.9-3.71-2.24-5.06-3.9-2.81-3.4-5.83-6.63-9.06-9.67,4.8,1.44,9.72,2.52,14.71,3.21,2.87,.45,5.57,1.61,7.82,3.37,2.09,1.64,3.66,3.76,4.69,6.14h.01l.28,.52c-.07-.19-.21-.34-.29-.52Zm47.96,19.56l-8.5,3.05,1.07-9.63-19.16,6.88-3.7-3.26,13.27-9.42c6.55,.62,12.7,3.27,17.52,7.55l-.5,4.83Zm-10.58-66.35l2.61-5.59,2.96,1.24,.25,6.86-5.82-2.51Zm13.2-27.44l-.79-.05-7.57,9.11-4.52-5.32c.3-.78,.75-1.49,1.34-2.09,.59-.61,1.3-1.09,2.09-1.44,2.26-.99,4.84-1.09,7.18-.28l1.48,.03,.63-.79,.31,.78,9.8,.23-1.02,9.61-4.79,6.32c-2.21-5.15-3.6-10.57-4.14-16.11Zm15.12,107.98l-5.84-2.55-2.39-6.03,8.72,3.76-.5,4.83Zm1.41-74.17h-5.49c0-1.76,1.82-2.77,5.49-3.03v3.03Zm9.15,.45l-2.93-1.3,.52-4.78-.54-1.37-3.16-1.89,2.11-.76,1.05,2.65,6.41,3.86-3.46,3.6Zm28.1-33.18l6.63,4.57-8.5,3.05-1.59-4.02,3.46-3.6Zm-6.37,107.9l-.17-.05c-2.73-4.65-4.31-9.83-4.62-15.14,.91-3.81,2.44-7.46,4.54-10.81,6.07,2.41,11.5,6.08,15.89,10.75-1.31,4.41-6.57,9.46-15.64,15.25Zm16.31-39.86l-6.33,2.28-.8-2.01,9.02-7.84,5.02,.49-6.9,7.08ZM166.26,428.23l-2.93-1.3,.52-4.78-.54-1.37-3.16-1.89,2.11-.76,1.05,2.65,6.41,3.86-3.46,3.6Zm15.32-47.03l14.89-5.35-.52,4.78c-4.78-.76-9.67-.56-14.37,.57Zm10.91,21.47l-1.59-4.02,3.46-3.6,6.63,4.57-8.5,3.05Zm24.34-20.88v-4.67l6.82,2.18,.03,8.97-6.85-6.48Zm26.48,9.37c-.06-.82-.29-1.63-.68-2.37-.39-.74-.93-1.39-1.59-1.93l4.51-2.21v4.35l-2.24,2.16Zm22.52-49.77l-2.25,2.16v-4.3l2.25,2.14Zm2.27,19.73l-1.59,9.31h.48v2.15l-.91,.35-.15,.87-.61-.58-9.65,3.69-4.52-2.14,9.07-4.32h2.14l-3.28-3.08c.15-4.24,3.17-6.18,9.01-6.25l.05-.28,.17,.26c-.08,0-.13,.02-.21,.02Zm9.66-19.2c.47,.4,.98,.73,1.55,.99,.76,.35,1.6,.53,2.44,.6h0l.17,.04c-.06,0-.11-.04-.16-.04,.12,1.43,.74,2.78,1.75,3.84l-5.74-5.43Zm24.3-45.07s-.03,.03-.04,.05v1.19h-1.6c-.23,.04-.47,.05-.71,0h.71c.09-.01,.17-.02,.26-.04,.31-.08,.6-.24,.84-.45,.22-.2,.39-.44,.51-.71v-1.01l.16,.05c.03,.31,0,.62-.13,.91Zm26.2-133.16l14.89-5.35-.52,4.78c-4.78-.76-9.67-.56-14.37,.57Zm9.32,17.44l3.46-3.6,6.63,4.57-8.5,3.05-1.59-4.02Zm13.4,64.45l-6.33,2.28-.8-2.01,9.02-7.84,5.02,.49-6.91,7.08Zm8.07-133.27l-4.52-2.14,2.24-6.51,4.58,2.19-2.29,6.46Zm20.46,12.94h-4.51l2.24-4.34,4.52,2.19-2.25,2.16Z"/><path d="M372.05,271.26v.32c.01,1.1,.07,2.19,.15,3.29,.73-1.18,1.1-2.04,1.1-2.57l-1.25-1.03Z"/></g><g><path d="M298.24,570.71l2.75,6.72c-1.83,0-2.75,.45-2.75,1.34h0c-.26,2.88-.77,5.73-1.53,8.53l.61,.28,2.27-1.37c-.45-.67-.89-1.35-1.34-2.06,1.82,0,2.75-.45,2.75-1.34,1.35,0,2.53,.14,3.55,.41l1.6-.97,.66,1.97s.03,.02,.04,.03c.25-3.54-.64-6.32-2.6-9.49-.17,0-.33-.02-.51-.02v-.77c-.31-.48-.64-.96-1-1.46-.75-1.05-1.5-2.1-2.24-3.14h-2.25v1.34Z"/><path d="M97.61,648.57c-2.12-1.02-4.11-2.25-5.98-3.63,1.83,4.23,3.88,6.38,6.16,6.38h7.37c-2.59-.67-5.12-1.58-7.54-2.74Z"/><path d="M300.98,629.82c-1.24-.41-2.54-.76-3.88-1.07l3.41,3.43,.02,5.73-5.74-5.71,1.75-3.58c-4.43-.99-9.35-1.48-14.78-1.48l2.75-2.69,20.43,1.11c-.61-5.84-2.23-11.57-2.21-17.48,.02-5.01,1.05-9.89,2.21-14.74-.95-1.1-1.9-2.27-2.84-3.54-1.33-.27-2.58-.86-3.62-1.75l-1.17-.46-.74,.47v-.74l-7.69-3.1,3.8-7.69,.97-.64c-.59-1.29-.88-3-.88-5.16h-16.48v2.69h-5.49v-2.69h-2.75c-27.46,0-64.99,.45-112.58,1.34l-5.49-1.34,2.75-2.69c11.48-.24,22.31-.46,32.56-.67l-5.61-5.62-11.54,1.94c0-1.26-1.27-3.21-3.83-5.72l-.83-2.03h-5.25v-1.34h4.7l-2.52-6.2,24.97,3.74c.72,.19,1.52,1.01,2.44,2.46h3.36l-2.18,2.13c.69,1.36,1.43,3.03,2.25,5.02l8.88,5.31c19.72-.39,36.86-.72,51.4-.98l-.91-1.36,7.68-.02v1.27c17.26-.3,30.4-.49,39.46-.57-1.97-2.93-3.84-5.92-5.5-9.14-1.41,.22-3.07,.57-4.98,1.03l-.23-.15v1.15l1.92,2.51h-1.91v-2.51l-1.73-2.27-6.28-4.1v-1.34h5.49c0,.61,.2,1.14,.57,1.61l1.92-.98,1.91,1.95-.4,.81c.8,.19,1.73,.34,2.76,.44-2.86-5.57-5.7-11.07-9.67-15.98-2.76-3.41-5.62-6.71-8.13-10.26-3.12-.17-6.75-.32-10.95-.43-16.48-8.95-28.38-13.43-35.7-13.43l2.75-2.69v-1.34h-2.75c-2.75-4.25-9.16-8.28-19.22-12.09-11.44,0-23.34,3.58-35.7,10.75,0,2.69,16.48,4.03,49.43,4.03v1.34l-16.48,1.34c-.92,0-12.81-.45-35.7-1.34-14.82,5.8-31.78,9.5-50.87,11.13-.15,.33-.33,.65-.56,.96-3.38,4.48-7.43,8.58-11.15,12.91,.07,1.09-.12,2.21-.67,3.29,3.05,.16,5.84,.57,8.33,1.27l5.49-1.34c1.82,0,4.57,.45,8.24,1.34,0,1.6-8.69,2.83-26.04,3.72-4.65,6.08-7.76,13.28-12.85,19.11,.15,0,.29,.01,.45,.01h24.71l19.22-1.34,2.75,2.69v1.34l-13.73,1.34h-8.24l-13.73-1.34c0,.67-5.49,2.01-16.48,4.03l2.75,6.72v10.75c0,1.8,4.57,2.69,13.73,2.69v1.34c-9.16,.22-13.73,1.57-13.73,4.03v4.03l2.75,9.4c-1.83,0-2.75,.45-2.75,1.34l2.75,2.69-2.75,2.69,5.49,5.37-5.49,1.34c.13,.78,.26,1.52,.38,2.26l.34,.34,.06-.03,.25,.25,10.17-5.12,1.9-3.82v1.91c.05,.52,0,1.04-.16,1.54-.16,.5-.41,.96-.75,1.35-.82,1.41-1.16,3.04-.96,4.66l-5.76,3.88-4.42-4.39-.06,.03-.25-.25-.26,.14c.45,2.52,.92,4.82,1.41,6.92,1.53,1.78,3.21,3.43,5.05,4.88,10.06,7.88,23.44,8.8,35.49,5.83,1.84-.45,3.04,1.02,3.1,2.47h1.17v2.69h5.49l19.22-2.69v-2.69h-5.49v-2.69c3.66,0,9.15-.89,16.48-2.69l2.28,.56,3.71-2.76-.49-.48v-6.72c5.49,.67,8.24,3.36,8.24,8.06h5.49l10.98-4.03h8.24l16.48,6.72c8.69,6.27,29.75,9.4,63.16,9.4h2.75l5.49-1.34c0,.06,.01,.1,.02,.16,.73-1.39,1.46-2.79,2.18-4.19h-7.69c-5.95,0-18.77-.89-38.44-2.69v-.9l-.55,1.54-6.29-14.07h-1.39l-19.22-1.34c0,.9-3.67,1.34-10.98,1.34h-2.75c0-1.34,12.04-3.17,36.11-5.49l.05-.13,.06,.12c4.07-.39,8.46-.8,13.22-1.22,5.94,1.8,10.53,2.69,13.73,2.69v1.34c0,1.8-1.83,2.69-5.49,2.69h-18.81l3.91,8.15-.93,2.59c.82-.74,2.42-1.19,4.85-1.34h19.22l24.36,.99c.06-.11,.11-.22,.17-.33,1.93-3.77,3.89-6.94,4.24-10.9-1.42,.21-2.78,.48-4.05,.83Zm-30.21-90l5.49,1.34c0,1.8-1.83,2.69-5.49,2.69v-4.03Zm0,5.37h8.24v1.34h-8.24v-1.34Zm-2.75,9.4h8.24v1.34h-8.24v-1.34Zm-5.49-22.84h2.75v2.69h-2.75v-2.69Zm-60.41,12.09h5.49v1.34h-5.49v-1.34Zm0,10.75h13.73v1.34h-13.73v-1.34Zm-13.73-6.72h2.75c0,.9,.92,2.24,2.75,4.03v1.34h-5.49v-5.37Zm-43.94-5.37c4.12,0,7.78,.45,10.98,1.34,3.19-.89,6.86-1.34,10.98-1.34h5.49l5.49,1.34c0,1.8-1.83,2.69-5.49,2.69h-27.46l-5.49-1.34c0-1.56,1.82-2.46,5.49-2.69Zm-24.71,94.03c-2.3,0-5.95-2.23-10.98-6.72v-4.03c5.03,0,8.69,3.14,10.98,9.4v1.34Zm-9.27-11.13l5.73-.02-1.9,1.91-3.82-1.9Zm17.5,20.53v-6.72h2.75l2.75,6.72h-5.49Zm27.46-30.89l-5.49,4.03-27.46-1.34h-5.49l-13.73,1.34v-1.34c0-1.56,6.41-3.36,19.22-5.37l16.48,1.34h2.75l8.24-2.69h5.49v4.03Zm5.49-18.81c-1.83,0-4.58,.45-8.24,1.34l-5.49-1.34-5.49,1.34c-3.2-.89-6.86-1.34-10.98-1.34h-21.97c-3.2,0-5.04-.89-5.49-2.69,4.12,0,7.78-.45,10.98-1.34,9.61,0,25.16,.9,46.68,2.69v1.34Zm8.24-16.12c0,1.8-1.83,2.69-5.49,2.69h-2.75c-3.2,0-5.04-.89-5.49-2.69v-1.34l2.75-2.69,10.98,1.34v2.69Zm13.73,49.7c-3.2,0-5.04-.89-5.49-2.69h5.49v2.69Zm10.98-14.78l-13.73,1.34h-2.75v-1.34c0-1.56,1.82-2.46,5.49-2.69h10.98v2.69Zm13.73,13.43c-3.2,0-5.04-.89-5.49-2.69h5.49v2.69Zm8.24-13.43h-10.98v-4.03h10.98v4.03Zm57.67-2.69h-2.75v-2.69h2.75v2.69Zm2.75-28.21h-16.48l-3.63,.89c1.34,.34,2.7,.6,4.07,.75l-13.46,.04,.52-1.04c-8.14-.96-12.22-2.07-12.22-3.32v-2.69h2.75c6.41,0,14.65,.45,24.71,1.34l5.49-1.34c0,.9,2.75,1.34,8.24,1.34v4.03Z"/><path d="M313.31,646.76l-1.38,2.77,2.79-.91c0-.79-.47-1.41-1.41-1.86Z"/></g><g><path d="M92.29,629.25l-2.75-6.72c1.83,0,2.75-.45,2.75-1.34h0c.26-2.88,.77-5.73,1.53-8.53l-.61-.28-2.27,1.37c.45,.67,.89,1.35,1.34,2.06-1.82,0-2.75,.45-2.75,1.34-1.35,0-2.53-.14-3.55-.41l-1.6,.97-.66-1.97s-.03-.02-.04-.03c-.25,3.54,.64,6.32,2.6,9.49,.17,0,.33,.02,.51,.02v.77c.31,.48,.64,.96,1,1.46,.75,1.05,1.5,2.1,2.24,3.14h2.25v-1.34Z"/><path d="M292.92,551.4c2.12,1.02,4.11,2.25,5.98,3.63-1.83-4.23-3.88-6.38-6.16-6.38h-7.37c2.59,.67,5.12,1.58,7.54,2.74Z"/><path d="M89.55,570.15c1.24,.41,2.54,.76,3.88,1.07l-3.41-3.43-.02-5.73,5.74,5.71-1.75,3.58c4.43,.99,9.35,1.48,14.78,1.48l-2.75,2.69-20.43-1.11c.61,5.84,2.23,11.57,2.21,17.48-.02,5.01-1.05,9.89-2.21,14.74,.95,1.1,1.9,2.27,2.84,3.54,1.33,.27,2.58,.86,3.62,1.75l1.17,.46,.74-.47v.74l7.69,3.1-3.8,7.69-.97,.64c.59,1.29,.88,3,.88,5.16h16.48v-2.69h5.49v2.69h2.75c27.46,0,64.99-.45,112.58-1.34l5.49,1.34-2.75,2.69c-11.48,.24-22.31,.46-32.56,.67l5.61,5.62,11.54-1.94c0,1.26,1.27,3.21,3.83,5.72l.83,2.03h5.25v1.34h-4.7l2.52,6.2-24.97-3.74c-.72-.19-1.52-1.01-2.44-2.46h-3.36l2.18-2.13c-.69-1.36-1.43-3.03-2.25-5.02l-8.88-5.31c-19.72,.39-36.86,.72-51.4,.98l.91,1.36-7.68,.02v-1.27c-17.26,.3-30.4,.49-39.46,.57,1.97,2.93,3.84,5.92,5.5,9.14,1.41-.22,3.07-.57,4.98-1.03l.23,.15v-1.15l-1.92-2.51h1.91v2.51l1.73,2.27,6.28,4.1v1.34h-5.49c0-.61-.2-1.14-.57-1.61l-1.92,.98-1.91-1.95,.4-.81c-.8-.19-1.73-.34-2.76-.44,2.86,5.57,5.7,11.07,9.67,15.98,2.76,3.41,5.62,6.71,8.13,10.26,3.12,.17,6.75,.32,10.95,.43,16.48,8.95,28.38,13.43,35.7,13.43l-2.75,2.69v1.34h2.75c2.75,4.25,9.16,8.28,19.22,12.09,11.44,0,23.34-3.58,35.7-10.75,0-2.69-16.48-4.03-49.43-4.03v-1.34l16.48-1.34c.92,0,12.81,.45,35.7,1.34,14.82-5.8,31.78-9.5,50.87-11.13,.15-.33,.33-.65,.56-.96,3.38-4.48,7.43-8.58,11.15-12.91-.07-1.09,.12-2.21,.67-3.29-3.05-.16-5.84-.57-8.33-1.27l-5.49,1.34c-1.82,0-4.57-.45-8.24-1.34,0-1.6,8.69-2.83,26.04-3.72,4.65-6.08,7.76-13.28,12.85-19.11-.15,0-.29-.01-.45-.01h-24.71l-19.22,1.34-2.75-2.69v-1.34l13.73-1.34h8.24l13.73,1.34c0-.67,5.49-2.01,16.48-4.03l-2.75-6.72v-10.75c0-1.8-4.57-2.69-13.73-2.69v-1.34c9.16-.22,13.73-1.57,13.73-4.03v-4.03l-2.75-9.4c1.83,0,2.75-.45,2.75-1.34l-2.75-2.69,2.75-2.69-5.49-5.37,5.49-1.34c-.13-.78-.26-1.52-.38-2.26l-.34-.34-.06,.03-.25-.25-10.17,5.12-1.9,3.82v-1.91c-.05-.52,0-1.04,.16-1.54,.16-.5,.41-.96,.75-1.35,.82-1.41,1.16-3.04,.96-4.66l5.76-3.88,4.42,4.39,.06-.03,.25,.25,.26-.14c-.45-2.52-.92-4.82-1.41-6.92-1.53-1.78-3.21-3.43-5.05-4.88-10.06-7.88-23.44-8.8-35.49-5.83-1.84,.45-3.04-1.02-3.1-2.47h-1.17v-2.69h-5.49l-19.22,2.69v2.69h5.49v2.69c-3.66,0-9.15,.89-16.48,2.69l-2.28-.56-3.71,2.76,.49,.48v6.72c-5.49-.67-8.24-3.36-8.24-8.06h-5.49l-10.98,4.03h-8.24l-16.48-6.72c-8.69-6.27-29.75-9.4-63.16-9.4h-2.75l-5.49,1.34c0-.06-.01-.1-.02-.16-.73,1.39-1.46,2.79-2.18,4.19h7.69c5.95,0,18.77,.89,38.44,2.69v.9l.55-1.54,6.29,14.07h1.39l19.22,1.34c0-.9,3.67-1.34,10.98-1.34h2.75c0,1.34-12.04,3.17-36.11,5.49l-.05,.13-.06-.12c-4.07,.39-8.46,.8-13.22,1.22-5.94-1.8-10.53-2.69-13.73-2.69v-1.34c0-1.8,1.83-2.69,5.49-2.69h18.81l-3.91-8.15,.93-2.59c-.82,.74-2.42,1.19-4.85,1.34h-19.22l-24.36-.99c-.06,.11-.11,.22-.17,.33-1.93,3.77-3.89,6.94-4.24,10.9,1.42-.21,2.78-.48,4.05-.83Zm30.21,90l-5.49-1.34c0-1.8,1.83-2.69,5.49-2.69v4.03Zm0-5.37h-8.24v-1.34h8.24v1.34Zm2.75-9.4h-8.24v-1.34h8.24v1.34Zm5.49,22.84h-2.75v-2.69h2.75v2.69Zm60.41-12.09h-5.49v-1.34h5.49v1.34Zm0-10.75h-13.73v-1.34h13.73v1.34Zm13.73,6.72h-2.75c0-.9-.92-2.24-2.75-4.03v-1.34h5.49v5.37Zm43.94,5.37c-4.12,0-7.78-.45-10.98-1.34-3.19,.89-6.86,1.34-10.98,1.34h-5.49l-5.49-1.34c0-1.8,1.83-2.69,5.49-2.69h27.46l5.49,1.34c0,1.56-1.82,2.46-5.49,2.69Zm24.71-94.03c2.3,0,5.95,2.23,10.98,6.72v4.03c-5.03,0-8.69-3.14-10.98-9.4v-1.34Zm9.27,11.13l-5.73,.02,1.9-1.91,3.82,1.9Zm-17.5-20.53v6.72h-2.75l-2.75-6.72h5.49Zm-27.46,30.89l5.49-4.03,27.46,1.34h5.49l13.73-1.34v1.34c0,1.56-6.41,3.36-19.22,5.37l-16.48-1.34h-2.75l-8.24,2.69h-5.49v-4.03Zm-5.49,18.81c1.83,0,4.58-.45,8.24-1.34l5.49,1.34,5.49-1.34c3.2,.89,6.86,1.34,10.98,1.34h21.97c3.2,0,5.04,.89,5.49,2.69-4.12,0-7.78,.45-10.98,1.34-9.61,0-25.16-.9-46.68-2.69v-1.34Zm-8.24,16.12c0-1.8,1.83-2.69,5.49-2.69h2.75c3.2,0,5.04,.89,5.49,2.69v1.34l-2.75,2.69-10.98-1.34v-2.69Zm-13.73-49.7c3.2,0,5.04,.89,5.49,2.69h-5.49v-2.69Zm-10.98,14.78l13.73-1.34h2.75v1.34c0,1.56-1.82,2.46-5.49,2.69h-10.98v-2.69Zm-13.73-13.43c3.2,0,5.04,.89,5.49,2.69h-5.49v-2.69Zm-8.24,13.43h10.98v4.03h-10.98v-4.03Zm-57.67,2.69h2.75v2.69h-2.75v-2.69Zm-2.75,28.21h16.48l3.63-.89c-1.34-.34-2.7-.6-4.07-.75l13.46-.04-.52,1.04c8.14,.96,12.22,2.07,12.22,3.32v2.69h-2.75c-6.41,0-14.65-.45-24.71-1.34l-5.49,1.34c0-.9-2.75-1.34-8.24-1.34v-4.03Z"/><path d="M77.22,553.2l1.38-2.77-2.79,.91c0,.79,.47,1.41,1.41,1.86Z"/></g><polygon points="161.39 686.94 166.75 684.92 172.59 678.64 168.35 678.2 160.72 685.15 161.39 686.94"/><polygon points="77.65 710.56 70.27 707.22 72.29 712.58 77.23 714.85 77.65 710.56"/><polygon points="164.96 655.93 165.08 658.63 166.62 657.23 164.96 655.93"/><polygon points="124.56 687.32 126.2 685.92 124.55 684.62 124.56 687.32"/><path d="M147.6,666.26h-3.19l.17,.33c-1.81,1.37-2.93,3.27-3.12,5.32l3.07-2.85,3.07-2.8Z"/><polygon points="73.11 671.9 79.9 677.61 79.88 671.89 75.35 668.03 73.11 671.9"/><polygon points="285.17 718.09 290.53 716.07 296.37 709.78 292.12 709.35 284.5 716.3 285.17 718.09"/><polygon points="202.4 730.71 195.02 727.37 197.04 732.73 201.98 734.99 202.4 730.71"/><polygon points="289.71 676.07 289.83 678.78 291.36 677.37 289.71 676.07"/><polygon points="248.34 718.47 249.98 717.07 248.33 715.77 248.34 718.47"/><path d="M272.35,686.41h-3.19l.17,.33c-1.81,1.37-2.93,3.27-3.12,5.32l3.07-2.85,3.07-2.8Z"/><polygon points="197.85 692.05 204.64 697.76 204.62 692.03 200.09 688.18 197.85 692.05"/></g></svg>