<?xml version="1.0" encoding="UTF-8"?><svg id="Layer_1" xmlns="http://www.w3.org/2000/svg" xmlns:xlink="http://www.w3.org/1999/xlink" viewBox="0 0 168.24 70.81"><defs><filter id="drop-shadow-1" filterUnits="userSpaceOnUse"><feOffset dx="-.5" dy="1"/><feGaussianBlur result="blur" stdDeviation="1"/><feFlood flood-color="#000" flood-opacity=".75"/><feComposite in2="blur" operator="in"/><feComposite in="SourceGraphic"/></filter></defs><g filter="url(#drop-shadow-1)"><path d="M14.15,58.74l-.85,.14v-.28h-.28v.28c-.19,0-.52-.09-1-.28,0,.15-.11,.22-.29,.25,.28,.26,.57,.52,.86,.77,.16-.09,.37-.08,.54,.09,.07,.07,.14,.15,.2,.22l.25-.05,1.71,.14c0-.09,.05-.14,.14-.14-.64-.73-1.07-1.11-1.28-1.14Zm-1,.57c-.17,0-.26-.09-.28-.28h.28v.28Z"/><rect x="8.61" y="12.12" width=".14" height=".28"/><rect x="11.17" y="25.19" width=".28" height=".14"/><rect x="12.16" y="28.61" width=".28" height=".14"/><rect x="12.16" y="55.33" width=".14" height=".28"/><rect x="13.16" y="55.76" width=".28" height=".14"/><path d="M13.73,41.4h.14c.19,0,.28-.09,.28-.28h-.14c-.19,.02-.28,.12-.28,.28Z"/><rect x="13.73" y="43.96" width=".28" height=".14"/><rect x="14.15" y="43.39" width=".28" height=".14"/><rect x="14.15" y="59.45" width=".28" height=".14"/><path d="M14.58,54.76v.14c.19,0,.28-.09,.28-.28v-.14c-.19,.02-.28,.12-.28,.28Z"/><rect x="14.86" y="7.14" width=".43" height=".14"/><rect x="15.86" y="9.42" width=".28" height=".14"/><path d="M15.86,53.77v.14c.02,.19,.12,.28,.28,.28v-.14c0-.19-.09-.28-.28-.28Z"/><rect x="16.57" y="56.33" width=".14" height=".28"/><rect x="16.71" y="61.73" width=".28" height=".14"/><rect x="17" y="30.03" width=".43" height=".14"/><rect x="17.42" y="8.42" width=".28" height=".14"/><rect x="18.28" y="30.31" width=".28" height=".14"/><rect x="18.84" y="61.59" width=".14" height=".28"/><path d="M19.27,8.99v.28h.14c.19,0,.28-.09,.28-.28v-.14c-.19,.09-.33,.14-.43,.14Z"/><path d="M19.27,11.69c.02,.19,.12,.28,.28,.28h.14c0-.19-.09-.28-.28-.28h-.14Z"/><rect x="19.41" y="9.42" width=".14" height=".28"/><rect x="19.7" y="7.28" width=".14" height=".43"/><path d="M21.26,6.29l-.14,.28v.14h.43v-.14c0-.19-.09-.28-.28-.28Z"/><rect x="21.83" y="3.3" width=".28" height=".14"/><rect x="22.82" y="2.88" width=".14" height=".28"/><rect x="25.38" y="7.71" width=".28" height=".14"/><rect x="26.52" y="6.15" width=".28" height=".14"/><rect x="26.81" y="3.45" width=".28" height=".14"/><rect x="27.09" y="23.2" width=".28" height=".14"/><path d="M55.38,61.87h-3.27c-.24,0-.66-.09-1.28-.28-.38,.14-.57,.28-.57,.43v.14c.21,0,.88,.14,1.99,.43,.17-.09,.36-.14,.57-.14h1.14l.28-.14c0,.09,.05,.14,.14,.14h1.56c.19,0,.28-.09,.28-.28v-.14l-.14-.28-.71,.14Z"/><path d="M40.74,61.44l-.57-.14-.71,.14-.71-.14c0,.09-.09,.14-.28,.14v.14c.05,.19,.28,.38,.71,.57l.57-.14c.38,0,.57,.19,.57,.57h2.13c0-.14,.14-.33,.43-.57v-.14l-1-.57c-.38,0-.76,.05-1.14,.14Z"/><path d="M52.53,55.05v.43h-.14c-.17,0-.26-.09-.28-.28v-.14h.43Z"/><rect x="32.49" y="54.62" width=".14" height=".28"/><rect x="34.91" y="36.42" width=".14" height=".28"/><path d="M35.19,41.68c.02,.19,.12,.28,.28,.28h.14c0-.19-.09-.28-.28-.28h-.14Z"/><rect x="37.04" y="18.8" width=".28" height=".14"/><rect x="37.89" y="50.64" width=".14" height=".43"/><rect x="39.03" y="58.03" width=".28" height=".14"/><rect x="39.88" y="52.06" width=".28" height=".14"/><rect x="40.31" y="52.35" width=".28" height=".14"/><rect x="46.14" y="12.26" width=".28" height=".14"/><path d="M46.42,10.84h.14c.19,0,.28-.09,.28-.28h-.14c-.19,.02-.28,.12-.28,.28Z"/><rect x="48.13" y="14.53" width=".28" height=".14"/><rect x="48.27" y="51.78" width=".43" height=".14"/><rect x="48.41" y="52.35" width=".14" height=".43"/><path d="M48.7,38.13c.02,.19,.12,.28,.28,.28h.14c0-.19-.09-.28-.28-.28h-.14Z"/><rect x="49.41" y="53.62" width=".28" height=".14"/><rect x="49.98" y="23.49" width=".43" height=".14"/><rect x="50.83" y="48.65" width=".28" height=".14"/><rect x="53.53" y="52.91" width=".28" height=".14"/><rect x="54.52" y="52.63" width=".43" height=".14"/><rect x="55.23" y="57.18" width=".14" height=".28"/><path d="M70.44,58.17l.14,.28v.14h-1.28l-.28,.14c0-.09-.05-.14-.14-.14h-1l-.71,.14v.85c-.59,.19-.92,.28-1,.28v.14l.14,.28c.09,0,.14-.05,.14-.14,.09,0,.24,.05,.43,.14,.14,0,.28-.19,.43-.57l.85,.28c.19-.09,.33-.14,.43-.14,.36,0,.73,.19,1.14,.57h.28c0-.14,.09-.33,.28-.57l.28,.14h.14v-1.42l.14-.28-.28-.14h-.14Zm-2.42,1.28h-.43l.14-.57h.43l-.14,.57Zm.14,.14l.14-.28c.19,0,.28,.09,.28,.28h-.43Z"/><path d="M70.16,60.73h-.43c-.19,0-.28,.19-.28,.57h-.43l-.57,.28h-.14v-.14h.28v-.43c0-.17-.09-.26-.28-.28l-.85,.85h-.28l-.43-.28-.28,.14c.24,.38,.43,.57,.57,.57h.28l.28-.14c0,.57,.9,.85,2.7,.85,.19,0,.33-.28,.43-.85-.09-.76-.28-1.14-.57-1.14Z"/><path d="M65.04,55.47h-.14l-.14,.57c-.09,0-.14-.05-.14-.14l-.43,.28-.71-.57h-.14c-1.04,.36-1.56,.64-1.56,.85v.28l.71,.85v.28h-.14c-.76-.43-1.14-.71-1.14-.85,.09,0,.14-.05,.14-.14v-.43h-.14c-.17,0-.26,.09-.28,.28v.14l.14,.28c-.09,0-.14,.05-.14,.14v.14l.28,.43c0,.19-.09,.28-.28,.28,0-.14-.09-.33-.28-.57v-.14l.14-.28c-.09,0-.14-.05-.14-.14-.09,0-.14,.05-.14,.14-.21-.19-.5-.28-.85-.28v-.14h.28v-.14c-.28-.26-.43-.54-.43-.85h-.14c-.17,0-.26,.09-.28,.28v5.4c0,.85,.43,1.28,1.28,1.28,1.14-.09,1.71-.24,1.71-.43v-1h-.28v-.28l.14-.71-.43-.28,.43-.85-.14-.28c-.38,.19-.57,.43-.57,.71h-.14c-.07-.66-.21-1-.43-1h-.14l-.57,.43h-.43c0-.09-.05-.24-.14-.43,.12-.09,.78-.19,1.99-.28,0,.28,.09,.43,.28,.43l.14-.57c.09,0,.14,.05,.14,.14,.09,0,.24-.05,.43-.14,.36,0,.83,.09,1.42,.28h.14v-.28h-.28v-.14c.47,0,.71-.09,.71-.28,.09,0,.14,.05,.14,.14,.19,0,.28-.19,.28-.57l.57-1.42c0-.28-.09-.43-.28-.43Zm-3.84,4.55v.28h-.28c0-.17,.09-.26,.28-.28Zm-.28-.57v.14c0,.19-.09,.28-.28,.28v-.43h.28Zm-.43-.43h.28v.28h-.28v-.28Zm-.43,1.99l.14-.28,.28,.14c.19,0,.28-.09,.28-.28,.19,.09,.33,.14,.43,.14v.28c-.24,0-.62,.05-1.14,.14v-.14Zm2.99-3.84h-.28c0-.17,.09-.26,.28-.28v.28Zm.14-.71h-.28c0-.17,.09-.26,.28-.28v.28Zm1.14,1.14h-.28c0-.09-.05-.24-.14-.43l.28-.14h.14v.57Z"/><path d="M60.21,49.22h-.71c-.28,.14-.43,.28-.43,.43v5.54h1.56l.71-.57c0,.47,.19,.71,.57,.71l.14-.28v-.28c-.24-.47-.43-.71-.57-.71h-.28c-.19,0-.28,.19-.28,.57h-.71l-.28-1.14c.09,0,.14,.05,.14,.14,.19,0,.33-.28,.43-.85-.14-.28-.28-.43-.43-.43l.14-1h-.28v-.14l.28-.43c0-.19-.14-.28-.43-.28v-.14c.28-.45,.43-.83,.43-1.14Z"/><rect x="59.93" y="59.45" width=".14" height=".28"/><rect x="60.21" y="62.15" width=".14" height=".28"/><rect x="61.06" y="56.04" width=".14" height=".28"/><rect x="61.92" y="5.44" width=".14" height=".28"/><path d="M68.17,55.9l-.14,.28v.14h.43v-.14c0-.19-.09-.28-.28-.28Z"/><rect x="68.45" y="51.49" width=".14" height=".28"/><rect x="68.45" y="57.04" width=".28" height=".14"/><rect x="69.02" y="55.9" width=".28" height=".14"/><rect x="69.31" y="61.73" width=".14" height=".28"/><rect x="69.45" y="62.3" width=".14" height=".28"/><rect x="70.3" y="54.19" width=".14" height=".28"/><path d="M94.15,51.07c-.12-.66-.26-1-.43-1s-.26,.09-.28,.28c-.14,0-.28-.19-.43-.57v-.14l.71,.14c.19,0,.28-.09,.28-.28v-.71h-.71v-.43c.43,0,.71-.05,.85-.14l-.14-.71v-2.56h-1.14c-.17,0-.26-.09-.28-.28,.21,0,.4-.05,.57-.14,.17,.09,.36,.14,.57,.14h.28v-.71l-.14-.28c.09,0,.14-.05,.14-.14v-.14h-1.42c0-.17,.09-.26,.28-.28h1c0-.21,.05-.4,.14-.57-.09-1.68-.14-3.06-.14-4.12,0-.1-.05-.17-.12-.21-1.35,2.42-2.78,4.79-3.47,7.51,.02,.02,.03,.05,.03,.09,0,.38-.19,1.14-.57,2.27,0,.09,.09,.14,.28,.14v.14l-.85,.14v.28h.28v.28l-.71-.14c-.97,.38-1.59,.57-1.85,.57-.17,0-.26-.09-.28-.28-.66,0-1.71,.05-3.13,.14l-.57-.14c-.17,.09-.4,.14-.71,.14h-1.56s-.28-.19-.71-.57l.14-.28-.28-.43c.09,0,.57,.09,1.42,.28h.14c0-.09-.05-.14-.14-.14-.21-1.71-.45-2.56-.71-2.56h-.14c-.17,0-.26,.09-.28,.28-.17,0-.26-.09-.28-.28v-.28c.28,0,.66-.09,1.14-.28,0-.14-.05-.9-.14-2.27,0-.24,.05-.95,.14-2.13-.09,0-.14-.05-.14-.14h.14c0-.78-.05-1.54-.14-2.27,0-.33,.05-.76,.14-1.28,0-1.61,.43-2.42,1.28-2.42h.28c.72,0,1.13,.85,1.24,2.54,.09-.13,.2-.24,.29-.36,.15-.23,.32-.45,.53-.64,.34-.36,.7-.71,1.08-1.02,.02-.03,.04-.07,.07-.09,.66-.57,1.33-1.14,2.03-1.67,.33-.42,.75-.82,1.29-1.18-.33-.24-.61-.53-.87-.84-1.23-1.1-2.36-2.32-3.32-3.66-.06-.02-.11-.06-.16-.1-.36-.36-.65-.76-.92-1.18l-.14,1.39c.09,0,.14,.09,.14,.28-.21,.95-.64,1.42-1.28,1.42h-.71c-.66-.36-1-1.11-1-2.27v-.57c0-.19-.19-.28-.57-.28v-.14c.28,0,.43-.09,.43-.28v-.28c-.45-.47-.97-.71-1.56-.71,.09-.19,.14-.33,.14-.43h.28l.43,.57h.14c.19,0,.38-.38,.57-1.14l-1.42-.28c-.09,.17-.14,.36-.14,.57h-.28v-.57h-.71l.28-.57-.14-.28-.43,.28c0-.28-.09-.62-.28-1-.09,0-.14,.05-.14,.14l-.28-.14h-.14c0,.19-.09,.28-.28,.28v.43c0,.55,.05,.88,.14,1-.09,.52-.14,.95-.14,1.28v3.12c.05,.05,.1,.12,.13,.21,.34,.98,.41,2.07,.37,3.1-.04,.86-.17,1.73-.45,2.54,.15,.42,.24,.89,.24,1.41-.09,1.04-.14,1.94-.14,2.7v.14h.28c1.02-1.71,1.59-2.56,1.71-2.56h.14c0,.5-.33,.97-1,1.42-.54,1.14-.92,1.71-1.14,1.71l.14,.71c-.09,1.66-.14,2.65-.14,2.99,0,.28,.14,.43,.43,.43v.14c-.28,0-.43,.09-.43,.28v.14c0,.21,.05,.4,.14,.57-.09,.17-.14,.36-.14,.57v.28c0,.28,.95,.43,2.84,.43v.14l-.85,.14c-.97-.09-1.54-.14-1.71-.14h-.14c-.21,1.49-.45,2.49-.71,2.99,.66,0,1.04,.05,1.14,.14,0,.19-.09,.28-.28,.28h-1c-.52,0-1.23,.09-2.13,.28-.76,0-1.14,.28-1.14,.85v.71c0,.19,.09,.28,.28,.28h1l1-.14c.09,.47,.38,.71,.85,.71h.14c0-.09-.05-.14-.14-.14,0-.17,.09-.26,.28-.28h1.14c.66,0,1-.38,1-1.14h.14l.28,.14c-.19,.4-.28,.69-.28,.85h.43c1.07,0,2.44-.05,4.12-.14,.19,0,.28-.14,.28-.43h1c0,.12,.24,.31,.71,.57-1.14,.21-1.9,.4-2.27,.57-.17-.09-.36-.14-.57-.14h-.71c-1.09,0-2.75,.05-4.98,.14,0,.17,.66,.4,1.99,.71v.28c-.83,0-2.49-.43-4.98-1.28-.47,0-.71,.52-.71,1.56l.14,.71c-.09,0-.14,.05-.14,.14,.09,0,.14,.05,.14,.14,.19,0,.28-.09,.28-.28l.28,.14h.28v-1.28h.14v.14c0,.95,.85,1.42,2.56,1.42l-.28,.43c-.17,0-.26-.09-.28-.28-1.14,.09-1.71,.24-1.71,.43,1.16,.28,1.82,.43,1.99,.43v.14h-.14c-.64-.09-1.16-.14-1.56-.14v.14c.19,.21,.28,.5,.28,.85h.57c.38-.17,.57-.36,.57-.57h.71v.14h-.28l-.43,1-1.42-.14h-.28c-.47,.38-.76,.57-.85,.57h-.14v-.28c.12-.31,.5-.59,1.14-.85v-.14c0-.43-.43-.76-1.28-1-.17,0-.26,.09-.28,.28v.43c0,.28,.19,.43,.57,.43v.14h-.14l-.28-.14c0,.09-.05,.14-.14,.14,0,.09,.05,.14,.14,.14l-.14,.28v.43l.14,.28c-.09,0-.14,.05-.14,.14v1l.14,.28c-.09,0-.14,.05-.14,.14v.28l.14,.71c-.09,0-.14,.05-.14,.14,0,.28,.24,.47,.71,.57l.85-.14h1.28l.28-.14c0,.09,.43,.19,1.28,.28l.85-.14,.71,.14c0-.09,.19-.14,.57-.14v-.71h-.71c-.33,0-.76-.05-1.28-.14-.19,.09-.33,.14-.43,.14l-.85-.14v-.28c.19,0,.47-.09,.85-.28,.4,.19,.69,.28,.85,.28l.85-.71h.28l.28,.14,.14-.28v-.28c0-.17-.09-.26-.28-.28l.28-.85c0-.5-.52-.97-1.56-1.42v-.14c.17,0,.4-.09,.71-.28,.17,.09,.36,.14,.57,.14v-.14l-.14-.28c.38,0,.57-.33,.57-1-.09,0-.14-.05-.14-.14,.09-.17,.14-.36,.14-.57h.14c0,.5,.05,.92,.14,1.28-.09,0-.14,.05-.14,.14,0,.19,.24,.43,.71,.71v.14c-.09,0-.24-.05-.43-.14l-.28,.14c.09,.97,.28,1.63,.57,1.99l.71-.14v-.28h-.28v-.14l.14-.28c.66,.21,1,.4,1,.57l.28-.14-.14-.28c-.95-.36-1.42-.64-1.42-.85,.28,0,.43-.19,.43-.57h.28c.24,0,.81,.14,1.71,.43v.28l-.71-.14c-.28,0-.43,.09-.43,.28v.28c.24,0,.66-.09,1.28-.28l.28,.14c0-.09,.05-.14,.14-.14,0-.19-.14-.28-.43-.28v-.14l.14-.28c.09,0,.14,.05,.14,.14l.28-.14h.14c0,.09-.05,.14-.14,.14,0,.19,.09,.28,.28,.28h.14v-.28h.28c.17,0,.36,.28,.57,.85,.57,0,.85-.14,.85-.43h.14c0,.24,.38,.43,1.14,.57,1.99,.26,2.99,.54,2.99,.85h.14v-.43h.14l.43,.28h.14l.28-.14c0,.09,.05,.14,.14,.14,.19,0,.28-.09,.28-.28v-.28c-.21,0-.4-.05-.57-.14l.14-.28c.09,0,.24,.05,.43,.14l.28-.14c0,.57,.09,.85,.28,.85l.28-.14c0,.09,.05,.14,.14,.14h.43c0-.28,.09-.43,.28-.43h.14v.28c.09,0,.14-.05,.14-.14,.09,0,.14,.05,.14,.14l.28-.14c0-.09-.05-.14-.14-.14,.12-.85,.21-1.37,.28-1.56-.09-.17-.14-.36-.14-.57v-2.7l.14-.71Zm-10.09-23.88h.28c0,.19-.09,.28-.28,.28v-.28Zm-6.54,7.25h-.57v-.14h.57v.14Zm1.28-9.67l-.28-.14c0-.17,.09-.26,.28-.28v.43Zm-.71,18.62c0,.19-.09,.28-.28,.28v-.43h.28v.14Zm1-1h-.43v-.57h.14c.19,0,.28,.09,.28,.28v.28Zm-1.85,7.53h-.85v-.14h.85v.14Zm.14-2.13h-.28c-.17,0-.26-.09-.28-.28h.57v.28Zm.85,1.42v-.28h.28c.19,0,.28,.09,.28,.28h-.57Zm1.14,.71h-.71v-.14h.71v.14Zm0-1.71c-.17,0-.26-.09-.28-.28h.28c.19,0,.28,.09,.28,.28h-.28Zm2.84-18.2h.14v.57l-.71,.85c-.17,0-.26-.09-.28-.28,.57-.57,.85-.95,.85-1.14Zm-.85,.28c.19,0,.28,.09,.28,.28h-.28c-.17,0-.26-.09-.28-.28h.28Zm-.14,1.71v.43c-.36,.57-.59,.85-.71,.85h-.28c.36-.71,.69-1.14,1-1.28Zm-1,.14h.14v.43h-.28c.09-.19,.14-.33,.14-.43Zm-1,12.79v-.28h.28c0,.19-.09,.28-.28,.28Zm0-9.67v-.43l.57-.71-.14-.28h.43v.14c-.45,.85-.73,1.28-.85,1.28Zm4.26,14.64c-.09,0-.24,.05-.43,.14,0-.09-.09-.14-.28-.14v-.14h.71v.14Zm-8.96,9.67h-.28c-.17,0-.26-.09-.28-.28l-.43,.28h-.14v-.14c0-.19,.38-.33,1.14-.43v.57Zm.28-.28h-.14c.09-.19,.14-.33,.14-.43h.43c-.14,.28-.28,.43-.43,.43Zm.14-1.56h-.28l-.28,.14c.19-.52,.28-.9,.28-1.14h.28c0,.4,.19,.97,.57,1.71v.14h-.28l-.28-.85Zm.71,1.56c-.17,0-.26-.09-.28-.28v-.28c.19,0,.28,.09,.28,.28v.28Zm2.56-1.56c-.09,0-.24-.05-.43-.14l-.28,.14-1-.71v-.14c.09,0,.14,.05,.14,.14l.71-.14h.28l.28,.14-.14,.28v.14h.43v.28Zm.57-.57v.28c-.17,0-.26-.09-.28-.28h.28Zm-.57-1.28v.28l-.71,.14h-.14v-.14c0-.17,.09-.26,.28-.28h.57Zm4.26-2.99h-.85l-.28,.14c-.66-.12-1-.26-1-.43v-.28h.14c.33,0,.76,.05,1.28,.14l.28-.14c0,.09,.14,.14,.43,.14v.43Zm8.96-9.67h.71v.14l-.71,.14v-.28Zm-1,3.7h.28v.28c-.14,.28-.28,.43-.43,.43l.14-.71Zm-2.7,4.26h-.57l-1,.14c0-.19-.33-.28-1-.28v-.14c.09,0,.24-.05,.43-.14l.57,.14,.71-.14c.14,.09,.43,.14,.85,.14v.28Zm.57,1.42v-.28h.14c.19,0,.28,.09,.28,.28h-.43Zm-.43-1.42v-.28h.71v.28h-.71Zm2.99,1.99h-.14v-.28h.43c0,.19-.09,.28-.28,.28Zm.28-2.84h-.28v.28h.28v.14h-.57v-.43h-.14c-.28,.14-.43,.28-.43,.43-.26-.19-1.11-.43-2.56-.71v-.14h.43c.26,0,.54,.09,.85,.28l.28-.14c0,.09,.14,.19,.43,.28,.59-.19,1.16-.28,1.71-.28v.28Zm.85,4.26h-.28v-.28h.28v.28Zm.28-1.85h-.14v-.28h.43c0,.19-.09,.28-.28,.28Zm.43-2.42c-.17-.09-.36-.14-.57-.14v-.14h.57v.28Zm.14-.85v.28l-.85,.14c-.09-.19-.14-.33-.14-.43h-.14l-1.42-.14v-.28c.88,.05,1.45,.19,1.71,.43h.14l.71-.57,.14,.28c-.28,0-.43,.09-.43,.28h.28Z"/><path d="M79.79,59.31v.71l.14,.28c1.8,0,2.7-.24,2.7-.71,.17,.09,.36,.14,.57,.14l-.14,.28v.14h1.85l.28-.14c0-.17-.09-.26-.28-.28h-.28l-.71,.14v-.28h-.14l-.43,.28c0-.28-.09-.43-.28-.43h-.57l-.28,.14c0-.14-.43-.28-1.28-.43v-.28l1-.14h1.42c0-.38-.24-.71-.71-1h-.14l-.28,.14c0-.09-.05-.14-.14-.14-.28,.14-.43,.28-.43,.43-.19,0-.28-.14-.28-.43h-1.42v1l.14,.28c-.17,0-.26,.09-.28,.28Zm.71-.57c.19,0,.28,.09,.28,.28h-.57c0-.17,.09-.26,.28-.28Z"/><path d="M93.58,60.31v.28c-.09,0-.24-.05-.43-.14-.62,0-1.14,.19-1.56,.57,0-.38-.47-.57-1.42-.57-.38,.24-.57,.43-.57,.57,.97,1.04,2.06,1.56,3.27,1.56h.14c0-.38-.24-.57-.71-.57,0-.28,.47-.43,1.42-.43v-.28h-.28v-.43c.09,0,.14,.05,.14,.14,.19,0,.28-.09,.28-.28v-.14c0-.17-.09-.26-.28-.28Zm-2.42,1.71v-.28c.19,0,.28,.09,.28,.28h-.28Z"/><path d="M90.31,58.6c.28,.19,.62,.28,1,.28v.14h-.85c0,.38-.14,.57-.43,.57v.57h.28c.09,0,.47-.09,1.14-.28h.43c.66,.19,1.04,.28,1.14,.28,.19,0,.33-.33,.43-1l-.28,.14h-.14v-.43h-.57v.28h-.14v-.14c.09-.17,.14-.36,.14-.57s-.47-.4-1.42-.57c0,.19-.09,.28-.28,.28h-.28c0-.21-.43-.59-1.28-1.14-.66,.12-1,.26-1,.43-.66,0-1,.19-1,.57-.19,0-.28-.14-.28-.43h-.14v.28h-.85l-.28,.14,.14,.28c.09,0,.24-.05,.43-.14l.28,.14c.19,0,.28-.09,.28-.28,.17,.09,.36,.14,.57,.14v.28h-.28c0,.19,.09,.28,.28,.28h1l1.42,.14c0-.12,.19-.21,.57-.28Z"/><path d="M78.23,61.02c0-.17-.09-.26-.28-.28h-.14c-.85,0-1.28,.19-1.28,.57h-.28v-.14c0-.28-.57-.43-1.71-.43h-.85c-.17,0-.26,.09-.28,.28v.14l.14,.28c-.38,.14-.57,.28-.57,.43v.43c0,.19,.09,.28,.28,.28h.85v-.28h.43l.57,.43h.28c0-.28,.14-.43,.43-.43,0,.09,.05,.14,.14,.14,.4,0,.88-.24,1.42-.71,0-.09-.05-.14-.14-.14,0-.12,.33-.31,1-.57Zm-3.13,.71c-.17,0-.26-.09-.28-.28h.28v.28Z"/><path d="M85.9,61.73v-.14h.57v-.28c-.21,0-.4,.05-.57,.14-.33-.19-.57-.47-.71-.85-1.21,.09-1.87,.19-1.99,.28,0-.09-.05-.14-.14-.14l-1,.71c0-.31-.24-.59-.71-.85h-.28v.43h-.43c-.09,0-.14,.09-.14,.28-.28,0-.43-.19-.43-.57-.14,0-.28,.19-.43,.57,.19,0,.28,.24,.28,.71h.14c.28,0,.43-.19,.43-.57h.28v.85l.71,.14c1.04-.12,1.56-.36,1.56-.71h.14c0,.14,.24,.47,.71,1,.19,0,.28-.09,.28-.28,.19,0,.28,.09,.28,.28l2.42-.43v-.28h-.71c-.17,0-.26-.09-.28-.28Zm-4.26,.28h-.28v-.28h.28v.28Zm2.13-.43l-.28-.14c.19-.24,.28-.43,.28-.57h.14c0,.09,.05,.24,.14,.43-.17,0-.26,.09-.28,.28Zm.57,.43h-.28v-.14c0-.17,.09-.26,.28-.28v.43Z"/><path d="M84.06,13.54h.28v-.28c.4,.47,.64,.71,.71,.71h.57c.76-.64,1.14-1.02,1.14-1.14v-.28c0-.17-.09-.26-.28-.28l.14-.71c0-.28-.52-.47-1.56-.57-.76,.64-1.14,1.02-1.14,1.14v.28c0,.19,.09,.28,.28,.28l-.28,.57c.09,0,.14,.09,.14,.28Z"/><rect x="73.25" y="53.34" width=".28" height=".14"/><path d="M73.54,51.78v.14c.02,.19,.12,.28,.28,.28h.14c0-.14-.14-.28-.43-.43Z"/><rect x="73.82" y="57.75" width=".28" height=".14"/><rect x="74.11" y="61.16" width=".28" height=".14"/><rect x="75.81" y="56.89" width=".43" height=".14"/><rect x="77.23" y="23.2" width=".28" height=".14"/><rect x="77.23" y="23.63" width=".14" height=".28"/><rect x="77.37" y="3.87" width=".14" height=".28"/><rect x="77.52" y="24.63" width=".14" height=".28"/><rect x="78.09" y="54.62" width=".14" height=".28"/><rect x="78.51" y="53.34" width=".14" height=".43"/><rect x="78.65" y="48.65" width=".28" height=".14"/><rect x="79.08" y="17.09" width=".28" height=".14"/><rect x="80.08" y="6.57" width=".28" height=".14"/><rect x="80.36" y="16.24" width=".28" height=".14"/><rect x="81.07" y="13.4" width=".28" height=".14"/><path d="M81.21,14.11v.14c.02,.19,.12,.28,.28,.28h.14c0-.14-.14-.28-.43-.43Z"/><path d="M82.21,12.97h.14v.14c0,.19-.09,.28-.28,.28h-.14v-.14c.02-.19,.12-.28,.28-.28Z"/><rect x="82.07" y="49.79" width=".43" height=".14"/><rect x="83.34" y="31.31" width=".28" height=".14"/><path d="M83.49,4.87c.02,.19,.12,.28,.28,.28h.14c0-.19-.09-.28-.28-.28h-.14Z"/><rect x="83.49" y="13.68" width=".28" height=".14"/><path d="M86.19,8.71v.14c.02,.19,.12,.28,.28,.28v-.14c0-.19-.09-.28-.28-.28Z"/><rect x="86.47" y="49.64" width=".43" height=".14"/><rect x="86.61" y="8.42" width=".43" height=".14"/><path d="M87.89,59.31v.14c0,.19-.09,.28-.28,.28v-.14c.02-.19,.12-.28,.28-.28Z"/><rect x="88.18" y="8.71" width=".14" height=".28"/><rect x="89.74" y="9.7" width=".14" height=".28"/><rect x="90.59" y="61.16" width=".28" height=".14"/><rect x="90.88" y="56.61" width=".14" height=".28"/><path d="M91.87,55.76v.14c.19,0,.28-.09,.28-.28v-.14c-.19,.02-.28,.12-.28,.28Z"/><rect x="92.02" y="12.4" width=".14" height=".28"/><path d="M93.3,15.24v.14c.02,.19,.12,.28,.28,.28v-.14c0-.19-.09-.28-.28-.28Z"/><rect x="93.58" y="50.36" width=".14" height=".28"/><path d="M107.97,60.73l.28-.14c0-.17-.09-.26-.28-.28h-.57c0,.57-.38,.85-1.14,.85,0-.47-.28-.71-.85-.71h-.14c-.28,.14-.43,.28-.43,.43v.28c.14,.28,.28,.43,.43,.43h.43l.28-.14,.14,.28-.43,.57-.43-.28h-.28l-.28,.14c.07,.28,.45,.43,1.14,.43h1.14c.71,0,1.09-.14,1.14-.43v-1.14l-.57-.14v-.28c.09,0,.24,.05,.43,.14Zm0,1v.14h-1.56v-.14c.24,0,.62-.05,1.14-.14,.19,.09,.33,.14,.43,.14Z"/><path d="M117.78,55.33c-1.33,0-1.99,.19-1.99,.57h-.14c0-.38-.43-.57-1.28-.57l.28-.43v-.28l-.14-.28-.85,.14c0,.21,.05,.4,.14,.57l-.14,.28,.43,.28c-.43,.76-.81,1.14-1.14,1.14v-.14l.28-.43v-.57c0-.17-.09-.26-.28-.28h-.14c-.17,0-.26,.09-.28,.28l.14,.85c0,.95,.81,1.42,2.42,1.42v.14c-.09,0-.24,.05-.43,.14l-.28-.14-.28,.14c-.17-.09-.36-.14-.57-.14h-.14c-.17,0-.26,.09-.28,.28,0,1.04,.14,1.56,.43,1.56h.57l.43-.28h.28v.43l-.28,.43-.85-.14-.28,.14c0,.66,.14,1,.43,1,.33,.66,.62,1,.85,1,.66-.14,1-.38,1-.71h.14c0,.4,.38,.64,1.14,.71,.17-.09,.4-.14,.71-.14v-.28c0-.21-.05-.4-.14-.57,.09-.17,.14-.36,.14-.57v-.57l-.28-.43v-.28c.09,0,.24-.05,.43-.14,0-.09-.05-.24-.14-.43,.07-.54,.17-1.73,.28-3.55-.09,0-.14-.05-.14-.14Zm-1.56,6.25c-.17,0-.26-.09-.28-.28h.28v.28Zm.85-1.56c-.24,0-.62,.05-1.14,.14v-.14c0-.12,.38-.31,1.14-.57v.57Z"/><path d="M111.95,31.45l-.28,.14c0,.17,.09,.4,.28,.71-.09,0-.14,.05-.14,.14v.28c0,.19,.09,.28,.28,.28l-.14,.28v.14c0,.69,.14,1.07,.43,1.14h.28l-.1-.61c-.09-.07-.16-.16-.18-.27-.08-.09-.13-.2-.13-.32,0-.53,.03-1.06,.08-1.58-.13-.11-.26-.21-.38-.34Z"/><path d="M113.94,51.63h-.28c-.17,0-.26,.09-.28,.28v.57c0,.14,.38,.43,1.14,.85,.19,0,.28-.14,.28-.43,.28,0,.43,.19,.43,.57h.57c.24-.19,.43-.28,.57-.28v-.28l-.14-.28-1,.14h-1l-.28-.14,.43-.57c-.14-.28-.28-.43-.43-.43Z"/><path d="M110.96,32.02c-.28,0-.43,.28-.43,.85h-.28c0-.24,.09-.71,.28-1.42-.5-.09-.78-.14-.85-.14v-.14c.28,0,.43-.19,.43-.57h.14l.43,.28,.28-.14c-.43-.47-.76-.71-1-.71v-.14h.14l.71,.43h.43c0-.66,.14-1,.43-1-.09-1.09-.19-1.71-.28-1.85-.09,0-.14,.05-.14,.14-.17,0-.26-.09-.28-.28v-.28h.28v-.14c-.21-1.3-.45-2.3-.71-2.99h.14c-1.71-8.88-2.65-13.62-2.84-14.21-.62-3.4-1.12-5.71-1.49-6.93-.99,.06-1.98,.12-2.97,.16-.08,.08-.15,.14-.23,.23-.29,0-.52-.07-.69-.2-1.17,.02-2.34-.01-3.5-.15-.12,.22-.24,.35-.36,.35h-.14c-.24-.19-.47-.28-.71-.28,.1-.07,.18-.13,.26-.2-.11-.02-.21-.03-.32-.05-.03,0-.05-.02-.08-.03v1.42h.43s-.14,.57-.43,1.56v1.99c0,.21,.05,.4,.14,.57-.09,.17-.14,.36-.14,.57v1.85c0,.21,.05,.4,.14,.57-.09,.17-.14,.36-.14,.57v2.27l.71-.14c.09,0,.24,.05,.43,.14,.19-.24,.76-.43,1.71-.57l-1.56,.85c-.09,0-.14-.05-.14-.14l-1,.14v.14c0,.19,.09,.28,.28,.28h1c1.18,0,1.94,.81,2.27,2.42-.09,0-.14,.05-.14,.14v8.96l.14,.28c-.09,0-.14,.05-.14,.14v.14l.14,.28c0,1.52-.41,2.79-1.22,3.79,0,.09,0,.19,0,.28,.26-.07,.57,.06,.6,.44,.03,.53,0,1.06-.05,1.58,.41-.03,1.01-.12,1.82-.27v.28c-.76,.09-1.14,.28-1.14,.57l-.28-.14h-.28c.09,1.23,.28,1.85,.57,1.85h.28l.71-.14c0,.09,.14,.14,.43,.14v.14l-1.71,.28v.57c0,.21-.05,.4-.14,.57,.09,.17,.14,.36,.14,.57v.43l-.14,.71c.09,0,.14,.05,.14,.14l-.14,.85v.14l.14,.28c-.09,0-.14,.05-.14,.14v1.99l.71,.85c-.47,0-.71,.09-.71,.28v1.28c0,2.75-.62,4.12-1.85,4.12v.71l-.14,.28c.85,.31,1.28,.59,1.28,.85-.19,0-.28,.14-.28,.43l-.71-.14c-.78-1.23-1.4-1.85-1.85-1.85l-.43,.28c0,.09,.05,.14,.14,.14l-.28,.43v1.56l.28,.43v.28c-.09,0-.24,.05-.43,.14l.14,.71v1.71c0,.33-.05,.76-.14,1.28,.09,.19,.14,.33,.14,.43-.09,.62-.14,1.23-.14,1.85v.28l.14,.28,1.42-.43-.14-.28v-.71h.14c.14,.76,.43,1.14,.85,1.14,.19,0,.28-.09,.28-.28,.19,0,.28,.09,.28,.28,.05,0,.43-.09,1.14-.28,.43,.12,.76,.4,1,.85v.14h-.57c0-.28-.09-.43-.28-.43l-.28,.14v-.14c-.97,.19-1.54,.33-1.71,.43l-.28-.14c-.09,0-.24,.05-.43,.14-.07,0-.45-.05-1.14-.14-.28,.14-.43,.28-.43,.43v.57l-.14,1.42c1.28-.19,2.18-.28,2.7-.28v.14c-.57,.28-.85,.62-.85,1h.28l.28-.14c0,.09,.05,.14,.14,.14h.14v-.14l-.14-.28c.09,0,.14-.05,.14-.14,.66,.21,1,.4,1,.57,.24-.19,.43-.28,.57-.28v-.28h-.85v-.28c.21,0,.4-.05,.57-.14l.85,.14h.28l.28-.14c0-.17-.24-.31-.71-.43l.14-.71c0-.09-.09-.14-.28-.14v-.14h.14c.17,.09,.36,.14,.57,.14h.57l.71-.14c0,.09,.14,.14,.43,.14h.14v-.14l-.14-.28c.38,0,.57-.09,.57-.28h.28l1,.14c.09-.17,.14-.36,.14-.57h.28v.28c0,.19-.09,.28-.28,.28l.57,.71,1-.57c0,.07,.24,.21,.71,.43h.28c.19,0,.28-.09,.28-.28v-1.28c0-.17-.09-.26-.28-.28-.17,0-.26,.09-.28,.28-.07,0-.45-.09-1.14-.28h-.14l-.71,.57h-.14l.14-.28v-.14l-1.42,.14-.57-.14-.57,.28c0-.17-.09-.26-.28-.28,0-.12,.43-.31,1.28-.57,0-.17-.09-.26-.28-.28l-.43,.28h-.28c0-.12,.33-.4,1-.85,.17,.09,.36,.14,.57,.14v.14c-.28,0-.43,.09-.43,.28s.09,.28,.28,.28h.28l.28-.14c0,.09,.05,.14,.14,.14h.71c.36-.47,.59-.71,.71-.71,0-.09-.05-.24-.14-.43l1.28-1.14c0,.28,.09,.43,.28,.43h.14v-1.99l.14-.71c-.17,0-.26-.09-.28-.28-.09,0-.14,.05-.14,.14-.09,0-.24-.05-.43-.14l-.28,.14c0-.09-.09-.14-.28-.14l.14-.28c.09,0,.24,.05,.43,.14,.21,0,.5-.14,.85-.43,0-.76,.05-1.66,.14-2.7-.24-.38-.43-.57-.57-.57h-.71c-.5,0-.92-.05-1.28-.14-.95-.17-1.42-.88-1.42-2.13,0-.17,.05-.73,.14-1.71l-.14-1.71,.14-.71-.14-.28c.09-.52,.14-.95,.14-1.28v-1.14h-.28c0-.28,.14-.66,.43-1.14l-.14-.28c.09-.17,.14-.36,.14-.57v-2.56l-.14-.28,.28-.14c0-.09-.05-.14-.14-.14,0-.9,.43-1.75,1.28-2.56v-.14l-.28,.14h-1.14c0-.12,.43-.31,1.28-.57-.47-.43-.71-.71-.71-.85l-3.13-1.85v-.14h.14c1.35,.66,2.16,1,2.42,1h.28c.19-3.29,.28-6.28,.28-8.96l-.14-.71c.09,0,.14-.14,.14-.43v-.14l-.14-.28c.09,0,.14-.47,.14-1.42h.14c.66,3.89,1.37,7.58,2.13,11.09h-.14l.14,1c0,.26-.09,.55-.28,.85,0,.09,.09,.14,.28,.14v.14h-.43l.14,.28c.21,0,.4-.05,.57-.14l.28,.14c.47-.19,.81-.28,1-.28v.14c-.47,.36-.71,.59-.71,.71,0,.09,.09,.14,.28,.14v.14l-.28,.43,.28,.43c.43-.28,.76-.43,1-.43h.14c0,.09-.05,.14-.14,.14,.09,.5,.14,.78,.14,.85,.21,0,.4-.05,.57-.14,.19,0,.28,.09,.28,.28,.57-.14,.85-.47,.85-1v-.14c0-.47-.19-.76-.57-.85Zm.57-2.84h-.28v-.43h.14c0,.09,.05,.24,.14,.43Zm-.43-.85h.28c0,.19-.09,.28-.28,.28v-.28Zm-.85,0l.28,.14c-.14,.28-.28,.43-.43,.43,0-.14-.09-.33-.28-.57h.43ZM99.16,3.45h.28c0-.09-.05-.14-.14-.14v-.28h.14c0,.28,.38,.43,1.14,.43v.28c-.14,0-.38,.28-.71,.85-.47-.26-.71-.64-.71-1.14Zm1.28,2.13c0-.14-.09-.33-.28-.57v-.14c.38,.24,.57,.43,.57,.57v.14h-.28Zm.71,7.96h-.57v-.14h.57v.14Zm-4.12,39.8c0-.28,.09-.43,.28-.43l.14,.71v.14h-.28c0-.09-.05-.24-.14-.43Zm.43,1.85v-.57h.14c0,.21,.05,.4,.14,.57h-.28Zm1.71,.71h-.28c0-.17,.09-.26,.28-.28v.28Zm.71-.28c-.09,0-.24,.05-.43,.14-.33-.28-.71-.43-1.14-.43v-.28c.09,0,.24-.05,.43-.14,.62,.19,1,.28,1.14,.28v.43Zm1.56-.71h-.43v-.14c.09,0,.24-.05,.43-.14v.28Zm-2.56,5.12h-.14c0-.09-.05-.24-.14-.43l.28-.14v.57Zm.85,.71h-.28c-.28-.14-.43-.28-.43-.43v-.14c.09,0,.24,.05,.43,.14l.28-.14v.57Zm.71-.85h-.14v-.43h.14l.28,.14c0,.19-.09,.28-.28,.28Zm5.4-6.97h.71l-.14,.28-.57-.14v-.14Zm-.14,3.84h.43v.28h-.43v-.28Zm-1.71-1.28c-.17,0-.31-.24-.43-.71l.28-.14,.14,.71v.14Zm0-23.31c.38,.14,.57,.28,.57,.43l-.71,.14h-.14l.28-.57Zm0,2.99v.43c-.09,0-.24,.05-.43,.14l-.57-.14c0-.17,.33-.31,1-.43Zm-1.56,2.42v.28h-.28c0-.17,.09-.26,.28-.28Zm-.28,4.41c.19,0,.28,.09,.28,.28h-.28v-.28Zm.85,17.63v.14h-.71c-.17,0-.26-.09-.28-.28l1,.14Zm-.57-53.16c-.47-.36-.71-.59-.71-.71h.14c.24,.28,.43,.43,.57,.43v.28Zm1-1.56l-.14-.28c0-.17,.09-.26,.28-.28h.14c0,.09,.05,.24,.14,.43-.09,0-.24,.05-.43,.14Zm1.71,1v-.28h.28c0,.19-.09,.28-.28,.28Zm2.56,6.4h-.28l-.85-.85v-.28h.14c.31,.57,.64,.85,1,.85v.28Z"/><rect x="97.31" y="54.05" width=".14" height=".28"/><path d="M97.74,56.47v.14c.14,0,.28-.14,.43-.43h-.14c-.19,.02-.28,.12-.28,.28Z"/><rect x="98.02" y="3.59" width=".14" height=".28"/><rect x="98.31" y="60.73" width=".28" height=".14"/><path d="M98.59,13.54h.14c.19,0,.28-.09,.28-.28v-.14c-.14,0-.28,.14-.43,.43Z"/><path d="M100.44,4.16v.14c.02,.19,.12,.28,.28,.28v-.14c0-.19-.09-.28-.28-.28Z"/><path d="M100.86,52.06v.14c0,.14,.14,.28,.43,.43h.14v-.14c0-.14-.14-.28-.43-.43h-.14Z"/><rect x="101.72" y="58.03" width=".28" height=".14"/><path d="M103.14,53.62l-.14,.28v.14h.43v-.14c0-.19-.09-.28-.28-.28Z"/><rect x="106.98" y="21.5" width=".14" height=".28"/><path d="M109.25,30.88v.14c.19,0,.28-.09,.28-.28v-.14c-.19,.02-.28,.12-.28,.28Z"/><rect x="110.39" y="35.86" width=".28" height=".14"/><rect x="110.82" y="43.53" width=".43" height=".14"/><rect x="112.24" y="38.84" width=".14" height=".28"/><rect x="112.66" y="45.95" width=".14" height=".28"/><rect x="113.23" y="8.71" width=".28" height=".14"/><rect x="113.8" y="43.53" width=".28" height=".14"/><rect x="115.79" y="27.47" width=".14" height=".28"/><rect x="116.36" y="60.73" width=".14" height=".28"/><path d="M129.01,61.44l-.14-1h-.28l-.28,.14c0,.17,.09,.4,.28,.71h-.14l-.57-.43h-.43l-1,.71h-.14v-.14c0-.17,.09-.26,.28-.28,0-.17-.09-.26-.28-.28h-.71v.14l.28,.43c-.28,.36-.43,.69-.43,1h.57c0-.28,.19-.47,.57-.57,.45,.57,.92,.85,1.42,.85h.28c.19,0,.28-.09,.28-.28v-.28l-.14-.71h.14l.14,.85c.57-.38,1-.57,1.28-.57v-.28c-.09,0-.24-.05-.43-.14-.17,.09-.36,.14-.57,.14Z"/><path d="M145.36,56.61l-1,.28c-1.4-.09-2.3-.28-2.7-.57-.64,.09-1.07,.19-1.28,.28,0-.12-.33-.21-1-.28v.28l-.28-.14-.28,.14c0,.09,.05,.14,.14,.14-.09,.19-.14,.33-.14,.43h-.14c-.19,0-.28-.14-.28-.43-.57-.28-.85-.57-.85-.85l-.43,.28h-.28l.14-.28v-.28h-2.27c-.76,0-1.61-.09-2.56-.28,0,.09-.05,.14-.14,.14,0-.09-.05-.14-.14-.14h-.71l-.28,.14v-.14l-.85,.14c-.28,0-.62-.09-1-.28-.17,.09-.4,.14-.71,.14v.28c.47,0,.71,.09,.71,.28-.47,0-.85,.09-1.14,.28h-.28l.14-.28v-.14h-.28v-.14c.21,0,.4-.05,.57-.14,0-.17-.09-.26-.28-.28h-1l-.71-.14c0,.19-.24,.28-.71,.28v.28h.28l-.57,.71v1.56h.28c0-.09,.05-.24,.14-.43-.09,0-.19-.14-.28-.43h.28l.43,.28c0,.09-.05,.24-.14,.43v.14h.14c.19,0,.28-.09,.28-.28v-.14l-.85-1.14v-.14l.71,.43,.28-.14v.14l-.14,.28c.09,0,.14,.05,.14,.14l.28-.14c0,.38,.33,.66,1,.85,.28-.14,.43-.28,.43-.43l.57,.14-.14,.28v.14h.14l.28-.14c0,.19,.24,.28,.71,.28h.14c.21,0,.36-.24,.43-.71l.85,.57h.28v-.43h.14l.43,.28h.14v-.28c-.85-.28-1.28-.47-1.28-.57v-.14c.09,0,.24,.05,.43,.14l.57-.57-.14-.28-1.99,1h-.28v-.43c.47,0,.71-.09,.71-.28v-.14l-.28,.14h-.43v-.14l.14-.28c.19,0,.52,.09,1,.28,0-.09-.05-.24-.14-.43v-.14c.09,0,.14,.05,.14,.14,.21,0,.4-.05,.57-.14,.5,.09,.88,.28,1.14,.57l.28-.14,.14,.28c0,.26-.09,.54-.28,.85l.14,.28-.14,.28c0,.19,.09,.28,.28,.28h1.99c.57-.33,.85-.66,.85-1l.28,.14,.28-.14c0-.19-.24-.28-.71-.28v-.28c.31,0,.54-.05,.71-.14,.83,.12,1.45,.26,1.85,.43v-.14c.19,0,.28,.09,.28,.28v.14c-.09,0-.14-.05-.14-.14-.09,0-.24,.05-.43,.14-.54-.19-1.02-.28-1.42-.28v.14c0,.21,.47,.36,1.42,.43,0-.09,.05-.14,.14-.14,.14,.28,.28,.43,.43,.43h.57l.57-.43h.28c.28,.14,.43,.28,.43,.43l.43-.28h.14v.28c-.14,.28-.28,.43-.43,.43,0,.19,.38,.52,1.14,1-.09,0-.24,.05-.43,.14-.09-.19-.14-.33-.14-.43h-.71c-.17,0-.26-.09-.28-.28-.19,0-.28,.14-.28,.43h-.43c0-.57-.19-.85-.57-.85-.28,0-.43,.09-.43,.28l.14,.28c-.19,.09-.33,.14-.43,.14-.12,0-.31,.24-.57,.71l.14,1v.14l-.28-.14c-.17,0-.26,.09-.28,.28l.85,.28v.14h-.14c-.47,0-.71-.14-.71-.43l-.28,.14h-.14l-1.71-.57,.14-.28v-.14c0-.19-.14-.28-.43-.28v-.14h.28v-.28c-.76-.19-1.56-.28-2.42-.28h-.71v.14c0,.19,.09,.28,.28,.28h.14l.28-.14,.28,.43-1,.14h-.57v.14l.28,.43h-.57s-.28-.19-.71-.57h-.71c0,.47,.24,.76,.71,.85l.28-.14v.14l1.71-.14c1.18,.09,1.9,.14,2.13,.14,0,.21,.05,.4,.14,.57-.09,0-.14,.05-.14,.14l-1.71-.14h-.14v.14c.26,.47,.64,.71,1.14,.71v-.28h.28c.54,.57,.92,.85,1.14,.85l.43-.28,.57,.43h1.28l1.14-1h.14c0,.57,.33,.85,1,.85h.43c.19,0,.28-.09,.28-.28l.71,.14c.28-.19,.71-.38,1.28-.57l-.14-.28c.52,0,1.28-.62,2.27-1.85v-.14c-.14-.28-.28-.43-.43-.43h-.14v.28c-.19,0-.28-.14-.28-.43-.47-.07-.71-.21-.71-.43,0-.24-.47-.43-1.42-.57h-.43v-.28c.21,0,.4-.05,.57-.14l.71,.14,1-.14,1.28,.14c.85,0,1.28-.33,1.28-1-.09,0-.14-.05-.14-.14Zm-18.05-.14c-.21,0-.4,.05-.57,.14h-.14l.43-.85c.19,0,.28,.09,.28,.28v.43Zm.28,.43h-.14v-.28h.43c0,.19-.09,.28-.28,.28Zm6.11,0h-.28v-.28h.28v.28Zm-.43,2.99h-.71v-.28h.71v.28Zm.71-.28h-.57v-.14h.57v.14Zm2.42,2.7h-.28c0-.28-.09-.43-.28-.43v-.14h.14c.28,0,.43,.09,.43,.28v.28Zm1.28-.43c-.09,0-.24,.05-.43,.14-.17-.09-.36-.14-.57-.14v-.14h1v.14Zm1-.71l-.14,.28c-.5-.09-.78-.14-.85-.14,.19-.24,.28-.43,.28-.57,.17,.09,.4,.14,.71,.14v.28Zm1.56,.71h-1.14l-.28,.14v-.28c.28,0,.43-.09,.43-.28,.36,0,.69,.05,1,.14v.28Zm-.28-1.85c-.17,0-.26-.09-.28-.28h.28c.19,0,.28,.09,.28,.28h-.28Zm.71-.43c-.17,0-.26-.09-.28-.28h.28v.28Zm1.14-.85c.19,0,.28,.09,.28,.28h-.43l.14-.28Z"/><rect x="126.45" y="55.47" width=".28" height=".14"/><rect x="127.73" y="51.21" width=".14" height=".28"/><rect x="128.16" y="8.71" width=".43" height=".14"/><rect x="129.01" y="33.87" width=".28" height=".14"/><rect x="130.01" y="48.65" width=".28" height=".14"/><rect x="130.57" y="32.02" width=".28" height=".14"/><rect x="131" y="46.38" width=".28" height=".14"/><rect x="131.71" y="38.13" width=".28" height=".14"/><rect x="131.85" y="30.88" width=".28" height=".14"/><rect x="132.56" y="57.32" width=".28" height=".14"/><rect x="134.27" y="53.77" width=".43" height=".14"/><rect x="135.12" y="53.06" width=".28" height=".14"/><rect x="135.83" y="55.9" width=".28" height=".14"/><rect x="136.54" y="61.16" width=".14" height=".28"/><rect x="136.69" y="57.6" width=".14" height=".28"/><rect x="137.82" y="51.78" width=".14" height=".28"/><rect x="137.82" y="53.06" width=".28" height=".14"/><rect x="138.82" y="59.03" width=".14" height=".28"/><rect x="140.67" y="48.93" width=".14" height=".28"/><rect x="140.95" y="14.96" width=".28" height=".14"/><rect x="140.95" y="49.36" width=".14" height=".28"/><rect x="142.51" y="29.18" width=".28" height=".14"/><path d="M142.94,30.88h.14c.19,0,.28-.09,.28-.28h-.14c-.19,.02-.28,.12-.28,.28Z"/><rect x="143.79" y="36.28" width=".28" height=".14"/><rect x="144.22" y="27.61" width=".14" height=".28"/><path d="M144.93,22.35v.14c.02,.19,.12,.28,.28,.28v-.14c0-.19-.09-.28-.28-.28Z"/><rect x="145.36" y="29.18" width=".28" height=".14"/><rect x="145.64" y="23.2" width=".14" height=".28"/><rect x="145.78" y="53.62" width=".28" height=".14"/><rect x="146.07" y="28.32" width=".28" height=".14"/><path d="M152.46,60.59h-.14l-.71,.57-.28-.14c0,.09-.05,.14-.14,.14,.09,.19,.14,.33,.14,.43h3.84c.28-.14,.43-.28,.43-.43-2.08-.17-3.13-.36-3.13-.57Z"/><rect x="151.33" y="54.76" width=".14" height=".28"/><rect x="151.9" y="49.08" width=".14" height=".28"/><rect x="152.04" y="48.79" width=".28" height=".14"/><path d="M152.46,50.5v.14c.02,.19,.12,.28,.28,.28v-.14c0-.19-.09-.28-.28-.28Z"/><rect x="153.6" y="57.32" width=".14" height=".28"/><rect x="155.59" y="59.17" width=".28" height=".14"/><rect x="157.01" y="51.35" width=".28" height=".14"/><rect x="157.72" y="56.04" width=".43" height=".14"/><rect x="158.58" y="5.01" width=".14" height=".28"/><rect x="158.58" y="55.33" width=".28" height=".14"/><rect x="159" y="52.2" width=".28" height=".14"/><rect x="161.14" y="53.06" width=".14" height=".28"/><rect x="162.27" y="61.3" width=".14" height=".28"/><rect x="163.27" y="47.09" width=".28" height=".14"/><rect x="163.55" y="39.69" width=".14" height=".28"/><rect x="163.84" y="55.9" width=".28" height=".14"/><rect x="164.26" y="55.47" width=".14" height=".28"/><rect x="164.41" y="51.21" width=".14" height=".28"/><rect x="164.83" y="60.45" width=".28" height=".14"/><rect x="164.97" y="50.07" width=".43" height=".14"/><path d="M165.97,46.8h.14c.19,0,.28-.09,.28-.28h-.14c-.19,.02-.28,.12-.28,.28Z"/><path d="M166.11,53.2v.14c.02,.19,.12,.28,.28,.28v-.14c0-.19-.09-.28-.28-.28Z"/><path d="M166.54,53.91c.02,.19,.12,.28,.28,.28h.14c0-.19-.09-.28-.28-.28h-.14Z"/><path d="M11.58,2.45c-1.37,.43-2.8,.61-4.25,.72v.56h.28c0-.26,.24-.45,.71-.57h.14c-.73,.95-1.16,1.42-1.28,1.42,.09,1.28,.14,2.23,.14,2.84v3.27l.14,.71c-.09,0-.14,.14-.14,.43v2.27c0,.28,.57,.43,1.71,.43,1,0,1.66,.57,1.99,1.71l-.14,1c.09,1.19,.14,1.9,.14,2.13-.09,.66-.14,1.04-.14,1.14,.09,0,.14,.05,.14,.14l-.14,.28,.14,.28-.14,.57,.14,.28c-.09,.17-.14,.36-.14,.57v3.41l-.14,.71c.19,0,.28,.81,.28,2.42v.28c0,.46-.18,.89-.52,1.27,0,.14,0,.27,.02,.41,.34,.87,.46,1.83,.41,2.78,.25,.48,.37,1.03,.37,1.65-.09,0-.14,.05-.14,.14v1.56l.14,.28c-.09,0-.14,.05-.14,.14v3.41l.14,.28c-.09,0-.14,.05-.14,.14v.14c.95-.19,1.52-.28,1.71-.28,0,.26-.09,.55-.28,.85-.17,0-.26-.09-.28-.28-.69,0-1.07,.14-1.14,.43v1.71c0,1.11-.05,2.25-.14,3.41,0,1.04-.76,1.71-2.27,1.99,0-.09-.05-.14-.14-.14h-.14l-.28,.14c0-.09-.05-.14-.14-.14h-.28c-.21,0-.36,.28-.43,.85v.43c0,.19,.14,.28,.43,.28v.14h-.43v4.12l-.14,1c.09,0,.19,.24,.28,.71l.28-.14h.14l-.14,.57c-.09,0-.14-.05-.14-.14-.17,0-.26,.09-.28,.28v.57h.71l1.71,.14c0-.09,.05-.14,.14-.14v.14c.24-.19,.47-.28,.71-.28v-.2l-.81-.38,.2-1.8-.19-.52-1.13-.72,.76-.28,.37,1,2.29,1.47-1.09,1.17,.45,.54v-.14l-.14-.28h.14c.19,0,.28,.09,.28,.28,0,.09,.14,.14,.43,.14,1.52,0,2.27-.28,2.27-.85h.28c0,.57,.43,.85,1.28,.85,0-.09,.05-.14,.14-.14,0,.19,.09,.28,.28,.28-.19,.24-.28,.47-.28,.71-.17,0-.26-.09-.28-.28-.17,0-.26,.09-.28,.28l-.28-.14h-.14v.14l.14,.28c.09,0,.24-.05,.43-.14,.19,0,.28,.09,.28,.28v.43h-.57v.57c.14,.28,.28,.43,.43,.43l-.28,.43c-.17,0-.26-.09-.28-.28l-.43,.28v.14c.83,.26,1.26,.5,1.28,.71,.09,0,.24-.05,.43-.14l.57,.28v-.14c.09,0,.24,.05,.43,.14l.28-.14,.28,.14c.12-.28,.26-.43,.43-.43v-.28c-.85-.28-1.56-.43-2.13-.43h-.28v.28h-.14v-.43c0-.19,.52-.38,1.56-.57l1.28,.57c.19,0,.28-.09,.28-.28v-.43l-.14-.28c-.43,0-1.04,.05-1.85,.14l-.71-.43c.09-.19,.14-.33,.14-.43l1,.14v-.28c-.26,0-.64-.09-1.14-.28l.14-.28c1.21,.19,1.92,.28,2.13,.28,.28,0,.43-.09,.43-.28v-1.56h-.28c-.17,0-.26,.09-.28,.28-.24-.19-.47-.28-.71-.28v-.57h.85l.28,.14,.14-.28v-.28l-.14-.28-.71,.14v-.14l.28-.43v-.14h-.14c-.47,.47-.71,.81-.71,1h-1.99c-.17,0-.26,.09-.28,.28l.85,.57h-1.28l-.71,.14c0-.09-.05-.14-.14-.14-.38,0-.57,.14-.57,.43h-.28c0-.38-.28-.57-.85-.57v-.14c.09,0,.24-.05,.43-.14,.5,.09,.78,.14,.85,.14,.28,0,.43-.09,.43-.28l-.14-.71c.09,0,.14-.05,.14-.14l.71,.14v-.28l1,.14h.28c.28-.14,.43-.28,.43-.43h-.28v-.14c.09,0,.24-.05,.43-.14,.19,0,.28,.09,.28,.28,.19-.09,.33-.14,.43-.14v-.28h-.43v-.71l-.14-.28c.17,0,.4,.09,.71,.28,0-.09,.05-.14,.14-.14,0-.17-.09-.26-.28-.28v-.28h.14c0,.09,.05,.24,.14,.43,.19,0,.28-.09,.28-.28v-.14c-.81-.28-1.33-.43-1.56-.43,0,.09-.05,.14-.14,.14-.4-.38-1.02-.57-1.85-.57v-.14h.43l1,.14h.14c0-.09-.05-.24-.14-.43v-.28h.14c0,.36,.28,.69,.85,1l.28-.14c0,.19,.33,.28,1,.28h.71c.19,0,.28-.09,.28-.28v-.57c0-.24-.38-.43-1.14-.57l-.85,.28c0-.09-.14-.14-.43-.14v-.14l1-.14h1.14c.28,0,.43-.52,.43-1.56,0-.17-.09-.26-.28-.28h-.28l-.71,.14c0-.09-.05-.14-.14-.14l-.28,.14c0-.09-.43-.14-1.28-.14l.14-.28-.57-.71-.71,.14h-.71c0-.17,.09-.26,.28-.28h.85c0-.57-.38-.85-1.14-.85v-.28h.71v-5.83l-.14-.71c.09,0,.14-.14,.14-.43v-1.42l.14-.85c-.09-.17-.14-.4-.14-.71v-1c0-.54,.33-1.11,1-1.71h.71c.95,0,1.42,1.33,1.42,3.98v.17c.43-.65,.91-1.28,1.41-1.88,.31-.62,.7-1.2,1.13-1.7,.3-.35,.65-.69,1.03-.99,.31-.67,.86-1.29,1.69-1.86-.66-.44-1.17-1.07-1.55-1.89-.59-.63-1.17-1.28-1.69-1.97-.85-1.11-1.5-2.33-1.99-3.65-.03-.07-.02-.14,0-.21l-.03,.05v1.28l-.14,1c.09,0,.14,.05,.14,.14l-.14,.28c0,.09,.05,.24,.14,.43-.14,1.23-.62,1.85-1.42,1.85h-.43c-.95,0-1.42-1.33-1.42-3.98v-5.4l.14-1c-.09,0-.14-.19-.14-.57v-1.14c0-1.9,1.14-2.99,3.41-3.27l.57,.14,.28-.14v.14l.71-.14h1.85c.28,0,.43,.05,.43,.14,1.71,.33,2.56,1.66,2.56,3.98-.09,0-.14,.05-.14,.14l.28,.14c-.09,.64-.19,1.07-.28,1.28l.14,.85v.14c0,.33-.05,.76-.14,1.28,.09,.19,.14,.33,.14,.43l-.14,.71,.14,.71c-.09,.17-.14,.4-.14,.71v.14c0,.57,.28,.85,.85,.85,.09,0,.24-.05,.43-.14l.28,.14c.09,0,.24-.05,.43-.14,0,.09,.05,.14,.14,.14h1.28c.28-.14,.43-.28,.43-.43v-3.27c0-.17-.09-.26-.28-.28l.28-.43v-3.84l.14-1c-.09,0-.14-.05-.14-.14,.09-.64,.14-1.16,.14-1.56v-4.41l-.14-1.71c.09,0,.14-.19,.14-.57l-.14-.28h.14c-.19-1.37-.28-2.32-.28-2.84h-.43v-.43h.57v-.28c0-.4-.05-.92-.14-1.56l.03-.05c-1.26,0-2.51-.05-3.76-.12-.13,.11-.25,.2-.38,.32h-.28c-.16-.14-.31-.27-.46-.39-1.79-.12-3.58-.27-5.37-.34v.16h-.28v-.17c-.46-.02-.92-.03-1.39-.04-.7,.04-1.39,.06-2.09,.07-.38,.25-.73,.53-1.07,.86-.32-.26-.58-.45-.82-.62-.3,.03-.6,.04-.9,.05Zm-2.97,2.28v-.28c0-.17,.09-.26,.28-.28h.14c-.14,.38-.28,.57-.43,.57Zm.71,51.03h.28v.28h-.28v-.28Zm0,1.14v.28h-.14c-.17,0-.26-.09-.28-.28h.43Zm-.14-2.84h-.85v-.14h.85v.14Zm9.38,6.4c0-.17,.09-.26,.28-.28v.43h-.28v-.14Zm.14-2.27v.14h-1v-.14h1Zm-1.71-.28v-.43c.47,0,.71,.14,.71,.43-.24,0-.38,.19-.43,.57h-.28c0-.09-.05-.24-.14-.43,0-.09,.05-.14,.14-.14Zm-5.12-9.38l.28,.14-.14,.28,.14,.28c-.17,0-.26,.09-.28,.28l-.28-.14c0-.26,.09-.54,.28-.85Zm-1.99,2.84c.52,.09,.9,.14,1.14,.14l-.14,.28c-.66-.09-1-.24-1-.43Zm1.71,4.26c-.19-.09-.33-.14-.43-.14v-.57h.28c0,.21,.05,.4,.14,.57v.14Zm.71,1.14l-.14,.28-.28-.14c0-.17,.09-.26,.28-.28h.14v.14Zm0-2.99c-.28,0-.57,.24-.85,.71-.28-.14-.43-.28-.43-.43,0-.12,.38-.31,1.14-.57h.14v.28Zm-.43-1.71v-.28h.28c.19,0,.28,.09,.28,.28h-.57Zm4.41,1.56h.28c0,.09,.05,.24,.14,.43h-.14c-.17,0-.26-.09-.28-.28v-.14Zm-1.42-4.12h.57v.28c-.09,0-.24,.05-.43,.14l-.14-.28v-.14Zm0,1.85c.38,0,.57-.09,.57-.28l.57,.28c-.14,.28-.28,.43-.43,.43h-.43c-.17,0-.26-.09-.28-.28v-.14Zm5.69-18.2c0-.17,.09-.26,.28-.28v.43h-.28v-.14Zm-4.26-1.71s.57-.14,1.56-.43h.57c.19,0,.28,.09,.28,.28v.14c-.14,0-.81,.05-1.99,.14h-.43v-.14ZM11.6,12.54h.28c0,.19-.09,.28-.28,.28v-.28Zm0,20.04c-.17,0-.26-.09-.28-.28h.28v.28Zm1.28,14.64h.57v.14h-.57v-.14Zm1.28,1.28v.14h-1.14v-.14h1.14Zm-.28-15.35v-.57h.14l.28,.14c-.09,.19-.14,.33-.14,.43h-.28Zm-.85,8.24v-.14h.43l-.14,.57h-.14c0-.09-.05-.24-.14-.43Zm1.14,14.07c-.19-.09-.33-.14-.43-.14v-.14h.43v.28Zm.57-2.7h.14l.28,.14c0,.09-.05,.14-.14,.14,0,.12,.19,.45,.57,1-.43,0-.71,.05-.85,.14,0-.26,.09-.54,.28-.85v-.14h-.71c-.57,.24-.85,.47-.85,.71h-.14c-.24-.19-.43-.28-.57-.28v-.28c1.11-.38,1.78-.57,1.99-.57Zm-.14-1.42l-.14,.28c-1.04-.09-1.61-.19-1.71-.28l.14-.28c.9,.19,1.47,.28,1.71,.28Zm0-8.24l-.28-.14,.14-.28,.28,.14-.14,.28Zm.71-13.93v.28c-.17,0-.26-.09-.28-.28h.28Zm1.14-20.19c-.17,0-.26-.09-.28-.28v-.43h.14c0,.09,.05,.24,.14,.43v.28Zm.57-.85c-.17,0-.26-.09-.28-.28v-.14h.14l.28,.14-.14,.28Zm1.14,1.42c0-.17-.09-.26-.28-.28,.14-.28,.28-.43,.43-.43h.71c-.17,.33-.45,.57-.85,.71Zm1-2.42h.43v.28h-.14c-.17,0-.26-.09-.28-.28Zm.71,1v.43l-.28-.14c0-.17,.09-.26,.28-.28Zm-.43,2.27h.14c.19,0,.28,.09,.28,.28v.14c-.19-.09-.33-.14-.43-.14v-.28Zm.43,1.28v-.28h.28c0,.19-.09,.28-.28,.28Zm1.99,1.14v-.28h.14c.19,0,.28,.09,.28,.28h-.43Zm.71-3.55h-.28c0-.09-.05-.24-.14-.43l.28-.14,.28,.14c-.09,.19-.14,.33-.14,.43Zm.28-1c-.09,0-.24,.05-.43,.14,0-.09-.05-.14-.14-.14,0-.17,.09-.26,.28-.28h.28v.28Zm1.14,2.7c-.17,0-.26-.09-.28-.28h.28v.28Zm.85-1.71h.43l-.14,.28c-.17,0-.26-.09-.28-.28Zm.14,13.79v-.28h.28c0,.19-.09,.28-.28,.28Zm.28-4.83v-.14h.28v.43c-.17,0-.26-.09-.28-.28Zm.14-2.27v-.28l.85,.14v.28c0,.19-.09,.28-.28,.28h-.14c0-.28-.14-.43-.43-.43Zm2.7,7.53h-.28v-.28h.28v.28Zm.36-5.06l-.6,1.75c.07-.02,.15-.06,.25-.11h.28c-.28,.28-.43,.62-.43,1h-.14c0-.1-.06-.22-.15-.36l-.05,.14-1.34-.68c-.01,.12-.03,.24-.03,.33h-.28c0-.19-.19-.43-.57-.71,.05-.19,.28-.38,.71-.57l.14,.07,.57-1.7,1.64,.83Zm-.5-15.27v.28h-.28c0-.17,.09-.26,.28-.28Zm-1.28,11.94c.19,0,.28,.09,.28,.28h-.28v-.28ZM20.07,2.87c2.35,.25,4.55,1.26,6.27,2.88l-.19,1.82-3.06,1.13,.41-3.62-6.89,2.55-1.32-1.24,4.78-3.52Zm-5.35-.14h.14c0,.09,.05,.24,.14,.43v.14h-.28v-.57Zm0,2.13c.19,0,.28,.09,.28,.28h-.28v-.28Zm-.78,6.28l1.8,.2-2.49,2.65-2.28,.84-.28-.76,3.25-2.93Zm-1.35-1.59h.43v.28l-.14,.28c-.17,0-.26-.09-.28-.28v-.28Z"/><g><path d="M56.09,60.59c-.24,0-.62,.05-1.14,.14l-.57-.14v-.14c.66,0,1-.19,1-.57l.28,.14h.43c.07-1.38,.11-2.5,.13-3.38-.01-.03-.03-.05-.03-.08-.09-.47-.16-.94-.22-1.41-.18-.24-.38-.37-.59-.39-.19,.09-.33,.14-.43,.14l-.71-.14c0,.09-.14,.19-.43,.28-.28,0-.66-.14-1.14-.43,0-.24,.57-.43,1.71-.57l1.49,.23c-.05-.5-.08-1-.12-1.5-.73-1.25-1.57-2.42-2.54-3.5-.57-.31-.99-.94-1.25-1.91h.14l-.28-.43,.43-.71-.05-.1c-.19-.06-.34-.21-.33-.44,.04-.62,.16-1.24,.28-1.85,.04-1.06,.13-2.13,.26-3.18-.39-.81-.59-2.16-.59-4.09,0-.75-.63-1.99-1.89-3.7v.13l-.56,.75c-.25-.62-.4-1.27-.46-1.93h-.09l.07-.1,.03,.09,.49,.02c.02-.13,.1-.22,.27-.24,1.52-2.3,2.27-4.53,2.27-6.68,0-.21-.33-.54-1-1v-.28c.66,.19,1.04,.28,1.14,.28,0,0,.02-.01,.03-.02-.12-1.02-.26-2.04-.27-3.08,0-.07,.02-.13,.04-.19-.1-.24-.19-.48-.23-.69l.14-.28-.14-.28h.14l-.14-1.71v-1.71l.14-1c-.09,0-.14-.09-.14-.28,0-.31,.05-.54,.14-.71l-.14-.85v-1.14l-.14-.28h.14c0-.08-.02-.19-.03-.28l-.1-.05,.1,.03c-.07-1.1-.52-2.65-1.39-4.68-.84-1.27-1.6-2.26-2.27-2.97-.11-.07-.23-.15-.34-.23l-.42,.16-.09-.24,.16-.15c-.44-.29-.88-.58-1.31-.87-.15,0-.3-.01-.45-.01l-.11,.05s-.02-.04-.02-.06c-2.14-.02-4.29,.14-6.43,.23-1.31,.73-2.05,1.1-2.21,1.1l-.43-.28h-.14v.28h-.14l-.28-.14c0-.36-.14-.66-.38-.92-.09,0-.18-.01-.27-.02l-.06,.53-.66-.31-.1-.27c-.34-.02-.68-.03-1.02-.07h-2.05c-.12,0-.22-.04-.29-.1v2.86l.14,.71c-.09,0-.14,.14-.14,.43v.57l.14,.28c-.09,0-.14,.05-.14,.14v4.12l-.14,1c.09,0,.14,.05,.14,.14-.09,.52-.14,.95-.14,1.28v.57c.14,.28,.28,.43,.43,.43h.85l.71-.14c1.23,.45,1.85,1.21,1.85,2.27h-.14c.09,1.21,.19,1.87,.28,1.99-.09,0-.19,.14-.28,.43,0,.52,.09,2.46,.28,5.83l-.14,.71c.09,0,.14,.05,.14,.14-.09,.17-.14,.36-.14,.57v1.71c0,.5-.1,.98-.28,1.43,.04,1.95,.12,3.91,.3,5.85,0,.07,0,.14-.02,.19,.14,1.36,.29,2.05,.43,2.05l-.28,.43v2.99l.28,.43v.14h-.28c0,.66,.14,1,.43,1l-.28,.43v2.99c.38,.43,.57,.66,.57,.71v.28h-.43v-.28h-.28c0,1.71-1.14,2.56-3.41,2.56,0-.09-.05-.14-.14-.14l-.14,.28v1.56l.28,.43v.28c0,.19-.14,.28-.43,.28v.71c0,.19,.09,.28,.28,.28l-.14,.28v1.99l.14,.28c-.09,0-.14,.05-.14,.14v.71c0,.19,.09,.28,.28,.28l-.14,.28v.14l.14,.28c.26,0,.54-.09,.85-.28,.28,0,.43,.09,.43,.28v.57c-.57,.09-.85,.24-.85,.43v.14c.17,0,.4-.09,.71-.28,.64,.09,1.16,.14,1.56,.14h.14v.28l-.85-.14c-.26,0-.64,.09-1.14,.28v-.14c-.28,.14-.43,.28-.43,.43l-.57-.43h-.14v.14c0,.66,.09,1.18,.28,1.56,.09,0,.14-.05,.14-.14,.21,.19,.5,.28,.85,.28-.09,.17-.14,.4-.14,.71h-.28c0-.28-.09-.43-.28-.43-.28,.14-.43,.28-.43,.43v.28c0,.47,.14,.76,.43,.85h1.85c1.07,0,1.92-.28,2.56-.85v-.14c-.85-.09-1.28-.24-1.28-.43v-.43c.09,0,.14,.05,.14,.14,.17,0,.4-.09,.71-.28l.28,.14c.5-.09,.78-.14,.85-.14,.19,0,.28,.09,.28,.28,.09,0,.24-.05,.43-.14l.28,.14,.57-.43,.71,.43,.43-.28-.14-.28v-.14c.62-.19,1.04-.28,1.28-.28h.28l.71,.14c0-.09,.05-.14,.14-.14l.28,.14c0,.09-.05,.24-.14,.43,0,.28,.09,.43,.28,.43h.43c.19,0,.28-.09,.28-.28v-.43h-.28v-.28h.28v-.71l-.14-.28c.09,0,.14-.05,.14-.14v-.43l-.14-.28-.28,.14h-.28c-.4,0-.78-.09-1.14-.28-.4,.19-.69,.28-.85,.28l-.57-.14c0-.38,.47-.62,1.42-.71,.52,0,.85-.24,1-.71l.28,.14-.28,.57v.14h.57l.28-.14-.28-.57,.14-.85v-.28l-.14-.71c.09,0,.14-.14,.14-.43,0-.19-.19-.28-.57-.28v-.14c0-.17,.09-.26,.28-.28,0-.12-.07-.19-.16-.23,0,.02,0,.04,0,.06,0,.03-.02,.06-.04,.08-.02,.02-.05,.04-.07,.06v.04h-.28l-.43-.28h-1.56c-.55,0-1.3,.05-2.27,.14-.19-.09-.71-.19-1.56-.28v-.14h.71c.57,0,.85-.24,.85-.71,.4,.12,.69,.36,.85,.71,.14,0,.8-.05,1.99-.14,.21-.28,.36-.43,.43-.43h.14v.43h1.42l.28-.14-.28-.43v-.14l.28-.43v-1.56l.14-.71c-.09,0-.19-.14-.28-.43-.21,0-.4,.05-.57,.14l-.57-.14-.28,.14c-.26,0-.97-.33-2.13-1-.09,.19-.14,.33-.14,.43-.37,.17-.65,.4-.86,.67h.02v.26l-.11,.04-.02,.1-.07-.07h-.03c-.13,.3-.22,.61-.22,.98h-.14l-.85-.14c-.21,0-.36,.24-.43,.71h-.14c0-.43-.05-.71-.14-.85,.12-.43,.4-.76,.85-1l-.28-.43c.19,0,.28-.14,.28-.43h.43l-.14,.28h.14c.03-.11,.07-.21,.14-.29v-.14c.07,0,.13-.01,.2-.01,.17-.09,.38-.14,.66-.14v-.03l.02,.03s-.02,0-.02,0v.04c.34-.09,.68-.24,.99-.45l-.14-.71v-4.12h-.57v-.14c.38,0,.57-.28,.57-.85-.09-.66-.19-1.09-.28-1.28h.14c0-.09-.05-.24-.14-.43l.14-.85c0-.09-.05-.24-.14-.43,.09-.36,.14-.78,.14-1.28,0-2.18,1.04-3.27,3.13-3.27h.96l-.07-.06,.31-.99,.83,.81,.7-2.22,.57-.09-.05,1.88c-.27,.28-.59,.51-.94,.69,1.11,.04,1.67,.18,1.67,.41,.66,0,1.18,1,1.56,2.99l-.14,1,.14,.85h-.14v3.68c0,.08-.02,.15-.05,.21,0,.14,.01,.29,.02,.43,.2,.44,.36,.92,.46,1.51l-.14,1.71,.14,.28h-.1c.06,.35,.13,.69,.22,1.04,.05,.05,.1,.08,.17,.1h1.56c.19,0,.28,.09,.28,.28-1.42,0-2.13,.14-2.13,.43v1.71c0,.5,.05,1.3,.14,2.42h.57l-.14,.28h-.57v.43c1.33,1.02,1.99,1.73,1.99,2.13-.21,0-.4-.05-.57-.14-.17,.09-.36,.14-.57,.14h-.28v-.14c0-.17,.09-.26,.28-.28-.14-.28-.28-.43-.43-.43-.17,0-.26,.09-.28,.28v1c0,.14,.19,.28,.57,.43l.71-.14,1.71,.28c0,.14-.19,.28-.57,.43-.21,0-.4-.05-.57-.14l-.85,.14h-.85v.28c.09,0,.24,.05,.43,.14,.4,0,.78-.09,1.14-.28,.28,0,.66,.09,1.14,.28,0,.09-.05,.14-.14,.14,0,.19,.14,.28,.43,.28l-.14,.28h-1.71c-.17,0-.26,.09-.28,.28l-.28-.14h-.43v.28l.57,.57v.14h-.28v.28l.28,.43,1-.14h1.28l.71,.14v-.14c0-.24-.28-.38-.85-.43h-1.14l-.71,.14c.12-.47,.26-.71,.43-.71h.85l1-.14c0,.19,.57,.33,1.71,.43,0-.09,.05-.14,.14-.14,.47,.07,.71,.21,.71,.43-.19,0-.52,.19-1,.57h-.85v.28c.31,0,.54-.05,.71-.14,.97,.09,1.73,.14,2.27,.14h.85c.19,0,.28-.09,.28-.28v-.14l-.14-.28ZM31.92,5.15h-.43v-.43l1.56-2.13,.85,1.42v.14c-.28,0-.43,.09-.43,.28-1.04,.17-1.56,.4-1.56,.71Zm1.42,.57c.19,0,.28,.09,.28,.28h-.28v-.28Zm1,2.42c-.36,.47-.59,.71-.71,.71h-.14v-.43c.09,0,.24-.05,.43-.14l-.28-1c.19,0,.28-.14,.28-.43h.28c0,.09-.05,.24-.14,.43,0,.14,.09,.33,.28,.57v.28Zm0-2.99c-.24,0-.47,.09-.71,.28v-.14l.14-.28h.57v.14Zm-.85,54.3h.28v.43c-.17,0-.26-.09-.28-.28v-.14Zm-.85,2.84h-.28c0-.09-.05-.24-.14-.43h.14c.19,0,.28,.09,.28,.28v.14Zm.71-1.14l-.71-.14v-.28h.71c.19,0,.28-.14,.28-.43h.14c.28,.07,.43,.36,.43,.85h-.85Zm8.53-2.13h.28v.43c0,.19-.09,.28-.28,.28v-.71Zm0-4.83h.14v.57h-.28c.09-.17,.14-.36,.14-.57Zm-1.85-1.42h-.06v.35l-.78-.52,.26-.51,.52,.26v.14h.06v.28Zm1.14-.14h-.14c-.17,0-.26-.09-.28-.28,.09,0,.24-.05,.43-.14l.28,.14c0,.19-.09,.28-.28,.28Zm-2.13-2.99h.71v.28l-.71-.14v-.14Zm1.74,.37c.51,0,1.03,.44,1.54,1.3-.59-.18-1.2-.27-1.81-.26-.3,.02-.61-.05-.88-.18-.27-.14-.5-.34-.67-.6l1.81-.25Zm-4.01,1.33c.38,.24,.57,.43,.57,.57v.28c-.12,0-.31-.24-.57-.71v-.14Zm18.62,4.55h.28l-.14,.57h-.14v-.57Zm-.71,1.28c.19-.24,.28-.43,.28-.57h.14v.14c-.14,.38-.28,.57-.43,.57v-.14Zm0,.71c.09,0,.24-.05,.43-.14h.28v.14c-.19,0-.43,.19-.71,.57v-.57Zm-.71-.71c0,.14,.19,.33,.57,.57,0,.17-.28,.36-.85,.57l-.28-.14v.14c-.36-.38-.73-.57-1.14-.57v-.14h.14c.38,0,.57-.14,.57-.43h1Zm-1.28-1.71c.21,0,.4-.05,.57-.14v.28h-.57v-.14Zm.28,.43c.09,.38,.24,.71,.43,1h-.57c0-.36-.09-.64-.28-.85,.09,0,.24-.05,.43-.14Zm-3.41-19.62c1.23,0,1.85,.14,1.85,.43l-.71,.14c-.17,0-.26-.09-.28-.28l-.28,.14h-.28c-.17,0-.26-.09-.28-.28v-.14Zm1.28,5.12v.14c-.07,.28-.36,.43-.85,.43v-.28c.14,0,.33-.09,.57-.28h.28Zm-1.28,1.56h.85c0,.38,.19,.57,.57,.57v.28l-1.85-.85v-.43h.14c.19,0,.28,.14,.28,.43Zm-.28-6.82v.28c-.52-.09-.9-.14-1.14-.14v-.28h.43l.71,.14Zm-.29-18.07l-.27,.77-.51-.26,.26-.78,.52,.26Zm-.42-6.95v-.28h.28v.28h-.28Zm.43,19.76h-.28v-.28h.28v.28Zm1.79-11l.51,.26-.26,.26h-.51l.26-.52Zm-.65,4.32h.28v.28h-.28v-.28Zm-.32-15.63c.09,.04,.17,.11,.23,.18l-.26,.51-.51-.26,.26-.51c.1,0,.2,.03,.28,.08Zm-2.09-1.6c.69,.29,1.3,.73,1.8,1.3-.15,.53-.75,1.13-1.79,1.81h-.02c-.31-.56-.48-1.18-.51-1.82,.11-.45,.28-.89,.52-1.29Zm-.72,5.57v.28c-.17,0-.26-.09-.28-.28h.28Zm-.67,.59c.74,.08,1.44,.4,1.99,.91l-.06,.58-.97,.36,.13-1.15-2.18,.81-.42-.39,1.52-1.12Zm1.81,16.18v.28h-.28c0-.17,.09-.26,.28-.28Zm-4.8-23.08l-.06,.57c-.54-.09-1.1-.07-1.63,.06l1.7-.63Zm.5,2.84l-.97,.36-.18-.48,.4-.43,.75,.55Zm-3.23-5.21c0,.14,.09,.33,.28,.57h-.14l-.43-.28c0-.17,.09-.26,.28-.28Zm.43,.71v.43h-.28v-.43h.28Zm-.85,5.54c0-.17,.09-.26,.28-.28h.28c.31,.28,.54,.43,.71,.43-.09,.19-.14,.33-.14,.43h-.28l-.43-.28-.28,.14c0,.17,.09,.4,.28,.71v.14h-.28l-.14-.71v-.57Zm.14,1.99v-.43h.14c.28,.14,.43,.28,.43,.43v.14l-.57-.14Zm.57,1.71v.14c0,.19-.09,.28-.28,.28v-.43h.28Zm-1.36-2.24l-.36-.23,.24-.09,.12,.32,.73,.47-.4,.43-.33-.16,.06-.57-.06-.16Zm-.2-2.73c.28,.14,.43,.28,.43,.43,0,.19-.09,.28-.28,.28h-.28c0-.24-.09-.47-.28-.71h.43Zm-1.14-4.83h.28c0,.28,.14,.43,.43,.43v.14c-.24,0-.47,.09-.71,.28h-.14c.09-.14,.14-.43,.14-.85Zm-1.71,6.11c.09,0,.24-.05,.43-.14,0,.09,.09,.14,.28,.14v.43c-.47-.07-.71-.21-.71-.43Zm.57,5.54c0,.19-.09,.28-.28,.28v-.43l.28,.14Zm-.09-7.31h-.09l-.87,1.08-.51-.64c.03-.09,.09-.18,.15-.25,.07-.07,.15-.13,.24-.17,.26-.12,.55-.13,.82-.03h.17l.07-.09,.03,.09,1.11,.03-.12,1.15-.55,.75c-.25-.62-.4-1.27-.46-1.93Zm-1.52,3.27l.3-.67,.34,.15,.02,.82-.66-.3Zm.61,4.32v.28h-.28v-.28h.28Zm-.71-7.96h.57v.28h-.28c-.17,0-.26-.09-.28-.28Zm.85-.14c0-.17,.09-.26,.28-.28v.28h-.28Zm1.56-2.84h.28v.43h-.28v-.43Zm-2.56,0c.73-.28,1.21-.43,1.42-.43,.57,0,.85,.38,.85,1.14v.28h-.28c-.59-.54-.92-.83-1-.85l-1,.14v-.28Zm-.14,13.5h.43c.47,0,.76-.14,.85-.43l.28,.14c0,.28-.52,.57-1.56,.85v-.57Zm1,16.49h-.14c-.17,0-.26-.09-.28-.28h.43v.28Zm.28,1.14v.28h-.28c0-.17,.09-.26,.28-.28Zm-.28,8.24h.43v.14c-.09,0-.24,.05-.43,.14v-.28Zm-1-8.39v-.14h.28l.57,.14v.14h-.14l-.71-.14Zm.85,7.82v.28c-.14,.28-.28,.43-.43,.43v-.71h.43Zm-1.14,5.26l.71,.14v.28h-.71v-.43Zm0,1.42h.57c0,.19-.09,.28-.28,.28h-.28v-.28Zm-1.14,.14h.28v.28h-.28v-.28Zm-1.56,6.54c-.17,0-.26-.09-.28-.28h.28v.28Zm-.28-6.25v-.28h.14c.19,0,.28,.09,.28,.28h-.43Zm1,.57l.02-.1-.46-.47v-.56l.3,.1v-.26h.43v.14c-.09,0-.22,.05-.4,.13l.44,.15v.14h.09c0,.09,.05,.24,.14,.43l.71-.14h.14c.18,0,.5,.2,.96,.58-.03-.03-.04-.07-.07-.1l.51-.26v.52l-.12,.12c.05,.05,.09,.08,.15,.13-.14,.28-.28,.43-.43,.43l.14,.28c-.21,0-.4,.05-.57,.14l-.28-.28c-1.14-.26-1.71-.64-1.71-1.14Zm1.42,1.56v.28c-.17,0-.26-.09-.28-.28v-.28c.19,0,.28,.09,.28,.28Zm-.85,.14v.28c0,.19-.09,.28-.28,.28h-.14v-.14c.14-.28,.28-.43,.43-.43Zm-.43,1.42c.57-.76,1.04-1.14,1.42-1.14l.28,.14c.17-.09,.36-.14,.57-.14h.57c-.09,.19-.14,.33-.14,.43-.85,.36-1.28,.64-1.28,.85h-.14c0-.09-.05-.24-.14-.43-.57,.26-.85,.45-.85,.57-.17,0-.26-.09-.28-.28Zm2.99,2.13v.43h-.14c0-.17-.09-.4-.28-.71l.28-.14c0,.09,.05,.24,.14,.43Zm-1.14-1.14l-.14,.28c-.19-.09-.33-.14-.43-.14v-.14h.57Zm-1,.85l.28,.71h-.85c.12-.45,.31-.69,.57-.71Zm-.14,1.28v-.14c.09,0,.24-.05,.43-.14,.19,.09,.33,.14,.43,.14v.28l-.85-.14Zm1.28,2.27h-.43v-.28c.09,0,.24-.05,.43-.14h.14c-.09,.19-.14,.33-.14,.43Zm4.83-1h.14v.14l-.14,.28-.28-.14c0-.17,.09-.26,.28-.28Zm1.14-2.56h.43v.28h-.43v-.28Zm-1.71,0c.21,0,.4-.05,.57-.14,.38,.19,.57,.33,.57,.43h-.43l-.71-.14v-.14Zm-.14,2.99v.28h-.28c0-.17,.09-.26,.28-.28Zm-.85,0h.14v.43c-.21,0-.4,.05-.57,.14v-.14c.14-.28,.28-.43,.43-.43Zm-.28-2.99v.14h-.71l-.28-.14c0-.17,.09-.26,.28-.28h.14c.24,.19,.43,.28,.57,.28Zm-1.14-2.13h.14c0,.14,.09,.33,.28,.57v.28l-.14,.28c-.17,0-.4-.09-.71-.28,.28-.31,.43-.59,.43-.85Zm.14,3.55l1-.14c0,.12-.62,.45-1.85,1h-.43c0-.09,.05-.24,.14-.43v-.14h-.43c-.19,0-.28,.14-.28,.43h-.28v-1c-.14-.28-.28-.43-.43-.43,.28-.31,.43-.54,.43-.71l.28,.14-.14,.28c.45,.66,.73,1,.85,1h1.14Zm-1.14-10.66l.14-.57h.43v.14c-.14,.28-.28,.43-.43,.43h-.14Zm.43,1v.28h-.28v-.28h.28Zm.28,.85h-.57v-.28h.57v.28Zm.8-1.39c-.07,.28-.24,.51-.48,.66l-.11,.13-.32-1.35h.82c.05,.07,.09,.17,.1,.26,.02,.1,.01,.2-.01,.29Zm-.09-29.6v-.14c0-.19,.28-.33,.85-.43h.14v.14c0,.19-.33,.33-1,.43Zm.71,26.44h-.28v-.28h.28v.28Zm.43-7.96c0,.19-.09,.28-.28,.28h-.14v-.28h.43Zm-.43-14.93l.14-.28,.28,.14-.14,.28-.28-.14Zm.71,25.87v.14c0,.19-.09,.28-.28,.28-.17,0-.26-.09-.28-.28,.09,0,.24-.05,.43-.14h.14Zm.89-12.03l-.42-.4,.23-.12v-.25h.71v.13l.44,.14-.97,.5Zm4.79-5.46l-.28-.14c-.18,0-.37,.01-.55,.03l.33,.21-.4,.43-.33-.16,.05-.42c-.08,.02-.16,.02-.23,.04-.07,0-.36-.05-.85-.14-.66,.09-1.04,.14-1.14,.14-.51,0-.93-.09-1.26-.26v.26l-.65-.3,.16-.36c-.25-.32-.39-.76-.39-1.32v-4.12c-.28,0-.43-.09-.43-.28v-.14l.28,.14h.14l-.14-.71v-1.65l-.67-.31-.27-.72,.94,.43v-.74c0-.8,.14-1.99,.43-3.55-.09,0-.14-.05-.14-.14,.09,0,.24-.05,.43-.14,0-.47,.76-.9,2.27-1.28,0-.09-.05-.14-.14-.14v-.28h.14c0,.28,.33,.43,1,.43,.5-.09,.78-.14,.85-.14l.57,.14,.28-.14,1.56,.43c.92,.69,1.49,1.54,1.71,2.56,0,.09-.05,.24-.14,.43,.09,.64,.14,1.16,.14,1.56-.07,.18-.16,.36-.26,.55,.07,.08,.12,.17,.12,.28,0,1.72-.25,3.55,.43,5.18,.07,.17-.02,.36-.15,.48v.61c0,1.68-1.14,2.77-3.41,3.27Zm3.4,4.72l-.72,.27-.09-.24,1.03-.93,.57,.06-.79,.84Zm.44,10.63v-.28h.43c0,.19-.09,.28-.28,.28h-.14Zm.57,1.56h-.28c0-.17,.09-.26,.28-.28v.28Zm.45,.01c-.09,0-.12-.09-.12-.26l.51,.52h-.26c0-.18-.04-.26-.13-.26Zm.69,.84h-.14l-.28-.14c.09-.19,.14-.33,.14-.43,.19,0,.28,.09,.28,.28v.28Zm-.28-1.85c0-.17,.09-.26,.28-.28h.14v.28h-.43Zm.14,6.68h-.43c0-.47,.14-.76,.43-.85h.14l.28,.14c-.28,.31-.43,.55-.43,.71Zm.43-4.83v-.28c.15,0,.22,.08,.25,.2l.05-.05c.03-.17,.08-.33,.13-.49v-.22h.07c.16-.46,.41-.88,.72-1.25-.03-.05-.06-.1-.07-.17h.23c.08-.08,.15-.17,.23-.25v2.39c0,.12,0,.24,.01,.37l.1,.05c0,.1-.03,.17-.08,.22,.06,.67,.22,1.32,.47,1.95-.48-.28-.91-.63-1.29-1.03-.4-.33-.68-.79-.77-1.3l.12-.12h-.17Zm1.99,4.83v.28h-.43c0-.17,.09-.26,.28-.28h.14Zm-.85,2.13v.14h-.14c-.28,0-.43-.09-.43-.28l.57,.14Zm-1-4.26v-.57h.14c0,.28,.14,.43,.43,.43v.14h-.57Zm.43,6.25c0-.09-.14-.14-.43-.14,0-.17,.09-.26,.28-.28l-.14-.71h.57l-.14,.28v.28h.43v-.28h.57c.24,.19,.43,.28,.57,.28v.28l-.14,.28-.28-.14h-.57l-.71,.14Zm2.56,2.13v.28h.43v.14c-.09,0-.24,.05-.43,.14-.97-.57-1.59-.85-1.85-.85v-.14h.14c.28,0,.62,.05,1,.14l.57-.14c1.3,.19,2.01,.33,2.13,.43v.28h-.14v-.28h-1.85Z"/><path d="M42.18,53.65s.02,0,.02,0c-.02,0-.03-.02-.05-.02v.04s.01-.01,.02-.01Z"/></g><g><path d="M61.49,53.06c.19,0,.28-.09,.28-.28,.28,0,.43,.05,.43,.14,.14,0,.33,.24,.57,.71,.19,0,.28-.09,.28-.28-.14-.28-.28-.43-.43-.43,.17-.38,.36-.57,.57-.57v-.14l-.14-.28h.14c0-.09-.04-.22-.12-.39-.59,.49-1.26,.88-1.99,1.12,.14,.26,.27,.4,.41,.4Z"/><path d="M70.73,57.6v-.43l-.14-.28h.14c0-.28-.19-.85-.57-1.71l.57-.14v-.28c0-.59-.05-1.3-.14-2.13l.14-.71-.14-1c.09-.19,.14-.33,.14-.43-.09,0-.14-.05-.14-.14,.09,0,.14-.05,.14-.14v-.17c-.05-.14-.1-.28-.14-.43-.15-.1-.43-.18-.85-.26l-.28,.14c-1.04,0-1.85-.66-2.42-1.99l-.28,.14h-.57v-.14c.36,0,.64-.19,.85-.57v-.14c0-.21-.52-.36-1.56-.43,0,.19-.24,.38-.71,.57v-.28h-.28v.28h-.14c-.17,0-.26-.09-.28-.28v-.43l.14-.28,.57,.28,.28-.14c0,.09,.05,.14,.14,.14h.14c.28-.14,.43-.28,.43-.43l.43,.28h.43c.28-.64,.43-1.02,.43-1.14,0-.45-.28-.69-.85-.71v-.14c0-.17,.09-.26,.28-.28l-.14-.28c.17,0,.4-.09,.71-.28,0-.21-.05-.4-.14-.57,0-.21,.05-.4,.14-.57l-.14-.85v-.43c0-.21,.05-.4,.14-.57-.09-.17-.14-.36-.14-.57v-.74l-1.31,.48-.32-.86,.71-.76,.98,.72,.08-.4c-.09,0-.14-.05-.14-.14l.14-.28-.14-.28c0-.07,.05-.36,.14-.85,0-.09-.14-.14-.43-.14v-.28h.43v-.71c0-.4,.12-.79,.33-1.15v-1.53c-.13-.08-.23-.21-.23-.39v-2.15c0-.08,.02-.15,.04-.21-.1-.3-.15-.62-.15-.96v-.28h-.28l.14-.71v-.57c0-.4-.05-.78-.14-1.14,.09-.38,.14-.76,.14-1.14v-1.28l-.14-.28c.09,0,.14-.05,.14-.14v-.71c0-.21-.05-.4-.14-.57,.09-.17,.14-.36,.14-.57v-.85c0-.21-.05-.4-.14-.57,.09-.19,.14-.33,.14-.43v-1.56c.03-1.02,.17-1.79,.4-2.31l.11-.96-3.91,1.45-.75-.7,2.71-1.99c1.18,.13,2.28,.6,3.19,1.34,1.28-.19,2.03-.37,2.23-.52,0-1.23-.05-3.84-.14-7.82,0-.07-.03-.33-.09-.76-.53,.7-1.43,1.46-2.69,2.3h-.03c-.55-1.01-.86-2.11-.92-3.25,.19-.81,.51-1.59,.94-2.3,1.03,.43,1.95,1.07,2.75,1.84l.05-.1c0-.21-.05-.4-.14-.57,.09-.17,.14-.36,.14-.57v-.62c-.98,0-1.96-.01-2.94-.03-.07,.06-.16,.1-.28,.1-.85,.02-1.74,.02-2.66,.05-.11,.04-.19,.07-.23,.07h-.14s-.04-.04-.07-.05c-2.01,.06-4.1,.23-5.94,.88-.02,.66-.06,1.15-.11,1.45,.09,2.11,.19,5.24,.28,9.38l.28,.14h1.28c1.56,0,2.42,.9,2.56,2.7v1.11l.22,.02-.22,.24v1.04l-.14,.71c.09,0,.14,.14,.14,.43v.71h.28v-.28h.14c0,.09,.05,.24,.14,.43l-.57,.57c0,.59-.05,2.16-.14,4.69l.05,.35c.21,.08,.38,.28,.32,.57-.32,1.52-.54,3.06-.55,4.62,0,.25-.16,.4-.35,.45,0,.14-.02,.28-.02,.42,.54,.62,.83,1.46,.83,2.55l-.14,.71c.09,1.37,.14,2.13,.14,2.27l-.14,.57c.09,0,.14,.09,.14,.28,0,.21-.05,.4-.14,.57l.14,.28c0,.21-.05,.4-.14,.57,.09,.17,.14,.36,.14,.57v.85l-.14,.85c.09,.17,.14,.4,.14,.71v1l-.14,.71c.09,.66,.38,1,.85,1v.14c-.43,0-.9,.52-1.42,1.56l.15,.18,.3-.94,1.01-.16-.04,1.41s.09-.03,.14-.06h.14v.14c-.19,0-.28,.09-.28,.28h0l-.02,.78s.09-.06,.17-.07v.57c-.08,0-.13-.03-.18-.07v.37c-.09,.09-.19,.16-.28,.24,.39-.08,.6-.21,.6-.4,.66,.24,1,.62,1,1.14-.28,0-.43,.24-.43,.71v.14l.14,.71c-.28,.14-.43,.28-.43,.43,0,.19,.19,.28,.57,.28v.14l-.28,.43v.14h.71c-.09-.17-.19-.59-.28-1.28h.43c0,.28,.09,.43,.28,.43l-.43,.57v.14h.28c0-.28,.14-.43,.43-.43,.76-.62,1.14-1.09,1.14-1.42h.28c.24,.19,.43,.28,.57,.28v.14c-.14,0-.62,.19-1.42,.57,.36,.76,.59,1.14,.71,1.14h.85v.28h-1.99c-.17,0-.26,.09-.28,.28v.85h.14l.28-.14c0,.09,.09,.14,.28,.14,0,.38-.24,.71-.71,1v.14c.28,.24,.43,.43,.43,.57h.71v-.57h.57v-1.14c.09,0,.24-.05,.43-.14h.14v.28h-.28c0,.21,.05,.4,.14,.57l-.14,.28,.14,.28-.14,.28-.28-.14h-.28v.28h1.28l.71,.14c0-.09,.05-.14,.14-.14l-.14-.28,.71,.14c.57-.26,.85-.45,.85-.57Zm-1.28-44.49h.28v.28h-.28v-.28Zm-10.19-6.01l-.32-.86,.71-.76,1.34,.98-1.73,.64Zm6.64,29.47c-.21,0-.4,.05-.57,.14v-.28h.57v.14Zm.14,.28v-.28c.19,0,.28,.09,.28,.28h-.28Zm-2.84-12.08v-.14h.14c0,.38,.47,.66,1.42,.85l.28-.14h.28v.14c-.28,0-.62,.09-1,.28l-.57-.14-.28,.14c0-.09-.09-.14-.28-.14,0-.21,.05-.4,.14-.57l-.14-.28Zm.2,10.07l3.03-1.12-.11,1.02c-.97-.17-1.97-.13-2.92,.1Zm1.79,18.64h-.14v-.14c0-.28,.09-.43,.28-.43l-.14,.57Zm.14-2.56v-.28h.28c0,.19-.09,.28-.28,.28Zm.57,1.56h-.28c0-.21-.05-.4-.14-.57l.28-.14h.14v.71Zm1,3.98c-.17,0-.26-.09-.28-.28h.57c.19,0,.28,.09,.28,.28h-.57Zm1.01-4.12l-1.07,.4s.06,.09,.06,.17h-.43v-.28h.08l-.09-.23,1.84-1.66,1.02,.11-1.41,1.5Zm1.12,.85v.14c-.14,0-.28-.19-.43-.57v-.14h.14c0,.14,.09,.33,.28,.57Zm-.57,1.85c.09,0,.24-.05,.43-.14v.43c-.19-.09-.33-.14-.43-.14v-.14Zm1,1.71c-.47-.07-.71-.21-.71-.43l.71,.14v.28Zm1-3.13c0,.19-.09,.28-.28,.28h-.14v-.57h.14c.19,0,.28,.09,.28,.28Zm-.71-1.56c.19,0,.28,.09,.28,.28v.43h-.43c.09-.17,.14-.4,.14-.71Z"/><path d="M61.06,51.35c0,.19,.09,.28,.28,.28h.12l.17-.54c-.37,.04-.57,.12-.57,.26Z"/></g><path d="M85.19,9.56c-.09,0-.14-.05-.14-.14l-.28,.14c.09,.19,.14,.33,.14,.43,.09,0,.14-.05,.14-.14,.09,0,.24,.05,.43,.14,.09,0,.14-.19,.14-.57h.14c0,.66,.09,1,.28,1h.14l-.14-.28c.19,0,.47-.09,.85-.28h.14c0,.19-.14,.28-.43,.28,0,.19,.09,.28,.28,.28l.43-.28h.28v.14c-.38,.45-.57,.83-.57,1.14,.14,0,.33,.09,.57,.28h.14c.19,0,.28-.14,.28-.43,.24,.19,.43,.28,.57,.28v.28h-.14l-.28-.14c-.28,.21-.43,.36-.43,.43,0,.19,.14,.28,.43,.28,0,.19-.09,.28-.28,.28l.14,.28,.57-.57c0,.31,.05,.55,.14,.71h-.14l.14,.71v.14h-.28l-.43-.28c-.28,.14-.43,.28-.43,.43-.09,0-.24-.05-.43-.14-.17,0-.26,.09-.28,.28v.28h.43v-.28h.28c0,.21,.43,.45,1.28,.71,.98,.6,1.49,2.45,1.55,5.5,.28,.5,.58,.99,.88,1.47,.5,.78,.99,1.55,1.45,2.35,.26,.46,.55,1,.94,1.4,.12-.14,.22-.5,.29-1.07l-.12-.85-.73,.27-.2-.54,.45-.48,.49,.36,.12-1.04c-.09,0-.14-.05-.14-.14,.09,0,.14-.05,.14-.14v-1.42c0-.21-.05-.4-.14-.57,.09-.17,.14-.36,.14-.57v-1.71l-.28-.43,.28-.43V8.75l-1.8,.67c-.02,.09-.05,.18-.05,.28h-.43l-.57,.43h-.14c0-.12,.21-.39,.59-.78l-.25-.23,1.71-1.26s.08,.02,.12,.02c.15-.14,.33-.25,.54-.32v.14c-.02,.08-.08,.16-.17,.24,.16,.04,.31,.09,.46,.14v-.38c0-.17-.09-.26-.28-.28l.28-.43V2.78c-.56-.11-1.12-.24-1.68-.33l1.4,1.28v.14l-.28-.14h-.28c-.17,0-.31,.24-.43,.71-.47-.28-.81-.43-1-.43v-.43l.57,.43h.14c.19,0,.28-.09,.28-.28v-.57c0-.12-.28-.36-.85-.71l.03-.06c-.58-.09-1.16-.18-1.74-.25-.38,.21-.62,.32-.71,.32-.21-.18-.48-.34-.78-.51-.04,0-.08,0-.13-.01-1.35-.15-2.7-.28-4.05-.39-.88,.05-1.76,.1-2.63,.16-.06,.03-.14,.05-.23,.05h-.66c-.25,.01-.5,.02-.75,.04-.48,.23-.87,.49-1.16,.81h-.14c-.24-.27-.52-.5-.83-.71-.78,.03-1.56,.05-2.33,.05-.29,.04-.57,.08-.86,.13-.4,.15-.79,.31-1.18,.51-.24,.12-.46,.03-.6-.13-.06,.02-.12,.04-.18,.05v.65c0,1.35-.05,2.35-.14,2.99,.09,.81,.14,1.85,.14,3.13v4.55c0,.24,.62,.38,1.85,.43,.95,0,1.61,.85,1.99,2.56-.09,.17-.14,.4-.14,.71h.28v.14l-.28,.43v.71h.43c0-.24,.19-.66,.57-1.28h-.57v-.28c0-.14,.19-.28,.57-.43l.28,.14v-.85c.19,.09,.33,.14,.43,.14v.14l-.14,.28c.09,0,.24-.05,.43-.14h.14c0,.19-.24,.47-.71,.85h.43c.5-.76,.92-1.14,1.28-1.14v.28h-.43v.28l.71,.14c.09,0,.14-.09,.14-.28l.28,.14h.14c.95-1.4,1.42-2.16,1.42-2.27,.19,0,.28,.09,.28,.28,.38-.38,.71-.57,1-.57v-.14l-.14-.28c-.09,0-.24,.05-.43,.14h-.28v-.14c.5-.19,.78-.28,.85-.28v-.28c-.26,0-.69,.14-1.28,.43,0-.09-.09-.14-.28-.14v-.71l-.43,.28c0-.19,.28-.62,.85-1.28l-.14-.28c.09,0,.14-.05,.14-.14v-.14h-.28c0,.38-.09,.57-.28,.57h-.28l-.14-.71c.19-.31,.28-.54,.28-.71h.14v.43l-.14,.28,.28,.14h.14l-.14-.28c.09,0,.24-.05,.43-.14l.28,.14c.19,0,.28-.09,.28-.28s-.14-.28-.43-.28v-.28h.43v-.85c.88,0,1.45-.38,1.71-1.14h.14c0,.47,.09,.71,.28,.71,0-.28,.14-.43,.43-.43,0,.43,.05,.71,.14,.85-.17,0-.26,.09-.28,.28Zm8.1-4.69c.19,0,.28,.09,.28,.28v.14h-.14c-.28-.14-.43-.28-.43-.43h.28Zm.32,16.23c-.61-.11-1.24-.08-1.84,.07l1.91-.71-.07,.64Zm-.75-7.7h.28v.14c0,.19-.09,.28-.28,.28v-.43Zm-.14,2.56l.28,.14-.14,.57-.28-.14,.14-.57Zm.28,.85h.14l-.28,.57-.28-.14c.14-.28,.28-.43,.43-.43Zm-1.28-5.12h.14c.24,.19,.43,.28,.57,.28v.14h-.14c-.17-.09-.36-.14-.57-.14v-.28Zm-.21-.8l-.89,.95-.81,.3-.1-.27,1.16-1.05,.64,.07Zm.07-6.73h.14v.43h-.57c.14-.28,.28-.43,.43-.43Zm-.85,.28c.19,0,.28,.09,.28,.28v.14h-.28v-.43Zm-.28,6.4v.14c-.14,.28-.28,.43-.43,.43v-.28c0-.17,.09-.26,.28-.28h.14Zm-1.03-8.16l.85,.62-1.09,.4-.2-.54,.45-.48Zm-1.67,7.59h.28v.71c-.17,0-.26-.09-.28-.28v-.43Zm-10.66,6.4v-.14l.14-.28c-.09,0-.14-.05-.14-.14l.71,.14c0,.17-.24,.31-.71,.43Zm1.56-10.95h-.57v-.14h.57v.14Zm.85,10.23h-.57v-.28c.09,0,.24-.05,.43-.14l.14,.28v.14Zm3.7-14.07h.28c0,.19-.09,.28-.28,.28v-.28Zm-2.7,8.24h-.14v-.28h.14v.28Zm.71,.43c-.19-.09-.33-.14-.43-.14v-.14l.28-.43,.28,.14-.14,.57Zm.71-1.28c-.47,0-.71,.09-.71,.28-.38,0-.62-.19-.71-.57l.28-.71c.19,.09,.33,.14,.43,.14l-.28,.43v.43c.28,0,.62-.09,1-.28v.28Zm-1.1-3.1l.34-.75,.38,.17,.03,.92-.74-.34Zm2.81,2.53l-.28-.14h-.14l-.28,.14c0-.4-.33-.64-1-.71v-.28c.28,0,.43-.14,.43-.43h.14c.57,.4,.85,.69,.85,.85l.28-.14h.14l-.14,.71Zm-1.56-1.56v-.28h.28c0,.19-.09,.28-.28,.28Zm1.6-3.32l-.62,.85c-.28-.69-.45-1.42-.52-2.17h-.1l-.98,1.21-.57-.72c.04-.1,.1-.2,.17-.28,.08-.08,.17-.15,.27-.19,.29-.13,.62-.14,.92-.03h.19l.08-.1,.04,.11,1.25,.04-.14,1.29Zm2.23,4.89h-.28c0-.17,.09-.26,.28-.28v.28Zm.71-1.71h.14v.28c0,.28-.09,.43-.28,.43l.14-.71Zm.28,.85v.28h-.14c-.17,0-.26-.09-.28-.28h.43Zm-.28,1.71v.28h-.28c0-.17,.09-.26,.28-.28Zm-1.19-2.62l.07-.64-.07-.18-.4-.26,.27-.1,.13,.36,.82,.52-.45,.48-.37-.18Z"/><g><path d="M114.37,29.46v.14c0,.38-.06,.75-.15,1.11,.14,.08,.24,.21,.24,.4,0,.76,.05,1.52-.2,2.23,.04,.03,.07,.06,.11,.1l-.14,1.42c0,.19,.09,.28,.28,.28,0,.19-.09,.28-.28,.28,0,.24,.05,.62,.14,1.14-.09,.52-.14,.9-.14,1.14l.14,.28c-.17,0-.26,.85-.28,2.56v.14h-.28c-.09-.88-.38-2.53-.85-4.98v-.85l-.71,.14v.28l.28,.43c-.28,0-.43,.09-.43,.28l.43,.57c0,.19-.09,.28-.28,.28,0,.09,.05,.24,.14,.43l-.14,.71,.14,.28c0,.19-.09,.28-.28,.28l-.14-.71,.14-.71-.28-.28c0-1.61-.24-2.42-.71-2.42-.28,0-.43,.28-.43,.85h-.28c0-.09,.05-.14,.14-.14l-.14-.28c-.47,.36-.71,.59-.71,.71v.14c0,.19,.09,.28,.28,.28,0,.14-.19,.28-.57,.43-.09,0-.14-.09-.14-.28h-.14l-.28,.14,2.13,11.09c.19,0,.28-.14,.28-.43h.14c.19,0,.28,.09,.28,.28v.14h-.57c0,.66,.09,1.19,.28,1.56h-.14c0,.19,.09,.47,.28,.85,.31-.28,.54-.43,.71-.43l-.14-.28h.57v-.57l.14-.57-.14-.28c.09-.17,.14-.36,.14-.57l.85,.43-.28,.43v.71h.85v.14c-.38,0-.57,.19-.57,.57-.09,0-.14-.05-.14-.14l-.28,.14c0,.12,.33,.4,1,.85-.14,.38-.28,.57-.43,.57,0-.47-.09-.71-.28-.71-.17,0-.26,.09-.28,.28v.28c.38,.47,.62,.71,.71,.71h.14v-.28h.28c0,.59,.85,1.11,2.56,1.56,.28,0,.43-.09,.43-.28l-.14-.28h.14c.47,0,.71-.52,.71-1.56-.09,0-.14-.05-.14-.14,.09,0,.14-.05,.14-.14v-.57l-.14-.28c-.09,0-.24,.05-.43,.14-1.04-.09-1.94-.14-2.7-.14l-.28,.14v-.14l.14-.28c.43,0,1.47,.05,3.13,.14,.19,0,.28-.09,.28-.28v-1.28h-.14c-.19,0-.28,.14-.28,.43l-.71-.43h-.43l-.43,.28c0-.21-.05-.4-.14-.57,.19,0,.28-.09,.28-.28l.71,.14c.14,0,.28-.19,.43-.57l.43,.28c0,.09-.05,.14-.14,.14,0,.19,.09,.28,.28,.28h.14v-3.13c0-.83-.38-1.4-1.14-1.71v-.14h.14c.17,.09,.36,.14,.57,.14h.14c.25,0,.42-1.24,.51-3.72h-.02l.03-.09c.03-.79,.05-1.69,.06-2.73l-.14-.28-1.42,1.28h-.14l.28-.43v-.28c-.19-.38-.43-.57-.71-.57v-.14c.38,0,.57-.14,.57-.43,.17,0,.31,.33,.43,1l.57-.14v-.71l-.14-.28c.28,0,.43-.09,.43-.28l.28,.14h.28c0-.08,.04-.18,.06-.27v-4.44c-.12-.47-.19-1-.2-1.65l-.11,1.06-2.26,.84,.3-2.68-2.18,.81c0,.07-.01,.13-.02,.21,.09,.17,.14,.4,.14,.71Zm-2.27,10.66c0-.17,.09-.26,.28-.28l.14,.71h-.43v-.43Zm.71,5.54h-.14v-.57h.14v.57Zm0-1.14c-.09,0-.14,.09-.14,.28-.17,0-.26-.09-.28-.28v-1.42c0-.47-.05-1.18-.14-2.13h.28l.14,.71c0,.28-.05,.62-.14,1,.12,.57,.26,.85,.43,.85l-.28,.43v.28l.14,.28Zm1.42,2.27h-.28v-.28h.28v.28Zm2.42-12.65h.14c0,.09,.05,.24,.14,.43l-.28,.14v-.57Zm.28,8.53v.28h-.28c0-.17,.09-.26,.28-.28Zm-.71,.71c.19,.09,.33,.14,.43,.14v.14h-.43v-.28Zm-.28,4.69h-.28v-.28h.28v.28Zm.14-1h-.71c-.17,0-.26-.09-.28-.28,.28,0,.62-.05,1-.14v.43Zm-.28-9.38h.28c0,.14-.28,.38-.85,.71h-.28l.85-.71Z"/><path d="M122.76,9.7v-.57c0-.21,.05-.4,.14-.57-.09-.17-.14-.36-.14-.57,0-.97,.05-1.73,.14-2.27-.09-.59-.14-1.26-.14-1.99,0-.04,0-.12,.01-.17-1.56-.33-3.14-.46-4.73-.54l-.36,.38-1.69,.62-.21-.56,.59-.53c-1.93-.11-3.86-.26-5.8-.29,.15,.84,.23,1.68,.23,2.51v.43l-.14,.71c.09,0,.14,.14,.14,.43,0,.21-.05,.4-.14,.57l.14,.28-.11,1.28h.01s.08-.04,.12-.06h.01s.06-.01,.09-.02c.04,0,.07-.01,.11,0,.05,0,.12,0,.17,.03,.05,.02,.09,.04,.14,.06h.02s.08,.07,.12,.1l.02,.02,.02,.02s.06,.08,.09,.12c.02,.03,.04,.07,.05,.11,.02,.04,.03,.07,.04,.11,0,.03,0,.06,.01,.09,.14,.09,.26,.14,.36,.14-.09,.17-.14,.36-.14,.57-.18-.09-.28-.18-.35-.27-.06,.06-.13,.1-.21,.12l-.13,.02c-.07,0-.13-.01-.19-.04-.06-.02-.11-.05-.16-.1-.03-.03-.05-.07-.07-.1-.04,0-.09-.02-.13-.04,.02,.1,.05,.19,.09,.27-.09,.64-.14,1.16-.14,1.56v2.99c.14,.28,.28,.43,.43,.43h1.14c1.23,0,1.99,.76,2.27,2.27v1.14l-.14,.71c.09,0,.14,.05,.14,.14l-.14,.28c0,.09,.05,.24,.14,.43,0,.09-.05,.24-.14,.43,0,.09,.05,.24,.14,.43,0,.09-.05,.24-.14,.43l.14,1-.14,1,.14,.28h-.14c0,.5,.05,.92,.14,1.28l-.14,1c0,.16,.04,.31,.09,.44,1.51,.27,2.92,.95,4.05,2.01,.02-.23,.05-.51,.12-.89-.09-.19-.14-.33-.14-.43l.14-.28-.14-.71c.09-.19,.14-.33,.14-.43l-.14-.28h.14c0-.54-.05-.88-.14-1,.09-.64,.14-1.16,.14-1.56v-2.84c0-.71,.05-1.23,.14-1.56,0-.16,.01-.29,.02-.44-.48,.38-1.03,.78-1.65,1.19h-.04c-.72-1.31-1.13-2.76-1.2-4.24,.25-1.06,.66-2.07,1.22-3.01,1.61,.68,3.04,1.71,4.2,3.02-.03,.12-.09,.24-.14,.36,.05,0,.1-.01,.15-.01,.17,.09,.36,.14,.57,.14h.43c.28-.14,.43-.28,.43-.43v-2.84c0-.33,.05-.76,.14-1.28-.09-.12-.14-.45-.14-1Zm-8.53-1.42h-.28v-.57c.19,0,.28,.09,.28,.28v.28Zm0-1.71h-.14c-.17,0-.26-.09-.28-.28h.43v.28Zm1.71,18.05h.28l-.14,1.28h-.28v-.57l.14-.71Zm1.42-15.78v-.28c.66,.12,1,.26,1,.43v.14h-.28c-.24-.19-.47-.28-.71-.28Zm1.28,.71c-.17,0-.26-.09-.28-.28h.28v.28Z"/></g><g><path d="M144.22,55.9c.21,0,.4-.05,.57-.14l.57,.14c.28-.07,.52-.4,.71-1l-.14-.28c-.09,0-.24,.05-.43,.14-.28,0-.62-.05-1-.14l-.32,.16,.96,.7-.95,.35s.03,.03,.03,.06Z"/><path d="M143.38,56.13l-.46,.17-.08-.22-.05,.1v.14h.57c0-.07,0-.13,.02-.19Z"/><path d="M126.31,54.34s.02,.05,.02,.09c.04-.05,.07-.1,.11-.15,.01-.02,.03-.03,.05-.04,.03-.05,.08-.09,.16-.14,.11-.08,.22-.15,.34-.21,.59-.27,1.26-.29,1.87-.07h.13c.17-.03,.35-.06,.6-.06h.28l.71,.14v.14c0,.19-.09,.28-.28,.28h-.85l-.54-.08-.37,.46,.48-.1c0,.19,.62,.33,1.85,.43,0-.24,.19-.38,.57-.43,.57,.12,.85,.31,.85,.57h.43c0-.21,.05-.4,.14-.57,.66,.09,1.09,.19,1.28,.28,.26-.07,.92-.17,1.99-.28,0,.19,.24,.28,.71,.28,0-.09,.05-.24,.14-.43,.28,.14,.43,.28,.43,.43,.38,0,.95-.09,1.71-.28,0,.09,.05,.14,.14,.14l.28-.14c.17,.09,.36,.14,.57,.14h.43v.14c0,.14-.19,.28-.57,.43,0,.19,.09,.28,.28,.28h1.99v-.14h-.28v-.14c0-.17,.09-.26,.28-.28,.2,.29,.35,.51,.47,.65l-.18-.49,.15-.16h-.15v-.28c.14,0,.21,.07,.25,.18l.66-.71,.36,.26c.27-.15,.99-.35,2.14-.58v.14c.28-.07,.43-.36,.43-.85v-.28l-.14-.28c.19,0,.28-.24,.28-.71v-2.7l.14-1c-.09,0-.19-.28-.28-.85,.09-1.68,.14-3.06,.14-4.12v-4.54c-.09-.07-.17-.16-.2-.26-.09-.27-.13-.55-.18-.83-.28,.14-.66,.02-.69-.41-.07-1.16,.14-2.28,.46-3.38,.12-.88,.23-1.75,.34-2.63,0-.02-.02-.02-.02-.04v-.14h.04c.07-.59,.14-1.18,.2-1.78,.02-.16,.1-.28,.21-.36-.1-.54-.19-1.13-.28-1.77l-.36,.13s.04,.06,.04,.09v.14h-.14l-.17-.13-.67,.25c0,.05,0,.1,0,.16h-.14c-.07-.76-.26-1.14-.57-1.14,.28-.31,.43-.54,.43-.71h.14c.03,.2,.08,.35,.16,.44l.08-.73h-.1v-.14c.06-.07,.09-.11,.14-.17l.03-.29-3.17,1.17h.16v.28c-.15,0-.23-.09-.27-.24l-.16,.06v.19l.14,.71c-.09,0-.14,.05-.14,.14,.09,.52,.14,.95,.14,1.28v1.14c-.16,.27-.32,.5-.47,.73,.08,1.23,.14,2.46,.16,3.69,.3,.75,.45,2.26,.45,4.54l-.14,.71c.09,0,.14,.05,.14,.14h-.14l.14,.85-.14,.57c0,.09,.05,.24,.14,.43l-.14,.28c0,.33,.05,.76,.14,1.28-.09,1-.14,1.8-.14,2.42-.21,2.56-1.4,3.84-3.55,3.84h-3.55c0-.28-.09-.43-.28-.43h-.14v.14l.14,.28c-.19,0-.28,.14-.28,.43h-.14c0-.66-.09-1-.28-1l.14-.28c-.47-.59-.71-1.16-.71-1.71v-.85l.14-1.42c-.09,0-.14-.09-.14-.28h-1c-1.04,0-1.94-.09-2.7-.28v-.14h.14c.28,0,.62,.05,1,.14l.57-.14c1.02,.19,1.68,.28,1.99,.28v-1.14l.14-.71h-.28c0,.28-.09,.43-.28,.43v-.14c.17-.38,.36-.57,.57-.57v-.28c0-.33-.05-.76-.14-1.28,.09-.19,.14-.33,.14-.43l-.14-.28c.09,0,.14-.05,.14-.14v-1.56l.14-.71c-.09,0-.14-.05-.14-.14,.09,0,.14-.05,.14-.14v-.14c0-.37,.03-.84,.08-1.36-.05-.07-.08-.15-.08-.26v-.45l-.14,.07h-.14c0-.05,.1-.18,.28-.37v-4.25c0-.08,.01-.15,.04-.21,0-.08,0-.16,0-.24-.21-.91-.33-2.14-.33-3.74v-1.85h-.28v-.28h.28v-.43c0-.21-.05-.4-.14-.57,.19-.57,.28-1.8,.28-3.7,0-2.18,.66-3.51,1.99-3.98h1.85l.57-.43h.14c.38,.38,.66,.57,.85,.57,1.85,0,2.89,1.23,3.13,3.7v3.7l-.14,1c.09,0,.14,.09,.14,.28l-.02,.11,.83-.61c1.31,.14,2.55,.61,3.62,1.35l.12-.71v-7.99c-.18,.12-.35,.25-.54,.37h-.04c-.7-1.29-1.1-2.7-1.18-4.15,.24-1.04,.65-2.03,1.2-2.94,.09,.04,.17,.09,.26,.13-.1-.6-.23-1.18-.41-1.76-.19-.6-.46-1.16-.76-1.7-1.04-.67-1.99-1.44-3.18-1.87-.69-.25-1.39-.45-2.1-.63-1.4-.1-2.79-.32-4.17-.53-1.87-.29-3.75-.04-5.62-.26-.03,0-.06-.02-.09-.03-1.16,0-2.32-.02-3.46-.15-.08,.07-.18,.12-.32,.12-.35,0-.69,0-1.04,0V7.85c0,1,.05,2.51,.14,4.55-.09,0-.14,.09-.14,.28,.09,.19,.14,.33,.14,.43-.09,.66-.14,1.04-.14,1.14,.07,.47,.21,.71,.43,.71h.57c0-.28,.09-.43,.28-.43v.14l-.14,.28c.09,0,.14,.05,.14,.14,1.42,0,2.32,.52,2.7,1.56-.09,.52-.14,.95-.14,1.28v.28c0,.21,.05,.4,.14,.57-.09,.17-.14,.36-.14,.57v1.55h.01v.44l.7,.57c-.24,0-.47,.09-.71,.28l.14,1.42v1.99l-.14,1c.09,0,.14,.05,.14,.14-.09,.17-.14,.36-.14,.57v.28l.14,.71c-.09,0-.14,.05-.14,.14l.28,.43c-.12,.15-.25,.37-.38,.62,0,.22,0,.44,0,.66,.09,.08,.15,.19,.15,.35,0,.55,.02,1.1,.03,1.65h.05v.28h-.05c0,.66-.02,1.31-.1,1.97v1.73c0,.21,.05,.4,.14,.57-.09,.17-.14,.36-.14,.57v2.27c0,.28,.19,.43,.57,.43v.14h-.57v.43c0,.19,.09,.28,.28,.28-.19,.36-.28,.73-.28,1.14v1.56l.14,.28c-.09,0-.14,.05-.14,.14l.28,.43-.28,.43v.57c0,1.78-.28,2.91-.85,3.41h.43l-.14,.28-.43-.28c-.09,0-.14,.05-.14,.14-1.47,.31-2.32,.55-2.56,.71,0,.19,.09,.28,.28,.28,0,.19-.09,.28-.28,.28,0,.21,.05,.4,.14,.57-.09,.17-.14,.36-.14,.57v.14c0,.21,.24,.36,.71,.43-.21,.57-.45,.85-.71,.85v1.42l.14,.28,.71-.14h.28Zm17.77-1.28h-.43l-.71-.14v-.57c.09,0,.24,.05,.43,.14,.21-.28,.36-.43,.43-.43h.14c.24,.19,.43,.28,.57,.28,0,.19-.19,.28-.57,.28l.14,.28v.14Zm1.14-24.73c0-.17,.09-.26,.28-.28h.28c0,.14-.19,.28-.57,.43v-.14Zm0,24.88v.28c-.57-.09-.85-.24-.85-.43,.5,.09,.78,.14,.85,.14Zm-.43-22.74c-.36,.47-.59,.71-.71,.71,0-.09-.05-.24-.14-.43,.19-.24,.28-.47,.28-.71h.14c.28,.14,.43,.28,.43,.43Zm-.71-1.14h-.14v-.71c.19,.09,.33,.14,.43,.14-.19,.24-.28,.43-.28,.57Zm-.14-2.56v-.43l.28,.14c0,.19-.09,.28-.28,.28Zm0-1.14v.28c-.17,0-.26-.09-.28-.28h.28Zm-.57,2.84v-.43h.28v.43h-.28Zm.28,8.39h-.57c0-.17,.09-.26,.28-.28,.19,0,.28,.09,.28,.28Zm-.71-10.95l.57,.14v.28h-.28c-.17,0-.26-.09-.28-.28v-.14Zm0,.85l.57,.14-.14,.28c-.19-.09-.33-.14-.43-.14v-.28Zm-.57,3.27h.28v.57h-.43l.14-.57Zm-.57,2.13h-.14v-.43c.14-.28,.28-.43,.43-.43,0,.09,.05,.24,.14,.43l.71-.14c.19,0,.28,.09,.28,.28-.47,0-.71,.09-.71,.28-.09,0-.24-.05-.43-.14l-.28,.14Zm2.2,16.83l-.07,.62v.03h0l-.07,.65c-.82-.14-1.66-.16-2.48-.07v.42h-.14c0-.15-.03-.28-.07-.4-.35,.04-.69,.1-1.04,.19l3.88-1.44Zm-4.62,.65c.19,0,.28,.09,.28,.28h-.43l.14-.28Zm-.28,1.56c.09,0,.24-.05,.43-.14,.62,.19,1,.28,1.14,.28,0,.19-.09,.28-.28,.28h-.57l-.71-.14v-.28Zm-1.42,2.84c.19,0,.28,.09,.28,.28v.14c-.19-.09-.33-.14-.43-.14l.14-.28Zm-.71-.85h.43v.28h-.43v-.28Zm-1.28,1h-.14v-.28h.43c0,.19-.09,.28-.28,.28Zm-.28-3.7h.71v.28h-.71v-.28Zm-.85,2.42h.14c.19,0,.28,.09,.28,.28-.09,0-.24,.05-.43,.14l-.28-.14c0-.17,.09-.26,.28-.28Zm9.52-33.69h.14l.43,.28c0,.19-.09,.28-.28,.28-.17,0-.26-.09-.28-.28v-.28Zm-.14,2.99h.28v.28h-.28v-.28Zm-3.84-10.38l.57,.43c0,.09-.05,.24-.14,.43l.43,1.28-.43-.28,.14-.28c-.19-.19-.43-.71-.71-1.56h.14Zm-11.51-2.13h-.28v-.28h.28v.28Zm1.85,40.8c.09,0,.24-.05,.43-.14v.14l-.14,.28c-.17,0-.26-.09-.28-.28Zm.28,3.41v-.28c.19,0,.28,.09,.28,.28h-.28Zm2.42-1h.43v.28h-.43v-.28Zm.28,1l-.14,.28c-.09,0-.24-.05-.43-.14l-.85,.14h-.28v-.28l.71-.14h.28l.71,.14Zm-.85-3.98v.28c-.17,0-.26-.09-.28-.28h.28Zm-1.28-4.69h.28l.28,.14c-.09,.19-.14,.33-.14,.43h-.14c-.17,0-.26-.09-.28-.28v-.28Zm.85,3.27v.14c-.28,.24-.43,.43-.43,.57h-.14v-.14c.09-.17,.14-.36,.14-.57h.43Zm-.85-.85h.14c.19,0,.28,.09,.28,.28s-.09,.28-.28,.28h-.14v-.57Zm0,5.12h1c0,.19-.09,.28-.28,.28h-.71v-.28Zm-.85-7.82h.57v.28h-.85c0-.17,.09-.26,.28-.28Zm-.71,6.82h.14c.28,0,.43,.09,.43,.28l-.57-.14v-.14Zm.85-11.09c-.17,0-.26-.09-.28-.28v-.14h.43v.43h-.14Zm-.43-8.39h-.14v-.28h.43c0,.19-.09,.28-.28,.28Zm2.42,.71v.28h-.43l-.71-.43c0-.17,.09-.26,.28-.28,.31,.28,.59,.43,.85,.43Zm-.57-3.27c.07-.47,.21-.71,.43-.71h.14c-.07,.47-.21,.71-.43,.71h-.14Zm.14,3.98v.14h-.43v-.43h.14c.19,0,.28,.09,.28,.28Zm-1-1.56l.14-.28c.19,0,.28,.09,.28,.28v.14h-.14l-.28-.14Zm.28,8.39v.28h-.57v-.14c.21,0,.4-.05,.57-.14Zm.43-15.35h-.28c-.17,0-.26-.09-.28-.28,.09,0,.24-.05,.43-.14h.14v.43Zm-.43,5.12l.28,.14-.14,.71h-.14c-.57-.26-.85-.45-.85-.57h.28l.28,.14c.09-.19,.14-.33,.14-.43h.14Zm-.43-1.42c-.17,0-.26-.09-.28-.28v-.14h.28v.43Zm-.28-3.7h-.28v-.43h.28v.43Zm0,16.06c.09,0,.24-.05,.43-.14,.09,.38,.24,.71,.43,1h-.57c0-.36-.09-.64-.28-.85Zm.85,2.27c-.17,0-.26-.09-.28-.28h.28v.28Zm.28,0h-.14l.14-.28s-.24-.28-.71-.71v-.14h1c0,.24,.19,.38,.57,.43-.05,.28-.33,.52-.85,.71Zm.71-29.57c-.17,0-.26-.09-.28-.28h.43l-.14,.28Zm1.71,1.56h-.28v-.28h.28v.28Zm2.84-.71h-.28c0-.17,.09-.26,.28-.28v.28Zm-2.27,.15l-.41-1.1,.9-.98,1.72,1.26-2.21,.82Zm1.08-7.31l-.14,1.3c-1.24-.21-2.51-.17-3.74,.13l3.88-1.44Zm-6.76,1.47v-.28c1.33,.38,3.74,.66,7.25,.85v.14c0,.19-.38,.33-1.14,.43l-.85-.14h-.14c-3.41,0-5.12-.33-5.12-1Zm.57,21.61v.28c-.17,0-.26-.09-.28-.28h.28Zm.28,2.56c0,.19-.09,.28-.28,.28v-.43l.28,.14Zm0,7.82c.24,.19,.43,.28,.57,.28v.28l-.14,.28c-.66-.4-1-.69-1-.85h.57Zm-.85,3.84h.43v.28h-.43v-.28Zm.14,6.82v.28h-.28c0-.17,.09-.26,.28-.28Zm-.43-.71h.28c0,.19-.09,.28-.28,.28v-.28Zm-.14,1.85l1-.14c.28,0,.43,.09,.43,.28-.09,0-.24,.05-.43,.14-.38-.09-.71-.14-1-.14v-.14Zm-1.28-.28l-.28-.14,.14-.57,.28,.14c-.09,.17-.14,.36-.14,.57Zm-.57-1.56l.14-.28,.28,.14c0,.19-.09,.28-.28,.28h-.14v-.14Zm-.57-1.14v.28c-.17,0-.26-.09-.28-.28h.28Zm-.43,4.12h-.28v-.28h.28v.28Z"/></g><g><path d="M156.45,61.16v.28c.36,.15,.69,.29,1.01,.41l.1-.51s-.02-.01-.03-.02c-.03-.03-.05-.07-.07-.11-.01-.04-.02-.08-.01-.13h.17v-.07s-.02,0-.03,0c-.52,.09-.9,.14-1.14,.14Z"/><path d="M165.62,58.89c.04,.17,.09,.34,.15,.51l.34-.23c0-.18-.17-.27-.49-.28Z"/><path d="M167.96,49.93h-.14l-.71,.14v-.28l.14-.28,.28,.14h.43l.28-.14c0-.17-.05-1.02-.14-2.56,0-2.51-.95-5.64-2.84-9.38-1.76-2.77-2.76-4.65-3.04-5.64-.7-.78-1.29-1.65-1.87-2.53-.33-.25-.64-.58-.94-.98l-.06,.56c-.66-.11-1.34-.09-2,.07l1.98-.73c-.21-.29-.41-.61-.61-.98-1.96-3.22-2.98-5.96-3.1-8.23l-.39,.15-.11-.29,.49-.44c.05-1.63,.98-2.84,2.78-3.63l.36-.27c.23,.02,.46,.07,.68,.13,.88,.12,1.56,.33,1.99,.64,1.42,1.19,2.13,3.22,2.13,6.11l-.14,.71c.19,0,.28,.71,.28,2.13v1c.14,.28,.28,.43,.43,.43h1.42l1,.14c0-.09,.05-.14,.14-.14,0,.09,.05,.14,.14,.14l.57-.43c0-.09-.05-.24-.14-.43l.14-.71c-.19-1.26-.28-2.3-.28-3.13,0-.09-.14-.14-.43-.14v-.57l.28,.14h.14v-.14l-.43-.57v-.43h.43c0-.31-.05-.54-.14-.71l.14-.85v-4.54h-1.03v-.64l-.15-.05-.16,.05-.63-.32,.81,.26,.77-.26c.1,.12,.24,.2,.39,.25v-3.57l.14-1c-.09,0-.14-.05-.14-.14l.14-.28-.14-.28,.14-.28c-.09-.17-.14-.36-.14-.57v-1.41c-.42-.27-.85-.52-1.3-.73-1.54-.71-3.28-1.04-4.96-1.22-1.53-.16-3.11-.21-4.62,.11-.75,.31-1.53,.57-2.26,.91-.78,.36-1.37,.86-1.79,1.6-.5,1.04-.89,2.26-1.13,3.72l.14,.28c-.25,.91-.37,1.96-.4,3.09l.55,.35-.48,.52-.07-.03c.02,.25,.06,.51,.12,.76-.09,.36-.14,.73-.14,1.14v.85c.07,2.42,.59,4.93,1.56,7.53,2.23,4.74,3.45,7.48,3.66,8.21,1.05,.88,1.94,1.95,2.78,3.03,.12,.16,.14,.34,.09,.49,.99,1.03,2.17,3.02,3.56,6.03,.31,1.11,.59,1.82,.85,2.13v1.71c0,.47-.28,1.37-.85,2.7-.66,.95-1.9,1.42-3.7,1.42-1.37,0-2.51-.9-3.41-2.7l-.28,.14h-.14v-.43c0-.17,.09-.26,.28-.28,0-.64-.19-1.3-.57-1.99l.28-.43c0-.19-.14-.28-.43-.28l.14-1v-.85l-.14-.28h.14c0-.09-.05-.24-.14-.43,.09-.17,.14-.36,.14-.57v-1.56c0-.17-.09-.26-.28-.28h-1.14c-1.52,0-2.27,.14-2.27,.43v1.79l.7,.22-.7,.37v1.31l.14,.28h-.14l.14,.71v2.42l.14,.28c-.09,0-.14,.05-.14,.14v9.24c0,.19,.24,.28,.71,.28l-.71,.71v.57l.14,.28c.09,0,.14-.05,.14-.14,.76,.05,1.14,.19,1.14,.43-.43,0-.71,.05-.85,.14,0-.09-.14-.19-.43-.28l-.14,.28,.14,.85c-.08,.14-.12,.35-.13,.6l.92-.13c.4,0,.79,.24,1.19,.66,.05,0,.1,0,.16,0,.12,0,.59-.05,1.42-.14,1.9,.09,3.13,.24,3.7,.43h.28l.28-.14-.14-.28h1.56c1.11-.28,2.01-.43,2.7-.43l.28,.14v.14c-1.33,.21-1.99,.4-1.99,.57l.14,.28-.28,.14h-.28l-.85-.14c-.17,.07-.73,.17-1.71,.28-.13-.02-.25-.05-.35-.06l1.14,.46c.1,.1,.18,.23,.2,.37,.03,.14,.01,.29-.05,.42h-.02s0,.09,0,.15h.18l.08,.08c.38,.09,.7,.15,.95,.15,2.08-.14,3.13-.43,3.13-.85,.09,0,.14,.05,.14,.14,.5-.07,.97-.4,1.42-1h-.57c0,.33-.38,.52-1.14,.57h-.14c0-.09,.05-.24,.14-.43,0-.09-.09-.14-.28-.14v-.14c.09,0,.24-.05,.43-.14,.14,0,.33,.09,.57,.28h.14c.17,0,.31-.24,.43-.71h-.71v-.28c.21,0,.4-.05,.57-.14l.85,.14c.15,0,.23-.08,.26-.2-.52-.32-1-.71-1.42-1.16-.39-.31-.67-.73-.83-1.19-.56,.2-.85,.39-.85,.56-.43-.28-.85-.43-1.28-.43-.09,0-.24,.05-.43,.14-.33-.17-1.56-.31-3.7-.43,0,.09-.05,.14-.14,.14-.38-.09-.71-.14-1-.14v-.14l.14-.28c.66,.09,1.09,.19,1.28,.28,.17-.09,.36-.14,.57-.14h.85c.62,0,1.28,.09,1.99,.28,.36-.17,1.07-.31,2.13-.43,0,.08,.13,.13,.36,.13l.27-.27c.19-1.12,.74-2.15,1.58-2.92v1.79c.12,.03,.2,.1,.2,.26v.28h-.21v.58c0,.62,.08,1.23,.21,1.83h.71c.26-.12,.59-.59,1-1.42,0-.09-.05-.24-.14-.43,.14,0,.33-.43,.57-1.28-.19,0-.33-.28-.43-.85h.14l.28,.14c0-.17,.09-.26,.28-.28,0-.09-.05-.24-.14-.43,.19-.5,.33-1.11,.43-1.85l-.14-1,.14-.28-.14-.28c0-.09,.05-.24,.14-.43,0-.17-.09-.26-.28-.28Zm-1.56-25.44h-.28v-.28h.28v.28Zm-.43-1.85h.14v.14l-.14,.28-.28-.14c0-.17,.09-.26,.28-.28Zm.43-17.48h.14c.19,0,.28,.09,.28,.28l-.14,.28c-.17,0-.26-.09-.28-.28v-.28Zm-2.21,17.69l.63,.32-.31,.31h-.63l.32-.64Zm-.77-4.47h.28v.28h-.28v-.28Zm-.41-9.33c.11,.05,.2,.13,.28,.22l-.32,.63-.63-.32,.32-.63c.12,0,.24,.04,.35,.09Zm-2.55-1.95c.84,.36,1.59,.9,2.2,1.58-.19,.64-.92,1.37-2.19,2.21h-.02c-.38-.69-.59-1.44-.63-2.22,.13-.55,.35-1.08,.64-1.57Zm-2.44,5.74h.28v.14h-.28v-.14Zm-4.99-5.87l2.07-.77-.08,.7c-.66-.11-1.34-.09-2,.07Zm1.28,2.55l.48-.52,.92,.67-1.18,.44-.22-.59Zm.72,7.87c-.17,0-.26-.09-.28-.28h.28v.28Zm3.82,14.8l-.22-.59,.48-.52,.92,.67-1.18,.44Zm-.12,26.56c.31,0,.54-.05,.71-.14,.95,.09,1.42,.24,1.42,.43-.09,0-.24,.05-.43,.14l-.57-.14c-.09,0-.24,.05-.43,.14-.17-.09-.4-.14-.71-.14v-.28Zm-3.26-8.54l1.89-.32c-.05,.48-.16,.96-.32,1.42-.21,.76-.11,1.21,.31,1.42l-.32,1.57v-1.57c-.12,.02-.25,0-.38-.03-.12-.04-.23-.11-.33-.2-.09-.09-.16-.2-.2-.33-.04-.12-.05-.25-.03-.38l-1.77-.89-.43,.25,.31-.31,.11,.06,1.15-.68Zm.27,4.85c0,.19-.09,.28-.28,.28h-.71v-.28h1Zm-1.14-3.7v.28h-.43c0-.17,.09-.26,.28-.28h.14Zm-1,.28h.28v.28c-.17,0-.26-.09-.28-.28Zm.14,2.7l-.57-.14v-.14h.14c.28,0,.43,.09,.43,.28Zm-.14-6.82c0-.17,.09-.26,.28-.28h.57v.28h-.85Zm1-1c0,.19-.09,.28-.28,.28h-.14v-.28h.43Zm-.57-.85h.28v.28h-.28v-.28Zm-.57,1.14h.43v.14c-.09,0-.24,.05-.43,.14v-.28Zm-.07,1.81s.08-.03,.12-.06c.03-.03,.05-.06,.07-.1v-.15h.02c0,.05,0,.1-.02,.14h0v.18h-.32s.09,0,.13,0Zm-.08,2.17v.43l-.28-.14c0-.17,.09-.26,.28-.28Zm-.57,3.27v.28h-.28c0-.17,.09-.26,.28-.28Zm-.57,1.14l1-.14c.28,0,.43,.09,.43,.28-.09,0-.24,.05-.43,.14-.38-.09-.71-.14-1-.14v-.14Zm-.71-7.68c.09,0,.24-.05,.43-.14h.14v.28h-.57v-.14Zm.43,3.55l-.14,.28c-.17,0-.26-.09-.28-.28h.43Zm-.28,3.55h-.14v-.71l.28,.14-.14,.57Zm.14,.28h.28c0,.19-.09,.28-.28,.28v-.28Zm1.99,1.71h-.85l-1-.14c.07-.28,.45-.43,1.14-.43h.28l.71,.14v.14c0,.19-.09,.28-.28,.28Zm.57,1.99c-.17,0-.26-.09-.28-.28h.57c0,.19-.09,.28-.28,.28Zm1.28-1.14c-.85-.09-1.28-.24-1.28-.43,.21,0,.4-.05,.57-.14,0,.12,.28,.21,.85,.28l-.14,.28Zm1.14-1c-.09,0-.24-.05-.43-.14l-.85,.14h-.28v-.28l.71-.14h.28l.71,.14-.14,.28Zm.28-1h-.43v-.28h.43v.28Zm.95,1.35l-.32,.32-.63-.32c.16-.18,.39-.29,.63-.31,.05-.01,.09,0,.14,0,.05,.01,.09,.04,.12,.07,.03,.03,.06,.07,.07,.12,.01,.04,.02,.09,.01,.14h-.02Zm.04-1.21l-.28-.14c0-.17,.09-.26,.28-.28h.14c.19,0,.28,.09,.28,.28-.09,0-.24,.05-.43,.14Zm2.7-2.42c-.17,0-.26-.09-.28-.28h.43l-.14,.28Zm2.84-15.35c.38,.14,.57,.28,.57,.43v.43h-.28c0-.14-.09-.33-.28-.57v-.28Zm-.14,3.98h.14l.28,.14c-.14,.28-.28,.43-.43,.43v-.57Zm-.57-7.25l.14,.28v.14h-.28c-.17,0-.26-.09-.28-.28,.09,0,.24-.05,.43-.14Zm.31,4.28l-.67,.92c-.3-.75-.49-1.55-.56-2.35h-.11l.09-.12,.04,.11,1.36,.04-.15,1.4Zm-.17,11.5h.28c0,.19-.09,.28-.28,.28v-.28Zm-.63,5.86c0-.21-.05-.31-.16-.31-.11,0-.15-.12-.15-.32l.62,.64h-.31Zm1.34-.88l.14-.57,.28,.14c-.14,.28-.28,.43-.43,.43Zm.14-1.42h-.14l-1.42-.14v-.28l.85-.14c.38,.19,.71,.28,1,.28,0,.19-.09,.28-.28,.28Zm.57-3.55c-.38,0-.57,.09-.57,.28-.28-.14-.43-.28-.43-.43,.31,0,.54-.05,.71-.14,0,.09,.09,.14,.28,.14v.14Zm0-.71h-.28c0-.09-.05-.24-.14-.43-.19,0-.28,.19-.28,.57h-.28v-.57c.38-.85,.62-1.28,.71-1.28,0,.57,.09,.95,.28,1.14v.57Zm.14-2.84c.19,0,.28,.09,.28,.28h-.28v-.28Zm.43,7.39h-.28v-.28h.28v.28Zm1,3.55h-.57v-.14c0-.17,.09-.26,.28-.28,.19,0,.28,.09,.28,.28v.14Zm.14-15.92v-.43l.28,.14c0,.19-.09,.28-.28,.28Zm.57,13.22h-.14c-.17,0-.26-.09-.28-.28l.14-.28c.19,0,.28,.09,.28,.28v.28Zm.14-10.52l.14-.28,.28,.14-.14,.28-.28-.14Z"/><path d="M159.36,62.51s0,0,0-.02h-.05l.05,.02Z"/></g><g><polygon points="107.9 55.3 109.12 52.34 105.98 51.68 105.6 52.76 107.9 55.3"/><path d="M74.87,26.58l2.49,.44c-.33,0-.98-.42-1.97-1.21l-.52,.77Z"/><path d="M90.39,26.85h.5v-.38l-.09,.05c-.11,0-.21,.05-.29,.11-.08,.06-.12,.14-.12,.23Z"/><polygon points="64.32 26.39 65.23 26.64 64.85 26.01 64.32 26.39"/><path d="M21.3,25.46c-.02-.05-.05-.1-.1-.14-.05-.04-.1-.07-.17-.09-.06-.02-.13-.03-.2-.02-.07,0-.14,0-.2,.01-.07,.02-.13,.05-.17,.08-.05,.04-.09,.08-.11,.13-.02,.05-.03,.11-.02,.16l-.09,.05c.07-.02,.14-.02,.21-.01,.07,0,.14,.03,.19,.07,.06,.03,.1,.08,.13,.13s.04,.11,.04,.16l.51-.38c.01-.05,0-.11-.01-.16Z"/><path d="M60.92,32.96c-.81-.79-1.55-1.45-2.2-1.99l1.88,4.33,.96,.02,.52-.39c-.11-.74-.51-1.43-1.16-1.97Z"/><polygon points="65.23 26.64 65.8 27.59 65.82 26.81 65.23 26.64"/><path d="M90,24.12c-.29-.24-.62-.45-.99-.6-.37-.16-.7-.36-.98-.6l-.52,.78,1.46,1.19,1.03-.76Z"/><polygon points="52.8 18.32 52.1 18.33 52.45 18.6 52.8 18.32"/><path d="M26.87,24.16c-.07,0-.14,0-.2,.01-.06,.02-.12,.04-.17,.08-.05,.04-.09,.08-.11,.13s-.03,.1-.03,.16l-.09,.05c0,.06,0,.11,.04,.16,.03,.05,.07,.1,.13,.13,.06,.03,.12,.06,.19,.07,.07,0,.14,0,.21-.01l.02-.78Z"/><polygon points="32.39 23.47 32.84 25.04 33.84 25.45 35.37 24.7 33.9 23.5 32.39 23.47"/><polygon points="1.84 24.1 2.32 24.49 3.37 22.95 1.84 24.1"/><path d="M85.42,24.66c-.02-.05-.06-.1-.1-.13-.05-.04-.1-.07-.17-.09s-.13-.03-.2-.02l-.02,.79,.51-.39c0-.05,0-.11-.02-.16Z"/><path d="M2.87,56.79l-.07,2.52c.08,0,.16,0,.24,0v.03c.2,.08,.43,.1,.66,.07,.23-.03,.44-.12,.6-.24l1.07-1.94-2.49-.43Z"/><polygon points="27.98 21.05 27.97 21.44 28.49 21.06 27.98 21.05"/><polygon points="53.48 20.73 54.99 19.98 54.04 18.4 53 19.55 53.48 20.73"/><path d="M80.56,21.21v-.39l-.14,.04c0-.26-.28-.43-.85-.45l-.02,.78,1.01,.02Z"/><polygon points="73.99 21.09 74.51 20.33 73.02 19.91 72.5 20.68 73.99 21.09"/><path d="M65.06,20.55l-.53,.78,.5,.4c-.03-.43,.17-.85,.53-1.16h-.5Z"/><polygon points="60.13 16.83 60.12 15.76 58.69 15.74 59.07 16.57 60.13 16.83"/><path d="M2.6,13.61c.17,.07,.36,.11,.55,.12l.52-.77-1-.41-.52,.77c.12,.12,.27,.21,.44,.28Z"/><path d="M56.06,20.57c-.05,.52,.04,1.05,.28,1.54l3.06,1.28c-1.1-1.36-2.03-2.81-2.76-4.32-.33,.46-.53,.97-.58,1.49Z"/><polygon points="7.96 18.74 9.5 17.6 7.51 17.17 6.48 18.33 7.96 18.74"/><path d="M54.45,15.23c-.01,.15,.01,.3,.07,.44,.06,.14,.16,.27,.29,.39,.18,.16,.4,.29,.65,.38,.25,.09,.51,.15,.78,.16l.31-1.95-1.41,.02-.7,.56Z"/><path d="M102.94,18.09l.05-.07-.15-.06s.06,.09,.1,.14Z"/><path d="M4.71,57.06s-.09,.08-.11,.13c-.02,.05-.03,.1-.02,.16,0,.05,0,.11,.02,.16,.02,.05,.06,.1,.1,.13s.1,.07,.17,.09c.06,.02,.13,.03,.2,.02l.02-.79c-.07,0-.14,0-.2,.01-.07,.02-.13,.04-.17,.08Z"/><path d="M6.68,67.53c1.6-.47,3.31-.71,5.02-.69l4.64,.08c-1.19-1.06-2.8-1.77-4.58-2.03l-.49-.4c-1,.12-1.9,.52-2.55,1.12-.8,.56-1.49,1.2-2.05,1.91Z"/><polygon points="6.13 37.44 4.59 38.59 6.67 38.63 7.21 37.46 6.13 37.44"/><path d="M50.21,15.28l.02-.55-.09,.03c-.35-.32-.84-.52-1.37-.56l.73,.54,.71,.54Z"/><path d="M10.69,46.37h-.07s0,.01,0,.03l.06-.03Z"/><polygon points="2.63 47.76 1.59 48.91 3.09 48.94 3.61 48.16 2.63 47.76"/><path d="M4.36,41.85c-.17,.06-.36,.1-.55,.11l.49,.4,1.01,.02-.49-.79c-.13,.11-.28,.2-.46,.26Z"/><path d="M14.62,48.79h0s0,.02-.01,.03v-.03Z"/><path d="M14.62,48.79c.02-.15,.07-.29,.15-.42,.09-.14,.22-.26,.37-.36l-1.54,1.15c.26-.22,.63-.35,1.02-.37Z"/><path d="M5.58,49.79c0,.93-.2,1.85-.58,2.73,1.69-.76,2.55-1.52,2.57-2.29l-.42-2.74c-.5,.24-.91,.59-1.18,.99-.28,.41-.41,.86-.39,1.32Z"/><polygon points="64.62 65.85 64.59 66.63 65.08 67.02 65.61 66.26 64.62 65.85"/><path d="M90.74,62.01c-.77-.38-1.6-.66-2.48-.83-1.23,.03-2.44,.27-3.53,.72v.03c1.28,1.59,2.42,2.52,3.43,2.76,1.11-.73,1.99-1.65,2.58-2.68Z"/><path d="M87.57,65.13c.09-.13,.14-.28,.16-.43l-.98-.41-.52,.77,.98,.41c.15-.09,.27-.21,.36-.34Z"/><polygon points="68.23 62.4 67.71 63.17 69.19 63.59 69.72 62.82 68.23 62.4"/><path d="M25.3,52.49c-.06-.02-.12-.05-.16-.09-.05-.04-.08-.09-.1-.15-.02-.05-.02-.11,0-.17v.4h.26Z"/><path d="M.48,52.25c-.02-.05-.06-.1-.1-.13-.05-.04-.1-.07-.17-.09-.06-.02-.13-.03-.2-.02v.06s0,.1,.03,.14c.03,.04,.06,.08,.11,.12,.05,.03,.1,.06,.16,.07,.06,.01,.12,.02,.18,.01,0-.05,0-.11-.02-.16Z"/><polygon points="19.33 32.24 18.82 32.62 19.29 33.41 19.8 33.02 19.33 32.24"/><polygon points="21.5 53.2 21.02 52.81 21.4 53.34 21.5 53.2"/><path d="M2.29,59.52v.39l.5-.38v-.22c-.3-.03-.49,0-.5,.21Z"/><path d="M11.36,57.31l.5,.41v.03c.06,.01,.13,0,.21-.01s.13-.05,.19-.09c.05-.04,.09-.09,.11-.15,.02-.06,.02-.11,0-.17-.02-.3-.19-.58-.47-.79l-.53,.77Z"/><path d="M19.32,55.55c-.2,.05-.38,.13-.52,.24s-.26,.25-.33,.4c-.07,.15-.09,.31-.07,.47l-2.5-.04,2.49,.43c.34-.51,1.05-.63,2.26-.35,.73,.21,1.48,.35,2.25,.43l-.44-2.35-1.05-1.44-1.47,2.17c-.2-.03-.41-.01-.61,.03Z"/><path d="M25.52,52.53v-.03h-.21c.07,.02,.14,.03,.21,.03Z"/><path d="M13.18,62.98c0,.13-.16,.2-.5,.19v.39l1.02-.76c-.33,0-.51,.05-.52,.18Z"/><polygon points="8.47 46.13 8.51 44.96 7.56 43.38 7.04 44.15 7.98 46.12 8.47 46.13"/><polygon points="25.53 25.74 26.03 25.75 27.05 24.99 26.07 24.57 25.05 24.95 25.53 25.74"/><path d="M10.62,46.36c.02-1-.41-1.53-1.39-1.58l-1.53,1.15,2.92,.43Z"/><path d="M82.09,67.7l-.52,.77,.08,.2-.09,.19-1.01-.02-.06,1.96h.51c.07,.02,.14,.01,.2,0,.07-.02,.13-.05,.17-.08,.05-.04,.09-.08,.11-.13,.02-.05,.03-.11,.02-.16,.04-.3,.22-.57,.52-.77l-.39-.95,.44-1Z"/><polygon points="106.27 55.61 105.95 56.1 106.76 56.72 107.69 55.63 107.37 55.72 106.27 55.61"/><polygon points="108.73 50.43 109.03 49.93 107.75 49.45 107.14 50.44 108.73 50.43"/><polygon points="108.15 55.1 107.69 55.63 108.31 55.46 108.15 55.1"/><polygon points="97.17 61.38 97.66 62.48 99.26 63.7 99.4 62.84 97.64 61.25 97.17 61.38"/><polygon points="2.38 32.91 1.44 33.16 2.1 34.64 3.19 33.52 2.38 32.91"/><path d="M6.52,33.86l1.1,.11-1.15-2.59c.24,.81,.25,1.65,.05,2.47Z"/><polygon points="14.98 21.67 15.9 20.19 14.49 20.57 13.87 21.56 14.98 21.67"/><path d="M18.82,17.33l-2.22-.23,.66,1.48,1.12,.11c1.02-.81,1.67-1.85,1.85-2.98l-2.1-2.33-.78,.62,1.48,3.33Z"/><polygon points="87.1 54.35 86.16 54.6 86.82 56.08 87.91 54.96 87.1 54.35"/><path d="M91.24,55.3l1.1,.11-1.15-2.59c.24,.81,.25,1.65,.05,2.47Z"/><polygon points="80.71 49.47 80.39 49.97 81.2 50.58 82.13 49.5 81.81 49.58 80.71 49.47"/><polygon points="83.17 44.29 83.47 43.79 82.19 43.32 81.58 44.3 83.17 44.29"/><path d="M88.67,45.69l-.18-.11-.02,.14c-1.28,.07-2.55,.28-3.75,.64l1.44,.85,2.22,.22,.11-1.68,.18-.05Z"/><polygon points="82.59 48.96 82.13 49.5 82.75 49.33 82.59 48.96"/><path d="M88.48,44.09c-.07-.14-.18-.26-.32-.37-.14-.1-.3-.19-.48-.24l-1.26,.75,2.07,1.34v-.25c.22-.4,.21-.84,0-1.24Z"/><polygon points="99.7 43.11 100.62 41.63 99.21 42.01 98.59 43 99.7 43.11"/><polygon points="71.61 55.25 72.1 56.35 73.7 57.57 73.84 56.71 72.08 55.12 71.61 55.25"/><polygon points="51.9 59.15 50.96 59.41 51.61 60.88 52.71 59.76 51.9 59.15"/><path d="M56.04,60.11l1.1,.11-1.15-2.59c.24,.81,.25,1.65,.05,2.47Z"/><polygon points="45.51 54.28 45.19 54.78 46 55.39 46.93 54.3 46.61 54.39 45.51 54.28"/><polygon points="47.97 49.1 48.27 48.6 46.99 48.12 46.38 49.11 47.97 49.1"/><path d="M42.73,63.07l-.18-.11-.02,.14c-1.28,.07-2.55,.28-3.75,.64l1.44,.85,2.22,.22,.11-1.68,.18-.05Z"/><polygon points="47.39 53.77 46.93 54.3 47.55 54.14 47.39 53.77"/><path d="M53.27,48.89c-.07-.14-.18-.26-.32-.37-.14-.1-.3-.19-.48-.24l-1.26,.75,2.07,1.34v-.25c.22-.4,.21-.84,0-1.24Z"/><polygon points="64.5 47.92 65.42 46.43 64.01 46.82 63.38 47.81 64.5 47.92"/><path d="M77.46,61.35l-2.22-.23,.66,1.48,1.12,.11c1.02-.81,1.67-1.85,1.85-2.98l-2.1-2.33-.78,.62,1.48,3.33Z"/><polygon points="36.41 60.05 36.9 61.15 38.5 62.37 38.64 61.51 36.88 59.93 36.41 60.05"/><polygon points="32.14 34.09 32.46 33.36 30.56 32.86 31.02 34.22 32.14 34.09"/><polygon points="40.99 33.15 40.69 32.65 39.57 32.77 40.1 34.01 40.2 33.76 40.99 33.15"/><path d="M12.23,45.02c.18,.04,.38,.05,.57,.03,.19-.02,.37-.07,.54-.15v-1.24l-2.62,.45,.25,.17c.28,.37,.74,.64,1.27,.74Z"/><polygon points="35.79 48.75 36.73 50.22 37.21 49.12 36.59 48.13 35.79 48.75"/><path d="M37.57,55.66l1.6-1.23-1.9-.5-.79,.62c.2,1.12,.86,2.16,1.88,2.96l3.65,.13-.15-.86-4.28-1.13Z"/><polygon points="40.72 24 39.31 23.63 37.09 23.86 37.88 24.48 40.56 24.37 40.72 24"/></g><g><polygon points="60.6 19.22 59.48 22.84 62.48 23.62 62.83 22.29 60.6 19.22"/><path d="M92.43,53.93l-2.38-.51c.31,0,.94,.5,1.89,1.46l.49-.94Z"/><path d="M77.66,53.75h-.47v.47l.09-.06c.1,0,.2-.06,.27-.13,.07-.08,.11-.17,.12-.28Z"/><polygon points="102.48 54.05 101.61 53.75 101.98 54.52 102.48 54.05"/><path d="M143.44,54.72c.02,.06,.05,.12,.1,.17,.05,.05,.1,.08,.16,.11,.06,.02,.13,.03,.19,.02,.06,0,.13,0,.19-.02,.06-.02,.12-.06,.16-.1,.05-.05,.08-.1,.1-.16,.02-.06,.03-.13,.02-.19l.08-.06c-.06,.02-.13,.03-.2,.02-.07-.01-.13-.04-.19-.08-.05-.04-.1-.1-.13-.16s-.04-.13-.04-.2l-.48,.47c-.01,.06,0,.13,.01,.19Z"/><path d="M105.62,45.98c.79,.96,1.49,1.75,2.12,2.41l-1.84-5.27h-.91l-.49,.47c.11,.9,.51,1.74,1.13,2.39Z"/><polygon points="101.61 53.75 101.06 52.6 101.05 53.55 101.61 53.75"/><path d="M78.07,57.09c.28,.29,.6,.54,.95,.73,.35,.19,.67,.43,.94,.73l.49-.95-1.4-1.44-.97,.94Z"/><polygon points="113.55 63.77 114.23 63.76 113.88 63.43 113.55 63.77"/><path d="M138.16,56.37c.06,0,.13,0,.19-.02,.06-.02,.12-.05,.16-.1,.05-.05,.08-.1,.1-.16s.03-.13,.02-.19l.08-.06c0-.07,0-.14-.04-.2-.03-.06-.07-.12-.13-.16-.05-.04-.12-.07-.19-.08-.07-.01-.14,0-.2,.02v.95Z"/><polygon points="132.91 57.27 132.46 55.35 131.51 54.87 130.06 55.8 131.48 57.25 132.91 57.27"/><polygon points="161.99 56.18 161.52 55.7 160.55 57.59 161.99 56.18"/><path d="M82.42,56.38c.02,.06,.05,.12,.1,.16,.04,.05,.1,.08,.16,.1s.13,.03,.19,.02v-.96l-.47,.48c0,.06,0,.13,.02,.19Z"/><path d="M160.55,16.28l.04-3.07c-.08,0-.15,0-.23,0v-.03c-.19-.09-.41-.12-.63-.07-.22,.04-.41,.15-.57,.3l-.99,2.38,2.38,.5Z"/><polygon points="137.14 60.17 137.15 59.7 136.66 60.17 137.14 60.17"/><polygon points="112.88 60.84 111.45 61.77 112.37 63.69 113.35 62.27 112.88 60.84"/><path d="M87.09,60.53v.47l.13-.06c0,.31,.27,.52,.81,.54v-.95h-.95Z"/><polygon points="93.35 60.61 92.86 61.55 94.29 62.04 94.77 61.1 93.35 60.61"/><path d="M101.86,61.18l.5-.95-.48-.48c.03,.52-.15,1.03-.49,1.43h.47Z"/><polygon points="106.6 65.66 106.63 66.97 107.98 66.99 107.61 65.98 106.6 65.66"/><path d="M161.4,68.99c-.16-.08-.34-.13-.53-.14l-.49,.94,.95,.49,.49-.94c-.12-.14-.26-.26-.43-.34Z"/><path d="M110.42,61.06c.04-.64-.05-1.28-.28-1.88l-2.93-1.53c1.07,1.65,1.97,3.41,2.68,5.24,.31-.56,.49-1.19,.54-1.83Z"/><polygon points="156.23 62.78 154.78 64.2 156.68 64.69 157.65 63.27 156.23 62.78"/><path d="M112.03,67.56c.01-.18-.01-.37-.08-.54-.06-.17-.16-.33-.28-.47-.17-.19-.38-.35-.62-.46-.23-.11-.49-.17-.75-.18l-.27,2.38,1.34-.04,.66-.69Z"/><path d="M65.83,64.58l-.05,.09,.15,.08c-.04-.05-.06-.11-.1-.17Z"/><path d="M158.8,15.97s.08-.1,.1-.16c.02-.06,.03-.13,.02-.19,0-.06,0-.13-.02-.19-.02-.06-.05-.12-.1-.16s-.1-.08-.16-.1c-.06-.02-.13-.03-.19-.02v.96c.05,0,.12,0,.18-.02,.06-.02,.12-.06,.17-.1Z"/><path d="M156.78,3.22c-1.52,.6-3.14,.9-4.77,.89l-4.42-.05c1.15,1.28,2.69,2.14,4.39,2.43l.47,.48c.95-.16,1.8-.65,2.41-1.39,.75-.69,1.4-1.48,1.92-2.36Z"/><polygon points="157.72 39.93 159.17 38.52 157.19 38.49 156.69 39.92 157.72 39.93"/><path d="M116.07,67.45v.67l.07-.03c.33,.39,.8,.63,1.31,.67l-.7-.66-.69-.66Z"/><path d="M153.26,29.09h.06s0-.02,0-.03l-.06,.03Z"/><polygon points="160.91 27.3 161.89 25.88 160.45 25.87 159.97 26.82 160.91 27.3"/><path d="M159.34,34.54c.16-.08,.34-.13,.52-.13l-.47-.48h-.96l.47,.94c.12-.14,.27-.25,.43-.33Z"/><path d="M149.48,26.17h0s0-.02,0-.03v.03Z"/><path d="M149.48,26.17c-.02,.18-.06,.35-.14,.51-.09,.17-.2,.32-.35,.44l1.45-1.42c-.25,.27-.59,.44-.96,.46Z"/><path d="M158.07,24.85c0-1.13,.17-2.26,.51-3.33-1.6,.94-2.4,1.88-2.42,2.83l.43,3.35c.47-.3,.86-.72,1.11-1.22,.26-.5,.38-1.05,.35-1.62Z"/><polygon points="101.66 5.88 101.67 4.93 101.2 4.45 100.71 5.39 101.66 5.88"/><path d="M76.84,10.84c.73,.45,1.53,.78,2.37,.99,1.17-.05,2.32-.36,3.35-.92v-.03c-1.24-1.92-2.33-3.04-3.3-3.33-1.04,.91-1.87,2.03-2.42,3.3Z"/><path d="M79.82,7c-.08,.16-.13,.34-.14,.52l.94,.49,.49-.94-.94-.49c-.14,.11-.26,.26-.34,.42Z"/><polygon points="98.27 10.13 98.76 9.18 97.34 8.68 96.84 9.64 98.27 10.13"/><path d="M139.27,21.76c.06,.03,.11,.06,.15,.11,.05,.05,.08,.11,.1,.18,.02,.07,.02,.14,0,.2v-.49h-.26Z"/><path d="M162.89,21.8c.02,.06,.05,.12,.1,.16,.04,.05,.1,.08,.16,.1,.06,.02,.13,.03,.19,.02v-.07c.01-.06,0-.12-.03-.17-.03-.05-.06-.1-.11-.14-.05-.04-.1-.07-.16-.08-.06-.02-.12-.02-.18-.01,0,.06,0,.13,.02,.19Z"/><polygon points="145.22 46.43 145.7 45.96 145.24 44.99 144.76 45.47 145.22 46.43"/><polygon points="142.87 20.86 143.34 21.34 142.97 20.69 142.87 20.86"/><path d="M161.07,12.95v-.47l-.47,.47v.27c.29,.04,.47-.02,.47-.26Z"/><path d="M152.47,15.74l-.48-.49v-.03c-.06-.01-.13,0-.2,.01s-.13,.06-.18,.11c-.05,.05-.08,.11-.1,.18-.02,.07-.02,.14,0,.21,.02,.37,.19,.71,.46,.95l.5-.94Z"/><path d="M144.92,17.97c.19-.06,.36-.16,.5-.3s.25-.31,.31-.49c.06-.19,.08-.38,.06-.58l2.38,.03-2.38-.5c-.32,.63-.99,.77-2.14,.45-.69-.24-1.41-.41-2.14-.5l.45,2.86,1.02,1.75,1.37-2.67c.19,.03,.39,.01,.58-.05Z"/><path d="M139.06,21.73v.03h.2c-.06-.03-.13-.04-.2-.03Z"/><path d="M150.66,8.84c0-.16,.15-.24,.48-.24v-.47l-.96,.94c.31,0,.49-.06,.49-.23Z"/><polygon points="155.37 29.36 155.35 30.78 156.28 32.7 156.76 31.76 155.84 29.37 155.37 29.36"/><polygon points="139.41 54.43 138.93 54.42 137.97 55.36 138.92 55.85 139.88 55.38 139.41 54.43"/><path d="M153.32,29.1c0,1.23,.41,1.87,1.35,1.91l1.44-1.42-2.79-.5Z"/><path d="M85,3.81l.49-.94-.08-.24,.08-.23h.96l.03-2.38h-.49c-.06-.01-.13,0-.19,.01-.06,.02-.12,.06-.16,.1-.05,.05-.08,.1-.1,.16-.02,.06-.03,.13-.02,.19-.03,.37-.21,.7-.49,.94l.38,1.16-.41,1.22Z"/><polygon points="62.15 18.82 62.45 18.21 61.67 17.48 60.8 18.81 61.1 18.7 62.15 18.82"/><polygon points="59.88 25.17 59.6 25.79 60.83 26.36 61.4 25.14 59.88 25.17"/><polygon points="60.37 19.47 60.8 18.81 60.21 19.02 60.37 19.47"/><polygon points="70.74 11.68 70.25 10.34 68.72 8.87 68.59 9.92 70.29 11.84 70.74 11.68"/><polygon points="161.35 45.43 162.24 45.11 161.6 43.32 160.57 44.69 161.35 45.43"/><path d="M157.4,44.31l-1.05-.12,1.13,3.14c-.23-.99-.26-2.02-.08-3.02Z"/><polygon points="149.51 59.28 148.65 61.1 149.99 60.62 150.57 59.4 149.51 59.28"/><path d="M145.91,64.62l2.12,.26-.65-1.79-1.06-.12c-.96,1-1.56,2.28-1.72,3.65l2.04,2.82,.73-.77-1.46-4.05Z"/><polygon points="80.42 20.16 81.31 19.84 80.66 18.04 79.63 19.42 80.42 20.16"/><path d="M76.46,19.04l-1.05-.12,1.13,3.14c-.23-.99-.26-2.02-.08-3.02Z"/><polygon points="86.57 26.04 86.86 25.43 86.08 24.69 85.21 26.03 85.51 25.92 86.57 26.04"/><polygon points="84.29 32.39 84.01 33 85.24 33.57 85.81 32.36 84.29 32.39"/><path d="M79.04,30.74l.17,.14v-.17c1.24-.09,2.44-.37,3.58-.82l-1.38-1.03-2.12-.25-.08,2.06-.17,.06Z"/><polygon points="84.78 26.68 85.21 26.03 84.62 26.24 84.78 26.68"/><path d="M79.24,32.7c.07,.17,.18,.32,.31,.44,.13,.13,.29,.22,.46,.29l1.19-.93-1.98-1.62v.31c-.2,.49-.18,1.03,.03,1.51Z"/><polygon points="68.57 34.01 67.72 35.83 69.05 35.35 69.64 34.13 68.57 34.01"/><polygon points="95.15 18.89 94.66 17.56 93.13 16.08 93 17.14 94.7 19.05 95.15 18.89"/><polygon points="113.86 13.92 114.75 13.6 114.1 11.8 113.08 13.18 113.86 13.92"/><path d="M109.91,12.8l-1.05-.12,1.13,3.14c-.23-.99-.26-2.02-.08-3.02Z"/><polygon points="120.01 19.8 120.3 19.19 119.52 18.45 118.65 19.79 118.96 19.68 120.01 19.8"/><polygon points="117.74 26.15 117.46 26.77 118.68 27.33 119.25 26.12 117.74 26.15"/><path d="M122.53,9.04l.17,.14v-.17c1.24-.09,2.44-.37,3.58-.82l-1.38-1.03-2.12-.25-.08,2.06-.17,.06Z"/><polygon points="118.22 20.44 118.65 19.79 118.06 20 118.22 20.44"/><path d="M112.69,26.46c.07,.17,.18,.32,.31,.44,.13,.13,.29,.22,.46,.29l1.19-.93-1.98-1.62v.31c-.2,.49-.18,1.03,.03,1.51Z"/><polygon points="102.02 27.77 101.16 29.59 102.5 29.11 103.08 27.89 102.02 27.77"/><path d="M89.5,11.51l2.12,.26-.65-1.79-1.06-.12c-.96,1-1.56,2.28-1.72,3.65l2.04,2.82,.73-.77-1.46-4.05Z"/><polygon points="128.59 12.65 128.11 11.32 126.57 9.84 126.45 10.9 128.14 12.81 128.59 12.65"/><polygon points="133.01 44.3 132.71 45.2 134.53 45.79 134.07 44.13 133.01 44.3"/><polygon points="124.59 45.55 124.89 46.16 125.95 45.99 125.43 44.49 125.33 44.79 124.59 45.55"/><path d="M151.81,30.75c-.18-.04-.36-.05-.54-.03-.18,.03-.35,.09-.51,.18v1.51l2.5-.57-.24-.2c-.27-.45-.71-.77-1.22-.89Z"/><polygon points="129.33 26.45 128.42 24.66 127.98 26.01 128.58 27.22 129.33 26.45"/><path d="M127.54,18.04l-1.5,1.52,1.81,.59,.75-.77c-.2-1.37-.84-2.63-1.83-3.6l-3.47-.12,.16,1.05,4.09,1.33Z"/><polygon points="124.97 56.71 126.33 57.15 128.43 56.84 127.68 56.09 125.12 56.26 124.97 56.71"/></g></g></svg>