<?xml version="1.0" encoding="UTF-8"?><svg id="Layer_1" xmlns="http://www.w3.org/2000/svg" viewBox="0 0 169.3 131.14"><path d="M79.41,.6c-.05,.24-.18,.47-.06,.74,.08,.17-.02,.24-.26,.23-.34,0-.44,.06-.47,.33-.01,.13-.02,.26,0,.39,.02,.23,.13,.39,.37,.43,.52,.08,.98,.31,1.44,.54,.33,.16,.64,.37,.8,.7,.14,.29,.52,.39,.59,.68,.06,.27-.15,.53-.11,.83,.03,.28-.02,.55,.27,.75,.3,.21,.28,.57,.09,.83-.3,.41-.17,.84-.19,1.27,0,.03,0,.06,.01,.07,.42,.43,.3,.88,.05,1.34-.05,.1-.02,.2,.04,.29,.34,.58,.24,1.19,.07,1.79-.2,.69-.4,1.38-.34,2.12,.01,.13-.01,.27,.03,.38,.18,.48,.11,.97,.13,1.46,.01,.33,.06,.66,.08,.99,.05,.55-.01,1.13-.35,1.62-.22,.31-.51,.5-.92,.45-.2-.03-.43,.01-.61-.07-.3-.15-.55,.08-.83,.03-.25-.04-.42-.3-.71-.27-.74,.06-1.49-.11-2.23,.12-.12,.04-.27,.04-.38,0-.35-.14-.71-.1-1.07-.1-1.01,0-2.01,0-3.02,0-.44,0-.87,0-1.3,.11-.34,.09-.72,.06-1.08,.04-.73-.05-1.43,.15-2.14,.2-.94,.07-1.86,.38-2.8,.43-.05,0-.1,0-.15,.02-.51,.18-1.04,.25-1.58,.32-.66,.09-1.28,.36-1.91,.58-.73,.25-1.45,.5-2.17,.78-.43,.17-.84,.39-1.26,.56-.79,.32-1.49,.8-2.24,1.18-.73,.38-1.39,.88-2.06,1.36-1.12,.8-2.03,1.83-2.96,2.82-.84,.9-1.51,1.95-2.13,3.02-.63,1.09-1.26,2.18-1.86,3.29-.34,.63-.61,1.29-.92,1.93-.23,.49-.48,.96-.71,1.45-.19,.39-.42,.77-.53,1.2-.02,.07-.06,.15-.1,.21-.64,.94-.95,2.04-1.5,3.04-.58,1.06-1.04,2.18-1.79,3.14-.33,.82-.94,1.47-1.46,2.16-.6,.8-1.25,1.56-1.91,2.32-.88,1.02-1.86,1.93-2.78,2.9-.11,.11-.22,.22-.33,.33-.26,.23-.26,.24-.64,0-.15-.09-.29-.1-.42,0-.08,.06-.18,.12-.22,.21-.32,.58-.93,.88-1.36,1.34-.44,.47-.98,.83-1.49,1.22-.25,.19-.46,.39-.5,.75-.03,.37-.36,.56-.61,.77-.91,.75-1.91,1.38-2.86,2.08-.92,.67-1.88,1.26-2.82,1.88-.9,.59-1.78,1.22-2.68,1.81-1.22,.81-2.5,1.52-3.85,2.11-.63,.28-1.24,.43-1.92,.44-.59,0-1.16,.19-1.76,.16-.05,0-.1,.02-.15,.04-.94,.41-1.91,.3-2.87,.11-.45-.09-.9-.19-1.37-.18-.46,.01-.55-.08-.6-.52-.05-.36-.2-.69-.17-1.06,.01-.16-.08-.31-.23-.38-.33-.17-.37-.45-.37-.78,0-.41,.06-.82-.11-1.22-.07-.16,0-.3,.1-.43,.27-.37,.16-.79,.12-1.19-.02-.19-.23-.29-.41-.22-.12,.04-.24,.1-.35,.16-.18,.09-.35,.05-.51-.05-.23-.14-.28-.38-.11-.58,.07-.08,.17-.12,.23-.2,.05-.08,.1-.19,.09-.28-.04-.28-.11-.55-.17-.82-.02-.09-.18-.13-.26-.06-.25,.23-.49,.46-.73,.69-.13,.12-.24,.27-.42,.33-.1-.19-.07-.4-.07-.6,0-.72-.02-1.43-.02-2.15,0-.23,0-.46,.04-.69,.06-.33,.2-.63,.51-.82,.32-.2,.6-.48,.98-.58,0,.18,.02,.38-.13,.51-.42,.38-.43,.92-.57,1.4-.05,.17,.08,.28,.26,.28,.17,0,.3-.07,.41-.19,.28-.27,.55-.54,.83-.81,.57-.58,.51-.45,.16-1.17-.08-.17-.22-.28-.38-.38,.11-.19,.32-.26,.49-.36,2.28-1.25,4.57-2.5,6.86-3.74,2.27-1.23,4.52-2.48,6.67-3.9,2.82-1.86,5.3-4.09,7.53-6.61,1.35-1.53,2.69-3.06,3.98-4.63,1.56-1.89,3.03-3.85,4.46-5.84,3.05-4.25,5.84-8.69,8.51-13.18,.99-1.66,1.93-3.35,2.89-5.03,.63-1.1,1.32-2.15,2.1-3.15,.92-1.16,2.02-2.13,3.27-2.93,1.95-1.25,4.1-2.04,6.35-2.56,1.51-.35,3.04-.56,4.58-.68,3.04-.25,6.08-.15,9.12-.08,1.67,.04,3.34,.19,5.01,.29,.28,.02,.56,.05,.83,.15Z" fill="#610b0e"/><path d="M163.21,53.82c-.15,.04-.28,.1-.33,.28-.09,.35-.2,.69-.31,1.03-.04,.12-.08,.24-.14,.36-.27,.54-.46,.6-.96,.27-.24-.16-.48-.29-.74-.42-.39-.19-.75-.09-1.09,.14-.14,.1-.17,.26-.06,.4,.15,.18,.32,.34,.45,.52,.32,.44,.07,.74-.37,.83-.17,.04-.36,.01-.54,.02-.2,.01-.36,.1-.4,.3-.05,.2-.11,.46,.11,.56,.27,.12,.32,.3,.32,.55,0,.15,.04,.31,.09,.45,.15,.4,.26,.44,.67,.25,.07-.03,.14-.07,.21-.07,.07,0,.16,.04,.19,.09,.1,.19,.13,.44-.01,.58-.24,.24-.47,.58-.9,.43-.27-.09-.45,.04-.6,.23-.13,.16-.23,.34-.26,.55-.03,.21,.2,.41,.4,.33,.26-.1,.5-.24,.8-.25,.62,0,1.14,.41,1.24,1.02,.02,.15,.02,.31,.01,.46,0,.56-.31,.91-.87,.99-.2,.03-.41,.01-.62,.01-.31,0-.61-.01-.92,.1-.16,.06-.35,.05-.53,.06-.67,0-1.34,0-2.01,0-.41,.01-.76-.09-1.06-.37-.46-.42-.99-.63-1.62-.57-.26,.02-.51-.03-.74-.16-.18-.11-.38-.17-.59-.14-.39,.04-.63-.2-.83-.47-.17-.22-.31-.48-.47-.71-.16-.22-.32-.2-.46,.06-.04,.07-.06,.14-.09,.21-.15,.3-.32,.36-.61,.2-.16-.09-.3-.19-.45-.3-.18-.13-.16-.22,.05-.4,.16-.13,.37-.67,.31-.81-.03-.06-.1-.12-.17-.15-.27-.09-.54-.17-.81-.24-.18-.04-.3,.04-.33,.22,0,.05,0,.1-.03,.15-.14,.38-.42,.46-.7,.16-.21-.23-.39-.46-.74-.49-.13,0-.2-.15-.23-.29-.02-.1-.03-.21-.07-.3-.1-.2-.39-.3-.59-.17-.18,.11-.34,.24-.56,.13-.28-.14-.6-.27-.63-.62-.03-.35-.28-.53-.47-.77-.32-.39-.72-.5-1.17-.35-.23,.08-.4,.05-.55-.13-.19-.22-.42-.37-.71-.44-.39-.1-.65-.42-.95-.65-.53-.4-1.01-.87-1.51-1.31-.24-.21-.43-.41-.27-.79,.09-.2-.15-.53-.42-.56-.37-.05-.67-.26-1.02-.35-.36-.1-.64-.32-.89-.58-.41-.43-.84-.84-1.26-1.26-.27-.27-.58-.5-.6-.95,0-.21-.2-.38-.41-.42-.33-.07-.52-.32-.74-.53-.86-.82-1.58-1.75-2.37-2.63-.86-.96-1.59-2.02-2.44-2.98-.47-.53-.81-1.18-1.2-1.79-.26-.41-.5-.84-.77-1.25-.42-.62-.74-1.3-1.07-1.97-.42-.85-.72-1.75-1.26-2.54-.12-.52-.49-.89-.8-1.29-.41-.53-.7-1.14-.95-1.76-.08-.19-.18-.37-.29-.54-.45-.69-.89-1.38-1.33-2.08-.04-.06-.09-.13-.12-.2-.32-.96-1.1-1.59-1.69-2.36-.35-.47-.73-.93-1.12-1.37-.41-.45-.73-.99-1.25-1.34-.13-.08-.23-.2-.33-.32-.39-.45-.87-.81-1.34-1.16-.79-.57-1.58-1.15-2.42-1.65-.7-.42-1.4-.87-2.18-1.15-.24-.09-.46-.23-.7-.34-.14-.07-.28-.17-.42-.18-.58-.03-1.08-.33-1.6-.52-.14-.05-.29-.11-.44-.16-.91-.27-1.78-.67-2.73-.77-.1-.01-.2-.07-.29-.11-.34-.19-.72-.28-1.08-.4-.55-.19-1.09-.25-1.67-.24-1.86,.01-3.71,0-5.57,0-.18,0-.37,.02-.54-.03-.66-.18-1.32-.19-1.98,0-.21,.06-.41,.02-.6-.09-.28-.16-.58-.2-.89-.18-.31,.02-.62-.01-.91-.13-.51,.16-1.01-.09-1.52-.03-.87,.1-1.68-.14-2.48-.44-.7-.26-1.06-.79-.89-1.49,.16-.67,.14-1.31,.01-1.98-.1-.55-.12-1.14,.29-1.62,.09-.11,.1-.22,.05-.36-.09-.24-.16-.49-.24-.73-.18-.56-.28-1.1,.21-1.57,.15-.14,.12-.34,0-.49-.28-.34-.38-.72-.35-1.15,.02-.21-.01-.41-.1-.61-.05-.12-.05-.27,.04-.37,.18-.2,.12-.4,.11-.64-.05-.85-.28-1.68-.2-2.53,.01-.15-.01-.31,.02-.46,.04-.2,.09-.41,.19-.58,.12-.21,.37-.12,.57-.15,.24-.04,.32-.15,.24-.37-.1-.29-.15-.61-.35-.85-.19-.22-.23-.44-.11-.71,.06-.13-.06-.24-.1-.36,.25-.21,.56-.25,.86-.32,.78-.18,1.57-.26,2.37-.32,1.24-.1,2.47-.13,3.71-.06,1.8,.11,3.6,.24,5.4,.35,.93,.06,1.85,.14,2.78,.16,1.42,.02,2.84,.09,4.25,.21,2.16,.19,4.3,.51,6.33,1.34,1.52,.63,2.88,1.49,4.06,2.64,1.32,1.28,2.45,2.72,3.52,4.21,1.37,1.91,2.57,3.92,3.75,5.95,3.06,5.27,6.28,10.43,9.92,15.32,1.14,1.53,2.36,3,3.61,4.44,1.08,1.25,2.13,2.52,3.31,3.68,1.68,1.64,3.36,3.29,5.16,4.79,2.34,1.95,4.82,3.71,7.51,5.16,1.7,.92,3.47,1.7,5.2,2.57,1.13,.57,2.28,1.1,3.35,1.77,.52,.32,1.05,.65,1.4,1.19Z" fill="#610b0e"/><path d="M6.75,52.85c.15,.1,.29,.2,.38,.38,.35,.73,.41,.59-.16,1.17-.27,.28-.55,.54-.83,.81-.11,.11-.24,.18-.41,.19-.18,0-.31-.11-.26-.28,.14-.48,.15-1.02,.57-1.4,.15-.13,.13-.33,.13-.51l.57-.36Z" fill="#610b0e"/><path d="M44.63,72.12c-7.63,0-15.26,0-22.9,0-.67,0-1.34,.07-2-.13-.14-.04-.32-.02-.45,.03-.35,.13-.71,.1-1.07,.09-.31,0-.46-.13-.54-.44-.04-.15-.02-.31-.06-.46-.11-.4-.44-.52-.83-.32-.27,.14-.34,.13-.53-.07-.44-.47-.52-.71-.46-1.31,.02-.23,.23-.37,.44-.27,.14,.06,.26,.16,.38,.26,.12,.1,.26,.17,.42,.17,.75,0,1.49-.02,2.24-.03,.04,0,.09-.05,.11-.09,.02-.04,.01-.1-.01-.13-.05-.06-.11-.1-.18-.15-.22-.17-.34-.38-.31-.67,.04-.43-.04-.8-.37-1.13-.2-.2-.11-.5,.11-.68,.08-.06,.17-.11,.26-.16,1.03-.59,2.06-1.16,3.15-1.61,.17-.07,.36-.11,.49-.22,.87-.73,1.93-1.18,2.8-1.91,.39-.33,.86-.57,1.31-.81,.41-.22,.86-.36,1.34-.31,.28,.03,.5-.06,.69-.27,.47-.53,1.08-.85,1.7-1.17,.52-.27,1.01-.6,1.56-.83,.45-.19,.89-.39,1.34-.58,.12-.05,.25-.09,.37-.08,.32,.02,.58-.16,.74-.36,.42-.53,.99-.9,1.48-1.34,.51-.46,1.05-.91,1.57-1.35,.65-.55,1.36-1.01,2.02-1.53,.2-.16,.37-.36,.56-.53,.28-.26,.51-.58,.92-.67,.17-.04,.28-.22,.38-.37,.46-.75,1.09-1.36,1.62-2.05,.4-.52,.85-.87,1.5-.96,.19-.03,.36-.18,.54-.28,.29-.17,.61-.28,.95-.29,.26,0,.51-.08,.76-.1,1.21-.08,2.42-.12,3.62,.02,.1,.01,.2,.06,.3,.06,1.18,.04,2.33,.3,3.5,.45,.89,.12,1.77,.3,2.67,.35,.46,.03,.91,.16,1.37,.13,.31-.02,.61-.05,.91-.1,.55-.08,1.12-.21,1.64,.16,.15,.11,.35,.09,.53,.09,.59,0,1.17-.01,1.76,.13,.45,.11,.94,.02,1.35-.21,.58-.33,1.21-.3,1.81-.2,.54,.09,1.07,.11,1.61,.12,.29,0,.57,0,.8,.2,.15,.13,.34,.11,.52,.11,.41,0,.83-.01,1.24,0,.51,.02,.9,.37,.87,.88-.04,.86,.1,1.7,.21,2.53,.11,.83,.08,1.64,.11,2.46,.01,.26,0,.52-.14,.75-.17,.28-.17,.59-.17,.9,0,.44,0,.88,0,1.32,0,.28-.05,.56-.09,.84-.11,.74-.17,1.49,.1,2.21,.15,.4,.15,.79,.05,1.21-.11,.44-.18,.92,.16,1.33,.11,.13,.06,.29,.01,.44-.37,1.05-.28,2.12-.12,3.2,.02,.15,.03,.31,.05,.46,.04,.31,.12,.59,.32,.85,.18,.22,.15,.33-.02,.54-.19,.22-.42,.38-.68,.5-.23,.1-.39,.25-.4,.52,0,.23-.15,.36-.35,.47-.53,.29-1.08,.44-1.7,.44-7.97-.01-15.94,0-23.9,0h0Zm8.27-10.99s.15,0,.28-.02c.14-.02,.25-.09,.3-.21,.15-.38,.28-.75,.15-1.19-.17-.58-.54-.98-.94-1.38-.36-.36-.74-.57-1.27-.63-.52-.05-1.07-.16-1.45-.6-.14-.16-.33-.17-.49-.14-.5,.11-1.02,.1-1.52,.2-.39,.08-.76,.12-1.15,.1-.66-.04-1.28,.06-1.84,.43-.06,.04-.14,.07-.21,.1-.33,.15-.64,.14-.94-.1-.16-.13-.34-.24-.51-.34-.17-.1-.35-.12-.51,0-.21,.17-.28,.48-.13,.69,.18,.25,.31,.54,.55,.74,.24,.2,.41,.46,.57,.72,.15,.25,.11,.41-.12,.58-.16,.11-.33,.12-.52,.12-.18,0-.36-.03-.53,.07-.12,.07-.2,.17-.2,.31,0,.11,.07,.18,.17,.23,.39,.2,.8,.17,1.21,.17,.25,0,.43-.08,.6-.27,.26-.28,.64-.16,.76,.21,.07,.22,.12,.45,.19,.67,.06,.19,.24,.31,.33,.24,.12-.1,.1-.23,.05-.35-.13-.3-.1-.61-.06-.91,.01-.11,.1-.17,.22-.17,.09,0,.14,.05,.17,.13,.06,.17,.04,.36,.18,.5,.29,.29,.58,.58,.87,.87,.16,.16,.37,.17,.58,.15,.14-.02,.25-.09,.2-.25-.05-.17-.04-.3,.16-.36,.14-.05,.21-.15,.21-.29,0-.15,.02-.31,0-.46-.03-.32,.13-.47,.42-.54,.55-.12,.98-.43,1.34-.85,.15-.18,.34-.32,.56-.4,.57-.19,.99-.08,1.25,.41,.22,.4,.26,.88,.56,1.25,.03,.04,0,.15-.01,.22-.02,.33,0,.35,.3,.36,.03,0,.05,0,.18,0Zm-7.28-9.76h0c-.15,.01-.31,0-.46,.02-.26,.02-.42,.18-.53,.39-.08,.14,.02,.34,.18,.35,.15,0,.32,.03,.46-.03,.3-.12,.61-.1,.91-.1,.33,0,.67,.02,.99-.11,.11-.05,.28-.06,.37,0,.59,.36,1.27,.36,1.91,.5,.65,.14,1.3,.27,1.94,.47,.12,.04,.25,.08,.38,.07,.52-.06,1.02,.12,1.52,.19,.58,.08,1.16,.27,1.66,.6,.51,.34,1,.74,1.09,1.42,.01,.1,.05,.21,.19,.2,.11-.01,.18-.09,.22-.19,.06-.14,.11-.29,.15-.44,.11-.35,.05-.66-.24-.91-.3-.25-.61-.48-.89-.74-.2-.19-.41-.31-.68-.29-.25,.02-.45-.06-.63-.24-.23-.22-.5-.4-.82-.37-.48,.05-.92-.09-1.37-.19-.49-.11-.97-.14-1.45-.13-.52,.02-1.03-.03-1.48-.32-.18-.12-.37-.17-.59-.12-.79,.2-1.57,.19-2.36,0-.15-.04-.31-.02-.46-.03Zm-2.15,.78c-.34-.07-.64,.07-.9,.37-.29,.33-.61,.62-.92,.93-.13,.13-.26,.25-.31,.43-.14,.49-.28,.98-.41,1.48,0,.03,.03,.1,.07,.11,.04,.01,.11,0,.13-.04,.25-.41,.45-.86,.78-1.23,.03-.03,.03-.1,.04-.15,.08-.38,.34-.61,.66-.81,.28-.18,.58-.33,.89-.46,.12-.05,.24-.09,.35-.15,.16-.1,.25-.29,.19-.38-.09-.13-.22-.1-.35-.11-.05,0-.1,0-.21,0Z" fill="#610b0e"/><path d="M143.18,99.81c-2.17,0-4.33,0-6.5,0-.36,0-.72,0-1.07-.09-.27-.07-.56-.04-.85-.04-6.01-.01-12.02-.02-18.03-.03-.36,0-.72,0-1.07-.09-.24-.06-.51-.04-.77-.04-3.66,0-7.33-.03-10.99,0-.96,0-1.9-.16-2.85-.14-.54,.01-1.08-.01-1.62-.01-.27,0-.51-.04-.7-.25-.09-.1-.21-.22-.33-.16-.37,.17-.44-.11-.56-.33-.25-.46-.2-.95-.12-1.44,.05-.28,.19-.52,.52-.61,.37-.09,.54-.47,.85-.65,.09-.05,.1-.18,.02-.27-.54-.63-.4-1.36-.3-2.07,.04-.31,.09-.61,.1-.92,0-.41-.02-.82,.12-1.22,.06-.16,.03-.36,.03-.54,0-.67,.03-1.34,0-2.01-.03-.53,.13-1.02,.18-1.53,.02-.16,.12-.28,.23-.39,.17-.19,.41-.36,.5-.58,.23-.58,.73-.73,1.24-.78,.75-.06,1.38-.35,1.99-.77,.36-.25,.74-.46,1.12-.69,.04-.03,.09-.07,.13-.07,.64-.07,1.14-.42,1.67-.75,.25-.16,.57-.23,.87-.3,.53-.13,1.03-.31,1.53-.51,.59-.25,1.2-.46,1.77-.76,.53-.28,1.11-.39,1.69-.51,.38-.07,.75-.16,1.13-.21,.5-.07,.84-.54,1.34-.55,.51,0,.96-.17,1.42-.33,.51-.18,.99-.41,1.53-.52,.25-.05,.5-.12,.76-.1,.47,.03,.92-.07,1.36-.24,.29-.11,.58-.2,.88-.29,.52-.16,1.04-.28,1.59-.25,.36,.02,.71-.04,1.07-.1,.47-.09,.97-.03,1.46-.03,.07,0,.16,.03,.22,.07,.47,.35,.97,.26,1.48,.13,1.11-.29,2.23-.3,3.36-.09,.28,.05,.57,.03,.85,.03,.44,0,.87,0,1.29,.15,.6,.22,1.22,.16,1.84,.15,.32,0,.62,.02,.89,.2,.1,.07,.2,.16,.28,.26,.19,.24,.12,.58-.13,.74-.2,.13-.41,.21-.65,.2-.28,0-.57,.01-.85,0-.42-.02-.83,.01-1.21,.19-.35,.15-.71,.12-1.07,.12-.34,0-.67-.01-.97,.17-.21,.13-.44,.14-.67,.13-.93-.02-1.83,.15-2.75,.28-1.02,.14-2.02,.35-3.01,.61-1.07,.28-2.12,.64-3.14,1.07-.97,.41-1.91,.9-2.87,1.34-.29,.13-.52,.33-.74,.55-.49,.49-.99,.98-1.47,1.47-.2,.21-.41,.29-.69,.16-.14-.07-.25,.01-.33,.12-.08,.11-.1,.25-.02,.36,.07,.11,.16,.2,.26,.28,.05,.04,.17,.05,.21,.02,.28-.26,.68-.34,.93-.66,.25-.32,.57-.59,.87-.88,.47-.47,1-.8,1.68-.85,.15-.01,.3-.07,.44-.13,1.27-.62,2.59-1.13,3.91-1.65,.36-.14,.69-.34,1.04-.51,.47-.23,.96-.37,1.49-.34,.88,.05,1.73-.14,2.6-.26,.68-.09,1.36-.26,2.07-.21,.26,.02,.51-.03,.76-.08,.58-.12,1.18-.12,1.76,0,.34,.08,.65,.1,.99,0,.53-.15,1.08-.11,1.61-.04,.33,.05,.68,.22,.99,.38,.29,.16,.57,.2,.88,.2,1.03,0,2.06,0,3.1,0,.31,0,.61,0,.92,.1,.19,.06,.41,.05,.61,.06,.64,.02,1.29-.07,1.92,.15,.09,.03,.21,.02,.31,.01,.47-.03,.92,.03,1.36,.21,.14,.06,.3,.1,.45,.1,.52,0,.95,.24,1.31,.57,.22,.19,.43,.35,.71,.43,.25,.07,.47,.22,.6,.46,.15,.26,.02,.53-.28,.55-.23,.02-.46,.03-.68,.12-.11,.04-.27,.05-.38,.01-.43-.17-.87-.1-1.3-.11-.36,0-.72,0-1.08,0-1.76,0-1.75-.06-3.51-.38-1.5-.27-2.92-.78-4.41-1.08-.26-.05-.5-.09-.76-.09-.98,0-1.96,0-2.94,0-.13,0-.27-.03-.39,.01-.68,.21-1.38,.13-2.07,.14-.59,0-1.17,.13-1.76,.21-.53,.07-1.07,.1-1.59,.24-.3,.08-.6,.14-.85,.33-.13,.1-.27,.16-.43,.15-.25-.02-.44,.1-.62,.27-.11,.1-.25,.18-.38,.26-.11,.07-.21,.17-.33,.18-.16,.02-.15-.17-.23-.26-.23-.25-.78-.16-.83,.15-.13,.85-.75,1.39-1.21,2.03-.45,.61-.79,1.26-1.09,1.95-.01,.03,.01,.11,.04,.13,.06,.05,.15,.04,.2-.02,.05-.06,.1-.12,.13-.19,.41-1.06,1.15-1.88,1.97-2.63,.3-.27,.69-.45,1.06-.62,.35-.16,.74-.22,1.02-.52,.13-.14,.34-.13,.51-.11,.61,.05,1.17-.12,1.7-.41,.28-.15,.57-.23,.89-.21,.28,.02,.57,0,.85,0,.29,0,.56-.01,.83-.13,.39-.17,.79-.2,1.21-.19,.54,.01,1.08,.01,1.62,0,.93-.03,1.84,.11,2.75,.28,.55,.1,1.12,.14,1.68,.19,.44,.04,.87,.13,1.26,.31,.5,.23,1.02,.35,1.57,.31,.75-.06,1.48,.12,2.21,.25,.5,.09,1.01,.14,1.52,.22,.13,.02,.26,.02,.38,.06,.38,.12,.76,.13,1.14,0,.35-.11,.72-.09,1.07-.06,.41,.04,.8,.18,1.09,.52,.18,.21,.39,.42,.61,.59,.2,.15,.32,.31,.35,.56,.02,.18,.1,.36,.27,.45,.31,.18,.44,.47,.57,.79,.18,.45,.43,.88,.65,1.32,.25,.51,.47,1.01,.59,1.58,.15,.69,.24,1.36,.24,2.06,0,.72-.07,1.44,.12,2.15,.07,.27,.03,.57,.02,.85-.01,.47,.14,.85,.53,1.14,.29,.22,.34,.5,.17,.8-.13,.22-.28,.43-.44,.63-.36,.44-.78,.66-1.39,.64-2.19-.04-4.38-.02-6.58-.02v-.02Zm-12.22-12.98c-.08,0-.28,0-.49,.03-.24,.04-.43,.21-.36,.31,.11,.16,.27,.11,.42,.11,.95,.03,1.9-.09,2.84,.15,.07,.02,.15,.01,.23,0,.3-.03,.56,.05,.79,.24,.1,.08,.22,.14,.34,.17,.35,.09,.76,.08,1.03,.27,.38,.26,.71,.17,1.09,.11,.12-.02,.24,.06,.37,.1,.77,.22,1.48,.57,2.16,.97,.14,.08,.27,.15,.43,.14,.14,0,.23-.13,.18-.26-.17-.46-.55-.67-.97-.79-.23-.06-.46-.11-.64-.26-.36-.3-.76-.42-1.21-.39-.1,0-.21-.02-.3-.05-.97-.34-1.98-.51-2.98-.74-.25-.06-.48-.1-.75-.02-.4,.11-.82,.11-1.22-.01-.28-.08-.56-.09-.97-.09Z" fill="#610b0e"/><path d="M75.3,58.98c-.17,.2,.01,.56-.27,.54-.21-.01-.08-.32-.15-.47-.16-.38-.13-.78-.13-1.17,0-1.38,0-2.75,0-4.13,0-.13,0-.26,0-.4,0-.49,.16-.85,.61-1.09,.61-.33,.78-.88,.53-1.53-.06-.15-.13-.29-.2-.43-.22-.45-.23-.91-.04-1.38,.05-.12,.13-.24,.15-.36,.1-.65,.04-.84-.56-.98-.15-.03-.3-.08-.44-.14-.21-.08-.33-.23-.35-.47-.06-.52-.25-1.02-.03-1.55,.08-.2,.02-.47,.02-.71,0-3.89,0-7.78,0-11.67,0-.34-.05-.69,.07-1.02,.06-.16-.03-.31-.05-.46-.04-.53-.08-1.04,.16-1.55,.15-.32,.24-.71,.24-1.07,.02-.79,.24-1.56,.19-2.36-.04-.6-.07-1.21,.13-1.81,.05-.14,.01-.32,.02-.47,0-.32,.02-.63,.1-.94,.11-.41,.13-.85,0-1.25-.17-.51-.03-.94,.18-1.37,.08-.17,.2-.31,.19-.51-.02-.29,.15-.43,.37-.54,.44-.22,.9-.38,1.41-.36,.36,.02,.72,0,1.08,0,.87,.02,1.73,.19,2.59,.33,.07,.01,.16,.04,.2,.09,.33,.37,.68,.73,.97,1.13,.41,.57,.52,1.25,.45,1.94-.02,.21-.06,.4,0,.62,.04,.14,.05,.33,0,.47-.16,.46-.11,.94-.12,1.41,0,1.59,0,3.18,0,4.76,0,.37-.04,.74,.11,1.1,.07,.17,.03,.36-.04,.54-.1,.25-.07,.52-.06,.78,0,.1,.03,.24,.09,.29,.54,.44,.46,1.1,.48,1.67,.06,1.64,.02,3.28,.03,4.92,0,.59-.18,1.08-.62,1.47-.33,.3-.63,.62-.93,.95-.28,.3-.3,.66-.12,1.02,.04,.09,.11,.17,.19,.24,.1,.1,.35,.04,.34,.26,0,.12-.12,.22-.18,.34-.06,.12-.12,.23-.17,.36-.1,.28,.09,.52,.39,.52,.15,0,.3-.16,.43,0,.15,.16,.2,.36,.2,.58,0,.34-.05,.7,.02,1.03,.12,.56-.03,1.1-.02,1.64,0,.13,0,.29-.07,.38-.28,.37-.16,.77-.05,1.13,.1,.34,.07,.68,.13,1.01,.27,1.44,.09,2.9,.14,4.35,.01,.32,0,.63-.09,.94-.07,.27-.05,.58-.06,.87-.02,.55,.02,1.1-.12,1.65-.1,.37-.09,.8,0,1.18,.11,.47,.1,.94,.11,1.42,.01,.45,.02,.89,.11,1.34,.09,.48,.1,1.01,0,1.5-.11,.55-.1,1.1-.11,1.65-.01,.37,.02,.74-.11,1.1-.06,.17-.04,.37-.04,.55,0,.34,0,.69,0,1.03,0,.28-.04,.52-.32,.66-.26,.13-.29,.33-.18,.6,.07,.17,.07,.36,.13,.54,.07,.19,.05,.36-.08,.52-.18,.21-.16,.42-.06,.66,.2,.44,.22,.92,.21,1.4-.01,.42,0,.85,0,1.27,0,.16-.03,.33,.02,.47,.2,.62,.14,1.26,.13,1.89-.01,.51,.2,.98,.19,1.49,.43,.52,.27,1.15,.27,1.74,0,2.94,0,5.88,0,8.81,0,.29-.02,.57-.08,.86-.07,.3-.06,.63-.06,.94,0,4.87,0,9.74,0,14.61,0,.71-.02,1.43,0,2.14,0,.63-.04,1.27,.13,1.89,.07,.25,.02,.53,.02,.79,0,4,0,7.99,.01,11.99,0,.47-.05,.95,.12,1.41,.04,.12,.03,.26,.03,.39,0,1.01,0,2.01,0,3.02,0,.13,.01,.28-.04,.39-.13,.31-.13,.61,0,.92,.03,.07,.03,.16,.03,.23,0,.48,.06,.96-.02,1.43-.08,.47,.05,.93-.11,1.4-.13,.39-.22,.55-.59,.59-.15,.02-.31,0-.46,0-.23,0-.46,.03-.69,.09-.51,.13-1.02,.13-1.52-.06-.27-.1-.53-.18-.82-.04-.09,.04-.21,.04-.3,0-.71-.23-1.43-.11-2.15-.14-.13,0-.26,0-.39,0-.58-.05-.84-.3-1-.9-.08-.28-.16-.56-.14-.85,.02-.25-.08-.47-.16-.69-.17-.46-.16-.91-.08-1.4,.11-.65,.25-1.29,.24-1.95-.02-.87,.12-1.73,.27-2.58,.03-.18,.03-.37,.04-.55,.01-.23-.05-.42-.24-.55-.31-.22-.38-.54-.38-.9,0-1.38,0-2.75,0-4.13,0-.24,.04-.47,.14-.69,.24-.54,.33-1.1,.32-1.69,0-.74,0-1.48,0-2.22,0-.53,.02-1.04,.11-1.57,.09-.52,.09-1.06-.18-1.61-.34-.69-.32-1.48-.18-2.25,0-.05,.04-.1,.05-.15,.05-1.29,.13-2.59-.04-3.88-.05-.42-.11-.84,.01-1.25,.08-.26,.08-.52,.07-.78-.02-.45,.02-.9,.16-1.33,.16-.46,.07-.95,.19-1.4,.14-.53,.09-1.05,.11-1.57,0-.16,0-.33-.09-.46-.3-.4-.26-.84-.14-1.28,.05-.21,.07-.41,.07-.63,.01-.58-.04-1.16,.14-1.73,.05-.17,.02-.37,.02-.55,0-.42,.05-.84,.11-1.26,.09-.62,.13-1.26-.04-1.89-.05-.18-.08-.36-.02-.54,.22-.65,.22-1.35,.35-2.02,.03-.16-.03-.25-.17-.3-.18-.07-.22-.21-.21-.38,.04-.84-.11-1.69,.12-2.53,.05-.17,.02-.37,.03-.55,0-.79,0-1.59,0-2.38,0-.45-.03-.89,.12-1.34,.06-.19,.03-.42,.03-.63,0-1.96,0-3.92,0-5.88,0-.29-.01-.57-.09-.86-.06-.22-.05-.47-.06-.71,0-1.01,0-2.01,0-3.02,0-.32,.04-.64-.07-.94-.02-.07-.04-.16-.03-.23,.22-1.95,.05-3.91,.1-5.86,0-.33-.07-.62-.23-.93Z" fill="#610b0e"/><path d="M141.33,72.23c-.67,0-1.34,0-2.01,0-.49,0-.98,.03-1.46-.1-.19-.05-.41-.02-.62-.02-1.88,0-3.77,0-5.65-.02-.62,0-1.23,.04-1.85-.11-.22-.05-.46-.02-.69-.02-2.66,0-5.31-.01-7.97-.02-.44,0-.87,.02-1.31-.1-.22-.06-.46-.03-.69-.03-2.91-.01-5.83-.03-8.74-.04-.41,0-.82,.01-1.23-.1-.22-.06-.46-.03-.69-.03-1.75-.01-3.51-.03-5.26-.02-.88,0-1.73-.2-2.58-.39-.35-.08-.69-.19-1.05-.25-.42-.07-.85-.19-1.2-.49-.16-.14-.33-.24-.55-.26-.28-.02-.41-.2-.41-.47,0-.44-.06-.88,.05-1.31,.05-.21,.14-.27,.44-.28,.11,0,.2-.01,.26-.11,.24-.33,.5-.66,.47-1.11-.02-.32,.11-.61,.23-.89,.28-.62,.39-1.27,.38-1.95-.02-1.26,0-2.53,0-3.79,0-.59,.11-1.13,.46-1.6,.13-.19,.19-.36,.08-.57-.13-.25,0-.43,.16-.62,.42-.46,.99-.54,1.55-.6,.72-.08,1.44-.03,2.13,.24,.46,.18,.94,.24,1.44,.22,.39-.02,.77,0,1.16,0,.62-.02,1.21-.2,1.78-.45,.06-.03,.11-.1,.13-.16,.03-.09-.06-.13-.12-.17-.18-.12-.38-.14-.59-.14-1.73,0-3.46,0-5.18,0-.75,.22-1.54,.06-2.29,.26-.23,.06-.41-.02-.55-.19-.32-.39-.42-.81-.18-1.29,.15-.29,.29-.49,.68-.51,.77-.04,1.51-.29,2.24-.52,.54-.17,1.01,.09,1.51,.15,.15,.02,.28,.22,.41,.34,.35,.31,.74,.46,1.21,.29,.02,0,.05-.02,.07-.02,.87-.07,1.74-.2,2.61-.18,.71,.01,1.43,.16,2.12,.32,.74,.18,1.49,.08,2.23,.1,.54-.24,1.06,0,1.58,.09,.52,.08,1.01,.13,1.52-.02,.17-.05,.36-.05,.53-.05,1.08,0,2.17,0,3.25,0,.15,0,.32-.02,.46,.03,.43,.17,.86,.13,1.3,.12,.78-.02,1.54,.02,2.26,.37,.08,.04,.2,.05,.3,.03,.92-.18,1.86-.15,2.77-.05,.88,.1,1.74,.1,2.62,.12,.31,0,.62,.02,.9,.16,.46,.23,.9,.15,1.34-.03,.14-.06,.28-.12,.42-.19,.17-.08,.35-.12,.52-.05,.4,.16,.81,.1,1.22,.11,.26,0,.49,.06,.73,.18,.41,.19,.87,.33,1.31,.42,.48,.1,.82,.42,1.22,.63,.25,.13,.28,.43,.35,.67,.08,.28,.24,.43,.51,.5,.42,.11,.84,.25,1.25,.37,.15,.04,.29,.09,.4,.21,.91,.95,1.81,1.56,2.95,2.02,.12,.05,.23,.11,.35,.17q.48,.25,.37,.83c-.07,.35-.02,.42,.38,.5,.71,.14,1.38,.38,1.94,.88,.27,.24,.57,.43,.84,.68,.55,.5,1.24,.73,1.94,.9,.4,.1,.78,.25,1.18,.36,.25,.07,.48,.19,.66,.39,.02,.02,.03,.04,.06,.05,.6,.39,1.04,.87,1.1,1.66,.02,.31,.24,.61,.26,.96,0,.11,.12,.22,.18,.33,.16,.29,.33,.58,.41,.91,.08,.3,.11,.32,.42,.33,.39,.02,.77,.01,1.16,.03,.18,0,.26,.15,.22,.33-.19,.86-.71,1.4-1.53,1.68-.54,.18-1.08,.29-1.66,.28-1.47-.02-2.94,0-4.41,0-.51,0-1.02,0-1.54,.1-.37,.08-.77,.02-1.16,.03-.62,0-1.24,0-1.86,0h0Z" fill="#610b0e"/><path d="M49.72,84.82c-.67,0-1.34,.02-2.01,0-1.27-.05-2.5,.25-3.72,.54-.25,.06-.5,.15-.72,.28-.6,.35-1.29,.51-1.84,.96-.15,.12-.38,.15-.57,.22-.63,.22-1.27,.43-1.89,.68-.31,.12-.58,.33-.87,.5-.14,.09-.19,.24-.26,.38-.08,.18,0,.31,.19,.32,.34,.02,.67,.02,.98-.15,.77-.44,1.64-.6,2.49-.77,.13-.03,.27-.01,.38-.07,.51-.28,1.05-.36,1.61-.45,.52-.08,1.02-.07,1.53-.1,.36-.02,.71-.05,1.07-.11,.86-.15,1.7-.36,2.59-.37,.51,0,1.01-.18,1.52-.23,.87-.09,1.72-.28,2.6-.22,.23,.02,.39,.07,.46,.32,.07,.23,.27,.3,.49,.29,.05,0,.11,.01,.15,0,.94-.2,1.89,.03,2.83,0,1.06-.03,2.1-.13,3.12-.39,.36-.09,.7-.11,1.06,.03,.26,.1,.54,.16,.81,.26,.25,.09,.5,.1,.76,.02,.1-.03,.2-.08,.3-.08,1.21,.05,2.41-.28,3.62-.16,.69,.07,1.37,.21,2.04,.34,.23,.05,.45,.1,.68,.12,.44,.04,.78,.34,.83,.77,.06,.43,.21,.85,.17,1.3-.02,.17,.05,.36,.11,.52,.22,.53,.25,1.05-.1,1.54-.03,.04-.04,.09-.07,.14-.12,.22-.13,.44-.04,.67,.1,.27,.17,.54,.27,.81,.08,.22,.1,.45,.13,.68,.15,1.02,.16,2.04,.31,3.06,.05,.36,.15,.72,.37,1.01,.24,.29,.25,.62,.22,.95-.03,.36-.17,.7-.34,1.02-.13,.24-.34,.39-.59,.47-.32,.11-.64,.19-.96,.27-.67,.18-1.35,.27-2.05,.27-1.26-.01-2.53,0-3.79-.01-.54,0-1.08,.03-1.61-.11-.22-.06-.46-.02-.69-.02-3.33,0-6.66-.02-9.98-.03-.39,0-.77,.01-1.15-.1-.24-.07-.51-.04-.77-.04-5.44,0-10.89,0-16.33-.01-.83,0-1.65,0-2.48,0-.26,0-.51-.02-.77-.07-.27-.06-.56-.06-.84-.06-2.5,0-5-.02-7.51,0-.6,0-1.17-.15-1.76-.18-.39-.02-.94-.72-.98-1.19-.04-.61-.15-1.21,.09-1.82,.11-.28,.14-.6,.19-.9,.04-.26,0-.51-.07-.76-.3-1.06-.28-2.12-.1-3.21,.1-.58,.22-1.16,.21-1.76-.02-.84,.43-1.41,1.25-1.62,.6-.15,1.18-.36,1.75-.59,.93-.37,1.9-.61,2.87-.84,.17-.04,.34-.11,.51-.17,.36-.15,.72-.25,1.11-.3,.45-.06,.9-.21,1.34-.33,.15-.04,.29-.14,.45-.09,.55,.18,1.06-.03,1.56-.2,.46-.16,.95-.31,1.42-.28,1.21,.08,2.35-.25,3.49-.52,.5-.12,1.03-.06,1.51-.25,.18-.07,.34,.07,.49,.17,.28,.19,.56,.16,.76-.1,.25-.31,.58-.41,.94-.47,.18-.03,.36-.05,.52-.12,.58-.25,1.19-.32,1.81-.27,.29,.02,.56-.03,.82-.17,.3-.17,.58-.19,.86,.05,.18,.16,.39,.15,.55-.03,.25-.27,.56-.33,.91-.32,.46,.02,.92,.02,1.38,.11,.52,.11,1.08,.11,1.6-.11,.17-.07,.34-.11,.51-.17,.3-.12,.58-.15,.9-.04,.34,.12,.71,.09,1.06-.05,.54-.21,1.08-.27,1.66-.09,.31,.09,.67,.05,1,.04,.67-.02,1.34,.09,2-.13,.19-.06,.4,0,.6,.08,.39,.15,.78,.24,1.21,.22,.15,0,.31,.03,.45,.08,.23,.07,.45,.06,.69,.02,1.03-.19,2.05-.19,3.05,.14,.7,.24,1.39,.21,2.12,.11,.77-.11,1.58-.2,2.35,.17,.35,.17,.77,.14,1.14,.03,.98-.3,1.98-.25,2.99-.24,.35,0,.63,.21,.75,.54,.04,.1,0,.2-.08,.28-.23,.29-.58,.34-.9,.4-.25,.05-.53,.06-.77,0-.51-.16-1.02-.11-1.53-.12-.46,0-.93,0-1.39,0-.38,0-.77,.02-1.15-.11-.21-.07-.46-.04-.69-.04-1.52,0-3.04,0-4.57,0-.21,0-.42,.03-.62-.03-.38-.11-.75-.18-1.13-.04-.13,.05-.25-.02-.38-.04-.56-.05-1.13-.12-1.68,.06-.23,.07-.46,.07-.68-.02-.22-.09-.46-.12-.68-.04-.33,.13-.66,.11-.99,.11-.83,0-1.65,0-2.48,0Z" fill="#610b0e"/><path d="M94.48,91.72c-.05,.12-.16,.13-.25,.17-.19,.08-.27,.24-.28,.44,0,.27-.01,.54,0,.8,.01,.33-.02,.64-.28,.88-.21,.19-.22,.41-.04,.64,.1,.13,.21,.29,.15,.44-.24,.61,.11,1.21,.01,1.81,.25,.97,.06,1.98,.19,2.95,.11,.86,.03,1.72,.15,2.56,.14,.96,.09,1.92,.12,2.88,0,.4,.03,.8-.11,1.19-.08,.22-.06,.48,0,.72,.16,.61,.11,1.2,.01,1.82-.09,.58-.05,1.17-.06,1.76,0,.29,.03,.59-.18,.84-.07,.08-.09,.21,0,.29,.16,.15,.13,.31,.08,.51-.09,.35,.01,.75-.27,1.06-.12,.13-.05,.3,.09,.42,.17,.15,.15,.32,.04,.5-.04,.07-.09,.13-.14,.2-.46,.67-.34,1.34-.02,2.02,.17,.36,.31,.73,.47,1.1,.06,.13,.06,.25,.03,.39-.12,.5-.12,1,.02,1.5,.05,.18,.05,.37,.06,.56,.01,.29-.03,.59,.1,.87,.03,.07,.05,.17,.03,.23-.22,.65,.05,1.26,.13,1.88,.05,.4,.09,.8-.02,1.19-.27,1-.54,2-.81,3.01-.1,.36-.23,.71-.28,1.08-.06,.42-.25,.74-.54,1.02-.25,.23-.5,.46-.66,.78-.07,.15-.22,.22-.36,.29-.28,.14-.55,.29-.83,.43-.19,.1-.38,.15-.59,.17-.56,.04-1.03-.07-1.44-.55-.67-.78-.7-.75-1.08-1.72-.1-.26-.15-.51-.15-.78,0-.51,0-1.02,0-1.53,0-.13-.02-.28,.01-.4,.24-.84,.12-1.7,.14-2.56,.01-.67,0-1.34,0-2.01,0-.54-.07-1.06-.34-1.54-.17-.31-.14-.62,0-.92,.17-.35,.14-.69,.12-1.08-.04-.52-.1-1.05-.09-1.57,0-.86,0-1.72,0-2.57,0-.27,0-.53,.18-.76,.18-.23,.12-.51,.13-.77,.02-.88,.15-1.75,.27-2.62,.06-.45,.07-.9-.05-1.35-.11-.43-.26-.87-.23-1.34,.01-.14-.02-.27-.14-.36-.21-.15-.31-.33-.32-.6,0-.31,.05-.58,.22-.84,.03-.04,.06-.09,.1-.13,.27-.23,.32-.53,.3-.87-.01-.24,0-.48,.09-.71,.12-.31,.03-.64,.07-.96,.05-.42,.16-.82,0-1.25-.07-.2,.03-.42,.13-.61,.15-.27,.17-.55,.16-.85,0-.72,0-1.45,0-2.17,0-.13,.03-.28-.01-.4-.23-.71-.12-1.43-.14-2.15-.01-.54,0-1.07,0-1.61,0-.63-.05-1.26-.13-1.89-.03-.26-.02-.54-.02-.8,0-.35-.01-.69-.1-1.03-.1-.41-.09-.85,0-1.27,.07-.34,.15-.67,.22-1.01,.02-.1,.04-.22,.02-.32-.19-.95,.07-1.9,.02-2.86-.05-.94-.01-1.88-.01-2.82s0-1.93,0-2.9c0-.29,0-.58-.1-.87-.06-.2-.05-.42-.05-.64,0-.43,0-.86,0-1.29,0-.8-.14-1.59-.26-2.38-.03-.19-.05-.37,0-.55,.04-.13,.11-.27,.08-.39-.18-.69,.12-1.31,.21-1.96,.04-.26,.12-.52,.2-.77,.05-.16,.09-.32,.03-.47-.17-.41-.11-.84-.12-1.27,0-1.21,0-2.41,0-3.62,0-.48-.03-.96,.13-1.43,.08-.24-.02-.34-.32-.34-.16,0-.22-.06-.26-.21-.22-.87-.16-1.75-.16-2.63,0-.16,0-.33,.1-.46,.22-.27,.21-.59,.21-.91,0-.38,0-.75,0-1.13,0-.32,0-.63,.1-.95,.07-.28,.03-.58,.06-.88,.03-.32,.1-.63,.14-.95,.04-.34-.29-.55-.32-.89-.04-.34-.16-.67-.14-1.03,.02-.38-.12-.74-.21-1.1-.13-.46-.15-.91-.05-1.35,.21-.97,.3-1.95,.27-2.94-.01-.43,0-.85,.21-1.25,.07-.13,.09-.31,.09-.47,0-.97,0-1.93,0-2.9,0-.33-.07-.58-.41-.68-.18-.05-.23-.22-.21-.39,.08-.65-.19-1.26-.17-1.91,.03-.62,0-1.23,0-1.85,0-.27-.02-.53,.06-.8,.03-.1,.05-.22,.02-.31-.13-.39-.08-.8-.08-1.2,0-1.77,0-3.54,0-5.31,0-.43-.02-.85,.22-1.24,.16-.27,.12-.57,0-.85-.11-.29-.06-.51,.2-.69,.14-.09,.18-.25,.08-.42-.06-.09-.11-.18-.17-.27-.45-.64-.4-1.35-.28-2.06,.14-.85,.15-1.7-.01-2.55-.08-.4-.04-.8-.04-1.2,0-.3,.17-.51,.42-.62,.29-.12,.58-.21,.9-.21,1.21,.01,2.42,0,3.64,0,.49,0,.95,.2,1.45,.19,.31,0,.48,.35,.37,.65-.03,.07-.07,.15-.12,.2-.47,.47-.36,1.03-.21,1.57,.12,.44,.25,.87,.21,1.34-.02,.21-.02,.43-.1,.63-.06,.15-.06,.31-.02,.47,.18,.71,.14,1.42,.01,2.14-.08,.42-.04,.85-.05,1.28,0,.29,.02,.59-.19,.84-.05,.06-.09,.14-.1,.21-.05,.85-.26,1.69-.17,2.55,.02,.2,.11,.24,.31,.23,.57-.01,.74,.18,.76,.74,.03,.61-.06,1.23,.14,1.83,.03,.1,.03,.22,0,.32-.23,.73-.13,1.49-.13,2.23,0,.7-.02,1.39-.24,2.06-.03,.1-.05,.21-.05,.31,0,.15,.06,.25,.21,.29,.2,.04,.42-.01,.57,.18,.17,.21,.11,.46,.12,.69,0,.16,.03,.33-.01,.48-.22,.68-.13,1.38-.14,2.07-.01,.43,0,.86,0,1.29,0,.16-.03,.33,.01,.48,.23,.74,.13,1.49,.14,2.23,.01,1.56,0,3.11,0,4.67,0,.29,0,.58,.09,.87,.06,.2,.06,.42,.06,.63,0,1.07,0,2.15,0,3.22,0,.43-.07,.78-.39,1.07-.26,.23-.24,.27-.03,.61,.19,.3,.28,.62,.27,.98-.01,.32,0,.64,0,.97-.01,.38,.05,.73,.2,1.09,.19,.47,.3,.96,.27,1.48-.03,.64,.05,1.28-.14,1.91-.06,.2-.02,.43-.02,.64,0,1.9,0,3.81,0,5.71,0,.35,0,.69-.1,1.03-.07,.22-.04,.48-.05,.72-.01,.43,0,.85-.12,1.27-.09,.3-.08,.64,.04,.95,.08,.21,.09,.42,0,.63-.09,.2-.09,.42-.08,.63,.02,.65,0,1.28-.25,1.89-.09,.22-.09,.49-.02,.71,.14,.42,.11,.85,.11,1.27,0,.35-.02,.7,0,1.05,.05,.68-.08,1.33-.23,1.98-.06,.27-.09,.53-.09,.79,0,.78-.03,1.56,0,2.33,.03,.63-.15,1.22-.19,1.83,0,.16-.13,.23-.27,.23-.13,0-.25-.05-.38-.07-.14-.02-.26,.08-.24,.22,.03,.18,.08,.36,.12,.54,.15,.57,.32,1.13,.44,1.7,.05,.22,.26,.33,.27,.55Z" fill="#610b0e"/><path d="M150.28,115.32c-.02,.97,0,1.69-.12,2.41-.1,.61-.11,1.29,.02,1.9,.11,.53,.03,.88-.18,1.26-.21,.37-.19,.51,.01,.87,.12,.22,.26,.42,.38,.64,.17,.29,.36,.48,.61,.46,.13,0,.26,0,.38,.06,.16,.08,.26,.28,.26,.57,0,.29-.1,.5-.27,.56-.33,.11-.67,.14-1-.02-.33-.16-.66-.17-1-.15-.75,.04-1.48-.24-2.22-.4-.15-.03-.3-.1-.46-.11-1.67-.14-3.34-.38-5.02-.26-.51,.04-1.03-.06-1.53,.21-.07,.04-.15,.04-.23,.03-.85-.12-1.69,.2-2.54,.32-.58,.08-1.18,.11-1.75,.37-.45,.2-.93,0-1.37,.32-.78-.06-1.53,.37-2.3,.3-.26-.02-.52-.02-.76,.14-.07,.05-.15,.09-.23,.08-.83-.09-1.63,.37-2.46,.3-.18-.02-.37-.03-.54,.06-.38,.22-.76,.16-1.15,.19-.38,.02-.78-.05-1.15,.2-.05,.03-.1,.04-.15,.03-1.01-.1-1.99,.32-3,.31-.92-.01-1.84,.29-2.77,.28-.2,0-.4,.14-.6,.22-.15,.06-.3,.18-.45,.16-.8-.07-1.59,.26-2.38,.32-.74,.06-1.48,.28-2.22,.42-.1,.02-.2,.06-.31,.06-.95,.06-1.89,.37-2.83,.49-.72,.09-1.43,.29-2.15,.35-.66,.05-1.32,.27-1.98,.41-.18,.04-.36,.07-.54,.07-.88-.01-1.74,.2-2.6,.47-.1,.03-.21,.04-.31,.04-1.14,0-2.27,0-3.4,.01-.32,0-.54-.22-.74-.59-.23-.42-.47-.73-.86-.73-.38,0-.47-.59-.55-1.09-.08-.54,0-.87,.32-1.14,.28-.23,.39-.66,.55-1.03,.09-.21,.17-.42,.32-.52,.86-.61,1.17-1.82,1.24-3.25,.03-.59-.04-1.19,.1-1.78,.06-.28-.07-.48-.18-.66-.17-.27-.2-.55-.11-.92,.1-.39,.14-.82,.21-1.23,.12-.79,.37-1.41,.85-1.69,.15-.09,.29-.21,.36-.45,.15-.51,.36-.61,.7-.45,.47,.22,.96,.29,1.4-.27,.07-.09,.2-.11,.29-.11,.21,0,.41-.12,.6-.25,1.13-.72,2.32-1.02,3.51-1.32,.43-.11,.85-.37,1.27-.48,1.34-.36,2.68-.73,4-1.23,.32-.12,.67-.05,1-.06,.59-.02,1.18,.13,1.73-.43,.21-.22,.45-.05,.66,.15,.22,.21,.41,.26,.63-.05,.22-.31,.49-.45,.79-.46,.15,0,.3-.12,.44-.2,.34-.19,.69-.34,1.06-.31,.46,.04,.9-.33,1.37-.27,.43,.06,.87,.09,1.3-.18,.18-.12,.35,.08,.49,.26,.07,.09,.09,.25,.03,.33-.2,.26-.4,.54-.63,.73-1.02,.84-1.99,1.8-2.89,2.94-.59,.76-1.23,1.37-1.86,2.03-.42,.43-.82,.88-1.16,1.47-.14,.24-.34,.38-.51,.57-.21,.24-.43,.47-.63,.74-.07,.09-.03,.25,.05,.3,.07,.05,.15,.08,.22,.05,.33-.1,.67-.15,.97-.35,.93-.62,1.89-1.13,2.72-2.09,1.11-1.27,2.3-2.29,3.56-3.05,.89-.54,1.82-.95,2.78-.88,.73,.05,1.43-.22,2.14-.4,.58-.15,1.17-.25,1.75-.38,2.28-.52,4.58-.14,6.87-.25,.23-.01,.46,0,.7,0,.33,0,.66-.02,.99,.17,.19,.11,.41,.07,.61,.07,1.06,0,2.12,.01,3.17,0,.41,0,.82,0,1.22-.19,.34-.15,.71-.12,1.07,.05,.85,.42,1.72,.45,2.6,.39,.15-.01,.31-.02,.46-.1,.38-.22,.78-.22,1.15-.1,.41,.13,.81,.23,1.22,.23,.26,0,.44,.26,.54,.62,.09,.3,.18,.64,.19,.97,.05,1.06,.29,2.09,.19,2.92Zm-36.35,2.66c-.09,0-.22-.01-.35,0-.08,0-.16,.04-.22,.1-.09,.08-.18,.19-.16,.39,.02,.22,.13,.27,.23,.21,.32-.16,.63-.35,.95-.53,.06-.03,.09-.11,.06-.2-.02-.06-.07-.14-.1-.13-.13,.03-.25,.09-.41,.16Z" fill="#610b0e"/><path d="M69.24,129.25c-.23,0-.31,.03-.38,0-.71-.38-1.43-.21-2.15-.25-.36-.02-.72,.02-1.07-.19-.16-.1-.36-.05-.54-.06-.87-.06-1.74,.03-2.62-.24-.6-.18-1.23-.05-1.85-.08-.46-.02-.93,.05-1.38-.2-.14-.08-.31-.04-.46-.05-.77-.06-1.54,.06-2.31-.24-.25-.1-.52-.06-.77-.03-.6,.08-1.17-.17-1.74-.46-1.68-.84-3.38-1.55-5.1-2.07-1.19-.36-2.38-.67-3.57-.97-.65-.16-1.33-.23-1.99-.4-.81-.21-1.65-.07-2.45-.45-.05-.02-.1-.04-.15-.03-1.11,.08-2.2-.39-3.31-.31-.69,.05-1.39,.12-2.08-.21-.17-.08-.36-.02-.54-.03-1.34,0-2.68,0-4.02-.03-.64,0-1.29,.1-1.92-.2-.1-.05-.21-.02-.31-.02-1.52,0-3.05-.14-4.56,.04-1.34,.16-2.67,.18-4.01,.21-.21,0-.41,0-.62-.03-.26-.04-.34-.36-.2-.78,.05-.16,.12-.29,.18-.45,.18-.53,.26-1.1,.13-1.7-.12-.54-.11-1.07,.02-1.6,.19-.77,.22-1.59,.2-2.42,0-.32-.01-.64,0-.96,.07-1.35,.61-2.46,1.34-2.83,.29-.15,.58-.32,.85-.63,.25-.29,.55-.49,.85-.63,1.31-.62,2.64-1.18,3.95-1.79,.62-.29,1.25-.55,1.9-.49,.05,0,.11,.02,.15,0,.58-.42,1.17-.1,1.74,.07,.34,.1,.6,.09,.86-.28,.15-.22,.3-.27,.5-.15,.64,.39,1.31,.41,1.98,.38,.57-.02,1.13,0,1.7,0,.41,0,.82-.05,1.22,.21,.16,.1,.36,.05,.54,.06,.51,.02,1.03-.07,1.53,.23,.16,.1,.36,.04,.54,.04,.75,0,1.5,.03,2.24,0,.67-.02,1.34,.03,1.98,.44,.23,.14,.46,.1,.69,.11,.75,0,1.5,0,2.24,.02,.33,0,.67-.06,.99,.18,.11,.08,.26,.08,.38,.02,.94-.44,1.9-.1,2.85-.19,.1,0,.22,.02,.29,.13,.41,.63,.87,.44,1.32,.27,.61-.23,1.25-.27,1.84-.05,.56,.21,1.13,.03,1.68,.41,.17,.12,.41,.03,.61-.06,.51-.24,1.01-.23,1.52,0,.46,.2,.93,.2,1.38,.02,.33-.14,.66-.17,.99-.18,.31,0,.62,.02,.93,0,.65-.05,1.29,.04,1.9,.42,.19,.12,.35,.12,.52-.06,.32-.35,.68-.37,1.04-.37,.49,0,.97-.1,1.46-.19,.84-.16,1.7-.07,2.55-.07,.23,0,.4,.19,.46,.6,.11,.75,.22,1.5,.3,2.25,.02,.15-.04,.36-.1,.5-.16,.36-.34,.69-.61,.81-.09,.04-.19,.16-.26,.28-.08,.13-.11,.33-.05,.5,.03,.1,.11,.22,.17,.24,.18,.04,.36,.01,.54,.06,.4,.11,.76,.32,.79,1.21,.37,1.14,.29,2.39,.3,3.61,0,.46,0,.92,0,1.37,0,.9,.14,1.71,.54,2.33,.22,.34,.4,.71,.4,1.27,0,.13,.04,.28,.09,.37,.38,.79,.14,1.44-.14,2.08-.05,.11-.12,.19-.16,.3-.46,1.2-1.18,1.33-1.75,1.42Z" fill="#610b0e"/><path d="M62.11,43.93c-2.06,0-4.13,0-6.19,0-.36,0-.72,0-1.06-.15-.31-.13-.64-.17-.98-.16-.78,.03-1.53-.13-2.29-.26-.13-.02-.26-.05-.38-.04-.6,.02-1.18,0-1.74-.25-.15-.07-.3-.06-.46-.02-.92,.24-1.85,.09-2.77,.09-.33,0-.65-.15-.94-.32-.13-.08-.24-.19-.34-.31-.13-.16-.05-.42,.14-.42,.79,0,1.01-.6,1.13-1.16,.09-.41,.24-.72,.53-.98,.21-.18,.31-.41,.28-.68-.08-.76,.28-1.33,.79-1.84,.05-.05,.12-.12,.18-.13,.51-.03,.78-.41,1.03-.75,.36-.48,.78-.89,1.19-1.32,.09-.09,.18-.18,.26-.29,.07-.09,.08-.2-.01-.28-.21-.18-.19-.39-.12-.63,.13-.46,.33-.86,.7-1.18,.18-.15,.35-.31,.49-.49,.6-.75,1.44-.94,2.33-.98,.64-.03,1.29,0,1.93,0,.31,0,.62,.03,.91-.1,.09-.04,.21-.06,.3-.04,.55,.16,1.12,.11,1.68,.19,.73,.12,1.46,.27,2.19,.4,.2,.03,.41,.01,.62,0,.06,0,.13-.07,.17-.13,.06-.09,.03-.2-.03-.29-.04-.06-.1-.12-.17-.15-.16-.08-.33-.15-.5-.2-1.01-.29-2.02-.58-3.03-.87-.25-.07-.52,0-.75-.16-.08-.06-.19-.09-.18-.22,0-.11,.08-.2,.18-.22,.67-.16,1.31-.44,2.03-.37,.46,.04,.93,0,1.39,0,.15,0,.31-.01,.46,.02,.87,.2,1.72,.11,2.6,.01,.77-.08,1.43-.4,2.13-.62,.09-.03,.2-.09,.17-.22-.03-.13-.15-.12-.25-.13-.28-.01-.57,.01-.84-.12-.06-.03-.16-.04-.23,0-.49,.2-.95-.12-1.43-.08-.72-.29-1.5-.33-2.23-.57-.1-.03-.2-.04-.29-.08-.19-.09-.25-.38-.1-.53,.07-.07,.16-.12,.24-.18,.27-.2,.53-.4,.61-.76,.04-.18,.19-.31,.35-.4,.52-.29,1.05-.54,1.67-.52,.31,.01,.62,0,.93,0,.33,0,.66,0,.99-.11,.44-.14,.93,.02,1.37-.19,.83,.04,1.63-.24,2.46-.18,.56,.04,1.13,.01,1.7,0,.2,0,.34,.06,.45,.23,.18,.28,.39,.55,.56,.83,.09,.15,.17,.32,.17,.51,0,.23,.02,.46,.1,.68,.08,.2,.05,.4,0,.61-.18,.79-.17,1.58,0,2.37,.06,.28,.07,.57,0,.85-.19,.82-.2,1.63,.1,2.43,.09,.23,.08,.45,.08,.69,0,1.5,0,2.99,0,4.49,0,.52-.14,1.02-.24,1.52-.09,.44-.1,.86,.11,1.28,.27,.53,.18,.99-.29,1.38-.16,.13-.29,.29-.44,.43-.09,.09-.19,.18-.29,.25-.42,.29-1.03,.14-1.38,.6-.48,.07-.95,.22-1.44,.22-2.11-.01-4.23,0-6.34,0h0Z" fill="#610b0e"/><path d="M112.43,43.92c-2.37,0-4.74,0-7.12,0-.31,0-.61,0-.92-.09-.19-.06-.41-.05-.61-.06-.52,0-1.03,0-1.55,0-.2,0-.42,0-.61-.05-.39-.12-.75-.13-1.13,0-.22,.08-.47,.08-.69,0-.25-.08-.5-.12-.76-.12-.23,0-.38-.13-.45-.35-.03-.1-.07-.19-.1-.29-.1-.26-.27-.4-.57-.44-.4-.05-.7-.37-.71-.77-.02-.7,0-1.39,0-2.09,0-.05,0-.12,.02-.15,.41-.43,.19-1.04,.42-1.53,.04-.09,0-.24,.07-.29,.38-.35,.4-.9,.68-1.28,.19-.26,.1-.57,.26-.78,.2-.27,.22-.5,.05-.77-.13-.21-.12-.44-.12-.68,0-.75,0-1.5,0-2.24,0-.24-.02-.45-.17-.66-.27-.39-.14-.83,.27-1.13,.51-.37,1.03-.65,1.64-.83,.56-.16,1.1-.42,1.69-.52,.23-.04,.46-.07,.69-.05,.14,.01,.25,.08,.3,.21,.06,.13-.01,.25-.11,.34-.1,.08-.2,.16-.31,.23-.19,.13-.39,.25-.58,.38-.31,.23-.49,.52-.38,.6,.22,.16,.44,.02,.66-.04,.35-.09,.71-.14,1.05-.25,.23-.07,.45-.08,.68-.09,.36-.02,.64,.05,.84,.4,.15,.26,.4,.2,.52-.08,.04-.09,.04-.2,.08-.3,.04-.11,.12-.17,.23-.17,.64,0,1.29-.11,1.92,.08,.23,.07,.46,.06,.69,.06,.52,0,1.04-.07,1.54,.02,.91,.16,1.83,.12,2.74,.37,1.13,.31,2.31,.47,3.46,.7,.7,.14,1.41,.29,2.1,.47,.4,.11,.76,.32,.95,.72,.07,.14,.14,.28,.24,.39,.15,.19,.35,.32,.6,.2,.2-.1,.34,0,.48,.13,.09,.09,.18,.18,.27,.27,.31,.31,.64,.6,.92,.93,.29,.33,.74,.48,.94,.9,.02,.04,.07,.08,.12,.09,.69,.19,.89,.8,1.16,1.35,.16,.32,.31,.65,.43,.98,.11,.31,.27,.61,.08,.96-.05,.09,.02,.25,.06,.37,.31,.88,.27,1.77,.11,2.66-.05,.27,.02,.37,.32,.39,.29,.02,.57,.02,.75,.3,.06,.09,.09,.19,0,.28-.08,.07-.16,.14-.25,.18-.58,.27-1.16,.54-1.8,.64-.15,.02-.32,.02-.45,.08-.51,.22-1.05,.24-1.59,.23-.41,0-.82-.02-1.22,.11-.21,.07-.46,.03-.69,.03-2.37,0-4.74,0-7.12,0h0Z" fill="#610b0e"/><path d="M10.14,125.75c0-.42-.06-.85,.12-1.26,.09-.2,.1-.43,.01-.63-.2-.47-.15-.96-.14-1.45,.02-.8-.19-1.56-.28-2.35-.08-.69-.27-1.36-.12-2.06,.06-.26,.01-.55,.01-.82,0-.27-.03-.55,.09-.81,.11-.23,.1-.48,.1-.72,0-.37-.01-.73,.14-1.08,.06-.13,.05-.3,.05-.45,0-.82,.19-1.62,.32-2.43,.04-.24,.06-.48,.06-.73,0-.34,0-.67,.15-.99,.08-.18-.03-.49,.29-.49,.25,0,.32,.27,.42,.45,.19,.35,.37,.71,.57,1.05,.06,.11,.17,.18,.31,.14,.11-.03,.14-.13,.14-.21,.04-.91,.04-1.81-.38-2.68-.41-.85-.64-1.76-.77-2.71-.14-1.02-.42-2.03-.95-2.95-.36-.62-.54-1.3-.54-2.01,0-.3-.09-.53-.38-.68-.48-.26-.7-.67-.76-1.19-.03-.24-.11-.47-.17-.71-.16-.75-.22-1.5-.22-2.26,.01-5.34,0-10.68,.01-16.02,0-.49-.04-.97,.15-1.45,.06-.16,.03-.36,.04-.54,.05-.88-.13-1.77,.17-2.63,0-.03,.01-.07,0-.09-.23-.51,0-1.01,0-1.51,0-.53,.05-1.01,.39-1.46,.31-.43,.31-.96,0-1.38-.4-.55-.43-1.09-.24-1.72,.12-.4,.04-.85,.04-1.27,0-.31-.22-.5-.46-.65-.17-.11-.27-.24-.28-.44-.02-.3,.08-.46,.34-.59,.21-.1,.42-.12,.64-.12,.86,0,1.69-.17,2.52-.31,.32-.05,.63-.12,.89,.14,.14,.15,.33,.16,.53,.16,.35,0,.69,.02,.98,.25,.24,.19,.55,.1,.83,.12,.25,.02,.51,.02,.75,.07,.25,.05,.37,.4,.23,.6-.17,.26-.4,.48-.68,.62-.46,.23-.59,.59-.57,1.06,.04,.73-.09,1.46,.18,2.17-.09,.71,.12,1.4,.23,2.08,.3,1.89,.09,3.77,.16,5.65,.02,.42-.02,.85,.14,1.27,.08,.22,.05,.48,.05,.72,0,.7,0,1.4,0,2.11,0,.27-.03,.55,.08,.81,.14,.33,.14,.65,.02,.98-.04,.11-.08,.25-.05,.35,.26,.75,.1,1.51,.14,2.27,.03,.55-.04,1.09,.16,1.63,.07,.19,.03,.42,.03,.64,0,.67,0,1.34,0,2.01,0,.52,.08,1.03,.13,1.54,.08,.88,.34,1.73,.26,2.63-.04,.48,0,.98,0,1.46,0,.45,.04,.91-.14,1.36-.08,.19-.04,.42-.05,.63,0,.61,0,1.22,0,1.83,0,.39-.03,.79,.13,1.17,.06,.13,.04,.3,.05,.45,.01,.43,0,.84,.14,1.26,.09,.28,.03,.6,.04,.91,.03,.7-.09,1.4,.17,2.08-.08,.89,.19,1.75,.24,2.63,.04,.94,.09,1.88,.21,2.81,.1,.76,.12,1.51,.14,2.27,.01,.36,0,.72,.12,1.09,.08,.25,.07,.54,.07,.81,0,1.22,0,2.44,0,3.66,0,.58-.05,1.15,.15,1.72,.07,.19,.03,.42,.03,.64,0,.7,0,1.4,0,2.11,0,.39,.02,.78,.13,1.17,.19,.71-.03,1.05-.63,1.46-.71,.48-1.49,.55-2.24,.31-.78-.25-1.55-.26-2.34-.26-.57,0-1.14,0-1.71-.01-.29,0-.4-.12-.41-.39-.02-.27,0-.55,0-.82Z" fill="#610b0e"/><path d="M150.93,111.6c.01-.78-.04-1.56,.16-2.34,.16-.64,.03-1.32,.05-1.99,.02-.72-.09-1.45,.2-2.16,.06-.14,.03-.3,.02-.45-.06-.88,.18-1.73,.37-2.59,.13-.56,.2-1.13,.31-1.69,.02-.09,.05-.18,.1-.25,.03-.04,.11-.07,.18-.09,.11-.02,.22,.01,.28,.09,.13,.16,.09,.35,.09,.53,0,1.3,0,2.6,.01,3.9,0,.24-.06,.49,.18,.69,.05,.04,.14,.09,.19,.08,.09-.03,.23-.08,.24-.14,.04-.18,.04-.36,.04-.54,0-.91,0-1.81,0-2.72,0-.69,.05-1.37,.16-2.07,.13-.83,.25-1.66,.46-2.49,.08-.32,.09-.68-.02-.99-.17-.48-.16-.95-.16-1.43,0-4.62,0-9.24,0-13.87,0-.42,.08-.85-.12-1.26-.09-.19,.02-.36,.13-.51,.29-.46,.3-.93,.12-1.41-.13-.33-.13-.64-.01-.97,.18-.53,.17-1.07,0-1.61-.16-.48-.17-.95,0-1.43,.18-.51,.19-1.01-.01-1.51-.07-.18-.1-.36-.04-.53,.2-.67,.41-1.34,.61-2.01,.07-.25,.29-.49,.1-.78-.09-.14,.1-.27,.18-.4,.19-.3,.04-.52-.37-.56-.18-.02-.37,0-.56-.01-.22,0-.45,0-.67,0-.26,0-.4-.13-.44-.34-.07-.41,.16-.77,.38-1.11,.05-.09,.24-.16,.37-.16,.5,0,.95-.16,1.41-.28,.29-.08,.58-.1,.88-.1,.67,0,1.34,0,2.02,0,1.16-.01,2.18,.34,3.16,.8,.23,.11,.42,.27,.49,.48,.17,.59,.34,1.17,.25,1.78-.02,.12-.04,.24-.1,.35-.09,.16-.17,.36-.45,.35-.3,0-.33-.21-.33-.39,0-.46-.2-.88-.35-1.32-.03-.1-.18-.19-.36-.14-.12,.03-.17,.12-.17,.21,0,.63-.09,1.26,.15,1.88,.22,.57,.3,1.17,.45,1.76,.04,.18,.03,.36-.04,.53-.1,.26-.15,.53-.26,.78-.09,.22-.07,.42,.07,.61,.29,.39,.23,.77,.12,1.21-.13,.49-.14,1.01-.29,1.51-.26,.89-.23,1.79-.23,2.7,0,.09,.02,.19-.01,.27-.29,.74-.21,1.49-.21,2.24,0,.38-.14,.65-.66,.7-.32,.03-.45,.18-.45,.43,0,.24-.04,.49,.02,.72,.36,1.38,.42,2.8,.84,4.17-.03,1.06,.31,2.09,.52,3.12,.31,1.57,.1,3.13,.18,4.69,0,.06,.01,.12,0,.18-.41,1.43-.14,2.89-.21,4.33-.02,.48,.02,.97,0,1.45-.05,1.15,.22,2.27,.39,3.4,.18,1.2,.52,2.36,.89,3.53,.1,.33,.05,.66,.07,.99,.01,.24-.07,.51,.13,.7,.35,.34,.31,.73,.31,1.12,0,.69,0,1.39,0,2.08,0,.45-.03,.9,.16,1.34,.12,.28,.14,.6-.07,.88-.05,.07-.17,.12-.26,.14-.13,.03-.22-.06-.23-.15-.03-.34-.15-.63-.38-.93-.22-.29-.09-.65-.11-.98-.02-.45,.05-.91-.21-1.33-.08-.13-.14-.28-.24-.4-.11-.12-.24-.25-.46-.21-.24,.05-.19,.23-.21,.37,0,.06-.02,.13,.01,.18,.45,.55,.23,1.15,.2,1.74-.02,.4,.04,.78,.22,1.15,.37,.74,.51,1.5,.45,2.3-.03,.39-.06,.79,.32,1.12,.08,.07,.11,.25,.06,.34-.29,.54-.08,1.14-.34,1.69-.14,.3-.07,.65,.05,.98,.21,.56,.17,1.12-.07,1.69-.23,.54-.4,1.1-.61,1.64-.09,.24-.08,.48-.09,.72,0,.15,0,.3,0,.45,.05,1.03-.9,1.45-2,1.3-.11-.02-.22-.05-.32-.09-.82-.37-1.74-.48-2.6-.74-.79-.25-1.09-.69-1.12-1.31-.03-.63-.04-1.27,0-1.9,.05-.79-.19-1.56-.32-2.33-.08-.45-.15-.9-.12-1.34,.03-.53-.16-1.01-.29-1.51-.03-.1-.16-.2-.27-.27-.18-.12-.49-.03-.54,.14-.06,.21-.04,.42,.04,.62,.06,.14,.1,.29,.12,.44,.01,.12-.05,.23-.21,.28-.17,.05-.35-.03-.4-.22-.1-.41-.23-.81-.27-1.24-.07-.81-.24-1.6-.36-2.41-.03-.18-.06-.36-.06-.54-.02-.54-.05-1.07-.17-1.61-.13-.55-.03-1.14-.03-1.72Z" fill="#610b0e"/><path d="M127.28,54.77c-.75,0-1.5,0-2.24,0-.54,0-1.07,0-1.61-.11-.52-.1-1.08-.03-1.62-.04-.33,0-.67,.05-.99-.1-.12-.05-.25-.03-.38,0-.61,.15-1.22,.13-1.83-.01-.2-.05-.41-.05-.61-.05-.64,0-1.29-.02-1.93,0-.68,.03-1.33-.07-1.98-.24-.23-.06-.46-.09-.69-.07-.52,.04-1.02-.07-1.52-.19-.15-.03-.3-.12-.45-.11-1.06,.05-2.1-.1-3.15-.17-.31-.02-.61,0-.92-.09-.38-.11-.75,.12-1.13,.15-.13,0-.25,.07-.37,.09-.13,.01-.31,.05-.38-.02-.47-.43-.98-.14-1.45-.07-.41,.05-.81,.1-1.22,.11-.64,0-1.29-.01-1.93,0-.32,.01-.61-.09-.9-.19-.23-.08-.35-.28-.26-.49,.26-.58,.29-1.19,.27-1.82-.02-.6,.4-.98,.73-1.4,.1-.13,.27-.13,.43-.13,.52,0,1.03,0,1.55,0,.08,0,.16,0,.23,.02,.84,.36,1.77,.28,2.63,.56,.17,.05,.36,.04,.54,.03,.79-.03,1.6,.11,2.38-.14,.88,.03,1.73-.26,2.61-.17,.31,.03,.61,.01,.92,.1,.24,.07,.51,.05,.77,.05,2.73,0,5.47,.02,8.2,0,.68,0,1.32,.16,1.99,.22,.28,.03,.55,.09,.84,.1,.23,0,.46,.03,.69,.08,.53,.13,1.08,.12,1.61,0,.56-.12,1.11-.07,1.68,0,.57,.06,.94,.35,1.3,.73,.37,.39,.79,.74,.83,1.34,.01,.21,.21,.34,.4,.45,.18,.1,.37,.18,.55,.29,.35,.21,.34,.97,0,1.21-.14,.09-.3,.07-.45,.07-1.03,0-2.06,0-3.1,0h0Z" fill="#610b0e"/><path d="M60.89,78.93c1.31,0,2.63,0,3.94,0,.49,0,.97,0,1.46-.11,.39-.09,.82-.03,1.23-.04,.41,0,.83,0,1.24,0,.24,0,.38,.1,.49,.3,.26,.46,.44,.92,.4,1.46-.04,.44,0,.88-.01,1.31-.01,.3-.13,.42-.41,.47-.18,.04-.36,.04-.53,.1-.52,.2-1.02,.27-1.58,.1-.36-.11-.77-.03-1.15-.04-.44,0-.87,.03-1.3-.12-.21-.07-.46-.03-.69-.03-.31,0-.62,.02-.92-.1-.11-.05-.27-.06-.38-.02-.58,.21-1.18,.09-1.76,.12-.85,.05-1.69-.07-2.52-.27-.2-.05-.41-.05-.61,0-.59,.16-1.16,.19-1.73-.1-.12-.06-.24-.05-.37-.03-.87,.11-1.74,.17-2.6-.05-.18-.05-.36,0-.53,.06-.22,.09-.47,.11-.68,.03-.45-.16-.91-.13-1.38-.12-.32,0-.61-.07-.85-.29-.05-.05-.11-.12-.06-.2,.02-.04,.07-.09,.11-.1,.13-.02,.26-.01,.38-.03,.47-.06,.66-.29,.67-.77,0-.25-.08-.44-.21-.64-.15-.23-.08-.35,.19-.46,.24-.1,.49-.15,.75-.14,.41,.01,.82,0,1.24,0,.31,0,.62,.02,.91-.11,.09-.04,.2-.05,.3-.04,1.41,.04,2.82-.24,4.23-.17,.9,.05,1.8,0,2.71,0h0Z" fill="#610b0e"/><path d="M29.55,76.76c.63,.02,1.11-.03,1.6,.13,.29,.09,.63,.09,.92-.01,.36-.12,.71-.1,1.07-.11,.41,0,.81-.03,1.22-.11,.55-.11,1.14-.11,1.69,0,.36,.07,.71,.1,1.07,.11,.18,0,.36,0,.54,.05,.85,.22,1.69,.41,2.57,.42,.07,0,.15,.03,.22,.05,.23,.09,.29,.42,.11,.58-.24,.2-.52,.34-.82,.42-.87,.22-1.74,.43-2.62,.61-.3,.06-.64,.08-.92-.01-.33-.11-.6-.06-.88,.09-.09,.05-.2,.1-.29,.09-.65-.05-1.27,.21-1.92,.18-.49-.03-.97-.03-1.46,.12-.24,.07-.51,.03-.77,.03-.33,0-.66,.02-.99,.1-.32,.08-.66,.04-1,.05-.49,.01-.97-.03-1.45,.13-.19,.06-.41,.02-.62,.02-.38,0-.77-.02-1.15,.12-.19,.07-.41,.04-.61,.04-1.01,0-2.01-.02-3.02,.01-.55,.02-1.07-.13-1.6-.19-.12-.01-.24-.09-.35-.16-.09-.06-.14-.16-.11-.27,.09-.27,.18-.54,.29-.8,.11-.26,.37-.37,.62-.42,.93-.21,1.8-.61,2.75-.71,.66-.07,1.31-.25,1.98-.24,.31,0,.62,.03,.91-.1,.07-.03,.15-.05,.23-.04,.98,.1,1.94-.22,2.78-.17Z" fill="#610b0e"/><path d="M118.57,49.48c-.54,0-1.08,.08-1.61-.11-.13-.05-.32-.04-.45,.02-.35,.14-.71,.11-1.07,.11-.64,0-1.29,0-1.93,0-.31,0-.62,.02-.92-.1-.14-.05-.31-.06-.46-.05-.6,.06-1.17-.11-1.76-.17-.1,0-.23-.05-.27-.11-.2-.33-.54-.38-.85-.48-.3-.1-.57-.24-.84-.39-.15-.08-.21-.22-.14-.39,.18-.44,.4-.84,.93-.94,.17-.03,.36-.1,.49-.21,.78-.59,1.66-.43,2.52-.32,.2,.03,.4,.06,.61,.07,.62,.01,1.23-.05,1.84,.14,.24,.07,.51,.02,.77,.02,.44,0,.86,.02,1.3,.11,.47,.09,.98,.04,1.46,.04,.33,0,.66,.04,.99,.11,.45,.1,.82,.29,1.12,.63,.25,.28,.55,.44,.93,.51,.4,.08,.79,.23,1.17,.37,.14,.05,.27,.15,.38,.25,.15,.13,.07,.41-.12,.42-.32,.01-.6,.13-.88,.26-.19,.09-.4,.07-.61,.07-.49,0-.97,0-1.46,.12-.37,.09-.77,.02-1.16,.02Z" fill="#610b0e"/><path d="M52.89,61.12c-.13,0-.16,0-.18,0-.31-.01-.32-.03-.3-.36,0-.08,.05-.18,.01-.22-.3-.37-.34-.85-.56-1.25-.27-.49-.69-.6-1.25-.41-.22,.08-.41,.22-.56,.4-.36,.42-.79,.73-1.34,.85-.29,.06-.45,.22-.42,.54,.01,.15,0,.31,0,.46,0,.14-.08,.24-.21,.29-.19,.06-.21,.19-.16,.36,.05,.16-.05,.24-.2,.25-.21,.02-.41,.01-.58-.15-.29-.29-.58-.58-.87-.87-.14-.14-.12-.34-.18-.5-.03-.07-.08-.13-.17-.13-.12,0-.21,.06-.22,.17-.04,.31-.07,.61,.06,.91,.05,.12,.07,.25-.05,.35-.09,.07-.27-.05-.33-.24-.07-.22-.12-.45-.19-.67-.12-.37-.51-.49-.76-.21-.18,.19-.36,.28-.6,.27-.41,0-.83,.03-1.21-.17-.1-.05-.17-.12-.17-.23,0-.14,.08-.24,.2-.31,.17-.09,.35-.06,.53-.07,.18,0,.36,0,.52-.12,.23-.17,.27-.33,.12-.58-.16-.26-.33-.52-.57-.72-.25-.2-.38-.49-.55-.74-.15-.21-.08-.52,.13-.69,.16-.13,.34-.1,.51,0,.18,.1,.36,.21,.51,.34,.3,.24,.61,.25,.94,.1,.07-.03,.15-.06,.21-.1,.56-.37,1.18-.47,1.84-.43,.38,.02,.76-.02,1.15-.1,.5-.1,1.02-.09,1.52-.2,.17-.04,.36-.02,.49,.14,.38,.44,.94,.55,1.45,.6,.53,.06,.91,.27,1.27,.63,.4,.41,.77,.81,.94,1.38,.13,.44,0,.81-.15,1.19-.05,.13-.17,.19-.3,.21-.13,.02-.26,.02-.28,.02Z" fill="#610b0e"/><path d="M45.62,51.36c.15,0,.31,0,.46,.03,.79,.2,1.57,.2,2.36,0,.22-.05,.41,0,.59,.12,.45,.3,.96,.34,1.48,.32,.49-.02,.97,.02,1.45,.13,.44,.1,.89,.24,1.37,.19,.32-.03,.6,.15,.82,.37,.18,.18,.38,.26,.63,.24,.28-.02,.48,.1,.68,.29,.28,.26,.59,.49,.89,.74,.3,.24,.35,.55,.24,.91-.05,.15-.1,.29-.15,.44-.04,.1-.11,.18-.22,.19-.13,.01-.17-.09-.19-.2-.09-.68-.58-1.08-1.09-1.42-.49-.33-1.08-.52-1.66-.6-.5-.07-1-.26-1.52-.19-.12,.01-.25-.03-.38-.07-.64-.19-1.29-.32-1.94-.47-.65-.14-1.32-.14-1.91-.5-.09-.06-.27-.04-.37,0-.32,.14-.66,.1-.99,.11-.31,0-.61-.02-.91,.1-.14,.05-.3,.04-.46,.03-.16,0-.26-.21-.18-.35,.12-.21,.28-.37,.53-.39,.15-.01,.31,0,.46,0h0Z" fill="#610b0e"/><path d="M43.47,52.14c.11,0,.16,0,.21,0,.12,0,.26-.02,.35,.11,.06,.09-.03,.28-.19,.38-.11,.06-.23,.1-.35,.15-.31,.13-.6,.28-.89,.46-.32,.2-.57,.43-.66,.81-.01,.05-.01,.11-.04,.15-.34,.36-.53,.81-.78,1.23-.02,.03-.1,.05-.13,.04-.03-.01-.07-.08-.07-.11,.13-.49,.27-.99,.41-1.48,.05-.18,.19-.3,.31-.43,.31-.31,.63-.61,.92-.93,.26-.3,.56-.43,.9-.37Z" fill="#610b0e"/><path d="M130.96,86.83c.41,0,.69,0,.97,.09,.4,.12,.82,.12,1.22,.01,.27-.07,.49-.03,.75,.02,1,.23,2.01,.4,2.98,.74,.1,.03,.2,.06,.3,.05,.46-.03,.86,.09,1.21,.39,.18,.14,.41,.19,.64,.26,.42,.12,.8,.34,.97,.79,.05,.13-.04,.25-.18,.26-.16,0-.29-.06-.43-.14-.69-.4-1.4-.75-2.16-.97-.12-.04-.25-.11-.37-.1-.37,.06-.71,.15-1.09-.11-.27-.19-.68-.18-1.03-.27-.12-.03-.25-.09-.34-.17-.23-.2-.49-.27-.79-.24-.08,0-.16,.02-.23,0-.94-.24-1.89-.12-2.84-.15-.14,0-.31,.05-.42-.11-.07-.1,.12-.28,.36-.31,.2-.03,.41-.03,.49-.03Z" fill="#610b0e"/><path d="M113.93,115.79c.16-.04,.28-.08,.41-.1,.03,0,.08,.04,.1,.08,.03,.05,0,.1-.06,.12-.31,.11-.63,.22-.95,.32-.1,.03-.21,0-.23-.13-.02-.12,.07-.19,.16-.24,.06-.04,.15-.05,.22-.06,.13,0,.26,0,.35,0Z" fill="#610b0e"/><path d="M164.04,128.05c0-.49-.04-.99,.09-1.47,.06-.23,.07-.5,.01-.73-.14-.55-.11-1.12-.1-1.68,.01-.92-.14-1.81-.2-2.72-.05-.8-.2-1.57-.08-2.39,.04-.31,0-.63,.01-.95,0-.32-.02-.64,.06-.94,.07-.27,.07-.55,.07-.84,0-.42,0-.85,.1-1.25,.04-.16,.03-.35,.03-.52,0-.95,.13-1.88,.23-2.82,.03-.28,.04-.56,.04-.84,0-.39,0-.78,.11-1.14,.06-.2-.02-.57,.2-.57,.18,0,.23,.31,.3,.52,.14,.41,.27,.82,.41,1.22,.04,.12,.12,.21,.22,.16,.08-.04,.1-.15,.1-.25,.03-1.06,.03-2.1-.27-3.11-.29-.99-.46-2.05-.55-3.15-.1-1.19-.3-2.35-.67-3.42-.25-.72-.38-1.5-.39-2.33,0-.35-.06-.61-.27-.79-.34-.3-.5-.78-.54-1.38-.02-.28-.08-.55-.12-.82-.12-.87-.16-1.74-.15-2.63,0-6.19,0-12.39,0-18.58,0-.56-.03-1.13,.1-1.68,.05-.19,.02-.42,.03-.63,.04-1.02-.09-2.05,.12-3.05,0-.03,0-.08,0-.1-.16-.59,0-1.17,0-1.76,0-.61,.04-1.17,.27-1.7,.22-.49,.22-1.11,0-1.61-.28-.64-.3-1.26-.17-2,.08-.46,.03-.98,.03-1.48,0-.36-.16-.58-.33-.76-.12-.13-.19-.27-.2-.51-.01-.35,.06-.54,.24-.69,.15-.12,.3-.14,.46-.14,.61,0,1.2-.2,1.79-.36,.23-.06,.45-.14,.63,.16,.1,.17,.24,.19,.37,.19,.25,0,.49,.02,.7,.29,.17,.22,.39,.12,.59,.14,.18,.02,.36,.02,.53,.08,.18,.06,.26,.46,.16,.7-.12,.3-.28,.55-.49,.72-.32,.26-.42,.68-.4,1.23,.03,.84-.06,1.7,.13,2.52-.07,.82,.09,1.62,.16,2.41,.21,2.19,.06,4.38,.11,6.56,.01,.49-.01,.98,.1,1.47,.06,.25,.04,.56,.04,.84,0,.81,0,1.63,0,2.44,0,.32-.02,.64,.05,.95,.1,.38,.1,.75,.01,1.14-.03,.13-.06,.29-.03,.41,.19,.87,.07,1.76,.1,2.63,.02,.63-.03,1.27,.11,1.89,.05,.22,.02,.49,.02,.74,0,.78,0,1.56,0,2.34,0,.6,.06,1.19,.09,1.78,.06,1.02,.24,2.01,.18,3.05-.03,.56,0,1.13,0,1.7,0,.53,.03,1.06-.1,1.57-.05,.22-.03,.49-.03,.74,0,.71,0,1.42,0,2.12,0,.46-.02,.92,.1,1.36,.04,.16,.03,.35,.03,.52,0,.49,0,.98,.1,1.47,.07,.32,.02,.7,.03,1.05,.02,.81-.07,1.63,.12,2.42-.05,1.03,.14,2.03,.17,3.05,.03,1.09,.06,2.19,.15,3.26,.07,.88,.09,1.75,.1,2.63,0,.42,0,.84,.08,1.26,.06,.29,.05,.63,.05,.94,0,1.42,0,2.83,0,4.25,0,.67-.04,1.34,.11,2,.05,.22,.02,.49,.02,.74,0,.81,0,1.63,0,2.44,0,.46,.01,.9,.09,1.36,.14,.82-.02,1.22-.45,1.7-.5,.56-1.06,.64-1.59,.36-.55-.29-1.1-.3-1.66-.3-.4,0-.81,0-1.21-.02-.2,0-.28-.14-.29-.46-.01-.32,0-.64,0-.96Z" fill="#fff"/><path d="M6.37,125.62c-.02-.46,0-.94-.14-1.39-.07-.22-.08-.47-.04-.69,.11-.52,.06-1.06,.03-1.59-.05-.87,.06-1.72,.09-2.58,.02-.76,.12-1.5,0-2.27-.05-.29-.03-.6-.05-.9-.01-.3,0-.61-.1-.89-.08-.25-.09-.52-.1-.79-.02-.4-.02-.8-.14-1.18-.04-.15-.05-.33-.05-.49-.04-.9-.2-1.78-.32-2.66-.04-.26-.06-.53-.07-.8-.02-.37-.03-.74-.15-1.08-.06-.19,0-.54-.21-.54-.17,0-.2,.3-.26,.51-.11,.39-.22,.79-.34,1.17-.04,.12-.1,.2-.2,.16-.08-.03-.1-.13-.1-.23-.07-1-.1-1.98,.14-2.96,.24-.95,.35-1.96,.4-3,.05-1.13,.19-2.24,.5-3.26,.21-.7,.3-1.44,.28-2.22-.01-.33,.04-.58,.22-.76,.31-.29,.44-.76,.46-1.33,0-.26,.05-.52,.08-.78,.08-.82,.08-1.65,.05-2.49-.24-5.86-.47-11.73-.7-17.59-.02-.53-.02-1.07-.16-1.58-.05-.18-.03-.4-.05-.6-.07-.96,.01-1.95-.23-2.89,0-.03-.01-.07,0-.1,.13-.56-.05-1.11-.07-1.66-.02-.58-.08-1.1-.32-1.6-.23-.46-.25-1.04-.06-1.52,.24-.62,.24-1.21,.09-1.9-.1-.43-.07-.93-.08-1.4-.01-.34,.13-.55,.28-.73,.11-.13,.17-.27,.17-.49,0-.33-.07-.5-.25-.64-.14-.11-.29-.12-.44-.11-.57,.03-1.13-.14-1.7-.27-.21-.05-.42-.11-.59,.18-.09,.16-.22,.19-.34,.19-.24,0-.46,.04-.65,.3-.15,.21-.36,.13-.55,.16-.17,.02-.34,.03-.5,.1-.16,.07-.23,.44-.13,.66,.13,.28,.29,.51,.48,.66,.31,.24,.42,.63,.42,1.15,0,.8,.12,1.61-.03,2.39,.09,.78-.02,1.54-.06,2.29-.12,2.08,.11,4.14,.14,6.21,0,.47,.05,.93-.04,1.39-.05,.24-.01,.53,0,.8,.03,.77,.06,1.54,.09,2.31,.01,.3,.05,.6-.02,.9-.08,.36-.07,.72,.03,1.08,.03,.12,.07,.27,.05,.39-.14,.83,0,1.67,0,2.5,0,.6,.07,1.2-.03,1.79-.04,.21,0,.47,0,.7,.03,.74,.06,1.47,.08,2.21,.02,.57-.01,1.13-.02,1.69-.02,.96-.15,1.91-.06,2.89,.05,.53,.04,1.07,.07,1.61,.02,.5,.01,1,.15,1.49,.06,.21,.05,.46,.06,.7,.03,.67,.06,1.34,.08,2.01,.02,.43,.05,.87-.04,1.29-.03,.15-.02,.33-.01,.5,.01,.47,.03,.93-.04,1.39-.05,.31,0,.66,0,1,.01,.77,.12,1.54-.02,2.29,.09,.97-.05,1.92-.04,2.89,.01,1.03,.02,2.07-.02,3.09-.03,.84-.01,1.66,0,2.5,0,.4,.03,.79-.03,1.19-.04,.28-.02,.6-.01,.9,.05,1.34,.11,2.68,.15,4.02,.02,.63,.08,1.27-.03,1.89-.04,.21,0,.47,0,.7,.03,.77,.06,1.54,.09,2.31,.02,.43,.02,.86-.03,1.29-.1,.78,.06,1.16,.49,1.59,.49,.51,1.02,.56,1.51,.28,.51-.29,1.02-.33,1.55-.35,.38-.02,.76-.03,1.14-.06,.19-.02,.26-.14,.26-.44,0-.3-.02-.6-.03-.9Z" fill="#fff"/></svg>