<?xml version="1.0" encoding="UTF-8"?><svg id="Capa_1" xmlns="http://www.w3.org/2000/svg" viewBox="0 0 301 160"><path d="M57.01,120.13h2.55l1.09-.67c-.24-12.09-.36-21.74-.36-28.95v-2l-.51-.7c-3.71,5.52-7.2,11.15-9.79,17.12,.04,.08,.06,.14,.11,.23-.85,3.55-1.7,5.32-2.55,5.32,0,1.78-3.4,2.66-10.2,2.66h-4.37c-2.91,0-4.37-.44-4.37-1.33-1.94,0-2.91-4.1-2.91-12.31v-4.66l.36-3.99c-.42-.22-1.03-.33-1.82-.33v-.33c1.21,0,1.82-.22,1.82-.67v-3.66c0-5.77,1.09-9.43,3.28-10.98-1.21,0-1.82-.22-1.82-.67h1.09c.49,0,.73,.22,.73,.67,.97,0,1.82-.55,2.55-1.66v-.33l-2.91-2.33c-2.18,0-3.28-4.77-3.28-14.31,.49-2.83,.73-4.49,.73-4.99l-.36-.67c.24,0,.36-.11,.36-.33v-2.99l-.36-.67c.24,0,.36-.11,.36-.33v-5.66c0-1.44,.24-2.99,.73-4.66,.67-2.66,2.97-3.99,6.92-3.99,0,.22,.12,.33,.36,.33h1.46c.42,0,.79-1,1.09-2.99-.24-.39-.36-.83-.36-1.33v-7.32l-.36-1.66c.24,0,.36-.11,.36-.33l-.73-9.32c.24,0,.36-.11,.36-.33-.24-.39-.36-.83-.36-1.33V1.33c-.12-.44-.73-.89-1.82-1.33-1.34,.22-2.43,.33-3.28,.33h-.73l-1.82-.33c-2.61,.72-5.28,2.27-8.01,4.66h-.73c-1.46-2-3.52-2.99-6.19-2.99-.24,.44-.36,.78-.36,1h-.73l-.73-.33c0-.22,.12-.33,.36-.33-.24-.39-.36-.83-.36-1.33h-.73c-.42,0-.67,.22-.73,.67l.73,1-2.18,1.33-1.82-.33c-.97,.11-1.46,.44-1.46,1V12.64l.36,.67c-.24,0-.36,.11-.36,.33v3.33l.36,3.33c-.24,0-.36,.11-.36,.33,.24,1.22,.36,2.22,.36,2.99v3.66l-.36,3.33c.49,.89,.85,1.33,1.09,1.33,6.07,0,9.1,1.66,9.1,4.99v2.99l.36,2.33c-.24,0-.36,.11-.36,.33l.36,.67-.36,2,.36,.67c-.24,.39-.36,.83-.36,1.33v7.32c0,.78-.12,1.78-.36,2.99l.73,3.99c-.23,0-.33,.11-.35,.3,.85,5.77,.33,11.46-.2,17.17,.2,.59,.4,1.17,.55,1.84-.24,0-.36,.11-.36,.33v3.33c0,.94,.12,2.16,.36,3.66-.24,.44-.36,.78-.36,1l.36,1.33-.36,1.33c0,.22,.12,.55,.36,1l-.36,2v7.65c0,2.05-.12,3.94-.36,5.66,0,2.11-1.94,3.99-5.83,5.66l-1.09-.67h-1.82c-.42,0-.79,.55-1.09,1.66l.36,.67c-.24,.39-.36,.83-.36,1.33l.36,.67c-.24,0-.36,.11-.36,.33v9.98l3.64-.33h5.1l.73-.33c0,.22,.12,.33,.36,.33h5.46l2.55,.33c0-.39,.61-.61,1.82-.67h4.01l.73,.33c0,.44-1.94,.89-5.83,1.33,0-.22-.12-.33-.36-.33h-.73c-1.4,0-2.25,.11-2.55,.33-1.34-.22-2.43-.33-3.28-.33h-3.64c-1.58,0-4.01,.11-7.28,.33,0-.22-.24-.33-.73-.33v4.99c0,.44,.24,.67,.73,.67h.36l1.09-.67-.36,2.33v.67c-1.03,0-1.76,.55-2.18,1.66,0,.67,.12,1.44,.36,2.33-.24,.44-.36,.78-.36,1,0,.44,.24,.67,.73,.67l2.18-.33,.73,.33c0,.44-.24,1.11-.73,2-.55,0-1.03-.11-1.46-.33l-.73,.33c0,.44,.24,.67,.73,.67h.73l.73-.33c0,.22,.12,.33,.36,.33h1.82c1.03,0,2-.22,2.91-.67,0-.22-.12-.33-.36-.33l.36-.67v-.33l-.36-.67,.73-.33h1.82c.12,0,.49,.22,1.09,.67h.36c1.7-1.05,2.55-1.72,2.55-2,.91,0,2.49,.89,4.73,2.66,1.46,0,3.16,.44,5.1,1.33,0-.22,.12-.33,.36-.33l-.36-.67h2.18v1h4.73v-1h6.55c1.7,0,2.55-1,2.55-2.99,.49,0,.73,.33,.73,1,1.09,0,2.06-.22,2.91-.67l1.09,1.33c1.58,1.22,3.64,2,6.19,2.33h2.91c.67,0,1.15-.78,1.46-2.33,0-.22-.12-.55-.36-1,.24,0,.36-.11,.36-.33v-4.66l-.36-.67c-.55,0-1.03,.11-1.46,.33-.42,0-.67-.22-.73-.67v-.33h1.82c.73-.33,1.09-.67,1.09-1,0-.11-.49-.67-1.46-1.66-.24,0-.61,.11-1.09,.33-1.64-.44-2.97-.67-4.01-.67v-.33c.24,0,.61-.11,1.09-.33,.73,0,1.58,.11,2.55,.33l.73-.33,1.46,.33h.36v-9.65l-.36-.67c-1.09,0-2.67,.11-4.73,.33-.18,0-.91-.11-2.18-.33,0-.67,1.34-1,4.01-1Zm-50.25,5.66l.36-1.66,.73,.33c-.36,.89-.73,1.33-1.09,1.33Zm11.29-1l-2.18,.33v-.67h2.18v.33Zm3.64-34.61c.24,0,.61-.11,1.09-.33h.36v.67h-1.46v-.33Zm5.1,34.27l-2.55,.33h-4.37v-.33c.61,0,2.31-.22,5.1-.67,.42,.22,1.03,.33,1.82,.33v.33Zm32.05,14.31c0-.39,.24-.61,.73-.67v1h-.73v-.33Zm-3.28-11.31c0,.22,.12,.55,.36,1h-.73c-.42,0-.67-.22-.73-.67,.24,0,.61-.11,1.09-.33Zm-5.46-1.33v.33l-1.82,.33h-1.82l-1.82-.33v-.33h5.46Zm-3.64,3.99v1.33c-.42,0-.67-.22-.73-.67,0-.39,.24-.61,.73-.67Zm-5.1-6.66c1.34,0,2.67-.11,4.01-.33,.42,.22,.91,.33,1.46,.33v.33h-5.46v-.33Zm0,11.65c.49,.22,.85,.33,1.09,.33v.33c0,.44-.24,.67-.73,.67,0-.22-.12-.55-.36-1v-.33Zm-.36-5.99c.67-1.11,1.15-1.66,1.46-1.66h.36c-.24,.89-.36,1.66-.36,2.33h-.36l-1.09-.67Zm.36,1.66v-.33l1.82-.33h.36c0,.5,.12,.94,.36,1.33-.55,0-1.03,.11-1.46,.33-.73-.33-1.09-.67-1.09-1Zm-3.64-9.98h2.18v.67c-.18,0-.91-.11-2.18-.33v-.33Zm-1.09,5.66l2.55-.33h2.18c0,.44-.24,.67-.73,.67h-.36c-.55,0-1.03-.11-1.46-.33l-.73,.33h-1.46v-.33Zm-25.13,17.3h-.36c-.42,0-.67-.22-.73-.67h1.09v.67Zm8.74-7.32c-.55,0-1.03,.11-1.46,.33l-5.83-.67-2.91,.67-.73-.33c0-.28,1.58-.72,4.73-1.33,1.27,.22,2,.33,2.18,.33,.24,0,1.21-.11,2.91-.33,.73,.33,1.09,.67,1.09,1v.33Zm0-2.66h-2.55v-.67h2.55v.67Zm0-2.66v-.67c.55,0,1.03-.11,1.46-.33l2.18,.33h3.28l.73-.33c0,.22,.12,.33,.36,.33h2.18v.67h-2.18c-1.94,0-4.25,.11-6.92,.33-.49-.22-.85-.33-1.09-.33Zm3.28,2c0,.44-.24,.67-.73,.67h-.73v-.67h1.46Zm-1.09,3.99c-.24,0-.49-.33-.73-1,.97-.44,2.31-.67,4.01-.67h.36c0,.39-1.21,.94-3.64,1.66Zm4.37-1.66l1.82-.33,1.46,1c-.67,1.33-1.15,2-1.46,2h-.36c0-.5,.12-.94,.36-1.33,0-.44-.61-.67-1.82-.67v-.67Zm4.01,4.66h-1.82c-.42,0-.67-.22-.73-.67v-.33h1.46l1.82-.33c.73,.5,1.09,.83,1.09,1l-1.82,.33Zm1.82-9.65c.24,0,.61-.11,1.09-.33,0,.22,.12,.33,.36,.33h1.46c1.03,0,2.37-.11,4.01-.33l1.46,.67c0,.33-.49,.67-1.46,1-1.58-.44-2.67-.67-3.28-.67h-3.64v-.67Zm1.82,6.99c-.42,0-.67-.22-.73-.67l1.82-.33c.73,.33,1.09,.67,1.09,1h-2.18Zm3.28-3.99h-3.28v-.67c.18,.22,1.27,.33,3.28,.33v.33Zm16.75,7.32h-.36c-.42,0-.67-.22-.73-.67h1.09v.67Zm-.73-2.33c.24,0,.61-.11,1.09-.33,.49,0,.73,.22,.73,.67-.67,0-1.4,.22-2.18,.67-2.67-.22-4.98-.33-6.92-.33h-3.64l-3.64,.33-.36-.67v-.33c4.37-.22,6.55-.44,6.55-.67,0,.22,.12,.33,.36,.33h2.55l3.64,.33c0-.22,.12-.33,.36-.33,0-.39-.24-.61-.73-.67v-.67h.36c0,.72,.61,1.28,1.82,1.66Zm-1.09-37.27v-1c.49,0,.73,.22,.73,.67v.33h-.73Z" fill="#fff"/><path d="M44.62,129.11l-.73-.33v-.67h.36c0,.22,.12,.55,.36,1Z" fill="#fff"/><rect x="6.02" y="129.44" width=".73" height=".33" fill="#fff"/><path d="M6.75,4.66h.73v-.67c-.49,.06-.73,.28-.73,.67Z" fill="#fff"/><rect x="6.75" y="137.43" width=".36" height=".67" fill="#fff"/><rect x="7.12" y="126.45" width=".36" height=".67" fill="#fff"/><path d="M8.57,125.12v.67c.49,0,.73-.22,.73-.67h-.73Z" fill="#fff"/><rect x="12.21" y="124.45" width="1.09" height=".33" fill="#fff"/><rect x="13.31" y=".67" width=".36" height=".67" fill="#fff"/><rect x="44.62" y="134.77" width=".36" height="1" fill="#fff"/><rect x="44.62" y="136.1" width=".36" height="1" fill="#fff"/><rect x="48.27" y="136.43" width="1.46" height=".33" fill="#fff"/><rect x="50.45" y="141.09" width=".73" height=".33" fill="#fff"/><rect x="55.55" y="129.78" width="1.09" height=".33" fill="#fff"/><path d="M117.76,72.23c-.68-.45-1.26-.69-1.76-.69,0-.22,.12-.33,.36-.33-.73-2.61-1.09-4.71-1.09-6.32,.24-.44,.36-.78,.36-1h-1.46c-.42,0-.91,.67-1.46,2,0,.39,.36,.94,1.09,1.66h-.73v1.33c0,.22,.12,.33,.36,.33,1.13,2.91,2.47,4.69,4.03,5.35,.09-.78,.18-1.56,.27-2.34Z" fill="#fff"/><path d="M117.38,75.56c-.45-.44-1.25-.99-2.47-1.69-.73-1.77-2.06-3.11-4.01-3.99-1.4,.89-2.61,2.33-3.64,4.33l-1.46-.33v-.33c0-.33,.49-.67,1.46-1,0-.22-.12-.33-.36-.33,0-.5,.36-1.16,1.09-2v-.67c0-.39-.24-.61-.73-.67l-.73,.33c0-.22-.12-.33-.36-.33l.36-.67c.24,0,.36,.11,.36,.33,.42,0,1.03-.22,1.82-.67,0-.22-.12-.55-.36-1v-.33c.24,0,.36,.11,.36,.33l.73-.33c-.18-1.77-.79-2.66-1.82-2.66v-1.33h.36v.67h1.09l.73-.33c0,.22,.12,.33,.36,.33l-.36,.67v.33c1.46-1.05,2.18-1.94,2.18-2.66h.73c.49,0,.73,.22,.73,.67,1.46-.89,2.18-2,2.18-3.33v-6.66l.36-3.99-.73-.33c.49-1.39,.73-2.27,.73-2.66-.24,0-.36-.11-.36-.33l.36-.67-.36-.67,.36-2v-7.65l-.36-1.66c.24,0,.36-.33,.36-1v-2.99c-.49-4.21-.85-6.32-1.09-6.32,0-4.16-1.7-6.49-5.1-6.99v-.33h.36c1.27,.22,2,.33,2.18,.33h.36c0-.44-.97-2.11-2.91-4.99-4.13-4.6-8.13-7.15-12.02-7.65-.85,0-1.94,.11-3.28,.33-.49-.22-.85-.33-1.09-.33-7.53,0-13.47,3.99-17.84,11.98-2,4.21-3.46,10.98-4.37,20.3,0,.22,.12,.55,.36,1-.24,.39-.36,.83-.36,1.33v21.63c0,1.55-.12,3.99-.36,7.32,.49,0,.73,.22,.73,.67-.53,0-1.81,1.48-3.83,4.41,1.14,1,1.66,2.54,.61,4.15-.08,.12-.16,.24-.24,.36,1.82,1.92,2.73,3.5,2.73,4.72,0,3.33-.24,10.87-.73,22.63,.24,0,.36,.11,.36,.33-.24,0-.36,.11-.36,.33v.33l1.46,1.33c-.97,0-1.46,.22-1.46,.67v5.32c0,.39,.61,.72,1.82,1l-1.82,1.33v.33l.36,.67c1.03-.44,1.76-.67,2.18-.67h.36v.33c-1.94,.28-2.91,.72-2.91,1.33v2c0,.67,1.21,1,3.64,1-.12,.67-1.09,1-2.91,1h-.73v2h1.09l1.09-.67c.55,.44,1.27,.67,2.18,.67,0,.44-.24,.67-.73,.67h-.36l-1.82-.33c0,.67-.24,1-.73,1,.73,6.21,2.18,9.32,4.37,9.32l.73-.33c.67,1.11,1.15,1.66,1.46,1.66h2.18l.73-.33-.73-1c1.03,0,2,.11,2.91,.33,.97-.22,1.94-.33,2.91-.33h.73l-1.46,1.33c-1.94,.22-2.91,.55-2.91,1v.33c1.76,1.33,3.22,2,4.37,2l.73-.33c.36,.89,.73,1.33,1.09,1.33h.73l-.36-.67v-.33h1.46l.73,.33c0,.44-.24,.67-.73,.67,0,.44,.24,.67,.73,.67h.36v-.67h.73v1h1.82l1.82-.33c0,.22,.12,.55,.36,1h-2.18v.33c0,.44,.36,.67,1.09,.67v.33h-.36c-.55,0-1.52-.33-2.91-1-.24,0-.61,.11-1.09,.33-.42-.22-.91-.33-1.46-.33-.79,.55-1.88,.89-3.28,1-1.7-1.05-2.55-1.72-2.55-2v-1h1.09v1.33h.36c.49,0,.73-.22,.73-.67,.73,.33,1.09,.67,1.09,1,.79-.44,1.4-.67,1.82-.67v-.67c-.42,0-1.03-.22-1.82-.67,0,.44-.24,.67-.73,.67h-.36c0-1.28-3.16-2.61-9.47-3.99h-.73v.33c1.27,2.16,2.73,3.83,4.37,4.99,.55,1.39,2.12,2.72,4.73,3.99,.12,0,.61-.11,1.46-.33v-.33c0-.5-1.82-1.39-5.46-2.66v-.67h2.55v.33h-.73v.67c5.04,1.89,7.59,2.99,7.65,3.33h-1.46l-2.55-.33v.67c1.94,.44,4.01,.67,6.19,.67h2.91c1.46,0,3.28-.33,5.46-1v-.67c-.18,0-1.76-.55-4.73-1.66v-.33c.55,0,1.03-.11,1.46-.33v.33l1.82-.33c0,1.16,.73,1.94,2.18,2.33l1.82-.33v-.67c-.97,0-1.46-.22-1.46-.67v-.33c.55,0,1.03,.11,1.46,.33,.49,0,.73-.33,.73-1h.36c0,.67,.24,1,.73,1,1.7-1.28,2.55-2.5,2.55-3.66,0-.67-.24-1.55-.73-2.66h.36c.49,0,.73,.55,.73,1.66,.49,0,.73-.33,.73-1,2.49-.61,4.43-5.05,5.83-13.31v-2.99h-1.09l-.73,.33-.36-.67c-.24,0-.36,.11-.36,.33h-2.91v-.33c2,0,3.1-.11,3.28-.33,0,.22,.12,.33,.36,.33,.49,0,.73-.22,.73-.67l.73,.33c.49,0,.73-.22,.73-.67v-.67c0-.44-.73-.67-2.18-.67v-.67h1.82c.49,0,.73-.22,.73-.67v-3.33c0-2.33,.12-5.88,.36-10.65-.49-.22-.85-.33-1.09-.33l1.09-1.33v-1.66h-.73v-.67l.73-1v-1c-.73,0-1.7,.33-2.91,1-1.94-1.33-3.4-2-4.37-2l.36-2,.73,.33c.49,0,.73-.22,.73-.67v-.67c-.97,0-1.7-.67-2.18-2l.36-1.33h.36l1.46,1-.36,.67v.33c.73,0,1.09,.33,1.09,1l1.82-.33h.73l1.82,.33,.73-3.66-.36-.67c0-4.06,.78-7.04,2.25-9.08,.06-.74,.14-1.47,.22-2.21Zm-2.84-46.61v1h-1.09c.36-.67,.73-1,1.09-1Zm-6.55,21.63c-.42,0-.67-.22-.73-.67v-.33h.73v1Zm-.73-33.94v-.33h1.09v1h-.36c-.42,0-.67-.22-.73-.67Zm5.83,31.94v.33c-1.03,0-2.12,.22-3.28,.67v-.67l1.82-.33h1.46Zm-2.55-28.95l-.36,1.66h-.73c0-.17-.36-1.05-1.09-2.66v-.33c.67,0,1.4,.44,2.18,1.33Zm-6.19-11.98h2.18v.33h-.73l.36,1.66v.33h-1.82v.67c1.27,2.22,2.97,3.33,5.1,3.33v.67l-.36,.67c-1.46-1.11-2.55-1.66-3.28-1.66-1.15-2-2-2.99-2.55-2.99v-1.33c.73,0,1.09-.55,1.09-1.66Zm-2.55-.67c.61,.67,1.09,1,1.46,1v.67c-.97-.55-1.46-1-1.46-1.33v-.33Zm-9.47,2c.24,0,.61,.11,1.09,.33,.24,0,.61-.11,1.09-.33v.33c0,.44-.24,.67-.73,.67h-1.46v-1Zm-2.55,1h.36c.79,.44,1.4,.67,1.82,.67v.67h-.36c-.79-.67-1.4-1-1.82-1v-.33Zm-4.01,20.3h.36c-.42,1.55-.91,2.33-1.46,2.33h-.73c.85-1.55,1.46-2.33,1.82-2.33Zm-9.83,94.84h-.36l.36-1.66h1.09c-.18,1.11-.55,1.66-1.09,1.66Zm4.01,.33h-.73l.36-1.66,.73,.33-.36,1.33Zm.36-17.97l-1.82,.33v-.67h1.82v.33Zm1.46,7.65c-.24,0-.61,.11-1.09,.33v-.67h1.09v.33Zm1.82,11.31h-.73v-1c.49,0,.73,.22,.73,.67v.33Zm1.82-6.99c0,.44-.24,.67-.73,.67h-1.46v-1h2.18v.33Zm1.46,12.98h-.36v-.67c.73,0,1.09-.22,1.09-.67h1.46c0,.28-.73,.72-2.18,1.33Zm1.46-12.64h-.73c-.42,0-.67-.22-.73-.67h1.46v.67Zm.36,2.66v.33c-.49-.22-.85-.33-1.09-.33v-1h.73c0,.22,.12,.55,.36,1Zm1.09,8.65h-.36c2.43-1.39,3.64-2.27,3.64-2.66,.42,.22,1.03,.33,1.82,.33v1.33c-1.82,.67-3.52,1-5.1,1Zm5.46-8.32c-.61,.5-1.34,1.39-2.18,2.66h-1.46l.73-1.66c0-.44-.36-.67-1.09-.67v-2.33c0-.39,.24-.61,.73-.67,.49,0,.73,.44,.73,1.33h1.09v-1c-.12-.44-.73-.89-1.82-1.33-.42,.22-.91,.33-1.46,.33h-.36c0-.28,1.09-.72,3.28-1.33h.36c.61,.44,1.09,.67,1.46,.67v.33c-.24,0-.61,.11-1.09,.33,.24,1.44,.61,2.55,1.09,3.33Zm.36,10.32l-2.18,.33c-1.7-.61-2.55-1.05-2.55-1.33,.55,0,1.03-.11,1.46-.33l.73,.33,1.09-.67c0,.67,.49,1,1.46,1v.67Zm.73-.33v-2.33l.36-.67c1.46,0,2.18,1,2.18,2.99l-1.82-.67c0,.44-.24,.67-.73,.67Zm3.64-4.33v.33h-1.82v-.33c.24,0,.61-.11,1.09-.33,0,.22,.24,.33,.73,.33Zm-.73-4.33v-.33h.73v1c-.42,0-.67-.22-.73-.67Zm-2.18,10.32l.36-.67c.49,0,.73,.22,.73,.67-.24,0-.61,.11-1.09,.33v-.33Zm1.82,4.99h-.36c-.42,0-.67-.22-.73-.67h1.09v.67Zm1.46,0c0-.72-.12-1.28-.36-1.66-.24,0-.36,.11-.36,.33-.42,0-.67-.22-.73-.67l.36-.67c-.24,0-.61-.11-1.09-.33l.36-1.33h1.09l-.36,.67,.36,.67h-.36c0,.67,.73,1,2.18,1,0,.22-.12,.33-.36,.33,0,.39,.24,.94,.73,1.66h-1.46Zm5.1-5.99c-.79-.67-1.4-1-1.82-1,.36-.67,.73-1,1.09-1,.49,0,.97,.67,1.46,2h-.73Zm-1.82-11.31v-.33c.49-.55,.73-1.11,.73-1.66h1.09c0,.5,.12,.94,.36,1.33-.24,.44-.36,.78-.36,1l-1.82-.33Zm2.55,6.66h-.36l-.73,.33v-.33c.49-.55,.73-1,.73-1.33h1.46l-.36,1.66-.73-.33Zm1.82,5.99h-1.09v-1h1.09v1Zm4.37-8.98l-.36,.67c-2.67-.22-4.13-.44-4.37-.67l.36-.67c2.31,.44,3.76,.67,4.37,.67Zm-1.46-6.99h-.36c-2.31-.83-3.64-1.83-4.01-2.99,.24,0,.36-.22,.36-.67h.36c0,.67,.73,1,2.18,1v.33h-.73v.67c.97,0,1.7,.44,2.18,1.33v.33Zm.36-1c-.42,0-.67-.22-.73-.67h1.09l-.36,.67Zm.73-8.65h-.73l-.36-2.33v-.33h.36c.49,0,.73,.22,.73,.67v2Zm-1.09-7.65c.42,.22,.91,.33,1.46,.33v.67c-.55,0-1.03,.11-1.46,.33l-.36-.67,.36-.67Zm-1.46,7.65h1.09c0,.44-.24,.67-.73,.67h-.36v-.67Zm0,1.33v.67c-.97,.11-1.46,.44-1.46,1-2.67-.22-4.01-.55-4.01-1,2.85,0,4.67-.22,5.46-.67Zm-1.46-23.29c-.73,0-1.09,.33-1.09,1h-1.09c0-1-.49-1.66-1.46-2,0,1.16-.12,3.38-.36,6.66,0,.44,.24,.67,.73,.67l.73-.33v.33c0,.5-.12,.94-.36,1.33l.36,.67c0,.22-.36,.44-1.09,.67v-.33l-.73,.33c0,2.11,.12,4.66,.36,7.65-.73,5.1-1.58,7.65-2.55,7.65,0,1.11-1.7,2-5.1,2.66v-.33c-1.09,0-2.18,.44-3.28,1.33h-.36v-1h-1.09c0,.67-.24,1-.73,1l.36,1.66h-.73v-.33c-1.21-1-1.82-1.77-1.82-2.33h-.36l-1.09,.67v-.33c-2.91-1.66-4.86-2.88-5.83-3.66l.36-.67v-2.33l-.36-.67c.24,0,.36-.11,.36-.33v-.67c0-1.88-.12-4.66-.36-8.32h-.73c-1.03,0-2,.22-2.91,.67l-1.46-.33-1.09,.67h-1.09l-.73-.33c0,.44-.24,.67-.73,.67l-1.82-.33c0-.39,.73-.83,2.18-1.33l1.82,.33,4.37-1c1.7,0,2.55-1.44,2.55-4.33l-.36-.67-2.18,1h-.36c0-.33,.49-.67,1.46-1,0-.55,.49-1.11,1.46-1.66v-2.66l.36-1.66c-.24,0-.36-.11-.36-.33l.36-1.33c0-.5-.12-.94-.36-1.33l1.09-4.66,1.01-1.01c.02-.1,.03-.2,.07-.3,.55-1.51,1.15-3.01,1.63-4.54-1.87-1.82-3.04-3.75-3.44-5.8,0-2.44,.24-10.54,.73-24.29,0-5.99,2.43-8.98,7.28-8.98h2.55l1.82-.33c0,.22,.12,.33,.36,.33l1.82-.33c5.58,0,8.38,2.11,8.38,6.32v5.32c0,1.16-.12,3.05-.36,5.66h1.82v.67c-.91,0-1.52,.78-1.82,2.33,.24,1.16,.36,1.83,.36,2l-.36,2c.24,.44,.36,.78,.36,1,0,3.66-.61,7.43-1.82,11.31l-4.01,3.99c0,.44,1.21,2,3.64,4.66h.36l1.46-1c0-.22-.12-.55-.36-1,0-.17,.61-.5,1.82-1v2c-1.46,0-2.18,.89-2.18,2.66,.24,.39,.36,.83,.36,1.33v3.66c0,.44,.24,.67,.73,.67l-.36,.67c.42,0,1.03,.33,1.82,1h.36v-.67h1.09v.67Zm3.28-4.33h-.73v-.33c0-.39,.24-.61,.73-.67v1Z" fill="#fff"/><path d="M102.89,127.45c0-.22-.12-.55-.36-1h.36c.49,0,.73,.22,.73,.67v.33h-.73Z" fill="#fff"/><path d="M103.98,115.13v-1h.36c.49,0,.73,.22,.73,.67v.33h-1.09Z" fill="#fff"/><rect x="73.39" y="89.18" width=".73" height=".33" fill="#fff"/><rect x="73.39" y="95.17" width=".73" height=".33" fill="#fff"/><rect x="73.39" y="124.12" width=".73" height=".33" fill="#fff"/><rect x="73.76" y="112.14" width=".36" height=".67" fill="#fff"/><rect x="74.12" y="118.79" width=".73" height=".33" fill="#fff"/><rect x="74.49" y="113.14" width=".73" height=".33" fill="#fff"/><rect x="77.04" y="67.55" width=".73" height=".33" fill="#fff"/><path d="M79.22,116.8h.73v-.67c-.49,.06-.73,.28-.73,.67Z" fill="#fff"/><rect x="83.59" y="5.99" width=".36" height="1" fill="#fff"/><path d="M86.14,116.8l-.36,.67v.33h1.09v-.33c0-.44-.24-.67-.73-.67Z" fill="#fff"/><rect x="87.96" y="135.1" width=".73" height=".67" fill="#fff"/><rect x="88.69" y="142.09" width=".36" height=".67" fill="#fff"/><rect x="90.51" y="142.75" width=".73" height=".33" fill="#fff"/><path d="M93.06,137.1l-.36,.67v.33h1.09v-.33c0-.44-.24-.67-.73-.67Z" fill="#fff"/><path d="M94.52,114.8v.67h.73c0-.44-.24-.67-.73-.67Z" fill="#fff"/><rect x="95.61" y="118.79" width=".73" height=".33" fill="#fff"/><rect x="98.52" y="115.8" width=".36" height=".67" fill="#fff"/><path d="M99.25,119.13c.06,.44,.3,.67,.73,.67h.73c0-.44-.24-.67-.73-.67h-.73Z" fill="#fff"/><path d="M99.25,132.77h.73v-.67c-.49,.06-.73,.28-.73,.67Z" fill="#fff"/><rect x="99.25" y="140.76" width=".73" height=".33" fill="#fff"/><rect x="100.71" y="121.12" width=".73" height=".33" fill="#fff"/><path d="M100.71,128.44v.67c.49,0,.73-.22,.73-.67h-.73Z" fill="#fff"/><rect x="101.07" y="115.47" width=".73" height=".33" fill="#fff"/><rect x="102.16" y="11.98" width=".73" height=".33" fill="#fff"/><rect x="103.98" y="94.17" width=".73" height=".33" fill="#fff"/><rect x="104.35" y="113.47" width=".73" height=".33" fill="#fff"/><rect x="104.35" y="116.46" width=".73" height=".67" fill="#fff"/><rect x="104.71" y="118.13" width=".73" height=".33" fill="#fff"/><rect x="105.08" y="115.47" width=".36" height=".67" fill="#fff"/><rect x="105.08" y="122.79" width=".36" height=".67" fill="#fff"/><path d="M105.08,136.43c.06,.44,.3,.67,.73,.67v-.67h-.73Z" fill="#fff"/><path d="M106.53,51.91l-.73,1.33h.36c.49-.22,.85-.33,1.09-.33v-.33c0-.44-.24-.67-.73-.67Z" fill="#fff"/><rect x="105.8" y="118.79" width=".73" height=".33" fill="#fff"/><path d="M106.17,91.84v.67h.73c0-.44-.24-.67-.73-.67Z" fill="#fff"/><rect x="106.53" y="15.64" width=".73" height=".33" fill="#fff"/><path d="M107.26,119.46c.06,.44,.3,.67,.73,.67h.36c0-.44-.24-.67-.73-.67h-.36Z" fill="#fff"/><rect x="107.26" y="128.78" width=".73" height=".33" fill="#fff"/><path d="M109.08,15.64v.67h.73c0-.44-.24-.67-.73-.67Z" fill="#fff"/><path d="M110.9,18.3v.33c.49,0,.73-.22,.73-.67v-.33c-.49,.06-.73,.28-.73,.67Z" fill="#fff"/><rect x="111.63" y="80.19" width=".73" height=".67" fill="#fff"/><rect x="113.82" y="102.16" width=".73" height=".33" fill="#fff"/><path d="M169.53,114.8h-.36l-1.82,.33v-.67l.36-.67,.73,.33h1.09l.73-.33c0-.39-.12-2.38-.36-5.99,0-5.88-2.43-13.2-7.28-21.96-5.07-7.31-7.7-11.95-7.96-13.97-.49,.04-.98,.01-1.41-.09-.51-.11-.95-.32-1.32-.64-.42-.25-.75-.58-.99-.99,.17,.2,.33,.39,.5,.59-.79-.92-1.85-1.73-2.45-2.78-.49-.86-.69-1.79-.63-2.7-.88-.92-1.71-2.03-2.49-3.38-5.34-8.04-8.01-14.81-8.01-20.3,0-4.33,2.79-7.43,8.38-9.32,2.17,.16,3.88,.49,5.18,.99,1.76-.89,4.27-.36,5.24,1.3,2.45,4.18,4.99,8.32,7.15,12.64,1.69,3.38,3.25,6.85,4.1,10.47l.18-.12c0-.22-.12-.55-.36-1l.36-1.66c-.49-2.94-.73-5.38-.73-7.32,0-.22-.36-.33-1.09-.33v-1.33l.73,.33h.36v-.33l-1.09-1.33v-1h1.09c0-.72-.12-1.28-.36-1.66l.36-2V19.3l.36-2.33c-.24,0-.36-.11-.36-.33l.36-.67-.36-.67,.36-.67c-.24-.39-.36-.83-.36-1.33V3.66c-.49-1.11-1.58-1.66-3.28-1.66v.33c-.85,0-3.03,1.22-6.55,3.66-5.64-2.44-8.68-3.66-9.1-3.66h-3.28c-10.44,0-16.75,5.99-18.94,17.97l.36,.67c-.73,2.44-1.09,5.21-1.09,8.32,0,.89,.12,1.78,.36,2.66-.24,.83-.36,1.72-.36,2.66v2c.18,5.66,1.52,11.54,4.01,17.64,6.31,12.26,9.47,18.8,9.47,19.63,0,.61-.36,2.16-1.09,4.66,.49,0,.73,.22,.73,.67,.24,0,.61-.11,1.09-.33l2.18,.33h.36v-1h.36l1.09,.67-.36,.67v.33c2.97,.67,6.98,5.99,12.02,15.97,.79,2.61,1.52,4.27,2.18,4.99v3.99c0,1.11-.73,3.22-2.18,6.32-1.7,2.22-4.86,3.33-9.47,3.33-3.52,0-6.43-2.11-8.74-6.32l-.73,.33h-.36v-1c0-.39,.24-.61,.73-.67,0-1.5-.49-3.05-1.46-4.66l.73-1c0-.44-.36-.67-1.09-.67l.36-2.33v-2l-.36-.67h.36c0-.22-.12-.55-.36-1,.24-.39,.36-.83,.36-1.33v-3.66c0-.39-.24-.61-.73-.67h-2.91c-3.88,0-5.83,.33-5.83,1v8.65l.36,.67h-.36l.36,1.66v5.66l.36,.67c-.24,0-.36,.11-.36,.33v21.63c0,.44,.61,.67,1.82,.67l-1.82,1.66v1.33l.36,.67c.24,0,.36-.11,.36-.33,1.94,.11,2.91,.44,2.91,1-1.09,0-1.82,.11-2.18,.33,0-.22-.36-.44-1.09-.67l-.36,.67,.36,2c-.24,.39-.36,.94-.36,1.66,0,.5,1.94,.83,5.83,1,.3,0,1.52-.11,3.64-.33,4.86,.22,8.01,.55,9.47,1h.73l.73-.33-.36-.67h4.01c2.85-.67,5.16-1,6.92-1l.73,.33v.33c-3.4,.5-5.1,.94-5.1,1.33l.36,.67-.73,.33h-.73l-2.18-.33c-.42,.17-1.88,.39-4.37,.67-1.27-.22-2-.33-2.18-.33-1.34,.22-2.31,.33-2.91,.33v.67c5.16,2,8.68,2.99,10.56,2.99,5.34-.33,8.01-1,8.01-2,.24,0,.36,.11,.36,.33,1.27-.17,2.49-.94,3.64-2.33h-1.46c0,.78-.97,1.22-2.91,1.33h-.36c0-.22,.12-.55,.36-1,0-.22-.24-.33-.73-.33v-.33c.24,0,.61-.11,1.09-.33,.36,0,.85,.22,1.46,.67h.36c.42,0,.79-.55,1.09-1.66h-1.82v-.67c.55,0,1.03-.11,1.46-.33l2.18,.33c.49,0,.73-.22,.73-.67l-.36-.67,1.09-.67c0-.44-.49-.67-1.46-.67v-.67h1.82c.67-.28,1.52-1.39,2.55-3.33,0-.22-.12-.55-.36-1,.36,0,.85-1,1.46-2.99-.49,0-.85-.67-1.09-2h.36l.73,.33c0-.39,.24-.61,.73-.67,0-.22-.12-.55-.36-1,.49-1.16,.85-2.61,1.09-4.33l-.36-2.33,.36-.67-.36-.67c0-.22,.12-.55,.36-1,0-.39-.24-.61-.73-.67Zm-4.01-104.82h.36c.49,0,.73,.22,.73,.67l-.36,.67c-.42,0-.67-.22-.73-.67v-.67Zm-8.74,69.88h-.73c-.42,0-.67-.22-.73-.67,.24,0,.61-.11,1.09-.33l.36,.67v.33Zm1.46,6.66c.97,.33,1.46,.67,1.46,1v1h-.73c0-.33-.24-.78-.73-1.33v-.67Zm-.36,9.32h.36l.73,.33c-.36,.67-.73,1-1.09,1v-1.33Zm-6.55,25.96l-.36,.67c-.42,0-.67-.22-.73-.67h1.09Zm-7.28,5.32h.36c.49,0,.73,.22,.73,.67-.24,0-.61,.11-1.09,.33l-.73-.33c0-.39,.24-.61,.73-.67Zm-3.64-8.32c.49,0,.73,.22,.73,.67h-1.46c0-.39,.24-.61,.73-.67Zm1.09,8.32v.67h-1.09v-.67h1.09Zm-2.18,2l1.82,.33-.36,.67c-.24,0-.61-.11-1.09-.33l-2.18,.33h-.73v-.67l1.82-.33h.73Zm-3.64-2.33h2.55c0,.44-.24,.67-.73,.67h-1.82v-.67Zm-1.46-19.97h1.09c0,.44-.24,.67-.73,.67h-.36v-.67Zm.73,11.31h.36v.67h-1.09c0-.39,.24-.61,.73-.67Zm-2.18-8.98c0-.39,.24-.61,.73-.67h1.46v.67h-2.18Zm-.36-1.66h1.09v.33c-.24,0-.61,.11-1.09,.33v-.67Zm-.36,9.32v1l-.73-.33c0-.39,.24-.61,.73-.67Zm-2.91,10.32l2.55-.33c.73,0,1.09,.22,1.09,.67-.24,0-.61,.11-1.09,.33-.97-.22-1.82-.33-2.55-.33v-.33Zm-1.82-17.97c.24,0,.61-.11,1.09-.33h.36v.67h-1.46v-.33Zm.36,16.64h-.36v-1.66l.73,.33-.36,1.33Zm-.36-8.32h1.09l-.36,.67c-.42,0-.67-.22-.73-.67Zm5.83,12.98h-2.18l-2.55-.33c.18-.67,1.15-1,2.91-1h.73l1.82,.33v.33c0,.44-.24,.67-.73,.67Zm1.46,4.66c-.42,0-.67-.22-.73-.67h1.46c0,.44-.24,.67-.73,.67Zm3.28-2.66c-2.18-.22-3.28-.55-3.28-1,.55,0,1.03-.11,1.46-.33,0,.28,.73,.5,2.18,.67l-.36,.67Zm12.38,3.99l-1.46-.33c-.24,0-.61,.11-1.09,.33-.42-.22-1.03-.33-1.82-.33v-.67c.79,0,1.4-.11,1.82-.33,2.43,.22,3.64,.55,3.64,1-.24,0-.61,.11-1.09,.33Zm9.1-4.33c-2.18,.61-3.28,1.16-3.28,1.66-1.09-.67-2.18-1-3.28-1-.24,0-.61,.11-1.09,.33-.85-.39-4.01-.72-9.47-1,0,.22-.12,.33-.36,.33-.97-.22-1.82-.33-2.55-.33v-.33l.36-.67c1.7,.22,2.79,.44,3.28,.67,.42-.22,.91-.33,1.46-.33h2.18c1.58,0,3.28,.22,5.1,.67,.91-.39,2.73-.72,5.46-1,0,.22,.36,.33,1.09,.33h1.09v.67Zm-.73-4.66l.36-1.33,.73,.33c-.36,.67-.73,1-1.09,1Zm.36-3.33h-.36l-3.64-.33v-.67l2.18-.33c.97,.44,1.82,.67,2.55,.67,0,.44-.24,.67-.73,.67Zm1.46-8.32c-.97,0-1.46,.22-1.46,.67-.73-.33-1.09-.67-1.09-1,.79,0,1.4-.11,1.82-.33,0,.22,.24,.33,.73,.33v.33Zm0-1.66h-.73c0-.22-.12-.55-.36-1-.49,0-.73,.44-.73,1.33h-.73v-1.33c.97-2,1.58-2.99,1.82-2.99,0,1.33,.24,2.22,.73,2.66v1.33Zm1.46,13.98h.73c.49,0,.73,.22,.73,.67v.67h-.73c0-.33-.24-.78-.73-1.33Zm2.55,4.99h-1.46v-.33c0-.39,.24-.61,.73-.67,.49,0,.73,.22,.73,.67v.33Zm.36-37.27v-1l.73,.33c0,.44-.24,.67-.73,.67Zm1.46,30.95h-.36c-.42,0-.67-.22-.73-.67l.36-.67c.49,0,.73,.22,.73,.67v.67Zm.36-24.62l.36-.67,.73,.33-.36,.67-.73-.33Z" fill="#fff"/><path d="M133.12,125.12l-1.46-.33v-.33h.36c.73,0,1.09,.22,1.09,.67Z" fill="#fff"/><path d="M129.84,139.76h-.36l-1.82,1.33-.73-.33c0,.22-.12,.33-.36,.33,.24,.44,.36,.78,.36,1h9.83c.73-.33,1.09-.67,1.09-1-5.34-.39-8.01-.83-8.01-1.33Z" fill="#fff"/><rect x="126.93" y="126.11" width=".36" height=".67" fill="#fff"/><path d="M128.02,126.45v.67c.49,0,.73-.22,.73-.67h-.73Z" fill="#fff"/><rect x="128.38" y="112.8" width=".36" height=".67" fill="#fff"/><rect x="128.75" y="112.14" width=".73" height=".33" fill="#fff"/><path d="M129.84,116.13v.33c.06,.44,.3,.67,.73,.67v-.33c0-.44-.24-.67-.73-.67Z" fill="#fff"/><path d="M129.84,125.12h.73v-.67c-.49,.06-.73,.28-.73,.67Z" fill="#fff"/><path d="M132.75,118.79c.06,.44,.3,.67,.73,.67v-.67h-.73Z" fill="#fff"/><rect x="132.75" y="132.1" width=".36" height=".67" fill="#fff"/><rect x="133.85" y="104.82" width=".73" height=".67" fill="#fff"/><path d="M135.67,37.93c.06,.44,.3,.67,.73,.67v-.67h-.73Z" fill="#fff"/><rect x="137.85" y="136.43" width=".73" height=".33" fill="#fff"/><rect x="141.49" y="118.13" width=".73" height=".33" fill="#fff"/><rect x="143.31" y="129.11" width="1.09" height=".33" fill="#fff"/><rect x="144.04" y="27.95" width=".73" height=".33" fill="#fff"/><rect x="145.5" y="9.65" width=".36" height=".67" fill="#fff"/><rect x="145.5" y="127.45" width=".73" height=".33" fill="#fff"/><rect x="146.59" y="120.13" width=".73" height=".33" fill="#fff"/><rect x="152.05" y="122.12" width=".36" height=".67" fill="#fff"/><rect x="154.97" y="141.42" width=".36" height=".67" fill="#fff"/><path d="M156.79,115.8v.67c.49,0,.73-.22,.73-.67h-.73Z" fill="#fff"/><rect x="157.52" y="108.15" width=".73" height=".33" fill="#fff"/><rect x="158.24" y="90.84" width=".36" height=".67" fill="#fff"/><rect x="158.97" y="128.78" width=".73" height=".33" fill="#fff"/><rect x="160.07" y="127.78" width=".36" height=".67" fill="#fff"/><rect x="160.43" y="117.8" width=".36" height=".67" fill="#fff"/><path d="M160.79,107.48v.67h.73c0-.44-.24-.67-.73-.67Z" fill="#fff"/><rect x="161.16" y="124.12" width=".73" height=".67" fill="#fff"/><rect x="161.52" y="139.43" width=".73" height=".33" fill="#fff"/><rect x="161.89" y="115.13" width="1.09" height=".33" fill="#fff"/><path d="M164.44,107.48h.36c.49,0,.73-.22,.73-.67h-.36c-.49,.06-.73,.28-.73,.67Z" fill="#fff"/><path d="M164.8,122.45v.33c.06,.44,.3,.67,.73,.67v-.33c0-.44-.24-.67-.73-.67Z" fill="#fff"/><path d="M165.89,124.12c.06,.44,.3,.67,.73,.67h.36c0-.44-.24-.67-.73-.67h-.36Z" fill="#fff"/><path d="M193.11,136.76v1.66l.36,.67c4.61,0,6.92-.55,6.92-1.66,.42,.22,.91,.33,1.46,.33l-.36,.67v.33h4.73l.73-.33c0-.39-.24-.61-.73-.67h-.73l-1.82,.33v-.67h-.36l-1.09,.67c0-.67-.24-1-.73-1h-1.46l-.73,.33c0-.33-1.09-.67-3.28-1v-.67l2.55-.33h3.64c0-.89-.61-1.66-1.82-2.33h-.36l-.73,.33c0-.22-.12-.33-.36-.33-.73,.33-1.09,.67-1.09,1-.49,0-.73-.33-.73-1h-3.64v2.33l.36,.67c-.42,0-.67,.22-.73,.67Zm1.82-1.33c.49,0,.73,.22,.73,.67h-1.46c0-.39,.24-.61,.73-.67Z" fill="#fff"/><path d="M220.06,135.1c.73,.44,1.58,.67,2.55,.67v.33h-2.18c0,.89-.36,1.33-1.09,1.33v1.33h.73c.24,0,1.21-.22,2.91-.67h1.09c1.7,.44,2.67,.67,2.91,.67,.49,0,.85-.78,1.09-2.33l-.73,.33h-.36v-1h-1.46v.67h-.36v-.33c.24-.39,.36-.83,.36-1.33s-1.21-.94-3.64-1.33c0,.44-.24,.67-.73,.67h-.73c0-.5-1.09-1.39-3.28-2.66-1.7,.28-2.55,.61-2.55,1-1.7,0-2.55,.44-2.55,1.33-.49,0-.73-.33-.73-1h-.36v.67h-2.18l-.73,.33,.36,.67c.24,0,.61-.11,1.09-.33l.73,.33c.49,0,.73-.22,.73-.67,.42,.22,.91,.33,1.46,.33v.67h-.73c0,.44,.24,.67,.73,.67h2.55l3.64,.33c0-.28,.49-.5,1.46-.67Z" fill="#fff"/><path d="M229.89,117.46c-.3-1.55-.67-2.33-1.09-2.33s-.67,.22-.73,.67c-.36,0-.73-.44-1.09-1.33v-.33l1.82,.33c.49,0,.73-.22,.73-.67v-1.66h-1.82v-1c1.09,0,1.82-.11,2.18-.33l-.36-1.66v-5.99h-2.91c-.42,0-.67-.22-.73-.67,.55,0,1.03-.11,1.46-.33,.42,.22,.91,.33,1.46,.33h.73v-1.66l-.36-.67c.24,0,.36-.11,.36-.33v-.33h-3.64c0-.39,.24-.61,.73-.67h2.55c0-.5,.12-.94,.36-1.33-.24-3.94-.36-7.15-.36-9.65,0-.39-.24-.61-.73-.67h-4.01l-.73,.33v-.33c-.24,0-.61,.11-1.09,.33-.42-.22-.91-.33-1.46-.33s-.91,1-1.09,2.99l.36,.67-.36,.67c0,.22,.12,.55,.36,1-.24,4.11-.36,7.54-.36,10.32v.33l-.36,1.66c.24,0,.36,.11,.36,.33,0,.89-.49,2.66-1.46,5.32,0,.22,.24,.33,.73,.33v.33l-2.18,.33v.67h.73v.67l-1.82-.33c-2.49,.89-4.07,1.33-4.73,1.33-.42,0-.67-.22-.73-.67-1.7,0-4.37,.11-8.01,.33l-1.46-.33c-.42,.22-1.03,.33-1.82,.33h-4.01c-.12,0-.73-.44-1.82-1.33l.36-.67-.73-1c.24,0,1.46,.22,3.64,.67h.36c0-.22-.12-.33-.36-.33-.55-3.99-1.15-5.99-1.82-5.99h-.36c-.42,0-.67,.22-.73,.67-.42,0-.67-.22-.73-.67v-.67c.73,0,1.7-.22,2.91-.67,0-.33-.12-2.11-.36-5.32,0-.55,.12-2.22,.36-4.99-.24,0-.36-.11-.36-.33h.36c0-1.83-.12-3.6-.36-5.32,0-.78,.12-1.77,.36-2.99,0-3.77,1.09-5.66,3.28-5.66h.73c1.16,0,2,.8,2.54,2.36,3.27-2.67,7.18-4.75,11.34-5.91,.06-.02,.13-.02,.19-.03,.48-.46,.99-.92,1.6-1.35-.19-.11-.37-.22-.54-.35-3.68-2.8-7.55-5.38-11.07-8.36-.35-.3-.7-.6-1.05-.91-.6,1.68-1.59,2.57-3.01,2.57h-1.82c-1.7-.83-2.55-2.61-2.55-5.32v-1.33c0-.44-.49-.67-1.46-.67v-.33c.73,0,1.09-.22,1.09-.67v-.67c-1.15-1.11-2.49-1.66-4.01-1.66,.24-.44,.36-.78,.36-1h.73l1.09,1.33h.36c.49,0,.97-.89,1.46-2.66l-3.64-.67c-.24,.39-.36,.83-.36,1.33h-.73v-1.33h-1.82l.73-1.33-.36-.67-1.09,.67c0-.67-.24-1.44-.73-2.33-.24,0-.36,.11-.36,.33l-.73-.33h-.36c0,.44-.24,.67-.73,.67v1c0,1.28,.12,2.05,.36,2.33-.24,1.22-.36,2.22-.36,2.99v8.65l.36,.67c0,2.83-1.94,4.94-5.83,6.32v.33c4.13,1.55,6.19,4.33,6.19,8.32-.24,2.44-.36,4.55-.36,6.32v.33h.73c2.61-3.99,4.07-5.99,4.37-5.99h.36c0,1.16-.85,2.27-2.55,3.33-1.4,2.66-2.37,3.99-2.91,3.99l.36,1.66c-.24,3.88-.36,6.21-.36,6.99,0,.67,.36,1,1.09,1v.33c-.73,0-1.09,.22-1.09,.67v.33c0,.5,.12,.94,.36,1.33-.24,.39-.36,.83-.36,1.33v.67c0,.67,2.43,1,7.28,1v.33l-2.18,.33c-2.49-.22-3.95-.33-4.37-.33h-.36c-.55,3.49-1.15,5.82-1.82,6.99,1.7,0,2.67,.11,2.91,.33,0,.44-.24,.67-.73,.67h-2.55c-1.34,0-3.16,.22-5.46,.67-1.94,0-2.91,.67-2.91,2v1.66c0,.44,.24,.67,.73,.67h2.55l2.55-.33c.24,1.11,.97,1.66,2.18,1.66h.36c0-.22-.12-.33-.36-.33,0-.39,.24-.61,.73-.67h2.91c1.7,0,2.55-.89,2.55-2.66h.36l.73,.33c-.49,.94-.73,1.61-.73,2h1.09c2.73,0,6.25-.11,10.56-.33,.49,0,.73-.33,.73-1h2.55c0,.28,.61,.72,1.82,1.33-2.91,.5-4.86,.94-5.83,1.33-.42-.22-.91-.33-1.46-.33h-1.82c-2.79,0-7.04,.11-12.75,.33,0,.39,1.7,.94,5.1,1.66v.67c-2.12,0-6.37-1-12.75-2.99-1.21,0-1.82,1.22-1.82,3.66l.36,1.66c-.24,0-.36,.11-.36,.33,.24,0,.36,.11,.36,.33,.49,0,.73-.22,.73-.67l.73,.33h.73v-2.99h.36v.33c0,2.22,2.18,3.33,6.55,3.33l-.73,1c-.42,0-.67-.22-.73-.67-2.91,.22-4.37,.55-4.37,1,2.97,.67,4.67,1,5.1,1v.33h-.36c-1.64-.22-2.97-.33-4.01-.33v.33c.49,.5,.73,1.16,.73,2h1.46c.97-.39,1.46-.83,1.46-1.33h1.82v.33h-.73l-1.09,2.33-3.64-.33h-.73c-1.21,.89-1.94,1.33-2.18,1.33h-.36v-.67c.3-.72,1.27-1.39,2.91-2v-.33c0-1-1.09-1.77-3.28-2.33-.42,0-.67,.22-.73,.67v1c0,.67,.49,1,1.46,1v.33h-.36l-.73-.33c0,.22-.12,.33-.36,.33,0,.22,.12,.33,.36,.33l-.36,.67v1l.36,.67c-.24,0-.36,.11-.36,.33v2.33l.36,.67c-.24,0-.36,.11-.36,.33v.67l.36,1.66c-.24,0-.36,.11-.36,.33,0,.67,.61,1.11,1.82,1.33l2.18-.33h3.28l.73-.33c0,.22,1.09,.44,3.28,.67l2.18-.33,1.82,.33c0-.22,.49-.33,1.46-.33v-1.66h-1.82c-.85,0-1.94-.11-3.28-.33-.49,.22-.85,.33-1.09,.33l-2.18-.33v-.67c.49,0,1.21-.22,2.18-.67,1.03,.44,1.76,.67,2.18,.67l2.18-1.66h.73l.73,.33,.36-.67v-.67c0-.39-.24-.61-.73-.67l.73-2c0-1.16-1.34-2.27-4.01-3.33v-.33c.42,0,1.03-.22,1.82-.67,.42,.22,.91,.33,1.46,.33v-.33l-.36-.67c.97,0,1.46-.78,1.46-2.33-.24,0-.36-.11-.36-.33,.24-.39,.36-.83,.36-1.33h.36c0,1.16,.12,2.16,.36,2.99-.24,0-.36,.11-.36,.33,0,.44,.61,1,1.82,1.66v.33c-.24,0-.61-.11-1.09-.33l-.73,.33c.24,2.27,.73,3.83,1.46,4.66l1.82-.33v-.67h-.73v-.33l.36-.67c1.7,.5,2.55,.94,2.55,1.33l.73-.33-.36-.67c-2.43-.83-3.64-1.5-3.64-2,.73,0,1.09-.44,1.09-1.33h.73c.61,0,2.06,.33,4.37,1v.67l-1.82-.33c-.73,0-1.09,.22-1.09,.67v.67c.61,0,1.7-.22,3.28-.67l.73,.33c0-.22,.12-.33,.36-.33,0-.44-.36-.67-1.09-.67v-.33l.36-.67c.24,0,.36,.11,.36,.33l.73-.33h.36c0,.22-.12,.33-.36,.33,0,.44,.24,.67,.73,.67h.36v-.67h.73c.42,0,.91,.67,1.46,2,1.46,0,2.18-.33,2.18-1h.36c0,.55,.97,1,2.91,1.33,5.1,.61,7.65,1.28,7.65,2h.36v-1h.36l1.09,.67h.36l.73-.33c0,.22,.12,.33,.36,.33,.49,0,.73-.22,.73-.67v-.67c-.55,0-1.03-.11-1.46-.33l.36-.67c.24,0,.61,.11,1.09,.33l.73-.33c0,1.33,.24,2,.73,2l.73-.33c0,.22,.12,.33,.36,.33h1.09c0-.67,.24-1,.73-1h.36v.67c.24,0,.36-.11,.36-.33,.24,0,.36,.11,.36,.33l.73-.33c0-.22-.12-.33-.36-.33,.3-2,.55-3.22,.73-3.66-.24-.39-.36-.83-.36-1.33v-6.32l.36-1.66Zm-30.59-49.25h.36v1.33l-1.82,2c-.42,0-.67-.22-.73-.67,1.46-1.33,2.18-2.22,2.18-2.66Zm-8.74-12.31l-.73-.33c0-.39,.24-.61,.73-.67v1Zm-1.82,43.59c0,.44-.24,.67-.73,.67v-1h.73v.33Zm2.55-2.33h-1.09v-1.33h.36c.49,0,.73,.22,.73,.67v.67Zm-4.73,17.64h-2.18v-.33h2.18v.33Zm.36-4.99h-.73c-.42,0-.67-.22-.73-.67h1.46v.67Zm2.18,3.33v-.67h.73c.49,0,.73,.22,.73,.67h-1.46Zm2.91,1.66h-1.82v-.33h1.82v.33Zm4.73-41.93v1c-.91,1.33-1.52,2-1.82,2h-.73c.91-1.66,1.76-2.66,2.55-2.99Zm-2.55,.33h.36v1h-.73c.24-.44,.36-.78,.36-1Zm-2.55,7.32v-1l1.46-1.66-.36-.67h1.09v.33c-1.15,2-1.88,2.99-2.18,2.99Zm10.92,34.27c-.24,0-.61,.11-1.09,.33,0-.22-.24-.33-.73-.33v-.33h1.82v.33Zm-22.94,22.63h-.73c-.42,0-.67-.22-.73-.67l-1.09,.67h-.36v-.33c0-.44,.97-.78,2.91-1v1.33Zm.73-.67h-.36c.24-.44,.36-.78,.36-1h1.09c-.36,.67-.73,1-1.09,1Zm1.82-1.66h-.73l-.73-2h-.73l-.73,.33c.49-1.22,.73-2.11,.73-2.66h.73c0,.94,.49,2.27,1.46,3.99v.33Zm6.92-2c-.24,0-.61-.11-1.09-.33l-.73,.33-2.55-1.66v-.33c.24,0,.36,.11,.36,.33l1.82-.33h.73l.73,.33-.36,.67v.33h1.09v.67Zm0-4.33v.67l-1.82,.33h-.36v-.33c0-.39,.24-.61,.73-.67h1.46Zm10.92-6.99h-2.18l-.73,.33c-1.7-.28-2.55-.61-2.55-1v-.67h.36c.85,0,1.94,.11,3.28,.33l.73-.33c0,.22,.36,.33,1.09,.33v1Zm22.94-22.63h1.82v.33l-1.82,.33v-.67Zm-2.55,8.65h.73v.67c-.36,.67-.73,1-1.09,1l.36-1.66Zm-6.92,9.98h-1.46l-2.55,.33c0-.44-.85-.67-2.55-.67v-.33c.24,0,.61-.11,1.09-.33l1.46,.33,1.82-.33c.36,.22,1.09,.33,2.18,.33v.67Zm1.46,3.33v-.67h.36c.49,0,.73,.22,.73,.67h-1.09Zm-1.09-3.33v-.67h1.82v.67h-1.82Zm7.65,4.66h-.36v-.67h1.09c0,.44-.24,.67-.73,.67Zm.73-6.66h-.73v.67h.73v.33h-1.46v-1h-.36c-.73,.33-1.09,.67-1.09,1-.67-.44-2.85-1-6.55-1.66v-.33h1.09c.67,0,1.4,.22,2.18,.67l.73-.33c0,.22,.36,.44,1.09,.67,1.52-.44,2.97-.67,4.37-.67v.67Zm2.91,5.66h-.36v-.67h1.09c0,.44-.24,.67-.73,.67Zm1.09-5.66c-.42-.22-.91-.33-1.46-.33v-.33h1.46v.67Zm.36-2v.67l-2.18,.33c-.24-.44-.36-.78-.36-1h-.36l-3.64-.33v-.67c2.25,.11,3.7,.44,4.37,1h.36l1.82-1.33,.36,.67c-.73,0-1.09,.22-1.09,.67h.73Z" fill="#fff"/><path d="M228.44,139.09v.67c-.24,0-.61-.11-1.09-.33-1.58,0-2.91,.44-4.01,1.33,0-.89-1.21-1.33-3.64-1.33-.97,.55-1.46,1-1.46,1.33,2.49,2.44,5.28,3.66,8.38,3.66h.36c0-.89-.61-1.33-1.82-1.33,0-.67,1.21-1,3.64-1v-.67h-.73v-1c.24,0,.36,.11,.36,.33,.49,0,.73-.22,.73-.67v-.33c0-.39-.24-.61-.73-.67Z" fill="#fff"/><path d="M208.77,142.42v-.33h1.46v-.67c-.55,0-1.03,.11-1.46,.33-.85-.44-1.46-1.11-1.82-2-3.1,.22-4.79,.44-5.1,.67,0-.22-.12-.33-.36-.33l-2.55,1.66c0-.72-.61-1.39-1.82-2h-.73v1h-1.09c-.24,0-.36,.22-.36,.67-.73,0-1.09-.44-1.09-1.33-.36,0-.73,.44-1.09,1.33,.49,0,.73,.55,.73,1.66h.36c.73,0,1.09-.44,1.09-1.33h.73v2l1.82,.33c2.67-.28,4.01-.83,4.01-1.66h.36c0,.33,.61,1.11,1.82,2.33,.49,0,.73-.22,.73-.67,.49,0,.73,.22,.73,.67l6.19-1v-.67h-1.82c-.42,0-.67-.22-.73-.67Zm-5.46-.33l-.73-.33c.49-.55,.73-1,.73-1.33h.36c0,.22,.12,.55,.36,1-.42,0-.67,.22-.73,.67Zm1.46,1h-.73v-.33c0-.39,.24-.61,.73-.67v1Z" fill="#fff"/><path d="M189.11,140.76c0-.39-.24-.61-.73-.67h-.36c-2.18,0-3.28,.44-3.28,1.33h-.73v-.33c0-.67-1.46-1-4.37-1h-2.18c-.42,0-.67,.22-.73,.67v.33l.36,.67c-.97,.33-1.46,.67-1.46,1v1c0,.44,.24,.67,.73,.67h2.18v-.67h1.09l1.46,1h.73c0-.67,.36-1,1.09-1,0,.22,.12,.33,.36,.33,1.03,0,2.25-.55,3.64-1.66,0-.22-.12-.33-.36-.33,0-.28,.85-.72,2.55-1.33Z" fill="#fff"/><path d="M175.63,30.28c0,.55,1.58,.89,4.73,1,2.43,0,4.13,2,5.1,5.99-.24,.39-.36,.94-.36,1.66h.73v.33l-.73,1v1.66h1.09c0-.55,.49-1.55,1.46-2.99h-1.46v-.67c0-.33,.49-.67,1.46-1l.73,.33v-2c.49,.22,.85,.33,1.09,.33v.33l-.36,.67c.24,0,.61-.11,1.09-.33h.36c0,.44-.61,1.11-1.82,2h1.09c1.27-1.77,2.37-2.66,3.28-2.66v.67h-1.09v.67l1.82,.33c.24,0,.36-.22,.36-.67l.73,.33h.36c2.43-3.27,3.64-5.05,3.64-5.32,.49,0,.73,.22,.73,.67,.97-.89,1.82-1.33,2.55-1.33v-.33l-.36-.67c-.24,0-.61,.11-1.09,.33h-.73v-.33c1.27-.44,2-.67,2.18-.67v-.67c-.67,0-1.76,.33-3.28,1,0-.22-.24-.33-.73-.33v-1.66l-1.09,.67c0-.44,.73-1.44,2.18-2.99l-.36-.67c.24,0,.36-.11,.36-.33v-.33h-.73c0,.89-.24,1.33-.73,1.33h-.73l-.36-1.66c.49-.72,.73-1.28,.73-1.66h.36v1l-.36,.67,.73,.33h.36l-.36-.67c.24,0,.61-.11,1.09-.33l.73,.33c.49,0,.73-.22,.73-.67s-.36-.67-1.09-.67v-.67h1.09v-2c2.25,0,3.7-.89,4.37-2.66h.36c0,1.11,.24,1.66,.73,1.66,0-.67,.36-1,1.09-1,0,1,.12,1.66,.36,2-.42,0-.67,.22-.73,.67-.24,0-.36-.11-.36-.33l-.73,.33c.24,.44,.36,.78,.36,1,.24,0,.36-.11,.36-.33,.24,0,.61,.11,1.09,.33,.24,0,.36-.44,.36-1.33h.36c0,1.55,.24,2.33,.73,2.33h.36l-.36-.67c.49,0,1.21-.22,2.18-.67h.36c0,.44-.36,.67-1.09,.67,0,.44,.24,.67,.73,.67l1.09-.67h.73v.33c-.97,1.05-1.46,1.94-1.46,2.66,.36,0,.85,.22,1.46,.67h.36c.49,0,.73-.33,.73-1,.61,.44,1.09,.67,1.46,.67v.67h-.36l-.73-.33c-.73,.5-1.09,.83-1.09,1,0,.44,.36,.67,1.09,.67,0,.44-.24,.67-.73,.67l.36,.67,1.46-1.33c0,.72,.12,1.28,.36,1.66h-.36l.36,1.66v.33h-.73l-1.09-.67c-.73,.33-1.09,.67-1.09,1-.24,0-.61-.11-1.09-.33-.42,0-.67,.22-.73,.67v.67h1.09v-.67h.73c0,.5,1.09,1.05,3.28,1.66,2.67,1.5,4.01,6.27,4.01,14.31-.24,.39-.36,.94-.36,1.66v2.33c0,.78,.12,1.78,.36,2.99-.24,.28-.36,1.05-.36,2.33v1c0,.44,.24,.67,.73,.67h4.37l1.82-.33c0,.22,.36,.33,1.09,.33h.36c.49,0,.85-.89,1.09-2.66l-.36-2.33,.36-2.99c-.24,0-.36-.11-.36-.33,.24,0,.36-.11,.36-.33v-3.33c0-.5-.12-.94-.36-1.33,.24-.39,.36-.83,.36-1.33v-3.99l-.73-1,.73-1V15.97c0-.39-.24-.61-.73-.67l.73-1V1l-.73-1c-.61,0-1.46,.33-2.55,1h-.36V.33h-1.46c-3.88,2.22-6.07,3.33-6.55,3.33-1.76-1.33-4.67-2.55-8.74-3.66-9.29,0-15.23,1.33-17.84,3.99h-.36c-2.61-2.66-6.74-3.99-12.38-3.99-.49,.22-.85,.33-1.09,.33,0-.22-.12-.33-.36-.33-.97,.11-1.46,.44-1.46,1V5.32c0,3.16-.12,5.49-.36,6.99,.24,1.89,.36,4.33,.36,7.32v10.65Zm46.25-8.65c0-.44,1.21-1.66,3.64-3.66h.36c-.73,.78-1.09,1.66-1.09,2.66h-1.09l-1.46,1h-.36Zm4.37,13.64l.73,.33-.36,1.33-.73-.33,.36-1.33Zm-.73-8.98h-.36c-.42-.22-.91-.33-1.46-.33v-.67h.36c.61,.44,1.09,.67,1.46,.67v.33Zm1.09,12.31l-.73-.33c.36-.67,.73-1,1.09-1h.36l-.73,1.33Zm.73-8.98c0,.44-.24,.67-.73,.67v-1h.73v.33Zm1.46-13.64c-.12,.44-.73,.89-1.82,1.33h-.36c.49-.83,1.21-1.39,2.18-1.66v.33Zm-5.1-9.65l1.46,1h.36c.49,0,.73-.22,.73-.67v-1.33c0-.28-.73-.83-2.18-1.66l.36-.67,4.37,3.66v.33l-.73-.33h-.73c-.42,0-.79,.55-1.09,1.66-1.21-.67-2.06-1-2.55-1v-1Zm-.36,1.33h.36v1h-1.46c.36-.67,.73-1,1.09-1Zm-2.18,.67c.49,0,.73,.22,.73,.67v.33h-.73v-1Zm-1.82,15.64c0-.39,.24-.61,.73-.67h.36v.33c-.36,.67-.73,1-1.09,1v-.67Zm-5.83-2h.73v1.66c-.42,0-.67-.22-.73-.67v-1Zm-2.91-7.65h.36v.67c0,.67-.24,1-.73,1l.36-1.66Zm.73,2v.67h-.36c-.42,0-.67-.22-.73-.67h1.09Zm-14.57,6.32c-.49-.22-.85-.33-1.09-.33v-.33l.73-1,.73,.33-.36,1.33Zm1.82-6.66c.73,0,1.09-.33,1.09-1h.36c1.46,.94,2.18,1.61,2.18,2l.73-.33h.36l-.36,1.66-.73-.33h-.36l-.73,.33c0-.94-.85-1.5-2.55-1.66v-.67Zm-2.91,1.33c.49,.22,.85,.33,1.09,.33l-.73,1v1c.73,0,1.58-.22,2.55-.67v.67c-1.21,0-1.82,.22-1.82,.67-.97,0-1.58-.44-1.82-1.33l.73-1.66Zm-4.73,17.3c.24,0,.61-.11,1.09-.33l.36,.67v.33h-1.46v-.67Zm-4.73,2l.36-.67c-.24,0-.36-.11-.36-.33l1.82,.33c0,.39-.61,.72-1.82,1v-.33Z" fill="#fff"/><rect x="176.36" y="122.79" width=".73" height=".33" fill="#fff"/><path d="M177.09,119.13v.33c.06,.44,.3,.67,.73,.67h.36c0-.33-.36-.67-1.09-1Z" fill="#fff"/><rect x="177.82" y="133.1" width=".73" height=".33" fill="#fff"/><rect x="178.55" y="141.09" width=".73" height=".33" fill="#fff"/><path d="M180.37,141.75c.06,.44,.3,.67,.73,.67v-.67h-.73Z" fill="#fff"/><path d="M181.82,135.43v.67c.06,.44,.3,.67,.73,.67v-.67c0-.44-.24-.67-.73-.67Z" fill="#fff"/><rect x="182.92" y="131.11" width="1.09" height=".33" fill="#fff"/><path d="M186.56,41.93h.36v.67c0,.44-.24,.67-.73,.67h-.36v-.67c.06-.44,.3-.67,.73-.67Z" fill="#fff"/><rect x="185.83" y="78.2" width="1.46" height=".33" fill="#fff"/><rect x="186.56" y="52.24" width=".73" height=".33" fill="#fff"/><rect x="186.56" y="53.24" width=".36" height=".67" fill="#fff"/><rect x="186.92" y="6.99" width=".36" height=".67" fill="#fff"/><rect x="187.29" y="55.57" width=".36" height=".67" fill="#fff"/><rect x="188.74" y="10.98" width="1.46" height=".33" fill="#fff"/><rect x="188.74" y="125.78" width=".36" height=".67" fill="#fff"/><rect x="189.84" y="122.79" width=".36" height="1" fill="#fff"/><path d="M189.84,131.77c.06,.44,.3,.67,.73,.67v-.67h-.73Z" fill="#fff"/><rect x="190.2" y="111.81" width=".73" height=".33" fill="#fff"/><path d="M190.93,140.42c.49,.06,.73,.28,.73,.67h-.73v-.67Z" fill="#fff"/><rect x="191.29" y="37.93" width=".73" height=".33" fill="#fff"/><path d="M191.29,110.14c.06,.44,.3,.67,.73,.67h.73c0-.44-.24-.67-.73-.67h-.73Z" fill="#fff"/><path d="M191.66,102.49v.67c.49,0,.73-.22,.73-.67h-.73Z" fill="#fff"/><rect x="193.84" y="13.31" width=".73" height=".33" fill="#fff"/><rect x="194.57" y="20.96" width=".36" height=".67" fill="#fff"/><rect x="194.57" y="35.94" width=".73" height=".33" fill="#fff"/><rect x="196.39" y="29.28" width=".73" height=".33" fill="#fff"/><path d="M196.39,68.88c.06,.44,.3,.67,.73,.67h.73c0-.44-.24-.67-.73-.67h-.73Z" fill="#fff"/><path d="M196.75,30.95v.33c.06,.44,.3,.67,.73,.67h.36c0-.33-.36-.67-1.09-1Z" fill="#fff"/><rect x="197.12" y="142.42" width=".73" height=".67" fill="#fff"/><path d="M199.3,28.28h.36v.33c0,.44-.24,.67-.73,.67h-.36v-.33c.06-.44,.3-.67,.73-.67Z" fill="#fff"/><path d="M198.94,13.98v.67c.49,0,.73-.22,.73-.67h-.73Z" fill="#fff"/><rect x="198.94" y="114.47" width="1.09" height=".33" fill="#fff"/><rect x="199.67" y="25.96" width=".73" height=".67" fill="#fff"/><path d="M201.85,2.33v.67c.49,0,.73-.22,.73-.67h-.73Z" fill="#fff"/><rect x="202.22" y="71.21" width=".73" height=".33" fill="#fff"/><path d="M202.22,130.11h.36c.49,.06,.73,.28,.73,.67v.67h-.36c-.49,0-.73-.22-.73-.67v-.67Z" fill="#fff"/><path d="M202.58,9.32c.06,.44,.3,.67,.73,.67h.36c0-.44-.24-.67-.73-.67h-.36Z" fill="#fff"/><rect x="202.58" y="29.95" width=".73" height=".33" fill="#fff"/><path d="M208.04,18.3h.73v-.67c-.49,.06-.73,.28-.73,.67Z" fill="#fff"/><path d="M209.5,18.3v.33c.06,.44,.3,.67,.73,.67v-.33c0-.44-.24-.67-.73-.67Z" fill="#fff"/><path d="M209.86,20.96h.73v-.67c-.49,.06-.73,.28-.73,.67Z" fill="#fff"/><rect x="210.23" y="114.14" width="1.09" height=".33" fill="#fff"/><rect x="210.59" y="17.64" width="1.09" height=".33" fill="#fff"/><path d="M213.87,136.76v.33c0,.44-.24,.67-.73,.67v-.33c.06-.44,.3-.67,.73-.67Z" fill="#fff"/><rect x="214.6" y="18.3" width=".36" height=".67" fill="#fff"/><rect x="218.6" y="20.63" width=".36" height=".67" fill="#fff"/><rect x="220.79" y="141.09" width=".73" height=".33" fill="#fff"/><rect x="221.52" y="130.44" width=".36" height=".67" fill="#fff"/><path d="M222.25,142.42v.67h.73c0-.44-.24-.67-.73-.67Z" fill="#fff"/><rect x="223.7" y="125.12" width=".73" height=".67" fill="#fff"/><path d="M224.07,128.44v.33c.49,0,.73-.22,.73-.67v-.33c-.49,.06-.73,.28-.73,.67Z" fill="#fff"/><rect x="224.43" y="26.95" width=".36" height=".67" fill="#fff"/><rect x="225.52" y="88.85" width=".73" height=".33" fill="#fff"/><path d="M226.98,9.32c0,.33,.36,.67,1.09,1h.36v-.33c0-.44-.24-.67-.73-.67h-.73Z" fill="#fff"/><path d="M227.71,33.61v.33c.06,.44,.3,.67,.73,.67v-.33c0-.44-.24-.67-.73-.67Z" fill="#fff"/><rect x="228.44" y="115.8" width=".36" height=".67" fill="#fff"/><path d="M261.31,141.75l-1.46-.33-1.82,.33-1.82-.33c0,.22-.24,.33-.73,.33v.33c.12,.44,.73,.89,1.82,1.33l1.46-.33c.97,0,1.46,.44,1.46,1.33h5.46c0-.33,.36-.78,1.09-1.33v-.33l-2.55-1.33c-.97,0-1.94,.11-2.91,.33Z" fill="#fff"/><path d="M298.82,113.8l-.73,.33c0-.22-.85-.33-2.55-.33-2.67,0-4.49-1.66-5.46-4.99h.36l-.73-1,1.09-1.66-.36-.67c.24-2.11,.61-4.1,1.09-5.99,.39-.15,.71-.3,1.05-.45-.41-1.33-.61-2.73-.62-4.09,0-.23,.03-.46,.08-.68-1.54-1.54-2.33-5.11-2.33-10.76,0-2-2.06-5.44-6.19-10.32v-.67c0-.39,.24-.61,.73-.67,3.88-5.38,5.83-10.59,5.83-15.64,0-.5-.85-1.28-2.55-2.33v-.67c1.7,.44,2.67,.67,2.91,.67s.82-.56,1.73-1.65c-.11-.97-.18-1.94-.19-2.91-1.43-1.8-2.33-3.4-2.63-4.76l.36-.67-.36-.67h.36l-.36-3.99v-3.99l.36-2.33c-.24,0-.36-.22-.36-.67,0-.72,.12-1.28,.36-1.66l-.36-2v-2.66l-.36-.67h.36c0-2.61-1.21-6.49-3.64-11.65-4.98-6.88-8.86-10.32-11.65-10.32l-.73,.33c0-.72-2.55-1.39-7.65-2l-.73,.33-.73-.33c-1.76,0-4.19,.78-7.28,2.33-3.46,1.78-5.4,2.66-5.83,2.66l-1.09-.67h-.36v.67h-.36l-.73-.33c0-2.88-3.64-4.33-10.92-4.33-.97,.44-1.46,.78-1.46,1v7.32l.36,1.66c-.24,0-.36,.33-.36,1v1.33l.36,.67c-.24,0-.36,.11-.36,.33v9.65l-.36,2.33c.24,0,.36,.11,.36,.33-.24,1.22-.36,2.22-.36,2.99v1.33c.36,.67,.73,1,1.09,1h2.18l1.82-.33c3.16,1.05,4.73,2.83,4.73,5.32h-.36c.24,2.83,.49,4.38,.73,4.66-.24,0-.49,.33-.73,1,0,1.22,.24,5.77,.73,13.64l-.36,1.66c.24,0,.36,.11,.36,.33-.24,.39-.36,.83-.36,1.33v3.99c0,3.38-1.94,6.27-5.83,8.65,0,.22,.12,.55,.36,1,2.67,1.28,4.37,2.72,5.1,4.33,.49,5.55,.97,8.32,1.46,8.32l-.73,1v6.99l.73,1v.33h-.73c0,1.55,.36,2.33,1.09,2.33l-.73,1v6.99c.97,1,1.46,1.55,1.46,1.66v.67h-1.09v-.67h-.73c0,3.99-2.91,5.99-8.74,5.99,0-.22-.12-.33-.36-.33l-.36,.67v3.66l.73,1v.67c0,.44-.36,.67-1.09,.67v1.66c0,.44,.24,.67,.73,.67l-.36,.67v4.66l.36,.67c-.24,0-.36,.11-.36,.33v1.66c0,.44,.24,.67,.73,.67l-.36,.67v.33l.36,.67c.67,0,1.4-.22,2.18-.67,.73,0,1.09,.22,1.09,.67v1.33c-1.46,.22-2.18,.55-2.18,1v.33c.42,0,1.03-.22,1.82-.67,1.64,.22,2.97,.33,4.01,.33h.36v.67l-2.18-.33c-.67,0-1.64,.22-2.91,.67v-.33c-.73,.33-1.09,.67-1.09,1l-1.46-1h-.36v.33c0,1.55,.24,2.77,.73,3.66,.24,0,.36-.11,.36-.33,.55,.44,1.27,.67,2.18,.67-.24,.39-.36,.94-.36,1.66h-.73c0-.67-.24-1-.73-1-.73,.33-1.09,.67-1.09,1v.67c0,1.11,.36,1.78,1.09,2h4.73c2.73,0,4.92-.67,6.55-2v-.33c-2.18-.22-3.28-.55-3.28-1v-1c.24,0,.36,.11,.36,.33,.42,0,1.03-.22,1.82-.67l.73,.33c1.27-.22,2-.33,2.18-.33,.49,0,.73,.22,.73,.67,.24,0,.61-.11,1.09-.33l.73,.33,1.46-1,1.82,1,1.09-.67-.36-.67v-.33c1.58-.44,2.67-.67,3.28-.67h.73l1.82,.33c0-.22,.12-.33,.36-.33l.73,.33c0,.22-.12,.55-.36,1,0,.67,.24,1,.73,1h1.09c.49,0,.73-.22,.73-.67v-1h-.73v-.67h.73v-1.66l-.36-.67c.24,0,.36-.11,.36-.33v-1l-.36-.67-.73,.33h-.73c-1.03,0-2-.22-2.91-.67-1.03,.44-1.76,.67-2.18,.67l-1.46-.33c0-.89,1.21-1.44,3.64-1.66,1.34,0,2.18-.55,2.55-1.66l.73,.33-.73,1.33v.33h1.46l.73-.33-.73-1.33,.36-2v-.67l-.36-1.66c.24,0,.36-.33,.36-1,0-.44-.49-.67-1.46-.67v-.33c0-.39,.24-.61,.73-.67,0-.39-.24-.61-.73-.67v.67h-.73l-1.09-.67h-4.01c-1.4,0-3.34,.11-5.83,.33-.49-.22-1.82-.44-4.01-.67v-.33h1.82c1.46,0,2.18-.55,2.18-1.66,1.03,.28,1.76,.83,2.18,1.66,.36,0,2.06-.11,5.1-.33,.55-.67,.91-1,1.09-1h.36v1h3.64l.73-.33-.73-1v-.33l.73-1v-3.66l.36-1.66c-.24,0-.49-.33-.73-1-.55,0-1.03,.11-1.46,.33l-1.46-.33-.73,.33c-.67,0-2.49-.78-5.46-2.33-.24,.44-.37,.78-.37,1-2.18,.89-3.28,2.44-3.28,4.66h-.36l-2.18-.33c-.55,0-.91,.55-1.09,1.66h-.36c0-1-.12-1.66-.36-2,.3-1,1.03-1.77,2.18-2.33l-.73-1c.49,0,.73-.33,.73-1h1.09l-.36,.67h1.46v-.67h-.73v-.33c1.7,0,3.28-.44,4.74-1.33l-.36-1.66v-9.65h-1.46v-.33c.97,0,1.46-.67,1.46-2-.24-1.55-.49-2.55-.73-2.99h.36c0-.22-.12-.55-.36-1l.36-2c0-.22-.12-.55-.36-1,.24-.83,.36-1.83,.36-2.99,0-5.1,2.67-7.65,8.01-7.65h4.01c4.13,0,6.19,.33,6.19,1,1.7,0,3.03,2.33,4.01,6.99l-.36,2.33,.36,2h-.36c-1.52,1.72-3.22,3.16-5.1,4.33v.33l1.46,1.66c2.49,1.22,4.07,3.66,4.73,7.32l-.36,3.99,.36,.67h-.36c0,1.61,.36,2.5,1.09,2.66h4.01c.49,0,.73,.22,.73,.67-3.64,0-5.46,.33-5.46,1v3.99c0,1.16,.12,3.05,.36,5.66h1.46l-.36,.67h-1.46v1c3.4,2.38,5.1,4.05,5.1,4.99-.55,0-1.03-.11-1.46-.33-.42,.22-.91,.33-1.46,.33h-.73v-.33c0-.39,.24-.61,.73-.67-.36-.67-.73-1-1.09-1-.42,0-.67,.22-.73,.67v2.33c0,.33,.49,.67,1.46,1l1.82-.33,4.37,.67c0,.33-.49,.67-1.46,1-.55,0-1.03-.11-1.46-.33l-2.18,.33h-2.18v.67c.24,0,.61,.11,1.09,.33,1.03,0,2-.22,2.91-.67,.73,0,1.7,.22,2.91,.67,0,.22-.12,.33-.36,.33,0,.44,.36,.67,1.09,.67l-.36,.67h-4.37c-.42,0-.67,.22-.73,.67l-.73-.33h-1.09v.67l1.46,1.33v.33h-.73v.67l.73,1,2.55-.33h3.28l1.82,.33v-.33c0-.55-.73-.89-2.18-1h-2.91l-1.82,.33c.3-1.11,.67-1.66,1.09-1.66h2.18l2.55-.33c0,.44,1.46,.78,4.37,1,0-.22,.12-.33,.36-.33,1.21,.17,1.82,.5,1.82,1-.49,0-1.34,.44-2.55,1.33h-2.18v.67c.79,0,1.4-.11,1.82-.33,2.49,.22,4.43,.33,5.83,.33h2.18c.49,0,.73-.22,.73-.67v-.33l-.36-.67c-.61,0-1.58,.11-2.91,.33l-1.46-.33v-.33c1.7,0,2.55-.44,2.55-1.33l.73,.33h1.09c.24-4.44,.36-7.76,.36-9.98v-1h-.36c-.55-.83-1.15-1.28-1.82-1.33-.49,.22-.85,.33-1.09,.33l-1.82-.33c0,.22-.36,.44-1.09,.67-.73,0-1.7-.33-2.91-1,0-.55,1.46-1,4.37-1.33l4.73,.67v-5.99c-.24,0-.61-.11-1.09-.33,0-.44,.36-.67,1.09-.67v-2.99c0-.39-.73-.83-2.18-1.33ZM238.72,9.98h-1.09v-1l4.01-4.99,2.18,3.33v.33c-.73,0-1.09,.22-1.09,.67-2.67,.39-4.01,.94-4.01,1.66Zm6.19,6.99c-.91,1.11-1.52,1.66-1.82,1.66h-.36v-1c.24,0,.61-.11,1.09-.33l-.73-2.33c.49,0,.73-.33,.73-1h.73c0,.22-.12,.55-.36,1,0,.33,.24,.78,.73,1.33v.67Zm0-6.99c-.61,0-1.21,.22-1.82,.67v-.33l.36-.67h1.46v.33Zm-6.55,107.15v-.67h.36c.49,0,.73,.22,.73,.67h-1.09Zm4.37,19.97h.73v1c-.42,0-.67-.22-.73-.67v-.33Zm-2.18,6.66h-.73c0-.22-.12-.55-.36-1h.36c.49,0,.73,.22,.73,.67v.33Zm1.82-2.66l-1.82-.33v-.67h1.82c.49,0,.73-.33,.73-1h.36c.73,.17,1.09,.83,1.09,2h-2.18Zm21.85-4.99h.73v1c0,.44-.24,.67-.73,.67v-1.66Zm0-11.31h.36v1.33h-.73c.24-.39,.36-.83,.36-1.33Zm-5.46,11.31h.36v.33l-.36,.67-.73-.33c0-.39,.24-.61,.73-.67Zm2.91-5.99h1.09v.67h-1.09v-.67Zm-4.37,0c.55,0,1.03-.11,1.46-.33,.97,.44,1.46,.78,1.46,1h-1.09l-1.82-.33v-.33Zm5.83-9.65c0,.44-.24,.67-.73,.67h-.36c-.42,0-.67-.22-.73-.67,.24,0,.61-.11,1.09-.33l.73,.33Zm-1.82-4.99h.73v1.66l-1.46-1c0-.39,.24-.61,.73-.67Zm-1.82,5.32v.67h-1.09c0-.39,.24-.61,.73-.67h.36Zm-2.55-6.66h1.82v.67l-1.82-.33v-.33Zm-5.83,3.99c.97,.55,1.46,1,1.46,1.33v.67c-.3,0-.79-.55-1.46-1.66v-.33Zm9.84-111.14c0,.33,.24,.78,.73,1.33h-.36l-1.09-.67c0-.39,.24-.61,.73-.67Zm1.09,1.66v1h-.73v-1h.73Zm-2.18,12.98c0-.39,.24-.61,.73-.67h.73c.79,.67,1.4,1,1.82,1-.24,.44-.36,.78-.36,1h-.73l-1.09-.67-.73,.33c0,.39,.24,.94,.73,1.66v.33h-.73l-.36-1.66v-1.33Zm1.82,8.65v.33c0,.44-.24,.67-.73,.67v-1h.73Zm-4.01-11.65c.73,.33,1.09,.67,1.09,1,0,.44-.24,.67-.73,.67h-.73c0-.55-.24-1.11-.73-1.66h1.1Zm-2.92-11.31h.73c0,.67,.36,1,1.09,1v.33c-.61,0-1.21,.22-1.82,.67h-.36c.24-.33,.36-1,.36-2Zm.36,40.93l-.36,.67-.73-.33,.36-.67,.73,.33Zm-1.46-38.6h.73v1h-.73v-1Zm-6.55,0c1.88-.67,3.1-1,3.64-1,1.46,0,2.18,.89,2.18,2.66v.67h-.73c-1.52-1.28-2.37-1.94-2.55-2l-2.55,.33v-.67Zm1.82,6.99v.67h-.73c-.42,0-.67-.22-.73-.67h1.46Zm-2.91,96.17l1.82,.33v.67h-1.82v-1Zm0,3.33h1.46c0,.44-.24,.67-.73,.67h-.73v-.67Zm-5.46-.67h1.09v.33c-.24,0-.61,.11-1.09,.33v-.67Zm.36,2.99l.36-1.66h.73c0,.22,.12,.55,.36,1l1.82-.33h.36c.61,0,1.82,.78,3.64,2.33-.36,.67-.73,1-1.09,1l.36,.67c-.55,0-1.03,.11-1.46,.33l-.73-.67c-2.91-.61-4.37-1.5-4.37-2.66Zm.36,7.32c1.46-1.77,2.67-2.66,3.64-2.66l.73,.33c.42-.22,.91-.33,1.46-.33h1.46c-.24,.44-.36,.78-.36,1-2.18,.83-3.28,1.5-3.28,2h-.36c0-.22-.12-.55-.36-1-1.46,.61-2.18,1.05-2.18,1.33-.42,0-.67-.22-.73-.67Zm7.65,4.99v1h-.36c0-.39-.24-.94-.73-1.66l.73-.33c0,.22,.12,.55,.36,1Zm-2.91-2.66l-.36,.67c-.49-.22-.85-.33-1.09-.33v-.33h1.46Zm-2.55,2l.73,1.66h-2.18c.3-1.05,.79-1.61,1.46-1.66Zm-.36,2.99v-.33c.24,0,.61-.11,1.09-.33,.49,.22,.85,.33,1.09,.33v.67l-2.18-.33Zm3.28,5.32h-1.09v-.67c.24,0,.61-.11,1.09-.33h.36c-.24,.44-.36,.78-.36,1Zm8.38-1.33h.36v1c-.55,0-1.03,.11-1.46,.33v-.33c.36-.67,.73-1,1.09-1Zm-.73-6.99v.33h-1.82l-.73-.33c0-.39,.24-.61,.73-.67h.36c.61,.44,1.09,.67,1.46,.67Zm-2.91-4.99h.36c0,.33,.24,.78,.73,1.33v.67l-.36,.67c-.42,0-1.03-.22-1.82-.67,.73-.72,1.09-1.39,1.09-2Zm.36,8.32l2.55-.33c0,.28-1.58,1.05-4.73,2.33h-1.09c0-.22,.12-.55,.36-1v-.33h-1.09c-.49,0-.73,.33-.73,1h-.73v-2.33c-.36-.67-.73-1-1.09-1,.73-.72,1.09-1.28,1.09-1.66l.73,.33-.36,.67c1.15,1.55,1.88,2.33,2.18,2.33h2.91Zm-3.64-31.28v-1.66h1.09v.67c-.36,.67-.73,1-1.09,1Zm.36-22.96h1.09v.67h-.36c-.42,0-.67-.22-.73-.67Zm2.18,33.61h-1.46v-.67h1.46v.67Zm0-10.65c-.24,0-.61,.11-1.09,.33v-.67h1.09v.33Zm-3.64-59.56v-1.33h1.09c1.21,0,1.94-.33,2.18-1l.73,.33c0,.67-1.34,1.33-4.01,2Zm4.37-7.32v-1l.73,.33c0,.44-.24,.67-.73,.67Zm-.73-13.64c.24,0,.61-.11,1.09-.33,0,.22,.24,.33,.73,.33v1c-1.21-.17-1.82-.5-1.82-1Zm1.82,18.63v-.33c0-.44,.73-.78,2.18-1h.36v.33c0,.44-.85,.78-2.55,1Zm1.82,43.26h1.09c0,.44-.24,.67-.73,.67h-.36v-.67Zm1.82,25.62v.33c0,.44-.24,.67-.73,.67-.42,0-.67-.22-.73-.67,.24,0,.61-.11,1.09-.33h.36Zm3.64-29.28h-1.82v-.67h1.82v.67Zm19.66-19.3c0,3.94-2.91,6.49-8.74,7.65l-.73-.33c-.97,0-1.94,.11-2.91,.33-.18,0-.91-.11-2.18-.33-1.7,.22-2.67,.33-2.91,.33-3.64,0-5.47-1.55-5.47-4.66v-9.65c-.73,0-1.09-.22-1.09-.67v-.33l.73,.33h.36l-.36-1.66v-6.99c0-1.88,.36-4.66,1.1-8.32-.24,0-.37-.11-.37-.33,.24,0,.61-.11,1.1-.33,0-1.11,1.94-2.11,5.83-2.99,0-.22-.12-.33-.36-.33v-.67h.36c0,.67,.85,1,2.55,1,1.27-.22,2-.33,2.18-.33l1.46,.33,.73-.33,4.01,1c2.37,1.61,3.82,3.61,4.37,5.99,0,.22-.12,.55-.36,1,.24,1.5,.36,2.72,.36,3.66-.79,1.94-2.49,3.94-5.1,5.99v.67c3.64,1.44,5.46,4.11,5.46,7.99v2Zm10.92,60.56h.36v.67h-1.09c0-.39,.24-.61,.73-.67Zm-1.09-10.98l.73,.33c0,.44-.24,.67-.73,.67v-1Zm-5.1-27.29c3.16,0,4.73,.33,4.73,1l-1.82,.33c-.42,0-.67-.22-.73-.67l-.73,.33h-.73c-.42,0-.67-.22-.73-.67v-.33Zm3.28,11.98v.33c-.18,.67-.91,1-2.18,1v-.67c.36,0,.85-.22,1.46-.67h.73Zm-6.92-12.64h1.09l1.82,.33v.67c-1.34-.22-2.31-.33-2.91-.33v-.67Zm.36,21.96h-.36v-.67h1.09c0,.44-.24,.67-.73,.67Zm2.18-6.66h.36c.49,0,.73,.33,.73,1h2.18c0,.89,.49,1.33,1.46,1.33v.67l-4.73-2v-1Zm4.37,18.3v.33h-1.46v-1.33h.36c0,.67,.36,1,1.09,1Zm-2.55-5.99h-.36l-.73-.33c.24-.44,.36-.78,.36-1,.49,0,.73,.22,.73,.67v.67Zm-.73-4.33c0-.39,.24-.61,.73-.67h.36v.67h-1.09Zm.36,15.64h-1.09c0-1.11,.36-1.77,1.09-2h.36l.73,.33c-.73,.72-1.09,1.28-1.09,1.66Zm2.55,9.65c0-.22-.36-.33-1.09-.33,0-.39,.24-.61,.73-.67l-.36-1.66h1.46l-.36,.67v.67h1.09v-.67h1.46c.61,.44,1.09,.67,1.46,.67v.67l-.36,.67-.73-.33h-1.46l-1.82,.33Zm11.65,5.66h-.36v-.67h-4.73v.67h1.09v.33c-.24,0-.61,.11-1.09,.33-2.49-1.33-4.07-2-4.73-2v-.33h.36c.73,0,1.58,.11,2.55,.33l1.46-.33c3.34,.44,5.16,.78,5.46,1v.67Zm.36-7.65h.73l-.36,1.33h-.36v-1.33Zm-1.82,4.66c.24,0,.61-.11,1.09-.33h.73v.33c-.49,0-1.09,.44-1.82,1.33v-1.33Zm-1.82-1.66c0,.33,.49,.78,1.46,1.33,0,.39-.73,.83-2.18,1.33l-.73-.33v.33c-.91-.89-1.88-1.33-2.91-1.33v-.33h.36c.97,0,1.46-.33,1.46-1h2.55Zm-2.91-.67c0-.83-.24-1.5-.73-2,.24,0,.61-.11,1.09-.33,.24,.89,.61,1.66,1.09,2.33h-1.46Zm1.09-3.66v.67h-1.46v-.33c.55,0,1.03-.11,1.46-.33Z" fill="#fff"/><path d="M260.21,26.29v-1h.36c.73,.33,1.09,.67,1.09,1v.33l-1.46-.33Z" fill="#fff"/><polygon points="246.74 82.19 246.74 81.86 247.46 81.86 248.92 82.19 248.92 82.52 248.56 82.52 246.74 82.19" fill="#fff"/><path d="M242.37,122.45v.67c0,.44-.24,.67-.73,.67h-.36v-.33c.36-.67,.73-1,1.09-1Z" fill="#fff"/><path d="M291.53,126.78v1h-.36c-.42,0-.67-.22-.73-.67v-.33h1.09Z" fill="#fff"/><path d="M298.82,142.75h-8.38c-.61,0-1.7-.22-3.28-.67-.97,.33-1.46,.67-1.46,1v.33c.55,0,2.25,.33,5.1,1,.42-.22,.91-.33,1.46-.33h2.91l.73-.33c0,.22,.12,.33,.36,.33h4.01c.49,0,.73-.22,.73-.67v-.33l-.36-.67-1.82,.33Z" fill="#fff"/><path d="M238.36,131.11c.06,.44,.3,.67,.73,.67v-.67h-.73Z" fill="#fff"/><rect x="240.18" y="125.78" width=".36" height=".67" fill="#fff"/><path d="M242.37,11.31v.67h.73c0-.44-.24-.67-.73-.67Z" fill="#fff"/><rect x="243.09" y="116.46" width=".73" height=".67" fill="#fff"/><path d="M243.82,121.46v.67c.06,.44,.3,.67,.73,.67v-.67c0-.44-.24-.67-.73-.67Z" fill="#fff"/><rect x="246.37" y="83.19" width=".36" height=".67" fill="#fff"/><path d="M247.1,95.5c.06,.44,.3,.67,.73,.67h.36c0-.44-.24-.67-.73-.67h-.36Z" fill="#fff"/><rect x="248.56" y="35.27" width=".73" height=".67" fill="#fff"/><path d="M248.92,107.15l-.36,1.33h.36c.36,0,.73-.33,1.09-1v-.33h-1.09Z" fill="#fff"/><rect x="248.92" y="110.81" width=".73" height=".67" fill="#fff"/><path d="M249.29,83.19h.73v-.67c-.49,.06-.73,.28-.73,.67Z" fill="#fff"/><path d="M249.65,16.31h.73v-.67c-.49,.06-.73,.28-.73,.67Z" fill="#fff"/><rect x="251.83" y="41.93" width=".73" height=".33" fill="#fff"/><rect x="253.29" y="101.49" width=".73" height=".67" fill="#fff"/><rect x="254.02" y="116.46" width=".36" height="1" fill="#fff"/><path d="M256.2,137.76h.73v-.67c-.49,.06-.73,.28-.73,.67Z" fill="#fff"/><rect x="256.94" y="133.77" width=".73" height=".33" fill="#fff"/><rect x="259.12" y="119.79" width=".73" height=".33" fill="#fff"/><rect x="260.21" y="120.46" width=".73" height=".33" fill="#fff"/><path d="M262.76,116.46v.67h.73c0-.44-.24-.67-.73-.67Z" fill="#fff"/><rect x="275.14" y="26.62" width=".73" height=".33" fill="#fff"/><path d="M275.87,23.29h.36c.49,0,.73-.22,.73-.67h-.36c-.49,.06-.73,.28-.73,.67Z" fill="#fff"/><path d="M276.6,27.29c.06,.44,.3,.67,.73,.67v-.67h-.73Z" fill="#fff"/><path d="M279.51,67.22h.73v-.67c-.49,.06-.73,.28-.73,.67Z" fill="#fff"/><rect x="280.24" y="31.94" width=".73" height=".33" fill="#fff"/><rect x="280.61" y="119.13" width="1.09" height=".33" fill="#fff"/><path d="M280.97,107.81h.73v-.67c-.49,.06-.73,.28-.73,.67Z" fill="#fff"/><rect x="280.97" y="120.46" width=".36" height="1" fill="#fff"/><rect x="281.34" y="23.29" width=".73" height=".67" fill="#fff"/><rect x="281.7" y="69.55" width=".73" height=".67" fill="#fff"/><path d="M281.7,87.18c.06,.44,.3,.67,.73,.67h.36c0-.44-.24-.67-.73-.67h-.36Z" fill="#fff"/><rect x="282.06" y="135.1" width=".73" height=".67" fill="#fff"/><rect x="283.52" y="123.45" width=".73" height=".33" fill="#fff"/><rect x="284.98" y="52.91" width="1.09" height=".33" fill="#fff"/><rect x="285.34" y="54.57" width=".73" height=".67" fill="#fff"/><path d="M285.34,109.14v.67h.73c0-.44-.24-.67-.73-.67Z" fill="#fff"/><rect x="286.43" y="107.81" width=".73" height=".67" fill="#fff"/><path d="M286.8,125.78c0,.44,.36,.67,1.09,.67h.36v-.33l-1.46-.33Z" fill="#fff"/><rect x="287.16" y="111.81" width=".73" height=".33" fill="#fff"/><path d="M288.25,104.49c.06,.44,.3,.67,.73,.67v-.67h-.73Z" fill="#fff"/><rect x="294.08" y="121.79" width=".73" height=".33" fill="#fff"/><rect x="296.63" y="121.12" width="1.09" height=".33" fill="#fff"/><path d="M297.72,130.44c0,.33-.24,.78-.73,1.33v.33c.36,0,.73-.44,1.09-1.33v-.33h-.36Z" fill="#fff"/><rect x="298.45" y="131.77" width=".36" height=".67" fill="#fff"/><g><polygon points="24.77 101.91 26.14 99.37 21.92 97.86 20.55 100.46 24.77 101.91" fill="#fff"/><path d="M47,96.3l.16,.16c0-.28,.11-.55,.07-.84l-.23,.68Z" fill="#fff"/><path d="M6.6,99.88l-.05-2.67-2.79-.75,.04,1.97c.02,.87,.95,1.37,2.8,1.45Z" fill="#fff"/><path d="M104.14,152.38l-4.22-1.51,.24-.63c-1.84,.74-2.72,2.9-2.89,7.06,2-1.97,4.31-3.63,6.88-4.92Z" fill="#fff"/><polygon points="80.63 104.25 79.14 100.25 75.06 102.74 77.93 108.07 80.63 104.25" fill="#fff"/><path d="M45.71,100.18l1.36,.06,1.37-2.55-1.28-1.24c0,.55,.03,1.11-.14,1.63-.26,.79-.71,1.5-1.31,2.1Z" fill="#fff"/><polygon points="150.08 100.83 150.06 99.5 148.72 100.78 150.08 100.83" fill="#fff"/><path d="M280.39,116.53l1.44,1.39,1.31-2.61-1.38-1.33c-.03,.5-.17,.98-.41,1.42-.23,.44-.56,.82-.96,1.13Z" fill="#fff"/><polygon points="170.44 127.82 171.86 127.88 174.49 120.17 173.03 117.44 167.49 118.55 167.61 125.1 170.44 127.82" fill="#fff"/><polygon points="252.51 116.69 253.85 115.42 251.04 113.97 249.71 115.25 252.51 116.69" fill="#fff"/><polygon points="254.04 125.91 256.92 128.64 259.65 126.14 254.04 125.91" fill="#fff"/><polygon points="126.48 132.4 129.22 127.24 123.51 121.79 120.83 126.89 126.48 132.4" fill="#fff"/><path d="M245.73,126.89l1.36,.06,.23-.69c-.02-.93-.52-1.35-1.62-.7l.02,1.33Z" fill="#fff"/><path d="M262.33,120.99c.43-.28,.78-.66,1.01-1.11,.23-.44,.35-.94,.34-1.45,0-.51-.14-1.01-.4-1.47-.25-.46-.61-.87-1.05-1.19l-1.31,2.55,1.41,2.67Z" fill="#fff"/><path d="M82.09,120.39c-.54,.15-1.02,.41-1.42,.77-.4,.36-.69,.81-.86,1.31-.17,.5-.21,1.04-.12,1.57,.35,.4,.78,.74,1.26,.99,.48,.25,1.01,.41,1.54,.46,.57,.1,1.15,.08,1.7-.07,.54-.15,1.04-.42,1.44-.78,.4-.37,.7-.82,.87-1.33,.17-.51,.21-1.05,.12-1.59l.23-.69c-.02-.87-.95-1.31-3.1-.71-.56-.1-1.14-.08-1.67,.07Z" fill="#fff"/><path d="M257.33,134.18l1.45,1.39,.24-.16c.3-.02,.59-.14,.79-.34,.2-.21,.31-.48,.3-.77l-2.78-.12Z" fill="#fff"/><polygon points="230.55 119.97 229.08 117.31 226.3 117.19 226.4 122.41 230.55 119.97" fill="#fff"/><polygon points="285.32 140.62 286.67 136.74 283.87 135.29 282.5 137.84 285.32 140.62" fill="#fff"/><polygon points="13.98 44.59 12.56 44.53 9.81 45.74 12.59 45.86 13.98 44.59" fill="#fff"/><polygon points="207.18 42.23 205.89 46.05 208.67 46.17 212.8 42.46 207.18 42.23" fill="#fff"/><path d="M264.55,125.16c-.24,.44-.37,.93-.39,1.43l1.44,1.39-.07-3.94c-.41,.3-.75,.68-.98,1.12Z" fill="#fff"/><path d="M7.98,23.37l.1,5.27,4.2,.18,.24-.16c-.01-1.2-.47-2.39-1.3-3.35-.83-.97-1.97-1.65-3.24-1.93Z" fill="#fff"/><path d="M24.67,55.52l.24-.16c1.01-.72,1.82-1.65,2.37-2.73,.55-1.08,.82-2.28,.79-3.51,.03-.71-.23-1.42-.71-2-.27-.27-.48-.59-.61-.94-.13-.34-.19-.71-.17-1.07-1.59,.54-2.98,1.47-4.04,2.7-1.06,1.22-1.75,2.7-2,4.29-.39,2.87-1.04,5.69-1.94,8.43,1.9-1.8,3.93-3.48,6.08-5.02Z" fill="#fff"/><polygon points="205.73 23.63 202.77 16.96 201.42 16.91 201.49 20.85 204.36 26.18 205.73 23.63" fill="#fff"/><path d="M242.06,125.49l-.17-9.16c-.29,2.76-1.19,5.41-2.63,7.77l2.8,1.39Z" fill="#fff"/><polygon points="36.69 153.39 33.96 155.88 38.23 160 39.54 157.45 36.69 153.39" fill="#fff"/><path d="M254.11,116.67c.13-.12,.23-.27,.3-.44,.06-.17,.08-.35,.06-.53l-1.44-1.33,.05,2.61c.19,.03,.38,.01,.56-.04s.34-.14,.48-.27Z" fill="#fff"/><path d="M.06,83.35c.06,.17,.16,.33,.3,.46,.13,.13,.3,.23,.48,.29,.18,.06,.37,.08,.56,.06l-.05-2.61L.01,82.82c-.03,.17-.01,.35,.05,.52Z" fill="#fff"/><path d="M170.99,86.32c.26-.24,.4-.57,.4-.93-.19,0-.38-.02-.57-.09-.18-.07-.35-.17-.49-.31-.14-.13-.24-.29-.31-.46-.07-.17-.09-.36-.08-.53l-1.4,1.27c0,.35,.16,.7,.43,.96s.63,.42,1.01,.43,.73-.11,1-.35Z" fill="#fff"/><polygon points="45.95 79.34 44.22 76.14 44.27 78.75 45.95 79.34" fill="#fff"/><polygon points="48.49 80.26 45.95 79.34 47.1 81.47 48.49 80.26" fill="#fff"/><polygon points="104.16 71.55 106.74 71.66 105.81 68.24 104.09 67.3 101.55 68.88 104.16 71.55" fill="#fff"/><path d="M57.45,50.34l-2.78-.12-1.4,1.27c.43,2.5,1.71,4.85,3.64,6.7,1.97,2.37,4.07,4.64,6.29,6.81l-5.76-14.66Z" fill="#fff"/><polygon points="222.94 91.42 221.5 90.09 218.81 95.19 222.94 91.42" fill="#fff"/><path d="M153.15,89.84c.19,.03,.38,.01,.56-.04,.18-.05,.34-.15,.47-.27s.22-.27,.28-.44c.05-.17,.06-.35,.03-.52l.06-.29c-.03-.15-.08-.3-.17-.44-.09-.14-.2-.26-.33-.35-.13-.1-.28-.17-.44-.21-.16-.04-.33-.05-.49-.04l.05,2.61Z" fill="#fff"/><polygon points="179.17 140 177.75 139.94 179.2 141.33 179.17 140" fill="#fff"/><polygon points="131.79 152.56 128.95 152.44 130.39 153.78 131.79 152.56" fill="#fff"/><path d="M20.5,150.68l-2.51-3.97-2.41,3.76,1.72,4.72c.97-.34,1.8-.95,2.37-1.75,.57-.8,.86-1.77,.83-2.76Z" fill="#fff"/><path d="M112.74,158.88c-.01-.58-.82-1.14-2-1.18l.58,1.13,1.42,.06Z" fill="#fff"/><path d="M202.67,147.71c-.99-.04-1.41,.35-1.4,1.22,.02,.87-1.4,1.27-4.17,1.16l-1.26,5.22,5.55,.23-.12-6.38c.74-.02,1.48,.01,2.22,.09l-.83-1.54Z" fill="#fff"/><polygon points="77.28 150.28 78.72 151.62 78.7 150.34 77.28 150.28" fill="#fff"/><path d="M268.21,144.14c.02-.18-.01-.36-.08-.53-.07-.17-.17-.33-.31-.47s-.3-.24-.49-.31c-.18-.07-.37-.1-.57-.09l.02,1.33,1.42,.06Z" fill="#fff"/><path d="M230.22,121.38c-.47,.21-.89,.51-1.23,.88l2.8,1.39,2.82-1.16,.11-.69c-.88-.58-1.94-.85-2.97-.76-.53,.02-1.05,.13-1.52,.34Z" fill="#fff"/><path d="M170.99,86.32c-1.85-3.49-4.82-6.38-8.47-8.23l-1.28,7.82,9.75,.41Z" fill="#fff"/><polygon points="140.7 15.65 142.06 15.7 140.68 14.37 140.7 15.65" fill="#fff"/><polygon points="149.08 132.53 151.86 132.64 150.43 128.7 146.25 129.8 149.08 132.53" fill="#fff"/><polygon points="140.88 142.67 140.57 142.66 142.32 144.06 140.88 142.67" fill="#fff"/><path d="M125.76,85.96c-1.74,.72-3.65,1.08-5.59,1.04-.38-.06-.76-.04-1.12,.06-.36,.1-.68,.27-.95,.52-.26,.24-.46,.54-.58,.87-.12,.33-.15,.69-.09,1.05l1.44,1.39,6.95-1.04,5.25,.22-5.32-4.1Z" fill="#fff"/><polygon points="275.03 90.5 272.31 92.99 275.11 94.44 279.23 90.67 275.03 90.5" fill="#fff"/><path d="M159.06,145.63l.06,3.07,4.21,1.04c1.32-.56,2.36-1.57,2.91-2.83-2.43,.37-4.97-.09-7.18-1.28Z" fill="#fff"/><polygon points="223.51 96.22 221.69 97.42 223.54 97.5 223.51 96.22" fill="#fff"/><path d="M244.07,86.83c-.09-1.02-.59-2-1.41-2.72l-4.17,1.16,3.93,5.96v.23l.36-.74c.93-1.07,1.39-2.45,1.29-3.88Z" fill="#fff"/><path d="M242.25,91.97l.55,.02-.38-.54v.17c-3.48-1-7.06-1.54-10.63-1.6l2.85,4,5.42,3.24,2.19-5.3Z" fill="#fff"/><polygon points="228.73 78.08 226 80.57 230.23 82.08 231.62 80.81 228.73 78.08" fill="#fff"/><path d="M52.71,108.3v-.29s-.13-.06-.13,0l.13,.3Z" fill="#fff"/><path d="M56.95,111.03l-4.27-4.06,.02,1.04c.14-.75,1.47,.23,4.25,3.02Z" fill="#fff"/><path d="M57.95,101.57l2.68-5.16-2.85-4c-.91,.77-1.4,.87-1.42-.06-.02-.93-.46-1.35-1.38-1.39l-1.42-.06-2.73,2.49c1.96,3.01,4.36,5.76,7.12,8.18Z" fill="#fff"/><polygon points="39.85 103.42 41.14 99.54 38.34 98.15 35.63 101.97 39.85 103.42" fill="#fff"/><path d="M167.46,145.98c.3-.57,.9-1.47,.89-2.28-.8,.54-1.35,1.34-1.56,2.25-.15,.33-.34,.65-.54,.96,.26-.07,.51-.19,.72-.35,.21-.16,.38-.36,.5-.59Z" fill="#fff"/><path d="M170.07,136.88c-.42,2.31-.99,4.59-1.72,6.82,.95-.69,2.05-1.2,3.24-1.49l-1.52-5.34Z" fill="#fff"/><polygon points="217.9 95.99 216.56 97.21 217.97 99.93 221.69 97.42 220.76 97.38 217.9 95.99" fill="#fff"/><polygon points="214.1 19 214.05 16.39 211.3 17.61 214.1 19" fill="#fff"/><path d="M218.46,28.39c.03,1.74,1.47,2.67,4.24,2.78,.19,.03,.38,.01,.56-.04,.18-.05,.34-.14,.48-.27,.13-.12,.23-.27,.3-.44,.06-.17,.08-.35,.06-.53-.02-.87,.42-.85,1.36,.06l-.12-6.55-.13-.3c.17-1.72-.3-3.48-1.32-4.98l-5.52,4.98,.1,5.27Z" fill="#fff"/><path d="M220.95,107.87c-.38-.02-.74,.11-1,.35-.26,.24-.41,.57-.4,.93s.16,.7,.43,.96c.27,.26,.63,.42,1.01,.43l1.36,.06-.19-.3c-.03-1.8-.42-2.68-1.21-2.42Z" fill="#fff"/><path d="M278.22,112.93c-.93-.04-1.37-.52-1.38-1.39l.02,1.33,1.36,.06Z" fill="#fff"/><path d="M53.52,152.88c.73-1.54,1.14-3.21,1.21-4.93-.74,.14-1.29,.47-1.28,.99l.07,3.94Z" fill="#fff"/><path d="M54.72,147.95v-.34s-.09-.02-.13-.01l.13,.35Z" fill="#fff"/><path d="M160.45,60.16c.36-.1,.69-.28,.96-.53,.27-.25,.46-.56,.57-.9,.11-.34,.13-.71,.06-1.07l-.02-1.28-4.2-.18,1.49,4c.38,.07,.77,.05,1.14-.06Z" fill="#fff"/><path d="M56.09,145.17l-1.4,1.22,.02,1.23c.48,0,.96,.04,1.42,.17l-.05-2.61Z" fill="#fff"/><path d="M284.05,80.68l.09,5.22,2.86,1.45c3.59-1.55,6.46-4.2,8.19-7.54l-2.94-9.27-2.75,1.39,.21,11.59-5.66-2.84Z" fill="#fff"/><path d="M166.56,138.49l-.17-9.22c-1.17,1.5-1.86,3.29-2,5.19l.15,1.63c-.45,2.59,.32,3.95,2.02,2.4Z" fill="#fff"/><path d="M218.93,112.22c-.48-.25-1-.41-1.54-.47l-1.31,2.55,2.8,1.45,1.31-2.55c-.35-.4-.78-.73-1.26-.98Z" fill="#fff"/><polygon points="206.31 109.49 202.18 113.26 207.82 114.83 210.53 111 206.31 109.49" fill="#fff"/><path d="M74.41,134.93c-.44-.42-.21-1.05,.58-1.77l3.01-.69c-.48-.24-1.03-.32-1.55-.23s-.97,.36-1.28,.75c-.68,.09-1.41,.46-1.96,.44-2.54,.32-5.12,.43-7.7,.32l8.26,3.13c.66-.84,1.08-1.52,.64-1.94Z" fill="#fff"/><path d="M18.99,78.91l-7-1.63c.86,.04,2.8,1.45,5.63,4.18l1.37-2.55Z" fill="#fff"/><path d="M.62,66.33l.07-.14s-.01-.02-.01-.03l-.06,.17Z" fill="#fff"/></g></svg>