<?xml version="1.0" encoding="UTF-8"?>
<svg id="Capa_1" data-name="Capa 1" xmlns="http://www.w3.org/2000/svg" viewBox="0 0 566.93 226.77">
  <path d="m324.75,16.67h-.93v.64l.93-.64Z" fill="#222"/>
  <path d="m332.43,15.65h-.01s.01,0,.01,0h0Z" fill="#222"/>
  <path d="m431.34,82.57v.09s0,0,0,0c0-.03,0-.06,0-.09Z" fill="#222"/>
  <path d="m413.74,154.65l-.07-.03c.13-.15.3-.28.48-.37.12-.06.24-.07.37-.1,4.58-3.19,7.79-7.79,10.8-12.89,2.59-4.4,9.08-10.24,12.76-9.57,4.45.81,8.81,2.11,12.86,4l1.25-1.12.58,1.37c-.08.22-.07.45-.08.67,6.09,3.19,11.37,7.77,14.88,14.22,1.69,3.1,3.12,6.26,4.32,9.47l.58-.51,1.67.09-1.07,1.29-1.01-.4c.98,2.69,1.75,5.43,2.4,8.18,2.74-4.15,5.49-8.29,8.25-12.43-.13-.13-.23-.27-.37-.4.22,0,.4.03.6.04,2.73-4.1,5.48-8.19,8.24-12.28-.83-.32-1.69-.58-2.56-.74-.22,0-.53,0-.77-.08-.09.08-.2.14-.32.18s-.24.04-.37.02c-.12-.02-.24-.06-.34-.13-.08-.05-.14-.13-.2-.21-.34,0-.62-.09-.98-.12.16-.09.35-.13.53-.1.16.02.3.1.42.19,0-.01-.02-.02-.03-.03l.1.07,1.19.14c.4-.19.57-.38.48-.6-.09-.22.08-.45.53-.65l2.36,2c5.67-8.41,11.37-16.8,17.15-25.14,1.69-2.44,3.41-4.85,5.11-7.28-5.48-4.91-11.62-9.24-17.36-13.89-2.96-2.4-5.95-5.4-9.43-6.41-6.81-1.99-14.05-2.41-20.94-4.17-4.76-1.21-9.9-2.71-13.63-5.66-1.66-1.31-3.07-2.93-4.38-4.66l-.23-.08.14-.04c-1.86-2.47-3.51-5.16-5.35-7.55-.51-8.19-1.01-16.8-1.61-25.4-.24-3.43-.43-6.66,3.83-7.93,6.69-2,10.54-6.64,13.16-13.07,1.87-4.61,5.19-8.63,7.74-12.99.52-.88.45-2.11.66-3.18-1.07-.05-2.35-.5-3.17-.07-4.47,2.37-9.81,4.08-12.99,7.67-4.64,5.25-10.46,4.74-16.04,5.33l.96.49c-.01.2-.07.4-.16.58-.09.18-.22.34-.38.47l-1.05-.53.5-1c-1.04.11-2.08.27-3.1.51-.94.22-2.29-.62-3.27-1.26-3.75-2.46-7.89-4.58-11.01-7.7-4.3-4.28-9.21-4.69-14.73-4.68-20.31.07-40.63.07-60.94.07h.01c0,1.08-.28,1.42-.8,1.07-.12-.09-.21-.07-.26,0-.04.17-.06.34-.01.5v.03c.12.87.31,1.73.56,2.58l-1.57-1.59,1.01-1.01v-.5s0-1.07,0-1.07c-12.94,0-25.88-.01-38.82-.01-2.24,0-4.48,0-6.99,0-.31,2.27-.55,4.01-.8,5.82h-6.02c-1.68,11.49-3.55,22.95-5.91,34.32,1.81.02,3.62.04,5.43.07,1.64.03,3.94.67,5.38,1.63,0-.1,0-.18,0-.29h.53s.19-.27.19-.27l.39.44-.56.56c.28.26.52.53.65.82,6,13.37,11.68,26.89,16.98,40.54,2.04,5.26,5.87,6.81,10.66,7.44,1.81.24,3.68.04,5.66.04-1.07,3.92-.2,5.57,3.78,6.37,7.98,1.59,15.95,3.56,23.61,6.28,3.06,1.09,6.88,4.17,7.56,7.01,1.5,6.3,1.93,13.06,1.51,19.55-.53,8.08,5.78,17.09,13.73,18.15,8.08,1.08,16.11,2.84,24.22,3.41,3.78.27,8.14-.77,11.49-2.6.49-.27.94-.57,1.4-.86Zm79.07-59.79c.59,1.38.83,2.23.7,2.58-.13.35-.65.69-1.57,1.08l-.89-2.06,1.75-1.6Zm-.66,8.93l.11,1.17-.89.79-.59-1.38,1.38-.58Zm-1.09,13.5l2.45-1.89,2.57-.69.37,1.87c-1.82,1.59-4.01,2.69-6.37,3.18l.98-2.47Zm-28.57,23.12l-.59-1.38,1.38-.6.4,1.88-1.18.1Zm-.18-38.45l1.08-2.64,3.18-1.05c-.69,1.37-1.59,2.62-2.67,3.7h-1.59Zm4.76.03v1.6c-.32-.28-.5-.66-.53-1.07l.53-.52Zm-.96,45.54c-.1-.79.44-1.05,1.49-.87l.1.08c.77.07,1.5.35,2.11.81l-3.71-.02Zm14.21,9.74c-.13.33-.58.54-1.36.6-.56.09-1.13.06-1.68-.09l-.29-.7-.99-.39,1.17-2.95,1.57-1.1,1.77,4.14-.2.49Zm-4.44-10.32l2.46.97-.2.5-1.97-.78-.29-.68Zm7.57,2.82l-1.06-1.06,1.6-1.59,1.06,1.06-1.6,1.59Zm-.68-14.38c1.14.54,2.38.84,3.64.87l-2.75,1.19-1.96-.78,1.07-1.28Zm-2.23-6l.79.88-1.57,1.1-.1-1.18.88-.79Zm-5.38,6.41l1.18-.1c.81.45,1.42,1.18,1.72,2.06v.05c.43.92.72,1.9.84,2.9-.4.18-.78.41-1.12.7-.34.29-.72.53-1.13.69l-3.26-4.72,1.77-1.59Zm-3.87,13.36l1.06-1.06,2.64.02.53,2.13-1.07.53-3.16-1.09v-.53Zm-1.52-5.56c.27.16.47.42.56.72.09.3.07.63-.06.92h0s-2.36.19-2.36.19l-.89-2.08,1.07-1.28c.5.57,1.06,1.08,1.67,1.53Zm-7.4-50.7c.36-.71.73-1.05,1.07-1.05.79.01,1.55.29,2.16.8l-.06.04c.66.5,1.37.93,2.11,1.3-1.53,1.18-3.37,1.91-5.3,2.09l-.52-1.59c.07-.56.25-1.1.54-1.59Zm-7.93,40.84h-.53c-.02-.29.02-.58.11-.85.09-.27.24-.52.43-.74l.52.53-.53,1.05Zm-1.03-4.25l-.51-2.11,2.1,1.07-1.58,1.05Zm5.24,7.47l-1.58-1.08.55-1.05,1.57,1.07-.53,1.06Zm.49-35.02c.7.71,1.04,1.29,1.04,1.6-2.41,1.71-4.19,2.59-5.24,2.58l-.06.04-2.11-.55,3.74-5.28h1.58c0,.36.35.9,1.06,1.61Zm-6.77-6.56l.53-1.05h1.59s2.11,1.08,2.11,1.08c-1.01.4-2.1.57-3.19.51-.69.1-1.05-.08-1.05-.41v-.13Zm-8.01-73.96l-.53.54-1.58-1.61,2.11,1.07Zm-18.97,79.24h.53s-1.6,1.59-1.6,1.59c1.07-1.05,1.42-1.59,1.08-1.59Zm-.98-8.04l-.35-1.62-.21.06c-1.37-.69-2.48-1.81-3.15-3.2l.53-1.05h2.12s-1.08,2.12-1.08,2.12l4.76.03.53,1.07-2.91.81,1.52.2-1.77,1.58Zm4.78,36.09l-1.58-1.07.54-1.59h1.59c0,.18.05.35.14.49s.22.25.38.32c.16.07.29.19.38.35.09.15.12.33.1.51l.04-.05c0,.71-.53,1.05-1.59,1.05Zm2.12-10.87l2.06-.89.9,2.06-2.06.89-.9-2.06Zm4.76,9.81l-.54.52-1.57-1.07,1.06-1.59,1.06,1.6v.53Zm.25-46.96l1.05,1.08-1.06,1.05-1.58-1.59,1.59-.53Zm-1.2-20.05c1.42,0,2.3.36,2.65,1.07l-.55,1.59c-.56-.99-1.27-1.89-2.1-2.66Zm5.72,66.52l-1.07.52-.52-.53,1.59-.53v.54Zm8.34.07c-.37.44-.83.8-1.34,1.06l.78-1.98,1.38-.58c-.17.55-.45,1.06-.82,1.5Zm1.41-44.32c-.25.8-.66,1.53-1.2,2.17-.54.64-1.2,1.16-1.94,1.53h-.06c-.37-.02-.73-.13-1.05-.31-.32-.19-.59-.45-.79-.77-.56-.76-1.17-1.47-1.83-2.14l3.44.02c1.17.02,2.33-.15,3.44-.51Zm-7.83-6.42l.53-.52h1.04c0,.35-.53,1.07-1.59,2.12l.02-1.6Zm-1.36,44.31l1.72.87s0,0,0,0c0-.22.06-.43.15-.62.09-.19.23-.37.4-.51v.08c.2-.03.42,0,.62.06.2.07.39.19.54.34.15.15.27.34.33.55.07.21.09.42.05.64,0,.71-.17,1.07-.53,1.07-.22.03-.44,0-.64-.06-.21-.07-.39-.19-.54-.34v.07s-5.83-.04-5.83-.04l-1.57-1.08.54-1.58,1.58-.52c1.12.13,2.2.5,3.18,1.08Zm-3.58-68.1l-1.6,1.59-1.06-1.06,1.6-1.59,1.06,1.06Zm-2.06-8.5l-.54.52-1.05-.53.53-.52c.29.28.67.45,1.07.46v.08Zm-.99-12.21l.52.53-.53,1.06-.52-.54.53-1.05Zm-1.08,4.24l1.05.53c-.13.15-.29.28-.48.37-.18.09-.38.14-.58.15-.41-.03-.79-.22-1.06-.53l1.07-.52Zm-2.04-12.23c.15.13.28.3.37.48.09.18.14.39.15.59-.01.2-.07.4-.16.58-.09.18-.22.34-.38.47l-.52-1.06.53-1.07Zm-.34,59.17v-.5s.01-1.6.01-1.6l1.06.53c0,1.07-.28,1.41-.8,1.06-.12-.09-.21-.07-.26,0-.04.17-.06.34-.01.5v.03c.12.87.31,1.73.56,2.58l-1.57-1.59,1.01-1.01Zm-.78-49.61v2.11s-1.06-1.06-1.06-1.06l1.06-1.05Zm-1.94,62.89l-1.59-.55.55-1.58,1.57,1.07-.53,1.06Zm-.82-43.82l.53,2.13-1.07.53-3.16-1.09v-.53s1.06-1.06,1.06-1.06l2.64.02Zm-3.87-33.01c.09-.19.23-.37.4-.51v.08c.2-.03.42,0,.62.06.2.07.39.19.54.34.15.15.27.34.33.55.07.21.09.42.06.64,0,.71-.17,1.07-.53,1.07-.22.03-.44,0-.64-.06-.21-.07-.39-.19-.54-.35s-.27-.35-.33-.55c-.07-.21-.08-.43-.05-.64,0-.22.06-.43.15-.62Zm-3.51,31.56l.1.08c.77.07,1.5.35,2.11.81l-3.71-.02c-.1-.79.44-1.05,1.49-.87Zm-5.24,12.48l.1.03c.44.02.87.11,1.25.33.41.23.76.55,1.02.95.71,1.77,1.26,3.1,1.57,3.99.71,1.17,1.84,2.03,3.15,2.4l1.58,1.61-.54,2.12c-1.07,0-1.59.07-1.59.25,0,.18-.35.62-1.06,1.28l-.03,4.78c-.03.54.05,1.09.25,1.6.21.51.29,1.05.26,1.6l-3.17-.02-1.58-2.13v-.53c-.47.43-1.01.78-1.59,1.05-1.06,1.05-1.58.87-1.57-.54v-1.07s1.59-.52,1.59-.52l1.06,1.08,3.19-2.63-3.15-.82c.68.16.34-.46-1.07-1.87v-2.12s-.51-.53-.51-.53c0-.71.46-1.05,1.29-1.05.83,0,1.29-.35,1.29-1.06-.03-.4-.16-.78-.38-1.1-.22-.33-.53-.59-.89-.76-.78-.43-1.42-1.08-1.84-1.86l.02-2.65-1.57-2.66c.96.46,1.99.77,3.04.92-.03,0-.06-.02-.1-.02Zm.33,40.8h-.53s0-.71,0-.71l-1.06-1.42,1.07-.52.52.53-.53,1.05v.36s.52.71.52.71Zm-.56-14.83l.53-.52,1.06.53h-1.59Zm-13.28,13.41l-.56-.34c-.8.69-1.75,1.19-2.77,1.45-1.12.33-2.28.5-3.44.51l-1.06.53-1.58-1.61c.78-.74,1.59-1.43,2.44-2.08l-.1-.03c.82-.68,1.85-1.04,2.91-1.04h.6c.9.89,1.91,1.65,3,2.26.05-.05.1-.08.15-.11.18.18.26.3.41.45l.11.08.02-3.19-.27-.13-.26.13-.52-.53.78.4c.35-.27.78-.41,1.22-.38.44.03.85.21,1.17.52.34.35.75.63,1.21.82.45.19.94.28,1.43.27h.53c-.01.98.07,1.96.25,2.93.18.96.27,1.93.25,2.91v1.07s-1.08,1.05-1.08,1.05c-.75.08-1.5-.11-2.11-.54l-3.17-.02c-.34-.36-.52-.62-.52-.8,0-.18-.18-.45-.52-.8l2.66-2.11c0-.3-.46-.89-1.17-1.67Zm-1.97-9.75v-1.05s1.59.54,1.59.54v2.12s-1.59-1.61-1.59-1.61Zm6.86,6.41c.36-.36.36-.53,0-.53-.07,0-.15,0-.21-.03-.07-.02-.13-.06-.18-.12-.05-.05-.09-.12-.11-.19-.02-.07-.03-.14-.02-.22,0-1.13.36-1.66,1.05-1.65v.08s2.05.01,2.05.01l2.1,2.14c-.62.43-1.38.61-2.12.51l-2.57-.02Zm1.09-7.95l2.12-1.05h1.58s0,.54,0,.54l-2.65,1.05-1.05-.53Zm3.15,3.73l.53-1.05.52,1.06h-1.05Zm.95-72.43v1.6s-1.6-.55-1.6-.55l-.52-1.59h1.06s1.05.54,1.05.54Zm-2.72-11.57l1.06,1.59-1.08,1.59-1.04-1.6,1.06-1.58Zm-.23,65.67l-1.06.52-1.04-1.59.53-.54,1.57,1.61Zm-54.21-68.16c.32.28.69.5,1.09.63.4.14.83.19,1.25.17l-.79.79-1.56-.81v-.78Zm-27.58-2.29l1.05,1.06v1.6s-1.58-1.61-1.58-1.61l.53-1.05Zm-6.44,14.8v1.6s-.54,0-.54,0c-.14.02-.29,0-.43-.04-.14-.05-.26-.13-.36-.23-.1-.1-.18-.23-.22-.37-.04-.14-.06-.29-.03-.43l1.58-.52Zm-1.52,24.58l-1.58.79-1.55-2.38.79-.78,2.35,2.37Zm-.45-33.32c.09.18.15.38.16.58.02.2,0,.4-.07.6l-1.18.11-.29-.68,1.38-.6Zm-.65,6.06v1.06s-.53-.53-.53-.53l.53-.52Zm-.57,6.33c.22,0,.35.2.43.48.21,0,.4.07.62.07l.54.53h-1.07c0-.21-.03-.41-.09-.6-.7-.04-1.38-.21-2.02-.49h1.59Zm-3.12-7.41l1.05,1.07-1.6,1.05-1.05-.53,1.6-1.59Zm-2.74,5.32l.52.53-1.06,1.58-.53-1.06,1.07-1.05Zm-2.51-12.78l1.06.53-.55,1.06-1.58-.54,1.06-1.06Zm-2.45,17.54l1.17-.1,1.28,1.08-1.57,1.08-2.17-.28,1.29-1.78Zm-1.44,13.2v-.1s.52,1.07.52,1.07v1.58s1.57,2.13,1.57,2.13l-2.65.51-1.06-1.06-2.06-6.91c1.48.53,2.76,1.5,3.68,2.78Zm10.62,31.77c-1.01,0-1.99-.3-2.82-.87-.36-.24-.67-.55-.95-.87h-.2c-.34-.36-.52-.62-.52-.8,0-.18-.18-.45-.52-.8l2.66-2.11c0-.3-.46-.89-1.17-1.67l-.56-.34c-.8.69-1.75,1.19-2.77,1.45-1.12.33-2.28.5-3.44.51l-1.06.53-1.58-1.61c.78-.74,1.59-1.43,2.44-2.08l-.1-.03c.82-.68,1.85-1.04,2.91-1.04h.6c.9.89,1.91,1.65,3,2.26.05-.05.1-.08.15-.11.18.18.25.3.41.45l.11.08.02-3.19-.27-.13-.26.13-.52-.53.78.4c.35-.27.78-.41,1.22-.38.44.03.85.21,1.17.52.34.35.75.63,1.21.82.45.19.94.28,1.43.27h.53c-.01.98.07,1.96.25,2.93.18.96.26,1.93.25,2.91v.02l1.55.94-3.94,2.33Zm6.2-10.5c-.12.66-.31,1.11-.65,1.1v-.79s.65-.32.65-.32c.09-.41.14-.83.14-1.25-.03,0-.05-.03-.08-.04l-3.84-.02.02-3.1,3.14.8c0,1.47.23,2.22.68,2.32h.09s0,.03,0,.04c0,0,0,0,0,0,.11-.01.21,0,.32.03.1.03.19.09.27.17.08.08.13.17.17.27s.04.21.03.32l-.93.46Zm29.73,39.44l-2.35-1.59.82-3.14,2.33,2.37-.8,2.35Zm-28.79-14.86v-46.96l-.68-.18.68-.34V15.65h2.9l-.4-2.07.53-.52c.14-.02.29,0,.43.04.14.05.26.13.37.23.1.1.18.23.23.37.05.14.06.29.03.43,0,.52.12,1.03.3,1.52h1.6l-.78-.87.2-.5c.27.09.53.23.75.42.22.19.4.42.53.67l-.66.28h3.27c-1.33-.69-2.41-1.79-3.06-3.14l.53-1.05h2.12s-1.08,2.12-1.08,2.12l4.76.03.53,1.07-2.91.81,1.29.17h72.69c-2.32.34-4,.58-6.52.94,0,5.4.43,10.96-.14,16.41-.45,4.34,2.62,10.05-4.31,14.38v-30.72h-62.59l-.67.6-.13-.6h-5.54l-1.26,1.56v.13s-.53.54-.53.54l.53-.67v-1.56s-.61,0-.61,0l.6.67-1.56,1.1-.46-.52v21.01l1.48-.73,2.34,1.59-2.35.77-1.47-.38v8.46l2.53-2.65h1.36s-2.91,3.07-2.91,3.07h-.99s0,36.62,0,36.62h71.93v-28.2c4.46-2.6,4.78-.08,4.77,3.04-.03,8.28-.01,16.56-.01,25.14,2.18.3,3.93.55,5.69.79,0,.15-.02.29-.02.44h-83.33Zm68.18-57.03l-3.49,4.05-2.25.2,1.08-7.11,4.65,2.86Zm-9.45-3.91l-1.6,2.11-2.25.2-.17-.85-.75.9h-1.53s.02-3.47.02-3.47l2.56.13,2.4-7.94,4.9,2.81c-2.95.44-4.16,2.47-3.58,6.1Zm3.47,46.05l-.55,1.06h-1.05s.53-1.07.53-1.07h1.06Zm-6.75-7.5l-.03,4.79-2.99-.02c1.15-.73,2-1.85,2.41-3.15-1.11.35-2.28.52-3.44.51l-3.29-.02v-2.15s7.34.05,7.34.05Zm-6.76-19.59l1.06-1.05,1.06,1.06c0,.35-.35.49-1.07.53-.41-.04-.78-.24-1.05-.55Zm1.1,23.83c.14.19.3.36.48.52h-2.18s.02-2.5.02-2.5c.6.62,1.17,1.28,1.68,1.98Zm6.42,9.32l1.2,5.37-9.52-1.81-.67-3.43,9-.14Zm-17.75-17.1v-2.36s2.38-2.34,2.38-2.34l1.55,2.37-.79,1.57-3.14.77Zm3.08,8.67c0,.21-.09.41-.23.55-.15.15-.35.23-.55.23-.21,0-.41-.09-.55-.23-.15-.15-.23-.35-.23-.56h1.57Zm-.71-24.85c.33-.6.61-1.22.85-1.86.29-.7.74-1.33,1.29-1.85l1.58,1.08c-.36.69-.71,1.4-1.08,2.1-.34.66-.53,1.38-.54,2.12l-2.11-1.6Zm1.24-19.69l1.77-2.04,2.16-.59,1.14,5.13-5.07-2.5Zm-13.48,26.98l-.02,2.91h-1.53s.04-5.83.04-5.83l2.9.02,3.05,2.93-.02,2.91-3.07-.02.02-2.91h-1.37Zm2.93-4.44h-1.53s.63-1.81.63-1.81c-.42.38-.89.69-1.41.92v.09s-1.06.52-1.06.52v-1.07s.23-.22.23-.22l-.06-.15,3.81-5.33c.01.14,0,.28,0,.42h.29c-.07,0-.14,0-.21.02-.03.01-.05.03-.08.05.02.71-.05,1.42-.21,2.12h1.16s1.33,4.46,1.33,4.46l-1.35-1.54-1.55,1.52Zm-2.72-10.1c.37-.19.79-.22,1.18-.1l.29.68-1.47-.59Zm2.65-2.42l.59-1.48,2.07,1.97-.19,3.38c-1.03-1.15-1.86-2.46-2.47-3.88Zm2.28,32.11l.78.79h-.78s0-.79,0-.79Zm-.7-36.56l.18.07c-.56.34-1.22.48-1.88.4-.26-1.05-.42-1.93-.54-2.73l-.74.24-2.35-1.59,3.06-1.5c.03-.11.03-.25.07-.34l1.29-1.78,3.56,5.4-.59,1.49c-.71-.14-1.44-.02-2.07.33Zm-11.7,10.29c1.06-1.05,1.78-1.57,2.13-1.57l1.05.53c.03.22,0,.43-.07.64-.07.2-.19.39-.34.54-.16.15-.34.26-.55.33-.21.07-.42.08-.64.05h0c-.29.03-.57,0-.84-.1-.27-.09-.52-.24-.73-.43Zm.48,7.96v1.58s-1.06-1.06-1.06-1.06l.53-1.06.52.54Zm-9.6-9.97l-6.93-.04c.98-.4,2.03-.59,3.08-.57.98.1,1.97-.18,2.75-.78l-.76-3.15c-.97.01-1.93-.27-2.74-.8-.31-.2-.65-.37-1-.5l2.28-9.41.34-1.37.79,4.41c.92-.92,1.23-1.42.91-1.42h.53s-1.43,1.42-1.43,1.42l1.12,6.25v-.95s4.7.81,4.7.81c-.89,1.78-2.28,3.23-3.96,4.24l.33,1.85Zm-4.97-16.31v-1.06s1.08-1.06,1.08-1.06l.52,1.6-1.59.52Zm5.3-2.09l.55-1.58,1.57,1.07-.53,1.06-1.59-.55Zm-.16,35.86h1.36s3.05,2.94,3.05,2.94l-4.43-.03.02-2.91Zm1.76-2.34l3.15-3.12,3.13,1.59-3.16,3.12-3.12-1.59Zm2.71-11.57l2.06-.89.9,2.06-2.06.89-.9-2.06Zm-13.53-12.99h-.55s-1.54-1.79-1.54-1.79c.09.06.19.12.29.17.07.21.22.38.41.49.23.1.6.22.93.34.19.24.34.51.46.79Zm56.06,68.19l-.53.54-1.58-1.61,2.11,1.07Zm-10.01-5.37l.54-2.12,1.58,1.61-.54,1.59-1.58-1.08Zm.5,3.72c-.01.2-.07.4-.16.58-.09.18-.22.34-.38.47l-1.05-.53.53-1.05,1.05.53Zm-9.34,12.89l-2.33-2.37,3.12,1.59-.79.78Zm25.99,46.06l-.52-.53,1.06-.52.54.53-1.07.52Zm12.06-.39c-7.09-.76-14.15-1.89-21.24-2.69-.97-.11-2.09-.49-3.25-1.07-.29.31-.57.63-.89.91l-2.63-1.61,1.01-.8c-4.23-2.91-8.32-7.68-8.3-11.15.02-5.02.82-10.15,2.06-15.04,1.57-6.17,5.94-9.11,12.47-8.41.82.09,1.66.1,2.48,0,7.56-.87,13.89.57,16.79,8.72.17.48.32.96.48,1.44.16-.29.31-.58.52-.84.32-.39.59-.82.8-1.28l1.59.54,1.56,2.13-2.65,1.04c-.41-.03-.81-.14-1.17-.33-.12-.06-.2-.18-.31-.25,1.81,5.82,2.43,11.58-1.4,17.24-.41.61-.53,1.42-.78,2.14,10.64-5.62,8.87-16.84,11.85-25.93,9.92,1.8,14.06,9.51,12.04,17.13l.39,1.2c.24.58.7,1.04,1.27,1.3.7.29,1.33.73,1.84,1.3l-1.06,1.06-.53.07c-.71,0-1.06-.9-1.05-2.67l-2.13,2.11h-.56c-1.13,2.11-2.44,4-3.92,5.7l.21.64-1.07.52-.1-.1c-2.36,2.47-5.1,4.51-8.2,6.25-1.67.94-4.13.93-6.15.72Z" fill="#222"/>
  <path d="m526.31,173.64l-.26-.33.38-.15-2.64-.13c-1.01,8.69-2.02,17.37-3.03,26.06,8.45-4.42,16.91-8.82,25.37-13.23,2.99-1.56,5.98-3.12,8.96-4.68-5.08-13.1-10.24-26.16-18.06-38.03-2.89-4.39-5.64-8.91-8.5-13.33-.44,4.29-.88,8.58-1.34,12.86l.73.74v1.6s-.88-.89-.88-.89c-.17,1.61-.35,3.21-.53,4.82.02.02.04.02.06.04.1.1.18.23.22.37.05.14.06.29.03.43,0,.73.18,1.46.51,2.11l-1.33,1.65c-.29,2.62-.59,5.24-.89,7.85l1.87.1,1.01,4.96-1.57,6.7-.12.48Zm11.98,10.59l1.05.53v1.6s-1.6-.55-1.6-.55l-.52-1.59h1.07Zm-8.34-27l1.07-1.06.52,1.6-1.59.52v-1.06Zm-2.01-6.8l.2-.5c.27.09.53.23.75.42s.4.42.53.67l-.68.29-.79-.88Z" fill="#222"/>
  <path d="m562.61,199.97c-.18-.42-.35-.85-.53-1.27-.07.05-.12.11-.19.15-.18.09-.38.14-.58.15-.41-.03-.79-.22-1.06-.53l1.07-.52.57.29c-2.06-4.86-3.98-9.79-5.89-14.73-5.16,2.7-10.32,5.4-15.48,8.09.22.65.31,1.11.22,1.33-.13.35-.65.69-1.57,1.08l-.6-1.4c-5.18,2.7-10.36,5.4-15.54,8.1-.96,2.4-1.3,3.6-1.03,3.3.28-.31.88.92,1.74,3.54-.64.26-1.3.48-1.97.64-.56.22-1.18.27-1.77.16-.08-.03-.18-.11-.28-.23-.22,1.95-.45,3.91-.67,5.86-.48,4.26-.96,8.52-1.42,12.78,15.1,0,30.16,0,45.07,0,4.79-8.83,6.38-17.25.24-25.62-.22-.3-.15-.81-.31-1.18Zm-23.23-.69l.11,1.17-.89.79-.59-1.38,1.38-.58Zm-2.06,15.96l.98-2.47,2.45-1.89,2.57-.69.37,1.87c-1.82,1.59-4.01,2.68-6.37,3.18Zm20.83-17.86l-1.05-1.06,1.06-1.05v2.11Zm5.25,8.53l-.54.52-1.05-.53.53-.52c.29.28.67.45,1.07.46v.08Z" fill="#222"/>
  <path d="m514.72,205.08l-1.99,1.53-.35-.3c-1.58.83-3.16,1.67-4.75,2.51-.14.34-.32.65-.44,1-.41,1.55-2.1,2.69-5.04,3.42-.18-.41-.41-.79-.7-1.14,0,0,0,0,0-.01-1.72.91-3.45,1.81-5.17,2.73-1.85.99-3.69,1.99-5.54,2.99v.6s-1.1,0-1.1,0c-3.2,1.73-6.4,3.47-9.59,5.22.31.57.62,1.13.92,1.71.47.89,2.48,1.38,3.78,1.38,10.14.03,20.27.04,30.38.05.79-7.2,1.6-14.4,2.43-21.6-.72-.22-1.45-.37-2.2-.42-.21.11-.42.22-.63.33Z" fill="#222"/>
  <path d="m484.73,218.25l-1.39-.95.54-1.58,1.58-.52c1.07.13,2.11.48,3.04,1.01,4.09-2.21,8.17-4.43,12.27-6.61v-1.47s.79-1.98.79-1.98c.87-.25,1.66-.72,2.31-1.35s1.14-1.41,1.42-2.27l-.05-.12,2.85.02c-.26.67,0,.66.59,0,.21-.3.52-.53.87-.64.35-.12.73-.12,1.08,0,.85.38,1.66.83,2.44,1.34,1.67-.88,3.34-1.76,5.02-2.64,1.31-11.27,2.63-22.54,3.92-33.81-.56-.36-1.24-.57-2.08-.62l.02-3.45h1.28s1.06,1.61,1.06,1.61c.41-3.62.82-7.23,1.22-10.85l-.14-.16.18-.12c.21-1.87.42-3.74.63-5.61.71-6.49,1.39-12.99,2.04-19.49l-.2.13h-2.39s.03-5.46.03-5.46c-1.45-1.97-2.96-3.89-4.58-5.71-1.19-1.34-2.47-2.61-3.77-3.86-3.62,5.18-7.22,10.36-10.8,15.57-3.76,5.48-7.49,10.99-11.21,16.5.37-.29.79-.5,1.26-.54l1.28,1.09-.39.98c-.58-.7-1.38-1.16-2.27-1.34-2.84,4.22-5.66,8.45-8.47,12.68l-.26.77c-.04-.06-.09-.12-.12-.19-3.05,4.59-6.1,9.19-9.13,13.79,1.81,9.83,1.57,19.97-.68,30.12-1.71,7.7,1.18,13.28,4.31,18.91,1.96-1.07,3.93-2.12,5.9-3.18Zm35.7-61.09v1.6s-.54,0-.54,0c-.14.02-.29,0-.43-.04-.14-.05-.26-.13-.36-.23-.1-.1-.18-.23-.22-.37-.04-.14-.06-.29-.03-.43l1.58-.52Zm-1.97-8.74c.09.18.15.38.16.58.02.2,0,.4-.07.6l-1.18.11-.29-.68,1.38-.6Zm-.65,6.06v1.06s-.53-.53-.53-.53l.53-.52Zm-.57,6.33c.22,0,.35.2.43.48.21,0,.4.07.62.07l.54.53h-1.07c0-.21-.03-.41-.09-.6-.7-.04-1.38-.21-2.02-.49h1.59Zm-17.64,30.19v-.13s.53-1.05.53-1.05h1.59s2.11,1.08,2.11,1.08c-1.01.4-2.1.57-3.19.51-.69.1-1.05-.08-1.05-.41Zm5.38-14.32v-.1s.52,1.07.52,1.07v1.58s1.57,2.13,1.57,2.13l-2.65.51-1.06-1.06-2.06-6.91h-.54s-.52-.53-.52-.53h1.07s0,.53,0,.53c1.48.53,2.76,1.5,3.68,2.78Zm-2.8,24.93l-.06.04-2.11-.55,3.74-5.28h1.58c0,.36.35.9,1.05,1.61.7.71,1.04,1.29,1.04,1.6-2.41,1.71-4.19,2.59-5.24,2.58Zm7.37-4.16l1.08-2.64,3.18-1.05c-.69,1.37-1.59,2.62-2.67,3.7h-1.59Zm4.75,1.63c-.31-.28-.49-.66-.52-1.07l.53-.52v1.6Zm-.18-45.67l1.05,1.07-1.6,1.05-1.05-.53,1.6-1.59Zm-2.74,5.32l.52.53-1.06,1.58-.53-1.06,1.07-1.05Zm-.7,28.61c.79.01,1.55.29,2.16.8l-.06.04c.66.5,1.37.93,2.11,1.3-1.53,1.18-3.37,1.91-5.3,2.09l-.52-1.59c.07-.56.25-1.1.54-1.59.36-.71.73-1.05,1.07-1.05Zm-1.81-41.39l1.06.53-.55,1.06-1.57-.54,1.06-1.06Zm0,18.52l-1.57,1.08-2.17-.28,1.29-1.78,1.17-.1,1.28,1.08Zm-3.15-6.27l-1.58-1.77-1.75,4.44-1.18.1.38-3.86c1.14-1.03,2.59-1.65,4.12-1.78l.79.88-.78,1.99Zm-.36-20.69l.9,2.07-1.38.58-.4-1.87.88-.78Zm-3.8,12.76h.02s.03.05.03.05l1.81.73,2.67.44.29.68c-.03.14-.1.27-.19.39-.09.11-.21.2-.34.26-.13.06-.28.08-.42.08-.14,0-.29-.05-.41-.12-.69-.26-1.43-.36-2.17-.28l-1.24-2.17h-.03s-.02-.05-.02-.05h-.11s-.29-.7-.29-.7l.4.7Zm-2.37-7.24c.04-.14.1-.27.2-.38.09-.11.21-.2.35-.25.13-.06.28-.08.42-.07.14,0,.28.05.41.12l-.1,1.67-1.47-.59.2-.5Zm-2.16-3.14c.18.07.38.12.58.13.29-.64.69-1.22,1.18-1.72l-.59,1.49c-.08.21-.3.26-.59.23-.11.18-.2.37-.29.56l-.68.29.39-.99Zm-1.05,12.71l.99.39.59,1.38-1.67-.09.09-1.69Zm.03,5.73l1.28,1.08-1.57,1.08-.79-.88,1.09-1.28Zm-3.84-3.25l-.2.5-.9-2.07c.59,1.37.96,1.9,1.09,1.56Zm-2.95,1.69c.6,1.25,1.02,2.57,1.26,3.93l-1.34.6-.5-.2c-.07-.02-.13-.05-.19-.1-.05-.05-.1-.11-.13-.17-.03-.07-.04-.14-.04-.21,0-.07.03-.14.06-.2.13-.33-.04-.4-.5-.2l-.4-1.88,1.77-1.57Zm-7.02,13.95c.32.28.69.5,1.09.63.4.14.83.19,1.25.17l-.79.79-1.56-.81v-.78Zm-.89,16.51l1.55,2.37-2.35.77-2.35-1.59,3.15-1.55Z" fill="#222"/>
  <path d="m278.59,46.34c.47-2.2.92-4.41,1.35-6.63.95-4.95,1.83-9.92,2.64-14.9l-.29-.15.56-1.66c.59-3.65,1.14-7.3,1.68-10.95h-20.94l2.8,2.69-.02,2.91-3.07-.02.02-2.91h-1.37s-.02,2.9-.02,2.9h-1.53s.03-5.57.03-5.57h-48.09l-.21,3.2-1.33-.2-3.81-1.75,1.11-1.25h-37.63c1.15.92,2.31,1.83,3.46,2.74l.35-.87,2.25-1.39.9.42c-.06.13-.09.27-.09.42,0,.14.03.29.08.42.06.13.08.28.08.42,0,.14-.03.29-.09.42l-.59,1.48c-.2.18-.42.33-.64.48,12.61,10,25.29,19.91,38.04,29.72,10.42,0,20.84,0,31.26,0,11.03,0,22.06-.08,33.09.03Zm-3.91-13.51c-.15.15-.35.23-.55.23-.21,0-.41-.09-.55-.23-.15-.15-.23-.35-.23-.56h1.57c0,.22-.08.42-.23.56Zm4.94-2.37l1.06.53-1.07,1.06-1.05-1.07,1.06-.52Zm-7.77-9.21l2.36-2.34,1.55,2.37-.79,1.57-3.14.77v-2.36Zm.36,10.77c.36-.01.88.34,1.58,1.05h0s-1.6,1.6-1.6,1.6l-2.11-1.08c1.07-1.05,1.78-1.57,2.13-1.57Zm-5.12-2.15l.78.79h-.78s0-.79,0-.79Zm-.68.5c.03.22,0,.44-.06.64-.07.21-.19.39-.34.55-.16.15-.34.27-.55.34-.21.07-.43.09-.64.06l-.52-1.07v-2.12s-.51-.53-.51-.53l2.63,2.14Zm-15.76-16.79l3.13,1.59-3.16,3.12-3.12-1.59,3.15-3.12Zm-4.91,5.47h1.36s3.05,2.94,3.05,2.94l-4.43-.03.02-2.91Zm-61.28,1.33l-1.86.4-.5-.2-.58-1.37,1.95-2.09,1.19,2.76.49.2.3.68-.99-.39Zm7.96,1.48l-1.57,1.1-3.34-.19c.33-1.77.66-3.36,1.02-4.73.32-1.65.43-3.34.33-5.02l.21.07,1.76,1.3.8,3.74c.23,1.11.56,2.2.99,3.25l-.2.49Zm18.07,13.13l-2.68-.21,1.77-8.23,2.85,3.47-1.94,4.97Zm15.75.45c-1.01,0-1.99-.3-2.82-.87-.83-.57-1.48-1.37-1.86-2.3l4.71-1.54,3.91,2.38-3.94,2.33Zm6.2-10.5c-.12.66-.31,1.11-.65,1.1v-.79s.65-.32.65-.32c.09-.41.14-.83.14-1.25-.03,0-.05-.03-.08-.04l-3.84-.02.02-3.1,3.14.81c0,1.47.23,2.22.68,2.32h.09s0,.02,0,.04c0,0,0,0,0,0,.11-.01.21,0,.32.03.1.03.19.09.27.17.08.08.13.17.17.27.03.1.04.21.03.32l-.93.46Z" fill="#222"/>
  <path d="m173.16,17.37c-.08,0-.16,0-.25,0l.06-.15c-2.16-1.71-4.3-3.45-6.46-5.17h-1.99l.03.34-.68.3-.05-.65h-4.7l.24.56-.49-.2.14-.36h-30.3c-3.86,3.66-7.68,7.35-11.49,11.05l.37.15c.67.26,1.28,1.08,1.87,2.46l2.46.98c-1,1.02-2.21,1.82-3.54,2.33l.23.48,1.75,1.13-1.47-.59c-.08-.17-.19-.36-.28-.54l-.51-.34.28-.14c-.34-.62-.71-1.29-1.17-1.93-.65-.88-.98-1.95-.98-3.04-4.23,4.11-8.43,8.25-12.61,12.4h12.79c.2,3.48.35,6.15.56,9.84h8.65l-.42-.61.39-.99,1.18-.11.15,1.7c11.85,0,23.7,0,35.55,0l.51-.36.42.36c15.6,0,31.2,0,46.8,0-12.41-9.56-24.76-19.19-37.03-28.93Zm-17.73-3.47l1.47.59c-.73.18-1.5.08-2.17-.28l.7-.3Zm-27.01,25.09c-.13.33-.85.24-2.17-.28-1.11.82-2.33,1.49-3.62,1.97l.96-2.47,2.65.49.59-1.49,1.38-.6.59,1.38-.39.99Zm.09-4.53c-.37-.38-.69-.82-.94-1.29-.13-.23-.28-.44-.45-.63-.01,0-.02,0-.04.01-.01-.02-.03-.03-.04-.05-.24.09-.49.19-.71.26l-.03.08s-.02,0-.03,0l-1,2.49-1.68-.1-.29-.68c.22-.49.62-.88,1.11-1.1l-.04-.06c.64-.14,1.28-.33,1.9-.55l.03-.07s.02,0,.03-.01l.3-.76c.15.15.29.32.42.49.01,0,.03-.01.04-.02.01.02.02.03.04.05.59-.22,1.2-.45,1.87-.73l1.58,1.76-2.06.9Zm2.27-9.91l.38-.99,1.09,1.58-.89.79-.58-1.38Zm4.14,6.78l-.69.3c-.32-.13-.46-.48-.44-1.03s-.11-.9-.44-1.03l-1.96-.78,3.92-1.29-1.17,2.95.79.88Zm.29-5.69c-.07-.33-.04-.68.09-.99h0s.2-.49.2-.49l1.86-.4,1.28,1.09-1.17,2.95c-.68-.28-1.29-.73-1.76-1.3-.25-.23-.42-.53-.49-.87Zm10.61,13.98l1.48-2.27,1.18,2.75-2.65-.48Zm4.37-.97l-2.76-1.67-3.53.31-1.02-4.41c-.74,1.11-1.77,2-2.99,2.55-1.28.74-2.61,1.42-3.97,2.01v.09c-.1-.27-.14-.56-.13-.85.02-.29.09-.57.22-.83.54-.99,1.27-1.87,2.16-2.56.36-.66.46-1.44.28-2.17.52-.23,1.01-.51,1.47-.84.26-.18.55-.29.86-.32.31-.03.62.03.91.16.23.05.43.18.62.31l-.3-1.31,2.15.27,2.17,3.15c.27-.5.64-.93,1.09-1.28.58-.52,1.04-.71,1.36-.6l.18,2.07,1.1-.48.59,1.38-.81.17c1.1,1.1,1.94,2.44,2.4,3.94l-2.06.89Zm1.04-10.21c-.54.56-1.19,1-1.92,1.28l-.59-1.38.2-.49c.26-.65,1.21-.66,2.85.02l-1.19-2.83.39-.99.5.2.68-.29,2.85,1.14c.22-.08.45-.15.67-.25.03.04.06.09.09.13.51-.15,1.01-.31,1.54-.39.66-.16,1.35-.18,2.01-.05l.99.39,1.19,2.75-.2.49-.6-.03.09,1.03-2.75,1.19-.89-2.07.14-.35-4.34-.24c-.65.01-1.26.28-1.71.75Zm4.26,6.65c.02.2,0,.4-.07.6l-.97-.38.88-.79c.09.18.15.37.17.58Zm.05,7.53l-1.28-1.08c.91-.48,1.44-.85,1.57-1.17v.09s.58,1.37.58,1.37l-.88.79Zm2.35,1.37l-.49-.2-.3-.7,1.57-1.08,1.08,1.58-1.86.4Zm2.38-5.34c-.13.12-.29.19-.46.21-.17.02-.35-.02-.5-.1l.05.09c-.67-.26-.79-.89-.4-1.87l1.56-1.1,1.28,1.08-.59,1.49c-.16-.06-.33-.08-.5-.04-.17.04-.32.12-.44.24Zm.73,1.44l-.1-1.18,1.36-.6.4,1.87-1.67-.09Zm2.49-20.71l.39-.99c.18-.51.46-.98.83-1.37.38-.39.66-.87.83-1.38l1.49,3.45-3.44,1.48-.11-1.18Zm4.47,20.7l-.11-1.18,1.18-.1.79.88-1.86.4Zm.29-9.72c-.6.24-1.23.37-1.88.4-.34-.69-.52-1.45-.54-2.22.05-.67.05-1.35.01-2.02l2.64.49.91,1.76c.2-.05.41-.05.6,0l-.34.41.44.78c-.64.04-1.27.18-1.86.4Zm9.6,12.49c-.13.33-.52.37-1.18.11l-1.47-.59c-.65-.26-1.06-1.18-1.19-2.76l2.35-.2,2.36-.2-1.17,2.97.3.68Zm8.02-5.95l.02-2.86c.28-.73.84-1.33,1.55-1.66l.2.1c.36.36.67.77.93,1.22.26.45.57.86.94,1.23l-1.07,1.28-2.57.69Z" fill="#222"/>
  <path d="m15.11,27.7c7.21-5.22,14.31-10.59,21.37-16.03C35.15,7.11,38.34.39,30.09.01c-6.16-.28-12.26,5.02-13.97,12.71H0v23.73h2.73c4.14-2.89,8.28-5.79,12.37-8.76Zm-12.85,4.44l1.58,1.61-.55,1.58-1.57-1.07.54-2.12Z" fill="#222"/>
  <path d="m97.28,12.18v.75s-.37.4-.37.4v.75s-2.21,1.57-2.21,1.57l2.18-2.32v-.76s.37-.38.37-.38v-.13s-55,0-55,0c.11.37.17.74.16,1.13l-.02,2.65v.53c1.08-.05,2.16.14,3.16.55l-.02,3.68s0,.03,0,.04h1.06s2.09,2.14,2.09,2.14c-.66.96-1.6,1.7-2.68,2.12l.03-.05c-.38-1.37-.54-2.79-.5-4.21h0v-.04c-.28.11-.57.16-.87.15-.3,0-.59-.07-.86-.2-.27-.12-.51-.3-.72-.51-.2-.22-.36-.47-.46-.75-.5-1.08-.59-2.31-.24-3.45h-1.07c-1.02.53-1.99,1.14-2.91,1.83-.95.68-1.56,1.15-2,1.51.1-.32.15-.65.13-.99-.06-.66.13-1.33.55-1.85l2.66-2.11.94-2.17h-.6c-10.15,7.87-20.46,15.53-30.93,22.96-.69.49-1.39.96-2.09,1.45h41.58c.23-.49.58-1.01,1.12-1.58l-.1.04.36-.4c.02.65.11,1.29.18,1.94h8.37c-.46-.67-.85-1.39-1.1-2.16,0-.24-.06-.48-.17-.71-.1-.22-.25-.42-.43-.58-.25-.41-.21-.85.27-1.36-.03.01-.07.02-.1.03l.1-.04s0,0,0,0c.77-.35,1.62-.51,2.47-.43l3.52,4.77-.1.47h28.92c-.11-.05-.23-.08-.33-.14-.79-.49-1.71-.72-2.64-.67l-1.16-1.09.34-1.14,1.09-1.15-2.65-1.05-.38-.36-.21.22h.17s1.51,4.45,1.51,4.45h-1.54s-1.53-1.55-1.53-1.55v-1.03s-.82,2.12-.82,2.12l-1.09,1.16h-.76c-.26-.72-.41-1.48-.44-2.25-.02-.51-.19-.99-.49-1.4l-.08.08s0,0,0,0l-.22.22h-.74s-.38-.37-.38-.37l1.03-.29c.12.13.23.28.31.43l.08-.08s0,0,0,0l1.79-1.92,2.2.48h.86s.95-3.98.95-3.98l2.67,1.79-.29,2.57c.11.64.36,1.26.74,1.79.37.54.85.99,1.41,1.32.99.76,1.75,1.36,2.29,1.83h4.87l.48-5.97c1.57,2.44,1.63,4.43.2,5.97h.81c8.27-8.23,16.63-16.36,25.08-24.4h-27.73l-.12.13Zm-62.73,17.52h-1.65c-.18.82-.19,1.8,0,2.96l-1.6,2.11-2.25.2-.35-1.71,2.21-7.31h-.57s-.52-1.06-.52-1.06l1.22.62.54-1.77,4.9,2.81c-1.37.21-2.35.77-2.97,1.66l1.04,1.48Zm19.81-.56l-1.47.79-.8-1.47,1.47-.8.4.36c.51.49.65.85.4,1.12Zm-3.54-7.45l1.07-.53.52.54v.53s-1.59-.54-1.59-.54Zm5.31-1.03c-1.76-1.08-3.34-2.14-4.74-3.21-1.45-1.11-3.05-2.01-4.74-2.68.71-.72,2.3-1.14,4.77-1.26,2.46-.11,4.22-.24,5.29-.24.71,0,.97.17.79.53-.18.36-.1.87.25,1.6v1.54s-1.61,3.71-1.61,3.71Zm2.31,7.22l-1.52-.7v-1.49s1.84.32,1.84.32l-.32,1.88Zm5.96-2.43l-1.11.4-2.32-2.18.66-3.02c.64.75,1.23,1.55,1.76,2.39.92,1.29,1.27,2.14,1.01,2.4Zm31.06,1.05c-.02-.48-.02-.95,0-1.43l-1.61-1.52,1.1-1.16.79,1.47c-.19.37-.28.79-.26,1.21l.32.3-.34,1.13Z" fill="#222"/>
  <path d="m11.74,13.99c-.1.1-.23.15-.37.15s-.27-.06-.37-.16-.15-.23-.15-.37h1.05c0,.15-.06.28-.16.38Z" fill="#222"/>
  <path d="m13.23,20.01c-.07.02-.13.06-.19.11-.05.05-.09.11-.12.18-.02.07-.03.14-.02.21-.07,0-.14,0-.21-.02-.07-.02-.13-.06-.18-.11-.05-.05-.09-.11-.11-.18-.02-.07-.03-.14-.02-.21-.01-.07,0-.15.02-.21.02-.07.06-.13.11-.18.05-.05.11-.09.18-.11.07-.02.14-.03.21-.02l.54.53c-.07-.01-.15,0-.22.02Z" fill="#222"/>
  <path d="m60.34,22.8h-1.05c.2-.02.4-.07.58-.16.18-.09.34-.21.48-.37v.53Z" fill="#222"/>
  <path d="m159.98,21.2c.05-.05.12-.09.19-.11.07-.02.14-.03.22-.02.05,0,.1.04.15.06,0-.02.02-.03.02-.04l.02.06s-.03-.01-.05-.02c-.02.05-.04.1-.08.15-.05.05-.11.1-.17.13-.07.03-.14.04-.21.04-.07,0-.14-.03-.21-.06.02-.07.07-.13.12-.18Z" fill="#222"/>
  <path d="m146.79,18.46c-.03.06-.05.13-.05.21,0,.07.01.14.04.21.03.07.07.12.13.17.05.05.12.08.19.1l-.5-.2.2-.49Z" fill="#222"/>
  <path d="m123.61,43.37c-.07,0-.15,0-.21.04-.07.03-.13.07-.17.13s-.08.12-.1.19l.2-.49.5.2c-.06-.04-.13-.06-.21-.06Z" fill="#222"/>
  <path d="m168.81,33.96c.02.06.06.12.1.16.05.05.1.08.16.11l.05.05c-.02.07-.05.14-.1.19-.05.05-.11.1-.17.13-.07.03-.14.04-.21.04-.07,0-.14-.03-.21-.06-.07-.02-.14-.05-.19-.1-.06-.05-.1-.11-.13-.17-.03-.07-.04-.14-.04-.21,0-.07.03-.14.06-.2l.68-.3c-.03.06-.04.12-.05.19,0,.06,0,.13.03.19Z" fill="#222"/>
  <path d="m172.64,28.25l-.5-.2.2-.49c.07.02.14.05.19.09.06.05.1.1.13.17.03.07.04.14.04.21,0,.07-.02.14-.06.21Z" fill="#222"/>
  <path d="m271.25,15.56h.53c0,.07,0,.14-.03.21s-.06.13-.11.17c-.05.05-.11.09-.18.11-.07.02-.14.03-.21.02v-.51Z" fill="#222"/>
  <path d="m269.36,29.85c-.07-.02-.13-.06-.18-.11-.05-.05-.09-.11-.11-.18s-.03-.14-.02-.21h.53c.07,0,.14,0,.21.02.07.02.13.06.18.11s.09.11.11.18c.02.07.03.14.02.21h-.53c-.07,0-.14,0-.21-.03Z" fill="#222"/>
  <path d="m437.92,77.26l.52.53c-.06.01-.13.01-.19,0-.06-.01-.12-.04-.17-.07-.05-.04-.1-.08-.13-.14s-.06-.11-.07-.18l.04-.14Z" fill="#222"/>
  <path d="m430.03,30.36h.53c.01.07,0,.15-.02.22s-.06.13-.11.18c-.05.05-.11.09-.18.11-.07.02-.14.03-.21.02v-.53Z" fill="#222"/>
  <path d="m410.73,103.43c.01.27-.36.45-1.04.44v.08s-.01-.53-.01-.53c0-.14.06-.27.16-.37.1-.1.23-.15.37-.15.14,0,.27.06.37.16.1.1.15.23.15.37Z" fill="#222"/>
  <polygon points="398.81 11.44 398.69 11.92 398.44 11.59 398.81 11.44" fill="#222"/>
  <path d="m319.05,8.22h.53c-.07,0-.15,0-.21.03-.07.02-.13.06-.18.12-.05.05-.09.12-.11.18-.02.07-.03.14-.02.22v-.54Z" fill="#222"/>
  <path d="m306.85,12.81c.36,0,.53.18.52.54h-.53s-.52-.55-.52-.55h.53Z" fill="#222"/>
  <path d="m307.16,37.37c.01.07,0,.15-.02.21-.02.07-.06.13-.11.18-.05.05-.11.09-.18.11-.07.02-.14.03-.21.02v-.53s.53,0,.53,0Z" fill="#222"/>
  <path d="m386.66,68.29v.53s-.53,0-.53,0c.07,0,.14,0,.21-.02.07-.02.13-.06.18-.11.05-.05.09-.11.12-.18.02-.07.03-.14.02-.21Z" fill="#222"/>
  <polygon points="378.26 48.08 378.26 47.91 378.33 47.82 378.26 48.08" fill="#222"/>
  <path d="m365.16,78.77c.04-.1.1-.18.17-.25.07-.07.16-.13.25-.17.1-.04.2-.06.3-.06l.78.79c-.11-.02-.22,0-.32.03-.1.03-.19.09-.27.17-.08.08-.13.17-.17.27-.03.1-.05.21-.03.32-.1,0-.2-.02-.3-.06-.1-.04-.18-.1-.25-.17-.07-.07-.13-.16-.17-.26-.04-.1-.06-.2-.06-.3,0-.1.02-.21.06-.3Z" fill="#222"/>
  <path d="m382.48,153.37v-.54c.36,0,.53.18.53.54h-.53Z" fill="#222"/>
  <path d="m399.72,155.05c-.07-.02-.13-.05-.19-.1-.05-.05-.1-.1-.13-.17-.03-.06-.04-.14-.04-.21l.03-.05c.07,0,.15,0,.21.02s.13.06.18.11c.05.05.09.11.11.18.02.07.03.14.02.22-.07.01-.14.01-.21,0Z" fill="#222"/>
  <path d="m401.6,140.74v.54s-.53,0-.53,0c-.01-.07,0-.15.02-.22.02-.07.06-.13.11-.18.05-.05.11-.09.18-.12.07-.02.14-.03.21-.02Z" fill="#222"/>
  <path d="m426.66,94.54c-.07,0-.15,0-.22-.03-.07-.02-.13-.06-.18-.12-.05-.05-.09-.12-.11-.18s-.03-.14-.02-.22h1.06c.01.08,0,.15-.02.22-.02.07-.06.13-.11.18-.05.05-.11.09-.18.12s-.14.03-.21.02Z" fill="#222"/>
  <path d="m440.82,130.86c-.07.01-.15,0-.21-.02-.07-.02-.13-.06-.18-.11-.05-.05-.09-.11-.11-.18-.02-.07-.03-.14-.02-.21l.54-.52c.15.13.28.3.37.48.09.18.14.38.15.58h-.53Z" fill="#222"/>
  <path d="m513.21,147.46l-.2.5c.03-.06.05-.13.05-.21,0-.07-.01-.14-.04-.21-.03-.07-.07-.12-.13-.17-.06-.05-.12-.08-.19-.1l.5.18Z" fill="#222"/>
  <path d="m501.7,183.6c-.13.15-.3.28-.48.37-.18.09-.38.14-.59.15,0-.07,0-.15.02-.21.02-.07.06-.13.12-.18.05-.05.12-.09.19-.11.07-.02.14-.03.21-.02h.53Z" fill="#222"/>
  <path d="m506.52,173.55v-.53s.53,0,.53,0c.01.07,0,.15-.02.21-.02.07-.06.13-.11.18-.05.05-.11.09-.18.11-.07.02-.14.03-.21.02Z" fill="#222"/>
  <path d="m507.26,149.01h-.53s-.52-.55-.52-.55h.53c.36,0,.53.19.52.55Z" fill="#222"/>
  <path d="m485.67,173.28c-.06.01-.13.01-.19,0-.06-.01-.12-.04-.17-.07-.05-.04-.1-.08-.13-.14s-.06-.11-.07-.18l.04-.14.52.53Z" fill="#222"/>
  <polygon points="485.6 129.7 486.09 129.9 485.41 130.2 485.6 129.7" fill="#222"/>
  <path d="m453.43,88.42c.02-.07.06-.13.12-.18.05-.05.12-.09.19-.11.07-.02.14-.03.21-.02h.53c-.14.16-.3.28-.48.37-.18.09-.38.14-.59.15,0-.07,0-.15.03-.21Z" fill="#222"/>
  <path d="m452.25,131.72c-.07-.02-.14-.05-.19-.1-.06-.05-.1-.11-.13-.17-.03-.07-.04-.14-.04-.21,0-.07.02-.15.06-.21l.5.2-.2.5Z" fill="#222"/>
  <path d="m558.16,192.3c-.02.07-.06.13-.11.18-.05.05-.11.09-.18.11-.07.02-.14.03-.21.02v-.53s.53,0,.53,0c.01.07,0,.15-.02.21Z" fill="#222"/>
  <path d="m339.69,7.22v.09s0,0,0,0c0-.03,0-.06,0-.09Z" fill="#222"/>
</svg>