<?xml version="1.0" encoding="UTF-8"?><svg id="Layer_1" xmlns="http://www.w3.org/2000/svg" viewBox="0 0 437.73 423.46"><path d="M144.82,227.82c-5.26,0-10.52-.01-15.78,.01-4.09,.02-8.19,.05-12.31,.12-.56,.75-1.32,1.36-2.29,1.73,1.05,.08,2.11,.17,3.16,.27,.72,.07,1.37,.3,1.95,.61,7.86-.89,15.71-1.67,23.58-2.23,.57-.17,1.13-.34,1.69-.52Z" fill="#610b0e"/><path d="M324.01,236.03c-4.15,.19-8.29,.44-12.41,.71-.4,.43-.89,.81-1.48,1.1,4.46,.03,8.93-.13,13.41-.4,.16-.47,.33-.94,.49-1.41Z" fill="#610b0e"/><path d="M405.2,115.42c-3.4-4.42-8.82-6.05-15.47-6.01-14.48,.08-28.96,.02-43.44,.03-.94,0-1.88,.09-2.76,.13-.09,.35-.18,.52-.18,.69,.45,19.92-21.67,36.37-49.24,35.94-29.44-.45-58.9-.09-88.35-.11-2.86,0-5.71,0-8.57,0v4.84c-1.8,0-2.43-1.26-2.01-3.72h.15c.03-.38,.09-.75,.16-1.12-8.36,.01-16.72,.03-25.08,.03l1.72,1.72-2.49,4.95-4.95-4.95,.87-1.73c-8.69-.01-17.38-.05-26.07-.17-19.35-.27-35.97-9.55-42.26-23.31-1.91-4.18-2.55-8.68-3.82-13.22-12.67,0-25.8,.3-38.9-.09-10.52-.32-19.48,.86-24.21,8.95v6.08c4.35,6.44,10.33,11.94,17.3,16.87,23.03,16.29,51.05,25.31,81.14,31.21,11.86,2.32,23.84,4.02,35.92,5.22-.03-.08-.08-.15-.11-.23l.15,.09,3.72-3.69,.6,4.23c1.69,.15,3.37,.3,5.06,.44l-.38-.38,1.23-1.23,1.98,1.32,.17-.69c2.46,0,3.69-.42,3.69-1.23s.42-1.23,1.26-1.23l.72,1.44c1.02,.18,1.74,.48,1.74,1.02h-1.23l-.51-1.02c-.65-.13-1.31-.2-1.98-.21v2.69c6.26,.4,12.53,.7,18.83,.89,25.96,.77,51.77,.16,77.36-2.68l-1.96-5.85,3.72-6.18,3.72,6.18c0,1.59-.46,3.14-1.34,4.46-.24,.36-.52,.7-.82,1.02,6.28-.75,12.55-1.63,18.8-2.66,8.94-1.48,17.73-3.24,26.31-5.35-1.27-.3-1.7-1.52-1.33-3.64h.15c.13-1.8,.77-3.51,1.86-4.95v8.42c1.65-.41,3.3-.84,4.94-1.28l-.96-.96h1.05l.13,.9c15.69-4.23,30.64-9.76,44.52-17.2,11.05-5.92,20.9-12.79,28.35-21.42,3.69-4.28,4.58-8.71,1.09-13.25ZM63.43,139.82v-1.23c.16,0,.31,.03,.45,.09,.14,.06,.27,.16,.37,.27,.1,.12,.18,.25,.22,.4,.04,.15,.06,.31,.03,.46h-1.08Zm3.6-11.13l1.23-1.23,2.46,1.23-1.23,1.23-2.46-1.23Zm6.18,12.36l-2.49-2.46h4.95l-2.46,2.46Zm5.8-8.53c-.22,.43-.51,.81-.88,1.12l-1.23-2.49,1.23-2.46c.37,.3,.67,.68,.88,1.1,.22,.42,.34,.89,.38,1.36-.04,.48-.16,.94-.38,1.37Zm16.46-2.6l-1.26-1.23c.69-.6,1.12-1.43,1.23-2.34l.03-.12,1.23,1.23-1.23,2.46Zm18.66,35.87c-1.8,0-2.43-1.26-2.01-3.72h.15c.13-1.8,.77-3.51,1.86-4.95v8.67Zm3.97-2.49h1.05l.18,1.23-1.23-1.23Zm.82-9.9h-1.23l-2.49-2.46v-6.18l4.95-1.23,1.23,2.46-2.46,7.41Zm6.33,12.39l-1.23-1.26h1.23v1.26Zm39.82-1.26l-1.23-1.23h2.46l-1.23,1.23Zm72.89,6.81l-1.26-1.26,3.72-3.69,1.23,2.46-3.69,2.49Zm12.36-5.58c-1.2-.75-2.13-1.86-2.64-3.18l.15,.09,3.72-3.69,1.23,8.64c-.72-.74-1.55-1.37-2.46-1.86Zm5.17-10.23c-.16,.48-.43,.92-.79,1.28s-.8,.63-1.28,.8c-.48,.16-1,.21-1.5,.14-.51-.02-1.01-.15-1.46-.38-.45-.23-.86-.55-1.18-.94l.15,.06c-.07-.5-.02-1.02,.14-1.5,.16-.48,.43-.92,.8-1.28s.8-.63,1.28-.79c.48-.16,1-.2,1.5-.13,1.65,0,2.46,.39,2.46,1.23,.07,.5,.03,1.02-.13,1.5Zm10.91,7.14l-.51-1.02c-.65-.13-1.31-.2-1.98-.21v6.18h-4.92l1.23-4.95c2.46,0,3.69-.42,3.69-1.23s.42-1.23,1.26-1.23l.72,1.44c1.02,.18,1.74,.48,1.74,1.02h-1.23Zm64.5-6.18h-1.23l-2.49-2.46v-6.18l4.95-1.23,1.23,2.46-2.46,7.41Zm7.69-15.81c-.16,.48-.43,.92-.79,1.28-.36,.36-.8,.63-1.28,.8-.48,.16-1,.21-1.5,.14-.51-.02-1.01-.15-1.46-.38-.45-.23-.86-.55-1.18-.94l.15,.06c-.07-.5-.02-1.02,.14-1.5,.16-.48,.43-.92,.8-1.28,.36-.36,.8-.63,1.28-.79,.48-.16,1-.2,1.5-.13,1.65,0,2.46,.39,2.46,1.23,.07,.5,.03,1.02-.13,1.5Zm7.19-10.14c0-2.73,.54-4.6,1.67-5.63l-1.3,.65-2.49-1.23c.31-.36,.69-.65,1.12-.87,.43-.21,.89-.33,1.37-.36,.95,.07,1.83,.51,2.46,1.23l-.19,.09,3.53,1.17c-2.31,1.31-4.4,2.98-6.18,4.95Zm12.73-2.49v-1.23c.16,0,.31,.03,.45,.09,.14,.06,.27,.16,.37,.27,.1,.12,.18,.26,.22,.4,.04,.15,.06,.31,.03,.46h-1.08Zm3.6-11.13l1.23-1.23,2.46,1.23-1.23,1.23-2.46-1.23Zm6.18,12.36l-2.49-2.46h4.95l-2.46,2.46Zm5.8-8.53c-.22,.43-.51,.81-.88,1.12l-1.23-2.49,1.23-2.46c.37,.3,.67,.68,.88,1.1,.22,.42,.34,.89,.38,1.36-.04,.48-.16,.94-.38,1.37Zm16.46-2.6l-1.26-1.23c.69-.6,1.12-1.43,1.23-2.34l.03-.12,1.23,1.23-1.23,2.46Z" fill="#610b0e"/><path d="M335.85,56.74c-2.73-8.79-6.01-17.31-10.55-25.11l-.71-.69c.07-.06,.12-.13,.19-.2-3.07-5.12-6.7-9.92-11.13-14.25C296.27-.54,269.83-4.67,246.16,5.48c-10.32,4.43-19.28,10.79-27.08,18.6-1.28-1.01-2.52-2.02-3.74-3.02h0l-2.82-1.4,.51-.51c-2.93-2.41-5.78-4.71-8.85-6.67C185.06,.3,164.66-4,142.83,4.26c-18.8,7.11-29.47,22.08-36.79,39.84-3.74,9.07-6.44,18.38-8.46,27.85,1.68-.17,2.52-.61,2.52-1.33,0-.93,.48-1.41,1.44-1.41l.82,1.65c1.17,.21,1.99,.55,1.99,1.17h-1.41l-.58-1.17c-.75-.15-1.5-.23-2.27-.24v7.07h-3.67c-1.5,8.06-2.56,16.22-3.4,24.43-.76,7.43-1.16,14.76,1.66,21.86,6.11,15.4,18.89,24.02,35.78,24.03,58.83,.03,117.66,.01,176.48,0,1.28,0,2.57-.02,3.84-.12,20.58-1.63,36.05-18.94,34.34-38.75-1.53-17.73-3.97-35.32-9.28-52.39Zm-204.04,25.21v1.41h-1.44l1.44-1.41Zm-8.79-24.03l1.41,1.41-4.22,4.26,2.82-5.67Zm-4.22,25.48c1.1,.08,2.12,.58,2.85,1.41l-1.41,2.85-2.85-1.44,1.41-2.82Zm-4.09,56.62h1.2l.21,1.41-1.41-1.41Zm9.74-29.42c-.18,.55-.49,1.06-.9,1.47-.41,.41-.91,.73-1.46,.91-.55,.19-1.14,.24-1.72,.16-.58-.03-1.15-.17-1.67-.43-.52-.26-.98-.63-1.35-1.08l.17,.07c-.08-.58-.03-1.16,.16-1.72,.19-.55,.5-1.05,.91-1.46,.41-.41,.92-.72,1.47-.9,.55-.18,1.14-.23,1.72-.14,1.89,0,2.82,.45,2.82,1.41,.09,.58,.04,1.16-.15,1.72Zm8.66-17.31l-2.85-1.41c.36-.41,.79-.75,1.28-.99,.49-.24,1.02-.38,1.57-.42,1.09,.08,2.1,.59,2.82,1.41l-2.82,1.41Zm2.51-21.68c-.26,.26-.62,.41-1,.41v-2.82c.37,0,.73,.15,1,.41,.26,.26,.41,.62,.41,1s-.15,.73-.41,.99ZM291.76,11.17l4.26,1.41c-2.65,1.5-5.03,3.41-7.07,5.67,0-3.78,.89-6.15,2.82-7.07Zm-1.16,32.51h-1.24v-1.41c.18,0,.35,.03,.52,.11,.16,.07,.31,.18,.42,.31,.12,.13,.21,.29,.26,.46,.05,.17,.06,.35,.04,.53Zm-18.65-28.28l-2.85,2.85-4.22-4.26,2.82-2.82,4.26,4.22Zm-6.83-9.93l1.41,1.41-4.22,4.26,2.82-5.67Zm-4.22,25.48c1.1,.08,2.12,.58,2.85,1.41l-1.41,2.85-2.85-1.44,1.41-2.82Zm-15.87-13.97l.03-.14,1.41,1.41-1.41,2.82-1.44-1.41c.78-.69,1.29-1.64,1.41-2.68Zm-36.64,14.01c.18,0,.35,.03,.52,.11,.16,.07,.31,.18,.42,.31,.12,.13,.21,.29,.26,.46,.05,.17,.06,.35,.04,.53h-1.24v-1.41Zm-4.41,38.22l1.41,1.41-4.22,4.26,2.82-5.67Zm-4.22,25.48c1.1,.08,2.12,.58,2.85,1.41l-1.41,2.85-2.85-1.44,1.41-2.82Zm-19.83-75.03c1.1,.08,2.12,.58,2.85,1.41l-1.41,2.85-2.85-1.44,1.41-2.82Zm-31.43,76.48h-1.24v-1.41c.18,0,.35,.03,.52,.11,.16,.07,.31,.18,.42,.31,.12,.13,.21,.29,.26,.46,.05,.17,.06,.35,.04,.53Zm2.56-28.38c-.18-.06-.35-.16-.49-.3s-.24-.3-.3-.49c-.06-.18-.08-.38-.05-.57l1.41-1.44c-.03,.19-.01,.39,.05,.57,.06,.18,.16,.35,.3,.49,.14,.14,.3,.24,.49,.31,.18,.06,.38,.09,.57,.06,.02,.19,0,.38-.06,.56-.06,.18-.17,.34-.3,.48-.14,.14-.3,.24-.48,.3-.18,.06-.37,.08-.56,.06-.19,.03-.39,.01-.57-.05Zm.33,15.65l1.41-1.41,2.82,1.41-1.41,1.41-2.82-1.41Zm7.07,14.15l-2.85-2.82h5.66l-2.82,2.82Zm6.64-9.76c-.25,.49-.59,.92-1.01,1.28l-1.41-2.85,1.41-2.82c.42,.35,.76,.78,1.01,1.26,.25,.48,.39,1.01,.43,1.56-.04,.55-.19,1.08-.44,1.57Zm3.39,53.64l-1.41-1.41h2.82l-1.41,1.41Zm1.56-120.36l-5.66-1.41,4.26-4.26,4.22,1.44-2.82,4.22Zm5.8,55.21h1.2l.21,1.41-1.41-1.41Zm8.09,8.53l-1.44-1.41c.78-.69,1.29-1.64,1.41-2.68l.03-.14,1.41,1.41-1.41,2.82Zm1.66-37.96c-.18,.55-.49,1.06-.9,1.47-.41,.41-.91,.73-1.46,.91-.55,.19-1.14,.24-1.72,.16-.58-.03-1.15-.17-1.67-.43-.52-.26-.98-.63-1.35-1.08l.17,.07c-.08-.58-.03-1.16,.16-1.72,.19-.55,.5-1.05,.91-1.46,.41-.41,.92-.72,1.47-.9,.55-.18,1.14-.23,1.72-.14,1.89,0,2.82,.45,2.82,1.41,.09,.58,.04,1.16-.14,1.72Zm8.66-17.31l-2.85-1.41c.36-.41,.79-.75,1.28-.99,.49-.24,1.02-.38,1.57-.42,1.09,.08,2.1,.59,2.82,1.41l-2.82,1.41Zm11.17,92.34c-.03,.1-.09,.19-.13,.29v3.7c-1.25,0-2.01-.54-2.3-1.6-.53,.17-1.09,.22-1.65,.14-.58-.03-1.15-.17-1.67-.43-.52-.26-.98-.63-1.35-1.08l.17,.07c-.08-.58-.03-1.16,.16-1.72,.19-.55,.5-1.05,.91-1.46,.41-.41,.92-.72,1.47-.9,.55-.18,1.14-.23,1.72-.14,.38,0,.7,.02,1.01,.06,.36-1.02,.87-1.99,1.53-2.87v3.47c.18,.2,.28,.44,.28,.74,.09,.58,.04,1.16-.14,1.72Zm2.55-39.89l-4.22-4.26,2.82-2.82,4.26,4.22-2.85,2.85Zm5.92,24.02l-1.41,1.41v-1.41c0-.96,.45-1.44,1.41-1.44v1.44Zm-2.66-2.84c.36-.41,.79-.75,1.28-.99,.49-.24,1.02-.38,1.57-.42,1.09,.08,2.1,.59,2.82,1.41l-2.82,1.41-2.85-1.41Zm6.8,22.7l-1.41-1.44h1.41v1.44Zm1.56-92.07l-2.85-2.82h5.66l-2.82,2.82Zm6.64-9.76c-.25,.49-.59,.92-1.01,1.28l-1.41-2.85,1.41-2.82c.42,.35,.76,.78,1.01,1.26,.25,.48,.39,1.01,.43,1.56-.04,.55-.19,1.08-.44,1.57Zm1.98,52.24h.89c.41-.59,.91-1.06,1.53-1.36l4.26,1.41c-2.65,1.5-5.03,3.41-7.07,5.67,0-2.21,.31-3.92,.95-5.16l-.56-.56Zm1.26,31.15h-1.24v-1.41c.18,0,.35,.03,.52,.11,.16,.07,.31,.18,.42,.31,.12,.13,.21,.29,.26,.46,.05,.17,.06,.35,.04,.53Zm2.88-12.74l1.41-1.41,2.82,1.41-1.41,1.41-2.82-1.41Zm7.07,14.15l-2.85-2.82h5.66l-2.82,2.82Zm6.64-9.76c-.25,.49-.59,.92-1.01,1.28l-1.41-2.85,1.36-2.73-2.66,1.31-2.82-2.85,1.41-1.41,4.26,2.85-.11,.05c.4,.34,.73,.75,.97,1.22,.25,.48,.39,1.01,.43,1.56-.04,.55-.19,1.08-.44,1.57Zm4.95-66.72l-5.66-1.41,4.26-4.26,4.22,1.44-2.82,4.22Zm5.8,55.21h1.2l.21,1.41-1.41-1.41Zm8.09,8.53l-1.44-1.41c.78-.69,1.29-1.64,1.41-2.68l.03-.14,1.41,1.41-1.41,2.82Zm1.66-37.96c-.03,.1-.09,.19-.13,.29v3.7c-1.25,0-2.01-.54-2.3-1.6-.53,.17-1.09,.22-1.65,.14-.58-.03-1.15-.17-1.67-.43-.52-.26-.98-.63-1.35-1.08l.17,.07c-.08-.58-.03-1.16,.16-1.72,.19-.55,.5-1.05,.91-1.46,.41-.41,.92-.72,1.47-.9,.55-.18,1.14-.23,1.72-.14,.38,0,.7,.02,1.01,.06,.36-1.02,.87-1.99,1.53-2.87v3.47c.18,.2,.28,.44,.28,.74,.09,.58,.04,1.16-.15,1.72Zm5.36-10.19h-1.41l-2.85-2.82v-7.07l5.67-1.41,.8,1.6c.35-.12,.72-.21,1.09-.24,1.09,.08,2.1,.59,2.82,1.41l-2.82,1.41-.8-.4-2.49,7.51Zm7.07,58.06h-1.27v-1.44c.18,0,.36,.04,.53,.11,.17,.07,.32,.18,.44,.32,.12,.14,.21,.3,.26,.47,.05,.17,.07,.36,.04,.54Zm.17-43.88l-1.41-1.44h1.41v1.44Zm7.09,75.03c-2.06,0-2.78-1.44-2.3-4.26h.17c.14-2.06,.88-4.02,2.13-5.67v9.92Zm2.68-43.88l-4.22-4.26,2.82-2.82,4.26,4.22-2.85,2.85Zm4.55-62.34l1.41-1.41,2.82,1.41-1.41,1.41-2.82-1.41Zm5.51,106.22l-1.41-1.44h1.41v1.44Zm1.56-92.07l-2.85-2.82h5.66l-2.82,2.82Zm6.64-9.76c-.25,.49-.59,.92-1.01,1.28l-1.41-2.85,1.41-2.82c.42,.35,.76,.78,1.01,1.26,.25,.48,.39,1.01,.43,1.56-.04,.55-.19,1.08-.44,1.57Zm1.59,57.95c0-2.21,.31-3.92,.95-5.16l-.56-.56h.89c.41-.59,.91-1.06,1.53-1.36l4.26,1.41c-2.65,1.5-5.03,3.41-7.07,5.67Z" fill="#fff"/><path d="M343.61,309.82c-8.68-8.49-17.28-16.89-26-25.41-10.1,10.1-20.55,20.58-31.07,31-1.27,1.26-2.8,2.46-4.44,3.11-9.64,3.79-19.42,6.84-29.36,9.15l.64,.23-4,1.98-1.32-.98,.37-.28c-12.38,2.6-24.99,4.06-37.84,4.32-10.32,.21-20.54-.16-30.64-1.17l1.41,1.04v1l-1.32,1.95c-.71,.89-1.67,1.66-2.82,2.25s-2.46,.99-3.84,1.18c-2.71,.36-5.39,.85-8.01,1.48h-.16c4.08-2.73,7.59-5.89,10.44-9.36-19.23-2.3-38.02-7.05-56.27-14.9-10.73-4.61-21.94,1.13-24.66,12.34-1.9,7.85,.88,14.19,7.15,19.18,13.74,10.96,27.46,21.96,41.19,32.94l.58-.38h4l-1.18,3.11c7.71,6.16,15.42,12.31,23.15,18.44,9.23,7.32,18.73,14.29,28.11,21.42h7.68l-1.32-1.98,1.32-1.95,2.68,1.95-2.68,1.98h4.29c2.58-1.72,5.3-3.26,7.72-5.18,14.95-11.85,29.82-23.79,44.73-35.7,10.42-8.33,20.85-16.64,31.85-25.42,8.23,8.43,16.27,16.65,23.69,24.24,8.6-8.6,17.08-17.08,25.88-25.88-7.27-7.18-14.95-14.77-22.94-22.67,7.75-7.77,15.47-15.5,22.99-23.03Zm-17.19-1.55l2.65-.98c.87,0,1.36,.67,1.36,1.95,.14,2.01-.32,4.02-1.36,5.88l-2.65-3.93v-2.93Zm-222.82,38.28l-4-2.93-.16,.07c.55-1.05,1.55-1.93,2.84-2.53,.98-.39,1.87-.89,2.65-1.48l-1.32,6.86Zm15.44-2.12l-.78,1.14c-.9,0-1.36-.33-1.36-.98s-1.32-.98-3.97-.98l-1.32-3.93h5.3v4.91c.72,0,1.43-.06,2.13-.17l.55-.81h1.32c0,.43-.78,.67-1.87,.81Zm12.53-13.58c1.58,.48,2.93,1.29,3.88,2.34,.95,1.05,1.45,2.28,1.45,3.54l-4,4.91-4-4.91,2.68-5.88Zm2.25,29.57l-2.68-3.49,5.33-3.49,2.68,3.49-5.33,3.49Zm25.8,15.71l-1.36-.87h1.36v.87Zm21.75,6.77l-4-2.95,5.33-.98,2.65,2.93-3.97,1Zm7.91-42.23h-1.13l1.32-.98-.19,.98Zm1.39,37.33l2.68-1,1.32,1.98c-.68,.57-1.65,.92-2.68,.98l-1.32-1.95Zm5.3,19.63l-2.65-3.93,3.97,2.95-1.32,.98Zm1.49-35.35c0,.67-.87,.98-2.65,.98-.54,.06-1.09,.02-1.61-.1-.52-.13-.99-.34-1.38-.62-.39-.28-.68-.63-.86-1.01-.18-.38-.23-.79-.15-1.19l-.16,.05c.35-.31,.78-.57,1.27-.75,.49-.18,1.03-.28,1.57-.3,.54-.06,1.1-.02,1.61,.11,.52,.13,.99,.35,1.38,.63,.39,.29,.68,.64,.85,1.02,.17,.38,.22,.79,.14,1.19Zm5.33,40.56v.98c-.18,.02-.36,0-.54-.03-.17-.04-.33-.11-.46-.21-.13-.1-.23-.21-.28-.34-.06-.13-.07-.26-.04-.4v-.98c.18-.01,.36,0,.53,.04,.17,.04,.32,.12,.45,.21,.13,.09,.22,.21,.28,.33,.06,.13,.08,.26,.06,.39Zm2.67-27.79c-.51-.02-1.01-.12-1.47-.29-.46-.17-.87-.4-1.21-.69l2.68-.98,2.65,.98c-.67,.57-1.63,.92-2.65,.98Zm5.3,35.65h-.03c-1.78-1.31-2.65-2.29-2.62-2.95,0-.65,1.32-1.96,3.97-3.93l2.68,3.93-4,2.95Zm9.13-39.22c-.05,.12-.13,.23-.24,.32-.11,.09-.25,.17-.4,.22-.15,.05-.32,.08-.49,.07v-.98h1.16c.02,.12,.01,.25-.04,.36Zm4.07,9.45l-1.32-.98,2.65-.98,1.32,.98-2.65,.98Zm2.65-8.84l2.68-1.95,2.65,1.95h-5.33Zm8.93,6.99c-.23,.34-.56,.63-.95,.87l-1.32-1.95,1.32-1.98c.39,.25,.71,.55,.95,.89,.23,.34,.37,.71,.41,1.09-.03,.38-.17,.74-.41,1.08Zm1.86-38.41l1.32-.98,1.32,.98h-2.65Zm15.86,41.23l-.03-.1c-.12-.72-.59-1.38-1.32-1.86l1.36-.98,1.32,1.95-1.32,.98Zm20.09-24.54c-1.17-1.14-1.87-2.5-2-3.93h-.16c-.45-1.95,.23-2.95,2.16-2.95v6.88Zm6.49,10.79l-5.33-.98v-4.91l2.68-1.95h1.32l2.65,5.88-1.32,1.95Zm4.13-48.12h1.19c.02,.13,0,.25-.04,.37-.05,.12-.13,.23-.25,.33-.11,.1-.25,.17-.41,.22-.16,.05-.33,.08-.5,.08v-1Zm1.36,31.44h-1.32l1.32-1v1Zm7.88-13.74h-1.32c-1.26-.89-2.26-1.95-2.95-3.13-.69-1.18-1.05-2.45-1.05-3.73,.32-2.08,1.23-4.09,2.68-5.88l3.97,11.77-1.32,.98Zm22.51,36.71c-.06,.12-.15,.24-.28,.33-.12,.09-.27,.17-.44,.21s-.34,.06-.52,.05v-.98h1.29c.02,.13,0,.26-.06,.38Zm4.56-19.83c-.17,.38-.47,.73-.85,1.02-.39,.29-.86,.5-1.38,.63-.52,.13-1.07,.17-1.62,.11l-5.33-4.91,1.32,.98h5.33l2.68,.98c.07,.4,.02,.81-.15,1.19Z" fill="#fff"/><path d="M417.23,109.47c-16.81,.12-33.62,.03-50.43,.05-1.09,0-2.18,.13-3.21,.2-.11,.54-.21,.8-.21,1.07,.01,.7,0,1.39-.02,2.08l1.13,.19c-.39,.11-.75,.24-1.13,.36-.16,4.94-.99,9.73-2.41,14.27l1.74-.89,4.49,1.14-2.24,1.14-4.1-1.04c-7.2,22.47-28.85,38.84-54.6,38.31-14.33-.29-28.66-.36-43-.35-2.68,.97-5.17,2.08-7.39,3.32,0-1.32,.28-2.42,.83-3.31-9.88,.03-19.77,.08-29.65,.12l1.75,.88-4.54,2.31-6.15-3.16c-4.8,.02-9.6,.03-14.4,.02-25.64-.01-51.29,.28-76.92-.21-13.81-.26-26.41-5.78-35.78-14.94l-6.56,3.36,4.49-4.59,1.7,.86c-5.69-5.68-10.15-12.71-12.91-20.73-2.22-6.46-2.96-13.42-4.43-20.44-.65,0-1.3,0-1.94,0v.09h-2.3l.17-.09c-13.44,.07-27.28,.4-41.09-.16-12.21-.49-22.61,1.33-28.11,13.84v9.4c5.05,9.95,12,18.46,20.08,26.07,.93,.88,1.88,1.74,2.82,2.59-.03-.04-.07-.08-.1-.12l.27,.08,6.78-3.42,2.24,8.02c-1.31-.69-2.82-1.27-4.48-1.73-1.24-.39-2.32-.9-3.19-1.49,25.88,22.71,56.79,35.68,89.85,44.3,26.95,7.03,54.44,10.38,82.26,11.48,38.85,1.53,77.39-.44,115.47-8.83,31.93-7.03,62.17-18.05,88.99-37.2,12.82-9.16,24.26-19.77,32.92-33.12,4.29-6.61,5.32-13.47,1.26-20.49-3.95-6.83-10.24-9.35-17.95-9.29ZM32.11,138.3l-9.03-4.59,4.54-4.59,9.02,4.59-4.54,4.59Zm24.83,22.93l-.93-.95c-1.19-.12-2.4-.19-3.61-.19v5.73h-8.97l2.24-4.59c4.48,0,6.73-.39,6.73-1.14s.77-1.14,2.3-1.14l1.31,1.34c1.86,.17,3.17,.45,3.17,.95h-2.24Zm45.98,8.05v1.14h-2.3l2.3-1.14Zm-20.73,1.18c1.75,.06,3.38,.47,4.54,1.14l-2.24,2.31-4.54-1.17,2.24-2.28Zm9.01,22.04c-.29,.45-.78,.86-1.43,1.19-.65,.34-1.45,.59-2.33,.74-.88,.15-1.82,.2-2.73,.13-.93-.02-1.83-.14-2.66-.35-.83-.21-1.56-.51-2.15-.87l.27,.06c-.13-.47-.04-.94,.25-1.39,.3-.45,.79-.85,1.45-1.19s1.46-.58,2.34-.73c.88-.15,1.82-.19,2.73-.12,3.01,0,4.49,.36,4.49,1.14,.14,.47,.06,.94-.23,1.39Zm13.79-14.03l-4.54-1.14c.57-.33,1.27-.61,2.05-.8,.78-.2,1.63-.31,2.49-.34,1.73,.07,3.34,.48,4.49,1.14l-4.49,1.14Zm24.5,2.31h-1.97v-1.14c.28,0,.56,.03,.82,.09,.26,.06,.49,.15,.68,.25,.19,.11,.33,.24,.41,.37,.08,.14,.1,.28,.06,.43Zm4.59-10.33l2.24-1.14,4.49,1.14-2.24,1.14-4.48-1.14Zm11.27,11.47l-4.54-2.28h9.02l-4.49,2.28Zm10.57-7.91c-.39,.4-.94,.75-1.6,1.04l-2.24-2.31,2.24-2.28c.67,.28,1.21,.63,1.61,1.02,.39,.39,.63,.82,.69,1.26-.06,.44-.3,.88-.69,1.27Zm30.01-2.41l-2.3-1.14c1.25-.56,2.05-1.33,2.24-2.17l.05-.11,2.24,1.14-2.24,2.28Zm25.22,8.01c1.75,.06,3.38,.47,4.54,1.14l-2.24,2.31-4.54-1.17,2.24-2.28Zm9.01,22.04c-.06,.09-.13,.18-.21,.27v2.96c-2,0-3.2-.44-3.66-1.29-.85,.14-1.74,.18-2.62,.12-.93-.02-1.83-.14-2.66-.35-.83-.21-1.56-.51-2.15-.87l.27,.06c-.13-.47-.04-.94,.25-1.39,.3-.45,.79-.85,1.45-1.19,.66-.33,1.46-.58,2.34-.73,.88-.15,1.82-.19,2.73-.12,.6,0,1.11,.02,1.59,.05,.58-.83,1.4-1.61,2.45-2.32v2.82c.28,.16,.44,.36,.44,.6,.14,.47,.06,.94-.23,1.39Zm13.49-12.87l-2.24,1.14v-1.14c0-.78,.71-1.17,2.24-1.17v1.17Zm-4.23-2.3c.57-.33,1.27-.61,2.05-.8,.78-.2,1.63-.31,2.49-.34,1.73,.07,3.34,.48,4.49,1.14l-4.49,1.14-4.54-1.14Zm10.83,18.4l-2.24-1.17h2.24v1.17Zm18.22-14.95h-1.97v-1.14c.28,0,.56,.03,.82,.09,.26,.06,.49,.15,.68,.25,.19,.11,.33,.24,.41,.37,.08,.14,.1,.28,.06,.43Zm4.59-10.33l2.24-1.14,4.49,1.14-2.24,1.14-4.48-1.14Zm11.27,11.47l-4.54-2.28h9.02l-4.49,2.28Zm10.57-7.91c-.39,.4-.94,.75-1.6,1.04l-2.24-2.31,2.17-2.21-4.23,1.06-4.49-2.31,2.24-1.14,6.78,2.31-.17,.04c.63,.28,1.16,.61,1.54,.99,.39,.39,.63,.82,.69,1.26-.06,.44-.3,.88-.69,1.27Zm17.13-9.33h1.92l.33,1.14-2.24-1.14Zm12.88,6.92l-2.3-1.14c1.25-.56,2.05-1.33,2.24-2.17l.05-.11,2.24,1.14-2.24,2.28Zm22.45,8.04h-2.02v-1.17c.29,0,.58,.03,.84,.09,.27,.06,.5,.15,.69,.26,.19,.11,.33,.24,.42,.38,.08,.14,.11,.29,.07,.44Zm15.84-10.32l-6.73-3.45,4.48-2.28,6.78,3.42-4.54,2.31Zm18.51-39.06l-4.54-2.28h9.02l-4.49,2.28Zm10.57-7.91c-.39,.4-.94,.75-1.6,1.04l-2.24-2.31,2.24-2.28c.67,.28,1.21,.63,1.61,1.02,.39,.39,.63,.82,.69,1.26-.06,.44-.3,.88-.69,1.27Zm2.53,46.98c0-1.79,.5-3.18,1.52-4.18l-.89-.45h1.42c.65-.48,1.45-.86,2.43-1.1l6.78,1.14c-4.21,1.21-8.02,2.77-11.27,4.59Zm27.48-49.39l-2.3-1.14c1.25-.56,2.05-1.33,2.24-2.17l.05-.11,2.24,1.14-2.24,2.28Z" fill="#fff"/><path d="M218.91,228.85c-42.7,0-84.81-4.4-125.93-17.08,7.4,56.26,57.47,108.27,125.85,108.26,68.19-.01,118.08-51.56,125.93-108.27-41.28,12.68-83.27,17.09-125.85,17.09Zm-69.86,45.87c-.6-.2-1.19-.4-1.79-.6l.09-.32c.6,.16,1.2,.33,1.8,.49l-.1,.43Zm126.15,21.82l-.02-.21c1.01-.19,2.01-.38,3.02-.56l.07,.39c-1.02,.13-2.04,.26-3.06,.39Zm12.92-21.09c-.23,.27-.71,.46-.26,.94,.05,.05,.02,.26-.05,.33-.83,.94-1.63,1.91-2.54,2.78-.76,.72-1.65,1.31-2.46,1.98-.25,.21-.43,.5-.7,.83l.79,.11c-1.31,1.13-2.84,1.86-3.59,3.37,1.05,.71,1.94-1.32,3.08,.02-2.1,.83-3.2,2.59-4.33,4.31-.05,.07,.13,.28,.15,.32l-1.44,1.28c1.35,.32,1.73-.95,2.77-1.26-.33,.45-.55,.76-.77,1.07-.87,.64-2.21,.61-2.8,1.9-.1,.21-.56,.23-.77,.42-.27,.24-.52,.54-.67,.87-.06,.13,.18,.4,.34,.69-.34,.77-.92,1.32-1.95,1.66-.85,.28-1.3,1.51-2.51,1.42,.38,.04,.77,.08,1.14,.12-.11,.35-.2,.64-.32,1.02-.18,.03-.44,.07-.7,.11-.46,.08-.92,.06-1.3,.5-.49,.58-1.17,.62-1.92,.48-.59-.11-1.21-.02-1.87,.13,.66,.19,1.32,.38,1.98,.57l.07,.25c-.32,.07-.64,.22-.94,.2-.88-.06-1.76-.19-2.8-.32l.15,.84-1.65-.52-.11,.34c.25,.09,.51,.18,.76,.27v.14c-1.14,.08-2.29,.15-3.7,.24,.62,.29,.99,.46,1.58,.73-3.18-.17-6.09-.32-9-.47l-.03,.18,.51,.2c-4.27-1.13-8.56-2.18-12.31-4.38-.12-.62-.65-.7-1.28-.89l.37,.75c-2.77-.18-5.41-.71-7.68-1.47-.34-.45-.48-.81-.73-.93-.33-.15-.87,.02-1.11-.19-1.49-1.28-3.56-1.64-4.88-3.22-1.09-1.3-2.42-2.39-3.49-3.69-.79-.97-1.44-2.1-1.46-3.45,0-.13-.07-.26-.11-.39l-.24,.02,.06,1.03-.71-.42c-.96,1.53-1.8,3.16-2.9,4.57-1.17,1.51-2.6,2.82-3.91,4.22l-.19-.15c.08-.2,.15-.4,.3-.8-1.59,1.56-3.04,2.97-4.48,4.39l-.15-.14,2.38-3.01-.17-.18c-1.62,1.2-3.23,2.41-4.89,3.64q-.47-.28-1.7,.84c.23-.43,.4-.64,.44-.88,.03-.19-.1-.41-.17-.64,1.18-.02,1.61-.95,2.15-1.81,.49-.78,1.12-1.47,1.67-2.21,.11-.15,.13-.36,.19-.54l-.26-.17c-1.07,1.34-2.13,2.68-3.2,4.01l-.09-.07c.17-.29,.35-.58,.52-.87l-.14-.15c-.18,.11-.36,.22-.53,.34-.88,.63-1.77,1.24-2.63,1.89-.21,.16-.35,.41-.52,.61-.36,.42-.89,.42-1.37-.02l-1.12,.89c-.96-.73-1.43,.31-2.03,.64-.92,.51-1.72,1.25-2.58,1.87-.12,.09-.29,.09-.59-.04,.86-1.09,1.71-2.18,2.57-3.27l-.34-.28c-.41,.49-.82,.98-1.18,1.42-1.58,1.2-3.14,2.39-4.55,3.46-.53,.03-.91,.09-1.29,.06-1.75-.15-3.31,1.03-5,.84-1.61-.17-3.25-.2-4.91-.54,.08-.9-.61-1-1.29-1.13,.09-.19,.16-.33,.3-.62-.47,.13-.8,.22-.9,.24-.37-.36-.59-.74-.88-.82-1.64-.41-3.31-.72-4.96-1.1-.46-.11-.9-.33-1.31-.59-.67-.16-1.33-.31-1.99-.47,.57-.33,1.1-.63,1.63-.94v-.3c-1.48-.44-2.96-.87-4.45-1.31v-.18h1.37v-.25c-1.09-.1-2.18-.2-3.28-.3v-.21c.31-.04,.62-.07,1.02-.12-.14-.18-.25-.32-.42-.54,.61-.18,1.19-.35,1.76-.52l-.02-.24c-.68-.13-1.38-.21-2.04-.42-.37-.11-.66-.48-1.02-.64-.64-.29-1.31-.52-1.92-.75,1.01-.83,.67-1.07-.19-1.84-.53-.48-1.08-.92-1.72-1.46h1c-.34-.64-.64-1.26-.99-1.85-.18-.3-.39-.63-.67-.82-.56-.37-.5-.75-.12-1.3,.42,.33,.84,.66,1.25,.98l.2-.07c-.19-.81-.21-1.72-.61-2.42-.44-.78-1.22-1.38-1.85-2.06-.26-.28-.58-.54-.77-.87-1.02-1.71-2.58-2.66-4.43-3.23-.45-.14-.88-.36-1.53-.64l.73-.33-.56-.63c1.04,.38,1.88,.68,2.74,1,.09-1.72-1.52-1.7-2.35-2.54,.8,.11,1.6,.22,2.4,.33l.09-.24-1.3-.59c.93-.84,1.38,.45,2.22,.39-.24-.22-.49-.44-.73-.65l.07-.19c.3,.12,.59,.26,.89,.35,.19,.05,.41,0,.61,0-.05-.21-.03-.5-.16-.62-.72-.64-1.47-1.24-2.21-1.85-.09-.07-.22-.08-.33-.12l.16-.18c.26,.14,.52,.28,.78,.42l.14-.16c-.5-.41-1-.81-1.5-1.22l.06-.12c.23,.1,.45,.23,.68,.29,.35,.09,.61,.75,1.07,.17,.02-.02,.27,.06,.31,.15,.4,.85,1.16,.85,1.94,.89,.17,0,.34,.31,.49,.49,.28,.37,.32,1.17,1.12,.5,.12-.1,.68,.25,.99,.46,.19,.12,.31,.35,.5,.59,.24-.21,.42-.38,.47-.43,2.07,1.03,4.03,2.14,6.09,2.98,1.32,.54,2.8,.67,4.2,1,2.14,.49,4.29,.44,6.46,.25,.33-.03,.7,.3,1.05,.46v-.57c3.08-.88,6.04-1.63,8.62-3.74,2.42-1.98,5.14-3.65,7.64-5.54,3.12-2.37,6.49-3.84,10.31-4.48,3.37-.57,6.69-.43,9.83,.95,1.55,.68,3.02,1.59,4.4,2.57,1.22,.87,2.29,.68,3.49,.07,1.6-.81,3.19-1.66,4.85-2.3,3.44-1.32,6.99-1.38,10.51-.37,1.25,.36,2.44,1,3.43,1.99,1.04,1.05,2.28,1.89,3.42,2.84,1.55,1.3,3.05,2.67,4.63,3.93,.82,.65,1.77,1.12,2.68,1.66,1.53,.9,3.02,1.88,4.61,2.65,1.38,.67,2.86,1.15,4.32,1.65,2.02,.68,4.13,.81,6.24,.82,.69,0,1.39,.17,2.08,.12,1.66-.12,3.32-.23,4.95-.51,2.1-.36,4.16-.89,6.35-1.37,.02,.24,.04,.43,.06,.73,3.36-1.61,6.62-3.17,10.08-4.83-.3,.4-.49,.66-.69,.9Z" fill="#fff"/></svg>