<?xml version="1.0" encoding="UTF-8"?><svg id="Capa_1" xmlns="http://www.w3.org/2000/svg" viewBox="0 0 358.3 160"><g><path d="M89.03,24.96c0-1.18-.1-2.83-.31-4.94,0-.2,.1-1.03,.31-2.47-.42-1.23-.83-1.85-1.25-1.85h-2.8v.62c-5.71,5.96-11.01,10.28-15.89,12.96v-.62h.31c3.84-2.52,8.73-6.63,14.65-12.34v-.62h-1.25c-2.86,.77-5.14,2.01-6.86,3.7-.73,0-2.18-.82-4.36-2.47h-.31c-.31,0-.93,2.57-1.87,7.71h-.62l1.25-8.02c-.1-.62-.93-.93-2.49-.93h-1.87l-.93,.62c-.21,7.56-.52,12.39-.93,14.5,.21,0,.31,.41,.31,1.23h.31l.93-.62h.31v.31c-1.25,.93-1.87,2.06-1.87,3.39v8.33c0,.41,.21,.62,.62,.62,3.95,.41,5.92,2.06,5.92,4.94-.62,3.03-1.35,9.2-2.18,18.51,.21,.41,.31,.72,.31,.93-.36,0-.88,1.75-1.56,5.24,0,3.34-1.45,6.12-4.36,8.33-1.56,0-3.53-1.54-5.92-4.63l-3.43-16.97c0-4.73-.42-7.09-1.25-7.09v-.31l.31-.62h-.31v-.31c0-4.06,1.77-6.63,5.3-7.71,1.66,0,2.49-1.44,2.49-4.32l-.31-2.16c.21-.41,.31-.72,.31-.93,0-.36-.21-.57-.62-.62-1.04,.41-1.56,.82-1.56,1.23h-.31v-.31c1.66-1.08,2.49-2.42,2.49-4.01v-1.85l-.31-.62c.21,0,.31-.1,.31-.31v-4.32l-.31-3.08c.21,0,.31-.2,.31-.62-.21,0-.31-.1-.31-.31,.21,0,.31-.1,.31-.31v-5.55c0-.36-.21-.57-.62-.62-.62,0-1.14,1.44-1.56,4.32h-.31v-.31c0-.26,.1-1.28,.31-3.08v-.31c-3.01,0-6.23,1.65-9.66,4.94l-.93-.62h-.62v1.85h-.31l-.31-2.16h.62c-1.61-1.85-4.62-3.39-9.04-4.63-.42,0-1.14,.21-2.18,.62,0,.93,.1,1.54,.31,1.85-.21,1.75-.31,3.19-.31,4.32v4.32l-.31,1.54c.21,0,.31,.1,.31,.31-.21,1.75-.31,3.19-.31,4.32v6.17l-.31,3.08c.42,.88,1.04,1.49,1.87,1.85,3.32,0,4.99,2.06,4.99,6.17-1.66,13.16-2.8,21.08-3.43,23.75l.62,.31c-.52,.72-1.04,1.85-1.56,3.39l-4.36,4.94c0,.31,.83,1.34,2.49,3.08l.62-.31c-2.08,16.09-3.12,24.42-3.12,24.99h-.31c-1.04-2.78-1.77-6.07-2.18-9.87v-1.23l-.31-.62-.62,.31h-.31c0-.41,.31-.62,.93-.62l-.93-7.09,.31-.62c-.21-.36-.31-.77-.31-1.23v-3.08c.68-1.49,1.51-2.72,2.49-3.7v-.62c-3.53-3.29-5.3-6.37-5.3-9.25h.31c0-.41-.21-1.13-.62-2.16h.31l-.93-4.32h.31c-1.45-6.22-2.18-11.46-2.18-15.73,.16-1.8,.78-3.34,1.87-4.63,3.74-1.8,5.61-2.83,5.61-3.08v-4.01l-.31-.62h.31c0-.2-.1-.51-.31-.93l.31-2.78c0-1.23-.1-3.08-.31-5.55l.31-.62-.31-1.85v-1.23c0-.57,.21-3.34,.62-8.33-.31-.62-.62-.93-.93-.93h-.31c-1.25,0-1.87,.1-1.87,.31-3.74,.67-6.75,2.11-9.04,4.32-.62-.46-.93-.77-.93-.93-2.55-1.75-5.04-2.88-7.48-3.39H5.82c-.36,0-.57,.21-.62,.62v5.24l-.31,1.54c.21,0,.31,.21,.31,.62,0,1.13-.1,2.26-.31,3.39,.21,1.13,.31,1.95,.31,2.47s-.1,1.34-.31,2.47l.31,.62c-.21,2.11-.31,3.75-.31,4.94v4.94c.31,.62,.62,.93,.93,.93h2.18c2.44,0,4.31,1.34,5.61,4.01,1.04,8.07,2.29,16.71,3.74,25.91h-.31c0,.36,.21,.88,.62,1.54,.31,0,1.77-.1,4.36-.31h.62c0,.41-.83,.72-2.49,.93-.36-.2-.78-.31-1.25-.31h-1.25c-.03,.75-.48,1.76-1.27,2.97,.16,.39,.26,.8,.26,1.21,0,.4,.06,.8,.11,1.19,.21,1.38,.45,2.75,.62,4.14,.33,.4,.63,.82,.9,1.28,.62,2.78,2.6,14.81,5.92,36.09l1.56-.31h3.12l1.56,.31c0-.26,.83-.46,2.49-.62l.31,.62v.31c-.62,0-1.35,.1-2.18,.31l-.62-.31c-1.14,.21-2.08,.31-2.8,.31h-2.8l-.62,.31,.31,2.16h.62v-.62c1.09,.82,2.34,1.23,3.74,1.23v.62h-2.18l-1.56-.31-.31,.62v.31c0,.41,.83,.72,2.49,.93,0,.21-.1,.31-.31,.31,0,.21,.1,.31,.31,.31,0,.21-.1,.31-.31,.31,0,.41,.21,.62,.62,.62h.62c.21,0,1.04-.2,2.49-.62h3.12c.42,0,.62-.31,.62-.93h.62v.62h.62c.88,0,2.03,.1,3.43,.31,.42,0,.62-.2,.62-.62v-1.85h-.62c-.42,0-.62,.31-.62,.93h-.31c0-.82-1.25-1.23-3.74-1.23,0-.36,.21-.57,.62-.62h1.87v-.31l-.31-.62c.47,0,.88-.1,1.25-.31,0-1.03-.31-1.65-.93-1.85h-.93l-1.56,.31-.31-.62c.42,0,1.14-.2,2.18-.62,0,.21,.1,.31,.31,.31h.31l.93-.62c0-.2-.1-.31-.31-.31,0-4.21-.31-7.92-.93-11.1,.21,0,.31-.41,.31-1.23h.31c.62,6.27,1.04,9.97,1.25,11.1h1.87c.42,0,.62-.2,.62-.62v-.31l-.31-.62c-.21,0-.31,.1-.31,.31l-1.56-.31v-.31c1.66-.2,2.49-.51,2.49-.93v-.31l-.62-.93v-.31c.21,0,.31,.1,.31,.31,.52,0,.93-2.06,1.25-6.17-.21,0-.31-.1-.31-.31h.31c0-2.62,1.25-10.74,3.74-24.37h1.25l-.31,1.54,.31,.62h-.31c1.71,10.33,3.27,17.84,4.67,22.52v.93c.42,.67,.93,2.62,1.56,5.86,.52,0,1.35-.1,2.49-.31,1.14,0,2.49,.31,4.05,.93,0,.36-.62,.77-1.87,1.23-.57,0-1.19-.2-1.87-.62l-.93,.62,.31,2.16v1.85h-.31c-.21-3.08-.62-4.63-1.25-4.63l-.93,.62c0,.62,.21,1.34,.62,2.16h-.31c0,.98,.31,2.21,.93,3.7,.52,0,1.35,.41,2.49,1.23v.62l-1.56,.31h-.31v-1.54h-.62c.16,2.62,.36,4.06,.62,4.32l1.56-.31h.62c.68,0,1.19,.1,1.56,.31,1.51-.2,4.42-.41,8.73-.62,.36,.21,.78,.31,1.25,.31,0-.36,.21-.57,.62-.62-.21-.77-2.18-1.18-5.92-1.23v-.31c4.16,0,6.23-.31,6.23-.93v-.31c0-.41-1.14-.72-3.43-.93-.42,.21-.73,.31-.93,.31-1.04-.15-1.56-.46-1.56-.93l3.74-.62,1.56,.31c.88,0,1.51-2.67,1.87-8.02-.21-.41-.31-.72-.31-.93,.62,0,1.25-3.39,1.87-10.18-.21,0-.31-.1-.31-.31,1.25-8.38,1.87-13.52,1.87-15.42,.27-1.43,1.23-3.02,2.87-4.74,.06-.31,.11-.62,.19-.93-.06-1.28-.12-2.55-.12-3.83,0-.08,.02-.16,.02-.24-.57-1.08-.95-1.97-1.09-2.6l1.87-13.26c-.21,0-.31-.1-.31-.31,.42-3.34,.93-6.43,1.56-9.25-.21,0-.31-.1-.31-.31,.21,0,.31-.31,.31-.93,0-4.94,2.91-7.81,8.73-8.64,0-.2-.1-1.03-.31-2.47l.31-2.16h.31v4.01l.31,.62c.42,0,.62-.2,.62-.62v-3.08l.31-3.08c-.21,0-.31-.1-.31-.31,.21,0,.31-.1,.31-.31v-10.49c0-.36-.21-.57-.62-.62,0-.36,.21-.57,.62-.62Zm-33.03,1.54c0-.36,.21-.57,.62-.62v.93c0,.41-.21,.62-.62,.62v-.93Zm-.93,6.48c0-.93,.21-2.67,.62-5.24h.62c0,.67-.31,2.52-.93,5.55h-.31v-.31Zm-.93,5.86l.31-2.78h.31v.93c-.21,1.44-.31,2.26-.31,2.47h-.31v-.62Zm-44.25-4.32v-.31c0-.67,.21-2.11,.62-4.32h.62c-.36,3.08-.78,4.63-1.25,4.63Zm1.25-4.94l-.62-.31c0-.36,.21-.57,.62-.62v.93Zm1.25-7.09c-.42,2.01-.62,3.14-.62,3.39v.62h-.62c.21-.72,.52-2.67,.93-5.86h.31v1.85Zm9.04,25.91h-.62c-1.25-.2-1.87-.51-1.87-.93h.62c.47,.41,1.09,.62,1.87,.62v.31Zm1.56,29.61h.62c0,.41,.42,1.03,1.25,1.85h-.62c-.26,0-.68-.51-1.25-1.54v-.31Zm2.18,37.32c-.52-.41-.93-.62-1.25-.62v-.62c.83,.31,1.25,.62,1.25,.93v.31Zm-.62-14.5v-2.16h.31v2.16h-.31Zm-.31-9.25h-.31v-.31c.31-4.78,.83-7.25,1.56-7.4l-1.25,7.71Zm5.3,27.76l-1.25-.31c0-.36,.21-.57,.62-.62h.31l.62,.31-.31,.62Zm1.87-8.64h.31v1.85h-.62l.31-1.85Zm0,7.71h.93v.62h-.93v-.62Zm.93,9.25v-.31h.62c.62,0,.93,.21,.93,.62l-1.56-.31Zm3.12-6.48h-.62l-1.87-.31-.62,.31c-.36,0-.57-.2-.62-.62l1.56-.31h.62l1.56,.31v.62Zm.93-2.47h-1.56c-.36,0-.57-.2-.62-.62h2.18v.62Zm.62-13.57h-.31l-.62-4.01,.62-.31c0,1.65,.1,2.98,.31,4.01v.31Zm3.12-11.72c-1.09,1.44-2.34,2.47-3.74,3.08h-.31v-.31c0-.31,1.25-1.34,3.74-3.08h.31v.31Zm2.18-74.65l-.31,1.54h-.31v-.31l.31-2.16h.31v.93Zm3.12,10.18h-.31c0-.51-.1-2.06-.31-4.63h.62v4.63Zm6.86,24.99l-.62,3.08h-.31v-.62c0-.51,.1-1.34,.31-2.47h.62Zm-.31-13.26c-.21,.41-.31,.72-.31,.93-.36,0-.57-.2-.62-.62,.21,0,.52-.1,.93-.31Zm-3.43,33.93v-.31c0-1.44,.21-2.57,.62-3.39l.62,.31c-.47,2.26-.88,3.39-1.25,3.39Zm2.49,3.39h.31l-.31-2.16v-1.85h.62c0,1.9,.21,5.3,.62,10.18h-.62c-.21-4.11-.42-6.17-.62-6.17Zm1.56,13.88h-.31c0-1.34-.1-2.36-.31-3.08l.62-.31v3.39Zm18.39-23.13c.42,0,.62,.21,.62,.62v.93h-.31c0-.2-.1-.51-.31-.93v-.62Zm-.93-2.78h.62v1.23h-.31c0-.2-.1-.51-.31-.93v-.31Zm-14.96,20.67h.31v1.85h-.31v-1.85Zm-1.25,7.09c.21,0,.52-1.23,.93-3.7h.31v.31c0,.67-.21,2.11-.62,4.32h-.31c0-.2-.1-.51-.31-.93Zm1.87,1.54l-.31,3.7h-.31l-.62-.31,.93-3.7h.31v.31Zm3.12,13.26h-.31c-.16,0-.78-.1-1.87-.31v-.31h.62l1.56,.31v.31Zm1.87,18.82c-.47,0-1.3,.31-2.49,.93,0-.2-.21-.31-.62-.31v-.31c.68,0,1.4-.31,2.18-.93h.93v.62Zm0-2.78c-1.77,.41-2.91,.62-3.43,.62l-1.56-.31v-.31l1.56-.31h3.43v.31Zm.62-9.56c.78,0,1.3,.1,1.56,.31,0,.41-.21,.62-.62,.62h-1.25c0-.2,.1-.51,.31-.93Zm-.31-.93v-.62h.31c.42,0,.62,.21,.62,.62h-.93Zm2.8,8.33c-.26-.2-.99-.31-2.18-.31,0-.36,.52-.67,1.56-.93,1.25,.21,1.87,.51,1.87,.93-.47,0-.88,.1-1.25,.31Zm1.56-6.17l-1.56,.31h-.31c.31-.62,.62-.93,.93-.93h.93v.62Zm.93-2.78c0-.82-.31-1.23-.93-1.23,0-.36,.21-.57,.62-.62h.31c.62,.15,.93,.77,.93,1.85h-.93Zm2.8,8.64h-1.56l.31-1.23c.52,.41,.93,.62,1.25,.62v.62Zm.31-10.18h-.93c0-.41-.31-.62-.93-.62v-.31h1.87c0,.21-.1,.31-.31,.31l.31,.62Zm-.31-12.34c-.36,0-.57-.2-.62-.62v-.62c.31-.62,.62-.93,.93-.93v2.16h-.31Zm1.56,1.54c-.36-.2-.78-.31-1.25-.31v-.31h1.25v.62Zm1.87-12.03c-.57,0-2.96,.21-7.17,.62-1.45,0-2.18,2.88-2.18,8.64,2.91,1.23,4.78,1.85,5.61,1.85v.31h-1.25c-.88,0-2.34-.41-4.36-1.23-.36,1.29-.68,4.89-.93,10.8h-.62c-.83-2.93-1.56-6.43-2.18-10.49,0-.93-.73-1.75-2.18-2.47l1.56,.31c0-2.26-.21-4.21-.62-5.86,.21,0,.31-.1,.31-.31,0-.41-.31-.62-.93-.62,0-.2,.1-.31,.31-.31,0-4.21,1.25-6.58,3.74-7.09h.31c1.66,1.44,2.49,2.98,2.49,4.63-.21,.41-.31,.72-.31,.93l.31,.62c2.08-.41,4.16-.62,6.23-.62h.31l.62-.31c0,.21,.31,.31,.93,.31v.31Zm13.71-49.05h-.62v-2.16c.42,0,.62,.21,.62,.62v1.54Z" fill="#fff"/><path d="M37.92,136.32h-5.3c-.36,0-.57,.21-.62,.62v1.23c0,.36,.62,.67,1.87,.93l-.31,.62,.31,.62c-2.29,.26-3.43,.67-3.43,1.23v.31h4.36l.62-.31-.31-1.54,1.56-.31h1.56l.31-2.78c0-.36-.21-.57-.62-.62Zm-1.56,2.16h-.31l-3.12-.31v-.31h3.43v.62Z" fill="#fff"/><path d="M33.56,131.39c-.93,0-2.29-.1-4.05-.31-.36,.21-.78,.31-1.25,.31-1.14-.2-1.97-.31-2.49-.31h-.31c0,1.23,.42,4.63,1.25,10.18h1.56c.62-1.03,1.56-1.54,2.8-1.54h.62v-.62c0-1.85-.52-2.78-1.56-2.78,.21-.36,.31-.77,.31-1.23l4.36-.31c2.18,.21,3.43,.31,3.74,.31,.42,0,.62-.2,.62-.62v-.62c0-.36-.21-.57-.62-.62h-2.49l-2.18-.31v-.31l2.18-.31h2.49c.62-.31,.93-.62,.93-.93l-.31-.62c-1.25,.41-3.12,.62-5.61,.62Zm-6.23,4.63h-.31c0-.31,1.14-1.03,3.43-2.16h.62c0,.26-1.25,.98-3.74,2.16Z" fill="#fff"/><path d="M64.72,133.54c0-.2-.31-.41-.93-.62-.83,.41-1.97,.62-3.43,.62h-2.8l-.62,.31c0-.2-.1-.31-.31-.31h-.62l-.62,.31c0,1.23,1.04,1.85,3.12,1.85v.31c-1.87,0-2.8,.21-2.8,.62l.62,.93,.62-.31h1.56v.31c-1.09,0-1.82,.41-2.18,1.23v.62h1.56c.52,0,1.45-.2,2.8-.62,2.6,.21,3.95,.31,4.05,.31,.68-.41,1.3-.62,1.87-.62,.1,0,.42,.21,.93,.62h.31v-2.16c-2.08-.15-3.12-.46-3.12-.93,1.45,0,2.29-.1,2.49-.31,0,.21,.1,.31,.31,.31,.42,0,.62-.2,.62-.62,0-.62-.31-1.44-.93-2.47-1.3,.41-2.13,.62-2.49,.62Zm-4.05,4.32c-.36,0-.57-.2-.62-.62h1.25c0,.41-.21,.62-.62,.62Zm2.8-1.23h-.31l-1.87-.31-.62,.31-.62-.31c0-.36,.21-.57,.62-.62h1.25l2.18,.31c0,.41-.21,.62-.62,.62Z" fill="#fff"/><path d="M64.72,140.64c-.36,.21-.78,.31-1.25,.31h-.62c-.47,0-.88-.1-1.25-.31-.36,.21-.78,.31-1.25,.31h-2.8l-.93,.62c0,.26,1.04,.67,3.12,1.23,2.08-.2,3.32-.51,3.74-.93h.62c.42,0,.62,.21,.62,.62,.21,0,.52-.1,.93-.31,.36,.21,.78,.31,1.25,.31l-.93,1.23v.31l.31,.62c.42-.1,.83-.62,1.25-1.54l-.31-.62c0-.2,.1-.51,.31-.93-.47-.36-1.4-.67-2.8-.93Z" fill="#fff"/><path d="M61.61,131.39v.31l1.56-.31h2.8l2.18,.31,.62-.93-.31-.62c-4.57,.15-6.86,.57-6.86,1.23Z" fill="#fff"/><rect x="11.12" y="38.85" width=".31" height=".62" fill="#fff"/><path d="M18.6,73.08c.05,.41,.26,.62,.62,.62v-.62h-.62Z" fill="#fff"/><rect x="20.16" y="94.37" width=".62" height=".31" fill="#fff"/><rect x="22.65" y="100.54" width="1.25" height=".31" fill="#fff"/><rect x="24.52" y="120.59" width=".31" height=".62" fill="#fff"/><rect x="27.33" y="118.74" width=".62" height=".31" fill="#fff"/><path d="M27.33,140.02c.05,.41,.26,.62,.62,.62h.31c0-.41-.21-.62-.62-.62h-.31Z" fill="#fff"/><rect x="28.57" y="109.48" width=".62" height=".31" fill="#fff"/><rect x="28.88" y="120.28" width=".93" height=".31" fill="#fff"/><rect x="29.19" y="99.3" width=".31" height=".93" fill="#fff"/><rect x="30.44" y="132.62" width="1.25" height=".31" fill="#fff"/><rect x="33.87" y="127.07" width=".62" height=".31" fill="#fff"/><path d="M36.99,143.11h.31c.42,.05,.62,.26,.62,.62v.31c0,.41-.21,.62-.62,.62h-.31c-.42,0-.62-.2-.62-.62v-.31c.05-.41,.26-.62,.62-.62Z" fill="#fff"/><rect x="38.23" y="128.61" width=".62" height=".31" fill="#fff"/><path d="M38.86,115.96l-.31,.62h.31c.42-.2,.73-.31,.93-.31v-.31h-.93Z" fill="#fff"/><path d="M47.58,43.16v.62c.42,0,.62-.2,.62-.62h-.62Z" fill="#fff"/><rect x="48.83" y="42.24" width=".31" height=".93" fill="#fff"/><path d="M49.76,42.24h.31c.42,0,.62-.2,.62-.62v-.31c-.31,0-.62,.31-.93,.93Z" fill="#fff"/><rect x="54.75" y="113.49" width=".93" height=".31" fill="#fff"/><path d="M58.18,145.88v.62h-.62c.05-.41,.26-.62,.62-.62Z" fill="#fff"/><path d="M60.36,119.66c.05,.41,.26,.62,.62,.62v-.62h-.62Z" fill="#fff"/><rect x="60.98" y="134.78" width=".31" height=".62" fill="#fff"/><rect x="63.79" y="108.56" width="1.25" height=".31" fill="#fff"/><rect x="65.97" y="102.08" width=".31" height=".62" fill="#fff"/><rect x="68.15" y="115.04" width=".93" height=".31" fill="#fff"/><polygon points="69.09 81.41 68.46 82.34 68.77 82.34 69.4 81.41 69.09 81.41" fill="#fff"/><rect x="74.38" y="37.61" width=".62" height=".31" fill="#fff"/><rect x="79.68" y="22.19" width=".62" height=".31" fill="#fff"/><rect x="85.6" y="25.58" width=".31" height=".62" fill="#fff"/><path d="M100.56,127.99h-.62c-.42,0-.62,.41-.62,1.23h-1.56l-.62-2.47c.21,0,.31,.1,.31,.31,.42,0,.73-.62,.93-1.85-.31-.62-.62-.93-.93-.93l.31-2.16h-.62v-.31l.62-.93c0-.41-.31-.62-.93-.62v-.31c.62-.98,.93-1.8,.93-2.47h-1.56c-.62,.31-.93,.62-.93,.93v12.03h3.43l1.56-1.23c0,1.03,.42,1.54,1.25,1.54l.31-.62v-.62c-.52-1.03-.93-1.54-1.25-1.54Z" fill="#fff"/><path d="M119.57,142.49h-.93c-.42,0-.62,.41-.62,1.23h-.93l-1.25,.62h-.31v-.31h.62v-.93c0-.36-.21-.57-.62-.62l-1.87,1.85h-.62l-.93-.62-.62,.31c.52,.82,.93,1.23,1.25,1.23h.62l.62-.31c0,1.23,1.97,1.85,5.92,1.85,.42,0,.73-.62,.93-1.85-.21-1.65-.62-2.47-1.25-2.47Z" fill="#fff"/><path d="M118.64,117.81l-.62,.31c-2.29,0-4.05-1.44-5.3-4.32l-.62,.31h-1.25v-.31c.78,0,1.4-.41,1.87-1.23v-.31c0-.46-1.14-.77-3.43-.93,0,.41-.52,.82-1.56,1.23v-.62h-.62v.62h-.31c-.36,0-.57-.2-.62-.62v-.93l.31-.62,1.25,.62,.62-.31c0,.21,.1,.31,.31,.31h.31c.62-.31,.93-.62,.93-.93l.93,.62h.93c.62-1.39,.93-2.21,.93-2.47,0-.98-.62-1.49-1.87-1.54v-.31c0-.36,.21-.57,.62-.62l-.31-.62c.36,0,.88-.2,1.56-.62,0-.46-.1-.87-.31-1.23,0-.46,.1-.87,.31-1.23l-.31-1.85v-.93c0-.46,.1-.87,.31-1.23-.21-.36-.31-.77-.31-1.23v-1.85l.31-1.54c-.21,0-.31-.1-.31-.31l.31-.62-.31-.62c0-.15,.1-.77,.31-1.85,0-.2-.31-.31-.93-.31v-.62h.93v-1.54c0-1.44,.62-2.78,1.87-4.01l.23-.17c-.26-.84-.53-1.67-.85-2.49-.32-.81-.06-1.8,.34-2.54,.05-.09,.11-.16,.17-.24-1.16-1.23-1.75-2.7-1.75-4.44v-.62h-.62l.31-1.54v-1.23c0-.87-.1-1.7-.31-2.47,.21-.82,.31-1.65,.31-2.47v-2.78l-.31-.62c.21,0,.31-.1,.31-.31v-1.54c0-.46-.1-.87-.31-1.23,.21-.36,.31-.77,.31-1.23v-1.85c0-.46-.1-.87-.31-1.23,.21-.41,.31-.72,.31-.93v-3.39c.16-4.52,1.19-6.79,3.12-6.79,3.27-.46,5.14-.87,5.61-1.23,0-2.67-.1-8.33-.31-16.97,0-.2-.1-1.03-.31-2.47,.21,0,.31-.31,.31-.93,0-.2-.1-.51-.31-.93l.31-.62c0-.46-.1-.87-.31-1.23,.21-.36,.31-.77,.31-1.23v-3.39c0-.62-1.25-1.03-3.74-1.23-.31,0-1.66,.31-4.05,.93-3.32,1.85-5.19,2.78-5.61,2.78h-.31c-2.96-2.67-6.8-4.01-11.53-4.01-1.04,.15-1.56,.46-1.56,.93,0,4.11-.1,6.79-.31,8.02,.21,4.58,.42,11.36,.62,20.36l.62,.31h2.8c3.43,0,5.3,1.95,5.61,5.86v5.24l-.31,1.54c.21,0,.31,.31,.31,.93v1.54h.62v-.62h.31c0,.21,.1,.51,.31,.93l-1.25,1.23c0,1.29-.1,4.68-.31,10.18l.31,2.16c-.21,.21-.31,1.03-.31,2.47,0,1.69-.84,3.19-2.51,4.49,.18,.4,.32,.82,.44,1.25,.24-.1,.51-.25,.82-.5l-.31,1.54c-.12-.06-.2-.09-.3-.13,.04,.21,.08,.43,.12,.63,.09,.52,.15,1.05,.23,1.57,1.42,1.37,2.13,3.35,2.13,5.95l-.31,1.54c.21,2.98,.31,4.63,.31,4.94l-.31,1.23c.21,0,.31,.21,.31,.62,0,.46-.1,.88-.31,1.23l.31,.62c0,.46-.1,.88-.31,1.23,.21,.36,.31,.77,.31,1.23v1.85l-.31,1.85c.21,.36,.31,.88,.31,1.54v2.16l-.31,1.54c.21,1.44,.83,2.16,1.87,2.16v.31c-.93,0-1.97,1.13-3.12,3.39l1.56,1.85c-1.25,1.39-1.87,2.21-1.87,2.47,0,.21,.1,.51,.31,.93-1.66,0-2.49,.21-2.49,.62s.21,.62,.62,.62h.31l.62-.31c0,.67-.52,1.49-1.56,2.47,.31,.62,.62,.93,.93,.93,.42,0,.62-.2,.62-.62,.62,0,.93,.1,.93,.31,.31,0,.73,.51,1.25,1.54,.42,0,.62-.2,.62-.62-.31-.62-.62-.93-.93-.93,.36-.82,.78-1.23,1.25-1.23v-.31l-.31-.62h.31c0-.2-.1-.51-.31-.93v-.62c.21,0,.31,.1,.31,.31,1.04-.15,1.56-.46,1.56-.93,1.45,.51,2.18,1.34,2.18,2.47-.62,0-.93,.51-.93,1.54v.31l.31,1.54c-.62,.31-.93,.62-.93,.93,0,.41,.42,.62,1.25,.62v.31l-.62,.93v.31h1.56c-.21-.36-.42-1.28-.62-2.78h.93c0,.62,.21,.93,.62,.93l-.93,1.23v.31h.62c0-.62,.31-.93,.93-.93,1.66-1.34,2.49-2.36,2.49-3.08h.62c.52,.41,.93,.62,1.25,.62v.31c-.31,0-1.35,.41-3.12,1.23,.78,1.65,1.3,2.47,1.56,2.47h1.87v.62h-4.36c-.36,0-.57,.21-.62,.62v1.85h.31l.62-.31c0,.21,.21,.31,.62,.31,0,.82-.52,1.54-1.56,2.16v.31c.62,.51,.93,.93,.93,1.23h1.56v-1.23h1.25v-2.47c.21,0,.52-.1,.93-.31h.31v.62h-.62c0,.46,.1,.88,.31,1.23l-.31,.62,.31,.62-.31,.62-.62-.31h-.62v.62h2.8l1.56,.31c0-.2,.1-.31,.31-.31l-.31-.62,1.56,.31c1.25-.57,1.87-.98,1.87-1.23v-.93l-.31-.62h.31c0-.62-.42-1.85-1.25-3.7l1.25-.31v-.62c0-1.28-.1-2.83-.31-4.63l.31-1.54-.31-2.16c.21-.41,.31-.72,.31-.93-.21,0-.31-.1-.31-.31,.21,0,.31-.1,.31-.31v-.93c0-.36-.73-.67-2.18-.93Zm-8.41-27.76c-.47,0-.88,.1-1.25,.31v-.62h1.25v.31Zm-4.67,30.85c-.36,0-.57-.2-.62-.62,0-.36,.21-.57,.62-.62v1.23Zm0-54.6l-.62,.31c0-.2-.21-.31-.62-.31,0-.46,.1-.87,.31-1.23l-.31-.62v-.31h.31c0,.82,1.04,1.44,3.12,1.85l.62-.31h.62v.31c-.62,0-1.35,.21-2.18,.62l-1.25-.31Zm3.12,60.46h-.31v-.31c0-.62,.21-.93,.62-.93l-.31,1.23Zm1.56-2.16h-.62c0-.46-.1-.87-.31-1.23l.62-.31h.31v1.54Zm1.25,.93v-.62h.31c.42,0,.62,.21,.62,.62h-.93Zm.93,7.71c-.36,0-.57-.2-.62-.62h1.25c.42,0,.62,.21,.62,.62h-1.25Zm3.43-3.08c.21,0,.52-.1,.93-.31v.93c-.42-.2-.73-.31-.93-.31v-.31Zm2.18,3.7c-1.04-.15-1.56-.46-1.56-.93l1.56,.31v.62Zm1.25-8.64h-.93c.21-.36,.31-.87,.31-1.54,.42,0,.62,.21,.62,.62v.93Z" fill="#fff"/><path d="M120.2,127.07c0,.41-.21,.62-.62,.62h-.31v-1.23h.31c.42,0,.62,.21,.62,.62Z" fill="#fff"/><path d="M120.2,136.94l.31,.62v.31h-2.8l-.62,.31c0-.2-.1-.31-.31-.31h-2.18l-1.56,.31v1.85c-1.3,.41-2.03,.62-2.18,.62v.31l.31,.62c.21,0,.31-.1,.31-.31,.21,0,.52,.1,.93,.31,.31,0,.62-.41,.93-1.23l1.87,.62c.42-.2,.73-.31,.93-.31,.78,0,1.61,.41,2.49,1.23h.62c0-.31,.21-.72,.62-1.23l.62,.31h.31v-3.08l.31-.62-.62-.31h-.31Zm-5.3,2.78h-.93l.31-1.23h.93l-.31,1.23Zm.31,.31l.31-.62c.42,0,.62,.21,.62,.62h-.93Z" fill="#fff"/><path d="M108.35,131.08h-.31l-.31,1.23c-.21,0-.31-.1-.31-.31l-.93,.62-1.56-1.23h-.31c-2.29,.77-3.43,1.39-3.43,1.85v.62l1.56,1.85v.62h-.31c-1.66-.93-2.49-1.54-2.49-1.85,.21,0,.31-.1,.31-.31v-.93h-.31c-.36,0-.57,.21-.62,.62v.31l.31,.62c-.21,0-.31,.1-.31,.31v.31l.62,.93c0,.41-.21,.62-.62,.62,0-.31-.21-.72-.62-1.23v-.31l.31-.62c-.21,0-.31-.1-.31-.31-.21,0-.31,.1-.31,.31-.47-.41-1.09-.62-1.87-.62v-.31h.62v-.31c-.62-.57-.93-1.18-.93-1.85h-.31c-.36,0-.57,.21-.62,.62v11.72c0,1.85,.93,2.78,2.8,2.78,2.49-.2,3.74-.51,3.74-.93v-2.16h-.62v-.62l.31-1.54-.93-.62,.93-1.85-.31-.62c-.83,.41-1.25,.93-1.25,1.54h-.31c-.16-1.44-.47-2.16-.93-2.16h-.31l-1.25,.93h-.93c0-.2-.1-.51-.31-.93,.26-.2,1.71-.41,4.36-.62,0,.62,.21,.93,.62,.93l.31-1.23c.21,0,.31,.1,.31,.31,.21,0,.52-.1,.93-.31,.78,0,1.82,.21,3.12,.62h.31v-.62h-.62v-.31c1.04,0,1.56-.2,1.56-.62,.21,0,.31,.1,.31,.31,.42,0,.62-.41,.62-1.23l1.25-3.08c0-.62-.21-.93-.62-.93Zm-9.66,8.64h.62v.31c0,.41-.21,.62-.62,.62v-.93Zm-1.25,3.39l.31-.62,.62,.31c.42,0,.62-.2,.62-.62,.42,.21,.73,.31,.93,.31v.62c-.52,0-1.35,.1-2.49,.31v-.31Zm9.35-7.4h-.62c0-.2-.1-.51-.31-.93l.62-.31h.31v1.23Z" fill="#fff"/><rect x="97.13" y="139.71" width=".31" height=".62" fill="#fff"/><rect x="97.76" y="145.57" width=".31" height=".62" fill="#fff"/><rect x="98.38" y="138.79" width=".62" height=".62" fill="#fff"/><path d="M99.32,141.56h.62v-.62c-.42,.05-.62,.26-.62,.62Z" fill="#fff"/><rect x="99.63" y="132.31" width=".31" height=".62" fill="#fff"/><path d="M101.19,117.5h.62v.62c0,.41-.21,.62-.62,.62,0-.2-.1-.31-.31-.31,.21-.41,.31-.72,.31-.93Z" fill="#fff"/><rect x="101.5" y="22.5" width=".31" height=".62" fill="#fff"/><path d="M102.12,140.33h.62c0,.41-.21,.62-.62,.62v-.62Z" fill="#fff"/><path d="M102.74,140.64c.42,.05,.62,.26,.62,.62h-.62v-.62Z" fill="#fff"/><path d="M103.37,134.78h.62v-.62c-.42,.05-.62,.26-.62,.62Z" fill="#fff"/><path d="M103.68,133.24h.62v-.62c-.42,.05-.62,.26-.62,.62Z" fill="#fff"/><path d="M104.61,117.5v.62h.62c0-.41,.21-.62,.62-.62v-.31h-.31c-.42,.21-.73,.31-.93,.31Z" fill="#fff"/><path d="M108.98,120.59v.62c.42,0,.62-.2,.62-.62h-.62Z" fill="#fff"/><path d="M110.54,90.05v.62h.62c0-.41-.21-.62-.62-.62Z" fill="#fff"/><path d="M115.21,132l-.31,.62v.31h.93v-.31c0-.41-.21-.62-.62-.62Z" fill="#fff"/><rect x="115.83" y="122.44" width=".31" height=".62" fill="#fff"/><rect x="115.83" y="134.47" width=".62" height=".31" fill="#fff"/><path d="M116.14,124.91v.31c.31,.82,.62,1.23,.93,1.23v-.31c-.42-.51-.62-.93-.62-1.23h-.31Z" fill="#fff"/><rect x="117.08" y="132" width=".62" height=".31" fill="#fff"/><rect x="117.7" y="144.65" width=".31" height=".62" fill="#fff"/><rect x="118.01" y="39.15" width=".62" height=".62" fill="#fff"/><rect x="118.01" y="145.88" width=".31" height=".62" fill="#fff"/><rect x="119.88" y="128.3" width=".31" height=".62" fill="#fff"/><path d="M175.9,78.87c-1.17-1.28-1.79-3.38-1.79-6.4,0-.51,.1-1.34,.31-2.47-.21-.41-.31-.72-.31-.93l.31-.62-.31-1.54c.21-.41,.31-.72,.31-.93l-.31-.62h.31c0-1.18-.1-1.9-.31-2.16,.21-1.39,.31-2.52,.31-3.39v-6.17c0-1.54,.1-2.67,.31-3.39,0-4.52,1.87-6.79,5.61-6.79,.36,.21,.78,.31,1.25,.31h.93c.62-.31,.93-.62,.93-.93v-6.17c0-.72,.1-1.65,.31-2.78-.21-.26-.31-.98-.31-2.16v-1.23c0-.46,.1-.87,.31-1.23-.21-.36-.31-.77-.31-1.23,0-2.11,.1-3.75,.31-4.94-.21-1.28-.31-2.72-.31-4.32,0-.51,.1-1.34,.31-2.47,0-.87-1.77-1.39-5.3-1.54-2.03,0-4.42,1.03-7.17,3.08h-.31c-2.13-1.85-5.35-2.98-9.66-3.39h-3.12l-1.56,1.23c.42,2.06,.62,4.11,.62,6.17v.93l-.31,1.54c.21,0,.31,.31,.31,.93,0,.46-.1,.88-.31,1.23l.31,.62-.31,3.7c0,.67,.1,1.18,.31,1.54-.21,1.39-.31,2.52-.31,3.39v6.48c.31,.62,.62,.93,.93,.93h2.49c2.7,0,4.36,1.65,4.99,4.94v2.47l-.31,1.54c.21,0,.31,.1,.31,.31l-.31,.62c0,.21,.1,.51,.31,.93,0,.21-.1,.51-.31,.93,0,.21,.1,.51,.31,.93,0,.21-.1,.51-.31,.93l.31,2.16-.31,2.16,.31,.62h-.31c0,1.08,.1,2.01,.31,2.78l-.31,2.16c0,.46,.1,.88,.31,1.23-.16,.67-.36,2.42-.62,5.24,.21,.36,.31,.88,.31,1.54v.31c0,2.26-.73,4.32-2.18,6.17-1.14-.41-2.18-1.13-3.12-2.16l-.62,.31c0,.36,.21,.88,.62,1.54-.21,0-.31,.1-.31,.31v.62c0,.41,.21,.62,.62,.62l-.31,.62v.31c0,1.49,.31,2.31,.93,2.47h.62l-.31-1.85c0-.82,.62-1.65,1.87-2.47,.16,.05,.88,.67,2.18,1.85l-.31,3.08c0,.41,.21,.62,.62,.62,0,.41-.21,.62-.62,.62,0,.51,.1,1.34,.31,2.47-.21,1.13-.31,1.95-.31,2.47l.31,.62c-.36,0-.57,1.85-.62,5.55v.31h-.62c-.21-1.9-.83-5.5-1.87-10.8v-1.85l-1.56,.31v.62l.62,.93c-.62,0-.93,.21-.93,.62l.93,1.23c0,.41-.21,.62-.62,.62,0,.21,.1,.51,.31,.93l-.31,1.54,.31,.62c0,.41-.21,.62-.62,.62l-.31-1.54,.31-1.54-.62-.62c0-3.5-.52-5.24-1.56-5.24-.62,0-.93,.62-.93,1.85h-.62c0-.2,.1-.31,.31-.31l-.31-.62c-1.04,.77-1.56,1.29-1.56,1.54v.31c0,.41,.21,.62,.62,.62,0,.31-.42,.62-1.25,.93-.21,0-.31-.2-.31-.62h-.31l-.62,.31,4.67,24.06c.42,0,.62-.31,.62-.93h.31c.42,0,.62,.21,.62,.62v.31h-1.25c0,1.44,.21,2.57,.62,3.39h-.31c0,.41,.21,1.03,.62,1.85,.68-.62,1.19-.93,1.56-.93l-.31-.62h1.25v-1.23l.31-1.23-.31-.62c.21-.36,.31-.77,.31-1.23l1.87,.93-.62,.93v1.54h1.87v.31c-.83,0-1.25,.41-1.25,1.23-.21,0-.31-.1-.31-.31l-.62,.31c0,.26,.73,.88,2.18,1.85-.31,.82-.62,1.23-.93,1.23,0-1.03-.21-1.54-.62-1.54-.36,0-.57,.21-.62,.62v.62c.83,1.03,1.35,1.54,1.56,1.54h.31v-.62h.62c0,1.29,1.87,2.42,5.61,3.39,.62,0,.93-.2,.93-.62l-.31-.62h.31c1.04,0,1.56-1.13,1.56-3.39-.21,0-.31-.1-.31-.31,.21,0,.31-.1,.31-.31v-1.23l-.31-.62c-.21,0-.52,.1-.93,.31-2.29-.2-4.26-.31-5.92-.31l-.62,.31v-.31l.31-.62c.93,0,3.22,.1,6.86,.31,.42,0,.62-.2,.62-.62v-2.78h-.31c-.42,0-.62,.31-.62,.93l-1.56-.93h-.93l-.93,.62c0-.46-.1-.87-.31-1.23,.42,0,.62-.2,.62-.62l1.56,.31c.31,0,.62-.41,.93-1.23l.93,.62c0,.21-.1,.31-.31,.31,0,.41,.21,.62,.62,.62h.31v-6.79c0-1.8-.83-3.03-2.49-3.7v-.31h.31c.36,.21,.78,.31,1.25,.31h.31c.73,0,1.14-4.73,1.25-14.19l-.31-.62-3.12,2.78h-.31l.62-.93v-.62c-.42-.82-.93-1.23-1.56-1.23v-.31c.83,0,1.25-.31,1.25-.93,.36,0,.68,.72,.93,2.16l1.25-.31v-1.54l-.31-.62c.62,0,.93-.2,.93-.62l.62,.31h.62c0-.62,.31-1.44,.93-2.47,.2-.13,.36-.23,.54-.36v-4.66Zm-16.13-46.19c-.62-.31-.93-.62-.93-.93v-.93c.52,.41,.93,.62,1.25,.62-.21,.36-.31,.77-.31,1.23Zm4.99-4.01h-.62v-1.23c.42,0,.62,.21,.62,.62v.62Zm0-3.7h-.31c-.36,0-.57-.2-.62-.62h.93v.62Zm-4.67,72.8c0-.36,.21-.57,.62-.62l.31,1.54h-.93v-.93Zm1.56,9.56c-.21,0-.31,.21-.31,.62-.36,0-.57-.2-.62-.62v-3.08c0-1.03-.1-2.57-.31-4.63h.62l.31,1.54c0,.62-.1,1.34-.31,2.16,.26,1.23,.57,1.85,.93,1.85l-.62,.93v.62l.31,.62Zm7.17,5.55h-1.56c-.36,0-.57-.2-.62-.62,.62,0,1.35-.1,2.18-.31v.93Zm-1.87-18.82h-.62l1.87-1.54h.62c0,.31-.62,.82-1.87,1.54Zm3.12,11.1v.31h-.93v-.62c.42,.21,.73,.31,.93,.31Zm-1.25-38.25h-.62v-1.23l.31-1.54h.62l-.31,2.78Zm1.25,19.12v-1.23h.31c0,.21,.1,.51,.31,.93l-.62,.31Zm3.74-55.52h-.62c-.52-.41-1.04-.62-1.56-.62v-.62c1.45,.26,2.18,.57,2.18,.93v.31Z" fill="#fff"/><path d="M151.05,142.49l.62-.31c0-.36-.21-.57-.62-.62h-1.25c0,1.23-.83,1.85-2.49,1.85,0-1.03-.62-1.54-1.87-1.54h-.31c-.62,.31-.93,.62-.93,.93v.62c.31,.62,.62,.93,.93,.93h.93l.62-.31,.31,.62-.93,1.23-.93-.62h-.62l-.62,.31c.16,.62,.99,.93,2.49,.93h2.49c1.56,0,2.39-.31,2.49-.93v-2.47l-1.25-.31v-.62c.21,0,.52,.1,.93,.31Zm0,2.16v.31h-3.43v-.31c.52,0,1.35-.1,2.49-.31,.42,.21,.73,.31,.93,.31Z" fill="#fff"/><path d="M151.05,117.5h-1.56c-1.09,0-2.03-.1-2.8-.31-2.08-.36-3.12-1.9-3.12-4.63,0-.36,.1-1.59,.31-3.7l-.31-3.7,.31-1.54-.31-.62c.21-1.13,.31-2.06,.31-2.78v-2.47h-.62c0-.62,.31-1.44,.93-2.47l-.31-.62c.21-.36,.31-.77,.31-1.23v-5.55l-.31-.62,.62-.31c0-.2-.1-.31-.31-.31,0-1.95,.93-3.8,2.8-5.55v-.31l-.62,.31h-2.49c0-.26,.93-.67,2.8-1.23-1.04-.93-1.56-1.54-1.56-1.85l-6.86-4.01v-.31h.31c2.96,1.44,4.73,2.16,5.3,2.16h.62c.42-7.15,.62-13.62,.62-19.43l-.31-1.54c.21,0,.31-.31,.31-.93v-.31l-.31-.62c.21,0,.31-1.03,.31-3.08h.31c1.45,8.43,3.01,16.45,4.67,24.06h-.31l.31,2.16c0,.57-.21,1.18-.62,1.85,0,.21,.21,.31,.62,.31v.31h-.93l.31,.62c.47,0,.88-.1,1.25-.31l.62,.31c1.04-.41,1.77-.62,2.18-.62v.31c-1.04,.77-1.56,1.29-1.56,1.54,0,.21,.21,.31,.62,.31v.31l-.62,.93,.62,.93c.93-.62,1.66-.93,2.18-.93h.31c0,.21-.1,.31-.31,.31,.21,1.08,.31,1.7,.31,1.85,.47,0,.88-.1,1.25-.31,.42,0,.62,.21,.62,.62,1.25-.31,1.87-1.03,1.87-2.16v-.31c0-1.03-.42-1.65-1.25-1.85-.62,0-.93,.62-.93,1.85h-.62c0-.51,.21-1.54,.62-3.08-1.09-.2-1.71-.31-1.87-.31v-.31c.62,0,.93-.41,.93-1.23h.31l.93,.62,.62-.31c-.93-1.03-1.66-1.54-2.18-1.54v-.31h.31l1.56,.93h.93c0-1.44,.31-2.16,.93-2.16-.21-2.36-.42-3.7-.62-4.01-.21,0-.31,.1-.31,.31-.36,0-.57-.2-.62-.62v-.62h.62v-.31c-.47-2.83-.99-4.99-1.56-6.48h.31c-3.74-19.28-5.82-29.56-6.23-30.85-2.13-11.52-3.58-17.27-4.36-17.27h-1.25c-1.19,0-2.75,1.03-4.67,3.08-1.09,0-1.82-.41-2.18-1.23-.68-.57-2.13-1.28-4.36-2.16l-.62,.31c-.36-.2-.78-.31-1.25-.31h-.62v.31c0,.41,.93,.62,2.8,.62-.21,.41-.31,.72-.31,.93-.78,0-1.51-.1-2.18-.31-.42,1.23-.83,1.85-1.25,1.85h-.31c-.52-.41-1.04-.62-1.56-.62,1.45-1.03,2.18-1.75,2.18-2.16v-.62c-1.66,.26-2.49,.67-2.49,1.23v4.01h.93c0,.1-.31,1.23-.93,3.39v4.32c0,.46,.1,.88,.31,1.23-.21,.36-.31,.77-.31,1.23v4.01c0,.46,.1,.88,.31,1.23-.21,.36-.31,.77-.31,1.23v4.94l1.56-.31c.21,0,.52,.1,.93,.31,.42-.51,1.66-.93,3.74-1.23l-3.43,1.85c-.21,0-.31-.1-.31-.31l-2.18,.31v.31c0,.41,.21,.62,.62,.62h2.18c2.6,0,4.26,1.75,4.99,5.24-.21,0-.31,.1-.31,.31v19.43l.31,.62c-.21,0-.31,.1-.31,.31v.31l.31,.62c0,3.12-.81,5.73-2.4,7.86,.24,.41,.43,.85,.59,1.28,.24,.62,.35,1.27,.55,1.9,.08,.24,.11,.49,.12,.74,.03,.17,.07,.33,.07,.49-.01,.33-.07,.63-.15,.93,.89-.09,2.11-.27,3.71-.56v.62c-1.66,.21-2.49,.62-2.49,1.23l-.62-.31h-.62c.21,2.67,.62,4.01,1.25,4.01h.62l1.56-.31c0,.21,.31,.31,.93,.31v.31l-3.74,.62v1.23c0,.46-.1,.88-.31,1.23,.21,.36,.31,.77,.31,1.23v.93l-.31,1.54c.21,0,.31,.1,.31,.31l-.31,1.85v.31l.31,.62c-.21,0-.31,.1-.31,.31v4.32l1.56,1.85c-1.04,0-1.56,.21-1.56,.62v2.78c0,5.96-1.35,8.95-4.05,8.95v1.54l-.31,.62c1.87,.67,2.8,1.29,2.8,1.85-.42,0-.62,.31-.62,.93l-1.56-.31c-1.71-2.67-3.06-4.01-4.05-4.01l-.93,.62c0,.21,.1,.31,.31,.31l-.62,.93v3.39l.62,.93v.62c-.21,0-.52,.1-.93,.31l.31,1.54v3.7c0,.72-.1,1.65-.31,2.78,.21,.41,.31,.72,.31,.93-.21,1.34-.31,2.67-.31,4.01v.62l.31,.62,3.12-.93-.31-.62v-1.54h.31c.31,1.65,.93,2.47,1.87,2.47,.42,0,.62-.2,.62-.62,.42,0,.62,.21,.62,.62,.1,0,.93-.2,2.49-.62,.93,.26,1.66,.88,2.18,1.85v.31h-1.25c0-.62-.21-.93-.62-.93l-.62,.31v-.31c-2.13,.41-3.38,.72-3.74,.93l-.62-.31c-.21,0-.52,.1-.93,.31-.16,0-.99-.1-2.49-.31-.62,.31-.93,.62-.93,.93v1.23l-.31,3.08c2.8-.41,4.78-.62,5.92-.62v.31c-1.25,.62-1.87,1.34-1.87,2.16h.62l.62-.31c0,.21,.1,.31,.31,.31h.31v-.31l-.31-.62c.21,0,.31-.1,.31-.31,1.45,.46,2.18,.88,2.18,1.23,.52-.41,.93-.62,1.25-.62v-.62h-1.87v-.62c.47,0,.88-.1,1.25-.31l1.87,.31h.62l.62-.31c0-.36-.52-.67-1.56-.93l.31-1.54c0-.2-.21-.31-.62-.31v-.31h.31c.36,.21,.78,.31,1.25,.31h1.25l1.56-.31c0,.21,.31,.31,.93,.31h.31v-.31l-.31-.62c.83,0,1.25-.2,1.25-.62h.62l2.18,.31c.21-.36,.31-.77,.31-1.23h.62v.62c0,.41-.21,.62-.62,.62l1.25,1.54,2.18-1.23c0,.15,.52,.46,1.56,.93h.62c.42,0,.62-.2,.62-.62v-2.78c0-.36-.21-.57-.62-.62-.36,0-.57,.21-.62,.62-.16,0-.99-.2-2.49-.62h-.31l-1.56,1.23h-.31l.31-.62v-.31l-3.12,.31-1.25-.31-1.25,.62c0-.36-.21-.57-.62-.62,0-.26,.93-.67,2.8-1.23,0-.36-.21-.57-.62-.62l-.93,.62h-.62c0-.26,.73-.87,2.18-1.85,.36,.21,.78,.31,1.25,.31v.31c-.62,0-.93,.21-.93,.62s.21,.62,.62,.62h.62l.62-.31c0,.21,.1,.31,.31,.31h1.56c.78-1.03,1.3-1.54,1.56-1.54,0-.2-.1-.51-.31-.93l2.8-2.47c0,.62,.21,.93,.62,.93h.31v-4.32l.31-1.54c-.36,0-.57-.2-.62-.62-.21,0-.31,.1-.31,.31-.21,0-.52-.1-.93-.31l-.62,.31c0-.2-.21-.31-.62-.31l.31-.62c.21,0,.52,.1,.93,.31,.47,0,1.09-.31,1.87-.93,0-1.65,.1-3.6,.31-5.86-.52-.82-.93-1.23-1.25-1.23Zm7.17-44.42h.31c0,.21,.1,.51,.31,.93h-.62v-.93Zm-2.18-.93l.62,.31c-.31,.62-.62,.93-.93,.93,0-.31-.21-.72-.62-1.23h.93Zm-8.1-37.32h.31c.68,1.23,1.4,1.85,2.18,1.85v.62h-.62l-1.87-1.85v-.62Zm-6.54-14.81h.31c0,.21,.1,.51,.31,.93-.21,0-.52,.1-.93,.31l-.31-.62c0-.36,.21-.57,.62-.62Zm-9.66-1.85h.62c0-.2-.1-.31-.31-.31v-.62h.31c0,.62,.83,.93,2.49,.93v.62c-.31,0-.83,.62-1.56,1.85-1.04-.57-1.56-1.39-1.56-2.47Zm3.43,4.63h-.62c0-.31-.21-.72-.62-1.23v-.31c.83,.51,1.25,.93,1.25,1.23v.31Zm2.18,.31h.31c.52,.62,.93,.93,1.25,.93v.62c-1.04-.77-1.56-1.28-1.56-1.54Zm-10.28,103.34c0-.62,.21-.93,.62-.93l.31,1.54v.31h-.62c0-.2-.1-.51-.31-.93Zm.93,4.01v-1.23h.31c0,.46,.1,.88,.31,1.23h-.62Zm5.3,.93c-.21,0-.52,.1-.93,.31-.73-.62-1.56-.93-2.49-.93v-.62c.21,0,.52-.1,.93-.31,1.35,.41,2.18,.62,2.49,.62v.93Zm3.43-1.54h-.93v-.31c.21,0,.52-.1,.93-.31v.62Zm-5.61,11.1h-.31c0-.2-.1-.51-.31-.93l.62-.31v1.23Zm1.87,1.54h-.62c-.62-.31-.93-.62-.93-.93v-.31c.21,0,.52,.1,.93,.31l.62-.31v1.23Zm1.56-1.85h-.31v-.93h.31l.62,.31c0,.41-.21,.62-.62,.62Zm5.61-.62v.31h-1.56c-.36,0-.57-.2-.62-.62l2.18,.31Zm2.18-8.95c-.36,0-.68-.51-.93-1.54l.62-.31,.31,1.54v.31Zm0-43.19c-.21,0-.52,.1-.93,.31l-1.25-.31c0-.36,.73-.67,2.18-.93v.93Zm-.31-6.17h-.31l.62-1.23c.83,.31,1.25,.62,1.25,.93l-1.56,.31Zm4.99,52.75h-.93v-.62h.93v.62Zm.62-8.33l-1.25-.31v-.31h1.56l-.31,.62Z" fill="#fff"/><path d="M172.55,130.77c-2.91,0-4.36,.41-4.36,1.23h-.31c0-.82-.93-1.23-2.8-1.23l.62-.93v-.62l-.31-.62-1.87,.31c0,.46,.1,.88,.31,1.23l-.31,.62,.93,.62c-.93,1.65-1.77,2.47-2.49,2.47v-.31l.62-.93v-1.23c0-.36-.21-.57-.62-.62h-.31c-.36,0-.57,.21-.62,.62l.31,1.85c0,2.06,1.77,3.08,5.3,3.08v.31c-.21,0-.52,.1-.93,.31l-.62-.31-.62,.31c-.36-.2-.78-.31-1.25-.31h-.31c-.36,0-.57,.21-.62,.62,0,2.26,.31,3.39,.93,3.39h1.25l.93-.62h.62v.93l-.62,.93-1.87-.31-.62,.31c0,1.44,.31,2.16,.93,2.16,.73,1.44,1.35,2.16,1.87,2.16,1.45-.31,2.18-.82,2.18-1.54h.31c0,.88,.83,1.39,2.49,1.54,.36-.2,.88-.31,1.56-.31v-.62c0-.46-.1-.87-.31-1.23,.21-.36,.31-.77,.31-1.23v-1.23l-.62-.93v-.62c.21,0,.52-.1,.93-.31,0-.2-.1-.51-.31-.93,.16-1.18,.36-3.75,.62-7.71-.21,0-.31-.1-.31-.31Zm-1.56,10.18c-.52,0-1.35,.1-2.49,.31v-.31c0-.26,.83-.67,2.49-1.23v1.23Z" fill="#fff"/><rect x="127.68" y="127.99" width=".31" height=".62" fill="#fff"/><path d="M128.61,133.24v.31c.31,0,.62-.31,.93-.93h-.31c-.42,.05-.62,.26-.62,.62Z" fill="#fff"/><rect x="129.23" y="18.49" width=".31" height=".62" fill="#fff"/><rect x="129.86" y="142.49" width=".62" height=".31" fill="#fff"/><path d="M130.48,40.08h.31c.42,0,.62-.2,.62-.62v-.31c-.31,0-.62,.31-.93,.93Z" fill="#fff"/><path d="M131.1,132h.62v-.62c-.42,.05-.62,.26-.62,.62Z" fill="#fff"/><path d="M134.53,19.72v.31c.05,.41,.26,.62,.62,.62v-.31c0-.41-.21-.62-.62-.62Z" fill="#fff"/><rect x="134.84" y="39.77" width="1.25" height=".31" fill="#fff"/><path d="M135.47,123.67v.31c0,.31,.31,.62,.93,.93h.31v-.31c0-.31-.31-.62-.93-.93h-.31Z" fill="#fff"/><rect x="137.34" y="136.63" width=".62" height=".31" fill="#fff"/><path d="M138.27,92.83h.62v-.62c-.42,.05-.62,.26-.62,.62Z" fill="#fff"/><path d="M138.27,101.77v.62h.62c0-.41-.21-.62-.62-.62Z" fill="#fff"/><path d="M140.45,127.07l-.31,.62v.31h.93v-.31c0-.41-.21-.62-.62-.62Z" fill="#fff"/><path d="M144.82,22.8v.62c.42,0,.62-.2,.62-.62h-.62Z" fill="#fff"/><rect x="148.87" y="57.35" width=".31" height=".62" fill="#fff"/><path d="M153.85,77.71v.31c.42,0,.62-.2,.62-.62v-.31c-.42,.05-.62,.26-.62,.62Z" fill="#fff"/><rect x="156.35" y="88.51" width=".62" height=".31" fill="#fff"/><rect x="157.28" y="105.17" width=".93" height=".31" fill="#fff"/><path d="M157.91,72.16v.62c.42,0,.62-.2,.62-.62h-.62Z" fill="#fff"/><rect x="160.4" y="94.99" width=".31" height=".62" fill="#fff"/><rect x="161.33" y="108.56" width=".31" height="1.23" fill="#fff"/><rect x="161.33" y="110.41" width=".31" height=".62" fill="#fff"/><rect x="162.58" y="29.59" width=".62" height=".31" fill="#fff"/><rect x="163.83" y="105.17" width=".62" height=".31" fill="#fff"/><rect x="164.14" y="111.64" width=".62" height=".62" fill="#fff"/><path d="M164.76,146.19h.62c0,.41-.21,.62-.62,.62v-.62Z" fill="#fff"/><rect x="167.88" y="114.42" width=".62" height=".62" fill="#fff"/><rect x="168.19" y="70.31" width=".31" height=".62" fill="#fff"/><path d="M168.5,143.72c.05,.41,.26,.62,.62,.62v-.62h-.62Z" fill="#fff"/><rect x="169.44" y="142.49" width=".31" height=".62" fill="#fff"/><path d="M170.06,103.93h.62v-.62c-.42,.05-.62,.26-.62,.62Z" fill="#fff"/><path d="M173.8,30.83c.05,.41,.26,.62,.62,.62v-.62h-.62Z" fill="#fff"/><path d="M239.04,82.7c-.08-.22-.16-.43-.25-.65-.08-.21-.35-.83,.04,.07-.37-.86-.55-1.61-.34-2.54,.05-.2,.12-.38,.21-.56-1.27-1.26-1.95-3.41-1.95-6.56,0-.51,.1-1.34,.31-2.47-.21-.41-.31-.72-.31-.93l.31-.62-.31-1.54c.21-.41,.31-.72,.31-.93l-.31-.62h.31c0-1.18-.1-1.9-.31-2.16,.21-1.39,.31-2.52,.31-3.39v-6.17c0-1.54,.1-2.67,.31-3.39,0-4.52,1.87-6.79,5.61-6.79,.36,.21,.78,.31,1.25,.31h.93c.62-.31,.93-.62,.93-.93v-6.17c0-.72,.1-1.65,.31-2.78-.21-.26-.31-.98-.31-2.16v-1.23c0-.46,.1-.87,.31-1.23-.21-.36-.31-.77-.31-1.23,0-2.11,.1-3.75,.31-4.94-.21-1.28-.31-2.72-.31-4.32,0-.51,.1-1.34,.31-2.47,0-.87-1.77-1.39-5.3-1.54-2.03,0-4.42,1.03-7.17,3.08h-.31c-2.13-1.85-5.35-2.98-9.66-3.39h-3.12l-1.56,1.23c.42,2.06,.62,4.11,.62,6.17v.93l-.31,1.54c.21,0,.31,.31,.31,.93,0,.46-.1,.88-.31,1.23l.31,.62-.31,3.7c0,.67,.1,1.18,.31,1.54-.21,1.39-.31,2.52-.31,3.39v6.48c.31,.62,.62,.93,.93,.93h2.49c2.7,0,4.36,1.65,4.99,4.94v2.47l-.31,1.54c.21,0,.31,.1,.31,.31l-.31,.62c0,.21,.1,.51,.31,.93,0,.21-.1,.51-.31,.93,0,.21,.1,.51,.31,.93,0,.21-.1,.51-.31,.93l.31,2.16-.31,2.16,.31,.62h-.31c0,1.08,.1,2.01,.31,2.78l-.31,2.16c0,.46,.1,.88,.31,1.23-.16,.67-.36,2.42-.62,5.24,.21,.36,.31,.88,.31,1.54v.31c0,2.26-.73,4.32-2.18,6.17-1.14-.41-2.18-1.13-3.12-2.16l-.62,.31c0,.36,.21,.88,.62,1.54-.21,0-.31,.1-.31,.31v.62c0,.41,.21,.62,.62,.62l-.31,.62v.31c0,1.49,.31,2.31,.93,2.47h.62l-.31-1.85c0-.82,.62-1.65,1.87-2.47,.16,.05,.88,.67,2.18,1.85l-.31,3.08c0,.41,.21,.62,.62,.62,0,.41-.21,.62-.62,.62,0,.51,.1,1.34,.31,2.47-.21,1.13-.31,1.95-.31,2.47l.31,.62c-.36,0-.57,1.85-.62,5.55v.31h-.62c-.21-1.9-.83-5.5-1.87-10.8v-1.85l-1.56,.31v.62l.62,.93c-.62,0-.93,.21-.93,.62l.93,1.23c0,.41-.21,.62-.62,.62,0,.21,.1,.51,.31,.93l-.31,1.54,.31,.62c0,.41-.21,.62-.62,.62l-.31-1.54,.31-1.54-.62-.62c0-3.5-.52-5.24-1.56-5.24-.62,0-.93,.62-.93,1.85h-.62c0-.2,.1-.31,.31-.31l-.31-.62c-1.04,.77-1.56,1.29-1.56,1.54v.31c0,.41,.21,.62,.62,.62,0,.31-.42,.62-1.25,.93-.21,0-.31-.2-.31-.62h-.31l-.62,.31,4.67,24.06c.42,0,.62-.31,.62-.93h.31c.42,0,.62,.21,.62,.62v.31h-1.25c0,1.44,.21,2.57,.62,3.39h-.31c0,.41,.21,1.03,.62,1.85,.68-.62,1.19-.93,1.56-.93l-.31-.62h1.25v-1.23l.31-1.23-.31-.62c.21-.36,.31-.77,.31-1.23l1.87,.93-.62,.93v1.54h1.87v.31c-.83,0-1.25,.41-1.25,1.23-.21,0-.31-.1-.31-.31l-.62,.31c0,.26,.73,.88,2.18,1.85-.31,.82-.62,1.23-.93,1.23,0-1.03-.21-1.54-.62-1.54-.36,0-.57,.21-.62,.62v.62c.83,1.03,1.35,1.54,1.56,1.54h.31v-.62h.62c0,1.29,1.87,2.42,5.61,3.39,.62,0,.93-.2,.93-.62l-.31-.62h.31c1.04,0,1.56-1.13,1.56-3.39-.21,0-.31-.1-.31-.31,.21,0,.31-.1,.31-.31v-1.23l-.31-.62c-.21,0-.52,.1-.93,.31-2.29-.2-4.26-.31-5.92-.31l-.62,.31v-.31l.31-.62c.93,0,3.22,.1,6.86,.31,.42,0,.62-.2,.62-.62v-2.78h-.31c-.42,0-.62,.31-.62,.93l-1.56-.93h-.93l-.93,.62c0-.46-.1-.87-.31-1.23,.42,0,.62-.2,.62-.62l1.56,.31c.31,0,.62-.41,.93-1.23l.93,.62c0,.21-.1,.31-.31,.31,0,.41,.21,.62,.62,.62h.31v-6.79c0-1.8-.83-3.03-2.49-3.7v-.31h.31c.36,.21,.78,.31,1.25,.31h.31c.73,0,1.14-4.73,1.25-14.19l-.31-.62-3.12,2.78h-.31l.62-.93v-.62c-.42-.82-.93-1.23-1.56-1.23v-.31c.83,0,1.25-.31,1.25-.93,.36,0,.68,.72,.93,2.16l1.25-.31v-1.54l-.31-.62c.62,0,.93-.2,.93-.62l.62,.31h.62c0-.62,.31-1.44,.93-2.47,.45-.28,.83-.53,1.19-.78-.05-.13-.1-.27-.15-.4Zm-16.62-50.03c-.62-.31-.93-.62-.93-.93v-.93c.52,.41,.93,.62,1.25,.62-.21,.36-.31,.77-.31,1.23Zm4.99-4.01h-.62v-1.23c.42,0,.62,.21,.62,.62v.62Zm0-3.7h-.31c-.36,0-.57-.2-.62-.62h.93v.62Zm-4.67,72.8c0-.36,.21-.57,.62-.62l.31,1.54h-.93v-.93Zm1.56,9.56c-.21,0-.31,.21-.31,.62-.36,0-.57-.2-.62-.62v-3.08c0-1.03-.1-2.57-.31-4.63h.62l.31,1.54c0,.62-.1,1.34-.31,2.16,.26,1.23,.57,1.85,.93,1.85l-.62,.93v.62l.31,.62Zm7.17,5.55h-1.56c-.36,0-.57-.2-.62-.62,.62,0,1.35-.1,2.18-.31v.93Zm-1.87-18.82h-.62l1.87-1.54h.62c0,.31-.62,.82-1.87,1.54Zm3.12,11.1v.31h-.93v-.62c.42,.21,.73,.31,.93,.31Zm-1.25-38.25h-.62v-1.23l.31-1.54h.62l-.31,2.78Zm1.25,19.12v-1.23h.31c0,.21,.1,.51,.31,.93l-.62,.31Zm3.74-55.52h-.62c-.52-.41-1.04-.62-1.56-.62v-.62c1.45,.26,2.18,.57,2.18,.93v.31Z" fill="#fff"/><path d="M213.69,142.49l.62-.31c0-.36-.21-.57-.62-.62h-1.25c0,1.23-.83,1.85-2.49,1.85,0-1.03-.62-1.54-1.87-1.54h-.31c-.62,.31-.93,.62-.93,.93v.62c.31,.62,.62,.93,.93,.93h.93l.62-.31,.31,.62-.93,1.23-.93-.62h-.62l-.62,.31c.16,.62,.99,.93,2.49,.93h2.49c1.56,0,2.39-.31,2.49-.93v-2.47l-1.25-.31v-.62c.21,0,.52,.1,.93,.31Zm0,2.16v.31h-3.43v-.31c.52,0,1.35-.1,2.49-.31,.42,.21,.73,.31,.93,.31Z" fill="#fff"/><path d="M220.24,80.18c-.62,0-.93,.62-.93,1.85h-.62c0-.51,.21-1.54,.62-3.08-1.09-.2-1.71-.31-1.87-.31v-.31c.62,0,.93-.41,.93-1.23h.31l.93,.62,.62-.31c-.93-1.03-1.66-1.54-2.18-1.54v-.31h.31l1.56,.93h.93c0-1.44,.31-2.16,.93-2.16-.21-2.36-.42-3.7-.62-4.01-.21,0-.31,.1-.31,.31-.36,0-.57-.2-.62-.62v-.62h.62v-.31c-.47-2.83-.99-4.99-1.56-6.48h.31c-3.74-19.28-5.82-29.56-6.23-30.85-2.13-11.52-3.58-17.27-4.36-17.27h-1.25c-1.19,0-2.75,1.03-4.67,3.08-1.09,0-1.82-.41-2.18-1.23-.68-.57-2.13-1.28-4.36-2.16l-.62,.31c-.36-.2-.78-.31-1.25-.31h-.62v.31c0,.41,.93,.62,2.8,.62-.21,.41-.31,.72-.31,.93-.78,0-1.51-.1-2.18-.31-.42,1.23-.83,1.85-1.25,1.85h-.31c-.52-.41-1.04-.62-1.56-.62,1.45-1.03,2.18-1.75,2.18-2.16v-.62c-1.66,.26-2.49,.67-2.49,1.23v4.01h.93c0,.1-.31,1.23-.93,3.39v4.32c0,.46,.1,.88,.31,1.23-.21,.36-.31,.77-.31,1.23v4.01c0,.46,.1,.88,.31,1.23-.21,.36-.31,.77-.31,1.23v4.94l1.56-.31c.21,0,.52,.1,.93,.31,.42-.51,1.66-.93,3.74-1.23l-3.43,1.85c-.21,0-.31-.1-.31-.31l-2.18,.31v.31c0,.41,.21,.62,.62,.62h2.18c2.6,0,4.26,1.75,4.99,5.24-.21,0-.31,.1-.31,.31v19.43l.31,.62c-.21,0-.31,.1-.31,.31v.31l.31,.62c0,2.04-.38,3.84-1.06,5.45,.07,.17,.16,.34,.23,.51,.07,.18,.12,.36,.16,.55,.14,.67,.22,1.37,.22,2.06,0,.87-.36,1.65-.94,2.28,.13,.34,.28,.67,.4,1.02,.12,.43,.12,.86,.06,1.3,.86-.1,1.98-.26,3.43-.52v.62c-1.66,.21-2.49,.62-2.49,1.23l-.62-.31h-.61v.02c.2,2.66,.61,3.99,1.24,3.99h.62l1.56-.31c0,.21,.31,.31,.93,.31v.31l-3.74,.62v1.23c0,.46-.1,.88-.31,1.23,.21,.36,.31,.77,.31,1.23v.93l-.31,1.54c.21,0,.31,.1,.31,.31l-.31,1.85v.31l.31,.62c-.21,0-.31,.1-.31,.31v4.32l1.56,1.85c-1.04,0-1.56,.21-1.56,.62v2.78c0,5.96-1.35,8.95-4.05,8.95v1.54l-.31,.62c1.87,.67,2.8,1.29,2.8,1.85-.42,0-.62,.31-.62,.93l-1.56-.31c-1.71-2.67-3.06-4.01-4.05-4.01l-.93,.62c0,.21,.1,.31,.31,.31l-.62,.93v3.39l.62,.93v.62c-.21,0-.52,.1-.93,.31l.31,1.54v3.7c0,.72-.1,1.65-.31,2.78,.21,.41,.31,.72,.31,.93-.21,1.34-.31,2.67-.31,4.01v.62l.31,.62,3.12-.93-.31-.62v-1.54h.31c.31,1.65,.93,2.47,1.87,2.47,.42,0,.62-.2,.62-.62,.42,0,.62,.21,.62,.62,.1,0,.93-.2,2.49-.62,.93,.26,1.66,.88,2.18,1.85v.31h-1.25c0-.62-.21-.93-.62-.93l-.62,.31v-.31c-2.13,.41-3.38,.72-3.74,.93l-.62-.31c-.21,0-.52,.1-.93,.31-.16,0-.99-.1-2.49-.31-.62,.31-.93,.62-.93,.93v1.23l-.31,3.08c2.8-.41,4.78-.62,5.92-.62v.31c-1.25,.62-1.87,1.34-1.87,2.16h.62l.62-.31c0,.21,.1,.31,.31,.31h.31v-.31l-.31-.62c.21,0,.31-.1,.31-.31,1.45,.46,2.18,.88,2.18,1.23,.52-.41,.93-.62,1.25-.62v-.62h-1.87v-.62c.47,0,.88-.1,1.25-.31l1.87,.31h.62l.62-.31c0-.36-.52-.67-1.56-.93l.31-1.54c0-.2-.21-.31-.62-.31v-.31h.31c.36,.21,.78,.31,1.25,.31h1.25l1.56-.31c0,.21,.31,.31,.93,.31h.31v-.31l-.31-.62c.83,0,1.25-.2,1.25-.62h.62l2.18,.31c.21-.36,.31-.77,.31-1.23h.62v.62c0,.41-.21,.62-.62,.62l1.25,1.54,2.18-1.23c0,.15,.52,.46,1.56,.93h.62c.42,0,.62-.2,.62-.62v-2.78c0-.36-.21-.57-.62-.62-.36,0-.57,.21-.62,.62-.16,0-.99-.2-2.49-.62h-.31l-1.56,1.23h-.31l.31-.62v-.31l-3.12,.31-1.25-.31-1.25,.62c0-.36-.21-.57-.62-.62,0-.26,.93-.67,2.8-1.23,0-.36-.21-.57-.62-.62l-.93,.62h-.62c0-.26,.73-.87,2.18-1.85,.36,.21,.78,.31,1.25,.31v.31c-.62,0-.93,.21-.93,.62s.21,.62,.62,.62h.62l.62-.31c0,.21,.1,.31,.31,.31h1.56c.78-1.03,1.3-1.54,1.56-1.54,0-.2-.1-.51-.31-.93l2.8-2.47c0,.62,.21,.93,.62,.93h.31v-4.32l.31-1.54c-.36,0-.57-.2-.62-.62-.21,0-.31,.1-.31,.31-.21,0-.52-.1-.93-.31l-.62,.31c0-.2-.21-.31-.62-.31l.31-.62c.21,0,.52,.1,.93,.31,.47,0,1.09-.31,1.87-.93,0-1.65,.1-3.6,.31-5.86-.52-.82-.93-1.23-1.25-1.23h-1.56c-1.09,0-2.03-.1-2.8-.31-2.08-.36-3.12-1.9-3.12-4.63,0-.36,.1-1.59,.31-3.7l-.31-3.7,.31-1.54-.31-.62c.21-1.13,.31-2.06,.31-2.78v-2.47h-.62c0-.62,.31-1.44,.93-2.47l-.31-.62c.21-.36,.31-.77,.31-1.23v-5.55l-.31-.62,.62-.31c0-.2-.1-.31-.31-.31,0-1.95,.93-3.8,2.8-5.55v-.31l-.62,.31h-2.49c0-.26,.93-.67,2.8-1.23-1.04-.93-1.56-1.54-1.56-1.85l-6.86-4.01v-.31h.31c2.96,1.44,4.73,2.16,5.3,2.16h.62c.42-7.15,.62-13.62,.62-19.43l-.31-1.54c.21,0,.31-.31,.31-.93v-.31l-.31-.62c.21,0,.31-1.03,.31-3.08h.31c1.45,8.43,3.01,16.45,4.67,24.06h-.31l.31,2.16c0,.57-.21,1.18-.62,1.85,0,.21,.21,.31,.62,.31v.31h-.93l.31,.62c.47,0,.88-.1,1.25-.31l.62,.31c1.04-.41,1.77-.62,2.18-.62v.31c-1.04,.77-1.56,1.29-1.56,1.54,0,.21,.21,.31,.62,.31v.31l-.62,.93,.62,.93c.93-.62,1.66-.93,2.18-.93h.31c0,.21-.1,.31-.31,.31,.21,1.08,.31,1.7,.31,1.85,.47,0,.88-.1,1.25-.31,.42,0,.62,.21,.62,.62,1.25-.31,1.87-1.03,1.87-2.16v-.31c0-1.03-.42-1.65-1.25-1.85Zm.62-7.09h.31c0,.21,.1,.51,.31,.93h-.62v-.93Zm-2.18-.93l.62,.31c-.31,.62-.62,.93-.93,.93,0-.31-.21-.72-.62-1.23h.93Zm-24.31-53.98h.62c0-.2-.1-.31-.31-.31v-.62h.31c0,.62,.83,.93,2.49,.93v.62c-.31,0-.83,.62-1.56,1.85-1.04-.57-1.56-1.39-1.56-2.47Zm3.43,4.63h-.62c0-.31-.21-.72-.62-1.23v-.31c.83,.51,1.25,.93,1.25,1.23v.31Zm-8.1,103.64c0-.62,.21-.93,.62-.93l.31,1.54v.31h-.62c0-.2-.1-.51-.31-.93Zm.93,4.01v-1.23h.31c0,.46,.1,.88,.31,1.23h-.62Zm5.3,.93c-.21,0-.52,.1-.93,.31-.73-.62-1.56-.93-2.49-.93v-.62c.21,0,.52-.1,.93-.31,1.35,.41,2.18,.62,2.49,.62v.93Zm3.43-1.54h-.93v-.31c.21,0,.52-.1,.93-.31v.62Zm-5.61,11.1h-.31c0-.2-.1-.51-.31-.93l.62-.31v1.23Zm1.87,1.54h-.62c-.62-.31-.93-.62-.93-.93v-.31c.21,0,.52,.1,.93,.31l.62-.31v1.23Zm1.56-1.85h-.31v-.93h.31l.62,.31c0,.41-.21,.62-.62,.62Zm11.84-15.11h1.56l-.31,.62-1.25-.31v-.31Zm-.31,8.33h.93v.62h-.93v-.62Zm-3.74-2.78c-.36,0-.68-.51-.93-1.54l.62-.31,.31,1.54v.31Zm0-50.59c.83,.31,1.25,.62,1.25,.93l-1.56,.31h-.31l.62-1.23Zm0,6.48v.93c-.21,0-.52,.1-.93,.31l-1.25-.31c0-.36,.73-.67,2.18-.93Zm-2.18,53.06v.31h-1.56c-.36,0-.57-.2-.62-.62l2.18,.31Zm-1.25-115.37c-1.04-.77-1.56-1.28-1.56-1.54h.31c.52,.62,.93,.93,1.25,.93v.62Zm2.18-3.39l-.31-.62c0-.36,.21-.57,.62-.62h.31c0,.21,.1,.51,.31,.93-.21,0-.52,.1-.93,.31Zm9.35,16.04h-.62l-1.87-1.85v-.62h.31c.68,1.23,1.4,1.85,2.18,1.85v.62Z" fill="#fff"/><path d="M235.19,130.77c-2.91,0-4.36,.41-4.36,1.23h-.31c0-.82-.93-1.23-2.8-1.23l.62-.93v-.62l-.31-.62-1.87,.31c0,.46,.1,.88,.31,1.23l-.31,.62,.93,.62c-.93,1.65-1.77,2.47-2.49,2.47v-.31l.62-.93v-1.23c0-.36-.21-.57-.62-.62h-.31c-.36,0-.57,.21-.62,.62l.31,1.85c0,2.06,1.77,3.08,5.3,3.08v.31c-.21,0-.52,.1-.93,.31l-.62-.31-.62,.31c-.36-.2-.78-.31-1.25-.31h-.31c-.36,0-.57,.21-.62,.62,0,2.26,.31,3.39,.93,3.39h1.25l.93-.62h.62v.93l-.62,.93-1.87-.31-.62,.31c0,1.44,.31,2.16,.93,2.16,.73,1.44,1.35,2.16,1.87,2.16,1.45-.31,2.18-.82,2.18-1.54h.31c0,.88,.83,1.39,2.49,1.54,.36-.2,.88-.31,1.56-.31v-.62c0-.46-.1-.87-.31-1.23,.21-.36,.31-.77,.31-1.23v-1.23l-.62-.93v-.62c.21,0,.52-.1,.93-.31,0-.2-.1-.51-.31-.93,.16-1.18,.36-3.75,.62-7.71-.21,0-.31-.1-.31-.31Zm-1.56,10.18c-.52,0-1.35,.1-2.49,.31v-.31c0-.26,.83-.67,2.49-1.23v1.23Z" fill="#fff"/><rect x="190.32" y="127.99" width=".31" height=".62" fill="#fff"/><path d="M191.25,133.24v.31c.31,0,.62-.31,.93-.93h-.31c-.42,.05-.62,.26-.62,.62Z" fill="#fff"/><rect x="191.88" y="18.49" width=".31" height=".62" fill="#fff"/><rect x="192.5" y="142.49" width=".62" height=".31" fill="#fff"/><path d="M193.12,40.08h.31c.42,0,.62-.2,.62-.62v-.31c-.31,0-.62,.31-.93,.93Z" fill="#fff"/><path d="M193.75,132h.62v-.62c-.42,.05-.62,.26-.62,.62Z" fill="#fff"/><path d="M197.17,19.72v.31c.05,.41,.26,.62,.62,.62v-.31c0-.41-.21-.62-.62-.62Z" fill="#fff"/><rect x="197.48" y="39.77" width="1.25" height=".31" fill="#fff"/><path d="M198.11,123.67v.31c0,.31,.31,.62,.93,.93h.31v-.31c0-.31-.31-.62-.93-.93h-.31Z" fill="#fff"/><rect x="199.98" y="136.63" width=".62" height=".31" fill="#fff"/><path d="M200.91,92.83h.62v-.62c-.42,.05-.62,.26-.62,.62Z" fill="#fff"/><path d="M200.91,101.77v.62h.62c0-.41-.21-.62-.62-.62Z" fill="#fff"/><path d="M203.09,127.07l-.31,.62v.31h.93v-.31c0-.41-.21-.62-.62-.62Z" fill="#fff"/><path d="M207.46,22.8v.62c.42,0,.62-.2,.62-.62h-.62Z" fill="#fff"/><rect x="211.51" y="57.35" width=".31" height=".62" fill="#fff"/><path d="M216.5,77.71v.31c.42,0,.62-.2,.62-.62v-.31c-.42,.05-.62,.26-.62,.62Z" fill="#fff"/><rect x="218.99" y="88.51" width=".62" height=".31" fill="#fff"/><rect x="219.92" y="105.17" width=".93" height=".31" fill="#fff"/><path d="M220.55,72.16v.62c.42,0,.62-.2,.62-.62h-.62Z" fill="#fff"/><rect x="223.04" y="94.99" width=".31" height=".62" fill="#fff"/><rect x="223.98" y="108.56" width=".31" height="1.23" fill="#fff"/><rect x="223.98" y="110.41" width=".31" height=".62" fill="#fff"/><rect x="225.22" y="29.59" width=".62" height=".31" fill="#fff"/><rect x="226.47" y="105.17" width=".62" height=".31" fill="#fff"/><rect x="226.78" y="111.64" width=".62" height=".62" fill="#fff"/><path d="M227.4,146.19h.62c0,.41-.21,.62-.62,.62v-.62Z" fill="#fff"/><rect x="230.52" y="114.42" width=".62" height=".62" fill="#fff"/><rect x="230.83" y="70.31" width=".31" height=".62" fill="#fff"/><path d="M231.14,143.72c.05,.41,.26,.62,.62,.62v-.62h-.62Z" fill="#fff"/><rect x="232.08" y="142.49" width=".31" height=".62" fill="#fff"/><path d="M232.7,103.93h.62v-.62c-.42,.05-.62,.26-.62,.62Z" fill="#fff"/><path d="M236.44,30.83c.05,.41,.26,.62,.62,.62v-.62h-.62Z" fill="#fff"/><path d="M297.45,121.51c-.26-1.44-.57-2.16-.93-2.16s-.57,.21-.62,.62c-.31,0-.62-.41-.93-1.23v-.31l1.56,.31c.42,0,.62-.2,.62-.62v-1.54h-1.56v-.93c.93,0,1.56-.1,1.87-.31l-.31-1.54v-5.55h-2.49c-.36,0-.57-.2-.62-.62,.47,0,.88-.1,1.25-.31,.36,.21,.78,.31,1.25,.31h.62v-1.54l-.31-.62c.21,0,.31-.1,.31-.31v-.31h-3.12c0-.36,.21-.57,.62-.62h2.18c0-.46,.1-.87,.31-1.23-.14-2.44-.23-4.56-.27-6.4-.49,.93-.97,1.87-1.45,2.8-.92,1.75-1.9,3.5-3.03,5.14h.71v.31l-1.11,.22c-.89,1.23-1.88,2.38-2.99,3.42l-.26,1.29c.21,0,.31,.1,.31,.31,0,.82-.42,2.47-1.25,4.94,0,.21,.21,.31,.62,.31v.31l-1.87,.31v.62h.62v.62l-1.56-.31c-2.13,.82-3.48,1.23-4.05,1.23-.36,0-.57-.2-.62-.62-1.45,0-3.74,.1-6.86,.31l-1.25-.31c-.36,.21-.88,.31-1.56,.31h-3.43c-.1,0-.62-.41-1.56-1.23l.31-.62-.62-.93c.21,0,1.25,.21,3.12,.62h.31c0-.2-.1-.31-.31-.31-.47-3.7-.99-5.55-1.56-5.55h-.31c-.36,0-.57,.21-.62,.62-.36,0-.57-.2-.62-.62v-.62c.62,0,1.45-.2,2.49-.62,0-.31-.1-1.95-.31-4.94,0-.51,.1-2.06,.31-4.63-.21,0-.31-.1-.31-.31h.31c0-1.7-.1-3.34-.31-4.94,0-.72,.1-1.65,.31-2.78,0-3.5,.93-5.24,2.8-5.24h.62c1.49,0,2.38,1.67,2.68,4.95,.17-.32,.32-.64,.51-.95,1.26-2.18,2.83-4.17,4.41-6.13,.64-.79,1.29-1.57,1.94-2.36,.31-.37,.62-.75,.93-1.13,.09-.11,.18-.23,.27-.34,.04-.05,.07-.1,.1-.14,.39-.53,.87-.94,1.39-1.22-.13-.16-.27-.3-.39-.46-3.79-2.54-6.75-6.02-9.06-9.93l-.29,2.9c.21,0,.31,.21,.31,.62-.47,2.06-1.4,3.08-2.8,3.08h-1.56c-1.45-.77-2.18-2.42-2.18-4.94v-1.23c0-.41-.42-.62-1.25-.62v-.31c.62,0,.93-.2,.93-.62v-.62c-.99-1.03-2.13-1.54-3.43-1.54,.21-.41,.31-.72,.31-.93h.62l.93,1.23h.31c.42,0,.83-.82,1.25-2.47l-3.12-.62c-.21,.36-.31,.77-.31,1.23h-.62v-1.23h-1.56l.62-1.23-.31-.62-.93,.62c0-.62-.21-1.34-.62-2.16-.21,0-.31,.1-.31,.31l-.62-.31h-.31c0,.41-.21,.62-.62,.62v.93c0,1.18,.1,1.9,.31,2.16-.21,1.13-.31,2.06-.31,2.78v8.02l.31,.62c0,.65-.1,1.26-.31,1.83,.5,.87,.92,1.77,1.25,2.75,.58,1.71,.82,3.83,.16,5.56-.24,.62-.59,1.11-1.05,1.53,.16,.69,.26,1.42,.26,2.21-.21,2.26-.31,4.22-.31,5.86v.31h.62c2.23-3.7,3.48-5.55,3.74-5.55h.31c0,1.08-.73,2.11-2.18,3.08-1.19,2.47-2.03,3.7-2.49,3.7l.31,1.54c-.21,3.6-.31,5.76-.31,6.48,0,.62,.31,.93,.93,.93v.31c-.62,0-.93,.21-.93,.62v.31c0,.46,.1,.88,.31,1.23-.21,.36-.31,.77-.31,1.23v.62c0,.62,2.08,.93,6.23,.93v.31l-1.87,.31c-2.13-.2-3.38-.31-3.74-.31h-.31c-.47,3.24-.99,5.4-1.56,6.48,1.45,0,2.29,.1,2.49,.31,0,.41-.21,.62-.62,.62h-2.18c-1.14,0-2.7,.21-4.67,.62-1.66,0-2.49,.62-2.49,1.85v1.54c0,.41,.21,.62,.62,.62h2.18l2.18-.31c.21,1.03,.83,1.54,1.87,1.54h.31c0-.2-.1-.31-.31-.31,0-.36,.21-.57,.62-.62h2.49c1.45,0,2.18-.82,2.18-2.47h.31l.62,.31c-.42,.88-.62,1.49-.62,1.85h.93c2.34,0,5.35-.1,9.04-.31,.42,0,.62-.31,.62-.93h2.18c0,.26,.52,.67,1.56,1.23-2.49,.46-4.16,.88-4.99,1.23-.36-.2-.78-.31-1.25-.31h-1.56c-2.39,0-6.03,.1-10.91,.31,0,.36,1.45,.88,4.36,1.54v.62c-1.82,0-5.45-.93-10.91-2.78-1.04,0-1.56,1.13-1.56,3.39l.31,1.54c-.21,0-.31,.1-.31,.31,.21,0,.31,.1,.31,.31,.42,0,.62-.2,.62-.62l.62,.31h.62v-2.78h.31v.31c0,2.06,1.87,3.08,5.61,3.08l-.62,.93c-.36,0-.57-.2-.62-.62-2.49,.21-3.74,.51-3.74,.93,2.55,.62,4,.93,4.36,.93v.31h-.31c-1.4-.2-2.55-.31-3.43-.31v.31c.42,.46,.62,1.08,.62,1.85h1.25c.83-.36,1.25-.77,1.25-1.23h1.56v.31h-.62l-.93,2.16-3.12-.31h-.62c-1.04,.82-1.66,1.23-1.87,1.23h-.31v-.62c.26-.67,1.09-1.28,2.49-1.85v-.31c0-.93-.93-1.65-2.8-2.16-.36,0-.57,.21-.62,.62v.93c0,.62,.42,.93,1.25,.93v.31h-.31l-.62-.31c0,.21-.1,.31-.31,.31,0,.21,.1,.31,.31,.31l-.31,.62v.93l.31,.62c-.21,0-.31,.1-.31,.31v2.16l.31,.62c-.21,0-.31,.1-.31,.31v.62l.31,1.54c-.21,0-.31,.1-.31,.31,0,.62,.52,1.03,1.56,1.23l1.87-.31h2.8l.62-.31c0,.21,.93,.41,2.8,.62l1.87-.31,1.56,.31c0-.2,.42-.31,1.25-.31v-1.54h-1.56c-.73,0-1.66-.1-2.8-.31-.42,.21-.73,.31-.93,.31l-1.87-.31v-.62c.42,0,1.04-.2,1.87-.62,.88,.41,1.51,.62,1.87,.62l1.87-1.54h.62l.62,.31,.31-.62v-.62c0-.36-.21-.57-.62-.62l.62-1.85c0-1.08-1.14-2.11-3.43-3.08v-.31c.36,0,.88-.2,1.56-.62,.36,.21,.78,.31,1.25,.31v-.31l-.31-.62c.83,0,1.25-.72,1.25-2.16-.21,0-.31-.1-.31-.31,.21-.36,.31-.77,.31-1.23h.31c0,1.08,.1,2.01,.31,2.78-.21,0-.31,.1-.31,.31,0,.41,.52,.93,1.56,1.54v.31c-.21,0-.52-.1-.93-.31l-.62,.31c.21,2.11,.62,3.55,1.25,4.32l1.56-.31v-.62h-.62v-.31l.31-.62c1.45,.46,2.18,.88,2.18,1.23l.62-.31-.31-.62c-2.08-.77-3.12-1.39-3.12-1.85,.62,0,.93-.41,.93-1.23h.62c.52,0,1.77,.31,3.74,.93v.62l-1.56-.31c-.62,0-.93,.21-.93,.62v.62c.52,0,1.45-.2,2.8-.62l.62,.31c0-.2,.1-.31,.31-.31,0-.41-.31-.62-.93-.62v-.31l.31-.62c.21,0,.31,.1,.31,.31l.62-.31h.31c0,.21-.1,.31-.31,.31,0,.41,.21,.62,.62,.62h.31v-.62h.62c.36,0,.78,.62,1.25,1.85,1.25,0,1.87-.31,1.87-.93h.31c0,.51,.83,.93,2.49,1.23,4.36,.57,6.54,1.18,6.54,1.85h.31v-.93h.31l.93,.62h.31l.62-.31c0,.21,.1,.31,.31,.31,.42,0,.62-.2,.62-.62v-.62c-.47,0-.88-.1-1.25-.31l.31-.62c.21,0,.52,.1,.93,.31l.62-.31c0,1.23,.21,1.85,.62,1.85l.62-.31c0,.21,.1,.31,.31,.31h.93c0-.62,.21-.93,.62-.93h.31v.62c.21,0,.31-.1,.31-.31,.21,0,.31,.1,.31,.31l.62-.31c0-.2-.1-.31-.31-.31,.26-1.85,.47-2.98,.62-3.39-.21-.36-.31-.77-.31-1.23v-5.86l.31-1.54Zm-26.18-45.65h.31v1.23l-1.56,1.85c-.36,0-.57-.2-.62-.62,1.25-1.23,1.87-2.06,1.87-2.47Zm-7.48-11.41l-.62-.31c0-.36,.21-.57,.62-.62v.93Zm-1.56,40.41c0,.41-.21,.62-.62,.62v-.93h.62v.31Zm2.18-2.16h-.93v-1.23h.31c.42,0,.62,.21,.62,.62v.62Zm-4.05,16.35h-1.87v-.31h1.87v.31Zm.31-4.63h-.62c-.36,0-.57-.2-.62-.62h1.25v.62Zm1.87,3.08v-.62h.62c.42,0,.62,.21,.62,.62h-1.25Zm2.49,1.54h-1.56v-.31h1.56v.31Zm4.05-38.87v.93c-.78,1.23-1.3,1.85-1.56,1.85h-.62c.78-1.54,1.51-2.47,2.18-2.78Zm-2.18,.31h.31v.93h-.62c.21-.41,.31-.72,.31-.93Zm-2.18,6.79v-.93l1.25-1.54-.31-.62h.93v.31c-.99,1.85-1.61,2.78-1.87,2.78Zm9.35,31.77c-.21,0-.52,.1-.93,.31,0-.2-.21-.31-.62-.31v-.31h1.56v.31Zm-19.63,20.98h-.62c-.36,0-.57-.2-.62-.62l-.93,.62h-.31v-.31c0-.41,.83-.72,2.49-.93v1.23Zm.62-.62h-.31c.21-.41,.31-.72,.31-.93h.93c-.31,.62-.62,.93-.93,.93Zm1.56-1.54h-.62l-.62-1.85h-.62l-.62,.31c.42-1.13,.62-1.95,.62-2.47h.62c0,.88,.42,2.11,1.25,3.7v.31Zm5.92-1.85c-.21,0-.52-.1-.93-.31l-.62,.31-2.18-1.54v-.31c.21,0,.31,.1,.31,.31l1.56-.31h.62l.62,.31-.31,.62v.31h.93v.62Zm0-4.01v.62l-1.56,.31h-.31v-.31c0-.36,.21-.57,.62-.62h1.25Zm9.35-6.48h-1.87l-.62,.31c-1.45-.26-2.18-.57-2.18-.93v-.62h.31c.73,0,1.66,.1,2.8,.31l.62-.31c0,.21,.31,.31,.93,.31v.93Zm17.45-12.96h.62v.62c-.31,.62-.62,.93-.93,.93l.31-1.54Zm-5.92,9.25h-1.25l-2.18,.31c0-.41-.73-.62-2.18-.62v-.31c.21,0,.52-.1,.93-.31l1.25,.31,1.56-.31c.31,.21,.93,.31,1.87,.31v.62Zm1.25,3.08v-.62h.31c.42,0,.62,.21,.62,.62h-.93Zm-.93-3.08v-.62h1.56v.62h-1.56Zm6.54,4.32h-.31v-.62h.93c0,.41-.21,.62-.62,.62Zm.62-6.17h-.62v.62h.62v.31h-1.25v-.93h-.31c-.62,.31-.93,.62-.93,.93-.57-.41-2.44-.93-5.61-1.54v-.31h.93c.57,0,1.19,.21,1.87,.62l.62-.31c0,.21,.31,.41,.93,.62,1.3-.41,2.55-.62,3.74-.62v.62Zm2.49,5.24h-.31v-.62h.93c0,.41-.21,.62-.62,.62Zm.93-5.24c-.36-.2-.78-.31-1.25-.31v-.31h1.25v.62Zm.31-1.85v.62l-1.87,.31c-.21-.41-.31-.72-.31-.93h-.31l-3.12-.31v-.62c1.92,.1,3.17,.41,3.74,.93h.31l1.56-1.23,.31,.62c-.62,0-.93,.21-.93,.62h.62Z" fill="#fff"/><path d="M280.93,32.68c0,.41,.21,.62,.62,.62l.93-.62h.62v.31c-.83,.98-1.25,1.8-1.25,2.47,.31,0,.73,.21,1.25,.62h.31c.42,0,.62-.31,.62-.93,.52,.41,.93,.62,1.25,.62v.62h-.31l-.62-.31c-.62,.46-.93,.77-.93,.93,0,.41,.31,.62,.93,.62,0,.41-.21,.62-.62,.62l.31,.62,1.25-1.23c0,.67,.1,1.18,.31,1.54h-.31l.31,1.54v.31h-.62l-.93-.62c-.62,.31-.93,.62-.93,.93-.21,0-.52-.1-.93-.31-.36,0-.57,.21-.62,.62v.62h.93v-.62h.62c0,.46,.93,.98,2.8,1.54,2.02,1.23,3.14,4.83,3.38,10.8,.75,1.84,1.51,3.62,2.37,5.47,1.12,2.43,2.37,4.8,3.71,7.12,.15,.03,.29,.06,.52,.06h.31c.42,0,.73-.82,.93-2.47l-.31-2.16,.31-2.78c-.21,0-.31-.1-.31-.31,.21,0,.31-.1,.31-.31v-3.08c0-.46-.1-.87-.31-1.23,.21-.36,.31-.77,.31-1.23v-3.7l-.62-.93,.62-.93V27.43c0-.36-.21-.57-.62-.62l.62-.93V13.55l-.62-.93c-.52,0-1.25,.31-2.18,.93h-.31v-.62h-1.25c-3.32,2.06-5.19,3.08-5.61,3.08-1.51-1.23-4-2.36-7.48-3.39-7.95,0-13.04,1.23-15.27,3.7h-.31c-2.23-2.47-5.77-3.7-10.6-3.7-.42,.21-.73,.31-.93,.31,0-.2-.1-.31-.31-.31-.83,.1-1.25,.41-1.25,.93v4.01c0,2.93-.1,5.09-.31,6.48,.21,1.75,.31,4.01,.31,6.79v9.87c0,.51,1.35,.82,4.05,.93,2.08,0,3.53,1.85,4.36,5.55-.21,.36-.31,.88-.31,1.54h.62v.31l-.62,.93v1.54h.93c0-.51,.42-1.44,1.25-2.78h-1.25v-.62c0-.31,.42-.62,1.25-.93l.62,.31v-1.85c.42,.21,.73,.31,.93,.31v.31l-.31,.62c.21,0,.52-.1,.93-.31h.31c0,.41-.52,1.03-1.56,1.85h.93c1.09-1.65,2.03-2.47,2.8-2.47v.62h-.93v.62l1.56,.31c.21,0,.31-.2,.31-.62l.62,.31h.31c2.08-3.03,3.12-4.68,3.12-4.94,.42,0,.62,.21,.62,.62,.83-.82,1.56-1.23,2.18-1.23v-.31l-.31-.62c-.21,0-.52,.1-.93,.31h-.62v-.31c1.09-.41,1.71-.62,1.87-.62v-.62c-.57,0-1.51,.31-2.8,.93,0-.2-.21-.31-.62-.31v-1.54l-.93,.62c0-.41,.62-1.34,1.87-2.78l-.31-.62c.21,0,.31-.1,.31-.31v-.31h-.62c0,.82-.21,1.23-.62,1.23h-.62l-.31-1.54c.42-.67,.62-1.18,.62-1.54h.31v.93l-.31,.62,.62,.31h.31l-.31-.62c.21,0,.52-.1,.93-.31l.62,.31c.42,0,.62-.2,.62-.62s-.31-.62-.93-.62v-.62h.93v-1.85c1.92,0,3.17-.82,3.74-2.47h.31c0,1.03,.21,1.54,.62,1.54,0-.62,.31-.93,.93-.93,0,.93,.1,1.54,.31,1.85-.36,0-.57,.21-.62,.62-.21,0-.31-.1-.31-.31l-.62,.31c.21,.41,.31,.72,.31,.93,.21,0,.31-.1,.31-.31,.21,0,.52,.1,.93,.31,.21,0,.31-.41,.31-1.23h.31c0,1.44,.21,2.16,.62,2.16h.31l-.31-.62c.42,0,1.04-.2,1.87-.62h.31c0,.41-.31,.62-.93,.62Zm9.97,0h-.31c0-.41,1.04-1.54,3.12-3.39h.31c-.62,.72-.93,1.54-.93,2.47h-.93l-1.25,.93Zm3.43,12.65l.62,.31-.31,1.23-.62-.31,.31-1.23Zm-.62-8.33h-.31c-.36-.2-.78-.31-1.25-.31v-.62h.31c.52,.41,.93,.62,1.25,.62v.31Zm.93,11.41l-.62-.31c.31-.62,.62-.93,.93-.93h.31l-.62,1.23Zm.62-8.33c0,.41-.21,.62-.62,.62v-.93h.62v.31Zm1.25-12.65c-.1,.41-.62,.82-1.56,1.23h-.31c.42-.77,1.04-1.28,1.87-1.54v.31Zm-4.36-8.95l1.25,.93h.31c.42,0,.62-.2,.62-.62v-1.23c0-.26-.62-.77-1.87-1.54l.31-.62,3.74,3.39v.31l-.62-.31h-.62c-.36,0-.68,.51-.93,1.54-1.04-.62-1.77-.93-2.18-.93v-.93Zm-.31,1.23h.31v.93h-1.25c.31-.62,.62-.93,.93-.93Zm-1.87,.62c.42,0,.62,.21,.62,.62v.31h-.62v-.93Zm-1.56,14.5c0-.36,.21-.57,.62-.62h.31v.31c-.31,.62-.62,.93-.93,.93v-.62Zm-4.99-1.85h.62v1.54c-.36,0-.57-.2-.62-.62v-.93Zm-23.37,13.88v-.31l.31-.62c-.21,0-.31-.1-.31-.31l1.56,.31c0,.36-.52,.67-1.56,.93Zm5.3-1.54h-1.25v-.62c.21,0,.52-.1,.93-.31l.31,.62v.31Zm3.74-11.72c-.42-.2-.73-.31-.93-.31v-.31l.62-.93,.62,.31-.31,1.23Zm1.56-2.78c-1.04,0-1.56,.21-1.56,.62-.83,0-1.35-.41-1.56-1.23l.62-1.54c.42,.21,.73,.31,.93,.31l-.62,.93v.93c.62,0,1.35-.2,2.18-.62v.62Zm3.74-1.23l-.62-.31h-.31l-.62,.31c0-.87-.73-1.39-2.18-1.54v-.62c.62,0,.93-.31,.93-.93h.31c1.25,.88,1.87,1.49,1.87,1.85l.62-.31h.31l-.31,1.54Zm6.54-3.7h.31v.62c0,.62-.21,.93-.62,.93l.31-1.54Zm.62,2.47h-.31c-.36,0-.57-.2-.62-.62h.93v.62Z" fill="#fff"/><path d="M289.03,137.86c.62,.41,1.35,.62,2.18,.62v.31h-1.87c0,.82-.31,1.23-.93,1.23v1.23h.62c.21,0,1.04-.2,2.49-.62h.93c1.45,.41,2.29,.62,2.49,.62,.42,0,.73-.72,.93-2.16l-.62,.31h-.31v-.93h-1.25v.62h-.31v-.31c.21-.36,.31-.77,.31-1.23s-1.04-.87-3.12-1.23c0,.41-.21,.62-.62,.62h-.62c0-.46-.93-1.28-2.8-2.47-1.45,.26-2.18,.57-2.18,.93-1.45,0-2.18,.41-2.18,1.23-.42,0-.62-.31-.62-.93h-.31v.62h-1.87l-.62,.31,.31,.62c.21,0,.52-.1,.93-.31l.62,.31c.42,0,.62-.2,.62-.62,.36,.21,.78,.31,1.25,.31v.62h-.62c0,.41,.21,.62,.62,.62h2.18l3.12,.31c0-.26,.42-.46,1.25-.62Z" fill="#fff"/><path d="M265.97,139.41v1.54l.31,.62c3.95,0,5.92-.51,5.92-1.54,.36,.21,.78,.31,1.25,.31l-.31,.62v.31h4.05l.62-.31c0-.36-.21-.57-.62-.62h-.62l-1.56,.31v-.62h-.31l-.93,.62c0-.62-.21-.93-.62-.93h-1.25l-.62,.31c0-.31-.93-.62-2.8-.93v-.62l2.18-.31h3.12c0-.82-.52-1.54-1.56-2.16h-.31l-.62,.31c0-.2-.1-.31-.31-.31-.62,.31-.93,.62-.93,.93-.42,0-.62-.31-.62-.93h-3.12v2.16l.31,.62c-.36,0-.57,.21-.62,.62Zm1.56-1.23c.42,0,.62,.21,.62,.62h-1.25c0-.36,.21-.57,.62-.62Z" fill="#fff"/><path d="M279.37,144.65v-.31h1.25v-.62c-.47,0-.88,.1-1.25,.31-.73-.41-1.25-1.03-1.56-1.85-2.65,.21-4.1,.41-4.36,.62,0-.2-.1-.31-.31-.31l-2.18,1.54c0-.67-.52-1.28-1.56-1.85h-.62v.93h-.93c-.21,0-.31,.21-.31,.62-.62,0-.93-.41-.93-1.23-.31,0-.62,.41-.93,1.23,.42,0,.62,.51,.62,1.54h.31c.62,0,.93-.41,.93-1.23h.62v1.85l1.56,.31c2.29-.26,3.43-.77,3.43-1.54h.31c0,.31,.52,1.03,1.56,2.16,.42,0,.62-.2,.62-.62,.42,0,.62,.21,.62,.62l5.3-.93v-.62h-1.56c-.36,0-.57-.2-.62-.62Zm-4.67-.31l-.62-.31c.42-.51,.62-.93,.62-1.23h.31c0,.21,.1,.51,.31,.93-.36,0-.57,.21-.62,.62Zm1.25,.93h-.62v-.31c0-.36,.21-.57,.62-.62v.93Z" fill="#fff"/><path d="M296.2,141.56v.62c-.21,0-.52-.1-.93-.31-1.35,0-2.49,.41-3.43,1.23,0-.82-1.04-1.23-3.12-1.23-.83,.51-1.25,.93-1.25,1.23,2.13,2.26,4.52,3.39,7.17,3.39h.31c0-.82-.52-1.23-1.56-1.23,0-.62,1.04-.93,3.12-.93v-.62h-.62v-.93c.21,0,.31,.1,.31,.31,.42,0,.62-.2,.62-.62v-.31c0-.36-.21-.57-.62-.62Z" fill="#fff"/><path d="M262.54,143.11c0-.36-.21-.57-.62-.62h-.31c-1.87,0-2.8,.41-2.8,1.23h-.62v-.31c0-.62-1.25-.93-3.74-.93h-1.87c-.36,0-.57,.21-.62,.62v.31l.31,.62c-.83,.31-1.25,.62-1.25,.93v.93c0,.41,.21,.62,.62,.62h1.87v-.62h.93l1.25,.93h.62c0-.62,.31-.93,.93-.93,0,.21,.1,.31,.31,.31,.88,0,1.92-.51,3.12-1.54,0-.2-.1-.31-.31-.31,0-.26,.73-.67,2.18-1.23Z" fill="#fff"/><rect x="251.63" y="126.45" width=".62" height=".31" fill="#fff"/><path d="M252.26,123.06v.31c.05,.41,.26,.62,.62,.62h.31c0-.31-.31-.62-.93-.93Z" fill="#fff"/><rect x="252.88" y="136.01" width=".62" height=".31" fill="#fff"/><rect x="253.5" y="143.42" width=".62" height=".31" fill="#fff"/><path d="M255.06,144.03c.05,.41,.26,.62,.62,.62v-.62h-.62Z" fill="#fff"/><path d="M256.31,138.17v.62c.05,.41,.26,.62,.62,.62v-.62c0-.41-.21-.62-.62-.62Z" fill="#fff"/><rect x="257.24" y="134.16" width=".93" height=".31" fill="#fff"/><path d="M260.36,51.49h.31v.62c0,.41-.21,.62-.62,.62h-.31v-.62c.05-.41,.26-.62,.62-.62Z" fill="#fff"/><rect x="260.36" y="61.05" width=".62" height=".31" fill="#fff"/><rect x="260.36" y="61.98" width=".31" height=".62" fill="#fff"/><rect x="260.67" y="19.1" width=".31" height=".62" fill="#fff"/><rect x="260.98" y="64.14" width=".31" height=".62" fill="#fff"/><rect x="262.23" y="22.8" width="1.25" height=".31" fill="#fff"/><rect x="262.23" y="129.23" width=".31" height=".62" fill="#fff"/><rect x="263.16" y="126.45" width=".31" height=".93" fill="#fff"/><path d="M263.16,134.78c.05,.41,.26,.62,.62,.62v-.62h-.62Z" fill="#fff"/><rect x="263.48" y="116.27" width=".62" height=".31" fill="#fff"/><path d="M264.1,142.8c.42,.05,.62,.26,.62,.62h-.62v-.62Z" fill="#fff"/><rect x="264.41" y="47.79" width=".62" height=".31" fill="#fff"/><path d="M264.41,114.73c.05,.41,.26,.62,.62,.62h.62c0-.41-.21-.62-.62-.62h-.62Z" fill="#fff"/><path d="M264.72,107.63v.62c.42,0,.62-.2,.62-.62h-.62Z" fill="#fff"/><rect x="266.59" y="24.96" width=".62" height=".31" fill="#fff"/><rect x="267.22" y="32.06" width=".31" height=".62" fill="#fff"/><rect x="267.22" y="45.94" width=".62" height=".31" fill="#fff"/><rect x="268.77" y="39.77" width=".62" height=".31" fill="#fff"/><path d="M268.77,76.48c.05,.41,.26,.62,.62,.62h.62c0-.41-.21-.62-.62-.62h-.62Z" fill="#fff"/><path d="M269.09,41.31v.31c.05,.41,.26,.62,.62,.62h.31c0-.31-.31-.62-.93-.93Z" fill="#fff"/><rect x="269.4" y="144.65" width=".62" height=".62" fill="#fff"/><path d="M271.27,38.85h.31v.31c0,.41-.21,.62-.62,.62h-.31v-.31c.05-.41,.26-.62,.62-.62Z" fill="#fff"/><path d="M270.96,25.58v.62c.42,0,.62-.2,.62-.62h-.62Z" fill="#fff"/><rect x="270.96" y="118.74" width=".93" height=".31" fill="#fff"/><rect x="271.58" y="36.69" width=".62" height=".62" fill="#fff"/><path d="M273.45,14.78v.62c.42,0,.62-.2,.62-.62h-.62Z" fill="#fff"/><rect x="273.76" y="78.64" width=".62" height=".31" fill="#fff"/><path d="M273.76,133.24h.31c.42,.05,.62,.26,.62,.62v.62h-.31c-.42,0-.62-.2-.62-.62v-.62Z" fill="#fff"/><path d="M274.07,21.26c.05,.41,.26,.62,.62,.62h.31c0-.41-.21-.62-.62-.62h-.31Z" fill="#fff"/><rect x="274.07" y="40.39" width=".62" height=".31" fill="#fff"/><path d="M278.75,29.59h.62v-.62c-.42,.05-.62,.26-.62,.62Z" fill="#fff"/><path d="M279.99,29.59v.31c.05,.41,.26,.62,.62,.62v-.31c0-.41-.21-.62-.62-.62Z" fill="#fff"/><path d="M280.31,32.06h.62v-.62c-.42,.05-.62,.26-.62,.62Z" fill="#fff"/><rect x="280.62" y="118.43" width=".93" height=".31" fill="#fff"/><rect x="280.93" y="28.97" width=".93" height=".31" fill="#fff"/><path d="M283.73,139.41v.31c0,.41-.21,.62-.62,.62v-.31c.05-.41,.26-.62,.62-.62Z" fill="#fff"/><rect x="284.36" y="29.59" width=".31" height=".62" fill="#fff"/><rect x="287.78" y="31.75" width=".31" height=".62" fill="#fff"/><rect x="289.65" y="143.42" width=".62" height=".31" fill="#fff"/><rect x="290.28" y="133.54" width=".31" height=".62" fill="#fff"/><path d="M290.9,144.65v.62h.62c0-.41-.21-.62-.62-.62Z" fill="#fff"/><rect x="292.15" y="128.61" width=".62" height=".62" fill="#fff"/><path d="M292.46,131.69v.31c.42,0,.62-.2,.62-.62v-.31c-.42,.05-.62,.26-.62,.62Z" fill="#fff"/><rect x="292.77" y="37.61" width=".31" height=".62" fill="#fff"/><path d="M294.95,21.26c0,.31,.31,.62,.93,.93h.31v-.31c0-.41-.21-.62-.62-.62h-.62Z" fill="#fff"/><path d="M295.58,43.78v.31c.05,.41,.26,.62,.62,.62v-.31c0-.41-.21-.62-.62-.62Z" fill="#fff"/><rect x="296.2" y="119.97" width=".31" height=".62" fill="#fff"/><path d="M324.33,144.03l-1.25-.31-1.56,.31-1.56-.31c0,.21-.21,.31-.62,.31v.31c.1,.41,.62,.82,1.56,1.23l1.25-.31c.83,0,1.25,.41,1.25,1.23h4.67c0-.31,.31-.72,.93-1.23v-.31l-2.18-1.23c-.83,0-1.66,.1-2.49,.31Z" fill="#fff"/><path d="M358.3,122.13v-2.78c0-.36-.62-.77-1.87-1.23l-.62,.31c0-.2-.73-.31-2.18-.31-2.29,0-3.84-1.54-4.67-4.63h.31l-.62-.93,.93-1.54-.31-.62c.21-1.95,.52-3.8,.93-5.55,1.87-.77,3.01-1.59,3.43-2.47v-.93c-.83,0-1.25-.2-1.25-.62-2.49,0-3.74-3.6-3.74-10.8,0-1.85-1.77-5.04-5.3-9.56v-.62c0-.36,.21-.57,.62-.62,3.32-4.99,4.99-9.82,4.99-14.5,0-.46-.73-1.18-2.18-2.16v-.62c1.45,.41,2.29,.62,2.49,.62,.26,0,.99-.82,2.18-2.47v-.62c-1.77-2.16-2.8-4.01-3.12-5.55l.31-.62-.31-.62h.31l-.31-3.7v-3.7l.31-2.16c-.21,0-.31-.2-.31-.62,0-.67,.1-1.18,.31-1.54l-.31-1.85v-2.47l-.31-.62h.31c0-2.42-1.04-6.02-3.12-10.8-4.26-6.37-7.58-9.56-9.97-9.56l-.62,.31c0-.67-2.18-1.28-6.54-1.85l-.62,.31-.62-.31c-1.51,0-3.58,.72-6.23,2.16-2.96,1.65-4.62,2.47-4.99,2.47l-.93-.62h-.31v.62h-.31l-.62-.31c0-2.67-3.12-4.01-9.35-4.01-.83,.41-1.25,.72-1.25,.93v6.79l.31,1.54c-.21,0-.31,.31-.31,.93v1.23l.31,.62c-.21,0-.31,.1-.31,.31v8.95l-.31,2.16c.21,0,.31,.1,.31,.31-.21,1.13-.31,2.06-.31,2.78v1.23c.31,.62,.62,.93,.93,.93h1.87l1.56-.31c2.7,.98,4.05,2.62,4.05,4.94h-.31c.21,2.62,.42,4.06,.62,4.32-.21,0-.42,.31-.62,.93,0,1.13,.21,5.35,.62,12.65l-.31,1.54c.21,0,.31,.1,.31,.31-.21,.36-.31,.77-.31,1.23v3.7c0,1.39-.35,2.69-1,3.9,.36,.89,.68,1.79,.92,2.72,.32,1.27,.54,2.55,.76,3.84,.15,.92,.11,1.71-.34,2.54-.15,.28-.36,.5-.59,.71,.39,4.62,.79,6.96,1.18,6.96l-.62,.93v6.48l.62,.93v.31h-.62c0,1.44,.31,2.16,.93,2.16l-.62,.93v6.48c.83,.93,1.25,1.44,1.25,1.54v.62h-.93v-.62h-.62c0,3.7-2.49,5.55-7.48,5.55,0-.2-.1-.31-.31-.31l-.31,.62v3.39l.62,.93v.62c0,.41-.31,.62-.93,.62v1.54c0,.41,.21,.62,.62,.62l-.31,.62v4.32l.31,.62c-.21,0-.31,.1-.31,.31v1.54c0,.41,.21,.62,.62,.62l-.31,.62v.31l.31,.62c.57,0,1.19-.2,1.87-.62,.62,0,.93,.21,.93,.62v1.23c-1.25,.21-1.87,.51-1.87,.93v.31c.36,0,.88-.2,1.56-.62,1.4,.21,2.55,.31,3.43,.31h.31v.62l-1.87-.31c-.57,0-1.4,.21-2.49,.62v-.31c-.62,.31-.93,.62-.93,.93l-1.25-.93h-.31v.31c0,1.44,.21,2.57,.62,3.39,.21,0,.31-.1,.31-.31,.47,.41,1.09,.62,1.87,.62-.21,.36-.31,.88-.31,1.54h-.62c0-.62-.21-.93-.62-.93-.62,.31-.93,.62-.93,.93v.62c0,1.03,.31,1.65,.93,1.85h4.05c2.34,0,4.21-.62,5.61-1.85v-.31c-1.87-.2-2.8-.51-2.8-.93v-.93c.21,0,.31,.1,.31,.31,.36,0,.88-.2,1.56-.62l.62,.31c1.09-.2,1.71-.31,1.87-.31,.42,0,.62,.21,.62,.62,.21,0,.52-.1,.93-.31l.62,.31,1.25-.93,1.56,.93,.93-.62-.31-.62v-.31c1.35-.41,2.29-.62,2.8-.62h.62l1.56,.31c0-.2,.1-.31,.31-.31l.62,.31c0,.21-.1,.51-.31,.93,0,.62,.21,.93,.62,.93h.93c.42,0,.62-.2,.62-.62v-.93h-.62v-.62h.62v-1.54l-.31-.62c.21,0,.31-.1,.31-.31v-.93l-.31-.62-.62,.31h-.62c-.88,0-1.71-.2-2.49-.62-.88,.41-1.51,.62-1.87,.62l-1.25-.31c0-.82,1.04-1.34,3.12-1.54,1.14,0,1.87-.51,2.18-1.54l.62,.31-.62,1.23v.31h1.25l.62-.31-.62-1.23,.31-1.85v-.62l-.31-1.54c.21,0,.31-.31,.31-.93,0-.41-.42-.62-1.25-.62v-.31c0-.36,.21-.57,.62-.62,0-.36-.21-.57-.62-.62v.62h-.62l-.93-.62h-3.43c-1.19,0-2.86,.1-4.99,.31-.42-.2-1.56-.41-3.43-.62v-.31h1.56c1.25,0,1.87-.51,1.87-1.54,.88,.26,1.51,.77,1.87,1.54,.31,0,1.77-.1,4.36-.31,.47-.62,.78-.93,.93-.93h.31v.93h3.12l.62-.31-.62-.93v-.31l.62-.93v-3.39l.31-1.54c-.21,0-.42-.31-.62-.93-.47,0-.88,.1-1.25,.31l-1.25-.31-.62,.31c-.57,0-2.13-.72-4.67-2.16-.21,.41-.31,.72-.31,.93-1.87,.82-2.8,2.26-2.8,4.32h-.31l-1.87-.31c-.47,0-.78,.51-.93,1.54h-.31c0-.93-.1-1.54-.31-1.85,.26-.93,.88-1.65,1.87-2.16l-.62-.93c.42,0,.62-.31,.62-.93h.93l-.31,.62h1.25v-.62h-.62v-.31c1.45,0,2.8-.41,4.05-1.23l-.31-1.54v-8.95h-1.25v-.31c.83,0,1.25-.62,1.25-1.85-.21-1.44-.42-2.36-.62-2.78h.31c0-.2-.1-.51-.31-.93l.31-1.85c0-.2-.1-.51-.31-.93,.21-.77,.31-1.7,.31-2.78,0-4.73,2.29-7.09,6.86-7.09h3.43c3.53,0,5.3,.31,5.3,.93,1.45,0,2.6,2.16,3.43,6.48l-.31,2.16,.31,1.85h-.31c-1.3,1.59-2.75,2.93-4.36,4.01v.31l1.25,1.54c2.13,1.13,3.48,3.39,4.05,6.79l-.31,3.7,.31,.62h-.31c0,1.49,.31,2.31,.93,2.47h3.43c.42,0,.62,.21,.62,.62-3.12,0-4.67,.31-4.67,.93v3.7c0,1.08,.1,2.83,.31,5.24h1.25l-.31,.62h-1.25v.93c2.91,2.21,4.36,3.75,4.36,4.63-.47,0-.88-.1-1.25-.31-.36,.21-.78,.31-1.25,.31h-.62v-.31c0-.36,.21-.57,.62-.62-.31-.62-.62-.93-.93-.93-.36,0-.57,.21-.62,.62v2.16c0,.31,.42,.62,1.25,.93l1.56-.31,3.74,.62c0,.31-.42,.62-1.25,.93-.47,0-.88-.1-1.25-.31l-1.87,.31h-1.87v.62c.21,0,.52,.1,.93,.31,.88,0,1.71-.2,2.49-.62,.62,0,1.45,.21,2.49,.62,0,.21-.1,.31-.31,.31,0,.41,.31,.62,.93,.62l-.31,.62h-3.74c-.36,0-.57,.21-.62,.62l-.62-.31h-.93v.62l1.25,1.23v.31h-.62v.62l.62,.93,2.18-.31h2.8l1.56,.31v-.31c0-.51-.62-.82-1.87-.93h-2.49l-1.56,.31c.26-1.03,.57-1.54,.93-1.54h1.87l2.18-.31c0,.41,1.25,.72,3.74,.93,0-.2,.1-.31,.31-.31,1.04,.15,1.56,.46,1.56,.93-.42,0-1.14,.41-2.18,1.23h-1.87v.62c.68,0,1.19-.1,1.56-.31,2.13,.21,3.79,.31,4.99,.31h1.87c.42,0,.62-.2,.62-.62v-.31l-.31-.62c-.52,0-1.35,.1-2.49,.31l-1.25-.31v-.31c1.45,0,2.18-.41,2.18-1.23l.62,.31h.93c.21-4.11,.31-7.2,.31-9.25v-.93h-.31c-.47-.77-.99-1.18-1.56-1.23-.42,.21-.73,.31-.93,.31l-1.56-.31c0,.21-.31,.41-.93,.62-.62,0-1.45-.31-2.49-.93,0-.51,1.25-.93,3.74-1.23l4.05,.62v-5.55c-.21,0-.52-.1-.93-.31,0-.41,.31-.62,.93-.62Zm-53.29-100.25h-.93v-.93l3.43-4.63,1.87,3.08v.31c-.62,0-.93,.21-.93,.62-2.29,.36-3.43,.88-3.43,1.54Zm5.3,6.48c-.78,1.03-1.3,1.54-1.56,1.54h-.31v-.93c.21,0,.52-.1,.93-.31l-.62-2.16c.42,0,.62-.31,.62-.93h.62c0,.21-.1,.51-.31,.93,0,.31,.21,.72,.62,1.23v.62Zm0-6.48c-.52,0-1.04,.21-1.56,.62v-.31l.31-.62h1.25v.31Zm-5.61,99.33v-.62h.31c.42,0,.62,.21,.62,.62h-.93Zm3.74,18.51h.62v.93c-.36,0-.57-.2-.62-.62v-.31Zm-1.87,6.17h-.62c0-.2-.1-.51-.31-.93h.31c.42,0,.62,.21,.62,.62v.31Zm1.56-2.47l-1.56-.31v-.62h1.56c.42,0,.62-.31,.62-.93h.31c.62,.15,.93,.77,.93,1.85h-1.87Zm18.7-4.63h.62v.93c0,.41-.21,.62-.62,.62v-1.54Zm0-10.49h.31v1.23h-.62c.21-.36,.31-.77,.31-1.23Zm-4.67,10.49h.31v.31l-.31,.62-.62-.31c0-.36,.21-.57,.62-.62Zm2.49-5.55h.93v.62h-.93v-.62Zm-3.74,0c.47,0,.88-.1,1.25-.31,.83,.41,1.25,.72,1.25,.93h-.93l-1.56-.31v-.31Zm4.99-8.95c0,.41-.21,.62-.62,.62h-.31c-.36,0-.57-.2-.62-.62,.21,0,.52-.1,.93-.31l.62,.31Zm-1.56-4.63h.62v1.54l-1.25-.93c0-.36,.21-.57,.62-.62Zm-1.56,4.94v.62h-.93c0-.36,.21-.57,.62-.62h.31Zm-2.18-6.17h1.56v.62l-1.56-.31v-.31Zm-4.99,3.7c.83,.51,1.25,.93,1.25,1.23v.62c-.26,0-.68-.51-1.25-1.54v-.31Zm8.41-103.03c0,.31,.21,.72,.62,1.23h-.31l-.93-.62c0-.36,.21-.57,.62-.62Zm.93,1.54v.93h-.62v-.93h.62Zm-1.87,12.03c0-.36,.21-.57,.62-.62h.62c.68,.62,1.19,.93,1.56,.93-.21,.41-.31,.72-.31,.93h-.62l-.93-.62-.62,.31c0,.36,.21,.88,.62,1.54v.31h-.62l-.31-1.54v-1.23Zm.31,4.32v-.93h.31c.62,.31,.93,.62,.93,.93v.31l-1.25-.31Zm1.25,3.7v.31c0,.41-.21,.62-.62,.62v-.93h.62Zm-3.43-10.8c.62,.31,.93,.62,.93,.93,0,.41-.21,.62-.62,.62h-.62c0-.51-.21-1.03-.62-1.54h.93Zm-2.49-10.49h.62c0,.62,.31,.93,.93,.93v.31c-.52,0-1.04,.21-1.56,.62h-.31c.21-.31,.31-.93,.31-1.85Zm.31,37.94l-.31,.62-.62-.31,.31-.62,.62,.31Zm-1.25-35.78h.62v.93h-.62v-.93Zm-5.61,0c1.61-.62,2.65-.93,3.12-.93,1.25,0,1.87,.82,1.87,2.47v.62h-.62c-1.3-1.18-2.03-1.8-2.18-1.85l-2.18,.31v-.62Zm1.56,6.48v.62h-.62c-.36,0-.57-.2-.62-.62h1.25Zm-1.87,60.77v-.31h.62l1.25,.31v.31h-.31l-1.56-.31Zm1.25-2.78h.93v.62h-.31c-.36,0-.57-.2-.62-.62Zm-1.87,31.16l1.56,.31v.62h-1.56v-.93Zm0,3.08h1.25c0,.41-.21,.62-.62,.62h-.62v-.62Zm-4.67-.62h.93v.31c-.21,0-.52,.1-.93,.31v-.62Zm.31,2.78l.31-1.54h.62c0,.21,.1,.51,.31,.93l1.56-.31h.31c.52,0,1.56,.72,3.12,2.16-.31,.62-.62,.93-.93,.93l.31,.62c-.47,0-.88,.1-1.25,.31l-.62-.62c-2.49-.57-3.74-1.39-3.74-2.47Zm1.25,3.7v.62c0,.41-.21,.62-.62,.62h-.31v-.31c.31-.62,.62-.93,.93-.93Zm-.93,3.08c1.25-1.65,2.29-2.47,3.12-2.47l.62,.31c.36-.2,.78-.31,1.25-.31h1.25c-.21,.41-.31,.72-.31,.93-1.87,.77-2.8,1.39-2.8,1.85h-.31c0-.2-.1-.51-.31-.93-1.25,.57-1.87,.98-1.87,1.23-.36,0-.57-.2-.62-.62Zm6.54,4.63v.93h-.31c0-.36-.21-.87-.62-1.54l.62-.31c0,.21,.1,.51,.31,.93Zm-2.49-2.47l-.31,.62c-.42-.2-.73-.31-.93-.31v-.31h1.25Zm-2.18,1.85l.62,1.54h-1.87c.26-.98,.68-1.49,1.25-1.54Zm-.31,2.78v-.31c.21,0,.52-.1,.93-.31,.42,.21,.73,.31,.93,.31v.62l-1.87-.31Zm2.8,4.94h-.93v-.62c.21,0,.52-.1,.93-.31h.31c-.21,.41-.31,.72-.31,.93Zm7.17-1.23h.31v.93c-.47,0-.88,.1-1.25,.31v-.31c.31-.62,.62-.93,.93-.93Zm-.62-6.48v.31h-1.56l-.62-.31c0-.36,.21-.57,.62-.62h.31c.52,.41,.93,.62,1.25,.62Zm-2.49-4.63h.31c0,.31,.21,.72,.62,1.23v.62l-.31,.62c-.36,0-.88-.2-1.56-.62,.62-.67,.93-1.28,.93-1.85Zm.31,7.71l2.18-.31c0,.26-1.35,.98-4.05,2.16h-.93c0-.2,.1-.51,.31-.93v-.31h-.93c-.42,0-.62,.31-.62,.93h-.62v-2.16c-.31-.62-.62-.93-.93-.93,.62-.67,.93-1.18,.93-1.54l.62,.31-.31,.62c.99,1.44,1.61,2.16,1.87,2.16h2.49Zm-3.12-29v-1.54h.93v.62c-.31,.62-.62,.93-.93,.93Zm2.18,9.87h-1.25v-.62h1.25v.62Zm0-9.87c-.21,0-.52,.1-.93,.31v-.62h.93v.31Zm-3.12-55.22v-1.23h.93c1.04,0,1.66-.31,1.87-.93l.62,.31c0,.62-1.14,1.23-3.43,1.85Zm3.74-6.79v-.93l.62,.31c0,.41-.21,.62-.62,.62Zm-.62-12.65c.21,0,.52-.1,.93-.31,0,.21,.21,.31,.62,.31v.93c-1.04-.15-1.56-.46-1.56-.93Zm1.56,17.27v-.31c0-.41,.62-.72,1.87-.93h.31v.31c0,.41-.73,.72-2.18,.93Zm1.56,40.1h.93c0,.41-.21,.62-.62,.62h-.31v-.62Zm1.56,23.75v.31c0,.41-.21,.62-.62,.62-.36,0-.57-.2-.62-.62,.21,0,.52-.1,.93-.31h.31Zm3.12-27.15h-1.56v-.62h1.56v.62Zm16.83-17.89c0,3.65-2.49,6.02-7.48,7.09l-.62-.31c-.83,0-1.66,.1-2.49,.31-.16,0-.78-.1-1.87-.31-1.45,.21-2.29,.31-2.49,.31-3.12,0-4.67-1.44-4.67-4.32v-8.95c-.62,0-.93-.2-.93-.62v-.31l.62,.31h.31l-.31-1.54v-6.48c0-1.75,.31-4.32,.93-7.71-.21,0-.31-.1-.31-.31,.21,0,.52-.1,.93-.31,0-1.03,1.66-1.95,4.99-2.78,0-.2-.1-.31-.31-.31v-.62h.31c0,.62,.73,.93,2.18,.93,1.09-.2,1.71-.31,1.87-.31l1.25,.31,.62-.31,3.43,.93c2.03,1.49,3.27,3.34,3.74,5.55,0,.21-.1,.51-.31,.93,.21,1.39,.31,2.52,.31,3.39-.68,1.8-2.13,3.65-4.36,5.55v.62c3.12,1.34,4.67,3.81,4.67,7.4v1.85Zm9.35,56.14h.31v.62h-.93c0-.36,.21-.57,.62-.62Zm1.25,5.24v.93h-.31c-.36,0-.57-.2-.62-.62v-.31h.93Zm-2.18-15.42l.62,.31c0,.41-.21,.62-.62,.62v-.93Zm-4.36-25.29c2.7,0,4.05,.31,4.05,.93l-1.56,.31c-.36,0-.57-.2-.62-.62l-.62,.31h-.62c-.36,0-.57-.2-.62-.62v-.31Zm2.8,11.1v.31c-.16,.62-.78,.93-1.87,.93v-.62c.31,0,.73-.2,1.25-.62h.62Zm-5.92-11.72h.93l1.56,.31v.62c-1.14-.2-1.97-.31-2.49-.31v-.62Zm.31,20.36h-.31v-.62h.93c0,.41-.21,.62-.62,.62Zm1.87-6.17h.31c.42,0,.62,.31,.62,.93h1.87c0,.82,.42,1.23,1.25,1.23v.62l-4.05-1.85v-.93Zm3.74,16.97v.31h-1.25v-1.23h.31c0,.62,.31,.93,.93,.93Zm-2.18-5.55h-.31l-.62-.31c.21-.41,.31-.72,.31-.93,.42,0,.62,.21,.62,.62v.62Zm-.62-4.01c0-.36,.21-.57,.62-.62h.31v.62h-.93Zm.31,14.5h-.93c0-1.03,.31-1.65,.93-1.85h.31l.62,.31c-.62,.67-.93,1.18-.93,1.54Zm2.18,8.95c0-.2-.31-.31-.93-.31,0-.36,.21-.57,.62-.62l-.31-1.54h1.25l-.31,.62v.62h.93v-.62h1.25c.52,.41,.93,.62,1.25,.62v.62l-.31,.62-.62-.31h-1.25l-1.56,.31Zm9.97,5.24h-.31v-.62h-4.05v.62h.93v.31c-.21,0-.52,.1-.93,.31-2.13-1.23-3.48-1.85-4.05-1.85v-.31h.31c.62,0,1.35,.1,2.18,.31l1.25-.31c2.86,.41,4.42,.72,4.67,.93v.62Zm.31-7.09h.62l-.31,1.23h-.31v-1.23Zm-1.56,4.32c.21,0,.52-.1,.93-.31h.62v.31c-.42,0-.93,.41-1.56,1.23v-1.23Zm-1.56-1.54c0,.31,.42,.72,1.25,1.23,0,.36-.62,.77-1.87,1.23l-.62-.31v.31c-.78-.82-1.61-1.23-2.49-1.23v-.31h.31c.83,0,1.25-.31,1.25-.93h2.18Zm-2.49-.62c0-.77-.21-1.39-.62-1.85,.21,0,.52-.1,.93-.31,.21,.82,.52,1.54,.93,2.16h-1.25Zm.93-3.39v.62h-1.25v-.31c.47,0,.88-.1,1.25-.31Z" fill="#fff"/><path d="M356.43,144.96h-7.17c-.52,0-1.45-.2-2.8-.62-.83,.31-1.25,.62-1.25,.93v.31c.47,0,1.92,.31,4.36,.93,.36-.2,.78-.31,1.25-.31h2.49l.62-.31c0,.21,.1,.31,.31,.31h3.43c.42,0,.62-.2,.62-.62v-.31l-.31-.62-1.56,.31Z" fill="#fff"/><path d="M304.69,134.16c.05,.41,.26,.62,.62,.62v-.62h-.62Z" fill="#fff"/><rect x="306.25" y="129.23" width=".31" height=".62" fill="#fff"/><path d="M308.12,23.11v.62h.62c0-.41-.21-.62-.62-.62Z" fill="#fff"/><rect x="308.74" y="120.59" width=".62" height=".62" fill="#fff"/><path d="M309.37,125.22v.62c.05,.41,.26,.62,.62,.62v-.62c0-.41-.21-.62-.62-.62Z" fill="#fff"/><rect x="311.55" y="89.74" width=".31" height=".62" fill="#fff"/><path d="M312.17,101.16c.05,.41,.26,.62,.62,.62h.31c0-.41-.21-.62-.62-.62h-.31Z" fill="#fff"/><rect x="313.42" y="45.32" width=".62" height=".62" fill="#fff"/><path d="M313.73,111.95l-.31,1.23h.31c.31,0,.62-.31,.93-.93v-.31h-.93Z" fill="#fff"/><rect x="313.73" y="115.34" width=".62" height=".62" fill="#fff"/><path d="M314.04,89.74h.62v-.62c-.42,.05-.62,.26-.62,.62Z" fill="#fff"/><path d="M314.35,27.74h.62v-.62c-.42,.05-.62,.26-.62,.62Z" fill="#fff"/><rect x="316.22" y="51.49" width=".62" height=".31" fill="#fff"/><rect x="317.47" y="106.71" width=".62" height=".62" fill="#fff"/><rect x="318.09" y="120.59" width=".31" height=".93" fill="#fff"/><path d="M319.96,140.33h.62v-.62c-.42,.05-.62,.26-.62,.62Z" fill="#fff"/><rect x="320.59" y="136.63" width=".62" height=".31" fill="#fff"/><rect x="322.46" y="123.67" width=".62" height=".31" fill="#fff"/><rect x="323.39" y="124.29" width=".62" height=".31" fill="#fff"/><path d="M325.57,120.59v.62h.62c0-.41-.21-.62-.62-.62Z" fill="#fff"/><rect x="336.17" y="37.3" width=".62" height=".31" fill="#fff"/><path d="M336.79,34.22h.31c.42,0,.62-.2,.62-.62h-.31c-.42,.05-.62,.26-.62,.62Z" fill="#fff"/><path d="M337.41,37.92c.05,.41,.26,.62,.62,.62v-.62h-.62Z" fill="#fff"/><path d="M339.91,74.94h.62v-.62c-.42,.05-.62,.26-.62,.62Z" fill="#fff"/><rect x="340.53" y="42.24" width=".62" height=".31" fill="#fff"/><rect x="340.84" y="123.06" width=".93" height=".31" fill="#fff"/><path d="M341.15,112.57h.62v-.62c-.42,.05-.62,.26-.62,.62Z" fill="#fff"/><rect x="341.15" y="124.29" width=".31" height=".93" fill="#fff"/><rect x="341.47" y="34.22" width=".62" height=".62" fill="#fff"/><rect x="341.78" y="77.1" width=".62" height=".62" fill="#fff"/><path d="M341.78,93.44c.05,.41,.26,.62,.62,.62h.31c0-.41-.21-.62-.62-.62h-.31Z" fill="#fff"/><rect x="342.09" y="137.86" width=".62" height=".62" fill="#fff"/><rect x="343.34" y="127.07" width=".62" height=".31" fill="#fff"/><rect x="344.58" y="61.67" width=".93" height=".31" fill="#fff"/><rect x="344.89" y="63.21" width=".62" height=".62" fill="#fff"/><path d="M344.89,113.8v.62h.62c0-.41-.21-.62-.62-.62Z" fill="#fff"/><rect x="345.83" y="112.57" width=".62" height=".62" fill="#fff"/><path d="M346.14,129.23c0,.41,.31,.62,.93,.62h.31v-.31l-1.25-.31Z" fill="#fff"/><rect x="346.45" y="116.27" width=".62" height=".31" fill="#fff"/><path d="M347.39,109.48c.05,.41,.26,.62,.62,.62v-.62h-.62Z" fill="#fff"/><rect x="352.37" y="125.52" width=".62" height=".31" fill="#fff"/><rect x="354.56" y="124.91" width=".93" height=".31" fill="#fff"/><path d="M355.49,133.54c0,.31-.21,.72-.62,1.23v.31c.31,0,.62-.41,.93-1.23v-.31h-.31Z" fill="#fff"/><rect x="356.11" y="134.78" width=".31" height=".62" fill="#fff"/></g><g><polygon points="80.91 81.15 82.09 78.79 78.47 77.39 77.3 79.81 80.91 81.15" fill="#fff"/><path d="M99.93,75.94l.14,.14c0-.26,.1-.51,.06-.78l-.2,.63Z" fill="#fff"/><path d="M65.36,79.27l-.04-2.47-2.39-.7,.03,1.83c.01,.81,.81,1.27,2.4,1.34Z" fill="#fff"/><path d="M343.77,90.63l-3.61-1.4,.2-.58c-1.57,.68-2.33,2.69-2.48,6.55,1.71-1.83,3.69-3.37,5.89-4.56Z" fill="#fff"/><polygon points="323.53 92.13 319.88 88.31 317.54 90.67 321.14 94.43 323.53 92.13" fill="#fff"/><polygon points="128.72 83.31 127.44 79.61 123.94 81.92 126.4 86.86 128.72 83.31" fill="#fff"/><path d="M98.83,79.55l1.16,.05,1.17-2.36-1.1-1.15c0,.51,.03,1.03-.12,1.52-.22,.73-.61,1.4-1.12,1.94Z" fill="#fff"/><polygon points="188.15 80.15 188.13 78.91 186.99 80.1 188.15 80.15" fill="#fff"/><path d="M299.66,94.7l1.24,1.29,1.12-2.42-1.18-1.23c-.03,.46-.15,.91-.35,1.31-.2,.41-.48,.76-.83,1.05Z" fill="#fff"/><polygon points="322.78 120.01 324 120.07 326.26 112.92 325 110.39 320.27 111.41 320.37 117.49 322.78 120.01" fill="#fff"/><polygon points="275.81 94.85 276.95 93.67 274.55 92.33 273.41 93.51 275.81 94.85" fill="#fff"/><polygon points="277.11 103.4 279.58 105.92 281.92 103.61 277.11 103.4" fill="#fff"/><path d="M21.35,111l1.55-1.7c.03-.47-.04-.94-.2-1.4-.16-.45-.41-.87-.74-1.22-.95-.98-2.2-1.6-3.51-1.72l-.48,5.88,3.38,.15Z" fill="#fff"/><polygon points="167.95 109.41 170.3 104.63 165.41 99.58 163.12 104.31 167.95 109.41" fill="#fff"/><path d="M270,104.31l1.16,.05,.2-.64c-.01-.86-.44-1.25-1.38-.65l.02,1.24Z" fill="#fff"/><polygon points="9.36 107.34 12.68 107.49 11.74 104.92 9.14 104 9.36 107.34" fill="#fff"/><path d="M284.21,98.83c.37-.26,.66-.62,.86-1.03,.2-.41,.3-.87,.29-1.34,0-.47-.12-.94-.34-1.37-.22-.43-.52-.81-.9-1.1l-1.12,2.36,1.2,2.47Z" fill="#fff"/><path d="M247.18,113.12c-.46,.13-.87,.38-1.21,.71-.34,.33-.59,.75-.73,1.21-.14,.46-.18,.96-.1,1.45,.3,.37,.67,.68,1.08,.91,.41,.23,.86,.38,1.32,.43,.49,.09,.99,.07,1.45-.07s.89-.38,1.23-.72c.34-.34,.6-.76,.75-1.23s.18-.97,.1-1.47l.2-.64c-.01-.81-.81-1.22-2.65-.66-.48-.09-.97-.07-1.43,.06Z" fill="#fff"/><path d="M42.65,68.63l.05-.16c.9,.57,1.71,1.28,2.41,2.1l1.12-2.37-3.65-3.82-2.34,2.31c.71,.76,1.52,1.41,2.41,1.93Z" fill="#fff"/><path d="M292.02,29.49l1.24,1.29,.21-.15c.26-.01,.5-.13,.67-.32,.17-.19,.27-.45,.26-.71l-2.38-.11Z" fill="#fff"/><polygon points="269.11 16.32 267.85 13.85 265.47 13.74 265.55 18.58 269.11 16.32" fill="#fff"/><polygon points="315.98 35.46 317.13 31.86 314.74 30.52 313.56 32.88 315.98 35.46" fill="#fff"/><polygon points="71.68 28.01 70.46 27.95 68.11 29.08 70.48 29.19 71.68 28.01" fill="#fff"/><polygon points="237.01 25.82 235.91 29.37 238.29 29.48 241.82 26.04 237.01 25.82" fill="#fff"/><path d="M298.2,21.13c-.2,.41-.32,.86-.33,1.32l1.24,1.29-.06-3.65c-.35,.28-.64,.63-.84,1.04Z" fill="#fff"/><path d="M66.55,8.34l.08,4.89,3.59,.16,.21-.15c-.01-1.11-.41-2.21-1.11-3.11s-1.69-1.53-2.77-1.79Z" fill="#fff"/><path d="M80.82,38.14l.21-.15c.87-.66,1.56-1.53,2.03-2.53,.47-1,.7-2.11,.67-3.25,.02-.66-.19-1.32-.61-1.85-.23-.25-.41-.55-.52-.87-.11-.32-.16-.66-.14-.99-1.36,.51-2.55,1.37-3.46,2.5-.91,1.13-1.49,2.5-1.71,3.98-.33,2.66-.89,5.28-1.66,7.82,1.62-1.67,3.36-3.22,5.2-4.65Z" fill="#fff"/><path d="M278.95,21.44l-.14-8.49c-.25,2.56-1.02,5.01-2.25,7.2l2.4,1.29Z" fill="#fff"/><polygon points="332.65 19.19 330.31 21.51 333.97 25.32 335.09 22.96 332.65 19.19" fill="#fff"/><path d="M289.27,13.26c.11-.11,.2-.25,.25-.41,.05-.15,.07-.32,.05-.49l-1.23-1.24,.04,2.42c.16,.02,.33,.01,.48-.04,.15-.05,.29-.13,.41-.25Z" fill="#fff"/><path d="M51.01,65.36c.05,.16,.14,.3,.26,.43,.12,.12,.26,.21,.41,.27,.15,.06,.32,.07,.48,.05l-.04-2.42-1.14,1.18c-.02,.16-.01,.33,.04,.49Z" fill="#fff"/><path d="M206.04,66.69c.22-.22,.35-.53,.34-.86-.16,0-.33-.02-.48-.08s-.3-.16-.42-.28c-.12-.12-.21-.27-.27-.43s-.08-.33-.07-.5l-1.19,1.18c0,.33,.14,.65,.37,.89,.23,.24,.54,.39,.87,.4,.32,.01,.63-.1,.85-.32Z" fill="#fff"/><polygon points="99.04 60.23 97.56 57.26 97.6 59.68 99.04 60.23" fill="#fff"/><polygon points="101.21 61.08 99.04 60.23 100.02 62.2 101.21 61.08" fill="#fff"/><polygon points="174.07 71.62 177.67 71.78 176.37 66.89 173.97 65.55 170.42 67.81 174.07 71.62" fill="#fff"/><path d="M108.88,33.34l-2.38-.11-1.19,1.18c.37,2.32,1.46,4.5,3.11,6.21,1.69,2.2,3.48,4.3,5.38,6.31l-4.93-13.59Z" fill="#fff"/><polygon points="250.5 71.43 249.27 70.19 246.97 74.92 250.5 71.43" fill="#fff"/><path d="M190.78,69.96c.16,.03,.33,.01,.48-.04,.15-.05,.29-.14,.4-.25s.19-.25,.24-.41c.05-.16,.05-.32,.03-.49l.05-.27c-.02-.14-.07-.28-.14-.41-.07-.13-.17-.24-.29-.33-.11-.09-.24-.16-.38-.2s-.28-.05-.42-.03l.04,2.42Z" fill="#fff"/><path d="M281.02,160c.79,.04,1.2-.75,1.18-2.36,.09-2.49-.37-5-1.34-7.36l-2.29,4.78,.06,3.6,2.4,1.34Z" fill="#fff"/><path d="M344.85,153.66c.01,.81,.39,1.25,1.18,1.29l.79,.04c-.13-.53-.38-1.04-.73-1.47s-.78-.79-1.27-1.04l.02,1.18Z" fill="#fff"/><path d="M309.98,157.13c.01-.17,0-.33-.07-.49-.06-.16-.15-.31-.27-.43-.12-.12-.26-.22-.42-.28-.16-.06-.32-.09-.49-.08l.02,1.24,1.21,.05Z" fill="#fff"/><path d="M272.73,159.41l1.14-1.18-.02-1.24c-.79-.04-1.16,.38-1.14,1.18l.02,1.24Z" fill="#fff"/><polygon points="330.26 131.3 329.04 131.25 330.28 132.54 330.26 131.3" fill="#fff"/><polygon points="289.71 142.95 287.28 142.84 288.51 144.07 289.71 142.95" fill="#fff"/><path d="M40.4,136.18l-6.74,.72,5.37,5.18,1.69,.08c-.58-.9-.9-1.94-.92-2.99-.02-1.05,.27-2.06,.82-2.92l.79,.04v-.75c.52-.41,1.12-.73,1.77-.94l-.06-3.44-3.6-3.49,1.5,7.69c-.24,.25-.45,.53-.62,.83Z" fill="#fff"/><path d="M0,131.72l2.52-.85-.03-1.72-1.65-.07c-.39,.55-.74,1.16-.5,1.37,.32,.28,.22,.71-.35,1.27Z" fill="#fff"/><path d="M53.87,143.23l-.67,.72,3.22,.15-2.55-.87Z" fill="#fff"/><path d="M.8,129.07h.05c.13-.18,.24-.38,.37-.52l-.41,.52Z" fill="#fff"/><path d="M194.7,145.97l-2.41-4.13-2.32,3.92,1.66,4.92c.94-.35,1.73-.99,2.28-1.82,.55-.84,.82-1.84,.79-2.88Z" fill="#fff"/><path d="M53.2,143.95c-.93-.01-1.86-.26-2.7-.71l-3.3,1.68,2.68,2.59,3.32-3.55Z" fill="#fff"/><path d="M165.82,136.75c.91,.49,1.73,1.15,2.41,1.93l-1.3-8.6-3.53,3.49c.51,1.26,1.35,2.36,2.43,3.17Z" fill="#fff"/><path d="M182.73,134.46c0-.54-.7-1.05-1.71-1.1l.49,1.04,1.22,.05Z" fill="#fff"/><polygon points="156.49 136.92 152.95 140.41 154.19 141.65 157.74 139.39 156.49 136.92" fill="#fff"/><path d="M180.31,131.93c-.85-.04-1.21,.32-1.2,1.13,.01,.81-1.19,1.18-3.57,1.07l-1.08,4.84,4.75,.21-.1-5.91c.63-.02,1.27,.01,1.9,.09l-.71-1.43Z" fill="#fff"/><path d="M79.35,135.9c-3.7-3.34-8.19-3.38-13.82,.77l15.29,1.82-1.77-1.69,.3-.9Z" fill="#fff"/><polygon points="243.06 140.84 244.3 142.07 244.28 140.89 243.06 140.84" fill="#fff"/><path d="M357.26,104.61c.01-.17,0-.33-.07-.49-.06-.16-.15-.31-.27-.43s-.26-.22-.42-.28-.32-.09-.48-.08l.02,1.24,1.21,.05Z" fill="#fff"/><path d="M256.73,99.2c-.4,.19-.76,.47-1.05,.81l2.4,1.29,2.41-1.07,.09-.64c-.75-.54-1.66-.79-2.55-.7-.46,.02-.9,.12-1.3,.32Z" fill="#fff"/><polygon points="26.68 101.89 28.37 101.92 27.46 101.02 26.68 101.89" fill="#fff"/><polygon points="28.68 139.46 27 139.39 26.14 138.54 24.39 138.46 19.99 134.13 22.76 138.44 24.39 138.52 25.31 139.42 27 139.49 32.36 144.68 28.68 139.46" fill="#fff"/><polygon points="46.43 124.37 45.52 123.52 44.74 124.29 46.43 124.37" fill="#fff"/><polygon points="180.12 1.18 181.28 1.23 180.1 0 180.12 1.18" fill="#fff"/><path d="M19.66,12.53c-.29,.63-.42,1.33-.36,2.04,.03,.46,.16,.92,.36,1.35,.21,.42,.49,.81,.84,1.13l2.34-2.31-1.07-4.29c.78-.61,1.62-1.16,2.19-1.73l-2.36,1.07v.65c-.21,.17-.42,.36-.61,.56-.57,.38-1.03,.9-1.32,1.53Z" fill="#fff"/><path d="M23.46,44.04c.22,.43,.52,.81,.9,1.1l1.2-1.13-1.28-3.71c-.37,.26-.66,.62-.86,1.02-.2,.41-.3,.87-.29,1.34,0,.47,.12,.94,.34,1.37Z" fill="#fff"/><polygon points="251.08 159.41 252.23 158.28 252.2 157.04 251.04 156.99 251.08 159.41" fill="#fff"/><polygon points="297.55 153.28 296.36 154.41 298.83 156.99 301.18 155.86 297.55 153.28" fill="#fff"/><path d="M235.64,155.43c.01,.79,.62,1.21,1.78,1.27,.08,.01,.16,0,.24-.02,.08-.02,.14-.07,.2-.12s.1-.12,.12-.2c.03-.08,.03-.16,.03-.24,0-.4,.17-.39,.57,.03l-.05-2.98-.05-.13c.07-.78-.13-1.58-.56-2.27l-2.32,2.27,.04,2.4Z" fill="#fff"/><path d="M309.9,9.79c-.79-.04-1.17-.48-1.18-1.29l.02,1.24,1.16,.05Z" fill="#fff"/><path d="M347.05,18.72c.62-1.43,.97-2.98,1.03-4.57-.63,.13-1.1,.43-1.09,.92l.06,3.65Z" fill="#fff"/><path d="M348.08,14.15v-.31s-.08-.01-.11-.01l.11,.33Z" fill="#fff"/><path d="M340.77,11.09c.31-.1,.59-.26,.82-.49,.23-.23,.39-.52,.49-.83,.09-.32,.11-.65,.05-.99l-.02-1.18-3.59-.16,1.28,3.71c.33,.06,.66,.04,.97-.05Z" fill="#fff"/><path d="M349.26,11.57l-1.2,1.13,.02,1.14c.41,0,.82,.04,1.22,.15l-.04-2.42Z" fill="#fff"/><polygon points="146.91 129.35 148.04 124.57 146.77 120.86 144.45 124.4 146.91 129.35" fill="#fff"/><path d="M18.41,92.58c.06-1.64-.22-3.29-.83-4.85l-7.83-4.38c2.96,4.36,5.46,9.01,7.46,13.87,.73-1.42,1.13-3,1.2-4.64Z" fill="#fff"/><path d="M319.47,129.9l-.14-8.54c-1,1.39-1.59,3.05-1.71,4.81l.13,1.51c-.38,2.4,.27,3.66,1.73,2.23Z" fill="#fff"/><path d="M33.09,109.27l.03,1.72,.13,1.35c1.09,.54,2.31,.67,3.44,.37l-1.82-1.75-1.77-1.69Z" fill="#fff"/><path d="M247.07,90.71c-.41-.23-.86-.38-1.32-.44l-1.12,2.37,2.4,1.34,1.12-2.37c-.3-.37-.67-.68-1.08-.91Z" fill="#fff"/><path d="M104.57,150.31c-.32-.37-1.5,.07-3.46,1.4-1.22,.75-2.37,1.6-3.44,2.54l4.38,1.19,3.15-3.4-.62-1.73Z" fill="#fff"/><path d="M58.26,153.34l4.35,1.21-.42-.39,.38-.4,1-2.77,1.24,1.19,1.2,.43,1.1-1.19c-.08-.98,.14-1.95,.63-2.77,.48-.82,.7-1.78,.63-2.77-.5,.55-1.29,1.5-2.38,2.93l.06,.7c-.82,.91-1.98,1.45-3.23,1.49l-2.75-.42-1.8,2.76Z" fill="#fff"/><polygon points="236.27 88.18 232.73 91.67 237.56 93.12 239.88 89.58 236.27 88.18" fill="#fff"/><path d="M30.1,25.45c-1.77-1.41-3.93-2.18-6.11-2.17l9.68,7.74c-.54-2.19-1.8-4.16-3.57-5.57Z" fill="#fff"/><path d="M38.62,58.98c.12-.08,.22-.19,.29-.31,.07-.12,.12-.26,.14-.41l-1.16-.05,.02,.91c.11,.02,.22,.03,.33,.02,.14-.02,.28-.08,.39-.16Z" fill="#fff"/><path d="M37.9,59.39v-.27s-.07,0-.11,0l.11,.27Z" fill="#fff"/><path d="M75.96,59.83l-5.99-1.51c.74,.03,2.4,1.35,4.82,3.87l1.17-2.36Z" fill="#fff"/><path d="M60.25,48.16l.06-.13s0-.02-.01-.03l-.05,.16Z" fill="#fff"/></g></svg>