<?xml version="1.0" encoding="UTF-8"?><svg id="Capa_1" xmlns="http://www.w3.org/2000/svg" viewBox="0 0 479.06 479.06"><g><path d="M394.86,421.97c42.62-37.31,69.25-83.42,80.3-139.09h-52.58v-86.77h52.1c.02-11.42-13.27-49.64-24.94-71.2-14.02-25.92-32.32-48.41-54.95-67.7-8.84,15.27-17.59,30.36-26.4,45.57-25.18-14.55-50.09-28.95-75.09-43.39,8.87-15.32,17.55-30.31,26.42-45.63-53.64-18.43-106.88-18.27-160.45,0,8.9,15.43,17.57,30.44,26.34,45.64-25.13,14.52-50.03,28.91-75.08,43.38-8.88-15.32-17.6-30.38-26.42-45.61-22.3,19.1-40.37,41.33-54.42,66.82-12.42,22.54-21.02,46.45-25.8,72.13,1.15,0,2.03,0,2.91,0,15.7,0,31.39,.04,47.09-.05,2.12-.01,2.65,.56,2.65,2.67-.07,27.16-.05,54.31-.05,81.47v2.69H3.85c10.98,55.66,37.49,101.85,80.24,139.03,8.94-15.43,17.66-30.48,26.46-45.66,25.15,14.54,50.06,28.93,75.08,43.39-8.86,15.32-17.54,30.32-26.4,45.65,53.67,18.42,106.9,18.25,160.43-.02-8.91-15.43-17.57-30.44-26.34-45.63,25.13-14.52,50.04-28.91,75.09-43.38,8.84,15.27,17.53,30.28,26.46,45.7Z" fill="#fff"/><path d="M57.09,394.9c15.42-8.93,30.42-17.62,45.7-26.46-14.47-25.05-28.86-49.96-43.38-75.09-15.18,8.77-30.19,17.43-45.63,26.34-18.27-53.53-18.44-106.77-.02-160.43,15.33,8.87,30.33,17.54,45.65,26.4,14.46-25.02,28.85-49.92,43.39-75.08-15.18-8.8-30.23-17.52-45.66-26.46C94.31,41.38,140.49,14.87,196.15,3.89V56.52h2.69c27.16,0,54.31-.03,81.47,.05,2.11,0,2.68-.53,2.67-2.65-.09-15.7-.05-31.39-.05-47.09,0-.88,0-1.75,0-2.91,25.68,4.78,49.58,13.38,72.13,25.8,25.5,14.05,47.72,32.12,66.82,54.42-15.23,8.82-30.29,17.55-45.61,26.42,14.47,25.05,28.86,49.96,43.38,75.08,15.2-8.77,30.21-17.43,45.64-26.34,18.27,53.57,18.44,106.81,0,160.45-15.32-8.87-30.31-17.55-45.63-26.42-14.44,24.99-28.84,49.9-43.39,75.09,15.21,8.81,30.31,17.56,45.57,26.4-19.28,22.63-41.78,40.93-67.7,54.95-21.56,11.66-59.78,24.96-71.2,24.94v-52.1h-86.77v52.58c-55.67-11.06-101.78-37.68-139.09-80.3Zm162.52,3.19c2.31,.21,4.5,.43,6.7,.62,10.54,.9,21.06,.65,31.56-.56,1.3-.15,1.8-.62,1.78-1.95-.07-3.47-.01-6.94-.04-10.4,0-.44-.19-.89-.32-1.47-13.27,1.83-26.44,1.75-39.67,.17v13.59Zm165.19-138.48c3.77,0,7.5-.06,11.23,.03,1.58,.04,2.13-.48,2.3-2.08,1.18-11.28,1.26-22.56,.1-33.84-.44-4.27-.5-4.26-4.88-4.26-2.36,0-4.71-.01-7.07,0-.66,0-1.32,.1-1.81,.14,.36,6.79,.97,13.35,.99,19.91,.02,6.56-.54,13.13-.86,20.08ZM219.48,94.78c13.52-1.94,26.7-1.8,40.14-.22,0-4.11-.07-7.91,.03-11.71,.04-1.56-.56-2.04-2.03-2.12-4.43-.23-8.86-.88-13.28-.81-7.69,.11-15.37,.63-23.05,1-.91,.04-1.83,.09-1.82,1.43,.03,4.01,.01,8.03,.01,12.43Zm-124.73,164.79c-1.87-13.43-1.81-26.61-.19-39.95h-13.74c-.3,4.71-.89,9.34-.83,13.96,.1,8.1,.58,16.19,.98,24.28,.03,.59,.68,1.62,1.06,1.64,4.14,.12,8.28,.07,12.72,.07Zm234.56,95.43c-10.88,8.23-22.31,14.8-34.8,19.91,1.97,3.45,3.87,6.59,5.56,9.84,.85,1.64,1.7,2.02,3.37,1.13,6.72-3.58,13.6-6.91,20.22-10.67,4.31-2.45,8.28-5.51,12.54-8.39-2.36-4.05-4.55-7.79-6.89-11.82ZM184.56,104.1c-2.03-3.54-4-6.79-5.78-10.14-.79-1.48-1.59-1.58-2.95-.87-6.03,3.12-12.21,5.97-18.09,9.33-5.09,2.91-9.86,6.38-14.93,9.71,2.43,4.14,4.64,7.93,6.94,11.86,10.85-8.17,22.28-14.77,34.81-19.89Zm-80.44,190.37c-3.83,2.21-7.44,4.24-10.99,6.39-.32,.2-.43,1.24-.23,1.72,1.1,2.62,2.25,5.22,3.51,7.77,4.21,8.54,9.13,16.66,14.87,24.26,.39,.52,1.48,1.15,1.83,.96,3.64-1.97,7.19-4.1,10.92-6.27-8.22-10.83-14.77-22.28-19.92-34.82Zm80.13,80.87c-6.13-3.13-12.11-5.89-17.78-9.17-5.73-3.31-11.16-7.14-16.9-10.86-2.16,3.75-4.35,7.55-6.62,11.5,10.77,8.26,22.29,14.74,34.66,20.09,2.29-3.97,4.45-7.74,6.65-11.56Zm190.67-190.81c3.53-2.02,6.73-3.94,10.02-5.7,1.47-.79,1.81-1.59,1.02-3.08-3.67-6.91-7.11-13.95-10.97-20.76-2.38-4.19-5.37-8.04-8.18-12.17-4.08,2.39-7.86,4.6-11.78,6.89,8.2,10.86,14.76,22.23,19.89,34.82Zm-38.71-72.48c-3.88-2.64-7.4-5.39-11.24-7.57-7.18-4.06-14.55-7.8-21.87-11.62-.54-.28-1.78-.34-1.96-.05-2.2,3.59-4.27,7.26-6.5,11.14,12.56,5.2,24.02,11.73,34.67,20.03,2.33-4.04,4.51-7.81,6.89-11.94ZM103.99,184.39c5.23-12.61,11.76-24.06,20.04-34.68-4.11-2.36-7.88-4.53-11.8-6.79-8.26,10.75-14.75,22.28-20.09,34.66,3.99,2.29,7.76,4.46,11.85,6.8Zm271.06,110.22c-5.21,12.64-11.76,24.06-20.03,34.7,4.11,2.36,7.92,4.55,11.86,6.82,1.75-2.46,3.4-4.68,4.96-6.97,5.58-8.22,10.32-16.91,14.29-26.02,.26-.6,.28-1.88-.05-2.09-3.52-2.18-7.13-4.2-11.03-6.44Z" fill="#2c4f3a"/><path d="M219.61,398.09v-13.59c13.24,1.58,26.41,1.66,39.67-.17,.13,.58,.32,1.03,.32,1.47,.03,3.47-.03,6.94,.04,10.4,.02,1.32-.48,1.8-1.78,1.95-10.5,1.21-21.02,1.45-31.56,.56-2.2-.19-4.39-.4-6.7-.62Z" fill="#fff"/><path d="M384.79,259.61c.32-6.95,.88-13.52,.86-20.08-.02-6.56-.63-13.12-.99-19.91,.49-.04,1.15-.14,1.81-.14,2.36-.02,4.71,0,7.07,0,4.37,0,4.44,0,4.88,4.26,1.16,11.28,1.08,22.56-.1,33.84-.17,1.6-.72,2.12-2.3,2.08-3.73-.09-7.46-.03-11.23-.03Z" fill="#fff"/><path d="M219.48,94.78c0-4.4,.02-8.41-.01-12.43-.01-1.35,.91-1.39,1.82-1.43,7.68-.37,15.37-.88,23.05-1,4.42-.06,8.85,.58,13.28,.81,1.47,.08,2.07,.56,2.03,2.12-.1,3.79-.03,7.59-.03,11.71-13.44-1.59-26.62-1.73-40.14,.22Z" fill="#fff"/><path d="M94.75,259.57c-4.44,0-8.58,.04-12.72-.07-.38-.01-1.03-1.05-1.06-1.64-.4-8.09-.88-16.19-.98-24.28-.06-4.62,.53-9.24,.83-13.96h13.74c-1.61,13.34-1.68,26.52,.19,39.95Z" fill="#fff"/><path d="M329.31,355c2.35,4.02,4.53,7.77,6.89,11.82-4.26,2.88-8.23,5.93-12.54,8.39-6.62,3.77-13.49,7.09-20.22,10.67-1.67,.89-2.52,.51-3.37-1.13-1.69-3.25-3.59-6.38-5.56-9.84,12.49-5.11,23.92-11.68,34.8-19.91Z" fill="#fff"/><path d="M184.56,104.1c-12.54,5.12-23.96,11.72-34.81,19.89-2.3-3.93-4.52-7.71-6.94-11.86,5.07-3.33,9.84-6.8,14.93-9.71,5.89-3.36,12.07-6.21,18.09-9.33,1.36-.7,2.16-.61,2.95,.87,1.78,3.35,3.75,6.6,5.78,10.14Z" fill="#fff"/><path d="M104.12,294.47c5.15,12.54,11.7,23.99,19.92,34.82-3.73,2.18-7.28,4.3-10.92,6.27-.35,.19-1.44-.44-1.83-.96-5.75-7.6-10.66-15.72-14.87-24.26-1.26-2.55-2.41-5.15-3.51-7.77-.2-.48-.09-1.52,.23-1.72,3.54-2.15,7.15-4.19,10.99-6.39Z" fill="#fff"/><path d="M184.24,375.35c-2.19,3.82-4.36,7.58-6.65,11.56-12.37-5.35-23.89-11.83-34.66-20.09,2.27-3.94,4.46-7.75,6.62-11.5,5.74,3.72,11.17,7.55,16.9,10.86,5.68,3.28,11.66,6.04,17.78,9.17Z" fill="#fff"/><path d="M374.91,184.54c-5.13-12.58-11.69-23.96-19.89-34.82,3.93-2.3,7.71-4.51,11.78-6.89,2.81,4.14,5.8,7.98,8.18,12.17,3.86,6.8,7.3,13.84,10.97,20.76,.79,1.49,.45,2.3-1.02,3.08-3.29,1.75-6.49,3.68-10.02,5.7Z" fill="#fff"/><path d="M336.21,112.07c-2.38,4.13-4.56,7.9-6.89,11.94-10.65-8.31-22.11-14.83-34.67-20.03,2.23-3.88,4.3-7.55,6.5-11.14,.18-.29,1.41-.23,1.96,.05,7.32,3.81,14.68,7.56,21.87,11.62,3.84,2.17,7.36,4.93,11.24,7.57Z" fill="#fff"/><path d="M103.99,184.39c-4.09-2.35-7.86-4.51-11.85-6.8,5.34-12.38,11.83-23.92,20.09-34.66,3.92,2.26,7.7,4.42,11.8,6.79-8.28,10.62-14.81,22.07-20.04,34.68Z" fill="#fff"/><path d="M375.05,294.61c3.89,2.24,7.51,4.26,11.03,6.44,.34,.21,.31,1.49,.05,2.09-3.96,9.11-8.7,17.8-14.29,26.02-1.55,2.29-3.2,4.51-4.96,6.97-3.94-2.27-7.76-4.46-11.86-6.82,8.26-10.64,14.81-22.06,20.03-34.7Z" fill="#fff"/></g><g><g><path d="M262.91,254.32h-2.92v.4c0,1.73,1.25,4.65,3.75,8.76h.42l-.42-4.78v-3.58c0-.46-.28-.73-.83-.8Z" fill="#fff"/><path d="M261.45,260.82c-.59-1.57-1.2-2.84-1.82-3.84,.59,1.29,1.19,2.57,1.82,3.84Z" fill="#fff"/><path d="M285.98,154.31c.13-.19,.35-.32,.7-.36v.33c3.45-.15,6.9-.34,10.35-.59,.04-.28,.07-.59,.07-.93h.83c-.14,.24-.25,.54-.32,.88,1.75-.13,3.5-.26,5.25-.42,.02-.41,.04-.82,.07-1.26l-1.25-.8h-3.75l-.83,.4c0-.33-.56-.6-1.67-.8-1.95,0-2.92,.66-2.92,1.99h-.42v-1.59h-11.26l-2.08,.4c0-.26-.14-.4-.42-.4-.56,.27-.97,.4-1.25,.4,0,.39,.12,1.41,.37,3.02,2.84-.07,5.69-.16,8.53-.27Zm-4.31-1.95h.83v.4h-.83v-.4Z" fill="#fff"/><path d="M276.56,154.6c-.43-1.32-.81-2.21-1.14-2.64-1.21,0-3.35,.85-6.41,2.53-.04,.08-.09,.16-.14,.24,2.56-.03,5.12-.07,7.69-.12Z" fill="#fff"/><path d="M255.83,179.84h.42c1.67-.86,2.5-1.39,2.5-1.59,2.22-.93,3.34-1.59,3.34-1.99h4.17c.45,0,.98-.03,1.55-.09,1.3-.65,2.61-1.31,3.92-1.94,2.82-1.36,5.66-2.69,8.5-3.99-6.42,.58-12.8,1.52-19.19,2.36,.14,.42,.21,.71,.21,.88v.8h-.42c-.26-.58-.49-1.09-.69-1.56-1.05,.14-2.11,.27-3.16,.4,.03,.12,.06,.23,.1,.36-.28,0-.48-.1-.62-.3-.35,.04-.71,.08-1.06,.12-.05,1.39-.18,3.3-.4,5.75,0,.53,.28,.8,.83,.8Z" fill="#fff"/><path d="M285.95,169.82c-3.52,1.58-7.03,3.18-10.51,4.84,3.19,0,5.27,.4,6.24,1.2h1.67c2.5,0,5.28,.13,8.34,.4,.56,0,.83-.13,.83-.4,6.67-.8,10-1.46,10-1.99v-3.79c-5.52-.28-11.03-.53-16.57-.25Z" fill="#fff"/><path d="M259.39,170.8c-.15-.44-.23-.75-.23-.92v-.8h.42c.27,.59,.5,1.13,.71,1.6,8.38-1.09,16.75-2.37,25.19-2.84,4-1.78,8.01-3.52,12.04-5.22v-.31l.42-2.79h.42c0,.27,.14,.66,.42,1.19-.27,.45-.41,.97-.41,1.55,1.4-.59,2.8-1.18,4.2-1.76,.04-1.45,.11-3.21,.21-5.29-1.33,.12-2.66,.22-3.99,.32v.79h-.83c0-.45,.27-.72,.8-.79-6.98,.54-13.97,.85-20.97,1.02,.05,.31,.1,.62,.16,.96v.4h-.42c-.12-.48-.24-.92-.36-1.35-3.81,.09-7.62,.14-11.43,.17-.13,.07-.25,.14-.38,.2-.61,.29-1.24,.5-1.89,.63-2.05,1.7-4.1,3.39-6.22,5h-.01c-.07,.06-.13,.12-.2,.17-.06,.05-.13,.08-.19,.11,.16,.44,.25,.8,.25,1.05-.83,0-1.25,.27-1.25,.8v3.98c0,.09,.21,.93,.63,2.48,.98-.12,1.96-.24,2.93-.36Zm20.2-3.31h-.42v-1.59h.42v1.59Zm-3.75-7.17l.83,.4,6.67-1.19c1.74,.27,3.82,.4,6.25,.4v.4c-5.63,0-9.94,.93-12.92,2.79h-.42c0-.26,.14-.66,.42-1.2l-.83-1.19v-.4Zm-5.42,1.99c.9,0,1.6-.13,2.08-.4v.8h-2.08v-.4Zm-9.59,3.58h2.08v.4h-2.08v-.4Z" fill="#fff"/><path d="M298.35,164.43v.28h-.65c-1.31,.55-2.62,1.11-3.92,1.67-.76,.33-1.52,.66-2.28,.99l1.24,.32c3.26,.03,6.52,.17,9.78,.35v-5.36c-1.39,.58-2.78,1.16-4.17,1.75Z" fill="#fff"/><g><path d="M285.01,187.81c.28,0,.42-.13,.42-.4,.28,0,.69,.13,1.25,.4l.83-.4,2.39,.38,.28-4.01-5.48,3.3c.07,.26,.17,.5,.31,.73Z" fill="#fff"/><path d="M284.07,316.19l-.18,1.46h2.78v.8l-2.85-.27-.22,1.79v-1.81l-1.1-.11v-.4h1.1v-1.67c-6.09-2.78-12.2-5.52-18.33-8.2-1.74,.27-3.48,.56-5.23,.82l.36,.69,2.08-.4c.28,0,.69,.13,1.25,.4l-.83,1.19c-3.06,.27-4.59,.66-4.59,1.19,.69,1.06,1.25,1.59,1.67,1.59h4.17c1.04,.8,1.88,1.2,2.5,1.2,0,.66-1.11,1.19-3.34,1.59,0-.26-.14-.4-.42-.4h-.42v.4c2.36,2.92,4.59,4.38,6.67,4.38,2.64,0,5.28,.13,7.92,.4l2.92-.4c2.39,.22,4.33,.35,5.84,.39,1.02-.8,2.03-1.61,3.04-2.42-1.6-.74-3.21-1.48-4.81-2.22Zm-8.24,3.05h-.42c-.49,0-.77-.26-.83-.8v-.4h1.25l5-.4,.42,.8c-1.81,0-3.61,.27-5.42,.8Z" fill="#fff"/><path d="M284.17,313.27c-.15,0-.34,.04-.56,.12,.06,.19,.15,.36,.24,.51,1.28,.59,2.57,1.17,3.85,1.76h.65v.3c.76,.35,1.52,.71,2.28,1.06,.1-.08,.2-.16,.31-.24-1.17-1.7-1.76-2.74-1.76-3.11h-1.67l-2.92-.4v-.8c1.53,0,2.92,.27,4.17,.8,.49-.26,1.04-.4,1.67-.4h5.26c.47-.39,.94-.79,1.41-1.19v-.41h-1.25v-1.19c.63,0,1.18,.13,1.67,.4,.42,0,.97-.66,1.67-1.99l-.83-1.19v-.4c1.46,0,2.43-1.46,2.92-4.38-.15-.28-.3-.5-.44-.68-2.1,.39-4.21,.77-6.32,1.14l1.76,.34c0,.53-.28,.8-.83,.8h-2.92l-5,.4,.18-.35c-1.13,.19-2.27,.38-3.41,.57-.06,.82-.15,1.64-.26,2.44,.21,.08,.53,.12,.98,.12,0,.53-.28,.8-.83,.8h-.31c-.08,.46-.14,.93-.24,1.38-.21,1.24-.27,2.22-.19,3.01,.49,.03,.74,.29,.74,.78Zm10.84-7.17h.42v.4c0,.53-.28,.8-.83,.8-.49,0-.76-.26-.83-.8,.28,0,.69-.13,1.25-.4Zm-6.67,4.78c-.49,0-.77-.26-.83-.8v-.8c1.39,.2,2.08,.6,2.08,1.19-.28,0-.7,.13-1.25,.4Zm-.42-4.38h3.75l.83,.4c0,.6-1.53,1-4.59,1.19-.56-.26-.97-.4-1.25-.4,.42-.8,.83-1.19,1.25-1.19Z" fill="#fff"/><path d="M277.92,305.78c-3,.49-6.02,.95-9.03,1.42,2.3,1.01,4.6,2.02,6.9,3.05,2,.9,4.01,1.8,6.01,2.71-.05-.16-.11-.32-.14-.49-.09-.43-.11-.89-.07-1.34l-3.28-2.69c-.11,.04-.23,.06-.38,.06v-.36l-.16-.13-.92,.88,.68-1.1,.25,.22,.16-.15v-2.07Z" fill="#fff"/><path d="M252.07,279.02c.28,.47,.42,1.13,.42,1.99v5.18l.42,.8,.83-.4h3.75c2.85,0,4.93-.4,6.25-1.19,0,.27,.42,.4,1.25,.4v.8c-1.95,1.26-2.92,2.59-2.92,3.98h-.83l.83-1.99c0-.6-2.23-1.13-6.67-1.59,0,.27-.7,.53-2.08,.8v-.4l-.83,.4c0,.8,.14,1.73,.42,2.79l-.42,2.79c0,3.19,.83,5.31,2.5,6.37v.4c-.28,0-.7,.13-1.25,.4l.02,.1c.55,.24,1.1,.47,1.65,.71v-.41h1.67l2.08,.4v.4l-.89,.85c2.44,1.05,4.87,2.11,7.3,3.17,4.09-.65,8.19-1.29,12.28-1.96-.11-.26-.36-.42-.77-.47-.63,0-1.18,.13-1.67,.4l-1.67-.8,.42-.8,1.67,.4c.76,0,1.6-.26,2.5-.8,.42,0,.97,.27,1.67,.8h.42c.48-.53,2.57-.93,6.25-1.19,.56,.27,.97,.4,1.25,.4l3.75-.4h.42v.07c.67-.12,1.35-.23,2.02-.35l.06-.12,.17,.08c2.37-.41,4.73-.84,7.1-1.27,.55-.99,.91-2.31,1.07-3.99-2.22-1.33-3.61-1.99-4.17-1.99-1.67,0-3.48-3.19-5.42-9.56v-.8h.42c.83,2.39,1.39,3.58,1.67,3.58,0,2.86,2.08,5.11,6.25,6.77,1.39,0,2.08-3.05,2.08-9.16,0-.46-.69-.86-2.08-1.2,1.18-.86,1.88-2.06,2.08-3.58l-.42-2.39v-.8l.42-1.99c-.28,0-.42-.13-.42-.4,.28-.46,.42-1,.42-1.59v-1.51c-2.21-1.71-4.42-3.42-6.62-5.14l-1.37,3.05c-.39-1.56-.67-3.18-.89-4.83-1.09-.86-2.19-1.72-3.28-2.58,.01,2.26-.09,4.52-.53,6.77,.11,.65,.16,1.34,.17,2.06l.67-.99,1.5,.27-2.08,3.6-.5,.3v.19c0,.33,1.25,1.13,3.75,2.39v.4l-4.17-.8v1.59c-1.74,4.78-5.63,7.17-11.67,7.17h-1.25v.8c1.46,.27,2.29,.4,2.5,.4v.8c-.77,0-5.49-1.19-14.17-3.58v-.4c.14,0,.69-.13,1.67-.4-.97-1.59-1.81-3.85-2.5-6.77-.28-4.51-.83-6.77-1.67-6.77l.3-.43c-2.69-4.43-4.86-9.14-6.93-13.91-.01,0-.02,0-.04,0h-.83c-1.46,0-2.43,.53-2.92,1.59v7.97l-.42,2.79c0,1.06,.97,1.59,2.92,1.59v.4c-1.32,0-2.29,.27-2.92,.8l.42,1.99v5.18l-.42,2.39Zm45.44,4.38h1.25v.8h-1.25v-.8Zm-1.25,3.98c1.25,0,2.08-.13,2.5-.4,0,.27,.28,.4,.83,.4v.4h-3.34v-.4Zm-32.51,14.74h-1.25v-.8h1.25v.8Zm12.45-2.7s0,.02-.01,.03v.61h-.69c.1,.03,.19,.02,.29-.02,.09-.04,.18-.12,.25-.23,.07-.1,.12-.22,.15-.36v-.52l.05,.03c0,.16,0,.32-.04,.46Zm10.06-11.64h1.25v.4h-1.25v-.4Zm-5.84-.4h1.67l2.08,.4v.4h-3.75v-.8Zm-5.84,0l4.17,.4v.4c-1.95,0-3.06,.13-3.34,.4,0-.26-.28-.4-.83-.4v-.8Zm-5.42,5.18c.63,0,1.18-.13,1.67-.4,.63,0,1.18,.13,1.67,.4,2.85-.26,5.07-.4,6.67-.4h2.92v-.8c-2.22-.4-3.34-.93-3.34-1.59,4.45,1.06,6.67,1.99,6.67,2.79h.83c2.22,0,5.14-.13,8.75-.4h.42c0,.47-.97,.86-2.92,1.2,1.11,1.99,1.67,3.32,1.67,3.98v.4c-1.39-1.19-2.08-2.65-2.08-4.38h-1.67c-1.32,0-2.71-.13-4.17-.4-3.2,.53-5.14,.8-5.84,.8-.42,0-2.36-.13-5.84-.4l-3.75,.4c-.49-.26-1.04-.4-1.67-.4v-.8Zm-3.33,10.75c0,.53-.28,.8-.83,.8-.49,0-.77-.26-.83-.8,0-.46,.28-.73,.83-.8,.56,0,.83,.27,.83,.8Zm-2.08-19.12h.42v.8h-.42v-.8Zm-6.67-2.39l3.75,1.2v.8l-3.75-1.19v-.8Z" fill="#fff"/><path d="M261.44,306.1h-1.86v-.8h.01c-1.8-.78-3.6-1.56-5.4-2.33,.18,1.81,1.41,2.73,3.72,2.73v.4h-2.08c0,.44,.08,.82,.19,1.17,1.98-.31,3.96-.63,5.94-.95-.17-.07-.34-.15-.51-.22Z" fill="#fff"/><path d="M254.16,241.98h2.5l2.5,.4c.49-.26,1.18-.4,2.08-.4h2.5c.41,0,.82-.44,1.24-1.32-3.6-2.96-7.17-5.95-10.71-8.98-.71,.38-1.43,.76-2.14,1.14,.06,.48,.18,.88,.36,1.19-.28,1.46-.42,2.66-.42,3.58,.69,2.92,1.39,4.38,2.08,4.38Zm.42-4.38c.63,0,1.18-.13,1.67-.4v.8h-1.67v-.4Z" fill="#fff"/><path d="M257.91,230.82c-.54,0-1.04,.02-1.51,.05,3.05,2.6,6.11,5.17,9.21,7.72,2.34-2.52,5.47-3.79,9.39-3.79v.4c.28,0,.69-.13,1.25-.4,.49,.27,1.04,.4,1.67,.4h2.08l1.25-.8c0,.86,1.25,1.53,3.75,1.99,1.12,0,2.12,.77,2.98,2.29l.1-.18,1.98,2.35-.93,.56c.32,.97,.61,2.08,.87,3.34h.42l2.92-1.99h1.67v1.59c0,.53-.28,.8-.83,.8,0,.13,.56,1.73,1.67,4.78v.4c-.35,0-1.18-1.46-2.5-4.38l-2.92,1.19c0,.6,.14,1.13,.42,1.59,0,.92-.16,1.83-.43,2.72,.36,.14,.64,.44,.63,.89-.06,2.22,.04,4.43,.11,6.64,1.02,.8,2.03,1.59,3.05,2.39-.01-.2-.03-.39-.04-.59l-.24-.03,.19-.4,.09,.4,2.93,.15-.17,2.63c2.05,1.6,4.11,3.2,6.17,4.79l-.19-1.27c.04-.06,.08-.12,.12-.18-.16-.68-.28-1.38-.37-2.08l-1.42,.27v-.8c-3.33-7.57-5-11.68-5-12.35v-.4h.42c.28,1.53,.69,2.32,1.25,2.39,2.01,5.41,3.55,8.69,4.63,9.86-.07-.55,.35-.88,.82-.95,.23-1.01,.5-2.02,.72-3.04-.23-.16-.4-.41-.4-.77,0-.19,0-.38-.01-.57-.22-.16-.38-.41-.37-.77,.02-.97,.19-1.93,.31-2.9,0-.69,.02-1.37,.07-2.06,0-.08,.04-.13,.05-.2-.9-16.54-1.73-26.04-2.49-28.49l-1.67,.8c-1.04,1.59-2.02,2.39-2.92,2.39-1.04,1.33-1.74,1.99-2.09,1.99,0-.26-.14-.4-.42-.4,0-1.59,.56-2.39,1.67-2.39l3.75-3.19c0-.46-.28-.73-.83-.8h-.42l-1.25,.8h-.42v-1.2c.83,0,2.22-.4,4.17-1.19-1.43-4.5-3.02-7.34-4.75-8.52-4.78,1.86-9.51,3.82-14.19,5.88,.91,1.24,2.36,4.64,4.36,10.21h-.83c-2.53-5.15-3.9-8.45-4.12-9.95-7.99,3.52-15.85,7.32-23.59,11.36,.13,.13,.2,.32,.2,.58v.4Zm43.77,27.48h.83v.4h-.83v-.4Zm-5.84-44.61h.83v.8c0,1.33-.14,3.32-.42,5.97h-.42v-6.77Zm-7.92,19.52v-.8h.42v.8h-.42Zm2.08,4.38l.83,.4v1.19h-.42c0-.26-.14-.66-.42-1.19v-.4Zm-.83-2.39h-.42c0-.26-.14-.66-.42-1.2v-.4l.83,.4v1.2Zm-.42-6.5l-.17,2.44c-1.43-.4-2.89-.32-4.3,.25l4.46-2.69Zm-23.76,2.12h.42v.8c-.28,0-.69,.13-1.25,.4,0,.53,.42,1.46,1.25,2.79l-.83,.4c0-1.86-.7-2.79-2.08-2.79,0-.33,.83-.86,2.5-1.59Z" fill="#fff"/><path d="M297.12,184.69c-.1-.32,0-.75,.26-.98,.16-.14,.33-.22,.51-.26,0-.02,0-.04,.02-.06,.05-.13,.1-.27,.17-.39,.07-.12,.16-.23,.25-.34,.21-.26,.49-.47,.78-.62,.31-.17,.66-.31,1.01-.39,.35-.08,.72-.13,1.08-.13,.22,0,.43,.03,.65,.07,.11,.02,.23,.05,.34,.09,.04,.02,.08,.03,.12,.05,.06-1.13,.13-2.42,.21-3.89,0-.26-.14-.66-.42-1.19-.63,0-2.15,.13-4.59,.4-17.3,3.19-29.11,4.78-35.43,4.78-.34,0-.67,0-.99,.02-2.18,1.15-4.36,2.32-6.52,3.52v8.02c0,.53,.28,.8,.83,.8-.42,.33-.97,3.25-1.67,8.76,.28,0,.42,.13,.42,.4h-.42c-.28,11.15-.7,16.73-1.25,16.73l.42,.8-.59,6.5c.34,.29,.66,.59,1,.88,.39,.34,.79,.67,1.19,1.01,5.26-2.8,10.57-5.49,15.95-8.05,1.12-.53,2.24-1.05,3.36-1.57-1.7-2.03-2.97-5.08-3.82-9.13h-1.25c-.56,0-.83,.4-.83,1.19h-1.25c-.49,0-.77-.26-.83-.8v-1.2c0-.93,.14-2.12,.42-3.58l-.42-.8,.42-2.39c-3.89-7.5-6.39-12.81-7.5-15.93v-.4c2.29,2.92,4.65,7.57,7.09,13.94h.83c0-1.33,.14-3.32,.42-5.97-.28-.53-.42-.93-.42-1.19h.42c0-3.12,3.06-4.85,9.17-5.18h1.25l.83-.4v.4c3.3-.34,5.18-.87,5.69-1.59l-.69-1.06,3.99-4.78c1.96,.34,3.79,1.71,5.23,3.91l-.16,2.47-.63,.38c.66-.08,1.19-.13,1.59-.13,.68,0,1.24,.08,1.68,.23,.8-.38,1.5-.93,2.21-1.45,.01-.18,.04-.37,.09-.54,.04-.14,.12-.27,.19-.39-.04-.03-.09-.05-.12-.09-.13-.14-.21-.28-.27-.46Zm-42.13,16.26c.35,0,1.46,.4,3.33,1.2v.4h-.42c-1.46,0-2.43-.53-2.92-1.59Zm11.97,12.05l.54-.1h.83c-.14,.52-.55,.87-1.22,1.05l-.11,1.67-1.74-1.32-.7-3.09,2.4,1.8Zm-3.63-2.49h-2.5l-4.17-.4v-.4h5.84c.56,0,.83,.27,.83,.8Zm-3.33-7.17h-.42v-.8h.42v.8Zm-.83-5.18c0,.27,.14,.66,.42,1.19v.4l-.83-.4v-1.19h.42Z" fill="#fff"/><path d="M289.59,206.53l-.83,.4c.56,1.19,.83,2.92,.83,5.18h-.83c0-4.78-1.67-7.17-5-7.17-5.84,0-10.56,1.59-14.17,4.78,1.1,.93,2.76,4.13,4.96,9.59,1.94-.89,3.89-1.77,5.84-2.63,.01-.06,.04-.14,.04-.2h.41c4.64-2.03,9.33-3.97,14.05-5.81-.48-.74-2.24-2.12-5.29-4.15Zm-11.26,4.38h1.25v.4h-1.25v-.4Zm1.67,3.58c-.42,0-.83-.53-1.25-1.59v-.8c.48,0,.9,.66,1.25,1.99v.4Zm2.5-7.17h.42c0,.27,.14,.66,.42,1.19l-.83,.4v-1.59Zm.83,3.58h-.83v-.4c0-.46,.28-.73,.83-.8h.42c-.28,.53-.42,.93-.42,1.2Z" fill="#fff"/><path d="M282.27,303.06c-.17-.08-.36-.14-.6-.14h-.83l-.83,.4c0-.26-.14-.4-.42-.4-.46,0-.72,.24-.81,.71,1.16-.19,2.33-.38,3.49-.58Z" fill="#fff"/><path d="M280.67,305.34c-.64,.1-1.28,.21-1.91,.31v1.39l1.49-1.44,1.82-.49c-.46,.08-.93,.16-1.39,.23Z" fill="#fff"/></g><g><polygon points="291.47 167.14 287.96 165.44 287.24 170.15 288.52 170.68 291.47 167.14" fill="#fff"/><path d="M258.31,217.53l.47-3.73c0,.49-.47,1.48-1.39,2.98l.91,.75Z" fill="#fff"/><path d="M258.35,194.36v-.74h-.46l.06,.14c.01,.16,.06,.31,.13,.42,.07,.11,.17,.17,.27,.18Z" fill="#fff"/><polygon points="258.28 233.28 258.56 231.92 257.82 232.52 258.28 233.28" fill="#fff"/><path d="M257.98,297.52c-.06,.03-.11,.09-.16,.16-.05,.07-.08,.16-.1,.26-.02,.1-.03,.2-.02,.3,0,.1,0,.21,.02,.3,.02,.1,.06,.19,.1,.26,.05,.07,.1,.13,.16,.16,.06,.03,.12,.04,.19,.03l.06,.13c-.02-.1-.03-.21-.02-.32,.01-.11,.04-.21,.08-.29,.04-.09,.09-.15,.15-.2s.13-.07,.19-.06l-.45-.75c-.06-.01-.13,0-.19,.03Z" fill="#fff"/><path d="M266.07,238.1c-.92,1.25-1.67,2.37-2.3,3.36l5.06-2.97v-1.43l-.46-.76c-.86,.19-1.67,.82-2.3,1.8Z" fill="#fff"/><polygon points="258.56 231.92 259.66 231.04 258.75 231.03 258.56 231.92" fill="#fff"/><path d="M255.14,195.06c-.28,.44-.51,.94-.69,1.5-.18,.55-.41,1.05-.69,1.48l.92,.75,1.37-2.22-.91-1.51Z" fill="#fff"/><polygon points="249.01 250.78 249.03 251.84 249.34 251.29 249.01 250.78" fill="#fff"/><path d="M256.34,289.26c0,.1,0,.2,.02,.3,.02,.1,.05,.18,.1,.25,.04,.07,.1,.13,.16,.16s.12,.05,.18,.03l.06,.13c.07,0,.13-.01,.19-.06,.06-.04,.11-.11,.15-.2,.04-.09,.07-.19,.08-.29,0-.11,0-.22-.02-.32h-.91Z" fill="#fff"/><polygon points="255.44 281.04 257.27 280.31 257.73 278.81 256.82 276.56 255.44 278.8 255.44 281.04" fill="#fff"/><polygon points="256.73 326.62 257.19 325.88 255.35 324.38 256.73 326.62" fill="#fff"/><path d="M255.86,201.87c-.06,.03-.11,.09-.16,.16-.04,.07-.08,.16-.1,.25s-.03,.2-.02,.3h.92l-.47-.74c-.06-.01-.12,0-.18,.03Z" fill="#fff"/><path d="M295.14,323.82l2.96,.02c0-.12,0-.24,0-.36l.03,.02c.08-.31,.11-.66,.07-1-.04-.34-.14-.65-.3-.88l-2.3-1.52-.46,3.73Z" fill="#fff"/><polygon points="252.67 287.72 253.13 287.72 252.67 286.96 252.67 287.72" fill="#fff"/><polygon points="251.82 249.69 250.91 247.45 249.07 248.93 250.45 250.44 251.82 249.69" fill="#fff"/><path d="M251.9,209.25h-.46l.06,.22c-.3,0-.5,.43-.51,1.28h.91v-1.5Z" fill="#fff"/><polygon points="251.88 219.05 250.97 218.31 250.51 220.55 251.42 221.3 251.88 219.05" fill="#fff"/><path d="M251.4,232.41l.92,.77,.46-.76c-.5,.06-1-.21-1.38-.75v.74Z" fill="#fff"/><polygon points="247.12 239.9 245.87 239.97 245.86 242.09 246.83 241.49 247.12 239.9" fill="#fff"/><path d="M244.39,325.87c.08-.26,.12-.54,.13-.83l-.91-.75-.46,1.5,.91,.75c.14-.19,.25-.42,.32-.67Z" fill="#fff"/><path d="M251.59,245.84c.62,.06,1.23-.1,1.81-.47l1.45-4.62c-1.58,1.69-3.26,3.13-5.02,4.28,.54,.48,1.15,.75,1.76,.81Z" fill="#fff"/><polygon points="250.32 317.68 248.95 315.43 248.48 318.42 249.86 319.91 250.32 317.68" fill="#fff"/><path d="M245.35,248.45c.18,.02,.35-.03,.52-.13,.17-.1,.32-.25,.45-.45,.18-.28,.33-.61,.44-.98,.1-.37,.16-.77,.17-1.18l-2.29-.39,.05,2.1,.67,1.02Z" fill="#fff"/><path d="M247.82,175.97l-.09-.07-.07,.23c.05-.06,.11-.1,.16-.16Z" fill="#fff"/><path d="M295.42,321.07c.04,.07,.1,.13,.16,.16,.06,.03,.12,.04,.19,.03,.06,.01,.12,0,.18-.03,.06-.03,.11-.09,.16-.16s.08-.16,.1-.25c.02-.1,.03-.2,.02-.3h-.92c0,.1,0,.2,.02,.3,.02,.1,.05,.19,.1,.26Z" fill="#fff"/><path d="M307.69,317.73c-.59-2.38-.89-4.91-.9-7.47v-6.92c-1.21,1.82-2.02,4.25-2.29,6.91l-.46,.74c.16,1.48,.64,2.82,1.36,3.76,.67,1.17,1.44,2.18,2.29,2.98Z" fill="#fff"/><polygon points="272.34 319.7 273.72 321.95 273.72 318.86 272.34 318.09 272.34 319.7" fill="#fff"/><path d="M245.48,254.77h-.65l.03,.12c-.37,.53-.6,1.27-.64,2.06l.63-1.1,.63-1.08Z" fill="#fff"/><path d="M282.75,312.56v.1s.02,0,.03,0l-.03-.09Z" fill="#fff"/><polygon points="284.53 324.53 285.9 326.04 285.91 323.8 284.99 323.05 284.53 324.53" fill="#fff"/><path d="M277.55,322.17c.08,.26,.12,.53,.13,.82l.46-.74v-1.5l-.91,.76c.13,.19,.24,.41,.32,.67Z" fill="#fff"/><path d="M285.52,306.59h0s.02,.02,.03,.02l-.03-.02Z" fill="#fff"/><path d="M285.52,306.6c-.17-.02-.34-.09-.49-.21-.16-.13-.31-.32-.43-.54l1.38,2.25c-.27-.39-.43-.93-.45-1.5Z" fill="#fff"/><path d="M286.86,320.05c1.09-.02,2.18,.23,3.22,.76-.92-2.49-1.83-3.74-2.74-3.75l-3.22,.73c.3,.74,.71,1.33,1.19,1.73,.48,.4,1.02,.58,1.56,.53Z" fill="#fff"/><polygon points="304.66 231.34 305.57 231.34 306.03 230.6 305.12 229.84 304.66 231.34" fill="#fff"/><path d="M299.67,192.49c-.43,1.16-.74,2.41-.93,3.73,.05,1.84,.37,3.63,.91,5.24l.03,.02c1.84-1.98,2.91-3.72,3.18-5.24-.88-1.62-1.97-2.9-3.2-3.75Z" fill="#fff"/><path d="M303.39,197.11c-.16-.13-.33-.2-.5-.22l-.46,1.48,.91,.75,.46-1.48c-.11-.22-.25-.4-.41-.53Z" fill="#fff"/><polygon points="300.54 226.08 301.45 226.83 301.92 224.6 301 223.84 300.54 226.08" fill="#fff"/><path d="M289.68,290.52c-.02,.09-.06,.18-.1,.24-.05,.07-.11,.12-.17,.15-.06,.03-.13,.03-.19,.01h.47v-.41Z" fill="#fff"/><path d="M289.85,327.56c-.06,.03-.11,.09-.16,.16-.04,.07-.08,.16-.1,.25-.02,.1-.03,.2-.02,.3l.07,.02c.06,0,.11-.03,.16-.07,.05-.04,.1-.1,.13-.17,.04-.07,.06-.15,.08-.24,.02-.09,.02-.18,.01-.28-.06-.01-.12,0-.18,.03Z" fill="#fff"/><polygon points="265.98 300.2 266.43 300.95 267.36 300.21 266.89 299.46 265.98 300.2" fill="#fff"/><polygon points="290.58 296.16 290.12 296.9 290.75 296.31 290.58 296.16" fill="#fff"/><path d="M298.35,324.58h.46l-.46-.74h-.26c-.03,.45,.02,.74,.25,.74Z" fill="#fff"/><path d="M295.6,311.14l.47-.76,.03,.02c.01-.11,0-.22-.02-.32s-.06-.2-.11-.27c-.05-.08-.11-.13-.18-.16-.07-.03-.13-.03-.2,0-.35,.04-.68,.31-.91,.74l.91,.77Z" fill="#fff"/><path d="M293.38,299.33c.06,.29,.16,.56,.29,.77s.3,.38,.48,.48c.18,.1,.37,.12,.56,.08v3.73l.46-3.73c-.61-.49-.75-1.54-.45-3.36,.23-1.09,.38-2.22,.46-3.37l-2.75,.75-1.67,1.62,2.58,2.12c-.03,.3,0,.61,.05,.91Z" fill="#fff"/><path d="M289.71,290.19l-.03-.02v.35s0-.01,0-.02c.02-.1,.03-.21,.03-.31Z" fill="#fff"/><path d="M302.23,308.2c.16,0,.23,.24,.23,.74h.46l-.91-1.51c0,.49,.07,.76,.22,.76Z" fill="#fff"/><polygon points="282.5 315.87 281.13 315.87 279.29 317.34 280.2 318.09 282.5 316.62 282.5 315.87" fill="#fff"/><polygon points="258.22 291.19 258.23 290.45 257.31 288.96 256.84 290.44 257.31 291.95 258.22 291.19" fill="#fff"/><path d="M282.74,312.66c-1.18,.01-1.8,.67-1.83,2.14l1.38,2.24,.45-4.38Z" fill="#fff"/><path d="M306.51,205.19l.91,.75,.23-.13,.22,.13v1.5h2.3v-.75c0-.1,0-.21-.02-.3-.02-.1-.06-.19-.1-.26-.04-.07-.1-.13-.16-.16-.06-.03-.12-.04-.19-.03-.35-.04-.68-.31-.91-.75l-1.11,.61-1.18-.62Z" fill="#fff"/><polygon points="291.86 169.57 292.45 170.03 293.15 168.79 291.86 167.45 291.97 167.92 291.86 169.57" fill="#fff"/><polygon points="285.73 166.1 285.13 165.67 284.59 167.59 285.77 168.47 285.73 166.1" fill="#fff"/><polygon points="291.22 166.79 291.86 167.45 291.65 166.53 291.22 166.79" fill="#fff"/><polygon points="267.07 325.47 267.39 326.87 269.11 325.83 267.78 324.24 267.07 325.47" fill="#fff"/><path d="M268.12,319.26l.11-1.65-3.02,1.82c.95-.38,1.94-.44,2.91-.17Z" fill="#fff"/><polygon points="253.63 307.09 251.87 305.78 252.35 307.87 253.53 308.76 253.63 307.09" fill="#fff"/><path d="M248.46,301.53l-.23,3.33,1.72-1.04,.11-1.67c-.97-1.49-2.21-2.42-3.53-2.64l-2.7,3.23,.74,1.14,3.88-2.34Z" fill="#fff"/><polygon points="290.73 198.23 291.05 199.62 292.77 198.58 291.43 196.99 290.73 198.23" fill="#fff"/><path d="M291.77,192.01l.11-1.65-3.02,1.82c.95-.38,1.94-.44,2.91-.17Z" fill="#fff"/><polygon points="285.12 207.95 285.71 208.4 286.41 207.17 285.12 205.82 285.23 206.3 285.12 207.95" fill="#fff"/><polygon points="278.98 204.47 278.39 204.04 277.85 205.97 279.02 206.84 278.98 204.47" fill="#fff"/><path d="M280.53,196.22l-.13,.27,.16,.02c.1,1.91,.38,3.79,.82,5.58l.98-2.17,.22-3.32-1.98-.1-.06-.27Z" fill="#fff"/><polygon points="284.48 205.16 285.12 205.82 284.91 204.9 284.48 205.16" fill="#fff"/><path d="M278.64,196.56c-.16,.12-.3,.28-.42,.49-.12,.21-.21,.45-.27,.72l.91,1.85,1.54-3.13h-.3c-.47-.3-.99-.27-1.45,.07Z" fill="#fff"/><polygon points="277.29 179.85 275.53 178.53 276.01 180.62 277.18 181.51 277.29 179.85" fill="#fff"/><polygon points="292.07 221.3 293.35 220.53 294.76 218.1 293.75 217.92 291.91 220.61 292.07 221.3" fill="#fff"/><polygon points="297.02 250.58 297.34 251.97 299.06 250.93 297.72 249.34 297.02 250.58" fill="#fff"/><path d="M298.06,244.36l.11-1.65-3.02,1.82c.95-.38,1.94-.44,2.91-.17Z" fill="#fff"/><polygon points="291.41 260.3 292 260.75 292.7 259.52 291.41 258.17 291.52 258.65 291.41 260.3" fill="#fff"/><polygon points="285.28 256.82 284.68 256.39 284.14 258.32 285.32 259.2 285.28 256.82" fill="#fff"/><path d="M301.79,264.11l-.13,.27,.16,.02c.1,1.91,.38,3.79,.82,5.58l.98-2.17,.22-3.32-1.98-.1-.06-.27Z" fill="#fff"/><polygon points="290.77 257.51 291.41 258.17 291.2 257.25 290.77 257.51" fill="#fff"/><path d="M284.94,248.91c-.16,.12-.3,.28-.42,.49-.12,.21-.21,.45-.27,.72l.91,1.85,1.54-3.13h-.3c-.47-.3-.99-.27-1.45,.07Z" fill="#fff"/><polygon points="283.58 232.2 281.82 230.88 282.3 232.97 283.47 233.87 283.58 232.2" fill="#fff"/><path d="M299.14,212.34l-.23,3.33,1.72-1.04,.11-1.67c-.97-1.49-2.21-2.42-3.53-2.64l-2.7,3.23,.74,1.14,3.88-2.34Z" fill="#fff"/><polygon points="298.36 273.66 299.65 272.88 301.05 270.45 300.04 270.27 298.2 272.96 298.36 273.66" fill="#fff"/><polygon points="267.92 281.02 267.05 280.57 266.5 283.42 268.09 282.68 267.92 281.02" fill="#fff"/><polygon points="266.65 267.84 266.07 268.32 266.23 269.98 267.68 269.15 267.38 268.99 266.65 267.84" fill="#fff"/><path d="M281.13,310.31c.04-.28,.05-.57,.02-.85-.03-.28-.09-.55-.18-.79l-1.45,.03,.57,3.91,.19-.38c.43-.43,.73-1.12,.85-1.92Z" fill="#fff"/><polygon points="285.08 275.01 286.8 273.55 285.49 272.88 284.34 273.85 285.08 275.01" fill="#fff"/><path d="M293.17,272.08l-1.47-2.33-.55,2.85,.74,1.16c1.32-.33,2.53-1.36,3.45-2.92l.09-5.45-1.01,.26-1.25,6.43Z" fill="#fff"/><polygon points="255.9 268.59 255.49 270.72 255.81 274.02 256.52 272.82 256.34 268.81 255.9 268.59" fill="#fff"/></g></g><g><g><path d="M189.99,215.59l.47-3.73c0,.49-.47,1.48-1.39,2.98l.91,.75Z" fill="#fff"/><path d="M190.03,192.43v-.74h-.46l.06,.14c.01,.16,.06,.31,.13,.42,.07,.11,.17,.17,.27,.18Z" fill="#fff"/><path d="M189.66,295.58c-.06,.03-.11,.09-.16,.16-.05,.07-.08,.16-.1,.26-.02,.1-.03,.2-.02,.3,0,.1,0,.21,.02,.3,.02,.1,.06,.19,.1,.26,.05,.07,.1,.13,.16,.16,.06,.03,.12,.04,.19,.03l.06,.13c-.02-.1-.03-.21-.02-.32,.01-.11,.04-.21,.08-.29,.04-.09,.09-.15,.15-.2s.13-.07,.19-.06l-.45-.75c-.06-.01-.13,0-.19,.03Z" fill="#fff"/><path d="M186.82,193.12c-.28,.44-.51,.94-.69,1.5-.18,.55-.41,1.05-.69,1.48l.92,.75,1.37-2.22-.91-1.51Z" fill="#fff"/><polygon points="180.68 248.85 180.7 249.9 181.02 249.36 180.68 248.85" fill="#fff"/><polygon points="187.11 279.1 188.95 278.37 189.41 276.87 188.5 274.62 187.12 276.86 187.11 279.1" fill="#fff"/><polygon points="188.41 324.68 188.86 323.94 187.03 322.44 188.41 324.68" fill="#fff"/><path d="M187.54,199.93c-.06,.03-.11,.09-.16,.16-.04,.07-.08,.16-.1,.25s-.03,.2-.02,.3h.92l-.47-.74c-.06-.01-.12,0-.18,.03Z" fill="#fff"/><path d="M226.82,321.89l2.96,.02c0-.12,0-.24,0-.36l.03,.02c.08-.31,.11-.66,.07-1-.04-.34-.14-.65-.3-.88l-2.3-1.52-.46,3.73Z" fill="#fff"/><polygon points="183.5 247.75 182.59 245.51 180.75 246.99 182.13 248.5 183.5 247.75" fill="#fff"/><path d="M183.58,207.31h-.46l.06,.22c-.3,0-.5,.43-.51,1.28h.91v-1.5Z" fill="#fff"/><polygon points="183.56 217.12 182.65 216.37 182.19 218.61 183.1 219.36 183.56 217.12" fill="#fff"/><path d="M176.06,323.93c.08-.26,.12-.54,.13-.83l-.91-.75-.46,1.5,.91,.75c.14-.19,.25-.42,.32-.67Z" fill="#fff"/><polygon points="182 315.75 180.62 313.49 180.16 316.48 181.54 317.97 182 315.75" fill="#fff"/><path d="M179.5,174.03l-.09-.07-.07,.23c.05-.06,.11-.1,.16-.16Z" fill="#fff"/><path d="M227.1,319.13c.04,.07,.1,.13,.16,.16,.06,.03,.12,.04,.19,.03,.06,.01,.12,0,.18-.03,.06-.03,.11-.09,.16-.16s.08-.16,.1-.25c.02-.1,.03-.2,.02-.3h-.92c0,.1,0,.2,.02,.3,.02,.1,.05,.19,.1,.26Z" fill="#fff"/><polygon points="204.02 317.76 205.39 320.02 205.4 316.92 204.02 316.15 204.02 317.76" fill="#fff"/><path d="M177.16,252.83h-.65l.03,.12c-.37,.53-.6,1.27-.64,2.06l.63-1.1,.63-1.08Z" fill="#fff"/><path d="M214.42,310.62v.1s.02,0,.03,0l-.03-.09Z" fill="#fff"/><polygon points="216.2 322.59 217.58 324.1 217.59 321.86 216.66 321.11 216.2 322.59" fill="#fff"/><path d="M209.23,320.24c.08,.26,.12,.53,.13,.82l.46-.74v-1.5l-.91,.76c.13,.19,.24,.41,.32,.67Z" fill="#fff"/><path d="M171.61,304.57c1.09-.02,2.18,.23,3.22,.76-.92-2.49-1.83-3.74-2.74-3.75l-3.22,.73c.3,.74,.71,1.33,1.19,1.73,.48,.4,1.02,.58,1.56,.53Z" fill="#fff"/><polygon points="236.34 229.4 237.25 229.41 237.71 228.67 236.8 227.9 236.34 229.4" fill="#fff"/><path d="M235.07,195.17c-.16-.13-.33-.2-.5-.22l-.46,1.48,.91,.75,.46-1.48c-.11-.22-.25-.4-.41-.53Z" fill="#fff"/><polygon points="232.22 224.14 233.13 224.89 233.6 222.66 232.68 221.9 232.22 224.14" fill="#fff"/><path d="M221.53,325.63c-.06,.03-.11,.09-.16,.16-.04,.07-.08,.16-.1,.25-.02,.1-.03,.2-.02,.3l.07,.02c.06,0,.11-.03,.16-.07,.05-.04,.1-.1,.13-.17,.04-.07,.06-.15,.08-.24,.02-.09,.02-.18,.01-.28-.06-.01-.12,0-.18,.03Z" fill="#fff"/><polygon points="197.66 298.26 198.11 299.01 199.04 298.27 198.57 297.53 197.66 298.26" fill="#fff"/><path d="M230.03,322.65h.46l-.46-.74h-.26c-.03,.45,.02,.74,.25,.74Z" fill="#fff"/><path d="M227.27,309.2l.47-.76,.03,.02c.01-.11,0-.22-.02-.32s-.06-.2-.11-.27c-.05-.08-.11-.13-.18-.16-.07-.03-.13-.03-.2,0-.35,.04-.68,.31-.91,.74l.91,.77Z" fill="#fff"/><path d="M233.9,306.26c.16,0,.23,.24,.23,.74h.46l-.91-1.51c0,.49,.07,.76,.22,.76Z" fill="#fff"/><polygon points="214.18 313.93 212.81 313.93 210.97 315.4 211.88 316.15 214.18 314.68 214.18 313.93" fill="#fff"/><path d="M214.41,310.72c-1.18,.01-1.8,.67-1.83,2.14l1.38,2.24,.45-4.38Z" fill="#fff"/><path d="M238.19,203.26l.91,.75,.23-.13,.22,.13v1.5h2.3v-.75c0-.1,0-.21-.02-.3-.02-.1-.06-.19-.1-.26-.04-.07-.1-.13-.16-.16-.06-.03-.12-.04-.19-.03-.35-.04-.68-.31-.91-.75l-1.11,.61-1.18-.62Z" fill="#fff"/><polygon points="223.54 167.64 224.13 168.09 224.83 166.86 223.54 165.51 223.65 165.98 223.54 167.64" fill="#fff"/><polygon points="217.4 164.16 216.81 163.73 216.27 165.66 217.45 166.53 217.4 164.16" fill="#fff"/><polygon points="222.9 164.85 223.54 165.51 223.33 164.59 222.9 164.85" fill="#fff"/><polygon points="230.49 180.99 231.78 180.22 233.18 177.79 232.17 177.61 230.33 180.3 230.49 180.99" fill="#fff"/><polygon points="198.75 323.53 199.07 324.93 200.79 323.89 199.46 322.3 198.75 323.53" fill="#fff"/><path d="M199.8,317.32l.11-1.65-3.02,1.82c.95-.38,1.94-.44,2.91-.17Z" fill="#fff"/><polygon points="185.31 305.16 183.55 303.84 184.03 305.93 185.21 306.82 185.31 305.16" fill="#fff"/><polygon points="222.41 196.29 222.72 197.68 224.45 196.64 223.11 195.05 222.41 196.29" fill="#fff"/><path d="M223.45,190.07l.11-1.65-3.02,1.82c.95-.38,1.94-.44,2.91-.17Z" fill="#fff"/><polygon points="210.66 202.53 210.06 202.1 209.53 204.03 210.7 204.91 210.66 202.53" fill="#fff"/><path d="M192.04,192.05l-.13,.27,.16,.02c.1,1.91,.38,3.79,.82,5.58l.98-2.17,.22-3.32-1.98-.1-.06-.27Z" fill="#fff"/><polygon points="216.16 203.22 216.8 203.88 216.59 202.96 216.16 203.22" fill="#fff"/><path d="M210.32,194.62c-.16,.12-.3,.28-.42,.49-.12,.21-.21,.45-.27,.72l.91,1.85,1.54-3.13h-.3c-.47-.3-.99-.27-1.45,.07Z" fill="#fff"/><polygon points="208.97 177.91 207.21 176.59 207.68 178.68 208.86 179.58 208.97 177.91" fill="#fff"/><polygon points="234.13 308.49 234.72 308.95 235.43 307.71 234.14 306.37 234.24 306.84 234.13 308.49" fill="#fff"/><polygon points="216.95 254.89 216.36 254.45 215.82 256.38 216.99 257.26 216.95 254.89" fill="#fff"/><path d="M176.77,281.61c.33,.1,.66,.2,.99,.3l.34-.77,.22-3.32-1.98-.1-.06-.27-.13,.27,.16,.02c.07,1.31,.23,2.61,.46,3.87Z" fill="#fff"/><polygon points="233.5 305.71 234.14 306.37 233.93 305.45 233.5 305.71" fill="#fff"/><polygon points="172.86 287 174.14 286.22 175.55 283.79 174.53 283.61 172.7 286.3 172.86 287" fill="#fff"/><polygon points="199.6 279.08 198.73 278.63 198.18 281.48 199.77 280.74 199.6 279.08" fill="#fff"/><polygon points="198.33 265.9 197.74 266.38 197.91 268.04 199.36 267.21 199.06 267.06 198.33 265.9" fill="#fff"/><polygon points="216.76 273.07 218.48 271.61 217.17 270.94 216.02 271.91 216.76 273.07" fill="#fff"/><path d="M235.9,320.28l-1.47-2.33-.55,2.85,.74,1.16c1.32-.33,2.53-1.36,3.45-2.92l.09-5.45-1.01,.26-1.25,6.43Z" fill="#fff"/><polygon points="187.58 266.65 187.17 268.78 187.49 272.08 188.2 270.88 188.02 266.88 187.58 266.65" fill="#fff"/></g><path d="M212.34,319.8h-6.15v.4c.44,.79,.88,1.19,1.32,1.19h9.23c.73,0,2.05-.26,3.96-.79v-.79l-5.71-.79c-.95,.53-1.83,.79-2.64,.79Z" fill="#fff"/><path d="M190.36,319.4c-.51,.26-1.1,.4-1.76,.4h-.88c-.66,0-1.25-.13-1.76-.4-2.34,.26-3.52,.66-3.52,1.19v.4l.44,.79c.66,0,1.24-.13,1.76-.4,.51,.26,1.1,.4,1.76,.4h4.83c.88-.4,1.32-.79,1.32-1.19,0-.46-.73-.86-2.2-1.19Z" fill="#fff"/><path d="M176.3,215.38c.51,1.58,.95,2.37,1.32,2.37h10.11l1.32-.79c0-7.38,.29-13.58,.88-18.59-.29,0-.44-.13-.44-.4s.15-.4,.44-.4c0-6.33,4.83-9.49,14.5-9.49,3.52,.13,5.27,.53,5.27,1.19,3.96,0,6.88,3.69,8.79,11.08,0,.79-.15,1.19-.44,1.19,0,7.15-1.33,12.88-3.94,17.22l1.36-1,.59,2.41-.19,.49s.1-.01,.15,0l.08,.2c.1-.01,.19,.01,.28,.07,.09,.06,.17,.15,.23,.27,.06,.12,.11,.26,.13,.41,.02,.15,.02,.31,0,.47l-1.37-.09-.18,.47-1.29-2.42,.06-1.01c-.5,.81-1.03,1.59-1.63,2.3,0,.26,.15,.66,.44,1.19,0,.4-.59,.79-1.76,1.19l.88,1.19v1.98h-1.76c-1.58,1.21-3.03,2.19-4.35,2.93-.84,.87-1.66,1.76-2.43,2.69-.68,1.23-1.53,2.37-2.47,3.33-.16,.16-.34,.24-.53,.27,.07,.35,.12,.71,.12,1.06,0,.14-.03,.32-.07,.52,4.04,1.89,8.08,3.75,12.13,5.6,.28-.46,.56-.91,.85-1.37,.28-.56,.57-1.11,.88-1.66l-.64-1.88,.86-2.32,2.95-.99-.13,2.11c.26-.34,.64-.43,.99-.33,.46-1.08,1.09-2.17,1.95-3.25,3.81-6.33,5.71-9.89,5.71-10.68l-.88-1.19,1.32-1.58c.29,0,.44,.13,.44,.4,1.84-2.63,3.44-7.37,4.8-14.19-1.48-.75-2.81-2.1-3.87-3.94l.32-2.61,2.8-1.47-.66,5.2,2.14-1.12c.21-1.28,.42-2.62,.62-4.02-.29-.99-.73-5.6-1.32-13.84,.29,0,.44-.13,.44-.4-.24-1.75-.52-3.4-.84-4.99l-.54,2.51-1.96-3.66,.93-3.45,.76,.92c-1.15-4.57-2.65-8.41-4.51-11.5-4.59-6.25-9.36-10.1-14.29-11.57-10.49,5.32-20.93,10.81-31.26,16.49-2.45,5.43-3.67,10.26-3.67,14.46v2.37l-.44,1.98c.29,0,.44,.13,.44,.4h-.44l.44,1.98v2.37c0,.59-.15,1.12-.44,1.58,.29,.46,.44,.99,.44,1.58v17.8l-.44,1.98Zm46.64-23.68l1.77,1.51,.56,3.33-2.64-2.23,.32-2.61Zm-.57,33.12l-.07,1.19-.65-1.24,.72,.05Zm-2.84-61.43l1.96,3.64-2.74-2.51,.79-1.12Zm-9.84,2.95v.79h-.88c0-.46,.29-.73,.88-.79Zm-4.13,7.57l-4.9,2.58,.33-2.58c1.49,.51,3.05,.51,4.58,0Zm-2.75-11.88l.37,2.22-1.22,1.88-1.95-2.62,2.8-1.47Zm-10.37,7.14l1.96,3.66-.15,2.53-2.1-1.33,.29-4.86Zm-12.19,24.46v-.79h.88c0,.53-.29,.79-.88,.79Zm-.4-4.26c-.12-.39-.2-.82-.21-1.26-.02-.44,.02-.9,.11-1.33,.26-1.24,.8-2.3,1.51-2.94l.33-.58,.55,6.18-2.29-.08Zm5.67-21.07l.79-1.12c0,.45,.04,.89,.14,1.3,.1,.41,.25,.78,.44,1.08l-1.5,1.1,.14-2.36Zm0,27.7v.4h-.44c0-.4-.29-.92-.88-1.58h.88c0,.26,.15,.66,.44,1.19Zm-1.76-13.45c0-.46,.29-.73,.88-.79v1.19h-.88v-.4Zm-6.33,.39l.82-5.02h-.15l.07-1.18,.3-.17,.08-.47,.17,.33,3.18-1.79,1.36,1.26-3.02,2.15-.68-.04,.94,1.74c-.19,2.3-1.21,3.28-3.07,3.19l-.02,.15-.04-.15s.04,0,.07,0Zm1.06,1.19v.79h-.44c-.51,0-.81-.26-.88-.79h1.32Z" fill="#fff"/><path d="M186.28,263.17c7.84-4.61,15.66-9.27,23.46-13.95,.37-1.48,1.05-2.91,1.77-4.22-3.93-1.8-7.86-3.61-11.78-5.44-.87,2.06-2.53,5.2-4.98,9.44-3.57,5.18-6.53,9.98-8.93,14.44,.15-.09,.3-.18,.46-.27Zm13.19-11.74l.11,2.63-.96,.7-1.05-1.88-.45-.27,2.35-1.18Z" fill="#fff"/><path d="M214.97,304.77c1.68,0,4.03,.13,7.03,.4,2.05-.26,3.81-.4,5.27-.4,2.12,.26,3.3,.4,3.52,.4,.4-.9,.66-2.31,.79-4.21-.95-.3-1.89-.6-2.84-.9l-.02,.34h-1.98l.22-.91c-3.33-1.06-6.66-2.11-9.99-3.17-.77,.65-1.54,1.32-2.29,2.04l.94-2.47c-.37-.12-.74-.23-1.1-.35-.14,.05-.27,.09-.42,.14-.88,0-1.91-.26-3.08-.79,0-.14,.07-.27,.2-.39-3.75-1.19-7.5-2.38-11.25-3.57l-2.14-.39c0,.26-.44,.53-1.32,.79-.88,0-2.05-.4-3.52-1.19,0-.35,.52-.67,1.52-.94-.57-.18-1.14-.36-1.71-.53-.8,.68-1.61,1.42-2.45,2.27-.51,0-.81-.26-.88-.79v-2.52c-3.88-1.22-7.75-2.44-11.64-3.64-.74,3.5-1.11,7.67-1.11,12.49v.79l.44,.79c.66,0,1.24-.13,1.76-.4,.29,0,.73,.13,1.32,.4l2.2-.4,5.27,.79c0,.4-.59,.79-1.76,1.19-.66,0-1.25-.13-1.76-.4l-2.64,.4h-3.08l-.88-.4c0,.53-.29,.79-.88,.79,.59,4.35,1.02,6.86,1.32,7.52l.88-.4c.8,0,1.68,.26,2.64,.79l2.64-.4h3.96l2.2,.4v-.4c0-.66-.88-1.05-2.64-1.19h-4.4c-.51,0-.81-.26-.88-.79l.44-.79c6.88,.26,10.69,.53,11.43,.79,0-.26,.15-.4,.44-.4,1.46,.2,2.2,.59,2.2,1.19-.59,0-1.61,.53-3.08,1.58h-2.64v.79c.95,0,1.68-.13,2.2-.4,3,.26,5.35,.4,7.03,.4h25.93l3.08,.4v.4l-3.08,.4h-2.2c-4.51,0-9.62,.11-15.32,.33l.4,.77-1.21,.87v.03c1.45,.25,2.29,.37,2.51,.37,.29,0,1.47-.13,3.52-.4l2.2,.4c0,.53-1.17,.92-3.52,1.19l-3.08-.4-4.4,.4-1.76-.4c-1.91,.26-3.81,.4-5.71,.4h-3.08v-.4l7.91-1.19c1.54,.26,2.42,.4,2.64,.4l2.64-.4,.09,.02,.04-.03,.44-1.62c-.48,.02-.96,.04-1.44,.06-.22,0-1.1-.13-2.64-.4-1.83,.26-3.88,.4-6.15,.4h-7.03c-.73,0-2.05-.26-3.96-.79l-1.76,.79c-1.69-.33-3.3-.86-4.83-1.58-.51,0-.81,.26-.88,.79-.29,0-.73-.13-1.32-.4h-.44v.4l.44,.79,.88-.4h.44v.4c0,.53-.29,.79-.88,.79,0,1.58,.29,2.37,.88,2.37h2.2l.88-.4c0,.26,1.02,.4,3.08,.4,0,.53-1.17,.92-3.52,1.19-.51-.26-1.1-.4-1.76-.4-.51,0-.81,.26-.88,.79,0,1.38,.59,2.31,1.76,2.77l1.76-1.19c.81,0,1.68,.26,2.64,.79,4.76-.2,7.4-.59,7.91-1.19h1.76c1.46,0,3.08,.53,4.83,1.58,1.98-.26,3.59-.4,4.83-.4h7.03c3.59,.79,6.08,1.19,7.47,1.19l.88-.4,.88,.4c1.32,0,2.64-.4,3.96-1.19,0-.59,.73-1.38,2.2-2.37v-1.19h-3.08l-4.39,.4c-1.17-.79-1.76-1.32-1.76-1.58v-.4c.06,0,.15-.03,.22-.04-.46-.42-.98-.65-1.52-.62l.79-1.15,1.38,1.29-.02,.31c.15-.06,.29-.1,.47-.18,.59,.26,1.03,.4,1.32,.4h2.64c4.69,0,7.03-1.32,7.03-3.95v-.4c-7.91-.86-11.87-1.52-11.87-1.98h-.44l-2.2,1.58c-1.47-.53-4.1-.79-7.91-.79h-3.96l-5.27,.4c0-.26-.29-.4-.88-.4v-.4c3.15-.79,5.05-1.19,5.71-1.19h4.4l.88-.4v.4c3.66-.26,5.57-.4,5.71-.4Zm13.62-2.77h.88v.4h-.88v-.4Zm-3.08-2.37c0,.53-.29,.79-.88,.79-.51,0-.81-.26-.88-.79h1.76Zm-10.99-1.19c.29,0,.73-.13,1.32-.4,2.05,.26,3.08,.66,3.08,1.19-1.32,0-2.2,.13-2.64,.4,0-.46-.59-.73-1.76-.79v-.4Zm-32.52-2.77h-2.2v-.79h2.2v.79Zm-.88,10.28l-1.76-.4v-.79h.88c.59,0,.88,.26,.88,.79v.4Zm7.03-3.56c-2.71,0-5.2,.26-7.47,.79l-3.08-.4,.88-1.19c1.03,0,2.34,.13,3.96,.4l.88-.4v.4h4.83v.4Zm-1.32-6.33c0-.26-.44-.4-1.32-.4,0-.46,.73-.86,2.2-1.19,1.76,.26,2.64,.66,2.64,1.19-1.17,0-2.34,.13-3.52,.4Zm5.27,18.19c-.29,0-.73-.13-1.32-.4l-2.64,.4h-.44c-.51,0-.81-.26-.88-.79l3.08-.4h1.76l.88,.4-.44,.79Zm26.81,1.98h1.76c.59,0,.88,.26,.88,.79-.29,0-.73,.13-1.32,.4-.59-.26-1.03-.4-1.32-.4v-.79Zm-20.22-17.01s-.05,.01-.08,.01c-.56,.72-1.15,1.46-1.8,2.24-.35,.49-.73,.91-1.13,1.27,.12,.01,.25,.04,.37,.04v.4c-.29,0-.73,.13-1.32,.4-.03-.02-.06-.04-.09-.06-.52,.3-1.06,.5-1.6,.59l-.66-1.24,.02-.4c-.25-.04-.49-.07-.75-.07v-.79h.8l.06-.99,2.33-1.19c-.95-.13-2.01-.33-3.18-.59v-.4h4.83l.21,.04,4.02-2.06c-.6,.85-1.29,1.76-2.04,2.73v.08Zm2.64,0c-.59,0-1.32,.53-2.2,1.58v-1.58c.29,0,.73-.13,1.32-.4h.88v.4Zm9.67-1.19h.88v.4h-.88v-.4Zm-3.52,1.19h-1.76c-.51,0-.81-.26-.88-.79h3.52c0,.53-.29,.79-.88,.79Zm-2.64-3.96v-.79h.44c.81,0,1.68,.26,2.64,.79,.51-.26,1.1-.4,1.76-.4h.88v1.19c-.29,0-.73,.13-1.32,.4-2.93,0-4.4-.4-4.4-1.19Z" fill="#fff"/><path d="M178.3,282.07c.36,.11,.72,.22,1.07,.33v-.18h1.32v.4h-.6c.85,.26,1.7,.52,2.55,.78,.2-.6,.56-1,1.12-1.17h.44l.88,.4c-.47,.46-.81,.86-1.03,1.21,1.91,.59,3.81,1.18,5.72,1.78,1.2-6.25,4.46-13.7,9.82-22.37,2.51-3.94,4.85-7.2,7.01-9.8-7.48,4.47-14.97,8.91-22.48,13.32-1.17,2.36-2.17,4.63-2.98,6.77v.4c2.34,.26,3.52,.66,3.52,1.19-1.17,0-2.34,.13-3.52,.4-1.18,1.76-2.12,3.95-2.83,6.57Zm7.23-3.81h1.76v.4h-1.76v-.4Z" fill="#fff"/><path d="M194.73,287.15c1.56,.49,3.11,.98,4.66,1.48,2.51,.22,3.99,.69,4.43,1.4,4.17,1.32,8.34,2.65,12.5,3.98l1.05-2.78c.91-.51,1.86-.7,2.79-.58l.95-.12c.88,0,1.32,.26,1.32,.79-.1,0-.24,.04-.37,.07,.31,.2,.61,.43,.89,.71-.66,.37-1.31,.78-1.95,1.2h.55l2.2,.4v.4c0,.53-.29,.79-.88,.79h-2.64l-1.26-.16s-.09,.07-.13,.1c2.98,.95,5.97,1.9,8.95,2.85l.77-.41c-2.63-.26-3.94-.66-3.94-1.18,.66,0,1.24-.13,1.76-.4,0,.33,.88,.59,2.64,.79l-.43,.78,.32-.17-.06,.93c.93,.3,1.86,.59,2.79,.89,0-.28,0-.55,0-.85v-.4c0-.53-.44-.79-1.32-.79v-.4c0-.53,.59-.79,1.76-.79v-.4l-.88-1.19-3.08,.4h-.88v-.79l2.2-.4h2.64v-.4c0-.59-.15-1.12-.44-1.58,.29-.46,.44-.99,.44-1.58v-13.43c-.14,.27-.29,.52-.47,.74l.04,.2-1.01-.06,1.08-1.65,.36-.56v-12.54c0-.72-.29-1.52-.88-2.37-5.35,.26-8.72,.4-10.11,.4-1.17,0-1.76,1.32-1.76,3.96,.29,0,.44,.13,.44,.4,0,13.45-3.66,20.17-10.99,20.17-.95,0-3.44-.13-7.47-.4-2,0-4.21,.86-6.62,2.56Zm30.05-4.03l-.48-.83,.54-.82-.06,1.65Zm1.18,7.4h1.73c.07-.37,.15-.74,.27-1.09,.2-.57,.46-1.08,.77-1.5,.22-.3,.48-.52,.75-.66,.27-.14,.55-.19,.83-.15l.95,1.66-.11,3.31-3.36-.78h-1.83v-.79Zm-2.64-21.75h1.76v.79h-2.64c0-.46,.29-.72,.88-.79Zm-.85,14.76l2.03,2.5-2.48,1.76c.56,.08,.86,.33,.86,.75l-1.76-.4v-.4h.21l-1.08-3.16,2.22-1.06Zm-2.67,4.22v.79h-.88c0-.46,.29-.72,.88-.79Zm-14.06-.4h.44l3.08,.79-1.32,2.37c-.37,0-1.1-.79-2.2-2.37v-.79Z" fill="#fff"/><path d="M208.41,151.76c-.45-.04-.9-.06-1.35-.06,0,.26-.15,.4-.44,.4,0-.26-.15-.4-.44-.4h-.44c-9.16,0-16.34,3.3-21.54,9.89-.88,1.51-1.68,2.97-2.41,4.4,8.8-4.86,17.66-9.62,26.61-14.23Z" fill="#fff"/></g></g></svg>