<?xml version="1.0" encoding="UTF-8"?><svg id="Layer_1" xmlns="http://www.w3.org/2000/svg" viewBox="0 0 169.09 126.47"><g><path d="M162.17,24.52c-.72-.94-1.87-1.28-3.29-1.28-3.08,.02-6.15,0-9.23,0-.2,0-.4,.02-.59,.03-.02,.07-.04,.11-.04,.15,.09,4.23-4.6,7.73-10.46,7.64-6.25-.1-12.51-.02-18.77-.02-.61,0-1.21,0-1.82,0v1.03c-.38,0-.52-.27-.43-.79h.03c0-.08,.02-.16,.03-.24-1.78,0-3.55,0-5.33,0l.37,.37-.53,1.05-1.05-1.05,.18-.37c-1.85,0-3.69,0-5.54-.04-4.11-.06-7.64-2.03-8.98-4.95-.41-.89-.54-1.84-.81-2.81-2.69,0-5.48,.06-8.26-.02-2.24-.07-4.14,.18-5.14,1.9v1.29c.93,1.37,2.2,2.54,3.68,3.58,4.89,3.46,10.85,5.38,17.24,6.63,2.52,.49,5.06,.85,7.63,1.11,0-.02-.02-.03-.02-.05l.03,.02,.79-.78,.13,.9c.36,.03,.72,.06,1.07,.09l-.08-.08,.26-.26,.42,.28,.04-.15c.52,0,.78-.09,.78-.26s.09-.26,.27-.26l.15,.31c.22,.04,.37,.1,.37,.22h-.26l-.11-.22c-.14-.03-.28-.04-.42-.04v.57c1.33,.09,2.66,.15,4,.19,5.52,.16,11,.03,16.43-.57l-.42-1.24,.79-1.31,.79,1.31c0,.34-.1,.67-.29,.95-.05,.08-.11,.15-.17,.22,1.33-.16,2.67-.35,3.99-.57,1.9-.31,3.77-.69,5.59-1.14-.27-.06-.36-.32-.28-.77h.03c.03-.38,.16-.75,.4-1.05v1.79c.35-.09,.7-.18,1.05-.27l-.2-.2h.22l.03,.19c3.33-.9,6.51-2.07,9.46-3.65,2.35-1.26,4.44-2.72,6.02-4.55,.78-.91,.97-1.85,.23-2.82Zm-72.61,5.18v-.26s.07,0,.1,.02c.03,.01,.06,.03,.08,.06,.02,.02,.04,.05,.05,.09,0,.03,.01,.06,0,.1h-.23Zm.76-2.36l.26-.26,.52,.26-.26,.26-.52-.26Zm1.31,2.63l-.53-.52h1.05l-.52,.52Zm1.23-1.81c-.05,.09-.11,.17-.19,.24l-.26-.53,.26-.52c.08,.06,.14,.14,.19,.23,.05,.09,.07,.19,.08,.29,0,.1-.04,.2-.08,.29Zm3.5-.55l-.27-.26c.15-.13,.24-.3,.26-.5v-.03l.27,.26-.26,.52Zm3.96,7.62c-.38,0-.52-.27-.43-.79h.03c.03-.38,.16-.75,.4-1.05v1.84Zm.84-.53h.22l.04,.26-.26-.26Zm.18-2.1h-.26l-.53-.52v-1.31l1.05-.26,.26,.52-.52,1.57Zm1.34,2.63l-.26-.27h.26v.27Zm8.46-.27l-.26-.26h.52l-.26,.26Zm15.48,1.45l-.27-.27,.79-.78,.26,.52-.78,.53Zm2.63-1.19c-.25-.16-.45-.4-.56-.68l.03,.02,.79-.78,.26,1.83c-.15-.16-.33-.29-.52-.39Zm1.1-2.17c-.03,.1-.09,.2-.17,.27s-.17,.13-.27,.17c-.1,.03-.21,.04-.32,.03-.11,0-.21-.03-.31-.08-.1-.05-.18-.12-.25-.2h.03c-.02-.09,0-.2,.03-.31,.03-.1,.09-.2,.17-.27s.17-.13,.27-.17c.1-.03,.21-.04,.32-.03,.35,0,.52,.08,.52,.26,.02,.11,0,.22-.03,.32Zm2.32,1.52l-.11-.22c-.14-.03-.28-.04-.42-.04v1.31h-1.05l.26-1.05c.52,0,.78-.09,.78-.26s.09-.26,.27-.26l.15,.31c.22,.04,.37,.1,.37,.22h-.26Zm13.7-1.31h-.26l-.53-.52v-1.31l1.05-.26,.26,.52-.52,1.57Zm1.63-3.36c-.03,.1-.09,.2-.17,.27-.08,.08-.17,.13-.27,.17-.1,.03-.21,.04-.32,.03-.11,0-.21-.03-.31-.08-.1-.05-.18-.12-.25-.2h.03c-.02-.09,0-.2,.03-.31,.03-.1,.09-.2,.17-.27,.08-.08,.17-.13,.27-.17,.1-.03,.21-.04,.32-.03,.35,0,.52,.08,.52,.26,.02,.11,0,.22-.03,.32Zm1.53-2.15c0-.58,.12-.98,.36-1.2l-.28,.14-.53-.26c.07-.08,.15-.14,.24-.18,.09-.04,.19-.07,.29-.08,.2,.02,.39,.11,.52,.26l-.04,.02,.75,.25c-.49,.28-.93,.63-1.31,1.05Zm2.7-.53v-.26s.07,0,.1,.02c.03,.01,.06,.03,.08,.06,.02,.02,.04,.05,.05,.09,0,.03,.01,.06,0,.1h-.23Zm.76-2.36l.26-.26,.52,.26-.26,.26-.52-.26Zm1.31,2.63l-.53-.52h1.05l-.52,.52Zm1.23-1.81c-.05,.09-.11,.17-.19,.24l-.26-.53,.26-.52c.08,.06,.14,.14,.19,.23,.05,.09,.07,.19,.08,.29,0,.1-.04,.2-.08,.29Zm3.5-.55l-.27-.26c.15-.13,.24-.3,.26-.5v-.03l.27,.26-.26,.52Z" fill="#fff"/><path d="M149.33,44.99c-1.67,12.05-12.27,23-26.75,23-14.53,0-25.16-11.05-26.74-23,8.74,2.69,17.68,3.63,26.75,3.63,9.05,0,17.97-.94,26.74-3.63Z" fill="#610b0e"/><path d="M147.46,12.05c-.58-1.87-1.28-3.68-2.24-5.33l-.15-.15s.03-.03,.04-.04c-.65-1.09-1.42-2.11-2.36-3.03-3.69-3.62-9.31-4.5-14.34-2.34-2.19,.94-4.1,2.29-5.75,3.95-.27-.21-.54-.43-.79-.64h0l-.6-.3,.11-.11c-.62-.51-1.23-1-1.88-1.42-4.06-2.59-8.39-3.5-13.03-1.75-3.99,1.51-6.26,4.69-7.82,8.46-.79,1.93-1.37,3.9-1.8,5.92,.36-.04,.54-.13,.54-.28,0-.2,.1-.3,.31-.3l.18,.35c.25,.04,.42,.12,.42,.25h-.3l-.12-.25c-.16-.03-.32-.05-.48-.05v1.5h-.78c-.32,1.71-.54,3.45-.72,5.19-.16,1.58-.25,3.14,.35,4.64,1.3,3.27,4.01,5.1,7.6,5.1,12.5,0,24.99,0,37.49,0,.27,0,.55,0,.82-.03,4.37-.35,7.66-4.02,7.29-8.23-.32-3.77-.84-7.5-1.97-11.13Zm-43.35,5.35v.3h-.31l.31-.3Zm-1.87-5.1l.3,.3-.9,.9,.6-1.2Zm-.9,5.41c.23,.02,.45,.12,.61,.3l-.3,.61-.61-.31,.3-.6Zm-.87,12.03h.26l.04,.3-.3-.3Zm2.07-6.25c-.04,.12-.1,.22-.19,.31-.09,.09-.19,.15-.31,.19-.12,.04-.24,.05-.36,.03-.12,0-.24-.04-.35-.09-.11-.06-.21-.13-.29-.23h.04c-.02-.11,0-.23,.03-.35,.04-.12,.11-.22,.19-.31,.09-.09,.19-.15,.31-.19,.12-.04,.24-.05,.36-.03,.4,0,.6,.09,.6,.3,.02,.12,0,.25-.03,.36Zm1.84-3.68l-.61-.3c.08-.09,.17-.16,.27-.21,.1-.05,.22-.08,.33-.09,.23,.02,.45,.12,.6,.3l-.6,.3Zm.53-4.6c-.06,.06-.13,.09-.21,.09v-.6c.08,0,.16,.03,.21,.09,.06,.06,.09,.13,.09,.21s-.03,.16-.09,.21ZM138.1,2.37l.9,.3c-.56,.32-1.07,.72-1.5,1.2,0-.8,.19-1.31,.6-1.5Zm-.25,6.91h-.26v-.3s.08,0,.11,.02c.03,.02,.07,.04,.09,.07,.02,.03,.04,.06,.05,.1,.01,.04,.01,.07,0,.11Zm-3.96-6.01l-.61,.61-.9-.9,.6-.6,.9,.9Zm-1.45-2.11l.3,.3-.9,.9,.6-1.2Zm-.9,5.41c.23,.02,.45,.12,.61,.3l-.3,.61-.61-.31,.3-.6Zm-3.37-2.97v-.03l.31,.3-.3,.6-.31-.3c.17-.15,.27-.35,.3-.57Zm-7.78,2.98s.08,0,.11,.02c.03,.02,.07,.04,.09,.07,.02,.03,.04,.06,.05,.1,.01,.04,.01,.07,0,.11h-.26v-.3Zm-.94,8.12l.3,.3-.9,.9,.6-1.2Zm-.9,5.41c.23,.02,.45,.12,.61,.3l-.3,.61-.61-.31,.3-.6Zm-4.21-15.94c.23,.02,.45,.12,.61,.3l-.3,.61-.61-.31,.3-.6Zm-6.68,16.25h-.26v-.3s.08,0,.11,.02c.03,.02,.07,.04,.09,.07,.02,.03,.04,.06,.05,.1,.01,.04,.01,.07,0,.11Zm.54-6.03s-.07-.03-.1-.06-.05-.06-.06-.1c-.01-.04-.02-.08-.01-.12l.3-.31s0,.08,.01,.12c.01,.04,.03,.08,.06,.1,.03,.03,.06,.05,.1,.07,.04,.01,.08,.02,.12,.01,0,.04,0,.08-.01,.12-.01,.04-.04,.07-.06,.1-.03,.03-.06,.05-.1,.06-.04,.01-.08,.02-.12,.01-.04,0-.08,0-.12-.01Zm.07,3.32l.3-.3,.6,.3-.3,.3-.6-.3Zm1.5,3.01l-.61-.6h1.2l-.6,.6Zm1.41-2.07c-.05,.1-.13,.2-.21,.27l-.3-.61,.3-.6c.09,.07,.16,.16,.21,.27,.05,.1,.08,.22,.09,.33,0,.12-.04,.23-.09,.33Zm.72,11.4l-.3-.3h.6l-.3,.3Zm.33-25.57l-1.2-.3,.9-.9,.9,.31-.6,.9Zm1.23,11.73h.26l.04,.3-.3-.3Zm1.72,1.81l-.31-.3c.17-.15,.27-.35,.3-.57v-.03l.31,.3-.3,.6Zm.35-8.06c-.04,.12-.1,.22-.19,.31-.09,.09-.19,.15-.31,.19-.12,.04-.24,.05-.36,.03-.12,0-.24-.04-.36-.09-.11-.06-.21-.13-.29-.23h.04c-.02-.11,0-.23,.03-.35,.04-.12,.11-.22,.19-.31,.09-.09,.19-.15,.31-.19,.12-.04,.24-.05,.36-.03,.4,0,.6,.09,.6,.3,.02,.12,0,.25-.03,.36Zm1.84-3.68l-.61-.3c.08-.09,.17-.16,.27-.21,.1-.05,.22-.08,.33-.09,.23,.02,.45,.12,.6,.3l-.6,.3Zm2.37,19.62s-.02,.04-.03,.06v.79c-.27,0-.43-.12-.49-.34-.11,.04-.23,.05-.35,.03-.12,0-.24-.04-.36-.09-.11-.06-.21-.13-.29-.23h.04c-.02-.11,0-.23,.03-.35,.04-.12,.11-.22,.19-.31,.09-.09,.19-.15,.31-.19,.12-.04,.24-.05,.36-.03,.08,0,.15,0,.21,.01,.08-.22,.18-.42,.33-.61v.74s.06,.09,.06,.16c.02,.12,0,.25-.03,.36Zm.54-8.47l-.9-.9,.6-.6,.9,.9-.61,.61Zm1.26,5.1l-.3,.3v-.3c0-.2,.09-.31,.3-.31v.31Zm-.56-.6c.08-.09,.17-.16,.27-.21,.1-.05,.22-.08,.33-.09,.23,.02,.45,.12,.6,.3l-.6,.3-.61-.3Zm1.44,4.82l-.3-.31h.3v.31Zm.33-19.56l-.61-.6h1.2l-.6,.6Zm1.41-2.07c-.05,.1-.13,.2-.21,.27l-.3-.61,.3-.6c.09,.07,.16,.16,.21,.27,.05,.1,.08,.22,.09,.33,0,.12-.04,.23-.09,.33Zm.42,11.1h.19c.09-.13,.19-.22,.32-.29l.9,.3c-.56,.32-1.07,.72-1.5,1.2,0-.47,.07-.83,.2-1.1l-.12-.12Zm.27,6.62h-.26v-.3s.08,0,.11,.02c.03,.02,.07,.04,.09,.07,.02,.03,.04,.06,.05,.1,.01,.04,.01,.07,0,.11Zm.61-2.71l.3-.3,.6,.3-.3,.3-.6-.3Zm1.5,3.01l-.61-.6h1.2l-.6,.6Zm1.41-2.07c-.05,.1-.13,.2-.21,.27l-.3-.61,.29-.58-.56,.28-.6-.61,.3-.3,.9,.61h-.02c.08,.08,.15,.17,.21,.27,.05,.1,.08,.22,.09,.33,0,.12-.04,.23-.09,.33Zm1.05-14.17l-1.2-.3,.9-.9,.9,.31-.6,.9Zm1.23,11.73h.26l.04,.3-.3-.3Zm1.72,1.81l-.31-.3c.17-.15,.27-.35,.3-.57v-.03l.31,.3-.3,.6Zm.35-8.06s-.02,.04-.03,.06v.79c-.27,0-.43-.12-.49-.34-.11,.04-.23,.05-.35,.03-.12,0-.24-.04-.35-.09-.11-.06-.21-.13-.29-.23h.04c-.02-.11,0-.23,.03-.35,.04-.12,.11-.22,.19-.31,.09-.09,.19-.15,.31-.19,.12-.04,.24-.05,.36-.03,.08,0,.15,0,.21,.01,.08-.22,.18-.42,.33-.61v.74s.06,.09,.06,.16c.02,.12,0,.25-.03,.36Zm1.14-2.16h-.3l-.61-.6v-1.5l1.2-.3,.17,.34c.07-.03,.15-.05,.23-.05,.23,.02,.45,.12,.6,.3l-.6,.3-.17-.08-.53,1.6Zm1.5,12.33h-.27v-.31s.08,0,.11,.02c.04,.02,.07,.04,.09,.07,.03,.03,.04,.06,.06,.1,.01,.04,.01,.08,0,.11Zm.04-9.32l-.3-.31h.3v.31Zm1.51,15.94c-.44,0-.59-.31-.49-.9h.04c.03-.44,.19-.85,.45-1.2v2.11Zm.57-9.32l-.9-.9,.6-.6,.9,.9-.61,.61Zm.97-13.24l.3-.3,.6,.3-.3,.3-.6-.3Zm1.17,22.57l-.3-.31h.3v.31Zm.33-19.56l-.61-.6h1.2l-.6,.6Zm1.41-2.07c-.05,.1-.13,.2-.21,.27l-.3-.61,.3-.6c.09,.07,.16,.16,.21,.27,.05,.1,.08,.22,.09,.33,0,.12-.04,.23-.09,.33Zm.34,12.31c0-.47,.07-.83,.2-1.1l-.12-.12h.19c.09-.13,.19-.22,.32-.29l.9,.3c-.56,.32-1.07,.72-1.5,1.2Z" fill="#610b0e"/><path d="M152.31,65.82c-1.84-1.8-3.67-3.59-5.52-5.4-2.15,2.15-4.37,4.37-6.6,6.58-.27,.27-.6,.52-.94,.66-2.05,.81-4.13,1.45-6.24,1.94l.14,.05-.85,.42-.28-.21,.08-.06c-2.63,.55-5.31,.86-8.04,.92-2.19,.04-4.36-.03-6.51-.25l.3,.22v.21l-.28,.41c-.15,.19-.35,.35-.6,.48s-.52,.21-.82,.25c-.58,.08-1.14,.18-1.7,.31h-.03c.87-.58,1.61-1.25,2.22-1.99-4.09-.49-8.08-1.5-11.95-3.16-2.28-.98-4.66,.24-5.24,2.62-.4,1.67,.19,3.01,1.52,4.08,2.92,2.33,5.83,4.67,8.75,7l.12-.08h.85l-.25,.66c1.64,1.31,3.28,2.62,4.92,3.92,1.96,1.55,3.98,3.04,5.97,4.55h1.63l-.28-.42,.28-.41,.57,.41-.57,.42h.91c.55-.36,1.13-.69,1.64-1.1,3.18-2.52,6.34-5.05,9.5-7.58,2.21-1.77,4.43-3.54,6.77-5.4,1.75,1.79,3.46,3.54,5.03,5.15,1.83-1.83,3.63-3.63,5.5-5.5-1.54-1.53-3.18-3.14-4.87-4.82,1.65-1.65,3.29-3.29,4.88-4.89Zm-3.65-.33l.56-.21c.19,0,.29,.14,.29,.42,.03,.43-.07,.85-.29,1.25l-.56-.83v-.62Zm-47.34,8.13l-.85-.62-.03,.02c.12-.22,.33-.41,.6-.54,.21-.08,.4-.19,.56-.31l-.28,1.46Zm3.28-.45l-.16,.24c-.19,0-.29-.07-.29-.21s-.28-.21-.84-.21l-.28-.83h1.13v1.04c.15,0,.3-.01,.45-.04l.12-.17h.28c0,.09-.16,.14-.4,.17Zm2.66-2.88c.34,.1,.62,.27,.82,.5,.2,.22,.31,.48,.31,.75l-.85,1.04-.85-1.04,.57-1.25Zm.48,6.28l-.57-.74,1.13-.74,.57,.74-1.13,.74Zm5.48,3.34l-.29-.18h.29v.18Zm4.62,1.44l-.85-.63,1.13-.21,.56,.62-.84,.21Zm1.68-8.97h-.24l.28-.21-.04,.21Zm.29,7.93l.57-.21,.28,.42c-.15,.12-.35,.2-.57,.21l-.28-.41Zm1.13,4.17l-.56-.84,.84,.63-.28,.21Zm.32-7.51c0,.14-.19,.21-.56,.21-.12,.01-.23,0-.34-.02-.11-.03-.21-.07-.29-.13-.08-.06-.14-.13-.18-.22-.04-.08-.05-.17-.03-.25h-.03c.07-.06,.17-.11,.27-.15,.1-.04,.22-.06,.33-.06,.12-.01,.23,0,.34,.02,.11,.03,.21,.07,.29,.13,.08,.06,.14,.14,.18,.22,.04,.08,.05,.17,.03,.25Zm1.13,8.62v.21s-.08,0-.11,0c-.04,0-.07-.02-.1-.04-.03-.02-.05-.04-.06-.07-.01-.03-.02-.06,0-.08v-.21s.08,0,.11,0c.04,0,.07,.02,.1,.04,.03,.02,.05,.04,.06,.07,.01,.03,.02,.05,.01,.08Zm.57-5.9c-.11,0-.22-.03-.31-.06-.1-.04-.19-.09-.26-.15l.57-.21,.56,.21c-.14,.12-.35,.2-.56,.21Zm1.13,7.57h0c-.38-.28-.56-.49-.56-.63,0-.14,.28-.42,.84-.84l.57,.84-.85,.63Zm1.94-8.33s-.03,.05-.05,.07c-.02,.02-.05,.04-.08,.05-.03,.01-.07,.02-.1,.02v-.21h.25s0,.05,0,.08Zm.87,2.01l-.28-.21,.56-.21,.28,.21-.56,.21Zm.56-1.88l.57-.41,.56,.41h-1.13Zm1.9,1.48c-.05,.07-.12,.13-.2,.19l-.28-.41,.28-.42c.08,.05,.15,.12,.2,.19,.05,.07,.08,.15,.09,.23,0,.08-.04,.16-.09,.23Zm.39-8.16l.28-.21,.28,.21h-.56Zm3.37,8.76v-.02c-.03-.15-.13-.29-.29-.39l.29-.21,.28,.41-.28,.21Zm4.27-5.21c-.25-.24-.4-.53-.43-.83h-.03c-.1-.41,.05-.63,.46-.63v1.46Zm1.38,2.29l-1.13-.21v-1.04l.57-.42h.28l.56,1.25-.28,.41Zm.88-10.22h.25s0,.05,0,.08c-.01,.03-.03,.05-.05,.07-.02,.02-.05,.04-.09,.05-.03,.01-.07,.02-.11,.02v-.21Zm.29,6.68h-.28l.28-.21v.21Zm1.67-2.92h-.28c-.27-.19-.48-.41-.63-.66-.15-.25-.22-.52-.22-.79,.07-.44,.26-.87,.57-1.25l.84,2.5-.28,.21Zm4.78,7.8s-.03,.05-.06,.07c-.03,.02-.06,.04-.09,.04s-.07,.01-.11,.01v-.21h.27s0,.06-.01,.08Zm.97-4.21c-.04,.08-.1,.16-.18,.22-.08,.06-.18,.11-.29,.13-.11,.03-.23,.04-.34,.02l-1.13-1.04,.28,.21h1.13l.57,.21c.02,.09,0,.17-.03,.25Z" fill="#610b0e"/><path d="M164.73,23.26c-3.57,.03-7.14,0-10.71,0-.23,0-.46,.03-.68,.04-.02,.11-.04,.17-.04,.23,0,.15,0,.3,0,.44l.24,.04c-.08,.02-.16,.05-.24,.08-.03,1.05-.21,2.07-.51,3.03l.37-.19,.95,.24-.48,.24-.87-.22c-1.53,4.77-6.13,8.25-11.6,8.14-3.04-.06-6.09-.08-9.13-.07-.57,.21-1.1,.44-1.57,.71,0-.28,.06-.51,.18-.7-2.1,0-4.2,.02-6.3,.03l.37,.19-.96,.49-1.31-.67c-1.02,0-2.04,0-3.06,0-5.45,0-10.9,.06-16.34-.04-2.93-.06-5.61-1.23-7.6-3.17l-1.39,.71,.95-.98,.36,.18c-1.21-1.21-2.16-2.7-2.74-4.4-.47-1.37-.63-2.85-.94-4.34-.14,0-.28,0-.41,0v.02h-.49l.04-.02c-2.86,.01-5.8,.08-8.73-.03-2.59-.1-4.8,.28-5.97,2.94v2c1.07,2.11,2.55,3.92,4.27,5.54,.2,.19,.4,.37,.6,.55l-.02-.02,.06,.02,1.44-.73,.48,1.7c-.28-.15-.6-.27-.95-.37-.26-.08-.49-.19-.68-.32,5.5,4.82,12.06,7.58,19.09,9.41,5.72,1.49,11.57,2.21,17.47,2.44,8.25,.32,16.44-.09,24.53-1.87,6.78-1.49,13.21-3.83,18.91-7.9,2.72-1.94,5.15-4.2,6.99-7.04,.91-1.41,1.13-2.86,.27-4.35-.84-1.45-2.17-1.99-3.81-1.97Zm-81.82,6.13l-1.92-.98,.96-.98,1.92,.98-.96,.98Zm5.28,4.87l-.2-.2c-.25-.03-.51-.04-.77-.04v1.22h-1.91l.48-.98c.95,0,1.43-.08,1.43-.24s.16-.24,.49-.24l.28,.28c.39,.04,.67,.09,.67,.2h-.48Zm9.77,1.71v.24h-.49l.49-.24Zm-4.4,.25c.37,.01,.72,.1,.96,.24l-.48,.49-.96-.25,.48-.48Zm1.91,4.68c-.06,.1-.17,.18-.3,.25-.14,.07-.31,.12-.5,.16-.19,.03-.39,.04-.58,.03-.2,0-.39-.03-.57-.07-.18-.04-.33-.11-.46-.19h.06c-.03-.09,0-.19,.05-.28,.06-.1,.17-.18,.31-.25s.31-.12,.5-.15c.19-.03,.39-.04,.58-.02,.64,0,.95,.08,.95,.24,.03,.1,.01,.2-.05,.3Zm2.93-2.98l-.96-.24c.12-.07,.27-.13,.43-.17,.17-.04,.35-.07,.53-.07,.37,.01,.71,.1,.95,.24l-.95,.24Zm5.21,.49h-.42v-.24c.06,0,.12,0,.17,.02,.05,.01,.1,.03,.14,.05,.04,.02,.07,.05,.09,.08,.02,.03,.02,.06,.01,.09Zm.98-2.19l.48-.24,.95,.24-.48,.24-.95-.24Zm2.39,2.44l-.96-.48h1.92l-.95,.48Zm2.25-1.68c-.08,.08-.2,.16-.34,.22l-.48-.49,.48-.48c.14,.06,.26,.13,.34,.22,.08,.08,.13,.17,.15,.27-.01,.09-.06,.19-.15,.27Zm6.38-.51l-.49-.24c.27-.12,.44-.28,.48-.46v-.02l.49,.24-.48,.48Zm5.36,1.7c.37,.01,.72,.1,.96,.24l-.48,.49-.96-.25,.48-.48Zm1.91,4.68s-.03,.04-.05,.06v.63c-.42,0-.68-.09-.78-.27-.18,.03-.37,.04-.56,.02-.2,0-.39-.03-.57-.07-.18-.04-.33-.11-.46-.19h.06c-.03-.09,0-.19,.05-.28,.06-.1,.17-.18,.31-.25,.14-.07,.31-.12,.5-.15,.19-.03,.39-.04,.58-.02,.13,0,.24,0,.34,.01,.12-.18,.3-.34,.52-.49v.6c.06,.03,.09,.08,.09,.13,.03,.1,.01,.2-.05,.3Zm2.87-2.73l-.48,.24v-.24c0-.17,.15-.25,.48-.25v.25Zm-.9-.49c.12-.07,.27-.13,.43-.17,.17-.04,.35-.07,.53-.07,.37,.01,.71,.1,.95,.24l-.95,.24-.96-.24Zm2.3,3.91l-.48-.25h.48v.25Zm3.87-3.18h-.42v-.24c.06,0,.12,0,.17,.02,.05,.01,.1,.03,.14,.05,.04,.02,.07,.05,.09,.08,.02,.03,.02,.06,.01,.09Zm.98-2.19l.48-.24,.95,.24-.48,.24-.95-.24Zm2.39,2.44l-.96-.48h1.92l-.95,.48Zm2.25-1.68c-.08,.08-.2,.16-.34,.22l-.48-.49,.46-.47-.9,.23-.95-.49,.48-.24,1.44,.49h-.04c.13,.07,.25,.14,.33,.22,.08,.08,.13,.17,.15,.27-.01,.09-.06,.19-.15,.27Zm3.64-1.98h.41l.07,.24-.48-.24Zm2.74,1.47l-.49-.24c.27-.12,.44-.28,.48-.46v-.02l.49,.24-.48,.48Zm4.77,1.71h-.43v-.25c.06,0,.12,0,.18,.02,.06,.01,.11,.03,.15,.06,.04,.02,.07,.05,.09,.08,.02,.03,.02,.06,.01,.09Zm3.37-2.19l-1.43-.73,.95-.48,1.44,.73-.96,.49Zm3.93-8.3l-.96-.48h1.92l-.95,.48Zm2.25-1.68c-.08,.08-.2,.16-.34,.22l-.48-.49,.48-.48c.14,.06,.26,.13,.34,.22,.08,.08,.13,.17,.15,.27-.01,.09-.06,.19-.15,.27Zm.54,9.98c0-.38,.11-.68,.32-.89l-.19-.1h.3c.14-.1,.31-.18,.52-.23l1.44,.24c-.9,.26-1.7,.59-2.39,.98Zm5.84-10.49l-.49-.24c.27-.12,.44-.28,.48-.46v-.02l.49,.24-.48,.48Z" fill="#610b0e"/></g><g><path d="M117.71,36.98c-.99-1.28-2.56-1.76-4.49-1.75-4.21,.02-8.41,0-12.62,0-.27,0-.55,.03-.8,.04-.03,.1-.05,.15-.05,.2,.13,5.79-6.3,10.57-14.3,10.44-8.55-.13-17.11-.03-25.67-.03-.83,0-1.66,0-2.49,0v1.41c-.52,0-.71-.37-.58-1.08h.04c0-.11,.03-.22,.05-.33-2.43,0-4.86,0-7.28,0l.5,.5-.72,1.44-1.44-1.44,.25-.5c-2.52,0-5.05-.01-7.57-.05-5.62-.08-10.45-2.77-12.28-6.77-.55-1.21-.74-2.52-1.11-3.84-3.68,0-7.5,.09-11.3-.03-3.06-.09-5.66,.25-7.03,2.6v1.77c1.27,1.87,3,3.47,5.03,4.9,6.69,4.73,14.83,7.35,23.57,9.07,3.44,.67,6.93,1.17,10.43,1.52-.01-.02-.02-.04-.03-.07l.04,.03,1.08-1.07,.18,1.23c.49,.04,.98,.09,1.47,.13l-.11-.11,.36-.36,.57,.38,.05-.2c.71,0,1.07-.12,1.07-.36s.12-.36,.37-.36l.21,.42c.3,.05,.51,.14,.51,.3h-.36l-.15-.3c-.19-.04-.38-.06-.58-.06v.78c1.82,.12,3.64,.2,5.47,.26,7.54,.22,15.04,.05,22.47-.78l-.57-1.7,1.08-1.79,1.08,1.79c0,.46-.13,.91-.39,1.3-.07,.11-.15,.2-.24,.3,1.82-.22,3.65-.47,5.46-.77,2.6-.43,5.15-.94,7.64-1.56-.37-.09-.49-.44-.39-1.06h.04c.04-.52,.22-1.02,.54-1.44v2.45c.48-.12,.96-.24,1.43-.37l-.28-.28h.31l.04,.26c4.56-1.23,8.9-2.84,12.93-5,3.21-1.72,6.07-3.72,8.24-6.22,1.07-1.24,1.33-2.53,.32-3.85Zm-99.29,7.09v-.36s.09,0,.13,.03c.04,.02,.08,.05,.11,.08,.03,.03,.05,.07,.06,.12,.01,.04,.02,.09,0,.13h-.31Zm1.05-3.23l.36-.36,.71,.36-.36,.36-.71-.36Zm1.79,3.59l-.72-.71h1.44l-.71,.71Zm1.68-2.48c-.06,.12-.15,.23-.26,.33l-.36-.72,.36-.71c.11,.09,.19,.2,.26,.32,.06,.12,.1,.26,.11,.39-.01,.14-.05,.27-.11,.4Zm4.78-.76l-.37-.36c.2-.17,.33-.42,.36-.68v-.03l.37,.36-.36,.71Zm5.42,10.42c-.52,0-.71-.37-.58-1.08h.04c.04-.52,.22-1.02,.54-1.44v2.52Zm1.15-.72h.31l.05,.36-.36-.36Zm.24-2.88h-.36l-.72-.71v-1.79l1.44-.36,.36,.71-.71,2.15Zm1.84,3.6l-.36-.37h.36v.37Zm11.57-.37l-.36-.36h.71l-.36,.36Zm21.17,1.98l-.37-.37,1.08-1.07,.36,.71-1.07,.72Zm3.59-1.62c-.35-.22-.62-.54-.77-.92l.04,.03,1.08-1.07,.36,2.51c-.21-.22-.45-.4-.71-.54Zm1.5-2.97c-.05,.14-.12,.27-.23,.37s-.23,.18-.37,.23c-.14,.05-.29,.06-.44,.04-.15,0-.29-.04-.42-.11-.13-.07-.25-.16-.34-.27l.04,.02c-.02-.15,0-.3,.04-.44,.05-.14,.13-.27,.23-.37s.23-.18,.37-.23c.14-.05,.29-.06,.44-.04,.48,0,.71,.11,.71,.36,.02,.15,0,.3-.04,.44Zm3.17,2.07l-.15-.3c-.19-.04-.38-.06-.58-.06v1.79h-1.43l.36-1.44c.71,0,1.07-.12,1.07-.36s.12-.36,.37-.36l.21,.42c.3,.05,.51,.14,.51,.3h-.36Zm18.74-1.8h-.36l-.72-.71v-1.79l1.44-.36,.36,.71-.71,2.15Zm2.23-4.59c-.05,.14-.12,.27-.23,.37-.1,.1-.23,.18-.37,.23-.14,.05-.29,.06-.44,.04-.15,0-.29-.04-.42-.11-.13-.07-.25-.16-.34-.27l.04,.02c-.02-.15,0-.3,.04-.44,.05-.14,.13-.27,.23-.37,.1-.1,.23-.18,.37-.23,.14-.05,.29-.06,.44-.04,.48,0,.71,.11,.71,.36,.02,.15,0,.3-.04,.44Zm2.09-2.95c0-.79,.16-1.34,.49-1.64l-.38,.19-.72-.36c.09-.1,.2-.19,.33-.25,.12-.06,.26-.1,.4-.11,.28,.02,.53,.15,.71,.36l-.05,.03,1.03,.34c-.67,.38-1.28,.87-1.79,1.44Zm3.7-.72v-.36s.09,0,.13,.03c.04,.02,.08,.05,.11,.08,.03,.03,.05,.07,.06,.12,.01,.04,.02,.09,0,.13h-.31Zm1.05-3.23l.36-.36,.71,.36-.36,.36-.71-.36Zm1.79,3.59l-.72-.71h1.44l-.71,.71Zm1.68-2.48c-.06,.12-.15,.23-.26,.33l-.36-.72,.36-.71c.11,.09,.19,.2,.26,.32,.06,.12,.1,.26,.11,.39-.01,.14-.05,.27-.11,.4Zm4.78-.76l-.37-.36c.2-.17,.33-.42,.36-.68v-.03l.37,.36-.36,.71Z" fill="#610b0e"/><path d="M100.15,64.97c-2.28,16.48-16.78,31.45-36.58,31.45-19.87,0-34.41-15.1-36.56-31.45,11.95,3.68,24.18,4.96,36.59,4.96,12.37,0,24.57-1.28,36.56-4.97Z" fill="#fff"/><path d="M97.6,19.94c-.79-2.55-1.75-5.03-3.07-7.29l-.21-.2s.04-.04,.05-.06c-.89-1.49-1.95-2.88-3.23-4.14-5.05-4.95-12.73-6.15-19.61-3.2-3,1.29-5.6,3.14-7.87,5.4-.37-.29-.73-.59-1.09-.88h0l-.82-.41,.15-.15c-.85-.7-1.68-1.37-2.57-1.94-5.55-3.54-11.48-4.79-17.82-2.39-5.46,2.07-8.56,6.41-10.69,11.57-1.09,2.63-1.87,5.34-2.46,8.09,.49-.05,.73-.18,.73-.39,0-.27,.14-.41,.42-.41l.24,.48c.34,.06,.58,.16,.58,.34h-.41l-.17-.34c-.22-.04-.44-.07-.66-.07v2.05h-1.07c-.43,2.34-.74,4.71-.99,7.1-.22,2.16-.34,4.29,.48,6.35,1.77,4.47,5.49,6.98,10.4,6.98,17.09,0,34.18,0,51.27,0,.37,0,.75,0,1.12-.04,5.98-.47,10.47-5.5,9.98-11.26-.44-5.15-1.15-10.26-2.7-15.22Zm-59.28,7.32v.41h-.42l.42-.41Zm-2.55-6.98l.41,.41-1.23,1.24,.82-1.65Zm-1.23,7.4c.32,.02,.62,.17,.83,.41l-.41,.83-.83-.42,.41-.82Zm-1.19,16.45h.35l.06,.41-.41-.41Zm2.83-8.55c-.05,.16-.14,.31-.26,.43-.12,.12-.26,.21-.42,.26-.16,.05-.33,.07-.5,.05-.17,0-.33-.05-.49-.13-.15-.08-.28-.18-.39-.31l.05,.02c-.02-.17,0-.34,.05-.5,.05-.16,.14-.31,.26-.42,.12-.12,.27-.21,.43-.26,.16-.05,.33-.07,.5-.04,.55,0,.82,.13,.82,.41,.02,.17,.01,.34-.04,.5Zm2.52-5.03l-.83-.41c.1-.12,.23-.22,.37-.29,.14-.07,.3-.11,.45-.12,.32,.02,.61,.17,.82,.41l-.82,.41Zm.73-6.3c-.08,.08-.18,.12-.29,.12v-.82c.11,0,.21,.04,.29,.12,.08,.08,.12,.18,.12,.29s-.04,.21-.12,.29ZM84.79,6.7l1.24,.41c-.77,.44-1.46,.99-2.05,1.65,0-1.1,.26-1.79,.82-2.05Zm-.34,9.44h-.36v-.41c.05,0,.1,.01,.15,.03,.05,.02,.09,.05,.12,.09,.03,.04,.06,.08,.07,.13,.01,.05,.02,.1,.01,.15Zm-5.42-8.22l-.83,.83-1.23-1.24,.82-.82,1.24,1.23Zm-1.98-2.89l.41,.41-1.23,1.24,.82-1.65Zm-1.23,7.4c.32,.02,.62,.17,.83,.41l-.41,.83-.83-.42,.41-.82Zm-4.61-4.06v-.04l.42,.41-.41,.82-.42-.41c.23-.2,.37-.48,.41-.78Zm-10.64,4.07c.05,0,.1,.01,.15,.03,.05,.02,.09,.05,.12,.09,.03,.04,.06,.08,.07,.13,.01,.05,.02,.1,.01,.15h-.36v-.41Zm-1.28,11.1l.41,.41-1.23,1.24,.82-1.65Zm-1.23,7.4c.32,.02,.62,.17,.83,.41l-.41,.83-.83-.42,.41-.82Zm-5.76-21.8c.32,.02,.62,.17,.83,.41l-.41,.83-.83-.42,.41-.82Zm-9.13,22.22h-.36v-.41c.05,0,.1,.01,.15,.03,.05,.02,.09,.05,.12,.09,.03,.04,.06,.08,.07,.13,.01,.05,.02,.1,.01,.15Zm.74-8.25c-.05-.02-.1-.05-.14-.09s-.07-.09-.09-.14c-.02-.05-.02-.11-.01-.17l.41-.42c0,.06,0,.11,.01,.17,.02,.05,.05,.1,.09,.14,.04,.04,.09,.07,.14,.09,.05,.02,.11,.03,.17,.02,0,.06,0,.11-.02,.16-.02,.05-.05,.1-.09,.14-.04,.04-.09,.07-.14,.09-.05,.02-.11,.02-.16,.02-.06,0-.11,0-.17-.01Zm.1,4.55l.41-.41,.82,.41-.41,.41-.82-.41Zm2.05,4.11l-.83-.82h1.65l-.82,.82Zm1.93-2.84c-.07,.14-.17,.27-.29,.37l-.41-.83,.41-.82c.12,.1,.22,.23,.29,.37,.07,.14,.11,.29,.13,.45-.01,.16-.05,.31-.13,.46Zm.98,15.58l-.41-.41h.82l-.41,.41Zm.45-34.97l-1.65-.41,1.24-1.24,1.23,.42-.82,1.23Zm1.69,16.04h.35l.06,.41-.41-.41Zm2.35,2.48l-.42-.41c.23-.2,.37-.48,.41-.78v-.04l.42,.41-.41,.82Zm.48-11.03c-.05,.16-.14,.31-.26,.43-.12,.12-.26,.21-.42,.26-.16,.05-.33,.07-.5,.05-.17,0-.33-.05-.49-.13-.15-.08-.28-.18-.39-.31l.05,.02c-.02-.17,0-.34,.05-.5,.05-.16,.14-.31,.26-.42,.12-.12,.27-.21,.43-.26,.16-.05,.33-.07,.5-.04,.55,0,.82,.13,.82,.41,.02,.17,.01,.34-.04,.5Zm2.52-5.03l-.83-.41c.1-.12,.23-.22,.37-.29,.14-.07,.3-.11,.45-.12,.32,.02,.61,.17,.82,.41l-.82,.41Zm3.25,26.83s-.03,.06-.04,.08v1.08c-.36,0-.58-.16-.67-.46-.15,.05-.32,.06-.48,.04-.17,0-.33-.05-.49-.13-.15-.08-.28-.18-.39-.31l.05,.02c-.02-.17,0-.34,.05-.5,.05-.16,.14-.31,.26-.42,.12-.12,.27-.21,.43-.26,.16-.05,.33-.07,.5-.04,.11,0,.2,0,.29,.02,.11-.3,.25-.58,.45-.83v1.01c.05,.06,.08,.13,.08,.22,.02,.17,.01,.34-.04,.5Zm.74-11.59l-1.23-1.24,.82-.82,1.24,1.23-.83,.83Zm1.72,6.98l-.41,.41v-.41c0-.28,.13-.42,.41-.42v.42Zm-.77-.83c.1-.12,.23-.22,.37-.29,.14-.07,.3-.11,.45-.12,.32,.02,.61,.17,.82,.41l-.82,.41-.83-.41Zm1.97,6.6l-.41-.42h.41v.42Zm.45-26.75l-.83-.82h1.65l-.82,.82Zm1.93-2.84c-.07,.14-.17,.27-.29,.37l-.41-.83,.41-.82c.12,.1,.22,.23,.29,.37,.07,.14,.11,.29,.13,.45-.01,.16-.05,.31-.13,.46Zm.58,15.18h.26c.12-.17,.26-.31,.44-.39l1.24,.41c-.77,.44-1.46,.99-2.05,1.65,0-.64,.09-1.14,.28-1.5l-.16-.16Zm.37,9.05h-.36v-.41c.05,0,.1,.01,.15,.03,.05,.02,.09,.05,.12,.09,.03,.04,.06,.08,.07,.13,.01,.05,.02,.1,.01,.15Zm.84-3.7l.41-.41,.82,.41-.41,.41-.82-.41Zm2.05,4.11l-.83-.82h1.65l-.82,.82Zm1.93-2.84c-.07,.14-.17,.27-.29,.37l-.41-.83,.4-.79-.77,.38-.82-.83,.41-.41,1.24,.83-.03,.02c.12,.1,.21,.22,.28,.35,.07,.14,.11,.29,.13,.45-.01,.16-.05,.31-.13,.46Zm1.44-19.38l-1.65-.41,1.24-1.24,1.23,.42-.82,1.23Zm1.69,16.04h.35l.06,.41-.41-.41Zm2.35,2.48l-.42-.41c.23-.2,.37-.48,.41-.78v-.04l.42,.41-.41,.82Zm.48-11.03s-.03,.06-.04,.08v1.08c-.36,0-.58-.16-.67-.46-.15,.05-.32,.06-.48,.04-.17,0-.33-.05-.49-.13-.15-.08-.28-.18-.39-.31l.05,.02c-.02-.17,0-.34,.05-.5,.05-.16,.14-.31,.26-.42,.12-.12,.27-.21,.43-.26,.16-.05,.33-.07,.5-.04,.11,0,.2,0,.29,.02,.11-.3,.25-.58,.45-.83v1.01c.05,.06,.08,.13,.08,.22,.02,.17,.01,.34-.04,.5Zm1.56-2.96h-.41l-.83-.82v-2.05l1.65-.41,.23,.47c.1-.04,.21-.06,.32-.07,.32,.02,.61,.17,.82,.41l-.82,.41-.23-.12-.72,2.18Zm2.05,16.87h-.37v-.42c.05,0,.11,.01,.15,.03,.05,.02,.09,.05,.13,.09,.03,.04,.06,.09,.08,.14,.02,.05,.02,.1,.01,.16Zm.05-12.75l-.41-.42h.41v.42Zm2.06,21.8c-.6,0-.81-.42-.67-1.24h.05c.04-.6,.26-1.17,.62-1.65v2.88Zm.78-12.75l-1.23-1.24,.82-.82,1.24,1.23-.83,.83Zm1.32-18.11l.41-.41,.82,.41-.41,.41-.82-.41Zm1.6,30.86l-.41-.42h.41v.42Zm.45-26.75l-.83-.82h1.65l-.82,.82Zm1.93-2.84c-.07,.14-.17,.27-.29,.37l-.41-.83,.41-.82c.12,.1,.22,.23,.29,.37,.07,.14,.11,.29,.13,.45-.01,.16-.05,.31-.13,.46Zm.46,16.84c0-.64,.09-1.14,.28-1.5l-.16-.16h.26c.12-.17,.26-.31,.44-.39l1.24,.41c-.77,.44-1.46,.99-2.05,1.65Z" fill="#fff"/><path d="M104.23,93.46c-2.52-2.47-5.02-4.91-7.55-7.38-2.94,2.93-5.97,5.98-9.03,9-.37,.37-.81,.72-1.29,.9-2.8,1.1-5.64,1.99-8.53,2.66l.19,.07-1.16,.57-.38-.28,.11-.08c-3.6,.76-7.26,1.18-10.99,1.25-3,.06-5.97-.05-8.9-.34l.41,.3v.29l-.38,.57c-.21,.26-.48,.48-.82,.65s-.71,.29-1.11,.34c-.79,.1-1.57,.25-2.33,.43h-.05c1.18-.79,2.2-1.71,3.03-2.72-5.59-.67-11.04-2.05-16.35-4.33-3.12-1.34-6.37,.33-7.16,3.59-.55,2.28,.26,4.12,2.08,5.57,3.99,3.18,7.98,6.38,11.97,9.57l.17-.11h1.16l-.34,.9c2.24,1.79,4.48,3.58,6.72,5.36,2.68,2.13,5.44,4.15,8.17,6.22h2.23l-.38-.57,.38-.57,.78,.57-.78,.57h1.25c.75-.5,1.54-.95,2.24-1.5,4.34-3.44,8.66-6.91,12.99-10.37,3.03-2.42,6.06-4.84,9.25-7.39,2.39,2.45,4.73,4.84,6.88,7.04,2.5-2.5,4.96-4.96,7.52-7.52-2.11-2.09-4.34-4.29-6.66-6.58,2.25-2.26,4.5-4.5,6.68-6.69Zm-4.99-.45l.77-.28c.25,0,.39,.19,.39,.57,.04,.58-.09,1.17-.39,1.71l-.77-1.14v-.85Zm-64.73,11.12l-1.16-.85-.05,.02c.16-.3,.45-.56,.83-.73,.28-.11,.54-.26,.77-.43l-.38,1.99Zm4.48-.62l-.23,.33c-.26,0-.39-.1-.39-.28s-.38-.28-1.15-.28l-.38-1.14h1.54v1.43c.21,0,.42-.02,.62-.05l.16-.24h.38c0,.12-.23,.19-.54,.24Zm3.64-3.94c.46,.14,.85,.38,1.13,.68,.28,.3,.42,.66,.42,1.03l-1.16,1.43-1.16-1.43,.78-1.71Zm.65,8.59l-.78-1.01,1.55-1.01,.78,1.01-1.55,1.01Zm7.5,4.56l-.39-.25h.39v.25Zm6.32,1.97l-1.16-.86,1.55-.28,.77,.85-1.15,.29Zm2.3-12.27h-.33l.38-.28-.06,.28Zm.4,10.84l.78-.29,.38,.57c-.2,.17-.48,.27-.78,.28l-.38-.57Zm1.54,5.7l-.77-1.14,1.15,.86-.38,.28Zm.43-10.27c0,.19-.25,.28-.77,.28-.16,.02-.32,0-.47-.03-.15-.04-.29-.1-.4-.18-.11-.08-.2-.18-.25-.29-.05-.11-.07-.23-.04-.35h-.05c.1-.08,.23-.15,.37-.2,.14-.05,.3-.08,.46-.09,.16-.02,.32,0,.47,.03,.15,.04,.29,.1,.4,.18,.11,.08,.2,.18,.25,.3,.05,.11,.06,.23,.04,.35Zm1.55,11.78v.28c-.05,0-.11,0-.16,0-.05-.01-.1-.03-.13-.06-.04-.03-.07-.06-.08-.1-.02-.04-.02-.08-.01-.12v-.28c.05,0,.1,0,.15,.01,.05,.01,.09,.03,.13,.06,.04,.03,.06,.06,.08,.1,.02,.04,.02,.08,.02,.11Zm.78-8.07c-.15,0-.29-.04-.43-.08-.13-.05-.25-.12-.35-.2l.78-.28,.77,.28c-.2,.17-.47,.27-.77,.28Zm1.54,10.36h0c-.52-.38-.77-.66-.76-.86,0-.19,.38-.57,1.15-1.14l.78,1.14-1.16,.86Zm2.65-11.39s-.04,.07-.07,.09c-.03,.03-.07,.05-.12,.06-.04,.01-.09,.02-.14,.02v-.28h.34s0,.07-.01,.11Zm1.18,2.75l-.38-.28,.77-.28,.38,.28-.77,.28Zm.77-2.57l.78-.57,.77,.57h-1.55Zm2.59,2.03c-.07,.1-.16,.18-.28,.25l-.38-.57,.38-.57c.11,.07,.21,.16,.27,.26,.07,.1,.11,.21,.12,.32-.01,.11-.05,.22-.12,.31Zm.54-11.16l.38-.28,.38,.28h-.77Zm4.61,11.98v-.03c-.04-.21-.18-.4-.39-.54l.39-.28,.38,.57-.38,.28Zm5.84-7.13c-.34-.33-.54-.73-.58-1.14h-.05c-.13-.57,.07-.86,.63-.86v2Zm1.89,3.13l-1.55-.28v-1.43l.78-.57h.38l.77,1.71-.38,.57Zm1.2-13.98h.35s0,.07-.01,.11c-.01,.04-.04,.07-.07,.1-.03,.03-.07,.05-.12,.06-.05,.01-.09,.02-.14,.02v-.29Zm.39,9.13h-.38l.38-.29v.29Zm2.29-3.99h-.38c-.37-.26-.66-.57-.86-.91-.2-.34-.3-.71-.31-1.08,.09-.6,.36-1.19,.78-1.71l1.15,3.42-.38,.28Zm6.54,10.66s-.04,.07-.08,.1c-.04,.03-.08,.05-.13,.06s-.1,.02-.15,.01v-.28h.38s0,.08-.02,.11Zm1.33-5.76c-.05,.11-.14,.21-.25,.3-.11,.08-.25,.15-.4,.18-.15,.04-.31,.05-.47,.03l-1.55-1.43,.38,.28h1.55l.78,.28c.02,.12,0,.24-.04,.35Z" fill="#fff"/><path d="M121.21,35.26c-4.88,.03-9.77,0-14.65,.01-.32,0-.63,.04-.93,.06-.03,.16-.06,.23-.06,.31,0,.2,0,.4,0,.6l.33,.06c-.11,.03-.22,.07-.33,.1-.05,1.44-.29,2.83-.7,4.15l.51-.26,1.3,.33-.65,.33-1.19-.3c-2.09,6.53-8.38,11.28-15.86,11.13-4.16-.09-8.33-.11-12.49-.1-.78,.28-1.5,.6-2.15,.96,0-.38,.08-.7,.24-.96-2.87,0-5.74,.02-8.61,.03l.51,.26-1.32,.67-1.79-.92c-1.39,0-2.79,0-4.18,0-7.45,0-14.9,.08-22.35-.06-4.01-.08-7.67-1.68-10.39-4.34l-1.91,.98,1.3-1.33,.49,.25c-1.65-1.65-2.95-3.69-3.75-6.02-.64-1.88-.86-3.9-1.29-5.94-.19,0-.38,0-.56,0v.03h-.67l.05-.03c-3.91,.02-7.93,.11-11.94-.05-3.55-.14-6.57,.39-8.17,4.02v2.73c1.47,2.89,3.49,5.36,5.83,7.57,.27,.26,.55,.51,.82,.75,0-.01-.02-.02-.03-.03l.08,.02,1.97-.99,.65,2.33c-.38-.2-.82-.37-1.3-.5-.36-.11-.67-.26-.93-.43,7.52,6.6,16.5,10.36,26.1,12.87,7.83,2.04,15.82,3.02,23.9,3.33,11.29,.44,22.48-.13,33.55-2.56,9.28-2.04,18.06-5.24,25.85-10.81,3.73-2.66,7.05-5.74,9.56-9.62,1.25-1.92,1.55-3.91,.37-5.95-1.15-1.99-2.97-2.72-5.22-2.7ZM9.33,43.63l-2.62-1.33,1.32-1.33,2.62,1.33-1.32,1.33Zm7.21,6.66l-.27-.27c-.35-.04-.7-.05-1.05-.06v1.67h-2.61l.65-1.33c1.3,0,1.95-.11,1.95-.33s.22-.33,.67-.33l.38,.39c.54,.05,.92,.13,.92,.27h-.65Zm13.36,2.34v.33h-.67l.67-.33Zm-6.02,.34c.51,.02,.98,.14,1.32,.33l-.65,.67-1.32-.34,.65-.66Zm2.62,6.4c-.08,.13-.23,.25-.42,.35-.19,.1-.42,.17-.68,.21-.26,.04-.53,.06-.79,.04-.27,0-.53-.04-.77-.1-.24-.06-.45-.15-.62-.25l.08,.02c-.04-.14-.01-.27,.07-.4,.09-.13,.23-.25,.42-.34s.42-.17,.68-.21c.26-.04,.53-.05,.79-.03,.87,0,1.3,.11,1.3,.33,.04,.14,.02,.27-.07,.4Zm4.01-4.08l-1.32-.33c.17-.1,.37-.18,.59-.23,.23-.06,.47-.09,.72-.1,.5,.02,.97,.14,1.3,.33l-1.3,.33Zm7.12,.67h-.57v-.33c.08,0,.16,0,.24,.03,.07,.02,.14,.04,.2,.07,.05,.03,.09,.07,.12,.11,.02,.04,.03,.08,.02,.12Zm1.33-3l.65-.33,1.3,.33-.65,.33-1.3-.33Zm3.27,3.33l-1.32-.66h2.62l-1.3,.66Zm3.07-2.3c-.11,.12-.27,.22-.47,.3l-.65-.67,.65-.66c.19,.08,.35,.18,.47,.3,.11,.11,.18,.24,.2,.37-.02,.13-.09,.25-.2,.37Zm8.72-.7l-.67-.33c.36-.16,.6-.39,.65-.63l.02-.03,.65,.33-.65,.66Zm7.33,2.33c.51,.02,.98,.14,1.32,.33l-.65,.67-1.32-.34,.65-.66Zm2.62,6.4s-.04,.05-.06,.08v.86c-.58,0-.93-.13-1.06-.38-.25,.04-.51,.05-.76,.03-.27,0-.53-.04-.77-.1-.24-.06-.45-.15-.62-.25l.08,.02c-.04-.14-.01-.27,.07-.4,.09-.13,.23-.25,.42-.34,.19-.1,.42-.17,.68-.21,.26-.04,.53-.05,.79-.03,.17,0,.32,0,.46,.01,.17-.24,.41-.47,.71-.67v.82c.08,.05,.13,.1,.13,.17,.04,.14,.02,.27-.07,.4Zm3.92-3.74l-.65,.33v-.33c0-.23,.21-.34,.65-.34v.34Zm-1.23-.67c.17-.1,.37-.18,.59-.23,.23-.06,.47-.09,.72-.1,.5,.02,.97,.14,1.3,.33l-1.3,.33-1.32-.33Zm3.14,5.35l-.65-.34h.65v.34Zm5.29-4.34h-.57v-.33c.08,0,.16,0,.24,.03,.07,.02,.14,.04,.2,.07,.05,.03,.09,.07,.12,.11,.02,.04,.03,.08,.02,.12Zm1.33-3l.65-.33,1.3,.33-.65,.33-1.3-.33Zm3.27,3.33l-1.32-.66h2.62l-1.3,.66Zm3.07-2.3c-.11,.12-.27,.22-.47,.3l-.65-.67,.63-.64-1.23,.31-1.3-.67,.65-.33,1.97,.67h-.05c.18,.09,.34,.19,.45,.3,.11,.11,.18,.24,.2,.37-.02,.13-.09,.25-.2,.37Zm4.98-2.71h.56l.1,.33-.65-.33Zm3.74,2.01l-.67-.33c.36-.16,.6-.39,.65-.63l.02-.03,.65,.33-.65,.66Zm6.52,2.33h-.59v-.34c.08,0,.17,0,.24,.03,.08,.02,.15,.04,.2,.08,.06,.03,.1,.07,.12,.11,.02,.04,.03,.08,.02,.13Zm4.6-3l-1.95-1,1.3-.66,1.97,.99-1.32,.67Zm5.38-11.35l-1.32-.66h2.62l-1.3,.66Zm3.07-2.3c-.11,.12-.27,.22-.47,.3l-.65-.67,.65-.66c.19,.08,.35,.18,.47,.3,.11,.11,.18,.24,.2,.37-.02,.13-.09,.25-.2,.37Zm.73,13.65c0-.52,.15-.92,.44-1.22l-.26-.13h.41c.19-.14,.42-.25,.71-.32l1.97,.33c-1.22,.35-2.33,.8-3.27,1.33Zm7.98-14.35l-.67-.33c.36-.16,.6-.39,.65-.63l.02-.03,.65,.33-.65,.66Z" fill="#fff"/></g></svg>