<?xml version="1.0" encoding="UTF-8"?><svg id="Capa_1" xmlns="http://www.w3.org/2000/svg" viewBox="0 0 334.96 443.92"><g><polygon points="205.02 262.66 205.17 262.76 205.04 262.61 205.02 262.66" fill="#fff"/><path d="M307.67,387.17l-.84-1.07,1.6-.7,.39,.25c17.41-23.04,25.35-50.6,26.07-81.21,1.3-55.32-15.75-105.39-46.33-151.05-3.01-4.5-6.16-8.86-9.45-13.09-.09,.84-.58,1.62-1.39,2.65l-.26-.76-.55-1.37h0c-.11-.13-.2-.28-.27-.45-.09-.24-.14-.5-.14-.76s.05-.53,.14-.76c.09-.24,.23-.44,.4-.6l.37,1.4c.15-.24,.33-.51,.55-.81-12.15-15.38-26.24-28.92-42.73-40.06-1.46-.99-3.4-2.44-4.79-2.15-6.2,1.32-12.28,3.19-18.7,4.95,2.23,5.65,4.49,11.36,6.8,17.2l.84-.55h2.17c-.11,1.23-.03,2.47,.25,3.66,.28,1.18,.74,2.28,1.37,3.23v2.73c-.49-.42-.99-.81-1.51-1.16,.34,.85,.67,1.69,1.01,2.55-1.42,.56-2.8,1.11-4.17,1.66v1.08l-1.62,2.06-.36-2.36c-1.31,.52-2.62,1.04-3.93,1.56,.03,.02,.05,.05,.08,.06,.14,.06,.29,.09,.44,.07-.51,.19-.98,.54-1.36,1.02-.38,.48-.66,1.07-.82,1.71-.02-.7-.11-1.39-.26-2.06,0-.01,0-.03,0-.04-.89,.35-1.77,.7-2.68,1.06-1.53-3.81-3-7.45-4.44-11.01l-1.97-1v-2.76l.69,.6c-.48-1.2-.97-2.4-1.44-3.58h-1.11l.88-.57c-.67-1.67-1.35-3.34-2.02-5.01q-4.95-12.32-18.18-11.09h-5.2v31.37h-15.79v-2.3l-.57,1.6h-1.53l.33-2.46,1.77,.42v-28.94c-4.64,0-8.77,.32-12.83-.09-4.42-.45-6.45,1.3-7.94,5.38-1.8,4.93-3.73,9.81-5.72,14.74l.93,.81-1.6,1.37-.16-.13c-1.71,4.2-3.45,8.44-5.19,12.8-5.15-2.1-9.81-4-14.75-6,3.85-9.76,7.47-18.95,11.2-28.42-4.05-.51-8.1,.06-10.82-1.57-3.44-2.06-6.41-2.47-9.11-1.9,.29,.13,.58,.27,.86,.44-.61,.39-1.24,.74-1.89,1.03-.64,.3-1.27,.64-1.89,1.03v6.25c-.31,.16-.58,.4-.82,.69-.23,.3-.42,.65-.54,1.04-.1,.34-.28,.63-.52,.82-.24,.19-.53,.26-.81,.21l-1.62-2.82c.69-1.72,1.15-3.58,1.36-5.49,.02-.19,.05-.37,.07-.56-1.65,1.1-3.25,2.4-4.87,3.69-2.47,1.96-5.07,3.79-7.4,5.92C27.28,162.69-.54,229,0,307.33c.12,17.51,3.68,34.68,10.85,50.88,.46,1.24,.85,2.51,1.39,3.72,15.93,35.38,43.54,57.74,79.57,70.08,3.23,1.11,6.47,2.12,9.72,3.06l.39-.6,.7,.52v.4c5.9,1.68,11.81,3.09,17.75,4.25,.01,0,.03-.02,.04-.02,.57-.42,1.29-.71,2.06-.82h.7l.67,1.07v.43c9.21,1.65,18.47,2.72,27.75,3.24l-1.11-1.12,.6-1.1,2.16,.94-.96,1.32c20.58,1.09,41.32-.45,62.14-4.05,26.07-4.5,50.32-13.82,71.28-30.38,8.52-6.74,15.81-14.08,21.97-21.97ZM216.74,111.07c-.18,.11-.39,.18-.59,.19h-.55l1.07-1.37,.55,.7c-.13,.2-.3,.36-.48,.47Zm1.32-2.03l.52,.7-.52,1.37v-2.06Zm1.07,6.19h-.55l.55-.7h.55l-.55,.7Zm2.55,.8h-.55c0-.45,0-.7,.29-.7s.26-.21,.26-.67l.53,.67c0,.46-.17,.7-.53,.7ZM26.87,280.67h-1.6l1.07-2.06,.53,2.06Zm-1.34,60.35l-.19,.7c0-.09,0-.19-.03-.28-.03-.09-.06-.17-.12-.24s-.12-.12-.19-.15c-.07-.03-.14-.04-.22-.03h.74Zm-4.3-65.32l-1.1-.67v-1.4l2.17-2.73,2.7,1.37-3.77,3.43Zm3.22-23.1l1.62,2.06-1.62,1.37-1.07-1.37,1.07-2.06Zm-2.15,14.87v.67h-.55l.55-.67Zm-6.49,7.56l2.17,1.37-2.17,2.06-1.07-1.4,1.07-2.03Zm-2.7-20.37l-1.07,1.37-.55-1.37,1.1-.67,.52,.67Zm-7.66,48.6v.7c-.06,.04-.12,.07-.19,.08-.07,.01-.13,0-.2-.02l-.17-.76h.55Zm-1.96-4.8l-.1-.7h.64l-.55,.7Zm.52-22.49c-.02,.09-.07,.17-.12,.24-.05,.07-.12,.12-.19,.15-.07,.03-.14,.04-.22,.03l-.1-.7h.64c0,.09,0,.19-.03,.28Zm2.41,55.45c-.44-.81-.63-1.79-.55-2.76l-1.07-1.37h1.07v1.37l.55,1.37v1.4Zm1.84-88.7c.27-.11,.56-.15,.85-.12,.29,.03,.57,.13,.82,.3l-.05-.85c.29-.03,.58,.01,.85,.13,.27,.11,.53,.3,.75,.54-.62,.83-1.35,1.53-2.15,2.06-.72,0-1.07-.7-1.07-2.06Zm1.07,30.23l-.55,.67,2.17-2.73,2.15,1.37-2.15,1.37-1.07-.67h-.55Zm3.03,54.34l.53,2.73-2.15-1.37,1.62-1.37Zm-1.41-47.48c0-.45,.17-.7,.53-.7l.55,.7c0,.46-.19,.67-.55,.67l-.53-.67Zm1.93,56.4l-2.15-1.37c1.07-1.4,1.79-2.06,2.15-2.06l1.1,1.37-1.1,2.06Zm3.25-17.18l-1.62-.67,.55-1.4,1.07,.7v1.37Zm.21-34.42l-.55-1.37,.55,.7v.67Zm2.48,53.67l-1.07-1.4h1.62l.53,.7-1.07,.7Zm.22-79.74h.55l.41,.58h.12c.26,.33,.45,.75,.52,1.21-.26,1.09-.43,.67-.45-.12l-.05-.85-.14-.24-.95-.58Zm1.62,29.51c-.02-1.11-.19-2.21-.5-3.25l-.05-.85,1.62,3.43-1.07,.67Zm3.68,93.71l-.53-1.37h1.07l.55,.67-1.1,.7Zm2.32-9.08l-.14-.64c-1.21-1.01-2.47-1.92-3.77-2.73,2.11-.77,4.28-1.23,6.47-1.37,.39,1.07,.58,2.25,.55,3.43-.03,1.18,.15,2.35,.53,3.43-1.24-.63-2.45-1.34-3.63-2.12Zm9.08-187.76l-3.8-.7,2.17-2.73,2.7,1.37-1.07,2.06Zm265.13,203.92l-1.62-2.07h1.07c.07,0,.15,0,.22,.03,.07,.03,.13,.08,.19,.15,.05,.07,.09,.15,.12,.24,.02,.09,.03,.18,.03,.28v1.37Zm-2.61-29.04l1.6-.7,.55,1.4-1.08,1.37-1.07-2.06Zm4.23-19.21c-.41,.51-.78,1.08-1.1,1.7-.18,.34-.42,.61-.7,.79-.29,.18-.6,.26-.92,.24-.28,0-.56-.08-.82-.23s-.48-.37-.66-.65c-.18-.28-.31-.6-.38-.95-.07-.35-.08-.71-.03-1.06l-.26,.15c.28-1.68,.94-3.23,1.89-4.46,.92-1.57,1.92-3.06,2.98-4.46,.38,.57,.57,1.31,.53,2.06-.13,1.45-.5,2.84-1.07,4.1-.09,.98,.1,1.96,.55,2.76Zm-1.15-56l-1.07,.67-1.62-.67,1.07-2.06,2.17-.7-.55,2.76Zm.87,33.23c.06,.06,.11,.13,.14,.21,.03,.08,.05,.18,.05,.27s-.02,.19-.05,.27c-.03,.08-.08,.16-.14,.21l-.36-.49,.36-.49Zm-3.46-3.4l.41,.45c.06,.06,.11,.13,.14,.21s.05,.18,.05,.27-.02,.19-.05,.27-.08,.16-.14,.21l-1.1,.55,.69-1.97Zm4.13,10.5l1.15-.55v1.94l-.72,.03-.43-1.43Zm1.85,31.46l-1.07-1.37,.52-1.37,1.62,.67c-.72,.91-1.07,1.61-1.07,2.06Zm2.7,6.86c-.14-.21-.25-.46-.31-.73-.05-.21-.04-.42-.04-.64h-.18l.17-.18c0,.06,.01,.12,.01,.18h.9l-.55,1.37Zm.79-15.75l-1.62,1.37-1.62-.67v-4.13c.75,0,1.5,.24,2.17,.67,.32,.17,.59,.46,.79,.82,.19,.37,.29,.8,.29,1.24v.7Zm1.7-.89c-.07,.01-.13,.05-.19,.09-.06,.05-.11,.11-.14,.19s-.06,.16-.07,.25c0,.09,0,.18,.02,.26l-.36-.76,.74-1v.97Zm-2.75-3.24v-4.13l-1.1-.67,.55-.7c.36,0,.62,.33,.81,1.03,.19,.7,.45,1.03,.81,1.03h2.15l-3.22,3.43Zm5.37,2.76l-1.62-1.4,.53-1.37,1.1,1.37v1.4Zm13.81-85.86l1.47-.37,.95,.79-.5,.39-1.94-.05,.02-.76Zm-2.04,74.87c1.02,.79,1.78,2,2.17,3.43v1.37h-.96c-1.07-.24-2.03-.98-2.7-2.07h-2.72c.54-1.69,1.35-3.22,2.39-4.49l-.41-.45-2.1-.55h1.62l.48,.55,.62,.15c-.08,.09-.16,.19-.21,.3,.55,.58,1.12,1.15,1.81,1.76Zm-5.06-70.76l.73-.2,.48,.37c.83,.04,1.66,.17,2.45,.38l-1.44,.39-1.01-.77c-.41-.03-.81-.09-1.21-.18l-.73,.19-.48-.39c.39,.09,.8,.16,1.21,.2Zm-3.56,65.67c-.09,.35-.23,.68-.42,.96-.56,.43-1.1,.91-1.62,1.41v1.36c-.26-.18-.45-.3-.64-.46-.48,.58-.98,1.12-1.53,1.82l-2.15-1.37,1.62-2.06c.49,.25,.94,.6,1.34,1.03,.23,.21,.47,.4,.72,.58,.21-.24,.43-.52,.64-.73l-.09-.09s.06-.05,.09-.08v-3.47l1.62-.67,.53,.67c.02,.37-.01,.74-.1,1.1Zm-.89-57.15l.99,1.53-.97-.03-.99-1.53,.97,.03Zm-2.78,45.67v-.7h.45c.07,.17,.09,.37,.05,.55-.04,.19-.14,.34-.27,.43-.13,.09-.29,.11-.43,.06-.15-.05-.27-.18-.34-.35h.55Zm-.55,6.95c.75-1.53,1.67-2.92,2.72-4.13v3.43l-2.72,.7v2.06l-1.07,1.37-1.07-1.37v-1.37c0-.49,.72-.7,2.15-.7Zm-2.05-9.02v1.37l-1.1,.7-1.07-2.76v-.67h.55l1.62,1.37Zm-2.27-43.57v-.33l.52,.37-.5,.39c-.05-.07-.07-.14-.07-.21,0-.08,.02-.15,.06-.22Zm-.85,7.2h-2.39l1.58-1.91,1.19,1.4-.38,.52Zm-2.17-38.82c.07,0,.15,0,.22-.03,.07-.03,.13-.08,.19-.15,.05-.07,.09-.15,.12-.24s.03-.18,.03-.28v.7h-.55Zm-.33-57.07l2.17,2.73v.7l-.55,.67c-.95-.85-1.69-1.55-2.03-1.55l-.12-.52,.52-2.03Zm-.41,11.5l1.07,3.43-1.62,2.06-1.07-2.76,1.62-2.73Zm-7-21.12c.09-.1,.2-.16,.32-.17,.12,0,.23,.04,.33,.13,.09,.09,.16,.22,.19,.37,.03,.15,0,.3-.04,.43l-.24-.06h-.55v-.7Zm.27,10.98v.67h-.55l.55-.67Zm-5.67-17.14l1.07,.67-.53,.7-1.1-.7,.55-.67Zm1.03,168.74l-2.15-2.76,2.7-.67-.55,3.43Zm.55,6.16l-1.1,1.37-1.07-1.37,1.62-1.37,.55,1.37Zm-9.18-128.41h-.55l-.55-1.37,1.1-1.37,1.6,2.03c-.22,.25-.47,.44-.74,.56-.27,.12-.57,.17-.85,.14Zm.01,112.63v.7c0,.09,0,.19-.03,.28-.02,.09-.07,.17-.12,.23-.05,.06-.12,.11-.19,.14-.07,.03-.14,.03-.22,.02l-.53-.67c.11-.21,.26-.39,.43-.52,.17-.14,.36-.23,.55-.27l.1,.09Zm-.14-140.33l1.6,1.88v1.94c-.29,.14-.57,.33-.81,.58v.42h-.36c-.26,.5-.39,1.08-.39,1.67s.14,1.17,.39,1.67h-.76l-2.39-2.79,3.06-.58c.08-.18,.18-.34,.29-.49l-.62-4.31Zm1.35,17.82h-.55v-.7c.07,0,.15,0,.22,.03,.07,.03,.13,.08,.19,.15,.05,.07,.09,.15,.12,.24,.02,.09,.03,.18,.03,.28Zm.12,104.88l1.07,.67v.7c-.29,.03-.59-.02-.87-.14-.28-.12-.54-.31-.76-.56l.55-.67Zm.91-124.73l.36-.46,.41,.46h-.76Zm.84,73.86c.06,.03,.13,.03,.2,.04l.56-.16c-.06,.06-.13,.1-.22,.13s-.18,.05-.27,.04c-.02,0-.05-.01-.07-.02l-.27,.08c-.01-.1-.06-.19-.14-.27,.05,.06,.13,.11,.21,.15Zm1.49,45.37l1.07,.67-1.07,2.06-1.1-.67,1.1-2.07Zm.72,33.33l.07,.09h.55v.7c-.09,.03-.18,.03-.26,0-.09-.03-.17-.09-.23-.17-.06-.08-.11-.18-.13-.29-.02-.11-.02-.23,0-.34Zm-.31-127.34c-.05-.74,.02-1.49,.21-2.2,.18-.71,.48-1.36,.87-1.93v2.76l-1.07,1.37Zm.94-14.32l-1.53,2.09-1.19-1.4,1.5-1.03c.38,.23,.8,.35,1.22,.33l.31-.42,1.15,.42h-1.46Zm-.55-3.84v.7h-.55l.55-.7Zm-.39-5.18l1.07-.7-.53,.7h-.55Zm2.44,29.28c.02,.1,.02,.21,0,.31-.02,.1-.06,.2-.11,.28-.05,.08-.12,.15-.19,.19-.07,.05-.15,.07-.24,.07s-.16-.02-.24-.07c-.07-.04-.14-.11-.19-.19-.05-.08-.09-.17-.11-.28-.02-.1-.02-.21,0-.31h1.07Zm1.19-5.49c-.38,0-.55-.21-.55-.67h.55v.67Zm-4.01-28.05h1.62c-.48,1.04-.67,2.24-.55,3.43l-1.6-1.37,.52-2.06Zm-2.89-31.44l1.62,2.06-.53,1.37c-.31-.44-.67-.82-1.07-1.12l-.02,.09c-.4-.27-.76-.62-1.07-1.03l1.07-1.37Zm-2.08-2.85v-.52h.53c0,.08-.03,.16-.06,.24-.03,.07-.08,.13-.13,.18-.05,.05-.12,.08-.18,.1-.05,.01-.1,0-.15,0v.15l-.05-.15s.03,0,.05,0Zm-2.55,28.47l.79,.91,.81,.94c-.51,.2-1.06,.16-1.55-.12l-.05-.76v-.97Zm-1.96-19.7l.52,.67-1.07,.7-.52-.7,1.07-.67Zm1.37,39.73l-2.39-2.79h-.76l-.41-.49h-.74l-1.22-2.37,1.96,2.34h.79l.38,.46h.76l1.62,2.85Zm-2.39-28.48l.53,1.37-4.06,1.94-.26,.82v-.82h.26l.81-2.64,2.72-.67Zm.91,4.41l-.76,.03,.36-.52,.41,.49Zm-4.16-14.03l2.15,1.94c0,.45-.07,.89-.21,1.31-.14,.41-.35,.78-.61,1.09l-1.34,1.73v-6.07Zm-2.4,5.02v.11l1.78,1.16c.26,.86,.38,1.79,.34,2.72-.04,.93-.24,1.83-.58,2.65-.58-1.79-1.26-3.51-2.03-5.17l-.06-.07v-.03c-.36-.81-.76-1.6-1.18-2.38l1.69,1.1,.03-.09Zm-5.15,61.91c.06-.01,.13-.05,.18-.09,.06-.05,.1-.11,.14-.18l.07,.09-.38,.52-.38-.45c.05,.05,.11,.09,.18,.11,.06,.02,.13,.02,.2,0Zm-1.18-36.06c-.11-.11,.05-.47,.24-.79h-.02l.19-.3c-.06,.08-.11,.2-.17,.3h.74v.97l-1.15,.55c.26-.33,.31-.58,.17-.73Zm-1.34,5.61l1.62,2.06-.55,2.07c-.68-.45-1.4-.8-2.15-1.03-.17-.02-.34-.09-.5-.2-.15-.11-.29-.25-.39-.43s-.19-.38-.23-.59c-.04-.22-.05-.44-.03-.66l.05,.15,2.17-1.37Zm-.68,41.16c.04,.1,.1,.19,.18,.25,.08,.06,.16,.09,.25,.09h-.33l-.41-.45,.36-.52c-.05,.09-.09,.2-.09,.31,0,.11,0,.22,.05,.33Zm-3.96-101.04c.03,.13,.02,.27-.02,.39-.04,.13-.11,.23-.2,.3h-.33l.55-.7Zm.35,17.11l.43,1.46-.38,.49-1.22-2.37,1.17,.42Zm.48,3.34c.59,.35,1.14,.81,1.62,1.37v.7c.02,.37-.08,.74-.26,1.03-.1,.14-.18,.3-.23,.48-.05,.18-.07,.37-.05,.56-2.47-.61-4.81-1.83-6.9-3.61l-.12-.52c1.03-.53,2.14-.77,3.25-.7,.93-.04,1.85,.2,2.7,.7Zm-.67,17.18l.67-3.04,1.19,.52c.06,.06,.11,.13,.14,.21,.03,.08,.05,.18,.05,.27s-.02,.19-.05,.27c-.03,.08-.08,.16-.14,.21-.45,.78-1.12,1.33-1.86,1.55Zm1.6,14.75c0,.09-.02,.19-.05,.27s-.08,.16-.14,.21l-.38-.48v-.97l.38,.49c.06,.06,.11,.13,.14,.21s.05,.18,.05,.27Zm-2.24,51.15l.41,.49c-.06,.05-.14,.07-.21,.08-.07,0-.15-.01-.22-.05h-.33l.36-.52Zm-.26-6.16v-.97l1.5-1.03v.97l-1.5,1.03Zm-.56-12.08l-1.07-.7,1.07-2.03,.55,1.37-.55,1.37Zm-.52,35.36l-1.1,1.37-.52-1.37,.52-1.37,1.1,1.37Zm-1.5,17.03c.22-.04,.45-.02,.66,.07,.21,.09,.4,.24,.56,.44,.16,.2,.28,.44,.35,.71,.07,.27,.09,.56,.06,.84l-1.1,.7h-2.15l-.55,.67,2.17-3.43Zm-7.46-8.33c-.09,.02-.17,.03-.26,.03,.13-.21,.18-.34,.24-.47l-.02-.41c.15,0,.13,.17,.02,.41l.02,.44Zm-1.6,74.16l-.26-.76-.55-1.37c0-.49,.55-1.4,1.62-2.76,.16,.17,.28,.38,.37,.61,.09,.23,.14,.49,.15,.75,.26,1.21-.26,2.16-1.34,3.52Zm1.34,15.03l-1.07,.7-.52-.7,1.07-.67,.52,.67Zm-.86-86.88h-.53c.31-.1,.6-.3,.84-.58l-.05,.24c-.1,.1-.19,.21-.26,.33Zm.21-23.52c1.13-2.76,2.82-5.07,4.87-6.76h0l.09-.1s-.06,.07-.09,.1v3.33l-1.62,3.43-2.17,2.07-1.07-2.07Zm2.54-15.24l-.38,.49c.08-.4,.14-.8,.17-1.21l-.22-.73,.36-.49c.02-.83,.12-1.66,.31-2.46l.43,1.43-.74,1.03c-.02,.41-.07,.82-.14,1.21l.21,.73Zm2.33-5.62l.52-.7v.7h-.52Zm-.29,61.35l-1.6,8.26c-.59-1.26-.97-2.67-1.1-4.13,0-.9,.14-1.79,.42-2.61,.28-.82,.69-1.57,1.2-2.18h.55l.52,.67Zm1.19,14.09l-.1,.42v2.06l-2.7-1.37-1.1-4.13c1.41,.74,2.73,1.75,3.89,3.01Zm-.1-3.67h1.62c-.29,.38-.68,.62-1.1,.67l-.52-.67Zm2.15-25.47c-.04,.1-.11,.17-.18,.23-.08,.05-.16,.08-.25,.08l-.1,.36v-.67c0-.49,.17-.7,.53-.7v.7Zm-2.29-71.64v-.7h2.17l.55,.7h-2.72Zm1.73-10.8c-.11-.11-.21-.26-.28-.42-.07-.16-.11-.34-.13-.52-.01-.18-.05-.36-.12-.53-.07-.16-.17-.3-.28-.41l2.7,.33,.41,.48v.97l-.36,.49c-.66,.15-1.34,0-1.93-.39Zm1.31-42.22l.41,.49-.76,.03,.36-.52Zm-2.94,8.89s.02-.02,.04-.02l.27-.37c.5-.67,.86-.85,1.12-.55-.35,.52-.86,.83-1.39,.92l-.09,.12,.05-.09Zm-.29,25.37h1.62l-.52,1.37-1.62,.7,.52-2.06Zm1.29,33.88l-.55,2.07c-1.28-.11-2.56,.12-3.77,.67l2.15-2.73h2.17Zm-2.67-54.12l-.19,.7c0-.09,0-.19-.03-.28-.03-.09-.06-.17-.12-.24-.05-.07-.12-.12-.19-.15-.07-.03-.14-.04-.22-.03h.74Zm-.67,27.1h1.07v4.13l-1.07,2.06-3.25-4.13v-.67c.05-.42,.41-.88,1.12-1.37l-.05-.03c.5-.36,1.05-.59,1.62-.67l.55,.67Zm-1.52-41.92c-.02,.75-.26,1.46-.69,1.97-.5,.67-1.27,.39-2.39-.85l3.08-1.12Zm-2.87,63.78c.2-.06,.41-.03,.6,.09l-1.17,.42c-.31,.39-.41,.73-.24,.94,.17,.21,0,.58-.26,1.03l-3.18-1.46c1,0,2-.11,2.98-.33,.21,0,.5-.21,.76-.27,.12-.21,.3-.36,.5-.42Zm-1.12,52.42c.06,.06,.11,.13,.14,.21,.03,.08,.05,.18,.05,.27,0,.02-.01,.05-.01,.07l.08,.26c-.1,.02-.19,.07-.26,.15,.06-.06,.11-.13,.14-.21,.02-.06,.03-.13,.04-.2l-.18-.56Zm.24-39.13l-.41-1.46,.76-.97,.41,.49v1.94h-.76Zm-.2-66.39l.53,.7-1.07,.7-1.07-1.4h1.62Zm-4.34,51.3c0,.42-.24,.91-.36,1.21-.05,.12-.12,.23-.2,.32-.08,.09-.18,.16-.28,.2-.22,.67-.63,1.23-1.15,1.55l-1.62-.45v-1.61c.85,.58,1.83,.76,2.77,.52,.08-.17,.15-.34,.22-.52,.09-.48,.31-.91,.62-1.21,.3-1.18,.54-2.39,.72-3.61l.55,2.76c-.46,.18-.89,.46-1.27,.85Zm.36,61.41h-.55v-.7c.07,0,.15,0,.22,.03,.07,.03,.13,.08,.19,.15,.05,.07,.09,.15,.12,.24,.02,.09,.03,.18,.03,.28Zm-6.13-118.38l-1.07-.7h.55c.15-.01,.3,.01,.44,.07,.14,.06,.27,.16,.38,.29,.41,.29,.87,.41,1.34,.33l1.08,2.06-.96,1.24c.93-1.16,1.56-1.73,1.88-1.73l1.1,1.37-1.1,2.06-2.14-1.36-.02,.03,.17,.45h-.41l.24-.45-1.46-3.67Zm-6.83,134.17h.55v.7l-.55-.7Zm.24,21.61h-.55v-.7c.07,0,.15,0,.22,.03,.07,.03,.13,.08,.19,.15,.05,.07,.09,.15,.12,.24,.03,.09,.03,.18,.03,.28Zm-.41-98.74l-2.7,.7-.55-.7c-.02-.19,0-.37,.04-.55,.05-.18,.13-.34,.23-.47s.23-.23,.37-.29c.14-.06,.29-.08,.43-.05,.75-.02,1.49-.25,2.17-.67l2.03,2.03h.12l.55,.7-.67-.7h-2.03Zm-12.72,81.49l2.17-2.73,2.7,1.37-3.77,3.43-1.1-.67v-1.4Zm-.12-14.51l-.95-.58h.55l.41,.58h.12c.26,.33,.44,.75,.52,1.21-.26,1.09-.43,.67-.45-.12l-.05-.85-.14-.24Zm1.74,9.02l.55-.67v.67h-.55Zm4.32-13.48l-1.62,1.37-1.07-1.37,1.07-2.06,1.62,2.06Zm-1.32-53.57v-.7c0,.46,.17,.7,.53,.7h-.53Zm-.55-11.69h1.62l-1.62,2.06-1.07-.7,1.07-1.37Zm-.21-15.57c.9-.18,1.78-.44,2.65-.76l-1.62,2.03-.98-1.27s-.03,0-.05,0Zm1.54,167.19l-.19,.7c0-.09,0-.19-.03-.28-.02-.09-.06-.17-.12-.24s-.12-.12-.19-.15c-.07-.03-.14-.04-.22-.03h.74Zm-.26-60.35l1.07-2.06,.53,2.06h-1.6Zm1.5-66.62l.55-1.37,1.07,.7-.55,2.06-1.07-1.4Zm1-27.26v-2.73l2.17,1.37v-6.07l1.07-.79,1.07,4.8c-.69,1.79-1.82,3.24-3.22,4.13l-1.1-.7Zm.12,79.89c.07-1,.35-1.95,.81-2.76v4.83c-.67,.85-.95,.15-.76-1.21l-.05-.85Zm.24-20.06l1.07-1.4,1.62,2.06-1.1,1.37-1.6-2.03Zm1.07,11.66l2.15-.7,.55,1.4-1.07,4.1h-.55l-1.07-1.37v-3.43Zm4.37-104.04v-.7h.52c-.36,0-.52,.24-.52,.7Zm1.94,51.59l1.07,2.06-.53,1.37-1.62-2.06,1.07-1.37Zm-.05-26.92l1.07-2.06,1.07,.67-.52,2.06-1.62-.67Zm3.34,5.71l.53,2.03h-1.07l-1.07-1.37,1.62-.67Zm1.07,14.42v.67c.02,.19,.01,.38-.03,.56-.05,.18-.12,.35-.23,.48-.1,.14-.23,.24-.37,.3-.14,.06-.29,.08-.44,.05l-.55-2.07h1.62Zm-1.41,45.87l-.1,.33,1.62,.7c-1,.73-1.91,1.65-2.7,2.73,.1-2.19,.45-3.34,1.17-3.76Zm.64-96.18v-2.06l1.1,1.4-1.1,.67Zm.22-6.75h-.15v1.26l-2.7,5.49-2.15-4.8-1.07-.7,.52-.67c.36,0,.55,.21,.55,.67s.17,.7,.52,.7c.61-.14,1.17-.5,1.62-1.03,.45-.54,1.02-.89,1.62-1.03h.59l-.46-.56,.55-2.06h2.17l-.55,2.06-1.07,.67Zm-3.95-10.78h1.07v.87l.31,.2-.28,.36,.52,1.3v1.4c-.42-.78-.61-1.72-.55-2.66l-1.84,2.34,1.07-3.42-.3-.39Zm-.43-3.87v-2.06l.55,1.37-.55,.7Zm3.44,8.38l.02-.27c.18,.2,.32,.46,.41,.74,.01,.03,0,.07,.01,.1l.62,.79h-.53c.02-.27-.03-.54-.1-.79l-.45-.57Zm2.01-5.05v-2.06l.55,.7-.55,1.37Zm.92,1.91l1.62-1.37,.53,2.73-2.15-1.37Zm2.67,33.96l-.55,1.4-1.07-.7,1.07-1.37,.55,.67Zm-1.53,6.19h.55c.36,0,.53,.21,.53,.7s.19,.42,.55,0l1.07,2.03-1.07,2.76c-1.05-1.2-1.96-2.59-2.7-4.13l1.07-1.37Zm-.45,8.98v-.54l.79,1c.23,.26,.5,.6,.83,1.04l-.83-1.04c-.5-.57-.75-.72-.79-.45v.15l-.05-.15s.04,.02,.05,0Zm0,21.43c0-.27,.21-.45,.5-.55l-.05-.18s.03,0,.05,0v-.64l.55-.67v1.37c-.18-.06-.37-.07-.55-.06v.18c-.04,.9-.21,1.79-.5,2.61v-2.06Zm3.63-82.26l1.07,.7v1.37l-1.62-.67,.55-1.4Zm-2.58,.29c.76,.15,1.47,.63,1.98,1.37h.33s-.08,.09-.14,.16l.03,.08-.05-.05s-.03,0-.05,.05c.41,.52,.84,1.09,1.31,1.82v2.06c-.85,.07-1.68,.42-2.39,1.03-.88,.66-1.68,1.46-2.39,2.4l-1.07-4.13,1.62-1.37c.58,0,1.16-.18,1.67-.52,.5-.33,.92-.82,1.24-1.4l-.12-.14h-1.98c-1.29,0-1.55-.45-.81-1.37-1.22-.98-2.62-1.58-4.06-1.73-1.38-.17-2.74-.52-4.06-1.03l-1.07-1.37-2.17-.7,1.62-.67c0,.91,1.17,1.12,3.51,.67,1.52-.34,3.06-.56,4.61-.67l.53,.67c.36,3.22,1,4.83,1.91,4.83Zm-5.17-7.48h1.08c0,.09,0,.19-.03,.28-.02,.09-.06,.17-.12,.24-.05,.07-.12,.12-.19,.15-.07,.03-.15,.04-.22,.03l-.53-.7Zm1.89-16.15l.05,.15c.11,.13,.24,.23,.38,.29,.14,.06,.29,.09,.44,.07l-1.07,.67-1.1-.67c0-.09,0-.19,.03-.28s.07-.17,.12-.24c.05-.07,.12-.12,.19-.15,.07-.03,.14-.04,.22-.03,.26-.05,.53,.02,.76,.18Zm-1.33-2.75c0-.46,.17-.7,.53-.7v.7l-.53,.7v-.7Zm1.03,7.68l2.17,1.37-2.17,1.37-1.6-2.03,1.6-.7Zm-4.87-.8l-.55,.7-.1-.7h.64Zm-3.23,2.17c.07,0,.15,0,.22,.03,.07,.03,.13,.08,.19,.15,.05,.07,.09,.15,.12,.24,.03,.09,.03,.18,.03,.28v.76l2.13-.53c.74,0,1.43,.91,2.17,2.73-.07,0-.15,0-.22,0v.36c-.06,.04-.12,.07-.19,.08-.07,.01-.13,0-.2-.02l-.09-.41c-.64-.02-1.28-.17-1.89-.43-.83-.35-1.6-.92-2.26-1.66h-.02l.16-.04-1.22-1.56h1.07Zm-3.08,3.33l.05,.76c-.08-.1-.18-.15-.29-.16-.11-.01-.22,.03-.31,.1l.55-.7Zm-.53,4.39c.09-.24,.23-.45,.39-.63,.09-.13,.2-.22,.33-.25,.13-.04,.26-.02,.39,.04l.36-.46h.53l.55-.7,1.62,.7h-2.17l-.53,.67c-.1-.11-.23-.18-.36-.21l-1.26,1.61c.01-.27,.06-.53,.16-.77Zm2.91,13.05v.67h-.53c-.01-.09,0-.18,.01-.27,.02-.09,.06-.17,.11-.23,.05-.07,.11-.11,.18-.14,.07-.03,.14-.03,.21-.02Zm-.31,7.56l.53,1.49c-.03,1.04-.2,2.07-.53,3.04-.17,.48-.26,.99-.26,1.52s.09,1.04,.26,1.52l-3.25-4.13,3.25-3.43Zm-3.86-10.85h.53c.01,.09,0,.19-.01,.27-.02,.09-.06,.17-.11,.23-.05,.07-.11,.11-.18,.14-.07,.03-.14,.03-.22,.02v-.67Zm-1.3,8.09h0c.07,.19,.21,.43,.21,.55l-.21-.53h0Zm-1.4-9.46l.53,2.73-1.07,1.37,.55-4.1Zm.06,22.51v.67l-.81-.67h.81Zm-.45,31.07v.33h-1.62l.55-1.37c1.07,0,1.43,.33,1.07,1.03Zm-1.79-50.09c.18-.11,.39-.18,.59-.19v1.37l-1.07-.7c.13-.2,.3-.36,.48-.47Zm-1.1,126.64l-.55-.7c.16-.17,.29-.38,.38-.61,.09-.23,.15-.49,.17-.75l.52,.67-.52,1.4Zm-.81-41.5c.01-.26,.07-.52,.16-.76,.09-.24,.23-.44,.39-.61v2.06l-.55-.7Zm.24-65.02c.07-.02,.15,0,.22,.02,.07,.03,.14,.08,.19,.15,.05,.07,.09,.15,.12,.24s.03,.19,.02,.29c-.03,.13-.03,.27,0,.39l-.55-.39v-.7Zm-.74-.23c.18-.12,.39-.19,.59-.21v1.4l-.55,.67-.53-1.37c.13-.2,.3-.37,.48-.49Zm-.82,9.53l1.07-1.37,1.1,1.37-2.17,1.4v-1.4Zm-1.14-25.78l1.07,2.07-1.6,.7-.24-.44h-.46v-.7h.09l-.49-.92,1.62-.7Zm.84,85.63c0,.15-.04,.3-.12,.41-.08,.11-.19,.18-.31,.2l-.09,.09-.55-.7h1.07Zm-2.6-10.29l.55,.67c0,.09,0,.19-.03,.28-.02,.09-.06,.17-.12,.24-.05,.07-.12,.12-.19,.15-.07,.03-.14,.04-.22,.03v-1.37Zm.29,72.63l2.17,1.37-2.17,2.06-.95-1.24-.27,.33-.55-.67h.79l.98-1.86Zm-6.9,23.54l2.17,1.37-2.17,1.37-1.6-2.03,1.6-.7Zm-1.03-6.98v-.7c0-.46,.17-.7,.53-.7v.7l-.53,.7Zm3.09-11.76c0-.45,.17-.7,.53-.7l.55,.7c0,.46-.19,.67-.55,.67l-.53-.67Zm0-6.19l-1.07-.67h-.55l-.55,.67,2.17-2.73,2.15,1.37-2.15,1.37Zm-.93-13.1l-.36-.76,.74-1v.97c-.07,.01-.13,.05-.19,.09-.06,.05-.11,.11-.14,.19-.04,.08-.06,.16-.07,.25,0,.09,0,.18,.02,.26Zm2.01-4.5l-.36-.89-.85,1.08-1.1-1.37h1.83l-.08-.19,1.1-.67,.52,.67-1.07,1.37Zm.95-3.94l-.53-1.37,.53-1.37c.17,.16,.3,.36,.4,.6,.09,.24,.14,.5,.14,.76s-.05,.53-.14,.76c-.09,.24-.23,.44-.4,.6Zm.49-6.15c-.5,1.03-.73,2.23-.67,3.43l-1.1,1.52-1.17-.46-.86-1-.47,.62-.14-.09-.75,2.53-.38,.52,.41,.45-4.25-1.24,1.81-3.49,2.45,.33,.3-.4,.49,.32c1.02-.25,1.95-.89,2.65-1.88l-.05-.85c1.1-1.82,1.89-3.04,2.39-3.73,.05,1.2-.18,2.4-.67,3.43Zm-6.34,9.25l-.1,.36h-.53v-.7c.43-.36,.62-.15,.62,.33Zm-1.69,48.07v.7c-.06,.04-.12,.07-.19,.08-.07,.01-.13,0-.2-.02l-.17-.76h.55Zm-1.44-27.28c-.02,.09-.07,.17-.12,.24-.05,.07-.12,.12-.19,.15-.07,.03-.14,.04-.22,.03l-.1-.7h.64c0,.09,0,.19-.03,.28Zm.03,21.79l-.55,.7-.1-.7h.64Zm-.24-58.27l-.43-1.43,1.15-.55v1.94l-.72,.03Zm-3.99,96.32l-3.25-4.13,3.25-3.43,.53,1.49c-.03,1.04-.2,2.07-.53,3.04-.17,.48-.26,.99-.26,1.52s.09,1.04,.26,1.52Zm-9.22-19.25l-.53-3.43,2.15-1.37v2.73l-1.62,2.06Zm1.07,2.76v1.37l-1.07-.7c.13-.2,.3-.36,.48-.47,.18-.11,.39-.18,.59-.19Zm-6.59,4.54l1.62-.7,1.07,2.07-1.6,.7-.24-.44h-.46v-.7h.09l-.49-.92Zm-5.18-42.68l.55,1.37-1.1,1.4-.52-2.06,1.07-.7Zm-1.12-9.33c.05,.05,.11,.09,.18,.11,.06,.02,.13,.02,.2,0,.06-.01,.13-.05,.18-.09,.06-.05,.1-.11,.14-.18l.07,.09-.38,.52-.38-.45Zm-2.08-12.19l-.05-.79-3.77-2.4v-2.76c.79-.05,1.58,.12,2.33,.47,.74,.36,1.42,.9,1.99,1.59,1.16,1.51,2.25,3.11,3.25,4.8-1.27-.13-2.53-.44-3.75-.91Zm-5.18,34.13c.31,.35,.49,.84,.53,1.37v.7c-.17-.2-.3-.45-.38-.73l-.14-.64v-.7Zm-.04-8.1h-.33l.36-.52,.41,.49c-.06,.05-.14,.07-.21,.08-.07,0-.15-.01-.22-.05Zm-.37-1.95l-1.07-4.13,1.62-3.43,.56,1.19,.53-.36v.97l-.19,.13,.7,1.5c0,.88-.19,1.75-.57,2.48s-.93,1.31-1.57,1.64Zm-8.37-23.52l-.26-.76c1.76-.56,3.58-.8,5.4-.7l1.07,3.43-1.6,2.06c-1.85-.65-3.47-2.08-4.61-4.04Zm4.08,14.6h-.55l-.21-.58c-.29-.03-.57-.03-.86,0v3.34h-2.15l.52-2.76c1.07,0,1.62-.24,1.62-.7s.17-.67,.55-.67l.31,.79c.45,0,.76,.27,.76,.58Zm.36-75.28h.62c0,.24,.26,.45,.38,.7h3.97l-.98-1.9,1.17,.42,.43,1.46-.02,.02h.43c1.83-.02,3.63-.49,5.32-1.37-.58,1.27-1.31,2.42-2.15,3.43-.67,1.08-1.63,1.82-2.7,2.06l-.55-.7c-1.92-.41-3.69-1.61-5.01-3.43h-.38l-.55-.7h-.53v-.36c-.22,.13-.45,.22-.69,.25l-.09,.12,.05-.09s.02-.02,.04-.02l.27-.37c.5-.67,.86-.85,1.12-.55-.16,.23-.34,.41-.55,.56l.37,.46Zm7.31-51.08l-1.62-2.06-1.07-3.43,2.15,1.37,.55,4.13Zm-.02-10.28l.38-1.49,1.12-.55v.97c-.38,.58-.92,.96-1.5,1.06Zm-1.1,58.08v1.37l-.55-.67,.55-.7Zm4.61,39.66s-.04-.08-.03-.13c-.02,.05-.04,.09-.07,.13-.1,.13-.24,.2-.39,.2s-.29-.07-.39-.2-.16-.31-.16-.49l.55-.7c0,.09,0,.19,.03,.28,.03,.09,.06,.17,.12,.24,.05,.07,.12,.12,.19,.15,.07,.03,.14,.04,.22,.03,0,.03-.01,.06-.02,.1,.05-.12,.12-.26,.19-.39h-.02l.19-.3c-.06,.08-.11,.2-.17,.3h.74v.97l-1.15,.55c.26-.33,.31-.58,.17-.73Zm1.44,13.72c.2,.07,.38,.2,.54,.36v.97l-1.15-1.4c.2-.03,.41,0,.61,.06Zm.4-28.79l-2.7-.67,2.15-2.06,2.17,.67-1.62,2.06Zm-7.66-1.56l.67-3.04,1.19,.52c.06,.06,.11,.13,.14,.21s.05,.18,.05,.27-.02,.19-.05,.27-.08,.16-.14,.21c-.46,.78-1.12,1.33-1.86,1.55Zm1.6,14.75c0,.09-.02,.19-.05,.27-.03,.08-.08,.16-.14,.21l-.38-.48v-.97l.38,.49c.06,.06,.11,.13,.14,.21,.03,.08,.05,.18,.05,.27Zm-2.58-15.26l-1.62-.67c.37,0,.74-.12,1.07-.33,.51-.28,1.07-.4,1.62-.36l-1.07,1.37Zm.33,18.53l-.02,.15c.01,.09,0,.19-.02,.28-.02,.09-.06,.17-.11,.24-.05,.07-.11,.12-.18,.15-.07,.03-.14,.04-.22,.03v-1.37c.06-.01,.13-.01,.19,0s.12,.05,.17,.1c.05,.05,.09,.11,.13,.18,.03,.07,.05,.15,.06,.23Zm-1.85,9.55l-.52,.33v-.33l.26-.7-.81-2.06h1.62l-.81,2.06,.26,.7Zm-.16-13.67c-.66,.15-1.34,0-1.93-.39-.11-.11-.21-.26-.28-.42-.07-.16-.11-.34-.13-.52-.01-.18-.05-.36-.12-.53-.07-.16-.17-.3-.28-.41l2.7,.33,.41,.48v.97l-.36,.49Zm.2,10.1v.7h-.53l.53-.7Zm-.04-15.58c.01-.27,.07-.53,.16-.77,.09-.24,.23-.45,.39-.63l.53,.7-.53,1.37-.55-.67Zm4.25-16.45l-.53-.7,1.07-.7,.52,.7-1.07,.7Zm-.53-4.01v-2.76h2.7l-2.7,2.76Zm3.15,39.4v1.37l-1.62,.7-.53-1.4,2.15-.67Zm-9.36-27.1c.93,.18,1.84,.52,2.7,1.03-.61,.39-1.24,.74-1.89,1.03-.64,.3-1.27,.64-1.89,1.03v6.25c-.31,.16-.58,.4-.82,.69-.23,.3-.42,.65-.54,1.04-.1,.34-.28,.63-.52,.82-.24,.19-.53,.26-.81,.21l-1.62-2.82c.69-1.73,1.15-3.58,1.36-5.49,.19-1.92,.64-3.78,1.34-5.49,.73,.92,1.68,1.52,2.7,1.7Zm1.44,33.85l1.84-2.52,.41,.49-1.84,2.49-.41-.46Zm4.63,64.27l.53,.7-.53,1.37-.55-.7,.55-1.37Zm1.07,10.99h.53v1.37l-1.07,.7-.53-1.37c0-.49,.36-.7,1.07-.7Zm-.86-28.84l1.07-.7,.53,.7h-1.6Zm.52-8.26v-.67c.36,0,.55,.21,.55,.67h-.55Zm1.96,20.61l1.62,1.37-1.1,3.43-1.62-2.73,1.1-2.06Zm-.62-6.61v-2.76l1.62,1.4,1.07,2.73-2.7-1.37Zm.65-22.88c.04,.1,.1,.19,.18,.25,.08,.06,.16,.09,.25,.09h-.33l-.41-.45,.36-.52c-.05,.09-.09,.2-.09,.31,0,.11,0,.22,.05,.33Zm3.41-28.98l1.1-2.06,1.62,.7-.55,2.73-2.17-1.37Zm3.1-7.07l.1-.3c.01,.14-.03,.27-.04,.4,.13,.15,.24,.32,.32,.52,.09,.23,.15,.49,.17,.75l-.55,1.37-.53-.67c.23-.32,.4-.69,.51-1.1,.07-.28,.07-.58,.08-.87-.02-.03-.04-.07-.06-.1Zm.69,32.48c0,.09,0,.19-.03,.28-.03,.09-.07,.17-.12,.24-.05,.07-.12,.12-.19,.15-.07,.03-.14,.04-.22,.03l.55-.7Zm-.52,36.77c.21,.11,.41,.27,.57,.48l-.17,.06h-.55l-.53-.67c.23-.02,.46,.02,.67,.13Zm.23-6.19v-.7l.53,.7h-.53Zm-.64-87.08l-.07-1.88,1.17,.46,.41,1.43h-1.5Zm3.87-11.29c.26,.86,.38,1.79,.34,2.72-.04,.93-.24,1.83-.58,2.65-.87-2.69-1.97-5.26-3.27-7.65l3.51,2.28Zm-.67-8.79c.35-.21,.67-.51,.93-.88v1.46l-.93-.58Zm4.06-27.81c.99-.06,1.96,.32,2.75,1.07,.59,.56,1.05,1.31,1.34,2.16,.03,.02,.06,.03,.08,.05,.06,.07,.11,.15,.15,.24,.04,.09,.05,.2,.05,.3s-.02,.21-.05,.3c-.03,.09-.09,.18-.15,.24-.06,.07-.14,.11-.22,.14s-.16,.03-.24,0v-.97l-3.71-3.55Zm2.28,27.58l-.55,1.37-1.07-2.73v-2.06h.52l1.1,3.43Zm-1.73-15.89l-.55,.67c-.17-.16-.3-.36-.4-.6-.09-.24-.14-.5-.14-.76s.05-.53,.14-.76c.09-.24,.23-.44,.4-.6l.55,2.06Zm.04,21.41c.49,.63,.94,1.31,1.34,2.03,.42,.57,.7,1.29,.81,2.06v.1h2.14l-1.62,2.03h-1.07l.33-1.3-.85,.53h-1.07l-1.07-2.73,1.07-2.73Zm5.51-23.65l-.72,.67,.62-.82h.14l.15-1.26c0-.27,.32-.62,.95-1.05,.1-.25,.18-.5,.29-.75v-.14c.03-.07,.07-.13,.1-.2v-.74h.36l.1-.03v-.15c.72-1.15,1.43-2.4,2.15-3.79l-.5,3.25,.88-1.89c.44,1.53,.63,3.17,.55,4.8l-2.15,2.76,.53,4.13c-.36,0-.91,.46-1.62,1.37l-1.35,.68,.6,.39-.53,.7h-1.62l-.55-1.4h.86l.79-6.53h-.03Zm2.23,78.37c-.07,.27-.19,.51-.35,.71-.16,.2-.35,.35-.56,.44s-.44,.11-.66,.07c-.21-.02-.41-.09-.59-.21-.18-.12-.35-.29-.48-.49-.03-.28-.01-.56,.06-.82,.07-.27,.19-.51,.34-.7,.16-.2,.34-.35,.55-.43,.21-.09,.43-.11,.65-.07,.84-.36,1.19-.15,1.19,.3l-.09,.36c.03,.28,.01,.57-.06,.84Zm-.03,41.47c-.08-.1-.18-.15-.29-.16s-.22,.03-.31,.1l.55-.7,.05,.76Zm-4.79-65.3l3.06-.58c.08-.18,.18-.34,.29-.49l-.53-3.65-1.32,.57-1.07-.7,.52-1.37,2.7-1.37-.52,2.69,1.19,1.4v1.78l.08-.21,.55,.67-1.62,2.06,.91-2.31c-.26,.13-.51,.31-.73,.53v.42h-.36c-.26,.5-.39,1.08-.39,1.67s.14,1.17,.39,1.67h-.76l-2.39-2.79Zm1.61,38.18v.67l-.55-.67h.55Zm-2.67-26.83l-2.17-.7,1.62-2.06,1.62,.7-1.07,2.06Zm.39,2.54c.05,.36-.22,.61-.48,.61l-.05,.09v-.7h.52Zm-.52,38.98l.52,.7-.52,1.37v-2.06Zm1.07,5.49h.55l-.55,.7h-.55l.55-.7Zm.08-72.98v-.97l.79,.91,.81,.94c-.51,.2-1.06,.16-1.55-.12l-.05-.76Zm2.51-29.44s.03,0,.05,0v-.52h.53c0,.08-.03,.16-.06,.24-.03,.07-.08,.13-.13,.18-.05,.05-.12,.08-.18,.1-.05,.01-.1,0-.15,0v.15l-.05-.15Zm1.28,54.29l-.53,1.37-1.07-.7,.53-1.37c.21,.02,.41,.09,.59,.21,.18,.12,.35,.29,.48,.49Zm-1.57,48.94c.29,0,.26-.21,.26-.67l.53,.67c0,.46-.17,.7-.53,.7h-.55c0-.45,0-.7,.29-.7Zm1.5-93.35v-2.76l1.3-1.64c-.12-.11-.23-.23-.36-.32l-.02,.09c-.13-.09-.24-.19-.36-.3v.79h-1.07v-3.43h1.07v1l.36-.46,1.23,1.56,.02-.03s.03,.08,.05,.12l.32,.41-.08,.22c.17,.58,.24,1.21,.19,1.83l.05,.15v3.43c-.36-.46-.53-.46-.53,0,0,.09,0,.19-.03,.28-.02,.09-.06,.17-.12,.24s-.12,.12-.19,.15c-.07,.03-.14,.04-.22,.03-1.07,0-1.62-.45-1.62-1.37Zm1.8,26.33l.41,.46h-.76l.36-.46Zm.09-1.31l.69-1.97,.41,.45c.06,.06,.11,.13,.14,.21,.03,.08,.05,.18,.05,.27s-.02,.19-.05,.27-.08,.16-.14,.21l-1.1,.55Zm-3.52-31.21v1.37l-1.07-.67,1.07-.7Zm-4.17,20.74l-.76,.03,.36-.52,.41,.49Zm-1.77,15.49l1.07,3.43-.55-1.37h-1.07l-.55-1.4,.55-.67h.55Zm-1.48-10.18h-1.53l.26-3.34c.59,.03,1.15,.35,1.58,.88,.15,.19,.26,.42,.33,.67,.07,.25,.1,.52,.08,.78l-.72,1Zm-2.32,35.88v.97c-.06,.04-.13,.06-.2,.07s-.14,0-.21-.04h-.33l.74-1Zm-.84,40.39c.36,0,.55,.46,.55,1.4-.02,.26-.07,.52-.17,.75-.09,.23-.22,.44-.38,.61l-1.07-1.37,1.07-1.4Zm.74,14.54c.26-.06,.54,0,.76,.18l.05,.15c.11,.13,.24,.23,.38,.29,.14,.06,.29,.09,.44,.07-.51,.19-.98,.54-1.36,1.02-.38,.48-.66,1.07-.82,1.71-.02-.7-.11-1.39-.26-2.06-.19-.91,0-1.37,.81-1.37Zm1.63-77.7l1.96,2.34h.79l.38,.46h.76l1.62,2.85-2.39-2.79h-.76l-.41-.49h-.74l-1.22-2.37Zm3.58,54.93l.55,.7c-.13,.2-.3,.36-.48,.47-.18,.11-.39,.18-.59,.19h-.55l1.07-1.37Zm.55,14.51v-4.8l2.15-1.4h2.17c-.11,1.23-.03,2.47,.25,3.66,.28,1.18,.75,2.28,1.37,3.23v2.73c-.94-.81-1.94-1.5-2.98-2.07-.88-.45-1.89-.91-2.96-1.37Zm9.17,14.42h-.53c-.01-.09,0-.18,.01-.27,.02-.09,.06-.17,.11-.23,.05-.07,.11-.11,.18-.14,.07-.03,.14-.03,.21-.02v.67Zm-.38-21.43h1.07c.07,0,.15,0,.22,.03,.07,.03,.13,.08,.19,.15,.05,.07,.09,.15,.12,.24,.02,.09,.03,.18,.03,.28v1.37l-1.62-2.07Zm1.4-45.78l-1.07-.67c.13-.2,.3-.37,.48-.49,.18-.12,.39-.19,.59-.21,.4-.07,.81,.05,1.15,.33l-.05,.36-1.1,.67Zm.63-11.95l-1.53,2.09-1.19-1.4,1.5-1.03c.38,.23,.8,.35,1.22,.33l.31-.42,1.15,.42h-1.46Zm1.73-48l.72-.67v.67h-.72l-1.46,1.4-.53-1.4,.53-.67,1.1,.67h.36Zm-.26-71.27l.55-1.37,.53,.7-.53,1.37-.55-.7Zm-1.35,73.92v1.37c-.07,.02-.15,0-.22-.02-.07-.03-.13-.08-.18-.14-.05-.07-.09-.15-.11-.23-.02-.09-.03-.18-.01-.27l.53-.7Zm.45,34.6l.36-.49c.06,.06,.11,.13,.14,.21,.03,.08,.05,.18,.05,.27s-.02,.19-.05,.27c-.03,.08-.08,.16-.14,.21l-.36-.49Zm.81-30.36c-.15,0-.29-.07-.39-.2-.1-.13-.16-.31-.16-.49s.06-.36,.16-.49c.1-.13,.24-.2,.39-.2,.31-.15,.45,.3,.45,1.24l.07,.15h-.52Zm1.35-49.1l1.1-1.37,2.15,1.37h-3.25Zm.66,1.75v.7h-.55c.07,0,.15,0,.22-.03,.07-.03,.13-.08,.19-.15,.05-.07,.09-.15,.12-.24,.02-.09,.03-.18,.03-.28Zm.81,37.61l1.19,1.4-.38,.52h-2.39l1.58-1.91Zm.81,14.48l-1.62,1.37v-2.73h1.08l.55,1.37Zm3.11,36.24c.29-.03,.58,.01,.85,.13,.27,.11,.53,.3,.75,.54-.62,.83-1.35,1.53-2.15,2.06-.72,0-1.07-.7-1.07-2.06,.27-.11,.56-.15,.85-.12,.29,.03,.57,.13,.82,.3l-.05-.85Zm.23-34.26c.58-1.27,.94-2.67,1.07-4.13v4.8l-1.07-.67Zm3.08-56.32v-.3l.52-1.06c.16,.17,.29,.38,.39,.61,.09,.23,.15,.49,.16,.76h-1.07Zm-.93-9.74h.02l1.07-1.37,1.06,1.37h.02v.02l.53,.68-.53,.67v-1.35l-.02-.02h-2.13l-.55,.7,.52-.7Zm-.55,45.03c.31,.36,.5,.86,.53,1.4,.03,.75-.16,1.48-.53,2.06l-.14,.4,.14,.27h-.21l-.88,2.82-.61-.46v.11c-.15-.02-.3,0-.44,.05-.14,.06-.27,.15-.38,.28-.41,.31-.89,.44-1.36,.36-.91-1.97-1.62-4.08-2.12-6.27l-.03,.08,.02-.09v.02l.79-2-1.21-.52,1.07-1.37,.59,.73,.36-.9c.32,1.33,.77,2.61,1.34,3.79,.41,.87,.74,1.78,1.03,2.72,.64,.1,1.27,.25,1.89,.46v-.21l-1.48-3.04,1.62-.7Zm-2.53-54.85v6.07c-.19-.36-.47-1.12-.84-2.28l-.24-.76c-.34-.96-.52-1.99-.55-3.04-.1-.97,.1-1.95,.55-2.73,.31,.34,.57,.76,.75,1.23,.18,.47,.29,.98,.32,1.5Zm-2.7-15.85l1.62,1.37-1.1,3.43-1.62-2.73,1.1-2.06Zm-1.1,17.85l-1.07,.7-.53-1.37c0-.49,.36-.7,1.07-.7h.53v1.37Zm-1.52-25.04l1.07,3.43-1.62,2.06-1.07-2.76,1.62-2.73Zm-1.78-11.19c.31,.35,.49,.84,.53,1.37v.7c-.17-.2-.3-.45-.38-.73l-.14-.64v-.7Zm-4.96,1.05v.67h-.55l.55-.67Zm-.36,13.9c.21-.25,.47-.44,.74-.56,.28-.12,.57-.17,.86-.14,.84-.03,1.67,.29,2.35,.91,.68,.62,1.19,1.5,1.45,2.52-1.33,.89-2.81,1.37-4.32,1.4-.81,.76-1.72-.39-2.44-2.67l-.26-.76c.59,.03,1.17-.22,1.62-.7Zm-2.57,26.86l1.62,1.4v3.43l-2.17-2.06,.55-2.76Zm-1.7-16.15v.67c-.38,0-.55-.21-.55-.67h.55Zm-1.19,6.16c.02,.1,.02,.21,0,.31-.02,.1-.06,.2-.11,.28-.05,.08-.12,.15-.19,.19-.07,.05-.15,.07-.24,.07s-.16-.02-.24-.07c-.07-.04-.14-.11-.19-.19-.05-.08-.09-.17-.11-.28-.02-.1-.02-.21,0-.31h1.07Zm-2.82-33.54h1.62c-.48,1.04-.67,2.24-.55,3.43l-1.6-1.37,.52-2.06Zm.14,13.89c.06,.06,.11,.13,.14,.21,.03,.08,.05,.18,.05,.27,0,.02-.01,.05-.01,.07l.08,.26c-.1,.02-.19,.07-.26,.15,.06-.06,.11-.13,.14-.21,.02-.06,.03-.13,.04-.2l-.18-.56Zm.07-3.75l.55-.7v.7h-.55Zm-1.11,62.65c.14-.36,.35-.67,.61-.9,.09-.12,.19-.23,.29-.33v-.36l1.07-.67c-.26,.33-.64,.67-1,1.03l.45,2.4-1.07,1.37c-.16-.17-.28-.38-.37-.62-.09-.23-.14-.49-.15-.75-.02-.4,.04-.8,.18-1.16Zm1.94,30.23l-2.15,2.06c-.18-.04-.37-.03-.55,0l-.52-2.73-2.17-3.43,1.07,1.37h1.62l2.7,2.73Zm-4.85-19.09v-.7c0,.45,.17,.7,.53,.7h-.53Zm-.84-54.54l1.6,2.03c-.22,.25-.47,.44-.74,.56-.27,.12-.57,.17-.85,.14h-.55l-.55-1.37,1.1-1.37Zm-5.52,7.24c.04,1.15,.13,2.29,.26,3.43,.05,.7,.16,1.39,.33,2.06h.48v.7h2.15l.45-.3s0-.02,0-.04l.05-.03v-.34h.55l-.55,.34v.03l-.05,.04c0,.42-.07,.83-.2,1.21-.14,.39-.34,.74-.59,1.03-.25,.29-.55,.5-.87,.63-.32,.13-.66,.18-.99,.13l-.02-2.7c-.19,0-.33-.24-.48-.7l-1.62-1.37,1.1-4.13Zm-4.85-6.5c1.2-.24,2.43-.24,3.63,0-1.02,.86-2.08,1.64-3.18,2.34-.55,.58-1.65,.09-2.96-1.49h-.33l-.38-.45c1,0,2.08-.18,3.22-.39Zm-1.75,58.59c-.24,.52-.79,.06-1.5-.91l-.12-.45c.36,0,.88,.45,1.62,1.37Zm-7.85-64.09c.5-.67,.86-.85,1.15-.55l.81,1.91-1.5,1.06-.81-1.91,.36-.52Zm-18.88-21.1l1.19,1.4,2.7,1.34,1.19,1.4v.97c-.73,.35-1.49,.55-2.27,.61-.51,0-1.01,.23-1.42,.63h0v.02l.29,.35v.97l-.36,.52-.38-1.43c.14-.16,.28-.29,.44-.41h-.01s.01-.02,.02-.02l-2.05-2.42,.64-3.92Zm-7.09,70.42l.55-.7,1.62,.7h-2.17l-.53,.67c-.1-.11-.23-.18-.36-.21l-1.27,1.61c.01-.27,.06-.53,.16-.77,.09-.24,.23-.45,.39-.63,.09-.13,.2-.22,.33-.25,.13-.04,.26-.02,.39,.04l.36-.46h.53Zm-.37-22.4c.13-.04,.25-.13,.4-.19,.08-.12,.12-.29,.12-.51l.21,.42c-.13,0-.24,.04-.34,.08-.09,.13-.22,.19-.4,.19Zm3.99,158.07l3.08,.85v1.94l-1.46,2c-.96,1.17-2.11,2.05-3.37,2.58-.25,.01-.49,.09-.72,.23s-.43,.33-.59,.56c-.38,.53-.84,.47-1.36-.18-.26-.3-.41-1.43-.48-3.37l4.89-4.61Zm-.91-58.98l1.6-1.4,.55,2.06-1.07,2.06-1.07-2.73Zm3.89-110.21c-.07,.03-.14,.04-.22,.03v-.7h.55c0,.09,0,.19-.03,.28s-.06,.17-.12,.24c-.05,.07-.12,.12-.19,.15Zm-1.6,185.79c1.2-.24,2.43-.24,3.63,0-1.02,.86-2.08,1.64-3.18,2.34-.55,.58-1.65,.09-2.96-1.49h-.33l-.38-.45c1,0,2.08-.18,3.22-.39Zm6.31-144.15c-.09,.02-.17,.03-.26,.03,.13-.21,.18-.34,.24-.47l-.02-.41c.15,0,.13,.17,.02,.41l.02,.44Zm-.14,10.91l-.55,1.37v-2.06l.55,.7Zm.08-56.55l-.55-2.03h.55l.55,.67-.55,1.37Zm-.04-9.1c-.07,.01-.13,.05-.19,.09-.06,.05-.11,.11-.14,.19-.04,.08-.06,.16-.07,.25,0,.09,0,.18,.02,.26l-.36-.76,.74-1v.97Zm-.35,34.41l-1.07,.67-1.1-.67c0-.09,0-.19,.03-.28,.02-.09,.07-.17,.12-.24,.05-.07,.12-.12,.19-.15,.07-.03,.14-.04,.22-.03,.26-.05,.53,.01,.76,.18l.05,.15c.11,.13,.24,.23,.38,.29,.14,.06,.29,.09,.44,.07Zm-.36,22.06l-.05,.24c-.1,.1-.19,.21-.26,.33h-.53c.31-.1,.6-.3,.84-.58Zm-1.31-6.43c0,.09,0,.19-.03,.28-.03,.09-.06,.17-.12,.24-.05,.07-.12,.12-.19,.15-.07,.03-.15,.04-.22,.03l-.53-.7h1.08Zm1.43,27.62l-1.07,.67h-.55l-.55-.67,.55-2.06h2.17l-.55,2.06Zm-.91,51.23l-.26-.76-.55-1.37c0-.49,.55-1.4,1.62-2.76,.16,.17,.28,.38,.37,.61,.09,.23,.14,.49,.15,.75,.26,1.21-.26,2.16-1.34,3.52Zm1.4,11.56h-3.77l.55-4.13c1.4,.89,2.53,2.34,3.22,4.13Zm-.07,3.46l-1.07,.7-.52-.7,1.07-.67,.52,.67Zm-2.44,13.27l-.14-.91c.55,.01,1.09,.21,1.57,.57,.47,.36,.86,.88,1.13,1.49l-.52,3.43c-.46-1.66-1.15-3.22-2.03-4.58Zm1.24,48.2c.04,1.15,.13,2.29,.26,3.43,.05,.7,.16,1.39,.33,2.06h.48v.7h2.15l.45-.3s0-.02,0-.04l.05-.03v-.34h.55l-.55,.34v.03l-.05,.04c0,.42-.07,.83-.2,1.21-.14,.39-.34,.74-.59,1.03-.25,.29-.55,.5-.87,.63s-.66,.18-.99,.13l-.02-2.7c-.19,0-.33-.24-.48-.7l-1.62-1.37,1.1-4.13Zm1.81-58.59l1.07-2.07,.55,2.07-.55,2.73-1.07-2.73Zm1.53-157.74l-.53-1.37h1.07l.55,.67-1.1,.7Zm-.41,84.47l-1.24,1.61,.17,.45h-.41l.24-.45-1.46-3.67-1.07-.7h.55c.15-.01,.3,.01,.44,.07,.14,.06,.27,.16,.38,.29,.41,.29,.87,.41,1.34,.33l1.08,2.06Zm-6.61-83.78c.4,.38,.72,.88,.93,1.45,.22,.57,.32,1.2,.31,1.83l-.14-.55c-.07,1.07-.46,2.06-1.1,2.76v-5.49Zm-.85-11.98v1.94l-.72,.03-.43-1.43,1.15-.55Zm-2.37,14.71c.02,.37-.02,.75-.11,1.1-.09,.35-.24,.68-.44,.96l-.55-1.37,1.1-.7Zm1.35,48.62c.74,0,1.43,.91,2.17,2.73-.88,.09-1.76-.05-2.59-.41-.83-.35-1.6-.92-2.26-1.66h-.02l2.7-.67Zm-4.6-42.43l.53-.7,.55,.7c.02,.75-.17,1.49-.55,2.06l-.53-.7v-1.37Zm-.33,11.02l1.07,2.06-2.15,1.37-1.07-2.06,2.15-1.37Zm-2.09,47.96c.01,.09,0,.19-.01,.27-.02,.09-.06,.17-.11,.23-.05,.07-.11,.11-.18,.14-.07,.03-.14,.03-.22,.02v-.67h.53Zm-1.38-63.1l1.1-.7,.53,1.4-1.62,1.37v-2.06Zm-.53,5.49h.53c-.36,0-.53,.21-.53,.7v-.7Zm-.19,96.18h1.07l2.12,7.56c-.84-1.09-1.64-2.23-2.39-3.43-.73-.93-1.21-2.13-1.36-3.43l.55-.7Zm-1.13-39.93l.53,2.73-1.07,1.37,.55-4.1Zm-3.74-15.74l.55,.7v1.37l-1.07-.7,.52-1.37Zm-2.73,2.62l.55,.67c-.28,.41-.67,.66-1.1,.7l-.53-.7,1.07-.67Zm.99,10.67c0,.45-.17,.7-.53,.7h-.55l-.53-1.37v-.7l1.6,1.37Zm-2.58-7.22l1.62,.7-.52,1.37-1.62-.67,.53-1.4Zm-.88,37.46h-1.6l1.07-2.06,.53,2.06Zm-1.87,39.88l-1.62-.67,.55-1.4,1.62,.7-.55,1.37Zm.53,20.46l-.19,.7c0-.09,0-.19-.03-.28-.02-.09-.06-.17-.12-.24-.05-.07-.12-.12-.19-.15-.07-.03-.14-.04-.22-.03h.74Zm-3.15,51.67c-.07,.01-.13,.05-.19,.09-.06,.05-.11,.11-.14,.19-.04,.08-.06,.16-.07,.25,0,.09,0,.18,.02,.26l-.36-.76,.74-1v.97Zm.04,7.06l.55,.67-.55,1.37-.55-2.03h.55Zm.63,33.13l-2.17,1.37-1.6-2.03,1.6-.7,2.17,1.37Zm-1.97-58.29c-.51,0-1.01,.23-1.42,.63h0v.02l.29,.35v.97l-.36,.52-.38-1.43c.14-.16,.28-.29,.44-.41h-.01s.01-.02,.02-.02l-2.05-2.42,.64-3.92,1.19,1.4,2.7,1.34,1.19,1.4v.97c-.73,.35-1.49,.55-2.27,.61Zm-3.74,13.36v-5.49c.4,.38,.72,.88,.93,1.45,.22,.57,.32,1.2,.31,1.83l-.14-.55c-.07,1.07-.46,2.06-1.1,2.76Zm.76,17.18c0,.09,0,.19-.03,.28-.03,.09-.06,.17-.12,.24s-.12,.12-.19,.15-.14,.04-.22,.03v-.7h.55Zm2.05-167.02c.68,.89,1.49,1.59,2.39,2.06,.43,.21,.79,.59,1.03,1.08,.24,.49,.35,1.07,.31,1.65l-.55,1.4v.67h-3.77c-.47,.06-.94-.05-1.36-.33-.17-.24-.62-.33-1.34-.33l-.4-.5,.46,1.46-1.62,2.06-1.07-2.76,1.62-2.73,.46,1.48v-1.07c.03-.52,.17-1.02,.41-1.44,.24-.42,.57-.75,.95-.95,.84-.51,1.7-.97,2.58-1.37l-.1-.36Zm1.13-7.12v-.7l.53,.7h-.53Zm-.99,49.71c.31,.49,.48,1.1,.48,1.73l-.1,.09h-1.62v-2.76c.49,.12,.92,.45,1.24,.94Zm-1.23-22.16h.55l.41,.58h.12c.26,.33,.44,.75,.52,1.21-.26,1.09-.43,.67-.45-.12l-.05-.85-.14-.24-.95-.58Zm.54,32.9l1.07-.7h.55l-.55,.7h-1.07Zm.32,46.14l-1.07,.7-1.07-1.4h1.62l.53,.7Zm3-28.96l-.55,1.37c-.93-1.18-1.61-1.86-1.99-2.02l-.16-.04s.1,.02,.16,.04l2.54,.66Zm-2.24-20.58c-.02-1.11-.19-2.21-.5-3.25l-.05-.85,1.62,3.43-1.07,.67Zm.55-12.35l-1.1-.67v-1.4l2.17-2.73,2.7,1.37-3.77,3.43Zm.53-7.56l.55-.67v.67h-.55Zm-4.85,50.02l1.07,.33v1.4c-.72,0-1.07-.24-1.07-.7v-1.03Zm-.32-30.77c.07,0,.15,0,.22-.03s.13-.08,.19-.15c.05-.07,.09-.15,.12-.24,.02-.09,.03-.18,.03-.28v.7h-.55Zm-.77-8.93l-1.07-1.4,1.07-2.03,2.17,1.37-2.17,2.06Zm.55,5.49v.67l-.55-1.37,.55,.7Zm-1.84,34.42l.55-1.4,1.07,.7v1.37l-1.62-.67Zm.34,46.03c0,.09-.02,.19-.05,.27-.03,.08-.08,.16-.14,.21l-.36-.49,.36-.49c.06,.06,.11,.13,.14,.21,.03,.08,.05,.18,.05,.27Zm1.62,6.07v1.94l-.72,.03-.43-1.43,1.15-.55Zm-.12-44.26l1.58-1.91,1.19,1.4-.38,.52h-2.39Zm1.25,26.12c2.58-2.49,4.61-2.58,6.26-.79l-.14,.52,.79,.91-6.9-.64Zm7.76-56.19l-.09,.09c-.84,.85-1.64,1.78-2.39,2.76,.37-1.46,.64-2.95,.81-4.46,.11-.84,.39-1.63,.81-2.29,.42-.66,.96-1.18,1.58-1.5-.01,.19,0,.38,.06,.56,.05,.18,.13,.34,.23,.48,.18,.29,.28,.66,.26,1.03,0,.64-.11,1.28-.33,1.86-.22,.58-.54,1.09-.94,1.48Zm-.92-40.13l-1.07-1.37,1.07-2.06,1.62,2.06-1.62,1.37Zm-3.17-60.6l2.15-.67c.01,.26,.07,.52,.16,.76,.09,.23,.23,.44,.39,.61,.19,.1,.36,.24,.5,.42s.26,.4,.33,.64l-.31,.3h-.53l-3.25,1.4-1.07,1.37v5.49h-3.25l1.07-2.76c.35-.84,.54-1.78,.55-2.73v-.7h-.55l-.52-.67h1.07v.67c.22,.25,.48,.44,.76,.56,.28,.12,.57,.17,.87,.14l1.62-4.83Zm2.51-32.42l-.55,.7-.53-.7h1.07Zm-5.94,6.86l3.25,.7,1.62,1.37h.53c-.5,.62-1.04,1.2-1.6,1.73-.46,.52-1.02,.87-1.62,1.03-.42-.04-.82-.18-1.2-.42-.37-.24-.7-.57-.97-.98l-2.15,1.4,2.15-4.83Zm-3.52,46.31c.07-.03,.13-.08,.18-.15,.05-.07,.09-.15,.11-.24,.02-.09,.03-.18,.02-.28v.7h-.53c.07,.01,.15,0,.22-.03Zm-.62,16.83c.17-.17,.32-.38,.42-.62s.17-.51,.2-.78l-.07,.03c0-.07,.01-.12,.02-.18-.33-.28-.5-.52-.5-.72v-2.73l3.25,2.03v1.24l1.4,1.76v.7l-.55,.67c-.95-.85-1.7-1.55-2.03-1.55l-.1-.44c-.14-.08-.28-.16-.41-.23v2.18h-1.07v.7l-.55,1.37,.45-1.7-.45-1.73Zm-1.92,235.75l-3.25-4.13,3.25-3.43,.53,1.49c-.03,1.04-.2,2.07-.53,3.04-.17,.48-.26,.99-.26,1.52s.09,1.04,.26,1.52Zm-9.22-19.25l-.53-3.43,2.15-1.37v2.73l-1.62,2.06Zm1.07,2.76v1.37l-1.07-.7c.13-.2,.3-.36,.48-.47,.18-.11,.39-.18,.59-.19Zm-1.79-25.53h-.55l1.07-1.37,.55,.7c-.13,.2-.3,.36-.48,.47-.18,.11-.39,.18-.59,.19Zm1.07,13.14v-4.8l2.15-1.4h2.17c-.11,1.23-.03,2.47,.25,3.66,.28,1.18,.75,2.28,1.37,3.23v2.73c-.94-.81-1.94-1.5-2.98-2.07-.88-.45-1.89-.91-2.96-1.37Zm7.01-206.92l.52,1.37-3.22,1.37,1.07-2.07,1.62-.67Zm-1.38-.62l.55-.67v.67h-.55Zm3.81,94.94l.53,2.73-2.15-1.37,1.62-1.37Zm-1.41-47.48c0-.45,.17-.7,.53-.7l.55,.7c0,.46-.19,.67-.55,.67l-.53-.67Zm0-6.19l-1.07-.67h-.55l-.55,.67,2.17-2.73,2.15,1.37-2.15,1.37Zm-1.5,132.2l-1.07-2.06,2.15-1.37,1.07,2.06-2.15,1.37Zm2.08,10.81c-.13,0-.24,.04-.34,.08-.09,.13-.22,.19-.4,.19,.13-.04,.25-.13,.4-.19,.08-.12,.12-.29,.12-.51l.21,.42Zm-4.46-27.32v-2.06l1.1-.7,.53,1.4-1.62,1.37Zm.84,41.5c0,.46-.17,.7-.53,.7h-.55c0-.45,0-.7,.29-.7s.26-.21,.26-.67l.53,.67Zm-.2-189.28c.02-.26,.07-.52,.17-.75,.09-.23,.22-.44,.38-.61l1.07,.7-.53,1.37-1.1-.7Zm.46,135.42l1.62-1.4,1.6,1.4-1.6,1.37-1.62-1.37Zm3.22,16.48l-.53-.7v-1.37l.53-.7,.55,.7c.02,.75-.17,1.49-.55,2.06Zm.36-31.71c-.03,.08-.08,.16-.14,.21l-1.1,.55,.69-1.97,.41,.45c.06,.06,.11,.13,.14,.21,.03,.08,.05,.18,.05,.27s-.02,.19-.05,.27Zm-2.42-116.93c-.72,0-1.07-.7-1.07-2.06,.27-.11,.56-.15,.85-.12,.29,.03,.57,.13,.82,.3l-.05-.85c.29-.03,.58,.01,.85,.13,.27,.11,.53,.3,.75,.54-.62,.83-1.35,1.53-2.15,2.06Zm-1.55,29.06v3.43l-2.17-2.06,.55-2.76,1.62,1.4Zm-1.25,118.89h.53c-.36,0-.53,.21-.53,.7v-.7Zm5.55,61.57h-.53c-.01-.09,0-.18,.01-.27,.02-.09,.06-.17,.11-.23,.05-.07,.11-.11,.18-.14,.07-.03,.14-.03,.21-.02v.67Zm-.38-21.43h1.07c.07,0,.15,0,.22,.03,.07,.03,.13,.08,.19,.15,.05,.07,.09,.15,.12,.24,.03,.09,.03,.18,.03,.28v1.37l-1.62-2.07Zm1.31-47l1.1-.7c.02,.37-.02,.75-.11,1.1-.09,.35-.24,.68-.44,.96l-.55-1.37Zm.98-51.73l-1.1,2.06-2.15-1.37c1.07-1.4,1.79-2.06,2.15-2.06l1.1,1.37Zm-1.41-80.17l.52,.67-1.07,1.37-.55-1.37,1.1-.67Zm-.37-49.31l-1.07,1.37c0,.95,.18,1.89,.53,2.73,.29,.63,.48,1.34,.55,2.06l-.55,1.37c-.62,.56-1.39,.81-2.15,.7-.21-.02-.41-.09-.59-.21-.18-.12-.35-.29-.48-.49l.53-4.1c-.05-.47-.02-.94,.1-1.39,.12-.45,.31-.85,.58-1.18,.26-.33,.58-.58,.93-.73,.35-.15,.72-.19,1.09-.13h.55Zm-1.81-9.07l1.07,3.43-1.6,2.06c-1.85-.65-3.47-2.08-4.61-4.04l-.26-.76c1.76-.56,3.58-.8,5.4-.7Zm-4.96,107.65v.7c-.06,.04-.12,.07-.19,.08-.07,.01-.13,0-.2-.02l-.17-.76h.55Zm.43,24.04v1.37l.55,1.37v1.4c-.44-.81-.63-1.79-.55-2.76l-1.07-1.37h1.07Zm-1.4-70.99v.67c-.38,0-.55-.21-.55-.67h.55Zm-.44,19.39c0,.09,0,.19-.03,.28-.02,.09-.07,.17-.12,.24-.05,.07-.12,.12-.19,.15-.07,.03-.14,.04-.22,.03l-.1-.7h.64Zm0,22.07l-.55,.7-.1-.7h.64Zm-.76-35.3c.02,.1,.02,.21,0,.31-.02,.1-.06,.2-.11,.28-.05,.08-.12,.15-.19,.19-.07,.05-.15,.07-.24,.07s-.16-.02-.24-.07c-.07-.04-.14-.11-.19-.19-.05-.08-.09-.17-.11-.28-.02-.1-.02-.21,0-.31h1.07Zm-2.82-33.54h1.62c-.48,1.04-.67,2.24-.55,3.43l-1.6-1.37,.52-2.06Zm-3.78,31.97c-.27,.12-.57,.17-.85,.14h-.55l-.55-1.37,1.1-1.37,1.6,2.03c-.22,.25-.47,.44-.74,.56Zm.29,174.11c-.02,.26-.07,.52-.17,.75-.09,.23-.22,.44-.38,.61l-1.07-1.37,1.07-1.4c.36,0,.55,.46,.55,1.4Zm-1.62,7.65h-.53v-.7l.53,.7Zm2.38-139.4l.05,.76c-.08-.1-.18-.15-.29-.16-.11-.01-.22,.03-.31,.1l.55-.7Zm-.13-58.29l-.21-.39-.55-.3h.76v.3l3.22,1.76c0,.91-.72,1.37-2.15,1.37-.74,.39-1.07-.67-1.07-2.73Zm-.4-44.59h-1.07v-3.43h1.07v3.43Zm.98,2.03c.01,.09,0,.19-.02,.28-.02,.09-.06,.17-.11,.24-.05,.07-.11,.12-.18,.15-.07,.03-.14,.04-.22,.03h-.55v-.7h1.07Zm2.45,269.96c.18-.12,.39-.19,.59-.21v1.4l-.55,.67-.53-1.37c.13-.2,.3-.37,.48-.49Zm.04-233.31l.55-.7v.7h-.55Zm-5.19-55.04h.19l.48-.46c.19-.91,.5-1.77,.86-2.59v-.14c.03-.07,.07-.13,.1-.2v-.74h.36l.1-.03v-.15c.72-1.15,1.43-2.4,2.15-3.79l-.52,3.43-1.62,.52v.03h-.1c-.13,.23-.25,.49-.36,.74v.05c-.04,.09-.06,.2-.1,.29v1.81l-.95,.94-.12,.45h-.36l-.72,.67,.62-.82Zm.1,6.68l1.07,.7-.53,.7h-1.62l-.55-1.4h1.62Zm-1.65,41.8l2.7-1.37-.52,2.73-1.62,.7-1.07-.7,.52-1.37Zm-2.1,20.7l-.05,.09v-.7h.52c.05,.36-.22,.61-.48,.61Zm.48,39.07l-.52,1.37v-2.06l.52,.7Zm-.1-79.65l-1.07,.67h-1.07l-1.07-2.73,1.07-2.73c.49,.63,.94,1.31,1.34,2.03,.42,.57,.7,1.29,.81,2.06v.7Zm-.6,5.88l-.52,3.43c-.46-1.66-1.15-3.22-2.03-4.58l-.14-.91c.55,.01,1.09,.21,1.57,.57,.47,.36,.86,.88,1.13,1.49Zm-1.72-14.42l1.07-.67,.52,.67-1.07,.7-.52-.7Zm1.07-19.91c.16,.17,.28,.38,.37,.61,.09,.23,.14,.49,.15,.75,.26,1.21-.26,2.16-1.34,3.52l-.26-.76-.55-1.37c0-.49,.55-1.4,1.62-2.76Zm-6.28-4.97c0,.45,.17,.7,.53,.7h-.53v-.7Zm.53,17.06h1.62l2.7,2.73-2.15,2.06c-.18-.04-.37-.03-.55,0l-.52-2.73-2.17-3.43,1.07,1.37Zm2.34,97.25c.05-.6-.04-1.2-.26-1.73-.19-.21-.29-.79-.29-1.7v-2.76l2.7-.67-.52,6.86h-1.62Zm.21,31.73l-1.6,.7-1.1-2.07,1.62-.7,1.07,2.07Zm-1.43-123.58v1.46l-.93-.58c.35-.21,.67-.51,.93-.88Zm-.45,75.62l.55,4.13-1.62-2.06-1.07-3.43,2.15,1.37Zm-3.46-29.67c.07-.28,.07-.58,.08-.87-.02-.03-.04-.07-.06-.1l.1-.3c.01,.14-.03,.27-.04,.4,.13,.15,.24,.32,.32,.52,.09,.23,.15,.49,.17,.75l-.55,1.37-.53-.67c.23-.32,.4-.69,.51-1.1Zm.71,31.51c0,.09,0,.19-.03,.28-.03,.09-.07,.17-.12,.24-.05,.07-.12,.12-.19,.15-.07,.03-.14,.04-.22,.03l.55-.7Zm-1.07-26.77l-.55,2.73-2.17-1.37,1.1-2.06,1.62,.7Zm-2.82-34.24l2.17,.67-1.62,2.06-2.7-.67,2.15-2.06Zm-2.05,37.67c1.16,1.51,2.25,3.11,3.25,4.8-1.27-.13-2.53-.44-3.75-.91l-.05-.79-3.77-2.4v-2.76c.79-.05,1.58,.12,2.33,.47,.74,.36,1.42,.9,1.99,1.59Zm3.25,26.77l-1.1,1.4-.52-2.06,1.07-.7,.55,1.37Zm-7.02,17.27l1.07-.7,.53,.7h-1.6Zm1.38,28.84v1.37l-1.07,.7-.53-1.37c0-.49,.36-.7,1.07-.7h.53Zm-.86-37.09v-.67c.36,0,.55,.21,.55,.67h-.55Zm1.96,20.61l1.62,1.37-1.1,3.43-1.62-2.73,1.1-2.06Zm1.62,13.11c.31,.34,.57,.76,.75,1.23,.18,.47,.29,.98,.32,1.5v6.07c-.19-.36-.47-1.12-.84-2.28l-.24-.76c-.34-.96-.52-1.99-.55-3.04-.1-.97,.1-1.95,.55-2.73Zm-4.18-114.74l1.07-.7,.52,.7-1.07,.7-.53-.7Zm3.15,37.46l-1.62,.7-.53-1.4,2.15-.67v1.37Zm-3.15-40.77v-2.76h2.7l-2.7,2.76Zm.9-17.63c.18-.11,.35-.28,.48-.47v1.37l-.52,1.37c.02-.37-.02-.75-.11-1.1-.09-.35-.24-.68-.44-.96,.21-.01,.41-.08,.59-.2Zm-.9,6.64v1.37l-.55-.67,.55-.7Zm-.14,121.42l.53,.7-.53,1.37-.55-.7,.55-1.37Zm-2.6-99.9c.51-.28,1.07-.4,1.62-.36l-1.07,1.37-1.62-.67c.37,0,.74-.12,1.07-.33Zm.1,9.23l-.53,1.37-.55-.67c.01-.27,.07-.53,.16-.77,.09-.24,.23-.45,.39-.63l.53,.7Zm-.53,17.09l-.81,2.06,.26,.7-.52,.33v-.33l.26-.7-.81-2.06h1.62Zm-3.99,64.66c.21-.25,.47-.44,.74-.56,.28-.12,.57-.17,.86-.14,.84-.03,1.67,.29,2.35,.91,.68,.62,1.19,1.5,1.45,2.52-1.33,.89-2.81,1.37-4.32,1.4-.81,.76-1.72-.39-2.44-2.67l-.26-.76c.59,.03,1.17-.22,1.62-.7Zm-1.96-104.16l-.19,.7c0-.09,0-.19-.03-.28-.02-.09-.06-.17-.12-.24s-.12-.12-.19-.15c-.07-.03-.14-.04-.22-.03h.74Zm-3.09,105.56c.15,0,.13,.17,.02,.41l.02,.44c-.09,.02-.17,.03-.26,.03,.13-.21,.18-.34,.24-.47l-.02-.41Zm-.37,70.74c.09,.23,.14,.49,.15,.75,.26,1.21-.26,2.16-1.34,3.52l-.26-.76-.55-1.37c0-.49,.55-1.4,1.62-2.76,.16,.17,.28,.38,.37,.61Zm.15,19.3l-1.07,.7-.52-.7,1.07-.67,.52,.67Zm-.55-87.45l-.05,.24c-.1,.1-.19,.21-.26,.33h-.53c.31-.1,.6-.3,.84-.58Zm-1.61-53.38c.07,0,.15,0,.22,.03,.07,.03,.13,.08,.19,.15,.05,.07,.09,.15,.12,.24,.03,.09,.03,.18,.03,.28h-.55v-.7Zm-2.12-27.02v-.7h.55l-.55,.7Zm1.71,180.2c.55,.01,1.09,.21,1.57,.57,.47,.36,.86,.88,1.13,1.49l-.52,3.43c-.46-1.66-1.15-3.22-2.03-4.58l-.14-.91Zm5.11,54.94v.03l-.05,.04c0,.42-.07,.83-.2,1.21-.14,.39-.34,.74-.59,1.03-.25,.29-.55,.5-.87,.63s-.66,.18-.99,.13l-.02-2.7c-.19,0-.33-.24-.48-.7l-1.62-1.37,1.1-4.13c.04,1.15,.13,2.29,.26,3.43,.05,.7,.16,1.39,.33,2.06h.48v.7h2.15l.45-.3s0-.02,0-.04l.05-.03v-.34h.55l-.55,.34Zm11.79-40.62c-1.32,1.77-2.76,3.37-4.32,4.8l-2.15-2.73,.14-.18c-1.26-.49-2.48-1.12-3.65-1.88-1.3-1.45-2.47-3.07-3.51-4.83l3.22-1.37c.49,.65,1.08,1.17,1.73,1.53,.65,.35,1.35,.54,2.06,.54,.99-.74,2.1-1.21,3.25-1.37,.75,0,1.48,.23,2.15,.67,.32,.17,.59,.46,.78,.82,.19,.37,.29,.8,.29,1.24v2.76Zm.12-20.06c-.72,.47-1.51,.92-2.39,1.37-.6,.36-1.23,.59-1.89,.7h-1.62c-1.07-1.4-1.6-2.31-1.6-2.76,.15-1.69,.69-3.28,1.55-4.58l-.21-.55c.71-1.34,1.51-2.6,2.39-3.76l1.62,.7,.53,2.06c.32,.83,.69,1.63,1.1,2.4,.39,.93,.57,1.98,.53,3.04v1.4Zm-.66-13.62l-.26-.76c1.76-.56,3.58-.8,5.4-.7l1.07,3.43-1.6,2.06c-1.85-.65-3.47-2.08-4.61-4.04Zm6.39,11.71c.29,.63,.48,1.34,.55,2.06l-.55,1.37c-.62,.56-1.39,.81-2.15,.7-.21-.02-.41-.09-.59-.21-.18-.12-.35-.29-.48-.49l.53-4.1c-.05-.47-.02-.94,.1-1.39,.12-.45,.31-.85,.58-1.18,.26-.33,.58-.58,.93-.73,.35-.15,.72-.19,1.09-.13h.55l-1.07,1.37c0,.95,.18,1.89,.53,2.73Zm-1.16-50.32c-.64,.3-1.27,.64-1.89,1.03v6.25c-.31,.16-.58,.4-.82,.69-.23,.3-.42,.65-.54,1.04-.1,.34-.28,.63-.52,.82-.24,.19-.53,.26-.81,.21l-1.62-2.82c.69-1.72,1.15-3.58,1.36-5.49,.19-1.92,.64-3.78,1.34-5.49,.73,.92,1.68,1.52,2.7,1.7,.93,.18,1.84,.52,2.7,1.03-.61,.39-1.24,.74-1.89,1.03Zm2.02-38.8c.23-.02,.46,.02,.67,.13,.21,.11,.41,.27,.57,.48l-.17,.06h-.55l-.53-.67Zm4.75,16.33c.93-.04,1.85,.2,2.7,.7v6.86c.07-.02,.15,0,.22,.02,.07,.03,.14,.08,.19,.15,.05,.07,.09,.15,.12,.24,.02,.09,.03,.19,.02,.29-.03,.13-.03,.27,0,.39l-.55-.39v-.7h-3.77v-4.13l-2.7-2.06c1.16-.82,2.45-1.28,3.77-1.37Zm-2.65,79.53v.7h-.53c.07,.01,.15,0,.22-.03,.07-.03,.13-.08,.18-.15,.05-.07,.09-.15,.11-.24,.02-.09,.03-.18,.02-.28Zm2.39,16.6l-.55,.7c-.84-.42-1.48-.8-1.92-1.13,.02,.1,.04,.21,.04,.32v.7c-.17-.2-.3-.45-.38-.73l-.14-.64v-.06c-.19-.2-.29-.38-.29-.52v-2.73l3.25,2.03v2.06Zm.82,10.3v-2.76l1.62,1.4,1.07,2.73-2.7-1.37Zm2.36-201.9h-1.07l-.55-1.4,.55-.67h.55l1.07,3.43-.55-1.37Zm2.3,147.29l-1.15-1.4c.2-.03,.41,0,.61,.06,.2,.07,.38,.2,.54,.36v.97Zm.4-86.16l.55-.7h.55l-.55,.7h-.55Zm2.27,182.78v-.3l.52-1.06c.16,.17,.29,.38,.39,.61,.09,.23,.15,.49,.16,.76h-1.07Zm1.24-8.38v-1.35l-.02-.02h-2.13l-.55,.7,.52-.7h.02l1.07-1.37,1.06,1.37h.02v.02l.53,.68-.53,.67Zm2.15-13.72h-.53v-.7h.67l-.14,.7Zm-.55-8.57c-.38,.48-.66,1.07-.81,1.71-.02-.7-.11-1.39-.26-2.06-.19-.91,0-1.37,.81-1.37,.26-.06,.54,0,.76,.18l.05,.15c.11,.13,.24,.23,.38,.29,.14,.06,.29,.09,.44,.07-.51,.19-.98,.54-1.36,1.02Zm2.38,33.44v-1.4l1.07-1.37,1.1,1.37-2.17,1.4Zm5.47-11.14l-.81-.67h.81v.67Zm1.34-13.72l-.52,.7c-.68,1.22-1.15,2.62-1.36,4.1-.21,1.49-.67,2.9-1.36,4.13l-1.07,.7-1.07-2.06v-4.13c.76-.96,1.48-1.97,2.15-3.04,.63-.93,1.17-1.95,1.62-3.04,.98,1.36,1.41,2.11,1.62,2.64h0c.07,.19,.21,.43,.21,.55l-.21-.53h0Zm2.39,28.95l-1.1,1.4v-2.76c.13-.03,.26-.02,.39,.03,.13,.04,.24,.12,.35,.22,.1,.1,.19,.23,.25,.38s.1,.31,.11,.47v.27Zm.31-12.35l-1.62-4.83,1.62-.67c1.1,0,1.89,.91,2.39,2.73,.4,1.52,1.04,2.93,1.89,4.13-.29-.02-.58,.1-.81,.33-.11,.13-.23,.23-.37,.29-.14,.06-.29,.09-.44,.07h-1.03l-1.62-2.06Zm3.08,19.76l-1.07-2.06-.55-4.13c1.1,.08,2.19,.32,3.25,.7,.54,.08,1.06,.31,1.52,.66,.47,.36,.87,.83,1.17,1.4l.55,1.37-1.62,.7c-1.81,0-2.89,.42-3.25,1.37Zm4.68-34.18l1.07,.7-2.15,2.73,1.07-3.43Zm-.74-4.25v-2.06l.55,1.37-.55,.7Zm-.1,16.61c.61-.14,1.17-.5,1.62-1.03,.45-.54,1.02-.89,1.62-1.03h1.07v1.37l-2.7,5.49-2.15-4.8-1.07-.7,.52-.67c.36,0,.55,.21,.55,.67s.17,.7,.52,.7Zm3.53-8.23l.02-.27c.18,.2,.32,.46,.41,.74,.01,.03,0,.07,.01,.1l.62,.79h-.53c.02-.27-.03-.54-.1-.79l-.45-.57Zm-4.3,17.85c-.36,0-.52,.24-.52,.7v-.7h.52Zm.13,12.05v-1.07l3.42-.02v1.07l-3.42,.02Zm4.88-18.94l1.1,1.4-1.1,.67v-2.06Zm.58,17.93v-1.07c.09-.01,.18,0,.27,.01,.09,.02,.17,.06,.24,.11,.07,.05,.12,.11,.15,.18,.03,.07,.04,.14,.03,.22v.55h-.7Zm6.8-37.93c-.85,.07-1.68,.42-2.39,1.03-.88,.66-1.68,1.46-2.39,2.4l-1.07-4.13,1.62-1.37c.58,0,1.16-.18,1.67-.52,.5-.33,.92-.82,1.25-1.4l-.12-.14h-1.98c-1.29,0-1.55-.45-.81-1.37-1.22-.98-2.62-1.58-4.06-1.73-1.38-.17-2.74-.52-4.06-1.03l-1.07-1.37-2.17-.7,1.62-.67c0,.91,1.17,1.12,3.51,.67,1.52-.34,3.06-.56,4.61-.67l.53,.67c.36,3.22,1,4.83,1.91,4.83,.76,.15,1.47,.63,1.98,1.37h.33s-.08,.09-.14,.16l.03,.08-.05-.05s-.03,0-.05,.05c.41,.52,.84,1.09,1.31,1.82v2.06Zm-4.04-75.32h1.07l.55,.67-1.1,.7-.53-1.37Zm2.84-7.71l-.14-.64c-1.21-1.01-2.47-1.92-3.77-2.73,2.11-.77,4.28-1.23,6.47-1.37,.39,1.07,.58,2.25,.55,3.43-.03,1.18,.15,2.35,.53,3.43-1.24-.63-2.45-1.34-3.63-2.12Zm5.63,9.16l-2.98-.85c.75-.85,1.55-1.62,2.39-2.31,1.36-1.21,2.17-1.64,2.39-1.34l.41,1.46-2.2,3.04Zm1.34-64.72l.1-.36c.01,.15-.03,.29-.03,.44l.49,.62-.55,1.37h-.52c.24-.32,.41-.71,.52-1.13,.07-.28,.06-.57,.07-.86l-.06-.08Zm.14-7.77l-.43-1.09-.64-.27v-1.37l.64,1.64,.98,.42-.55,.67Zm-2.91-47.23c-.95-.28-1.86-.74-2.7-1.37,.69-1.72,1.67-3.24,2.86-4.43l-.17-.39c1.61,1.09,2.92,2.77,3.77,4.83-1.16,.81-2.45,1.28-3.77,1.37Zm3.99,124.97l.33-2.46,1.91,.46-.72,2h-1.53Zm2.75,5.31l-.81-1.91,.36-.52c.5-.67,.86-.85,1.15-.55l.81,1.91-1.5,1.06Zm10.1,81.14c.02,.37-.08,.74-.26,1.03-.1,.14-.18,.3-.23,.48-.05,.18-.07,.37-.05,.56-2.47-.61-4.81-1.83-6.9-3.61l-.12-.52c1.03-.53,2.14-.77,3.25-.7,.93-.04,1.85,.2,2.7,.7,.59,.35,1.14,.81,1.62,1.37v.7Zm1.53-67.06c-.38,.58-.92,.96-1.5,1.06l.38-1.49,1.12-.55v.97Zm3.32,90.67l-1.37-.52-1.38-2.69,2.73,.51,.71,1.62-.69,1.08Zm2.79,4.86l-1.39,.56-.67-.55v-.55l3.42-1.09-1.36,.56v1.07Zm-1.99-328.82c2.11-.77,4.28-1.23,6.47-1.37,.39,1.07,.58,2.25,.55,3.43-.03,1.18,.15,2.35,.53,3.43-1.24-.63-2.45-1.34-3.63-2.12l-.14-.64c-1.21-1.01-2.47-1.92-3.77-2.73Zm4.35,179.69l-.55-.67,1.62-2.06,.55,1.37-1.62,1.37Zm2.21-168c.75-.85,1.55-1.62,2.39-2.31,1.36-1.21,2.17-1.64,2.39-1.34l.41,1.46-2.2,3.04-2.98-.85Zm2,195.33c.06-.06,.11-.13,.14-.21,.02-.06,.03-.13,.04-.2l-.18-.56c.06,.06,.11,.13,.14,.21s.05,.18,.05,.27c0,.02-.01,.05-.01,.07l.08,.26c-.1,.02-.19,.07-.26,.15Zm-.17-41.56l.76-.97,.41,.49v1.94h-.76l-.41-1.46Zm1.25,11.16c-.48-.43-.85-1.03-1.07-1.73l1.62-2.06,.52,4.83c-.3-.43-.67-.78-1.07-1.03Zm1.17-15.51l-2.15-2.76,1.07-2.73,2.17,2.73-1.1,2.76Zm1.04-69.29c-.5,.67-1.27,.39-2.39-.85l1.86-.68c-.75-.84-1.27-1.96-1.45-3.22v-.7c0-.45,.17-.45,.55,0,.13-.2,.3-.36,.48-.47,.18-.11,.39-.18,.59-.19,.38,.02,.74,.16,1.07,.39,.33,.24,.61,.57,.81,.97,.51,.86,.97,1.78,1.36,2.73,.72-.91,1.24-1.37,1.62-1.37s.88-.45,1.6-1.37l1.1,.67,2.15,4.13-1.62,1.37c-.65-.09-1.29-.32-1.89-.67-.6-.36-1.23-.59-1.89-.7l-1.07-2.06c-.7,1.04-1.68,1.72-2.75,1.91l.05,.15-.09-.22c-.04,.06-.07,.12-.11,.17Zm2.02,44.34l1.07,.7,.55,2.73h-1.62l-1.62-2.06,1.62-1.37Zm-.99,37.01l.36-.49c.02-.83,.12-1.66,.31-2.46l.43,1.43-.74,1.03c-.02,.41-.07,.82-.14,1.21l.21,.73-.38,.49c.08-.4,.14-.8,.17-1.21l-.22-.73Zm2.47,152.91l-2.1-.42,1.01-3.8c.88,.66,1.49,1.21,1.53,1.5l-.44,2.72Zm-.01-115.8l-.26-.76c.59,.03,1.17-.22,1.62-.7,.21-.25,.47-.44,.74-.56,.28-.12,.57-.17,.86-.14,.84-.03,1.67,.29,2.35,.91,.68,.62,1.19,1.5,1.45,2.52-1.33,.89-2.81,1.37-4.32,1.4-.81,.76-1.72-.39-2.44-2.67Zm2.61,115.21v-.52c.36-.05,.61,.21,.61,.47l.09,.05h-.7Zm7.92-18.62c-.72,.47-1.51,.92-2.39,1.37-.6,.36-1.23,.59-1.89,.7h-1.62c-1.07-1.4-1.6-2.31-1.6-2.76,.15-1.69,.69-3.28,1.55-4.58l-.21-.55c.71-1.34,1.51-2.6,2.39-3.76l1.62,.7,.53,2.06c.32,.83,.69,1.63,1.1,2.4,.39,.93,.57,1.98,.53,3.04v1.4Zm-1.44-58.7l1.1-1.37,2.15,1.37h-3.25Zm3.61-17.04c-.34-.96-.52-1.99-.55-3.04-.1-.97,.1-1.94,.55-2.73,.31,.34,.57,.76,.75,1.23,.18,.47,.29,.98,.32,1.5v6.07c-.19-.36-.47-1.12-.84-2.28l-.24-.76Zm3.56,73.82c.29,.63,.48,1.34,.55,2.06l-.55,1.37c-.62,.56-1.39,.81-2.15,.7-.21-.02-.41-.09-.59-.21-.18-.12-.35-.29-.48-.49l.53-4.1c-.05-.47-.02-.94,.1-1.39,.12-.45,.31-.85,.58-1.18,.26-.33,.58-.58,.93-.73,.35-.15,.72-.19,1.09-.13h.55l-1.07,1.37c0,.95,.18,1.89,.53,2.73Zm.07-66.34l.52-.7h.02l1.07-1.37,1.06,1.37h.02v.02l.53,.68-.53,.67v-1.35l-.02-.02h-2.13l-.55,.7Zm2.89,73.08v.7h-.53c.07,.01,.15,0,.22-.03,.07-.03,.13-.08,.18-.15,.05-.07,.09-.15,.11-.24,.02-.09,.03-.18,.02-.28Zm-1.43-64.34l.52-1.06c.16,.17,.29,.38,.39,.61,.09,.23,.15,.49,.16,.76h-1.07v-.3Zm3.82,80.95l-.55,.7c-1.81-.91-2.7-1.61-2.7-2.06v-2.73l3.25,2.03v2.06Zm1.41-77.88v-1.4l1.07-1.37,1.1,1.37-2.17,1.4Zm5.47-11.14l-.81-.67h.81v.67Zm1.34-13.72l-.52,.7c-.68,1.22-1.15,2.62-1.36,4.1-.21,1.49-.67,2.9-1.36,4.13l-1.07,.7-.93-1.78v6.33c.07-.02,.15,0,.22,.02,.07,.03,.14,.08,.19,.15,.05,.07,.09,.15,.12,.24,.02,.09,.03,.19,.02,.29-.03,.13-.03,.27,0,.39l-.55-.39v-.7h-.15v.95l-.55,.67-.53-1.37c.06-.09,.13-.18,.21-.25h-2.76v-4.13l-2.7-2.06c1.16-.82,2.45-1.28,3.77-1.37,.88-.03,1.75,.19,2.55,.63v-3.8c.76-.96,1.48-1.97,2.15-3.04,.63-.93,1.17-1.95,1.62-3.04,.98,1.36,1.41,2.11,1.62,2.64h0c.07,.19,.21,.43,.21,.55l-.21-.53h0Zm2.39,28.95l-1.1,1.4v-2.76c.13-.03,.26-.02,.39,.03,.13,.04,.24,.12,.35,.22,.1,.1,.19,.23,.25,.38,.06,.15,.1,.31,.11,.47v.27Zm-1.31-17.18l1.62-.67c1.1,0,1.89,.91,2.39,2.73,.4,1.52,1.04,2.93,1.89,4.13-.29-.02-.58,.1-.81,.33-.11,.13-.23,.23-.37,.29s-.29,.09-.44,.07h-1.03l-1.62-2.06-1.62-4.83Zm7.95,23.22c-1.81,0-2.89,.42-3.25,1.37l-1.07-2.06-.55-4.13c1.1,.08,2.19,.32,3.25,.7,.54,.08,1.06,.31,1.52,.66,.47,.36,.87,.83,1.17,1.4l.55,1.37-1.62,.7Zm-.69-10.14v-.7h.52c-.36,0-.52,.24-.52,.7Zm.76-10.32l-1.07-.7,.52-.67c.36,0,.55,.21,.55,.67s.17,.7,.52,.7c.61-.14,1.17-.5,1.62-1.03,.45-.54,1.02-.89,1.62-1.03h1.07v1.37l-2.7,5.49-2.15-4.8Zm1.05-12.73h1.07v.87l.31,.2-.28,.36,.52,1.3v1.4c-.42-.78-.61-1.72-.55-2.66l-1.84,2.34,1.07-3.42-.3-.39Zm-.43-3.87v-2.06l.55,1.37-.55,.7Zm5.42,54.9l-1.62-1.37,1.62-1.4,1.6,1.4-1.6,1.37Zm2.15,13.05c.02,.75-.17,1.49-.55,2.06l-.53-.7v-1.37l.53-.7,.55,.7Zm-3.25-3.43l-1.62,1.37v-2.06l1.1-.7,.53,1.4Zm-.17-43.12v-2.06l1.1,1.4-1.1,.67Zm-.72-13.02l.02-.27c.18,.2,.32,.46,.41,.74,.01,.03,0,.07,.01,.1l.62,.79h-.53c.02-.27-.03-.54-.1-.79l-.45-.57Zm-.74,60.94c-.36,0-.53,.21-.53,.7v-.7h.53Zm-.65,32.46l.7-.53,1.37,.52h-2.06Zm4.37-8.28c.13-.04,.25-.13,.4-.19,.08-.12,.12-.29,.12-.51l.21,.42c-.13,0-.24,.04-.34,.08-.09,.13-.22,.19-.4,.19Zm-1.34-11.08l-1.07-2.06,2.15-1.37,1.07,2.06-2.15,1.37Zm2.45,18.27v-.55l.7,.55v.55l-.7-.55Zm-1.16-89.24c1.07-1.4,1.79-2.06,2.15-2.06l1.1,1.37-1.1,2.06-2.15-1.37Zm0-6.19l1.62-1.37,.53,2.73-2.15-1.37Zm3.25,57.62c-.09,.35-.24,.68-.44,.96l-.55-1.37,1.1-.7c.02,.37-.02,.75-.11,1.1Zm1.9-63.53c-.85,.07-1.68,.42-2.39,1.03-.88,.66-1.68,1.46-2.39,2.4l-1.07-4.13,1.62-1.37c.58,0,1.16-.18,1.67-.52,.5-.33,.92-.82,1.24-1.4l-.12-.14h-1.98c-1.29,0-1.55-.45-.81-1.37-1.22-.98-2.62-1.58-4.06-1.73-1.38-.17-2.74-.52-4.06-1.03l-1.07-1.37-2.17-.7,1.62-.67c0,.91,1.17,1.12,3.51,.67,1.52-.34,3.06-.56,4.61-.67l.53,.67c.36,3.22,1,4.83,1.91,4.83,.76,.15,1.47,.63,1.98,1.37h.33s-.08,.09-.14,.16l.03,.08-.05-.05s-.03,0-.05,.05c.41,.52,.84,1.09,1.31,1.82v2.06Zm.24-3.71l-1.62-.67,.55-1.4,1.07,.7v1.37Zm.21-34.42l-.55-1.37,.55,.7v.67Zm.98,97.83c.4,.38,.72,.88,.93,1.45,.22,.57,.32,1.2,.31,1.83l-.14-.55c-.07,1.07-.46,2.06-1.1,2.76v-5.49Zm.62,23.19c-.05,.07-.12,.12-.19,.15-.07,.03-.14,.04-.22,.03v-.7h.55c0,.09,0,.19-.03,.28-.03,.09-.06,.17-.12,.24Zm.82,14.09l-.7-.55,.76-.05c-.09,.08-.15,.18-.16,.29s.03,.22,.11,.31Zm.06-81.45l-1.07-1.4h1.62l.53,.7-1.07,.7Zm1.84-50.24c-.01-.79-.1-1.57-.27-2.33l-1.03,.67-1.1-1.4,.55-.67,1.57,1.32c-.06-.28-.14-.56-.22-.84l-.05-.85,1.62,3.43-1.07,.67Zm1.74,113.74l-.55-2.03h.55l.55,.67-.55,1.37Zm1.93-20.03l-.53-1.37h1.07l.55,.67-1.1,.7Zm2.32-9.08l-.14-.64c-1.21-1.01-2.47-1.92-3.77-2.73,2.11-.77,4.28-1.23,6.47-1.37,.39,1.07,.58,2.25,.55,3.43-.03,1.18,.15,2.35,.53,3.43-1.24-.63-2.45-1.34-3.63-2.12Zm9.06-32.08c.02,.37-.08,.74-.26,1.03-.1,.14-.18,.3-.23,.48s-.07,.37-.05,.56c-2.47-.61-4.81-1.83-6.9-3.61l-.12-.52c1.03-.53,2.14-.77,3.25-.7,.93-.04,1.85,.2,2.7,.7,.59,.35,1.14,.81,1.62,1.37v.7Zm-3-21.82l.55-.7c.03,.13,.02,.27-.02,.39-.04,.13-.11,.23-.2,.3h-.33Zm8.07-23.77l-7.02,2.73v.7l-.53,.67v-1.37h.53c.49-1.91,1.44-3.58,2.7-4.8l1.1-.7h1.62l2.15-2.06,.55,3.43-1.1,1.4Zm3.25,3.43c-.36,0-.53-.24-.53-.7v-.67c.22,.13,.41,.32,.57,.55,.15,.24,.26,.51,.32,.81h-.36Zm1.55,50.12l-.55-.67,.55-1.4v2.06Zm1.34-68.74c-.7,.52-1.52,.75-2.33,.65-.81-.1-1.58-.52-2.19-1.2-.61-.68-1.04-1.59-1.23-2.6-.19-1.01-.12-2.07,.19-3.02,.31-.96,.85-1.77,1.54-2.31,.69-.55,1.5-.8,2.31-.73,.81,.07,1.59,.46,2.22,1.12,.56,.14,1.08,.42,1.55,.84,.46,.41,.86,.95,1.15,1.56l.55,1.4v.67l-1.1,1.37h-1.07c-.33,.95-.89,1.74-1.59,2.26Zm.71,5.57l-.19,.3c.02-1,.31-1.96,.81-2.73,.51-.87,.96-1.79,1.34-2.76,1.22,1.98,1.97,4.36,2.17,6.86l-1.62,.7c-.57-.09-1.13-.33-1.62-.7-.59-.67-.88-1.22-.88-1.67Zm2.34,11.69l1.07-2.76c.42,1.31,.61,2.72,.55,4.13,0,.91-.19,1.37-.55,1.37l-1.07-.7v-2.03Zm.22,55.78c.55,.01,1.09,.21,1.57,.57,.47,.36,.86,.88,1.13,1.49l-.52,3.43c-.46-1.66-1.15-3.22-2.03-4.58l-.14-.91Zm5.11,54.94v.03l-.05,.04c0,.42-.07,.83-.2,1.21-.14,.39-.34,.74-.59,1.03-.25,.29-.55,.5-.87,.63s-.66,.18-.99,.13l-.02-2.7c-.19,0-.33-.24-.48-.7l-1.62-1.37,1.1-4.13c.04,1.15,.13,2.29,.26,3.43,.05,.7,.16,1.39,.33,2.06h.48v.7h2.15l.45-.3s0-.02,0-.04l.05-.03v-.34h.55l-.55,.34Zm6.44-108.48l-5.4-4.8v-2.07c.36,0,.88-.45,1.62-1.37,.74-.91,1.24-1.37,1.62-1.37,1.35,1.96,2.28,4.32,2.7,6.86l-.55,2.73Zm2.01-44.47c-.99-1.71-1.5-2.64-1.52-3.1-.03,.11-.11,.25-.11,.34l.1-.36s.01,.02,.01,.03c.11-.43,.39-.97,.97-1.7l1.62,2.03-1.07,2.76Zm.24-57.16c-.93-.25-1.76-.93-2.32-1.91l-.05,.15c-.75-.88-1.38-1.91-1.89-3.04,.32-.4,.6-.86,.81-1.37,.2-.52,.48-.98,.81-1.37l4.77,4.1-1.07,2.76-1.07,.67Zm7.17,139.84c-1.85-.65-3.47-2.08-4.61-4.04l-.26-.76c1.76-.56,3.58-.8,5.4-.7l1.07,3.43-1.6,2.06Zm.62-42.65c-.64,.3-1.27,.64-1.89,1.03v6.25c-.31,.16-.58,.4-.82,.69-.23,.3-.42,.65-.54,1.04-.1,.34-.28,.63-.52,.82-.24,.19-.53,.26-.81,.21l-1.62-2.82c.69-1.72,1.15-3.58,1.36-5.49,.19-1.92,.64-3.78,1.34-5.49,.73,.92,1.68,1.52,2.7,1.7,.93,.18,1.84,.52,2.7,1.03-.61,.39-1.24,.74-1.89,1.03Zm2.22-133.82l1.17,.46,.26,.91h2.69l.08-1.06c.59,.03,1.15,.35,1.58,.88,.04,.05,.07,.12,.11,.18h.29l2.7,2.06-.55,1.37h-1.07c-.85-.49-1.77-.73-2.7-.7-.93,.03-1.85-.2-2.7-.67l-1.1-.7v-.85h-.69l-.07-1.88Zm3.75,56.54l.55,4.13-1.62-2.06-1.07-3.43,2.15,1.37Zm-1.34-16.02l.74-1v.97c-.06,.04-.13,.06-.2,.07-.07,0-.14,0-.21-.04h-.33Zm-.91-16.3l1.07,1.37-1.07,1.4-1.07-2.06,1.07-.7Zm.37,183.85c-.17-.2-.3-.45-.38-.73l-.14-.64v-.7c.31,.35,.49,.84,.53,1.37v.7Zm.61-49.04l-.55-2.06c.13-1.46,.49-2.86,1.07-4.13l1.07-2.76h1.1v7.56l-1.1,2.06-1.6-.67Zm2.63,58.76v-2.76l1.62,1.4,1.07,2.73-2.7-1.37Zm4.79-58h.53l.55,.7-1.07,2.06-.13-.12v.74l-1.15-1.4c.14-.02,.27,0,.41,.02l-.75-.65,1.62-1.37Zm-.53-6.16h.55l.53,1.37-.53,.67-.55-2.03Zm.81,17.12l-1.62-.7v-2.03c.18,0,.35-.06,.49-.19,.15-.12,.26-.3,.32-.51,.07-.21,.18-.38,.32-.51,.14-.12,.31-.19,.49-.19,.72,0,1.1,.7,1.1,2.06l-1.1,2.06Zm-.55-32.72l1.07-2.73,1.07,2.06-2.15,.67Zm3.04,83.89v-.7l.53,.7h-.53Zm2.61,7.21c-.38,.48-.66,1.07-.82,1.71-.02-.7-.11-1.39-.26-2.06-.19-.91,0-1.37,.81-1.37,.26-.06,.54,0,.76,.18l.05,.15c.11,.13,.24,.23,.38,.29,.14,.06,.29,.09,.44,.07-.51,.19-.98,.54-1.36,1.02Zm-2.08-14.86l1.07-1.4c.36,0,.55,.46,.55,1.4-.02,.26-.07,.52-.17,.75-.09,.23-.22,.44-.38,.61l-1.07-1.37Zm4.19-32.32c-.56,.51-1.21,.87-1.89,1.03h-1.1l-2.15-2.76v-.67l8.09-3.43c.61-.33,1.1-.95,1.36-1.73,.44-.68,.98-1.24,1.6-1.64l-.26-.76,1.1,1.37v.7c0,.91-.91,1.37-2.72,1.37l2.17,2.76v1.37h-.55l-.52,.67h-3.25c-.58,.66-1.21,1.24-1.89,1.73Zm6.07-127.47l.55-2.76,1.62,1.4v3.43l-2.17-2.06Zm1.77,154.93l.53,.67c0,.46-.17,.7-.53,.7h-.55c0-.45,0-.7,.29-.7s.26-.21,.26-.67Zm-.99-20.12l-1.1,.67-1.07-.67,1.62-1.37,.55,1.37Zm-5.1,16.72l1.07-1.37,.55,.7c-.13,.2-.3,.36-.48,.47-.18,.11-.39,.18-.59,.19h-.55Zm2.89,20.7l-1.62,2.06-.53-3.43,2.15-1.37v2.73Zm4.68-4.13c-.94-.81-1.94-1.5-2.98-2.07-.88-.45-1.89-.91-2.96-1.37v-4.8l2.15-1.4h2.17c-.11,1.23-.03,2.47,.25,3.66s.75,2.28,1.37,3.23v2.73Zm-.89-88.69c-.16-.17-.28-.38-.37-.61-.09-.23-.14-.49-.15-.75l1.07-.67,.55,.67-1.1,1.37Zm.34-102.14l-.38,.52,.41,.45-2.38-.7-.26,.33-.41-.52-1.2-.35,.37-.71-.38-.48,1.62-2.06,.04,.06,.15-.3,2.7,.36c1.23-.12,2.38-.83,3.2-2l-.05-.85c1.1-1.82,1.89-3.04,2.39-3.73,.05,1.2-.18,2.4-.67,3.43-.5,1.03-.73,2.23-.67,3.43l-1.1,1.52-1.17-.46-1.19-1.4-1.03,3.46Z" fill="#fff"/><path d="M194.2,194.28l.62-1.33-1.56,.49v.03h-.1c-.13,.23-.25,.49-.36,.74v.05c-.04,.09-.06,.2-.1,.29v.56c.4-.25,.89-.53,1.48-.82Z" fill="#fff"/><path d="M120.19,52.4c3.15,3.91,6.53,4.28,11.13,2.77-1.72-4.35-3.41-8.62-5.1-12.9l-.3,.38-.1-.7h.27c-1.97-4.98-3.94-9.96-5.94-15.03,5.14-2.05,9.7-3.88,14.67-5.87,1.44,3.57,2.84,7.06,4.23,10.52,.06,0,.12,0,.17-.03,.07-.03,.13-.08,.19-.15,.05-.07,.09-.15,.12-.24s.03-.18,.03-.28v.7h-.5c2.4,5.95,4.75,11.8,7.09,17.63,3.04,7.58,4.18,8.12,13.26,5.88v-15.24c-.3-.66-.51-1.38-.6-2.14l.55-.7h.05V16.06c4.54,0,8.33,.13,12.12-.04,3.15-.14,3.97,1.29,3.9,4.19-.15,5.98-.04,11.97-.04,17.96,0,5.75,0,11.5,0,17.09,9.79,1.82,10.19,1.61,13.36-6.31,.11-.27,.22-.55,.33-.82l-1.05-1.83c.69-1.72,1.15-3.58,1.36-5.49,.19-1.92,.64-3.78,1.34-5.49,.73,.92,1.68,1.52,2.7,1.7,.04,0,.07,.02,.11,.03,2.12-5.22,4.25-10.47,6.49-15.98,5.13,2.08,9.68,3.92,14.6,5.91-.66,1.67-1.31,3.32-1.96,4.97-.07,.78-.25,1.54-.54,2.23-.05-.15-.11-.3-.16-.46-.73,1.85-1.46,3.7-2.2,5.57l.23,.81h-.55c-1.57,3.97-3.16,8.02-4.85,12.28l.05-.08s-.04,.08-.06,.11l-.07,.19h.71v.97l-1.15,.55c.26-.33,.31-.58,.17-.73-.01-.02-.01-.04-.02-.07-.43,1.09-.86,2.18-1.3,3.3,4.31-.85,8.35-.41,10.28-2.22,.42-.4,.84-.81,1.26-1.21l-.19-.49,.55-.67h.55l.07,.23c9.73-9.25,19.19-18.81,28.41-28.57,4.09-4.33,4.54-9.93,1.85-15.38-2.56-5.2-6.87-7.95-12.73-8.17-8.94-.32-16.51,2.79-23.19,8.68-7.04,6.21-13.55,6.2-20.56,.37-14.51-12.06-29.24-12.08-43.69-.05v3.43c-.72,.91-1.27,1.37-1.62,1.37l-2.15-1.37,3.77-3.43c-6.84,5.69-13.57,5.93-20.17-.03C117.85,2.33,109.19-.3,99.27,.03c-4.62,.15-8.61,1.03-10.76,5.62-2.16,4.62-.29,8.3,2.68,11.83,9.73,11.59,19.51,23.14,29,34.92Zm7.69-4.95v.7c-.06,.04-.12,.07-.19,.08-.07,.01-.13,0-.2-.02l-.17-.76h.55Zm86-5.61h-1.53l.26-3.34c.59,.03,1.15,.35,1.58,.88,.14,.19,.26,.42,.33,.67,.07,.25,.1,.52,.08,.78l-.72,1Zm2.48-5.28l.36-.52,.41,.49-.76,.03Zm2.89,5.74l-.05-.76v-.97l.79,.91,.81,.94c-.51,.2-1.06,.16-1.55-.12Zm-2.92-17.02c.49,.63,.94,1.31,1.34,2.03,.42,.57,.7,1.29,.81,2.06v.1h2.14l-1.62,2.03h-1.07l.33-1.3-.85,.53h-1.07l-1.07-2.73,1.07-2.73Zm-39.23-9.65l2.7-.67-.52,6.86h-1.62c.05-.6-.04-1.2-.26-1.73-.19-.21-.29-.79-.29-1.7v-2.76Zm-21.97,35.19l.64,1.64,.98,.42-.55,.67-.43-1.09-.64-.27v-1.37Zm-9-12.08c.11-.84,.39-1.63,.81-2.29,.42-.66,.96-1.18,1.58-1.5-.01,.19,0,.38,.06,.56,.05,.18,.13,.34,.23,.48,.18,.29,.28,.66,.26,1.03,0,.64-.11,1.28-.33,1.86-.22,.58-.54,1.09-.94,1.48l-.09,.09c-.84,.85-1.64,1.78-2.39,2.76,.37-1.46,.64-2.95,.81-4.46Zm-3.03-3.1h-1.07l1.07-.7h.55l-.55,.7Zm1.08-4.06l-1.07,.67c-.02-1.11-.19-2.21-.5-3.25l-.05-.85,1.62,3.43Zm-2.7-7.62c.49,.12,.92,.45,1.24,.94,.31,.49,.48,1.1,.48,1.73l-.1,.09h-1.62v-2.76Zm-2.69,4.19v.67l-.55-1.37,.55,.7Zm-18.62,19.31l.05,.76c-.08-.1-.18-.15-.29-.16-.11-.01-.22,.03-.31,.1l.55-.7Zm-3.49-19.43c.06-.06,.13-.11,.21-.15,.08-.04,.18-.05,.27-.06,.09,0,.19,.01,.27,.04s.16,.08,.22,.14c.79,.44,1.36,1.09,1.59,1.83l-3.05-.6,.49-1.21Zm-.84,13.23l-.55,.7h-.55l.55-.7h.55Zm-1.62-5.49l.52,.7-.52,1.37v-2.06Zm-11.89-10.38l.55,1.37-1.1,1.4-.52-2.06,1.07-.7Z" fill="#fff"/></g><g><path d="M141.04,85.53h0s.03,0,.04,.02l-.04-.02Z" fill="#610b0e"/><path d="M159.91,79.6h0s.03,0,.04,.02l-.04-.02Z" fill="#610b0e"/><path d="M166.33,67.69l-.38-.11s.02-.06,.03-.09c.02-.03,.04-.05,.07-.07,.03-.02,.06-.03,.09-.03,.02,0,.04,0,.06,0-.21-.47-.42-.94-.62-1.42-1.07,0-2.13,0-3.2-.01l.04,.07-.36,.39-.39-.37,.07-.09c-13.51-.05-27.02-.18-40.53-.05-7.93,.08-13.97,4.85-14.78,11.02-.82,6.27,4.1,11.63,12.21,13.28,16.84-.04,33.67-.07,50.51-.12,6.07-.02,6.55-.42,4.66-5.11-2.35-5.81-4.95-11.55-7.47-17.31Zm-45.96,1.94h-.07l-.04-.03,.11,.03Zm-7.62,1.59s.06,0,.1,0c.03,.01,.06,.03,.08,.05,.02,.02,.04,.05,.05,.08,.01,.03,.01,.06,.01,.1,0,.03,0,.07-.01,.1s-.03,.06-.05,.08c-.02,.02-.05,.04-.08,.05-.03,.01-.06,.01-.1,.01v-.48Zm-1.42,7.8v-.71h.24l.48,1.18-.24,.47-.48-.95Zm1.18,4.5h-.47l.24-.71h.95l-.71,.71Zm.95-4.97l-.47-.24,.47-.24v.47Zm1.89,1.88c-.16-.16-.24-.16-.24,0,0,.03,0,.07-.01,.1-.01,.03-.03,.06-.05,.08-.02,.02-.05,.04-.08,.05-.03,.01-.06,.01-.1,0-.5,0-.74-.15-.74-.46h.03v-.92l.95-.95c.19,.28,.28,.61,.24,.95v1.15Zm1.65-1.41c-.06,0-.12-.02-.17-.07-.04-.04-.07-.1-.07-.17s.02-.12,.07-.17,.1-.07,.17-.07c.12,0,.2,.16,.2,.46h-.2Zm.44-2.36h-.32l-.63,.48-.24-.48,.24-.24,.47,.24h.16l.32-.24v.24Zm.95-3.54l.47,.47-.24,.24-.71-.24,.48-.47Zm-.44,8.04v-.94h.48l.24,.47-.71,.47Zm2.6,.48l-.48-.24c.26-.44,.42-.92,.48-1.42v1.66Zm.2-6.38l-.06,.14,.06,.09h-.09l-.38,.96-.95-.47-.48-.73c.61-.02,1.22,.06,1.81,.22l.03-.07-.65-1.09,.71-.24c.07,.06,.12,.13,.17,.21,.04,.08,.06,.17,.07,.26,.02,.26-.07,.51-.24,.71Zm47.38,3.33l-.32-.58,.29-.16,.61,.43-.59,.32Zm.11,.89l-.59,.32-.25-.82,.36-.38,.48,.88Zm-3.57-11.02l.16,.29c-.06,.17-.19,.31-.36,.39l.2-.68Zm-.51,11.54c.09,.02,.17,.04,.26,.04,.1-.3,.26-.57,.46-.81l-.2,.68c-.03,.09-.13,.12-.26,.13-.03,.09-.08,.16-.11,.26l-.29,.16,.13-.46Zm.81,6.4l-.75,.02-.03-.75,.45,.13,.32,.59Zm-2.91-15.76l-.07,.23s.02-.06,.02-.09c0-.03-.01-.06-.03-.09-.02-.03-.04-.05-.06-.07-.03-.02-.06-.03-.09-.04l.23,.07Zm-3.96-4.13l.48,.88-.59,.32-.25-.82,.36-.38Zm.74,.85l-.72,.78-.16-.29,.88-.48Zm-4.34,.55c.09,.02,.18,.04,.26,.04,.1-.29,.26-.57,.46-.81l-.2,.68c-.03,.09-.13,.12-.26,.13-.03,.09-.08,.16-.11,.26l-.29,.16,.13-.46Zm.81,6.4l-.75,.02-.02-.75,.45,.13,.32,.59Zm-3.34,2.61l-.27,.9-.46-.13-.09-.52,.82-.25Zm-4.84-3.5s.04-.05,.07-.07c.03-.02,.06-.03,.09-.03,.03,0,.07,0,.09,.02l.16,.3-.45-.13s.02-.06,.03-.09Zm-7.89-.99l.48,.88-.59,.32-.25-.82,.36-.38Zm-3.6,1.4c.09,.02,.18,.04,.26,.04,.1-.3,.26-.57,.46-.81l-.2,.68c-.03,.09-.13,.12-.26,.13-.03,.09-.08,.16-.11,.26l-.29,.16,.13-.46Zm.81,6.4l-.75,.02-.02-.75,.45,.13,.32,.59Zm-4.77-9.48l.48,.24-.24,.71-.71-.24,.47-.71Zm-9,9.09s-.03,.06-.06,.09c-.03,.02-.06,.04-.1,.05-.02,0-.05,0-.07,0h-.03s.02,0,.03,0v-.47l.24,.24s0,.07-.01,.1Zm.91,3.3s-.03,.06-.05,.08c-.02,.02-.05,.04-.08,.05-.03,.01-.06,.01-.1,.01l-.24-.24h.47s0,.07,0,.1Zm.99-1.28l-.24-.24c.01-.18,.1-.35,.24-.48v.71Zm1.89-2.84v-.24s0,.07,.01,.1c.01,.03,.03,.06,.05,.08,.02,.02,.05,.04,.08,.05,.03,.01,.06,.01,.1,0h-.24Zm-.23-3.31l-.47-.24,.47-.47h.71l-.71,.71Zm.44-5.46l-.45-.45h-.94l.24-.48c.48,0,.63,.12,.48,.36-.04,.06-.03,.09,0,.12,.07,.02,.15,.03,.22,0h.01c.39-.06,.77-.14,1.15-.26l-.71,.71Zm1.21,13.74l-.48-.47,.24-.48,.48,.24-.24,.71Zm-.01-9.69v-.95l.94,.48v-2.13l.48-.24,.47,1.66c-.3,.62-.8,1.11-1.42,1.42l-.47-.24Zm.96,1.89l-.24-.24c0-.06,0-.13,.02-.19s.06-.12,.1-.17c.05-.05,.1-.08,.16-.1s.13-.03,.19-.02c.33,0,.65-.09,.94-.24l.89,.71h.06l.24,.24-.3-.24h-.89l-1.18,.24Zm2.6,5.67l-.71-.71,.48-.47,.47,.71-.24,.47Zm1.19-8.51l.24,.71h-.47l-.48-.48,.71-.24Zm.47,5.2c0,.06,0,.13-.02,.19-.02,.06-.06,.12-.1,.16s-.1,.08-.16,.1c-.06,.02-.13,.03-.19,.02l-.24-.71h.71v.24Zm.2-1.81l.96-.44s-.08,.07-.11,.11c-.1,0-.19,.05-.26,.11-.07,.09-.17,.23-.26,.36-.13,.05-.26,.08-.39,.1l.07-.24Zm.72,4.25l-.48-.88c.32,.59,.5,.81,.55,.66l-.07,.23Zm.49-1.49c-.09,0-.18,.01-.26,.04-.02,.31-.09,.62-.21,.91v-.71c0-.1,.09-.15,.21-.2,0-.09,.03-.18,.03-.28l.24-.24v.48Zm-.45-7.1v-.24l.71,.71c-.47-.48-.71-.63-.71-.48Zm1.17,4.2c.09-.03,.17-.1,.22-.18,.05-.1,.1-.27,.15-.42,.11-.08,.22-.15,.35-.21v.25l-.79,.69s.05-.09,.07-.13Zm.66,6.41l-.39-.36,.43-.61,.61,.43-.65,.54Zm.78-7.66l.07-.23c0-.06,.03-.13,.07-.18,.04-.05,.09-.1,.14-.13s.12-.05,.19-.05c.06,0,.13,.01,.19,.04l.03,.74-.68-.2Zm1.37,2.87l-.16-.29,.22,.31,.85,.25,1.2,.11,.16,.29c0,.06-.03,.13-.07,.18-.04,.05-.09,.1-.14,.13-.06,.03-.12,.05-.19,.05s-.13-.01-.19-.04c-.32-.09-.65-.1-.97-.04l-.65-.93-.06-.02Zm.86,4.69l-.52,.1,.02-1.72c.46-.51,1.08-.84,1.76-.96l.38,.36-.27,.91-.77-.72-.6,2.04Zm2.49,3.2c-.46-.13-.57-.29-.36-.48,.05-.04,.06-.08,.03-.11-.07-.04-.14-.07-.21-.07h-.01c-.39-.06-.78-.08-1.17-.08l.88-.48,.31,.56,.21,.06,.68,.2-.36,.39Zm.92-5.65l-.68-.2,.88-.48,.39,.36-.58,.32Zm.85-3.69s.02-.06,.02-.09-.01-.06-.03-.09c-.02-.03-.04-.05-.07-.07-.03-.02-.06-.03-.09-.04l.23,.07-.07,.23Zm.07-4.42l-.39-.37,.42-.61,.32,.59-.36,.39Zm2.42,2.68l.2-.68,.16,.29c-.06,.17-.19,.31-.36,.39Zm.77,12.24l.07,.02,.03,.04-.1-.06Zm.68-10.44s.05-.05,.08-.06c.03-.01,.07-.02,.1-.02,.02,0,.05,.01,.07,.02h.03s-.02,0-.03,0l-.13,.45-.16-.29s.02-.07,.04-.1Zm.21,6.08c-.05-.08-.08-.16-.1-.25-.02-.09-.01-.18,0-.27,.06-.25,.21-.47,.43-.62l.1-.12-.03-.1,.08,.02,.64-.82,.78,.72,.25,.83c-.59-.16-1.15-.4-1.67-.72l-.05,.06,.32,1.23-.75,.03Zm2,1.57l-.32-.58,.29-.16,.61,.43-.59,.32Zm-.14-7.19l.47-1.59,.39,.36c-.37,.35-.66,.77-.86,1.23Zm2.89,4.55l-.38-.36-.15-.05-.37,.14,.07-.23,.3,.09,.74-.28,.09,.52-.29,.16Zm.3-2.2c-.05,.03-.12,.04-.18,.02-.12-.03-.15-.21-.06-.5l-.03-.02,.23,.07c.06,.02,.11,.06,.14,.11,.03,.05,.04,.12,.02,.18-.02,.06-.06,.11-.11,.14Zm.55-4.59l-.48-.88c.32,.59,.5,.81,.55,.66l-.07,.23Zm.13-4.58c-.1,0-.19,.05-.26,.11-.07,.09-.17,.23-.26,.36-.13,.05-.26,.08-.39,.1l.07-.24,.96-.44s-.08,.07-.11,.11Zm1.15,17.42s-.06-.02-.09-.04c-.03-.02-.05-.04-.07-.07-.02-.03-.03-.06-.03-.09,0-.03,0-.07,.02-.09,0-.03,.02-.06,.04-.09,.02-.03,.04-.05,.07-.06,.03-.02,.06-.02,.09-.03,.03,0,.07,0,.1,.02l-.13,.46Zm1.21-9.01l-.03-.02-.26,.89-1.17,.64c-.11-.32-.09-.67,.04-.97l.32-1.1c.11,.2,.18,.22,.23,.07,0-.03,.02-.06,.04-.09,.02-.03,.04-.05,.07-.06,.03-.02,.06-.02,.09-.02,.03,0,.06,0,.09,.02,.49,.14,.67,.36,.58,.65Zm-.62-1.81l-.39-.36,.43-.61,.61,.43-.65,.54Zm.67,4.03l.13-.45,.38,.36-.52,.09Zm.1-11.69l.07-.23c0-.06,.03-.13,.07-.18,.04-.05,.09-.1,.14-.13,.06-.03,.12-.05,.19-.05,.06,0,.13,.01,.19,.04l.03,.74-.68-.2Zm1.37,2.87l-.16-.29,.22,.31,.85,.25,1.2,.11,.16,.29c0,.06-.03,.13-.07,.18-.04,.05-.09,.1-.14,.13-.06,.03-.12,.05-.19,.05s-.13-.01-.19-.04c-.32-.09-.65-.1-.97-.04l-.65-.93-.06-.02Zm.63,9.2l-.23-.07-.12-1.27,.36-.38,.19,1.04-.2,.68Zm.79-5.19l-.43,.62-.11-.03-.03,.1-.52,.1v-.35l-.25-.07,.25-.14v-1.16c.48-.51,1.09-.84,1.77-.96l.38,.36-.27,.91-.77-.72-.37,1.26,.33,.1Zm1.93,3.88c-.46-.13-.57-.29-.36-.48,.05-.04,.06-.08,.03-.11-.07-.04-.14-.07-.21-.07h-.01c-.39-.06-.78-.08-1.17-.08l.88-.48,.31,.56,.21,.06,.68,.2-.36,.39Zm.92-5.65l-.68-.2,.88-.48,.39,.36-.58,.32Zm1.39,12.6l-.48-.88c.32,.59,.5,.81,.55,.66l-.07,.23Zm.13-4.58c-.1,0-.19,.05-.26,.11-.07,.09-.17,.23-.26,.36-.13,.05-.26,.08-.39,.1l.07-.24,.96-.44s-.08,.07-.11,.11Zm1.74,6.61l-.39-.36,.43-.61,.61,.43-.65,.54Zm.78-7.66l.07-.23c0-.06,.03-.13,.07-.18,.04-.05,.09-.1,.14-.13,.06-.03,.12-.05,.19-.05,.06,0,.13,.01,.19,.04l.03,.74-.68-.2Zm.75-10.6s.05-.05,.08-.06c.03-.01,.07-.02,.1-.02,.02,0,.05,.01,.07,.02h.03s-.02,0-.03,0l-.13,.45-.16-.29s.02-.07,.04-.1Zm.11,5.83c-.02-.09-.01-.18,0-.27,.06-.25,.21-.47,.43-.62l.1-.12-.03-.1,.08,.02,.64-.82,.78,.72,.25,.83c-.59-.16-1.15-.4-1.67-.72l-.05,.06,.32,1.23-.75,.03c-.05-.08-.08-.16-.1-.25Zm.51,7.63l-.16-.29,.22,.31,.85,.25,1.2,.11,.16,.29c0,.06-.03,.13-.07,.18-.04,.05-.09,.1-.14,.13-.06,.03-.12,.05-.19,.05-.07,0-.13-.01-.19-.04-.32-.09-.65-.1-.97-.04l-.65-.93-.06-.02Zm2.23,3.37l-.77-.72-.6,2.04-.52,.1,.02-1.72c.46-.51,1.08-.84,1.76-.96l.38,.36-.27,.91Zm2.04-1.13l-.68-.2,.88-.48,.38,.36-.58,.32Zm.85-3.69s.02-.06,.02-.09c0-.03-.01-.06-.03-.09-.02-.03-.04-.05-.06-.07-.03-.02-.06-.03-.09-.04l.23,.07-.07,.23Z" fill="#610b0e"/><path d="M125.95,69.8h.04s-.03,0-.04,0Z" fill="#610b0e"/></g><g><path d="M175.05,78.73h0s.03,0,.04,.02l-.04-.02Z" fill="#610b0e"/><path d="M205.63,85.23h0s.03,0,.04,.02l-.04-.02Z" fill="#610b0e"/><path d="M223.57,86.93l-.04-.02h0s.03,0,.04,.02Z" fill="#610b0e"/><path d="M228.39,76.15c-.07,.12-.16,.22-.29,.28l.19-.65c-1.39-5.53-7.24-9.77-14.52-9.82-13.45-.11-26.9-.03-40.35,.01l.3,.54-.59,.32-.25-.82,.04-.04c-2.44,0-4.89,.02-7.33,.02,.57,1.32,1.15,2.63,1.73,3.94l.92-.43s-.08,.07-.11,.11c-.1,0-.19,.05-.26,.11-.07,.09-.17,.23-.26,.36-.07,.03-.14,.03-.2,.05,.78,1.78,1.57,3.55,2.35,5.33l.16-.22,.61,.43-.5,.41c1.3,2.96,2.57,5.93,3.78,8.91,1.9,4.68,1.41,5.09-4.66,5.11-16.84,.05-33.67,.08-50.51,.12,1.87,.21,3.74,.6,5.61,.6,1.74,0,3.48,0,5.23,0l.18-.37,.24,.24-.14,.14c18.29,0,36.57-.02,54.86-.04-.04-.02-.08-.04-.12-.04h-.01c-.39-.06-.78-.08-1.17-.08l.88-.48,.31,.56,.13,.04c8.66-.01,17.32-.02,25.97-.04,1.74,0,3.51-.09,5.21-.35,2.97-.45,5.6-1.53,7.69-3.04-.14-.1-.16-.21-.02-.32,.05-.04,.06-.08,.03-.11-.07-.04-.14-.07-.21-.07h-.01c-.39-.06-.78-.08-1.17-.08l.88-.48,.31,.56,.21,.06,.4,.12c3.17-2.47,4.99-5.95,4.66-9.65-.04-.41-.1-.82-.19-1.23Zm-58.76-9.12c.09,.02,.18,.04,.26,.04,.1-.29,.26-.57,.46-.81l-.2,.68c-.03,.09-.13,.12-.26,.13-.03,.09-.08,.16-.11,.26l-.29,.16,.13-.46Zm.06,6.43l-.03-.75,.45,.13,.32,.59-.75,.02Zm13.91-4.54l.39,.36c-.37,.35-.66,.77-.86,1.23l.47-1.59Zm-.33,8.78l-.32-.58,.29-.16,.61,.43-.59,.32Zm.11,.89l-.59,.32-.25-.82,.36-.38,.48,.88Zm-2.26-11.97s.04-.05,.07-.07c.03-.02,.06-.03,.09-.03,.03,0,.06,0,.09,.02l.16,.3-.45-.13s.02-.06,.04-.09Zm-1.31,.95l.16,.29c-.06,.17-.19,.31-.36,.39l.2-.68Zm-.51,11.54c.09,.02,.17,.04,.26,.04,.1-.3,.26-.57,.46-.81l-.2,.68c-.03,.09-.13,.12-.26,.13-.03,.09-.08,.16-.11,.26l-.29,.16,.13-.46Zm.81,6.4l-.75,.02-.03-.75,.45,.13,.32,.59Zm-2.91-15.76l-.07,.23s.02-.06,.02-.09c0-.03-.01-.06-.03-.09-.02-.03-.04-.05-.06-.07-.03-.02-.06-.03-.09-.04l.23,.07Zm-3.22-3.28l-.72,.78-.16-.29,.88-.48Zm-3.33,2.08l.07-.23c0-.06,.03-.13,.07-.18,.04-.05,.09-.1,.14-.13,.06-.03,.12-.05,.19-.05,.06,0,.13,.01,.19,.04l.03,.74-.68-.2Zm1.37,2.87l-.16-.29,.22,.31,.85,.25,1.2,.11,.16,.29c0,.06-.03,.13-.07,.18-.04,.05-.09,.1-.14,.13-.06,.03-.12,.05-.19,.05s-.13-.01-.19-.04c-.32-.09-.65-.1-.97-.04l-.65-.93-.06-.02Zm.63,9.2l-.23-.07-.12-1.27,.36-.38,.19,1.04-.2,.68Zm.79-5.19l-.43,.62-.11-.03-.03,.1-.52,.1v-.35l-.25-.07,.25-.14v-1.16c.48-.51,1.09-.84,1.77-.96l.38,.36-.27,.91-.77-.72-.37,1.26,.33,.1Zm1.93,3.88c-.46-.13-.57-.29-.36-.48,.05-.04,.06-.08,.03-.11-.07-.04-.14-.07-.21-.07h-.01c-.39-.06-.78-.08-1.17-.08l.88-.48,.31,.56,.21,.06,.68,.2-.36,.39Zm.92-5.65l-.68-.2,.88-.48,.38,.36-.58,.32Zm1.39,12.6l-.48-.88c.32,.59,.5,.81,.55,.66l-.07,.23Zm.13-4.58c-.1,0-.19,.05-.26,.11-.07,.09-.17,.23-.26,.36-.13,.05-.26,.08-.39,.1l.07-.24,.96-.44s-.08,.07-.11,.11Zm1.74,6.61l-.39-.36,.43-.61,.61,.43-.65,.54Zm.78-7.66l.07-.23c0-.06,.03-.13,.07-.18,.04-.05,.09-.1,.14-.13,.06-.03,.12-.05,.19-.05s.13,.01,.19,.04l.03,.74-.68-.2Zm.75-10.6s.05-.05,.08-.06c.03-.01,.07-.02,.1-.02,.02,0,.05,.01,.07,.02h.03s-.02,0-.03,0l-.13,.45-.16-.29s.02-.07,.04-.1Zm.11,5.83c-.02-.09-.01-.18,0-.27,.06-.25,.21-.47,.43-.62l.1-.12-.03-.1,.08,.02,.64-.82,.78,.72,.25,.83c-.59-.16-1.15-.4-1.67-.72l-.05,.06,.32,1.23-.75,.03c-.05-.08-.08-.16-.1-.25Zm.51,7.63l-.16-.29,.22,.31,.85,.25,1.2,.11,.16,.29c0,.06-.03,.13-.07,.18-.04,.05-.09,.1-.14,.13-.06,.03-.12,.05-.19,.05-.07,0-.13-.01-.19-.04-.32-.09-.65-.1-.97-.04l-.65-.93-.06-.02Zm2.23,3.37l-.77-.72-.6,2.04-.52,.1,.02-1.72c.46-.51,1.08-.84,1.76-.96l.38,.36-.27,.91Zm19.9-14.75l.48,.88-.59,.32-.25-.82,.36-.38Zm-1.3,.5l-.72,.78-.17-.29,.88-.48Zm-1.22,2.2c0-.06,.03-.13,.07-.18,.04-.05,.09-.1,.14-.13,.06-.03,.12-.05,.19-.05,.06,0,.13,.01,.19,.04l.03,.74-.68-.2,.07-.23Zm-1.08-1.3c.09,.02,.18,.04,.26,.04,.1-.29,.26-.57,.46-.81l-.2,.68c-.03,.09-.13,.12-.26,.13-.03,.09-.08,.16-.11,.26l-.29,.16,.13-.46Zm.81,6.4l-.75,.02-.02-.75,.45,.13,.32,.59Zm-3.16-3.49l.96-.44s-.08,.07-.11,.11c-.1,0-.19,.05-.26,.11-.07,.09-.17,.23-.26,.36-.13,.05-.26,.08-.39,.1l.07-.24Zm.78,4.02l-.07,.23-.48-.88c.32,.59,.5,.81,.55,.66Zm-3.01,1.73l-.27,.9-.46-.13-.09-.52,.82-.25Zm-3.79-12.81l.45,.13-.43,.62-.91-.27,.88-.48Zm-.14,4.65l-.2,.68-.23-.07-.12-1.27,.36-.38,.19,1.04Zm-.92,4.67s.04-.05,.07-.07c.03-.02,.06-.03,.09-.03,.03,0,.06,0,.09,.02l.16,.3-.45-.13s.02-.06,.04-.09Zm-4.75-6.34l.23,.07c.06,.02,.11,.06,.14,.11,.03,.05,.04,.12,.02,.18-.02,.06-.06,.11-.11,.14-.05,.03-.12,.04-.18,.02-.12-.03-.15-.21-.06-.5l-.03-.02Zm-.08-2.24l-.27,.9-.46-.13-.09-.52,.82-.25Zm-.78,4.45l.3,.09,.74-.28,.09,.52-.29,.16-.38-.36-.15-.05-.37,.14,.07-.23Zm.77,11.18l-.68-.2,.88-.48,.38,.36-.58,.32Zm.85-3.69s.02-.06,.02-.09c0-.03-.01-.06-.03-.09-.02-.03-.04-.05-.07-.07-.03-.02-.06-.03-.09-.04l.23,.07-.07,.23Zm.07-4.42l-.39-.37,.42-.61,.32,.59-.36,.39Zm1.28,3.47s-.06-.02-.09-.04c-.03-.02-.05-.04-.07-.07-.02-.03-.03-.06-.03-.09,0-.03,0-.07,.02-.09,0-.03,.02-.06,.04-.09,.02-.03,.04-.05,.07-.06,.03-.02,.06-.02,.09-.03s.07,0,.1,.02l-.13,.46Zm-.26-7.5c-.11-.32-.09-.67,.04-.97l.32-1.1c.11,.2,.18,.22,.23,.07,0-.03,.02-.06,.04-.09,.02-.03,.04-.05,.07-.06,.03-.02,.06-.02,.09-.02,.03,0,.06,0,.09,.02,.49,.14,.67,.36,.58,.65l-.03-.02-.26,.89-1.17,.64Zm1.4,6.71l.2-.68,.16,.29c-.06,.17-.19,.31-.36,.39Zm.12-6l.13-.45,.39,.36-.52,.09Zm1.33,7.79s.05-.05,.08-.06,.07-.02,.1-.02c.02,0,.05,.01,.07,.02h.03s-.02,0-.03,0l-.13,.45-.16-.29s.02-.07,.04-.1Zm.21,6.08c-.05-.08-.08-.16-.1-.25-.02-.09-.01-.18,0-.27,.06-.25,.21-.47,.43-.62l.1-.12-.03-.1,.08,.02,.64-.82,.78,.72,.25,.83c-.59-.16-1.15-.4-1.67-.72l-.05,.06,.32,1.23-.75,.02Zm2,1.57l-.32-.58,.29-.16,.61,.43-.59,.32Zm-.14-7.19l.47-1.59,.39,.36c-.37,.35-.66,.77-.86,1.23Zm2.89,4.55l-.38-.36-.15-.05-.37,.14,.07-.23,.3,.09,.74-.28,.09,.52-.29,.16Zm.3-2.2c-.05,.03-.12,.04-.18,.02-.12-.03-.15-.21-.06-.5l-.03-.02,.23,.07c.06,.02,.11,.06,.14,.11,.03,.05,.04,.12,.02,.18-.02,.06-.06,.11-.11,.14Zm3.04-.76l-.03-.02-.26,.89-1.18,.64c-.11-.32-.09-.67,.04-.97l.32-1.1c.11,.2,.18,.22,.23,.07,0-.03,.02-.06,.04-.09,.02-.03,.04-.05,.07-.06,.03-.02,.06-.02,.09-.02,.03,0,.06,0,.09,.02,.49,.14,.67,.36,.58,.65Zm.05,2.23l.13-.45,.39,.36-.52,.09Zm2.11,.37l-.23-.07-.12-1.27,.36-.38,.19,1.04-.2,.68Zm.36-4.58l-.69-.2,.24,.17-.65,.54-.39-.36,.43-.61,.22,.16,.81-.44,.45,.13-.43,.62Zm1.05-4.28l-.16-.29,.22,.31,.85,.25,1.2,.11,.16,.29c0,.06-.03,.13-.07,.18-.04,.05-.09,.1-.14,.13-.06,.03-.12,.05-.19,.05s-.13-.01-.19-.04c-.32-.09-.65-.1-.97-.04l-.65-.93-.06-.02Zm.86,4.69l-.52,.1,.02-1.72c.46-.51,1.08-.84,1.76-.96l.38,.36-.27,.91-.77-.72-.6,2.04Zm2.49,3.2c-.46-.13-.57-.29-.36-.48,.05-.04,.06-.08,.03-.11-.07-.04-.14-.07-.21-.07h-.01c-.39-.06-.78-.08-1.17-.08l.88-.48,.31,.56,.21,.06,.68,.2-.36,.39Zm.92-5.65l-.68-.2,.88-.48,.39,.36-.58,.32Zm.85-3.69s.02-.06,.02-.09c0-.03-.01-.06-.03-.09-.02-.03-.04-.05-.06-.07-.03-.02-.06-.03-.09-.04l.23,.07-.07,.23Zm.07-4.42l-.39-.37,.42-.61,.32,.59-.36,.39Zm2.42,2.68l.2-.68,.16,.29c-.06,.17-.19,.31-.36,.39Zm12.69,1.26l-.43,.62-.91-.27,.88-.48,.45,.13Zm-1.16-2.2l.48,.88-.59,.32-.25-.82,.36-.38Zm-2.52,2.71c0-.06,.03-.13,.07-.18,.04-.05,.09-.1,.14-.13,.06-.03,.12-.05,.19-.05,.06,0,.13,.01,.19,.04l.03,.74-.68-.2,.07-.23Zm-1.08-1.3c.09,.02,.18,.04,.26,.04,.1-.29,.26-.57,.46-.81l-.2,.68c-.03,.09-.13,.12-.26,.13-.03,.09-.08,.16-.11,.26l-.29,.16,.13-.46Zm.48,5.81l.32,.59-.75,.02-.02-.75,.45,.13Zm-2.06-4.41l-.27,.9-.46-.13-.09-.52,.82-.25Zm-.78,1.52l.96-.44s-.08,.07-.11,.11c-.1,0-.19,.05-.26,.11-.07,.09-.17,.23-.26,.36-.13,.05-.26,.08-.39,.1l.07-.24Zm-4.06-5.01s.04-.05,.07-.07c.03-.02,.06-.03,.09-.03,.03,0,.07,0,.09,.02l.16,.3-.45-.13s.02-.06,.03-.09Zm-.74,13.87l.07,.02,.03,.04-.1-.06Zm.68-10.44s.05-.05,.08-.06c.03-.01,.07-.02,.1-.02,.02,0,.05,.01,.07,.02h.03s-.02,0-.03,0l-.13,.45-.16-.29s.02-.07,.04-.1Zm.21,6.08c-.05-.08-.08-.16-.1-.25-.02-.09-.01-.18,0-.27,.06-.25,.21-.47,.43-.62l.1-.12-.03-.1,.08,.02,.64-.82,.78,.72,.25,.83c-.59-.16-1.15-.4-1.67-.72l-.05,.06,.32,1.23-.75,.02Zm2,1.57l-.32-.58,.29-.16,.61,.43-.59,.32Zm-.14-7.19l.47-1.59,.39,.36c-.37,.35-.66,.77-.86,1.23Zm2.77,5.37l-.48-.88c.32,.59,.5,.81,.55,.66l-.07,.23Zm.12-.82l-.38-.36-.15-.05-.37,.14,.07-.23,.3,.09,.74-.28,.09,.52-.29,.16Zm.3-2.2c-.05,.03-.12,.04-.18,.02-.12-.03-.15-.21-.06-.5l-.03-.02,.23,.07c.06,.02,.11,.06,.14,.11,.03,.05,.04,.12,.02,.18-.02,.06-.06,.11-.11,.14Zm1.83,8.25s-.06-.02-.09-.04c-.03-.02-.05-.04-.07-.07-.02-.03-.03-.06-.03-.09s0-.07,.02-.09c0-.03,.02-.06,.04-.09,.02-.03,.04-.05,.07-.06,.03-.02,.06-.02,.09-.03,.03,0,.07,0,.1,.02l-.13,.46Zm-.38-3.2l-.39-.36,.43-.61,.61,.43-.65,.54Zm1.59-5.81l-.03-.02-.26,.89-1.18,.64c-.11-.32-.09-.67,.04-.97l.32-1.1c.11,.2,.18,.22,.23,.07,0-.03,.02-.06,.04-.09,.02-.03,.04-.05,.07-.06,.03-.02,.06-.02,.09-.02,.03,0,.06,0,.09,.02,.49,.14,.67,.36,.58,.65Zm.05,2.23l.13-.45,.38,.36-.52,.09Zm.51-1.21l-.16-.29,.22,.31,.85,.25,.34,.03v-.05l.35-.38,.09,.47,.42,.04,.16,.29c0,.06-.03,.13-.07,.18-.04,.05-.09,.1-.14,.13-.06,.03-.12,.05-.19,.05-.03,0-.07-.01-.1-.02l-.17,.58-.23-.07-.06-.59c-.2-.02-.4-.02-.61,.02l-.65-.93-.06-.02Zm2.23,3.37l-.77-.72-.6,2.04-.52,.1,.02-1.72c.46-.51,1.08-.84,1.76-.96l.38,.36-.27,.91Zm2.04-1.13l-.68-.2,.88-.48,.39,.36-.58,.32Zm.85-3.69s.02-.06,.02-.09c0-.03-.01-.06-.03-.09-.02-.03-.04-.05-.06-.07-.03-.02-.06-.03-.09-.04l.23,.07-.07,.23Zm.07-4.42l-.39-.37,.42-.61,.32,.59-.36,.39Z" fill="#610b0e"/></g></svg>