<?xml version="1.0" encoding="UTF-8"?><svg id="Capa_1" xmlns="http://www.w3.org/2000/svg" viewBox="0 0 479.06 479.06"><g><path d="M394.86,421.97c42.62-37.31,69.25-83.42,80.3-139.09h-52.58v-86.77h52.1c.02-11.42-13.27-49.64-24.94-71.2-14.02-25.92-32.32-48.41-54.95-67.7-8.84,15.27-17.59,30.36-26.4,45.57-25.18-14.55-50.09-28.95-75.09-43.39,8.87-15.32,17.55-30.31,26.42-45.63-53.64-18.43-106.88-18.27-160.45,0,8.9,15.43,17.57,30.44,26.34,45.64-25.13,14.52-50.03,28.91-75.08,43.38-8.88-15.32-17.6-30.38-26.42-45.61-22.3,19.1-40.37,41.33-54.42,66.82-12.42,22.54-21.02,46.45-25.8,72.13,1.15,0,2.03,0,2.91,0,15.7,0,31.39,.04,47.09-.05,2.12-.01,2.65,.56,2.65,2.67-.07,27.16-.05,54.31-.05,81.47v2.69H3.85c10.98,55.66,37.49,101.85,80.24,139.03,8.94-15.43,17.66-30.48,26.46-45.66,25.15,14.54,50.06,28.93,75.08,43.39-8.86,15.32-17.54,30.32-26.4,45.65,53.67,18.42,106.9,18.25,160.43-.02-8.91-15.43-17.57-30.44-26.34-45.63,25.13-14.52,50.04-28.91,75.09-43.38,8.84,15.27,17.53,30.28,26.46,45.7Z" fill="#fff"/><path d="M57.09,394.9c15.42-8.93,30.42-17.62,45.7-26.46-14.47-25.05-28.86-49.96-43.38-75.09-15.18,8.77-30.19,17.43-45.63,26.34-18.27-53.53-18.44-106.77-.02-160.43,15.33,8.87,30.33,17.54,45.65,26.4,14.46-25.02,28.85-49.92,43.39-75.08-15.18-8.8-30.23-17.52-45.66-26.46C94.31,41.38,140.49,14.87,196.15,3.89V56.52h2.69c27.16,0,54.31-.03,81.47,.05,2.11,0,2.68-.53,2.67-2.65-.09-15.7-.05-31.39-.05-47.09,0-.88,0-1.75,0-2.91,25.68,4.78,49.58,13.38,72.13,25.8,25.5,14.05,47.72,32.12,66.82,54.42-15.23,8.82-30.29,17.55-45.61,26.42,14.47,25.05,28.86,49.96,43.38,75.08,15.2-8.77,30.21-17.43,45.64-26.34,18.27,53.57,18.44,106.81,0,160.45-15.32-8.87-30.31-17.55-45.63-26.42-14.44,24.99-28.84,49.9-43.39,75.09,15.21,8.81,30.31,17.56,45.57,26.4-19.28,22.63-41.78,40.93-67.7,54.95-21.56,11.66-59.78,24.96-71.2,24.94v-52.1h-86.77v52.58c-55.67-11.06-101.78-37.68-139.09-80.3Zm162.52,3.19c2.31,.21,4.5,.43,6.7,.62,10.54,.9,21.06,.65,31.56-.56,1.3-.15,1.8-.62,1.78-1.95-.07-3.47-.01-6.94-.04-10.4,0-.44-.19-.89-.32-1.47-13.27,1.83-26.44,1.75-39.67,.17v13.59Zm165.19-138.48c3.77,0,7.5-.06,11.23,.03,1.58,.04,2.13-.48,2.3-2.08,1.18-11.28,1.26-22.56,.1-33.84-.44-4.27-.5-4.26-4.88-4.26-2.36,0-4.71-.01-7.07,0-.66,0-1.32,.1-1.81,.14,.36,6.79,.97,13.35,.99,19.91,.02,6.56-.54,13.13-.86,20.08ZM219.48,94.78c13.52-1.94,26.7-1.8,40.14-.22,0-4.11-.07-7.91,.03-11.71,.04-1.56-.56-2.04-2.03-2.12-4.43-.23-8.86-.88-13.28-.81-7.69,.11-15.37,.63-23.05,1-.91,.04-1.83,.09-1.82,1.43,.03,4.01,.01,8.03,.01,12.43Zm-124.73,164.79c-1.87-13.43-1.81-26.61-.19-39.95h-13.74c-.3,4.71-.89,9.34-.83,13.96,.1,8.1,.58,16.19,.98,24.28,.03,.59,.68,1.62,1.06,1.64,4.14,.12,8.28,.07,12.72,.07Zm234.56,95.43c-10.88,8.23-22.31,14.8-34.8,19.91,1.97,3.45,3.87,6.59,5.56,9.84,.85,1.64,1.7,2.02,3.37,1.13,6.72-3.58,13.6-6.91,20.22-10.67,4.31-2.45,8.28-5.51,12.54-8.39-2.36-4.05-4.55-7.79-6.89-11.82ZM184.56,104.1c-2.03-3.54-4-6.79-5.78-10.14-.79-1.48-1.59-1.58-2.95-.87-6.03,3.12-12.21,5.97-18.09,9.33-5.09,2.91-9.86,6.38-14.93,9.71,2.43,4.14,4.64,7.93,6.94,11.86,10.85-8.17,22.28-14.77,34.81-19.89Zm-80.44,190.37c-3.83,2.21-7.44,4.24-10.99,6.39-.32,.2-.43,1.24-.23,1.72,1.1,2.62,2.25,5.22,3.51,7.77,4.21,8.54,9.13,16.66,14.87,24.26,.39,.52,1.48,1.15,1.83,.96,3.64-1.97,7.19-4.1,10.92-6.27-8.22-10.83-14.77-22.28-19.92-34.82Zm80.13,80.87c-6.13-3.13-12.11-5.89-17.78-9.17-5.73-3.31-11.16-7.14-16.9-10.86-2.16,3.75-4.35,7.55-6.62,11.5,10.77,8.26,22.29,14.74,34.66,20.09,2.29-3.97,4.45-7.74,6.65-11.56Zm190.67-190.81c3.53-2.02,6.73-3.94,10.02-5.7,1.47-.79,1.81-1.59,1.02-3.08-3.67-6.91-7.11-13.95-10.97-20.76-2.38-4.19-5.37-8.04-8.18-12.17-4.08,2.39-7.86,4.6-11.78,6.89,8.2,10.86,14.76,22.23,19.89,34.82Zm-38.71-72.48c-3.88-2.64-7.4-5.39-11.24-7.57-7.18-4.06-14.55-7.8-21.87-11.62-.54-.28-1.78-.34-1.96-.05-2.2,3.59-4.27,7.26-6.5,11.14,12.56,5.2,24.02,11.73,34.67,20.03,2.33-4.04,4.51-7.81,6.89-11.94ZM103.99,184.39c5.23-12.61,11.76-24.06,20.04-34.68-4.11-2.36-7.88-4.53-11.8-6.79-8.26,10.75-14.75,22.28-20.09,34.66,3.99,2.29,7.76,4.46,11.85,6.8Zm271.06,110.22c-5.21,12.64-11.76,24.06-20.03,34.7,4.11,2.36,7.92,4.55,11.86,6.82,1.75-2.46,3.4-4.68,4.96-6.97,5.58-8.22,10.32-16.91,14.29-26.02,.26-.6,.28-1.88-.05-2.09-3.52-2.18-7.13-4.2-11.03-6.44Z" fill="#111"/><path d="M219.61,398.09v-13.59c13.24,1.58,26.41,1.66,39.67-.17,.13,.58,.32,1.03,.32,1.47,.03,3.47-.03,6.94,.04,10.4,.02,1.32-.48,1.8-1.78,1.95-10.5,1.21-21.02,1.45-31.56,.56-2.2-.19-4.39-.4-6.7-.62Z" fill="#fff"/><path d="M384.79,259.61c.32-6.95,.88-13.52,.86-20.08-.02-6.56-.63-13.12-.99-19.91,.49-.04,1.15-.14,1.81-.14,2.36-.02,4.71,0,7.07,0,4.37,0,4.44,0,4.88,4.26,1.16,11.28,1.08,22.56-.1,33.84-.17,1.6-.72,2.12-2.3,2.08-3.73-.09-7.46-.03-11.23-.03Z" fill="#fff"/><path d="M219.48,94.78c0-4.4,.02-8.41-.01-12.43-.01-1.35,.91-1.39,1.82-1.43,7.68-.37,15.37-.88,23.05-1,4.42-.06,8.85,.58,13.28,.81,1.47,.08,2.07,.56,2.03,2.12-.1,3.79-.03,7.59-.03,11.71-13.44-1.59-26.62-1.73-40.14,.22Z" fill="#fff"/><path d="M94.75,259.57c-4.44,0-8.58,.04-12.72-.07-.38-.01-1.03-1.05-1.06-1.64-.4-8.09-.88-16.19-.98-24.28-.06-4.62,.53-9.24,.83-13.96h13.74c-1.61,13.34-1.68,26.52,.19,39.95Z" fill="#fff"/><path d="M329.31,355c2.35,4.02,4.53,7.77,6.89,11.82-4.26,2.88-8.23,5.93-12.54,8.39-6.62,3.77-13.49,7.09-20.22,10.67-1.67,.89-2.52,.51-3.37-1.13-1.69-3.25-3.59-6.38-5.56-9.84,12.49-5.11,23.92-11.68,34.8-19.91Z" fill="#fff"/><path d="M184.56,104.1c-12.54,5.12-23.96,11.72-34.81,19.89-2.3-3.93-4.52-7.71-6.94-11.86,5.07-3.33,9.84-6.8,14.93-9.71,5.89-3.36,12.07-6.21,18.09-9.33,1.36-.7,2.16-.61,2.95,.87,1.78,3.35,3.75,6.6,5.78,10.14Z" fill="#fff"/><path d="M104.12,294.47c5.15,12.54,11.7,23.99,19.92,34.82-3.73,2.18-7.28,4.3-10.92,6.27-.35,.19-1.44-.44-1.83-.96-5.75-7.6-10.66-15.72-14.87-24.26-1.26-2.55-2.41-5.15-3.51-7.77-.2-.48-.09-1.52,.23-1.72,3.54-2.15,7.15-4.19,10.99-6.39Z" fill="#fff"/><path d="M184.24,375.35c-2.19,3.82-4.36,7.58-6.65,11.56-12.37-5.35-23.89-11.83-34.66-20.09,2.27-3.94,4.46-7.75,6.62-11.5,5.74,3.72,11.17,7.55,16.9,10.86,5.68,3.28,11.66,6.04,17.78,9.17Z" fill="#fff"/><path d="M374.91,184.54c-5.13-12.58-11.69-23.96-19.89-34.82,3.93-2.3,7.71-4.51,11.78-6.89,2.81,4.14,5.8,7.98,8.18,12.17,3.86,6.8,7.3,13.84,10.97,20.76,.79,1.49,.45,2.3-1.02,3.08-3.29,1.75-6.49,3.68-10.02,5.7Z" fill="#fff"/><path d="M336.21,112.07c-2.38,4.13-4.56,7.9-6.89,11.94-10.65-8.31-22.11-14.83-34.67-20.03,2.23-3.88,4.3-7.55,6.5-11.14,.18-.29,1.41-.23,1.96,.05,7.32,3.81,14.68,7.56,21.87,11.62,3.84,2.17,7.36,4.93,11.24,7.57Z" fill="#fff"/><path d="M103.99,184.39c-4.09-2.35-7.86-4.51-11.85-6.8,5.34-12.38,11.83-23.92,20.09-34.66,3.92,2.26,7.7,4.42,11.8,6.79-8.28,10.62-14.81,22.07-20.04,34.68Z" fill="#fff"/><path d="M375.05,294.61c3.89,2.24,7.51,4.26,11.03,6.44,.34,.21,.31,1.49,.05,2.09-3.96,9.11-8.7,17.8-14.29,26.02-1.55,2.29-3.2,4.51-4.96,6.97-3.94-2.27-7.76-4.46-11.86-6.82,8.26-10.64,14.81-22.06,20.03-34.7Z" fill="#fff"/></g><g><path d="M324.84,208.13v-.82c-3.07,1.87-6.14,3.72-9.23,5.56,.71,.52,1.23,.79,1.56,.79v1.19l-2.18-1.61c-.43,.26-.86,.52-1.3,.78-.06,1.48-.24,3.66-.51,6.52,.32-.25,.65-.5,.97-.76-.01-.06-.04-.11-.04-.18h.27c1.59-1.28,3.15-2.6,4.7-3.92,2.03-1.74,3.91-3.65,5.76-5.58v-.79l-.38-.79c.26,0,.38-.13,.38-.4Z" fill="#fff"/><g><path d="M260.26,298.31l-.77,.4c-.77,0-1.15-.26-1.15-.79v-.79l.38-.79c-.96,0-1.72-.53-2.3-1.58v-1.58h.77v-.79h-.38c-1.85,0-2.87,.4-3.06,1.19v.4c3.32,3.36,4.98,5.47,4.98,6.33h-.38l.38,1.98v1.19c1.34,1.05,2.36,1.58,3.06,1.58h.38v-1.19c-.83,0-1.47-.13-1.92-.4v-.4c2.3-.4,3.45-.92,3.45-1.58v-1.58c0-.46-1.15-.99-3.45-1.58Z" fill="#fff"/><path d="M248.77,291.19v1.19c.51,0,.77-.26,.77-.79,.96,0,1.6,.13,1.92,.4,0-.26,.13-.66,.38-1.19l-.38-.79c-1.79,.2-2.68,.59-2.68,1.19Z" fill="#fff"/><path d="M240.44,283.8c-.06,.41-.1,.89-.1,1.46v1.19h.77c.17-1.33,.34-2.35,.51-3.08-.39,.15-.79,.29-1.18,.44Z" fill="#fff"/><g><path d="M266.39,272.91c-.57,.29-1.13,.58-1.71,.86-5.63,2.75-11.41,5.14-17.24,7.39-.13,.29-.21,.6-.21,.94l2.3,3.16h.38v-.79h.38c.51,0,.77,.26,.77,.79v.4l-.77-.4h-.38c0,1.78,1.15,3.5,3.45,5.14h.38c0-1.58,.38-2.37,1.15-2.37,0,.79-.26,1.72-.77,2.77l.77,1.19c.26,0,.64-.13,1.15-.4,.45,.26,.96,.4,1.53,.4h.38l.77-.4v.79h-.77v1.58h.77v-.79h1.15c0,.4,.26,.92,.77,1.58v.4l-1.92-.4c0,.26-.13,.66-.38,1.19l1.53,.79v-1.19c1.28,1.05,2.04,1.58,2.3,1.58,.51,0,.77-.26,.77-.79,.51,0,.77,.4,.77,1.19,.38,0,.77-.53,1.15-1.58h-1.15l-1.53-1.19v-.4l1.92,.79c.77-.4,1.15-.79,1.15-1.19v-.4c0-.53-.51-.79-1.53-.79v-.4h.38c1.15,0,1.92-3.56,2.3-10.68-.26-.53-.38-.92-.38-1.19,0-.33,.13-1.65,.38-3.96,0-.46-.26-.73-.77-.79l.77-1.19v-1.67Zm-16.09,10.37c0,.53-.26,.79-.77,.79-.45,0-.7-.26-.77-.79,.38,0,.89-.26,1.53-.79v.79Zm3.83-3.16v.79c-.45,0-.7-.26-.77-.79h.77Zm-.77,1.58h.38v.79h-.38v-.79Zm.77,5.93c-.89-1.05-1.53-1.58-1.92-1.58v-1.58h.38c0,.66,.51,1.58,1.53,2.77v.4Zm0-1.58v-1.19h.38c0,.26,.13,.66,.38,1.19h-.77Zm1.92,3.16c-.45,0-.7-.26-.77-.79h.77v.79Zm6.13,6.72h-.38l-.77-.4v-.79h.38c0,.53,.26,.79,.77,.79v.4Zm.38-3.96h-1.15v-.79c.51,.26,.89,.4,1.15,.4v.4Zm.77-9.1c-2.81,0-4.34,1.19-4.6,3.56h-.77v-.79l.38-2.37c0-.33,1.4-.59,4.21-.79h.77v.4Zm0-4.35h-.38v-.79h.38v.79Z" fill="#fff"/><path d="M257.83,310.24c-.41-.28-.82-.57-1.23-.86h-.56l.14-.29c-.43-.3-.86-.59-1.28-.9h0c-1.08-.78-2.14-1.57-3.2-2.37h-.63c-.34,0-.67-.43-1.01-1.25-.18-.14-.35-.28-.52-.42v1.27h-.77c.26-.46,.38-.99,.38-1.58h.01c-2.32-1.87-4.58-3.82-6.74-5.87-.73-.69-1.42-1.42-2.13-2.13-.23,1.27-.47,2.87-.72,4.83h-.38v-.4c.14-2.52,.32-4.19,.54-5.01-.5-.51-.99-1.02-1.48-1.54-.24-.11-.45-.18-.59-.18v-.4s.04,0,.06,0c-1.07-1.17-2.13-2.35-3.17-3.55-.51,.03-1.26,.68-2.26,1.97h-.38c0-.79-.26-1.19-.77-1.19v-.79c.77,0,1.15-.26,1.15-.79l-.38-.79h.77v.79h.77v-.4l-.13-.26c-.37-.44-.73-.89-1.1-1.34-2.23,.82-4.47,1.65-6.69,2.5,.37,.98,.84,2.39,1.41,4.24,0,1.32,1.28,2.37,3.83,3.16l1.92-.4,1.15,1.58v.4c-1.02,0-2.04,.13-3.06,.4-1.72-.26-3.13-.4-4.21-.4-1.34,0-2.49,.26-3.45,.79,1.79,4.61,2.94,6.99,3.45,7.12h5.75v.79h-.77l-4.6,.4c1.09,2.04,2.23,3.5,3.45,4.35h2.68l1.92,.4c0,.53-.26,.79-.77,.79h-.77l-1.92-.4v.79c1.98,1.85,3.51,2.77,4.6,2.77h.38c.51-3.3,.77-5.27,.77-5.93,0-.53-.51-.79-1.53-.79v-.4c1.53,0,2.3-.66,2.3-1.98-.26,0-.38-.13-.38-.4-.57,0-1.09,.13-1.53,.4-.51-.26-.89-.4-1.15-.4v-.4h1.15c1.53,0,2.3-1.05,2.3-3.16v-1.19h.77c0,.79,.38,1.19,1.15,1.19,0,.26-.13,.4-.38,.4-.83,0-1.72,4.22-2.68,12.66,0,.79,1.15,1.45,3.45,1.98h3.06c2.21,0,3.95-.52,5.25-1.54l-.79-.65c1.39-.76,2.78-1.51,4.16-2.27,0,.04-.01,.08-.02,.11h.59c0,.51-.24,.77-.72,.78-.05,.32-.1,.65-.17,.97-.03,.18-.05,.35-.08,.52,1.59-.71,3.06-1.86,4.41-3.46v-.4h-1.15c-.51,0-.77,.4-.77,1.19-.26,0-.38-.13-.38-.4-.19,0-1.21,.13-3.06,.4-1.02,0-1.92-.26-2.68-.79-.2,0-.41,0-.63,.02-.4,.22-.8,.44-1.2,.66l.63-.61c-.66,.06-1.4,.17-2.24,.33l-6.13-.79v-.4c1.28,0,2.68-.26,4.21-.79l2.3,.4c.45-.26,1.09-.4,1.92-.4,.52,0,.99,.12,1.41,.34l2.83-.77c-.28,.15-.56,.3-.84,.46,1.76-.28,4.16-.53,7.2-.76Zm-27.07-21.82h-.38v-.79h.38v.79Zm4.6,20.17v.4c-1.79,0-2.68,.4-2.68,1.19h-.77l-.38-2.37h.38c.51,.53,1.66,.79,3.45,.79Zm-.77-13.05l-1.92-1.19,.38-.79,.77,.4h.77l.77-.4c0,.26,.13,.4,.38,.4-.38,1.05-.77,1.58-1.15,1.58Zm2.68-.79l-.38,.79h-.38c0-.26,.13-.4,.38-.4,0-.26-.13-.66-.38-1.19v-.4c.51,0,.77,.26,.77,.79v.4Zm6.13,11.07c-.26,0-.64,.13-1.15,.4h-2.3v-.4c1.53,0,2.55-.26,3.06-.79h.38v.79Zm.76-1.06s0,.02-.01,.03v.65h-.51s.06-.01,.08-.02c.1-.05,.19-.13,.27-.24,.07-.11,.12-.24,.16-.38v-.55l.05,.03c0,.17,0,.34-.04,.5Zm9.58,3.43h.38v.79h-.38v-.79Zm-.77-.4h-.77v-.79h.77v.79Zm-6.9-.4v-.4h3.06v-.4h1.92l.77-.4h.38c-.26,.53-.38,.92-.38,1.19h-5.75Z" fill="#fff"/><g><g><g><path d="M191.46,285.64l2.31,2.25,.71-2.27h-1.31c-.53,0-1.11,0-1.71,.02Z" fill="#fff"/><path d="M190.05,187.53l-.14-.17h.65c-.43-3.09-.65-5.33-.65-6.71v-9.99l-4.63,3.42-2.34-.6,1.32-5.29,5.65,1.69v-3.83l.65-2.76c-.43,0-.65-.13-.65-.39,.43-2.7,.65-4.8,.65-6.31v-4.34c0-1.45-1.09-2.37-3.26-2.76l-2.81,.24c-3.03,6.17-8.19,11.19-13.37,15.63-2.71,2.33-5.61,4.57-8.97,5.85,9.21,5.59,18.52,11.03,27.9,16.33Zm-10.98-19.08l1.09,.49,.07,2.66-2.14-.99,.98-2.16Z" fill="#fff"/><path d="M185.9,198.21l5.14-1.9c-.2-1.43-.57-3.61-1.13-6.55-10.22-5.76-20.36-11.69-30.38-17.79-2.02,.39-4.06,.4-6.12,.39v.02c0,1.51-.22,3.62-.65,6.31,.43,.53,.65,.92,.65,1.18l-.65,.79c.43,2.89,.65,5.39,.65,7.5,0,.53,.43,.79,1.3,.79h2.61l1.95-.79h.65v.79c7.39,0,11.08,2.76,11.08,8.29v5.82l3.38,.11-.4,3.73-1.79,2.44c-.54-1.35-.94-2.75-1.2-4.18v.76l-.65,1.97c.43,0,.65,.13,.65,.39,0,1.51-.22,3.62-.65,6.31l.65,.79c-.36,.55-.65,1.41-.86,2.56,6.89-5.08,13.83-10.09,20.85-15-.11-.92-.24-1.88-.44-2.95l.65-1.97c-1.76-.3-3.57-.24-5.31,.19Zm-21.35-11.97l-2.15-1-.87-2.35,3.21,1.48-.2,1.87Z" fill="#fff"/><path d="M208.8,298.25c-4.93,0-8.75-.11-11.46-.32-3.94,2.16-7.88,4.31-11.84,6.44,.37,.27,.69,.61,.95,1.06,.27-.15,.54-.29,.84-.48l3.26,1.18,1.96-.79-.65-.79v-.39l4.56-.79c3.15,.26,4.89,.39,5.21,.39,.87-.26,1.52-.39,1.95-.39,0,.26,.22,.39,.65,.39,0,.26-.22,.66-.65,1.18,0,.79,.43,1.18,1.3,1.18h2.61c.87,0,1.3-.26,1.3-.79v-1.97l.65-4.74c-.43,0-.65-.13-.65-.39Zm-1.3,5.92h-.65v-.79h.65v.79Z" fill="#fff"/><path d="M170.17,235.2c-.04,1.05,.01,2.08,.19,3.06h.64v.39h-.57c.1,.46,.23,.91,.41,1.33,.57,1.35,.58,2.87-.29,3.96,.61,2.26,.97,5,1.07,8.21,6.53,1.94,13.06,3.89,19.58,5.81v-14.97c0-.37,.07-.75,.18-1.12-.08-.76-.06-1.45,.08-2.29,.12-.73,.45-1.42,.77-2.08,.03-.05,.06-.09,.09-.14h0c-.01-.89,0-1.77,0-2.66,0-.8,.24-1.45,.61-1.97-.47-.73-.61-1.45-.51-2.1l-.67,.25-.29-.78,.87-.78c-.75-1.36-1.13-3.25-1.13-5.66v-4.34l-.65-.79c.43,0,.65-.13,.65-.39v-4.34l-.65-2.76c.43,0,.65-.13,.65-.39l-.65-.79c.43,0,.65-.13,.65-.39v-3.4l-1.33,.49-.24-.64c-3.55,2.51-7.07,5.04-10.58,7.6l2.35,1.5-1.29,1.39-1.08-.51,.2-1.85-.19-.52c-3.08,2.24-6.15,4.5-9.2,6.78-.1,1.2-.15,2.57-.15,4.15v1.97c0,.21-.02,.42-.06,.64,.61,.56,1.05,1.38,1.11,2.51,.1,1.92-.11,3.8-.59,5.63Zm9.31-.88h1.3v.39h-1.3v-.39Zm-7.82,2.76h-1.3v-.79h1.3v.79Zm4.58,6.04l-.2,1.87-2.15-1-.87-2.35,3.21,1.48Zm-5.23-10.38h1.3v1.18h-1.3v-1.18Z" fill="#fff"/><path d="M203.25,289.65l-.29-.78,.5-.45c-1.08-.89-2.11-1.83-3.11-2.8h-2.6l-.02,.87c-1.69,1.75-3.9,2.91-6.3,3.28l-1.36-1.3,.89-2.81c-1.97,.05-4.27,.17-6.91,.36-.87-.26-3.26-.53-7.17-.79v-.39c3.91,0,7.17-.13,9.77-.39,1.74,.26,3.26,.39,4.56,.39,.43,0,1.09-.13,1.95-.39v.39l1.63-.2,.98-3.1c-3.04-1.54-4.56-3.47-4.56-5.78v-.78l-.67-.32,.2-1.85-.2-.53-1.16-.74,.78-.29,.38,1.03,.66,.42v-12.66c-3.86-1.13-7.73-2.26-11.59-3.4-2.65-.79-5.31-1.58-7.96-2.36,0,7.92-.44,14.17-1.3,18.73l3.91,.39v.79h-3.68c.1,.53,.04,1.11-.23,1.7v1.06h3.26c0,.53-.43,.79-1.3,.79h-.65l-1.3-.39c-.96,1.16-2.21,2.14-3.73,2.94-.28,.25-.58,.48-.87,.72,.33,0,.65,.12,.84,.46,.24,.43,.14,1.15-.36,1.37-.87,.38-1.14,1.06-1.52,1.87-.43,.91-1.02,1.65-1.87,2.2-1.68,1.09-4.03,.89-5.79,.11-.08-.04-.16-.09-.24-.13-1.07,.66-2.11,1.35-3.13,2.08-.1,.34-.19,.67-.29,.99h0v.03l-.02,.03c-.16,.48-.33,.95-.55,1.39,.41,3.4,.82,5.31,1.23,5.68,.43,0,.65-.13,.65-.39,.43,0,.65,.13,.65,.39l4.56-.39h1.3v.79c-5.21,.72-7.82,1.38-7.82,1.97v4.34c0,1.32,2.17,1.97,6.52,1.97,0,.33-1.95,.85-5.86,1.58,0,.26,.22,.66,.65,1.18-.43,.46-.65,.99-.65,1.58v1.58c0,.53,.87,.79,2.61,.79v.39c0,.53-.87,.79-2.61,.79v4.34c0,.12,.23,.26,.67,.43,1.54-.8,3.08-1.59,4.62-2.39,3.66-1.91,7.32-3.85,10.97-5.78-.28,0-.57,0-.85-.03-.91,.2-1.8,.47-2.7,.71-.54,.15-1.06-.18-1.23-.7-.17-.51,.19-1.09,.7-1.23,.08-.02,.17-.05,.25-.07-.05-.09-.12-.17-.15-.27-.25-.79,.05-1.6,.64-2.11h-3.79l-1.3-.4c0-.46,.43-.72,1.3-.79h2.36c.03-.58,.5-1.15,1.22-.93,1.27,.37,2.6,.57,3.93,.68,.36-.42,.75-.8,1.21-1.15,.02-.01,.04-.02,.05-.03,.18-.28,.48-.49,.83-.49,1,0,2.01-.1,3.01-.07,1.03,.03,2.15,.18,3.02,.78,.07,.05,.11,.11,.17,.17,1.15-.33,2.46-.65,3.68-.68,3.77-2.03,7.54-4.08,11.3-6.14-.05-.01-.11-.02-.15-.03,0-.24,.48-.45,1.38-.64,1.53-.84,3.07-1.68,4.6-2.52h-.77v-.79h1.95v.13c1.79-.99,3.58-1.98,5.37-2.98-.67-.48-1.31-.97-1.92-1.46l-1.18,.44Zm-34.85,10.96l-3.91-.39-4.56,.39c-.76,0-1.19-.26-1.3-.79,.43,0,1.09-.13,1.95-.39,2.93,.26,5.32,.39,7.17,.39h.65v.79Zm0-3.55h-2.61v-.39c.43,0,1.09-.13,1.95-.39h.65v.79Zm11.34-8.28l2.39,.75-3.14,1.63-1.36-1.3,2.11-1.08Zm-1.8-26.35c.22-.23,.48-.42,.77-.55,.84-.38,1.79-.41,2.66-.09h.55l-2.82,3.53-1.66-2.08c.11-.3,.28-.58,.5-.81Zm.3,7.84l1.09,.49,.07,2.66-2.14-.99,.98-2.16Zm2.54,6.66c-2.17,1.05-3.26,1.97-3.26,2.76h-.65c0-.79-.22-1.71-.65-2.76h4.56Zm-9.77,2.76h1.3v.79h-1.3v-.79Zm0,2.76l1.3,.39c0,.53-.43,.79-1.3,.79v-1.18Zm0,11.05l1.3,.39c0,.53-.43,.79-1.3,.79v-1.18Zm1.3,9.08h-1.3v-.39h1.3v.39Zm-1.3-3.95v-.79l.65-.79c2.39,0,4.56,.26,6.52,.79,.87-.26,3.26-.53,7.17-.79,0,.79-4.78,1.32-14.34,1.58Zm14.34-4.74h-3.26l-1.3-.39c0-.46,.43-.72,1.3-.79h.65c1.09,.53,1.95,.79,2.61,.79v.39Zm9.12,.39l-3.26-.39v-.39c.98,0,1.85-.13,2.61-.39,1.74,.53,2.61,.92,2.61,1.18h-1.95Z" fill="#fff"/><path d="M203.59,306.93c-1.74,0-3.48,.13-5.21,.39l-2.61-.39-3.26,.39c-.98,0-1.85-.13-2.61-.39-.76,.26-1.63,.39-2.61,.39l-.55-.07c-.13,.2-.32,.37-.56,.42-1.08,.25-2.16,.32-3.24,.31-.13,.19-.21,.36-.21,.52h-1.3c0-.23-.05-.41-.12-.57-.71-.05-1.42-.11-2.13-.17-1.15,.61-2.29,1.23-3.44,1.85-.12,.15-.25,.27-.41,.36,.15,.13,.24,.29,.24,.51v.39l-1.3,1.18c-1.03-.09-1.8-.23-2.35-.41-4.77,2.53-9.56,5.04-14.35,7.54,.52,.12,1.07,.24,1.71,.37h4.56c1.52,0,5.65-.79,12.38-2.37v-.79h-1.3v-.39c3.04,0,4.56-.26,4.56-.79,.22,0,3.04,.13,8.47,.39v.39h-3.26v.39c0,.94,3.14,1.58,9.42,1.92-.07-.29-.1-.58-.06-.87l-4.71-2.37-1.14,.67,.84-.83,.3,.16,2.76-1.64-1.54-.19c-4.34,.26-7.6,.39-9.77,.39h-.65v-.79h2.61c1.52,0,3.48-.13,5.86-.39,.83,.22,2.36,.44,4.58,.67l2.38-.4c.58-.35,1.72-.71,3.47-1.06,.76,.26,1.63,.39,2.61,.39v.39c-1.9,.48-3.36,.81-4.39,.99-.16,.93-.37,1.85-.67,2.75-.23,.83-.31,1.51-.26,2.07,2.36-.23,3.92-.45,4.67-.68v.39c5.65-.2,8.47-.72,8.47-1.58v-.39l-.65-.79c.43,0,.65-.13,.65-.39v-.79l-.65-.79c-.76,0-1.85,.26-3.26,.79-1.74,0-2.82-.53-3.26-1.58,4.34,0,6.52-.39,6.52-1.18v-1.18h-2.61v-.39c2.17,0,3.26-.39,3.26-1.18v-.39c-3.91-.33-5.86-.72-5.86-1.18Zm-35.19,10.26h-.65v-.79h.65v.79Zm3.91-.39h-1.3v-.39c0-.46,.43-.72,1.3-.79l1.3,.39c0,.53-.43,.79-1.3,.79Zm1.95-2.76h-3.26c0-.46,.43-.72,1.3-.79h1.95v.79Zm12.62-5c.12-.03,.22-.09,.31-.17,.08-.08,.14-.17,.19-.27v-.39l.06,.02c.01,.12,0,.24-.05,.35,0,0-.01,.01-.01,.02v.46h-.86c.12,.02,.24,.02,.36-.02Zm9.54,.66l-.65,.79c-1.52,0-6.08,.13-13.68,.39-1.3,0-1.96-.26-1.96-.79,4.34-.53,9.34-.92,14.99-1.18,0,.26,.43,.39,1.3,.39v.39Zm6.52,5.13c0,.46-1.3,.86-3.91,1.18,0-.26-.65-.39-1.95-.39,0-.46,.43-.72,1.3-.79h4.56Z" fill="#fff"/><path d="M206.85,296.67h1.96v-4.45c-.18-.1-.36-.21-.54-.32-2.63,1.46-5.26,2.93-7.9,4.38,2.27,.26,4.43,.39,6.49,.39Z" fill="#fff"/></g><g><polygon points="192.16 169.9 188.66 168.2 187.94 172.91 189.22 173.44 192.16 169.9" fill="#fff"/><path d="M159,220.29l.47-3.73c0,.49-.47,1.48-1.39,2.98l.91,.75Z" fill="#fff"/><path d="M159.04,197.12v-.74h-.46l.06,.14c.01,.16,.06,.31,.13,.42,.07,.11,.17,.17,.27,.18Z" fill="#fff"/><polygon points="158.97 236.04 159.25 234.68 158.51 235.27 158.97 236.04" fill="#fff"/><path d="M158.67,300.28c-.06,.03-.11,.09-.16,.16-.05,.07-.08,.16-.1,.26-.02,.1-.03,.2-.02,.3,0,.1,0,.21,.02,.3,.02,.1,.06,.19,.1,.26,.05,.07,.1,.13,.16,.16,.06,.03,.12,.04,.19,.03l.06,.13c-.02-.1-.03-.21-.02-.32,.01-.11,.04-.21,.08-.29,.04-.09,.09-.15,.15-.2s.13-.07,.19-.06l-.45-.75c-.06-.01-.13,0-.19,.03Z" fill="#fff"/><path d="M166.76,240.86c-.92,1.25-1.67,2.37-2.3,3.36l5.06-2.97v-1.43l-.46-.76c-.86,.19-1.67,.82-2.3,1.8Z" fill="#fff"/><polygon points="159.25 234.68 160.35 233.8 159.44 233.79 159.25 234.68" fill="#fff"/><path d="M155.84,197.81c-.28,.44-.51,.94-.69,1.5-.18,.55-.41,1.05-.69,1.48l.92,.75,1.37-2.22-.91-1.51Z" fill="#fff"/><polygon points="163.14 265.87 163.16 266.93 163.48 266.38 163.14 265.87" fill="#fff"/><path d="M157.04,292.02c0,.1,0,.2,.02,.3,.02,.1,.05,.18,.1,.25,.04,.07,.1,.13,.16,.16s.12,.05,.18,.03l.06,.13c.07,0,.13-.01,.19-.06,.06-.04,.11-.11,.15-.2,.04-.09,.07-.19,.08-.29,0-.11,0-.22-.02-.32h-.91Z" fill="#fff"/><polygon points="156.13 283.8 157.97 283.07 158.43 281.56 157.52 279.31 156.13 281.55 156.13 283.8" fill="#fff"/><polygon points="157.42 329.37 157.88 328.63 156.04 327.14 157.42 329.37" fill="#fff"/><path d="M156.55,204.63c-.06,.03-.11,.09-.16,.16-.04,.07-.08,.16-.1,.25s-.03,.2-.02,.3h.92l-.47-.74c-.06-.01-.12,0-.18,.03Z" fill="#fff"/><path d="M195.83,326.58l2.96,.02c0-.12,0-.24,0-.36l.03,.02c.08-.31,.11-.66,.07-1-.04-.34-.14-.65-.3-.88l-2.3-1.52-.46,3.73Z" fill="#fff"/><polygon points="153.36 290.47 153.82 290.48 153.37 289.71 153.36 290.47" fill="#fff"/><polygon points="165.96 264.77 165.05 262.54 163.21 264.02 164.59 265.53 165.96 264.77" fill="#fff"/><path d="M152.59,212.01h-.46l.06,.22c-.3,0-.5,.43-.51,1.28h.91v-1.5Z" fill="#fff"/><polygon points="164.7 227.1 163.79 226.36 163.33 228.6 164.24 229.35 164.7 227.1" fill="#fff"/><path d="M164.22,240.46l.92,.77,.46-.76c-.5,.06-1-.21-1.38-.75v.74Z" fill="#fff"/><path d="M145.08,328.63c.08-.26,.12-.54,.13-.83l-.91-.75-.46,1.5,.91,.75c.14-.19,.25-.42,.32-.67Z" fill="#fff"/><path d="M167.86,259.43l1.13-3.59c-1.04,1.11-2.12,2.1-3.24,2.98,.7,.2,1.41,.41,2.11,.61Z" fill="#fff"/><path d="M150.96,320.36l-1.33-2.17-.46,2.99,.07,.07c.57-.3,1.15-.59,1.72-.89Z" fill="#fff"/><path d="M159.48,263.54c.18,.02,.35-.03,.52-.13,.17-.1,.32-.25,.45-.45,.18-.28,.33-.61,.44-.98,.1-.37,.16-.77,.17-1.18l-2.29-.39,.05,2.1,.67,1.02Z" fill="#fff"/><path d="M148.51,178.73l-.09-.07-.07,.23c.05-.06,.11-.1,.16-.16Z" fill="#fff"/><path d="M196.12,323.82c.04,.07,.1,.13,.16,.16,.06,.03,.12,.04,.19,.03,.06,.01,.12,0,.18-.03,.06-.03,.11-.09,.16-.16s.08-.16,.1-.25c.02-.1,.03-.2,.02-.3h-.92c0,.1,0,.2,.02,.3,.02,.1,.05,.19,.1,.26Z" fill="#fff"/><path d="M208.38,320.49c-.59-2.38-.89-4.91-.9-7.47v-6.92c-1.21,1.82-2.02,4.25-2.29,6.91l-.46,.74c.16,1.48,.64,2.82,1.36,3.76,.67,1.17,1.44,2.18,2.29,2.98Z" fill="#fff"/><polygon points="173.03 322.46 174.41 324.71 174.41 321.61 173.03 320.84 173.03 322.46" fill="#fff"/><path d="M159.62,269.86h-.65l.03,.12c-.37,.53-.6,1.27-.64,2.06l.63-1.1,.63-1.08Z" fill="#fff"/><path d="M183.44,315.32v.1s.02,0,.03,0l-.03-.09Z" fill="#fff"/><polygon points="185.22 327.29 186.6 328.8 186.6 326.55 185.68 325.81 185.22 327.29" fill="#fff"/><path d="M178.24,324.93c.08,.26,.12,.53,.13,.82l.46-.74v-1.5l-.91,.76c.13,.19,.24,.41,.32,.67Z" fill="#fff"/><path d="M186.21,309.35h0s.02,.02,.03,.02l-.03-.02Z" fill="#fff"/><path d="M186.21,309.35c-.17-.02-.34-.09-.49-.21-.16-.13-.31-.32-.43-.54l1.38,2.25c-.27-.39-.43-.93-.45-1.5Z" fill="#fff"/><path d="M187.55,322.81c1.09-.02,2.18,.23,3.22,.76-.92-2.49-1.83-3.74-2.74-3.75l-3.22,.73c.3,.74,.71,1.33,1.19,1.73,.48,.4,1.02,.58,1.56,.53Z" fill="#fff"/><polygon points="205.35 234.1 206.27 234.1 206.72 233.36 205.81 232.6 205.35 234.1" fill="#fff"/><path d="M204.09,199.87c-.16-.13-.33-.2-.5-.22l-.46,1.48,.91,.75,.46-1.48c-.11-.22-.25-.4-.41-.53Z" fill="#fff"/><polygon points="201.23 228.84 202.14 229.59 202.62 227.36 201.69 226.59 201.23 228.84" fill="#fff"/><path d="M190.37,293.28c-.02,.09-.06,.18-.1,.24-.05,.07-.11,.12-.17,.15-.06,.03-.13,.03-.19,.01h.47v-.41Z" fill="#fff"/><path d="M190.54,330.32c-.06,.03-.11,.09-.16,.16-.04,.07-.08,.16-.1,.25-.02,.1-.03,.2-.02,.3l.07,.02c.06,0,.11-.03,.16-.07,.05-.04,.1-.1,.13-.17,.04-.07,.06-.15,.08-.24,.02-.09,.02-.18,.01-.28-.06-.01-.12,0-.18,.03Z" fill="#fff"/><polygon points="166.67 302.96 167.12 303.71 168.05 302.97 167.58 302.22 166.67 302.96" fill="#fff"/><path d="M199.05,327.34h.46l-.46-.74h-.26c-.03,.45,.02,.74,.25,.74Z" fill="#fff"/><path d="M196.29,313.9l.47-.76,.03,.02c.01-.11,0-.22-.02-.32s-.06-.2-.11-.27c-.05-.08-.11-.13-.18-.16-.07-.03-.13-.03-.2,0-.35,.04-.68,.31-.91,.74l.91,.77Z" fill="#fff"/><path d="M195.01,296.93l-1.9,.52-1.22,1.19c1.04-.57,2.08-1.13,3.12-1.7Z" fill="#fff"/><path d="M195.4,300.06c.08-.39,.14-.79,.2-1.19-.88,.48-1.76,.96-2.64,1.44l1.05,.86c-.03,.3-.01,.61,.05,.91,.06,.29,.16,.56,.29,.77s.3,.38,.48,.48,.37,.12,.56,.08v3.73l.46-3.73c-.61-.49-.75-1.54-.45-3.36Z" fill="#fff"/><path d="M190.41,292.95l-.03-.02v.35s0-.01,0-.02c.02-.1,.03-.21,.03-.31Z" fill="#fff"/><path d="M202.92,310.96c.16,0,.23,.24,.23,.74h.46l-.91-1.51c0,.49,.07,.76,.22,.76Z" fill="#fff"/><polygon points="183.19 318.63 181.82 318.62 179.98 320.1 180.89 320.85 183.19 319.37 183.19 318.63" fill="#fff"/><polygon points="158.92 293.95 158.92 293.21 158.01 291.71 157.54 293.2 158 294.71 158.92 293.95" fill="#fff"/><path d="M183.43,315.42c-1.18,.01-1.8,.67-1.83,2.14l1.38,2.24,.45-4.38Z" fill="#fff"/><path d="M207.21,207.95l.91,.75,.23-.13,.22,.13v1.5h2.3v-.75c0-.1,0-.21-.02-.3-.02-.1-.06-.19-.1-.26-.04-.07-.1-.13-.16-.16-.06-.03-.12-.04-.19-.03-.35-.04-.68-.31-.91-.75l-1.11,.61-1.18-.62Z" fill="#fff"/><polygon points="192.55 172.33 193.14 172.79 193.85 171.55 192.55 170.2 192.66 170.68 192.55 172.33" fill="#fff"/><polygon points="186.42 168.86 185.82 168.42 185.29 170.35 186.46 171.23 186.42 168.86" fill="#fff"/><polygon points="191.92 169.54 192.55 170.2 192.35 169.29 191.92 169.54" fill="#fff"/><polygon points="199.51 185.69 200.79 184.91 202.2 182.48 201.18 182.3 199.35 184.99 199.51 185.69" fill="#fff"/><polygon points="167.77 328.23 168.08 329.62 169.81 328.59 168.47 326.99 167.77 328.23" fill="#fff"/><path d="M168.81,322.02l.11-1.65-3.02,1.82c.95-.38,1.94-.44,2.91-.17Z" fill="#fff"/><polygon points="154.33 309.85 152.57 308.54 153.04 310.63 154.22 311.52 154.33 309.85" fill="#fff"/><path d="M149.16,304.29l-.23,3.33,1.72-1.04,.11-1.67c-.97-1.49-2.21-2.42-3.53-2.64l-2.7,3.23,.74,1.14,3.88-2.34Z" fill="#fff"/><path d="M192.46,194.77l.11-1.65-3.02,1.82c.95-.38,1.94-.44,2.91-.17Z" fill="#fff"/><polygon points="179.68 207.23 179.08 206.8 178.54 208.72 179.72 209.6 179.68 207.23" fill="#fff"/><path d="M181.22,198.98l-.13,.27,.16,.02c.1,1.91,.38,3.79,.82,5.58l.98-2.17,.22-3.32-1.98-.1-.06-.27Z" fill="#fff"/><path d="M179.34,199.32c-.16,.12-.3,.28-.42,.49-.12,.21-.21,.45-.27,.72l.91,1.85,1.54-3.13h-.3c-.47-.3-.99-.27-1.45,.07Z" fill="#fff"/><polygon points="192.76 224.06 194.05 223.29 195.45 220.86 194.44 220.67 192.6 223.37 192.76 224.06" fill="#fff"/><polygon points="197.71 253.33 198.03 254.73 199.75 253.69 198.42 252.1 197.71 253.33" fill="#fff"/><path d="M198.76,247.12l.11-1.65-3.02,1.82c.95-.38,1.94-.44,2.91-.17Z" fill="#fff"/><polygon points="192.1 263.06 192.69 263.51 193.39 262.28 192.1 260.93 192.21 261.4 192.1 263.06" fill="#fff"/><polygon points="185.97 259.58 185.37 259.15 184.84 261.08 186.01 261.95 185.97 259.58" fill="#fff"/><path d="M202.48,266.87l-.13,.27,.16,.02c.1,1.91,.38,3.79,.82,5.58l.98-2.17,.22-3.32-1.98-.1-.06-.27Z" fill="#fff"/><path d="M185.63,251.67c-.16,.12-.3,.28-.42,.49-.12,.21-.21,.45-.27,.72l.91,1.85,1.54-3.13h-.3c-.47-.3-.99-.27-1.45,.07Z" fill="#fff"/><polygon points="184.27 234.95 182.51 233.64 182.99 235.73 184.17 236.62 184.27 234.95" fill="#fff"/><polygon points="199.05 276.41 200.34 275.64 201.74 273.21 200.73 273.03 198.9 275.72 199.05 276.41" fill="#fff"/><polygon points="168.62 283.78 167.75 283.33 167.19 286.18 168.78 285.44 168.62 283.78" fill="#fff"/><polygon points="167.34 270.6 166.76 271.07 166.93 272.74 168.37 271.9 168.08 271.75 167.34 270.6" fill="#fff"/><path d="M181.82,313.06c.04-.28,.05-.57,.02-.85-.03-.28-.09-.55-.18-.79l-1.45,.03,.57,3.91,.19-.38c.43-.43,.73-1.12,.85-1.92Z" fill="#fff"/><polygon points="185.77 277.76 187.49 276.31 186.19 275.64 185.03 276.6 185.77 277.76" fill="#fff"/><path d="M193.86,274.84l-1.47-2.33-.55,2.85,.74,1.16c1.32-.33,2.53-1.36,3.45-2.92l.09-5.45-1.01,.26-1.25,6.43Z" fill="#fff"/><polygon points="156.6 271.35 156.18 273.47 156.5 276.77 157.21 275.58 157.03 271.57 156.6 271.35" fill="#fff"/></g></g><g><polygon points="257.3 155.39 253.59 153.59 252.83 158.58 254.18 159.14 257.3 155.39" fill="#fff"/><path d="M222.16,208.79l.5-3.95c0,.52-.5,1.57-1.47,3.16l.97,.79Z" fill="#fff"/><path d="M222.21,184.24v-.79h-.48l.06,.15c.01,.17,.06,.33,.14,.45,.08,.12,.18,.18,.29,.19Z" fill="#fff"/><polygon points="222.13 225.48 222.43 224.04 221.65 224.67 222.13 225.48" fill="#fff"/><path d="M228.13,291.79c-.06,.03-.12,.09-.17,.17-.05,.08-.08,.17-.11,.27-.02,.1-.03,.21-.02,.32,0,.11,0,.22,.02,.32,.02,.1,.06,.2,.11,.27,.05,.08,.11,.13,.17,.17,.06,.03,.13,.04,.2,.03l.06,.13c-.02-.11-.03-.22-.02-.34,.01-.11,.04-.22,.08-.31,.04-.09,.1-.16,.16-.21s.13-.07,.2-.06l-.48-.79c-.07-.02-.13,0-.2,.03Z" fill="#fff"/><path d="M230.39,230.59c-.97,1.32-1.77,2.51-2.44,3.56l5.36-3.14v-1.52l-.49-.81c-.92,.2-1.77,.87-2.43,1.91Z" fill="#fff"/><polygon points="222.43 224.04 223.6 223.1 222.63 223.1 222.43 224.04" fill="#fff"/><path d="M218.81,184.97c-.3,.46-.54,1-.73,1.59-.19,.59-.44,1.12-.73,1.57l.98,.79,1.46-2.35-.96-1.6Z" fill="#fff"/><polygon points="268.38 315.52 268.41 316.63 268.74 316.06 268.38 315.52" fill="#fff"/><path d="M220.08,284.8c0,.11,0,.21,.02,.31,.02,.1,.06,.19,.1,.27,.05,.08,.1,.13,.16,.17s.13,.05,.19,.04l.06,.13c.07,0,.14-.01,.2-.06,.06-.05,.12-.12,.16-.21,.04-.09,.07-.2,.08-.31,.01-.11,0-.23-.02-.34h-.97Z" fill="#fff"/><polygon points="219.12 276.09 221.07 275.32 221.55 273.72 220.59 271.34 219.12 273.71 219.12 276.09" fill="#fff"/><polygon points="226.81 322.62 227.29 321.83 225.35 320.25 226.81 322.62" fill="#fff"/><path d="M219.57,192.19c-.06,.04-.12,.09-.17,.17-.05,.08-.08,.17-.1,.27s-.03,.21-.02,.32h.98l-.49-.79c-.07-.01-.13,0-.19,.03Z" fill="#fff"/><path d="M261.19,321.43l3.14,.02c-.01-.13-.01-.26,0-.38l.04,.02c.09-.33,.11-.7,.07-1.06-.04-.36-.15-.68-.31-.94l-2.44-1.61-.49,3.95Z" fill="#fff"/><polygon points="216.19 283.17 216.68 283.17 216.19 282.36 216.19 283.17" fill="#fff"/><polygon points="271.37 314.35 270.4 311.98 268.45 313.55 269.91 315.15 271.37 314.35" fill="#fff"/><path d="M215.37,200.01h-.48l.06,.23c-.32,0-.53,.46-.55,1.36h.97v-1.59Z" fill="#fff"/><polygon points="215.35 210.4 214.39 209.61 213.9 211.99 214.86 212.78 215.35 210.4" fill="#fff"/><path d="M214.84,224.56l.98,.81,.49-.8c-.53,.06-1.06-.23-1.46-.79v.79Z" fill="#fff"/><path d="M213.73,321.83c.08-.27,.13-.57,.14-.88l-.97-.79-.49,1.59,.97,.79c.14-.2,.26-.44,.34-.71Z" fill="#fff"/><path d="M273.39,308.69l1.2-3.81c-1.1,1.18-2.25,2.23-3.44,3.16,.75,.22,1.49,.43,2.24,.65Z" fill="#fff"/><path d="M219.96,313.07l-1.41-2.3-.49,3.17,.07,.08c.61-.31,1.21-.63,1.82-.94Z" fill="#fff"/><path d="M264.51,313.04c.19,.02,.38-.03,.55-.13,.18-.11,.34-.27,.48-.48,.19-.29,.35-.64,.46-1.04,.11-.39,.17-.82,.18-1.25l-2.43-.42,.05,2.23,.71,1.08Z" fill="#fff"/><path d="M211.05,164.74l-.09-.08-.08,.24c.06-.06,.12-.1,.17-.16Z" fill="#fff"/><path d="M261.5,318.51c.05,.08,.11,.13,.17,.17,.06,.03,.13,.04,.2,.03,.07,.01,.13,0,.19-.03,.06-.03,.12-.09,.17-.17s.08-.17,.1-.27c.02-.1,.03-.21,.02-.32h-.98c0,.1,0,.21,.02,.32,.02,.1,.06,.2,.11,.27Z" fill="#fff"/><polygon points="237.03 317.06 238.49 319.45 238.5 316.16 237.04 315.35 237.03 317.06" fill="#fff"/><path d="M264.65,319.74h-.68l.04,.13c-.39,.56-.63,1.34-.68,2.19l.66-1.17,.66-1.15Z" fill="#fff"/><path d="M248.06,309.49v.1s.02,0,.04,0l-.04-.1Z" fill="#fff"/><polygon points="249.95 322.18 251.41 323.78 251.41 321.4 250.43 320.61 249.95 322.18" fill="#fff"/><path d="M242.55,319.68c.08,.27,.13,.57,.14,.87l.49-.79v-1.59l-.97,.8c.14,.2,.26,.44,.34,.71Z" fill="#fff"/><path d="M251,303.17h0s.02,.02,.03,.02l-.04-.02Z" fill="#fff"/><path d="M251,303.17c-.18-.02-.36-.09-.52-.22-.17-.14-.33-.33-.46-.57l1.46,2.39c-.28-.41-.45-.98-.48-1.59Z" fill="#fff"/><path d="M252.42,317.43c1.15-.02,2.31,.25,3.41,.8-.97-2.64-1.94-3.97-2.91-3.97l-3.41,.77c.31,.78,.75,1.41,1.26,1.83,.51,.42,1.08,.62,1.65,.57Z" fill="#fff"/><polygon points="271.28 223.42 272.25 223.43 272.74 222.64 271.77 221.83 271.28 223.42" fill="#fff"/><polygon points="266.92 217.85 267.88 218.64 268.38 216.28 267.41 215.47 266.92 217.85" fill="#fff"/><path d="M255.41,286.14c-.03,.1-.06,.19-.11,.26-.05,.08-.11,.13-.18,.16-.07,.03-.14,.03-.21,.01h.5v-.43Z" fill="#fff"/><path d="M255.59,325.39c-.06,.03-.12,.09-.17,.17-.05,.08-.08,.17-.1,.27-.02,.1-.03,.21-.02,.32l.07,.02c.06,0,.12-.03,.17-.07,.05-.04,.1-.11,.14-.18,.04-.08,.07-.16,.08-.26,.02-.09,.02-.19,.01-.29-.07-.01-.13,0-.19,.03Z" fill="#fff"/><polygon points="230.29 296.4 230.77 297.19 231.75 296.4 231.26 295.61 230.29 296.4" fill="#fff"/><path d="M264.6,322.23h.48l-.48-.79h-.27c-.04,.48,.02,.79,.27,.79Z" fill="#fff"/><path d="M261.68,307.99l.5-.8,.04,.02c.01-.12,0-.23-.02-.34s-.06-.21-.11-.29c-.05-.08-.12-.14-.19-.17-.07-.03-.14-.03-.21,0-.37,.04-.72,.33-.97,.78l.97,.81Z" fill="#fff"/><path d="M260.32,290l-2.01,.55-1.3,1.26c1.1-.6,2.21-1.2,3.31-1.8Z" fill="#fff"/><path d="M260.74,293.33c.09-.41,.15-.84,.22-1.26-.93,.51-1.86,1.02-2.8,1.53l1.11,.91c-.03,.32-.01,.65,.05,.96,.06,.31,.17,.59,.31,.82s.31,.4,.5,.51,.39,.13,.59,.08v3.96l.48-3.95c-.65-.52-.8-1.64-.48-3.56Z" fill="#fff"/><path d="M255.44,285.79l-.04-.02v.37s0-.01,0-.02c.03-.11,.03-.22,.03-.33Z" fill="#fff"/><path d="M268.7,304.87c.17,0,.25,.25,.25,.79h.48l-.96-1.6c0,.52,.07,.81,.23,.81Z" fill="#fff"/><polygon points="247.8 313 246.35 313 244.4 314.56 245.36 315.35 247.8 313.79 247.8 313" fill="#fff"/><polygon points="222.07 286.85 222.08 286.06 221.11 284.48 220.61 286.05 221.11 287.65 222.07 286.85" fill="#fff"/><path d="M248.05,309.6c-1.25,.01-1.9,.72-1.94,2.27l1.46,2.37,.48-4.64Z" fill="#fff"/><path d="M273.25,195.72l.97,.79,.25-.13,.24,.14v1.59h2.44v-.79c0-.11,0-.22-.02-.32-.02-.1-.06-.2-.11-.27-.05-.08-.11-.13-.17-.17-.06-.03-.13-.04-.2-.03-.37-.05-.72-.33-.97-.79l-1.18,.65-1.25-.66Z" fill="#fff"/><polygon points="257.72 157.97 258.34 158.45 259.09 157.14 257.72 155.71 257.84 156.22 257.72 157.97" fill="#fff"/><polygon points="251.22 154.29 250.59 153.83 250.02 155.87 251.26 156.8 251.22 154.29" fill="#fff"/><polygon points="257.05 155.01 257.72 155.71 257.5 154.74 257.05 155.01" fill="#fff"/><polygon points="265.09 172.12 266.45 171.3 267.94 168.73 266.86 168.53 264.92 171.38 265.09 172.12" fill="#fff"/><polygon points="231.45 323.18 231.79 324.65 233.61 323.55 232.2 321.87 231.45 323.18" fill="#fff"/><path d="M232.56,316.59l.12-1.75-3.2,1.93c1.01-.4,2.06-.47,3.08-.18Z" fill="#fff"/><polygon points="223.53 301.93 221.66 300.53 222.17 302.75 223.41 303.7 223.53 301.93" fill="#fff"/><path d="M218.05,296.04l-.24,3.53,1.83-1.1,.11-1.77c-1.03-1.58-2.34-2.56-3.74-2.8l-2.86,3.42,.79,1.2,4.12-2.48Z" fill="#fff"/><path d="M257.63,181.74l.12-1.75-3.2,1.93c1.01-.4,2.06-.47,3.08-.18Z" fill="#fff"/><polygon points="244.07 194.95 243.44 194.49 242.87 196.53 244.12 197.46 244.07 194.95" fill="#fff"/><path d="M245.71,186.2l-.14,.29,.17,.02c.11,2.03,.4,4.02,.87,5.91l1.04-2.3,.23-3.52-2.1-.11-.07-.29Z" fill="#fff"/><path d="M243.71,186.57c-.17,.12-.32,.3-.45,.52-.13,.22-.23,.48-.29,.76l.96,1.96,1.64-3.32h-.32c-.5-.31-1.05-.28-1.54,.07Z" fill="#fff"/><polygon points="257.94 212.79 259.3 211.97 260.79 209.39 259.72 209.2 257.77 212.05 257.94 212.79" fill="#fff"/><polygon points="263.19 243.81 263.52 245.28 265.35 244.18 263.93 242.5 263.19 243.81" fill="#fff"/><path d="M264.29,237.22l.12-1.75-3.2,1.93c1.01-.4,2.06-.47,3.08-.18Z" fill="#fff"/><polygon points="257.24 254.11 257.86 254.59 258.61 253.28 257.24 251.86 257.36 252.36 257.24 254.11" fill="#fff"/><polygon points="250.74 250.43 250.11 249.97 249.54 252.01 250.78 252.94 250.74 250.43" fill="#fff"/><path d="M268.24,258.15l-.14,.29,.17,.02c.11,2.03,.4,4.02,.87,5.91l1.04-2.3,.23-3.52-2.1-.11-.07-.29Z" fill="#fff"/><path d="M250.38,242.04c-.17,.12-.32,.3-.45,.52-.13,.22-.23,.48-.29,.76l.96,1.96,1.64-3.32h-.32c-.5-.31-1.05-.28-1.54,.07Z" fill="#fff"/><polygon points="248.95 224.33 247.08 222.94 247.59 225.15 248.83 226.1 248.95 224.33" fill="#fff"/><polygon points="264.61 268.26 265.97 267.44 267.46 264.87 266.39 264.68 264.44 267.53 264.61 268.26" fill="#fff"/><polygon points="232.35 276.07 231.43 275.59 230.85 278.62 232.53 277.83 232.35 276.07" fill="#fff"/><polygon points="231 262.1 230.39 262.61 230.56 264.37 232.1 263.49 231.78 263.32 231 262.1" fill="#fff"/><path d="M246.35,307.11c.04-.29,.05-.6,.02-.9-.03-.3-.09-.58-.19-.84l-1.54,.03,.61,4.14,.2-.4c.45-.46,.78-1.19,.9-2.03Z" fill="#fff"/><polygon points="250.54 269.7 252.36 268.15 250.97 267.44 249.75 268.47 250.54 269.7" fill="#fff"/><path d="M259.11,266.6l-1.56-2.47-.59,3.02,.79,1.23c1.39-.35,2.68-1.44,3.66-3.1l.09-5.77-1.07,.28-1.32,6.81Z" fill="#fff"/><polygon points="219.62 262.9 219.18 265.15 219.52 268.65 220.27 267.38 220.08 263.13 219.62 262.9" fill="#fff"/></g><path d="M254.51,302.66v.4c0,.53,.26,.79,.77,.79h.77v-2.77c0-.46-.26-.73-.77-.79h-.38c-.45,0-.7,.26-.77,.79v.4c.77,0,1.15,.26,1.15,.79v.4h-.77Z" fill="#fff"/><path d="M266.77,208.13v-.82c-3.07,1.87-6.14,3.72-9.23,5.56,.71,.52,1.23,.79,1.56,.79v1.19l-2.18-1.61c-.43,.26-.86,.52-1.3,.78-.06,1.48-.24,3.66-.51,6.52,.32-.25,.65-.5,.97-.76-.01-.06-.04-.11-.04-.18h.27c1.59-1.28,3.15-2.6,4.7-3.92,2.03-1.74,3.91-3.65,5.76-5.58v-.79l-.38-.79c.26,0,.38-.13,.38-.4Z" fill="#fff"/><path d="M266.77,191.91v-1.58l-.38-1.98c.26,0,.38-.13,.38-.4-.26-.46-.38-.99-.38-1.58v-9.1c0-.86-1.28-1.38-3.83-1.58v-.4h3.45c0-2.83-1.02-7.45-3.06-13.84h-1.04c-.04,.06-.09,.12-.13,.18-1.02,7.36-2.54,16.79-4.57,28.3h-.38v-.4c2.08-13.28,3.45-22.21,4.12-26.82-1.52,1.97-3.07,3.92-4.62,5.86h.5v.4h-.82c-1.03,1.29-2.06,2.58-3.1,3.86-3.2,3.89-6.44,7.73-9.7,11.57h4.81l.77-.4c0,.26,.51,.4,1.53,.4,2.49,1.05,4.28,3.03,5.36,5.93v3.16h.77v-1.19h.38v.4c0,.26-.26,1.98-.77,5.14,0,.26,.26,.4,.77,.4v.4h-.38l-.77-.4c0,.59-.13,1.12-.38,1.58,.26,.46,.38,.99,.38,1.58v2.37l-.38,2.37c.26,.46,.38,1.12,.38,1.98v3.16c.09,.08,.17,.15,.25,.23,3.62-2.18,7.24-4.36,10.86-6.55v-2.78c0-1.52,.13-3.62,.38-6.33l-.77-2.37c.26-.46,.38-.99,.38-1.58Zm-18-10.68v-.79h.77c0,.53-.26,.79-.77,.79Zm8.43,10.28h-.77v-.4h.77v.4Zm6.51,1.58l-1.53-.4v-.4h1.53v.79Zm.77,2.37h-.38v-.4c.38,0,.89-.26,1.53-.79h.38c0,.4-.51,.79-1.53,1.19Z" fill="#fff"/><path d="M243.41,151.57h.38c0,.26-.13,.66-.38,1.19l.38,1.98h-.38l-4.98,29.27,1.92,.4h.19c4.65-5.46,9.3-10.92,13.8-16.5,2.39-2.96,4.72-5.97,7.03-8.99-.29-1.7-2.05-4.01-5.32-6.94-5.43,1.32-9.39,2.11-11.88,2.37v-.4c6.58-1.58,10.02-2.37,10.34-2.37v-.4c-2.55-2.11-5.62-3.16-9.19-3.16-.26,0-.64,.13-1.15,.4v-.4c-8.17,0-14.05,2.9-17.62,8.7v.4c2.62,0,5.55-.53,8.81-1.58,2.55,0,5.24-1.32,8.04-3.96Zm-.38,12.66h-.77v-.4h.77v.4Zm8.04,5.93v-.79h.77c0,.53-.26,.79-.77,.79Zm3.83-12.66v1.19h-.38c0-.26-.13-.66-.38-1.19h.77Zm-3.83,.4h1.53v.4h-1.53v-.4Zm-.77,7.12h.38c.51,.26,.89,.4,1.15,.4v.4h-.38c-.51-.26-.89-.4-1.15-.4v-.4Zm-1.53-9.49v3.56h-.38c0-1.84-.13-2.9-.38-3.16l.77-.4Zm-.77,6.33l.77-.4v3.96l-.77-.4,.38-2.37-.38-.79Zm-3.06,11.47h.38c0,.26,.13,.66,.38,1.19-.26,0-.38,.13-.38,.4l-.77-.4c.26-.53,.38-.92,.38-1.19Z" fill="#fff"/><path d="M256.81,223.95c-.67,0-1.63,.99-2.87,2.94,.18,1.34,.31,2.68,.41,4.02l3.22,.95v.4h-.38l-2.79-.77c.17,2.37,.27,4.76,.45,7.13,.03,.34-.1,.59-.29,.74,.8,3.43,1.55,5.16,2.25,5.16v.4c-.77,0-1.15,.26-1.15,.79v5.54l2.68,1.98-1.92-.4c-.45,0-.7,.26-.77,.79v10.68l-.38,2.77c.26,0,.38,.13,.38,.4-.26,0-.38,.13-.38,.4v3.16c0,1.93-.53,3.75-1.56,5.47,4.3-1.79,8.53-3.71,12.67-5.83v-7.55c0-1.32,.13-3.3,.38-5.93h-.77l-.38,2.37h-2.3v-1.98h.38c2.3-1.71,3.45-3.82,3.45-6.33v-1.58l-.38-.79c.26,0,.38-.13,.38-.4v-6.33l-.38-1.98c.25-1.46,.51-2.5,.8-3.15,0-.02-.01-.03-.02-.04-.1-.57-.17-1.14-.22-1.71-.64-.26-1.59-.48-2.86-.64v-.79c1.11,.4,2.04,.7,2.82,.9-.16-2.43,.03-4.86,.04-7.3-.67-.47-1.49-.72-2.47-.72v-.4c.7,0,1.47-.26,2.3-.79l-.38-.79v-7.52l-.38-1.98c.26,0,.38-.4,.38-1.19v-1.07c-2.43,2.44-4.99,4.77-7.66,6.96v.04s-.05,.01-.06,.01c-1.22,1.01-2.46,1.98-3.73,2.93l1.5,.62,.77-.4v.79h-.77Zm8.04,22.94h.77v.4h-.77v-.4Zm-1.15-.4h.77v.4h-.77v-.4Zm-4.98,13.05h.77c-.26,.53-.38,.92-.38,1.19h-.77c.26-.53,.38-.92,.38-1.19Zm1.15,13.45h-1.15c0-.46,.26-.73,.77-.79h.38v.79Zm.38-4.75l-.38,3.56h-.38v-1.58c0-.2,.13-.99,.38-2.37h.38v.4Zm1.53-20.96h-.38v-1.19h.38v1.19Zm0-8.31h-.77v-.4h.77v.4Zm-.38-18.59c0,.26,.13,.66,.38,1.19-.77-.4-1.15-.79-1.15-1.19h.77Zm-1.92,19.38h.77v.79c-.51,0-1.4,.4-2.68,1.19,1.28-.99,1.92-1.65,1.92-1.98Z" fill="#fff"/><path d="M244.23,282.38c-.66,.25-1.32,.5-1.98,.74-.25,.9-.38,2.39-.38,4.51,0,.79,.26,1.19,.77,1.19l1.15-.79v.79h.38l.77-.4c0,.26,.13,.4,.38,.4v-.4l-.38-.79c1.28,0,1.92-.79,1.92-2.37-.81-1.49-1.68-2.44-2.62-2.88Z" fill="#fff"/><path d="M230.8,285.21l.07-.03c-.61-.74-1.24-1.48-1.84-2.23-2.91-3.62-5.77-7.28-8.64-10.93l.03,.17c-.26,0-.38,.13-.38,.4,0,6.19,.33,11.63,.97,16.35,3.25-1.28,6.51-2.52,9.78-3.73Zm-8.84-7.47h.38v1.98h-.77c.26-.46,.38-1.12,.38-1.98Z" fill="#fff"/><path d="M219.26,238.43c.09-.1,.08-.09-.04,.03l-.03,.02c.54,1.64,.95,2.48,1.23,2.48l-.38,.79v.79c0,.59,.13,1.12,.38,1.58l-.38,.79c0,.59,.13,1.12,.38,1.58-.26,2.9-.38,5.41-.38,7.52v5.14c0,.73,.26,1.52,.77,2.37-.45,0-.7,.26-.77,.79v.79c0,1.05,.13,2.11,.38,3.16-.18,.69-.27,1.43-.33,2.19,4.21,5.33,8.34,10.77,12.69,16.03,1.91-.7,3.83-1.41,5.75-2.11l-.49-.67v-.79l1.15,.79h.38v-.4c0-.46-.77-.86-2.3-1.19v.4c-.51,0-1.28-.4-2.3-1.19-2.55,0-3.83-4.88-3.83-14.63v-.4c0-.46-.26-.73-.77-.79v.79h-.38v-.4l1.15-1.98v-.79l-.38-.79c.32,0,.57-1.71,.77-5.14-.26-.53-.38-.92-.38-1.19,.26,0,.38-.13,.38-.4l-.38-.79,.38-2.37v-5.93l-.38-.79c.51,0,.77-.26,.77-.79v-1.98l-.38-.79c.51,0,.77-.79,.77-2.37,.23-.29,.44-.56,.65-.83h0c-.29-.16-.51-.44-.47-.83,.04-.51,.12-1.02,.2-1.53-.04,.22-.1,.44-.14,.65-.16,.88-1.26,.89-1.74,.33-.15,.09-.29,.17-.44,.27-1.08,.71-2.08-1.03-1.01-1.73,.09-.06,.18-.11,.27-.16v-.13c0-.23,.2-1.95,.61-5.12-.74,.44-1.49,.86-2.23,1.3-2.5,1.49-4.97,3.03-7.41,4.62-.12,.15-.29,.25-.48,.31-.5,.33-1,.66-1.5,.99,.06,.19,.13,.38,.19,.57,1.21-.13,1.7,1.71,.46,1.93Zm16.87,43.26h.38c0,.53-.26,.79-.77,.79h-.38c0-.46,.26-.73,.77-.79Zm-1.15-1.58h.38v.79h-.38v-.79Zm-2.3,0c.45,.26,.96,.4,1.53,.4v.79h-.77c-.45,0-.7-.26-.77-.79v-.4Zm-6.9-6.72h-.38v-.4c.7-1.32,1.21-1.98,1.53-1.98-.26,1.58-.64,2.37-1.15,2.37Zm3.45-7.52h-.38v-1.19h.38v1.19Zm.77-5.14v.4h-.38l-4.6-1.19v-.79c3.06,1.05,4.72,1.58,4.98,1.58Zm-1.92-17.8c.51,0,.77,.26,.77,.79h-.77c-.45,0-.7-.26-.77-.79h.77Zm-3.83-10.28h1.15v.4h-1.15v-.4Zm0,31.25l.38-2.77h.38v.79l-.38,2.77h-.38v-.79Z" fill="#fff"/><path d="M245.39,298.01c.85,.78,1.73,1.52,2.61,2.27v-.39h1.15v.4c0,.35-.12,.57-.35,.69,.47,.39,.94,.77,1.42,1.15,.12-.16,.27-.26,.47-.26v-1.98l.38-.79h-.77c0-.26,.13-.4,.38-.4l-.38-.79v-3.16h.38c0,.4,.26,.92,.77,1.58,.26,0,.38-.13,.38-.4,.51,.26,.89,.4,1.15,.4v.4h-1.15v1.19c.26,0,.38-.13,.38-.4l1.92,.4h.38v-1.98h-1.15l.38-.79c-.38-.79-.77-1.19-1.15-1.19l.77-1.19v-.4h-.77v.79h-.77v-1.19l-.77,.4h-1.92v.79h.77l-.38,.79v.79l.38,.79h-.38l-.77-.4,.38-.79h-.38l-.77,.4c0-.79-.51-1.19-1.53-1.19v-.4h.77v-1.19h-1.15l-.77,.4c0-.59-.13-1.12-.38-1.58,.26,0,.38-.13,.38-.4h-.77v1.58l.38,.79h-.77c0,.26,.13,.4,.38,.4v.79h-.38v-.79h-.77c0,.26-.13,.66-.38,1.19-.32,0-.83-.66-1.53-1.98-.21,0-.44,.39-.67,1.16,1.48,1.53,2.99,3.03,4.57,4.47Zm4.14,2.68h.77v.4h-.77v-.4Zm-5.36-4.35h.77v.4h-.77v-.4Z" fill="#fff"/><path d="M220.04,185.19v23.77c2.88-3.43,5.73-6.88,8.57-10.32h-.14v-.4c.45-.27,.84-.57,1.2-.88,.48-.58,.96-1.16,1.43-1.74,.54-.97,.81-2.07,.81-3.31-.26,0-.38-.13-.38-.4,.38,0,.77-1.45,1.15-4.35l-1.53-.4v-.4h1.92c1.92-1.32,3.32-1.98,4.21-1.98,.51-1.52,2.3-11.4,5.36-29.66-.26,0-.38-.13-.38-.4l-9.35,2.25-.32,4.82-1.54,3.43c-.6-2.41-.99-4.94-1.19-7.52l-1.13,.27-1.65,3.36-1.29-2.63c-3.82,6.85-5.74,15.15-5.74,24.9,0,.26,.13,.66,.38,1.19-.26,0-.38,.13-.38,.4Zm17.62-22.15h.77v.4h-.77v-.4Zm-2.68,6.72v1.58c0,.79-.26,1.19-.77,1.19l.38-2.77h.38Zm-1.53-7.12c0-.2,.13-.99,.38-2.37h.38v.79l-.38,1.98h-.38v-.4Zm-2.68,9.89h.77c-2.04,6-3.06,9.16-3.06,9.49,0,1.85,.26,3.3,.77,4.35-.51,.86-.77,1.65-.77,2.37v1.19c-3.06,.73-4.6,1.78-4.6,3.16h-.38v-1.19c2.55-5.47,4.98-11.93,7.28-19.38Zm-6.9-.79v-1.58h.38v1.58h-.38Zm2.46-3.43l.94,.68,.06,3.74-1.85-1.39,.84-3.04Zm-3.61-.13c1.02,.4,1.53,.79,1.53,1.19v.4h-.38c-.77-.4-1.15-.79-1.15-1.19v-.4Z" fill="#fff"/><path d="M223.87,221.97c1.66,.53,2.81,.79,3.45,.79h.38c2.3-1.19,3.45-1.98,3.45-2.37v-.79l-.38-.79-.77,.4h-.38v-.4c1.02-1.19,1.53-2.9,1.53-5.14,0-.79-.13-1.71-.38-2.77,.26-2.31,.38-4.28,.38-5.93v-3.16l.38-1.98c-.17,0-.28-.4-.34-1.18-.24,.29-.49,.58-.73,.87-3.46,4.19-6.92,8.38-10.43,12.52v2.42c0,3.96-.26,7.12-.77,9.49,.26,0,.38,.13,.38,.4-.1,.35-.23,.71-.37,1.06,.22,2.33,.78,4.62,1.19,6.93,2.74-1.76,5.51-3.46,8.32-5.11,1.04-.62,2.1-1.22,3.15-1.82,0-.09-.02-.18-.02-.27-5.36-1.71-8.04-2.77-8.04-3.16Zm-2.3-5.14h-.38v-2.77l.77,.4-.38,2.37Zm1.92,5.54c-.45,0-.7-.26-.77-.79h.77v.79Zm0-7.12h.38c.77,.4,1.15,.79,1.15,1.19h-.38c-.77-.4-1.15-.79-1.15-1.19Z" fill="#fff"/><g><polygon points="315.38 155.39 311.66 153.59 310.9 158.58 312.25 159.14 315.38 155.39" fill="#fff"/><path d="M280.23,208.79l.5-3.95c0,.52-.5,1.57-1.47,3.16l.97,.79Z" fill="#fff"/><path d="M280.28,184.24v-.79h-.48l.06,.15c.01,.17,.06,.33,.14,.45,.08,.12,.18,.18,.29,.19Z" fill="#fff"/><polygon points="280.2 225.48 280.5 224.04 279.72 224.67 280.2 225.48" fill="#fff"/><path d="M286.2,291.79c-.06,.03-.12,.09-.17,.17-.05,.08-.08,.17-.11,.27-.02,.1-.03,.21-.02,.32,0,.11,0,.22,.02,.32,.02,.1,.06,.2,.11,.27,.05,.08,.11,.13,.17,.17,.06,.03,.13,.04,.2,.03l.06,.13c-.02-.11-.03-.22-.02-.34,.01-.11,.04-.22,.08-.31,.04-.09,.1-.16,.16-.21s.13-.07,.2-.06l-.48-.79c-.07-.02-.13,0-.2,.03Z" fill="#fff"/><path d="M288.46,230.59c-.97,1.32-1.77,2.51-2.44,3.56l5.36-3.14v-1.52l-.49-.81c-.92,.2-1.77,.87-2.43,1.91Z" fill="#fff"/><polygon points="280.5 224.04 281.67 223.1 280.7 223.1 280.5 224.04" fill="#fff"/><path d="M276.88,184.97c-.3,.46-.54,1-.73,1.59-.19,.59-.44,1.12-.73,1.57l.98,.79,1.46-2.35-.96-1.6Z" fill="#fff"/><polygon points="326.45 315.52 326.48 316.63 326.81 316.06 326.45 315.52" fill="#fff"/><path d="M278.15,284.8c0,.11,0,.21,.02,.31,.02,.1,.06,.19,.1,.27,.05,.08,.1,.13,.16,.17s.13,.05,.19,.04l.06,.13c.07,0,.14-.01,.2-.06,.06-.05,.12-.12,.16-.21,.04-.09,.07-.2,.08-.31,.01-.11,0-.23-.02-.34h-.97Z" fill="#fff"/><polygon points="277.19 276.09 279.14 275.32 279.62 273.72 278.66 271.34 277.19 273.71 277.19 276.09" fill="#fff"/><polygon points="284.88 322.62 285.36 321.83 283.42 320.25 284.88 322.62" fill="#fff"/><path d="M277.64,192.19c-.06,.04-.12,.09-.17,.17-.05,.08-.08,.17-.1,.27s-.03,.21-.02,.32h.98l-.49-.79c-.07-.01-.13,0-.19,.03Z" fill="#fff"/><path d="M319.26,321.43l3.14,.02c-.01-.13-.01-.26,0-.38l.04,.02c.09-.33,.11-.7,.07-1.06-.04-.36-.15-.68-.31-.94l-2.44-1.61-.49,3.95Z" fill="#fff"/><polygon points="274.26 283.17 274.75 283.17 274.26 282.36 274.26 283.17" fill="#fff"/><polygon points="329.44 314.35 328.48 311.98 326.53 313.55 327.99 315.15 329.44 314.35" fill="#fff"/><path d="M273.44,200.01h-.48l.06,.23c-.32,0-.53,.46-.55,1.36h.97v-1.59Z" fill="#fff"/><polygon points="273.42 210.4 272.46 209.61 271.97 211.99 272.93 212.78 273.42 210.4" fill="#fff"/><path d="M272.91,224.56l.98,.81,.49-.8c-.53,.06-1.06-.23-1.46-.79v.79Z" fill="#fff"/><path d="M271.8,321.83c.08-.27,.13-.57,.14-.88l-.97-.79-.49,1.59,.97,.79c.14-.2,.26-.44,.34-.71Z" fill="#fff"/><path d="M331.46,308.69l1.2-3.81c-1.1,1.18-2.25,2.23-3.44,3.16,.75,.22,1.49,.43,2.24,.65Z" fill="#fff"/><path d="M278.03,313.07l-1.41-2.3-.49,3.17,.07,.08c.61-.31,1.21-.63,1.82-.94Z" fill="#fff"/><path d="M322.58,313.04c.19,.02,.38-.03,.55-.13,.18-.11,.34-.27,.48-.48,.19-.29,.35-.64,.46-1.04,.11-.39,.17-.82,.18-1.25l-2.43-.42,.05,2.23,.71,1.08Z" fill="#fff"/><path d="M269.12,164.74l-.09-.08-.08,.24c.06-.06,.12-.1,.17-.16Z" fill="#fff"/><path d="M319.57,318.51c.05,.08,.11,.13,.17,.17,.06,.03,.13,.04,.2,.03,.07,.01,.13,0,.19-.03,.06-.03,.12-.09,.17-.17s.08-.17,.1-.27c.02-.1,.03-.21,.02-.32h-.98c0,.1,0,.21,.02,.32,.02,.1,.06,.2,.11,.27Z" fill="#fff"/><polygon points="295.1 317.06 296.56 319.45 296.57 316.16 295.11 315.35 295.1 317.06" fill="#fff"/><path d="M322.72,319.74h-.68l.04,.13c-.39,.56-.63,1.34-.68,2.19l.66-1.17,.66-1.15Z" fill="#fff"/><path d="M306.13,309.49v.1s.02,0,.04,0l-.04-.1Z" fill="#fff"/><polygon points="308.02 322.18 309.48 323.78 309.48 321.4 308.51 320.61 308.02 322.18" fill="#fff"/><path d="M300.62,319.68c.08,.27,.13,.57,.14,.87l.49-.79v-1.59l-.97,.8c.14,.2,.26,.44,.34,.71Z" fill="#fff"/><path d="M309.07,303.17h0s.02,.02,.03,.02l-.04-.02Z" fill="#fff"/><path d="M309.07,303.17c-.18-.02-.36-.09-.52-.22-.17-.14-.33-.33-.46-.57l1.46,2.39c-.28-.41-.45-.98-.48-1.59Z" fill="#fff"/><path d="M310.49,317.43c1.15-.02,2.31,.25,3.41,.8-.97-2.64-1.94-3.97-2.91-3.97l-3.41,.77c.31,.78,.75,1.41,1.26,1.83,.51,.42,1.08,.62,1.65,.57Z" fill="#fff"/><polygon points="329.35 223.42 330.32 223.43 330.81 222.64 329.84 221.83 329.35 223.42" fill="#fff"/><polygon points="324.99 217.85 325.95 218.64 326.45 216.28 325.48 215.47 324.99 217.85" fill="#fff"/><path d="M313.48,286.14c-.03,.1-.06,.19-.11,.26-.05,.08-.11,.13-.18,.16-.07,.03-.14,.03-.21,.01h.5v-.43Z" fill="#fff"/><path d="M313.66,325.39c-.06,.03-.12,.09-.17,.17-.05,.08-.08,.17-.1,.27-.02,.1-.03,.21-.02,.32l.07,.02c.06,0,.12-.03,.17-.07,.05-.04,.1-.11,.14-.18,.04-.08,.07-.16,.08-.26,.02-.09,.02-.19,.01-.29-.07-.01-.13,0-.19,.03Z" fill="#fff"/><polygon points="288.36 296.4 288.84 297.19 289.82 296.4 289.33 295.61 288.36 296.4" fill="#fff"/><path d="M322.67,322.23h.48l-.48-.79h-.27c-.04,.48,.02,.79,.27,.79Z" fill="#fff"/><path d="M319.75,307.99l.5-.8,.04,.02c.01-.12,0-.23-.02-.34s-.06-.21-.11-.29c-.05-.08-.12-.14-.19-.17-.07-.03-.14-.03-.21,0-.37,.04-.72,.33-.97,.78l.97,.81Z" fill="#fff"/><path d="M318.39,290l-2.01,.55-1.3,1.26c1.1-.6,2.21-1.2,3.31-1.8Z" fill="#fff"/><path d="M318.81,293.33c.09-.41,.15-.84,.22-1.26-.93,.51-1.86,1.02-2.8,1.53l1.11,.91c-.03,.32-.01,.65,.05,.96,.06,.31,.17,.59,.31,.82s.31,.4,.5,.51,.39,.13,.59,.08v3.96l.48-3.95c-.65-.52-.8-1.64-.48-3.56Z" fill="#fff"/><path d="M313.52,285.79l-.04-.02v.37s0-.01,0-.02c.03-.11,.03-.22,.03-.33Z" fill="#fff"/><path d="M326.77,304.87c.17,0,.25,.25,.25,.79h.48l-.96-1.6c0,.52,.07,.81,.23,.81Z" fill="#fff"/><polygon points="305.87 313 304.42 313 302.47 314.56 303.44 315.35 305.87 313.79 305.87 313" fill="#fff"/><polygon points="280.14 286.85 280.15 286.06 279.18 284.48 278.68 286.05 279.18 287.65 280.14 286.85" fill="#fff"/><path d="M306.12,309.6c-1.25,.01-1.9,.72-1.94,2.27l1.46,2.37,.48-4.64Z" fill="#fff"/><path d="M331.32,195.72l.97,.79,.25-.13,.24,.14v1.59h2.44v-.79c0-.11,0-.22-.02-.32-.02-.1-.06-.2-.11-.27-.05-.08-.11-.13-.17-.17-.06-.03-.13-.04-.2-.03-.37-.05-.72-.33-.97-.79l-1.18,.65-1.25-.66Z" fill="#fff"/><polygon points="315.79 157.97 316.41 158.45 317.16 157.14 315.79 155.71 315.91 156.22 315.79 157.97" fill="#fff"/><polygon points="309.29 154.29 308.66 153.83 308.09 155.87 309.33 156.8 309.29 154.29" fill="#fff"/><polygon points="315.12 155.01 315.79 155.71 315.57 154.74 315.12 155.01" fill="#fff"/><polygon points="323.16 172.12 324.52 171.3 326.01 168.73 324.93 168.53 322.99 171.38 323.16 172.12" fill="#fff"/><polygon points="289.52 323.18 289.86 324.65 291.68 323.55 290.27 321.87 289.52 323.18" fill="#fff"/><path d="M290.63,316.59l.12-1.75-3.2,1.93c1.01-.4,2.06-.47,3.08-.18Z" fill="#fff"/><polygon points="281.6 301.93 279.73 300.53 280.24 302.75 281.48 303.7 281.6 301.93" fill="#fff"/><path d="M276.12,296.04l-.24,3.53,1.83-1.1,.11-1.77c-1.03-1.58-2.34-2.56-3.74-2.8l-2.86,3.42,.79,1.2,4.12-2.48Z" fill="#fff"/><path d="M315.7,181.74l.12-1.75-3.2,1.93c1.01-.4,2.06-.47,3.08-.18Z" fill="#fff"/><polygon points="302.14 194.95 301.51 194.49 300.94 196.53 302.19 197.46 302.14 194.95" fill="#fff"/><path d="M303.78,186.2l-.14,.29,.17,.02c.11,2.03,.4,4.02,.87,5.91l1.04-2.3,.23-3.52-2.1-.11-.07-.29Z" fill="#fff"/><path d="M301.78,186.57c-.17,.12-.32,.3-.45,.52-.13,.22-.23,.48-.29,.76l.96,1.96,1.64-3.32h-.32c-.5-.31-1.05-.28-1.54,.07Z" fill="#fff"/><polygon points="316.01 212.79 317.37 211.97 318.86 209.39 317.79 209.2 315.84 212.05 316.01 212.79" fill="#fff"/><polygon points="321.26 243.81 321.59 245.28 323.42 244.18 322 242.5 321.26 243.81" fill="#fff"/><path d="M322.36,237.22l.12-1.75-3.2,1.93c1.01-.4,2.06-.47,3.08-.18Z" fill="#fff"/><polygon points="315.31 254.11 315.94 254.59 316.68 253.28 315.31 251.86 315.43 252.36 315.31 254.11" fill="#fff"/><polygon points="308.81 250.43 308.18 249.97 307.61 252.01 308.86 252.94 308.81 250.43" fill="#fff"/><path d="M326.31,258.15l-.14,.29,.17,.02c.11,2.03,.4,4.02,.87,5.91l1.04-2.3,.23-3.52-2.1-.11-.07-.29Z" fill="#fff"/><path d="M308.45,242.04c-.17,.12-.32,.3-.45,.52-.13,.22-.23,.48-.29,.76l.96,1.96,1.64-3.32h-.32c-.5-.31-1.05-.28-1.54,.07Z" fill="#fff"/><polygon points="307.02 224.33 305.15 222.94 305.66 225.15 306.9 226.1 307.02 224.33" fill="#fff"/><polygon points="322.68 268.26 324.04 267.44 325.53 264.87 324.46 264.68 322.51 267.53 322.68 268.26" fill="#fff"/><polygon points="290.42 276.07 289.5 275.59 288.92 278.62 290.6 277.83 290.42 276.07" fill="#fff"/><polygon points="289.07 262.1 288.46 262.61 288.63 264.37 290.17 263.49 289.85 263.32 289.07 262.1" fill="#fff"/><path d="M304.42,307.11c.04-.29,.05-.6,.02-.9-.03-.3-.09-.58-.19-.84l-1.54,.03,.61,4.14,.2-.4c.45-.46,.78-1.19,.9-2.03Z" fill="#fff"/><polygon points="308.61 269.7 310.43 268.15 309.04 267.44 307.82 268.47 308.61 269.7" fill="#fff"/><path d="M317.18,266.6l-1.56-2.47-.59,3.02,.79,1.23c1.39-.35,2.68-1.44,3.66-3.1l.09-5.77-1.07,.28-1.32,6.81Z" fill="#fff"/><polygon points="277.69 262.9 277.25 265.15 277.59 268.65 278.34 267.38 278.15 263.13 277.69 262.9" fill="#fff"/></g><path d="M312.59,302.66v.4c0,.53,.26,.79,.77,.79h.77v-2.77c0-.46-.26-.73-.77-.79h-.38c-.45,0-.7,.26-.77,.79v.4c.77,0,1.15,.26,1.15,.79v.4h-.77Z" fill="#fff"/><path d="M324.84,191.91v-1.58l-.38-1.98c.26,0,.38-.13,.38-.4-.26-.46-.38-.99-.38-1.58v-9.1c0-.86-1.28-1.38-3.83-1.58v-.4h3.45c0-2.83-1.02-7.45-3.06-13.84h-1.04c-.04,.06-.09,.12-.13,.18-1.02,7.36-2.54,16.79-4.57,28.3h-.38v-.4c2.08-13.28,3.45-22.21,4.12-26.82-1.52,1.97-3.07,3.92-4.62,5.86h.5v.4h-.82c-1.03,1.29-2.06,2.58-3.1,3.86-3.2,3.89-6.44,7.73-9.7,11.57h4.81l.77-.4c0,.26,.51,.4,1.53,.4,2.49,1.05,4.28,3.03,5.36,5.93v3.16h.77v-1.19h.38v.4c0,.26-.26,1.98-.77,5.14,0,.26,.26,.4,.77,.4v.4h-.38l-.77-.4c0,.59-.13,1.12-.38,1.58,.26,.46,.38,.99,.38,1.58v2.37l-.38,2.37c.26,.46,.38,1.12,.38,1.98v3.16c.09,.08,.17,.15,.25,.23,3.62-2.18,7.24-4.36,10.86-6.55v-2.78c0-1.52,.13-3.62,.38-6.33l-.77-2.37c.26-.46,.38-.99,.38-1.58Zm-18-10.68v-.79h.77c0,.53-.26,.79-.77,.79Zm8.43,10.28h-.77v-.4h.77v.4Zm6.51,1.58l-1.53-.4v-.4h1.53v.79Zm.77,2.37h-.38v-.4c.38,0,.89-.26,1.53-.79h.38c0,.4-.51,.79-1.53,1.19Z" fill="#fff"/><path d="M301.48,151.57h.38c0,.26-.13,.66-.38,1.19l.38,1.98h-.38l-4.98,29.27,1.92,.4h.19c4.65-5.46,9.3-10.92,13.8-16.5,2.39-2.96,4.72-5.97,7.03-8.99-.29-1.7-2.05-4.01-5.32-6.94-5.43,1.32-9.39,2.11-11.88,2.37v-.4c6.58-1.58,10.02-2.37,10.34-2.37v-.4c-2.55-2.11-5.62-3.16-9.19-3.16-.26,0-.64,.13-1.15,.4v-.4c-8.17,0-14.05,2.9-17.62,8.7v.4c2.62,0,5.55-.53,8.81-1.58,2.55,0,5.24-1.32,8.04-3.96Zm-.38,12.66h-.77v-.4h.77v.4Zm8.04,5.93v-.79h.77c0,.53-.26,.79-.77,.79Zm3.83-12.66v1.19h-.38c0-.26-.13-.66-.38-1.19h.77Zm-3.83,.4h1.53v.4h-1.53v-.4Zm-.77,7.12h.38c.51,.26,.89,.4,1.15,.4v.4h-.38c-.51-.26-.89-.4-1.15-.4v-.4Zm-1.53-9.49v3.56h-.38c0-1.84-.13-2.9-.38-3.16l.77-.4Zm-.77,6.33l.77-.4v3.96l-.77-.4,.38-2.37-.38-.79Zm-3.06,11.47h.38c0,.26,.13,.66,.38,1.19-.26,0-.38,.13-.38,.4l-.77-.4c.26-.53,.38-.92,.38-1.19Z" fill="#fff"/><path d="M314.88,223.95c-.67,0-1.63,.99-2.87,2.94,.18,1.34,.31,2.68,.41,4.02l3.22,.95v.4h-.38l-2.79-.77c.17,2.37,.27,4.76,.45,7.13,.03,.34-.1,.59-.29,.74,.8,3.43,1.55,5.16,2.25,5.16v.4c-.77,0-1.15,.26-1.15,.79v5.54l2.68,1.98-1.92-.4c-.45,0-.7,.26-.77,.79v10.68l-.38,2.77c.26,0,.38,.13,.38,.4-.26,0-.38,.13-.38,.4v3.16c0,1.93-.53,3.75-1.56,5.47,4.3-1.79,8.53-3.71,12.67-5.83v-7.55c0-1.32,.13-3.3,.38-5.93h-.77l-.38,2.37h-2.3v-1.98h.38c2.3-1.71,3.45-3.82,3.45-6.33v-1.58l-.38-.79c.26,0,.38-.13,.38-.4v-6.33l-.38-1.98c.25-1.46,.51-2.5,.8-3.15,0-.02-.01-.03-.02-.04-.1-.57-.17-1.14-.22-1.71-.64-.26-1.59-.48-2.86-.64v-.79c1.11,.4,2.04,.7,2.82,.9-.16-2.43,.03-4.86,.04-7.3-.67-.47-1.49-.72-2.47-.72v-.4c.7,0,1.47-.26,2.3-.79l-.38-.79v-7.52l-.38-1.98c.26,0,.38-.4,.38-1.19v-1.07c-2.43,2.44-4.99,4.77-7.66,6.96v.04s-.05,.01-.06,.01c-1.22,1.01-2.46,1.98-3.73,2.93l1.5,.62,.77-.4v.79h-.77Zm8.04,22.94h.77v.4h-.77v-.4Zm-1.15-.4h.77v.4h-.77v-.4Zm-4.98,13.05h.77c-.26,.53-.38,.92-.38,1.19h-.77c.26-.53,.38-.92,.38-1.19Zm1.15,13.45h-1.15c0-.46,.26-.73,.77-.79h.38v.79Zm.38-4.75l-.38,3.56h-.38v-1.58c0-.2,.13-.99,.38-2.37h.38v.4Zm1.53-20.96h-.38v-1.19h.38v1.19Zm0-8.31h-.77v-.4h.77v.4Zm-.38-18.59c0,.26,.13,.66,.38,1.19-.77-.4-1.15-.79-1.15-1.19h.77Zm-1.92,19.38h.77v.79c-.51,0-1.4,.4-2.68,1.19,1.28-.99,1.92-1.65,1.92-1.98Z" fill="#fff"/><path d="M324.46,272.91c-.57,.29-1.13,.58-1.71,.86-5.63,2.75-11.41,5.14-17.24,7.39-.13,.29-.21,.6-.21,.94l2.3,3.16h.38v-.79h.38c.51,0,.77,.26,.77,.79v.4l-.77-.4h-.38c0,1.78,1.15,3.5,3.45,5.14h.38c0-1.58,.38-2.37,1.15-2.37,0,.79-.26,1.72-.77,2.77l.77,1.19c.26,0,.64-.13,1.15-.4,.45,.26,.96,.4,1.53,.4h.38l.77-.4v.79h-.77v1.58h.77v-.79h1.15c0,.4,.26,.92,.77,1.58v.4l-1.92-.4c0,.26-.13,.66-.38,1.19l1.53,.79v-1.19c1.28,1.05,2.04,1.58,2.3,1.58,.51,0,.77-.26,.77-.79,.51,0,.77,.4,.77,1.19,.38,0,.77-.53,1.15-1.58h-1.15l-1.53-1.19v-.4l1.92,.79c.77-.4,1.15-.79,1.15-1.19v-.4c0-.53-.51-.79-1.53-.79v-.4h.38c1.15,0,1.92-3.56,2.3-10.68-.26-.53-.38-.92-.38-1.19,0-.33,.13-1.65,.38-3.96,0-.46-.26-.73-.77-.79l.77-1.19v-1.67Zm-16.09,10.37c0,.53-.26,.79-.77,.79-.45,0-.7-.26-.77-.79,.38,0,.89-.26,1.53-.79v.79Zm3.83-3.16v.79c-.45,0-.7-.26-.77-.79h.77Zm-.77,1.58h.38v.79h-.38v-.79Zm.77,5.93c-.89-1.05-1.53-1.58-1.92-1.58v-1.58h.38c0,.66,.51,1.58,1.53,2.77v.4Zm0-1.58v-1.19h.38c0,.26,.13,.66,.38,1.19h-.77Zm1.92,3.16c-.45,0-.7-.26-.77-.79h.77v.79Zm6.13,6.72h-.38l-.77-.4v-.79h.38c0,.53,.26,.79,.77,.79v.4Zm.38-3.96h-1.15v-.79c.51,.26,.89,.4,1.15,.4v.4Zm.77-9.1c-2.81,0-4.34,1.19-4.6,3.56h-.77v-.79l.38-2.37c0-.33,1.4-.59,4.21-.79h.77v.4Zm0-4.35h-.38v-.79h.38v.79Z" fill="#fff"/><path d="M318.33,298.31l-.77,.4c-.77,0-1.15-.26-1.15-.79v-.79l.38-.79c-.96,0-1.72-.53-2.3-1.58v-1.58h.77v-.79h-.38c-1.85,0-2.87,.4-3.06,1.19v.4c3.32,3.36,4.98,5.47,4.98,6.33h-.38l.38,1.98v1.19c1.34,1.05,2.36,1.58,3.06,1.58h.38v-1.19c-.83,0-1.47-.13-1.92-.4v-.4c2.3-.4,3.45-.92,3.45-1.58v-1.58c0-.46-1.15-.99-3.45-1.58Z" fill="#fff"/><path d="M302.3,282.38c-.66,.25-1.32,.5-1.98,.74-.25,.9-.38,2.39-.38,4.51,0,.79,.26,1.19,.77,1.19l1.15-.79v.79h.38l.77-.4c0,.26,.13,.4,.38,.4v-.4l-.38-.79c1.28,0,1.92-.79,1.92-2.37-.81-1.49-1.68-2.44-2.62-2.88Z" fill="#fff"/><path d="M298.51,283.8c-.06,.41-.1,.89-.1,1.46v1.19h.77c.17-1.33,.34-2.35,.51-3.08-.39,.15-.79,.29-1.18,.44Z" fill="#fff"/><path d="M315.9,310.24c-.41-.28-.82-.57-1.23-.86h-.56l.14-.29c-.43-.3-.86-.59-1.28-.9h0c-1.08-.78-2.14-1.57-3.2-2.37h-.63c-.34,0-.67-.43-1.01-1.25-.18-.14-.35-.28-.52-.42v1.27h-.77c.26-.46,.38-.99,.38-1.58h.01c-2.32-1.87-4.58-3.82-6.74-5.87-.73-.69-1.42-1.42-2.13-2.13-.23,1.27-.47,2.87-.72,4.83h-.38v-.4c.14-2.52,.32-4.19,.54-5.01-.5-.51-.99-1.02-1.48-1.54-.24-.11-.45-.18-.59-.18v-.4s.04,0,.06,0c-1.07-1.17-2.13-2.35-3.17-3.55-.51,.03-1.26,.68-2.26,1.97h-.38c0-.79-.26-1.19-.77-1.19v-.79c.77,0,1.15-.26,1.15-.79l-.38-.79h.77v.79h.77v-.4l-.13-.26c-.37-.44-.73-.89-1.1-1.34-2.23,.82-4.47,1.65-6.69,2.5,.37,.98,.84,2.39,1.41,4.24,0,1.32,1.28,2.37,3.83,3.16l1.92-.4,1.15,1.58v.4c-1.02,0-2.04,.13-3.06,.4-1.72-.26-3.13-.4-4.21-.4-1.34,0-2.49,.26-3.45,.79,1.79,4.61,2.94,6.99,3.45,7.12h5.75v.79h-.77l-4.6,.4c1.09,2.04,2.23,3.5,3.45,4.35h2.68l1.92,.4c0,.53-.26,.79-.77,.79h-.77l-1.92-.4v.79c1.98,1.85,3.51,2.77,4.6,2.77h.38c.51-3.3,.77-5.27,.77-5.93,0-.53-.51-.79-1.53-.79v-.4c1.53,0,2.3-.66,2.3-1.98-.26,0-.38-.13-.38-.4-.57,0-1.09,.13-1.53,.4-.51-.26-.89-.4-1.15-.4v-.4h1.15c1.53,0,2.3-1.05,2.3-3.16v-1.19h.77c0,.79,.38,1.19,1.15,1.19,0,.26-.13,.4-.38,.4-.83,0-1.72,4.22-2.68,12.66,0,.79,1.15,1.45,3.45,1.98h3.06c2.21,0,3.95-.52,5.25-1.54l-.79-.65c1.39-.76,2.78-1.51,4.16-2.27,0,.04-.01,.08-.02,.11h.59c0,.51-.24,.77-.72,.78-.05,.32-.1,.65-.17,.97-.03,.18-.05,.35-.08,.52,1.59-.71,3.06-1.86,4.41-3.46v-.4h-1.15c-.51,0-.77,.4-.77,1.19-.26,0-.38-.13-.38-.4-.19,0-1.21,.13-3.06,.4-1.02,0-1.92-.26-2.68-.79-.2,0-.41,0-.63,.02-.4,.22-.8,.44-1.2,.66l.63-.61c-.66,.06-1.4,.17-2.24,.33l-6.13-.79v-.4c1.28,0,2.68-.26,4.21-.79l2.3,.4c.45-.26,1.09-.4,1.92-.4,.52,0,.99,.12,1.41,.34l2.83-.77c-.28,.15-.56,.3-.84,.46,1.76-.28,4.16-.53,7.2-.76Zm-27.07-21.82h-.38v-.79h.38v.79Zm4.6,20.17v.4c-1.79,0-2.68,.4-2.68,1.19h-.77l-.38-2.37h.38c.51,.53,1.66,.79,3.45,.79Zm-.77-13.05l-1.92-1.19,.38-.79,.77,.4h.77l.77-.4c0,.26,.13,.4,.38,.4-.38,1.05-.77,1.58-1.15,1.58Zm2.68-.79l-.38,.79h-.38c0-.26,.13-.4,.38-.4,0-.26-.13-.66-.38-1.19v-.4c.51,0,.77,.26,.77,.79v.4Zm6.13,11.07c-.26,0-.64,.13-1.15,.4h-2.3v-.4c1.53,0,2.55-.26,3.06-.79h.38v.79Zm.76-1.06s0,.02-.01,.03v.65h-.51s.06-.01,.08-.02c.1-.05,.19-.13,.27-.24,.07-.11,.12-.24,.16-.38v-.55l.05,.03c0,.17,0,.34-.04,.5Zm9.58,3.43h.38v.79h-.38v-.79Zm-.77-.4h-.77v-.79h.77v.79Zm-6.9-.4v-.4h3.06v-.4h1.92l.77-.4h.38c-.26,.53-.38,.92-.38,1.19h-5.75Z" fill="#fff"/><path d="M288.87,285.21l.07-.03c-.61-.74-1.24-1.48-1.84-2.23-2.91-3.62-5.77-7.28-8.64-10.93l.03,.17c-.26,0-.38,.13-.38,.4,0,6.19,.33,11.63,.97,16.35,3.25-1.28,6.51-2.52,9.78-3.73Zm-8.84-7.47h.38v1.98h-.77c.26-.46,.38-1.12,.38-1.98Z" fill="#fff"/><path d="M315.41,307.49c.48,.33,.96,.64,1.44,.96,.1-.43,.33-.65,.71-.65l.77,.4,.38-.79v-.4h-.38l-.77,.4c0-.99-.26-1.78-.77-2.37-.45,0-1.09,.26-1.92,.79l.77,1.58c-.11,0-.18,.04-.24,.08Z" fill="#fff"/><path d="M277.33,238.43c.09-.1,.08-.09-.04,.03l-.03,.02c.54,1.64,.95,2.48,1.23,2.48l-.38,.79v.79c0,.59,.13,1.12,.38,1.58l-.38,.79c0,.59,.13,1.12,.38,1.58-.26,2.9-.38,5.41-.38,7.52v5.14c0,.73,.26,1.52,.77,2.37-.45,0-.7,.26-.77,.79v.79c0,1.05,.13,2.11,.38,3.16-.18,.69-.27,1.43-.33,2.19,4.21,5.33,8.34,10.77,12.69,16.03,1.91-.7,3.83-1.41,5.75-2.11l-.49-.67v-.79l1.15,.79h.38v-.4c0-.46-.77-.86-2.3-1.19v.4c-.51,0-1.28-.4-2.3-1.19-2.55,0-3.83-4.88-3.83-14.63v-.4c0-.46-.26-.73-.77-.79v.79h-.38v-.4l1.15-1.98v-.79l-.38-.79c.32,0,.57-1.71,.77-5.14-.26-.53-.38-.92-.38-1.19,.26,0,.38-.13,.38-.4l-.38-.79,.38-2.37v-5.93l-.38-.79c.51,0,.77-.26,.77-.79v-1.98l-.38-.79c.51,0,.77-.79,.77-2.37,.23-.29,.44-.56,.65-.83h0c-.29-.16-.51-.44-.47-.83,.04-.51,.12-1.02,.2-1.53-.04,.22-.1,.44-.14,.65-.16,.88-1.26,.89-1.74,.33-.15,.09-.29,.17-.44,.27-1.08,.71-2.08-1.03-1.01-1.73,.09-.06,.18-.11,.27-.16v-.13c0-.23,.2-1.95,.61-5.12-.74,.44-1.49,.86-2.23,1.3-2.5,1.49-4.97,3.03-7.41,4.62-.12,.15-.29,.25-.48,.31-.5,.33-1,.66-1.5,.99,.06,.19,.13,.38,.19,.57,1.21-.13,1.7,1.71,.46,1.93Zm16.87,43.26h.38c0,.53-.26,.79-.77,.79h-.38c0-.46,.26-.73,.77-.79Zm-1.15-1.58h.38v.79h-.38v-.79Zm-2.3,0c.45,.26,.96,.4,1.53,.4v.79h-.77c-.45,0-.7-.26-.77-.79v-.4Zm-6.9-6.72h-.38v-.4c.7-1.32,1.21-1.98,1.53-1.98-.26,1.58-.64,2.37-1.15,2.37Zm3.45-7.52h-.38v-1.19h.38v1.19Zm.77-5.14v.4h-.38l-4.6-1.19v-.79c3.06,1.05,4.72,1.58,4.98,1.58Zm-1.92-17.8c.51,0,.77,.26,.77,.79h-.77c-.45,0-.7-.26-.77-.79h.77Zm-3.83-10.28h1.15v.4h-1.15v-.4Zm0,31.25l.38-2.77h.38v.79l-.38,2.77h-.38v-.79Z" fill="#fff"/><path d="M303.46,298.01c.85,.78,1.73,1.52,2.61,2.27v-.39h1.15v.4c0,.35-.12,.57-.35,.69,.47,.39,.94,.77,1.42,1.15,.12-.16,.27-.26,.47-.26v-1.98l.38-.79h-.77c0-.26,.13-.4,.38-.4l-.38-.79v-3.16h.38c0,.4,.26,.92,.77,1.58,.26,0,.38-.13,.38-.4,.51,.26,.89,.4,1.15,.4v.4h-1.15v1.19c.26,0,.38-.13,.38-.4l1.92,.4h.38v-1.98h-1.15l.38-.79c-.38-.79-.77-1.19-1.15-1.19l.77-1.19v-.4h-.77v.79h-.77v-1.19l-.77,.4h-1.92v.79h.77l-.38,.79v.79l.38,.79h-.38l-.77-.4,.38-.79h-.38l-.77,.4c0-.79-.51-1.19-1.53-1.19v-.4h.77v-1.19h-1.15l-.77,.4c0-.59-.13-1.12-.38-1.58,.26,0,.38-.13,.38-.4h-.77v1.58l.38,.79h-.77c0,.26,.13,.4,.38,.4v.79h-.38v-.79h-.77c0,.26-.13,.66-.38,1.19-.32,0-.83-.66-1.53-1.98-.21,0-.44,.39-.67,1.16,1.48,1.53,2.99,3.03,4.57,4.47Zm4.14,2.68h.77v.4h-.77v-.4Zm-5.36-4.35h.77v.4h-.77v-.4Z" fill="#fff"/><path d="M278.11,185.19v23.77c2.88-3.43,5.73-6.88,8.57-10.32h-.14v-.4c.45-.27,.84-.57,1.2-.88,.48-.58,.96-1.16,1.43-1.74,.54-.97,.81-2.07,.81-3.31-.26,0-.38-.13-.38-.4,.38,0,.77-1.45,1.15-4.35l-1.53-.4v-.4h1.92c1.92-1.32,3.32-1.98,4.21-1.98,.51-1.52,2.3-11.4,5.36-29.66-.26,0-.38-.13-.38-.4l-9.35,2.25-.32,4.82-1.54,3.43c-.6-2.41-.99-4.94-1.19-7.52l-1.13,.27-1.65,3.36-1.29-2.63c-3.82,6.85-5.74,15.15-5.74,24.9,0,.26,.13,.66,.38,1.19-.26,0-.38,.13-.38,.4Zm17.62-22.15h.77v.4h-.77v-.4Zm-2.68,6.72v1.58c0,.79-.26,1.19-.77,1.19l.38-2.77h.38Zm-1.53-7.12c0-.2,.13-.99,.38-2.37h.38v.79l-.38,1.98h-.38v-.4Zm-2.68,9.89h.77c-2.04,6-3.06,9.16-3.06,9.49,0,1.85,.26,3.3,.77,4.35-.51,.86-.77,1.65-.77,2.37v1.19c-3.06,.73-4.6,1.78-4.6,3.16h-.38v-1.19c2.55-5.47,4.98-11.93,7.28-19.38Zm-6.9-.79v-1.58h.38v1.58h-.38Zm2.46-3.43l.94,.68,.06,3.74-1.85-1.39,.84-3.04Zm-3.61-.13c1.02,.4,1.53,.79,1.53,1.19v.4h-.38c-.77-.4-1.15-.79-1.15-1.19v-.4Z" fill="#fff"/><path d="M281.94,221.97c1.66,.53,2.81,.79,3.45,.79h.38c2.3-1.19,3.45-1.98,3.45-2.37v-.79l-.38-.79-.77,.4h-.38v-.4c1.02-1.19,1.53-2.9,1.53-5.14,0-.79-.13-1.71-.38-2.77,.26-2.31,.38-4.28,.38-5.93v-3.16l.38-1.98c-.17,0-.28-.4-.34-1.18-.24,.29-.49,.58-.73,.87-3.46,4.19-6.92,8.38-10.43,12.52v2.42c0,3.96-.26,7.12-.77,9.49,.26,0,.38,.13,.38,.4-.1,.35-.23,.71-.37,1.06,.22,2.33,.78,4.62,1.19,6.93,2.74-1.76,5.51-3.46,8.32-5.11,1.04-.62,2.1-1.22,3.15-1.82,0-.09-.02-.18-.02-.27-5.36-1.71-8.04-2.77-8.04-3.16Zm-2.3-5.14h-.38v-2.77l.77,.4-.38,2.37Zm1.92,5.54c-.45,0-.7-.26-.77-.79h.77v.79Zm0-7.12h.38c.77,.4,1.15,.79,1.15,1.19h-.38c-.77-.4-1.15-.79-1.15-1.19Z" fill="#fff"/></g></g></g></g></svg>