<?xml version="1.0" encoding="UTF-8"?><svg id="Capa_1" xmlns="http://www.w3.org/2000/svg" viewBox="0 0 479.06 479.06"><g><path d="M394.86,421.97c42.62-37.31,69.25-83.42,80.3-139.09h-52.58v-86.77h52.1c.02-11.42-13.27-49.64-24.94-71.2-14.02-25.92-32.32-48.41-54.95-67.7-8.84,15.27-17.59,30.36-26.4,45.57-25.18-14.55-50.09-28.95-75.09-43.39,8.87-15.32,17.55-30.31,26.42-45.63-53.64-18.43-106.88-18.27-160.45,0,8.9,15.43,17.57,30.44,26.34,45.64-25.13,14.52-50.03,28.91-75.08,43.38-8.88-15.32-17.6-30.38-26.42-45.61-22.3,19.1-40.37,41.33-54.42,66.82-12.42,22.54-21.02,46.45-25.8,72.13,1.15,0,2.03,0,2.91,0,15.7,0,31.39,.04,47.09-.05,2.12-.01,2.65,.56,2.65,2.67-.07,27.16-.05,54.31-.05,81.47v2.69H3.85c10.98,55.66,37.49,101.85,80.24,139.03,8.94-15.43,17.66-30.48,26.46-45.66,25.15,14.54,50.06,28.93,75.08,43.39-8.86,15.32-17.54,30.32-26.4,45.65,53.67,18.42,106.9,18.25,160.43-.02-8.91-15.43-17.57-30.44-26.34-45.63,25.13-14.52,50.04-28.91,75.09-43.38,8.84,15.27,17.53,30.28,26.46,45.7Z" fill="#111"/><path d="M57.09,394.9c15.42-8.93,30.42-17.62,45.7-26.46-14.47-25.05-28.86-49.96-43.38-75.09-15.18,8.77-30.19,17.43-45.63,26.34-18.27-53.53-18.44-106.77-.02-160.43,15.33,8.87,30.33,17.54,45.65,26.4,14.46-25.02,28.85-49.92,43.39-75.08-15.18-8.8-30.23-17.52-45.66-26.46C94.31,41.38,140.49,14.87,196.15,3.89V56.52h2.69c27.16,0,54.31-.03,81.47,.05,2.11,0,2.68-.53,2.67-2.65-.09-15.7-.05-31.39-.05-47.09,0-.88,0-1.75,0-2.91,25.68,4.78,49.58,13.38,72.13,25.8,25.5,14.05,47.72,32.12,66.82,54.42-15.23,8.82-30.29,17.55-45.61,26.42,14.47,25.05,28.86,49.96,43.38,75.08,15.2-8.77,30.21-17.43,45.64-26.34,18.27,53.57,18.44,106.81,0,160.45-15.32-8.87-30.31-17.55-45.63-26.42-14.44,24.99-28.84,49.9-43.39,75.09,15.21,8.81,30.31,17.56,45.57,26.4-19.28,22.63-41.78,40.93-67.7,54.95-21.56,11.66-59.78,24.96-71.2,24.94v-52.1h-86.77v52.58c-55.67-11.06-101.78-37.68-139.09-80.3Zm162.52,3.19c2.31,.21,4.5,.43,6.7,.62,10.54,.9,21.06,.65,31.56-.56,1.3-.15,1.8-.62,1.78-1.95-.07-3.47-.01-6.94-.04-10.4,0-.44-.19-.89-.32-1.47-13.27,1.83-26.44,1.75-39.67,.17v13.59Zm165.19-138.48c3.77,0,7.5-.06,11.23,.03,1.58,.04,2.13-.48,2.3-2.08,1.18-11.28,1.26-22.56,.1-33.84-.44-4.27-.5-4.26-4.88-4.26-2.36,0-4.71-.01-7.07,0-.66,0-1.32,.1-1.81,.14,.36,6.79,.97,13.35,.99,19.91,.02,6.56-.54,13.13-.86,20.08ZM219.48,94.78c13.52-1.94,26.7-1.8,40.14-.22,0-4.11-.07-7.91,.03-11.71,.04-1.56-.56-2.04-2.03-2.12-4.43-.23-8.86-.88-13.28-.81-7.69,.11-15.37,.63-23.05,1-.91,.04-1.83,.09-1.82,1.43,.03,4.01,.01,8.03,.01,12.43Zm-124.73,164.79c-1.87-13.43-1.81-26.61-.19-39.95h-13.74c-.3,4.71-.89,9.34-.83,13.96,.1,8.1,.58,16.19,.98,24.28,.03,.59,.68,1.62,1.06,1.64,4.14,.12,8.28,.07,12.72,.07Zm234.56,95.43c-10.88,8.23-22.31,14.8-34.8,19.91,1.97,3.45,3.87,6.59,5.56,9.84,.85,1.64,1.7,2.02,3.37,1.13,6.72-3.58,13.6-6.91,20.22-10.67,4.31-2.45,8.28-5.51,12.54-8.39-2.36-4.05-4.55-7.79-6.89-11.82ZM184.56,104.1c-2.03-3.54-4-6.79-5.78-10.14-.79-1.48-1.59-1.58-2.95-.87-6.03,3.12-12.21,5.97-18.09,9.33-5.09,2.91-9.86,6.38-14.93,9.71,2.43,4.14,4.64,7.93,6.94,11.86,10.85-8.17,22.28-14.77,34.81-19.89Zm-80.44,190.37c-3.83,2.21-7.44,4.24-10.99,6.39-.32,.2-.43,1.24-.23,1.72,1.1,2.62,2.25,5.22,3.51,7.77,4.21,8.54,9.13,16.66,14.87,24.26,.39,.52,1.48,1.15,1.83,.96,3.64-1.97,7.19-4.1,10.92-6.27-8.22-10.83-14.77-22.28-19.92-34.82Zm80.13,80.87c-6.13-3.13-12.11-5.89-17.78-9.17-5.73-3.31-11.16-7.14-16.9-10.86-2.16,3.75-4.35,7.55-6.62,11.5,10.77,8.26,22.29,14.74,34.66,20.09,2.29-3.97,4.45-7.74,6.65-11.56Zm190.67-190.81c3.53-2.02,6.73-3.94,10.02-5.7,1.47-.79,1.81-1.59,1.02-3.08-3.67-6.91-7.11-13.95-10.97-20.76-2.38-4.19-5.37-8.04-8.18-12.17-4.08,2.39-7.86,4.6-11.78,6.89,8.2,10.86,14.76,22.23,19.89,34.82Zm-38.71-72.48c-3.88-2.64-7.4-5.39-11.24-7.57-7.18-4.06-14.55-7.8-21.87-11.62-.54-.28-1.78-.34-1.96-.05-2.2,3.59-4.27,7.26-6.5,11.14,12.56,5.2,24.02,11.73,34.67,20.03,2.33-4.04,4.51-7.81,6.89-11.94ZM103.99,184.39c5.23-12.61,11.76-24.06,20.04-34.68-4.11-2.36-7.88-4.53-11.8-6.79-8.26,10.75-14.75,22.28-20.09,34.66,3.99,2.29,7.76,4.46,11.85,6.8Zm271.06,110.22c-5.21,12.64-11.76,24.06-20.03,34.7,4.11,2.36,7.92,4.55,11.86,6.82,1.75-2.46,3.4-4.68,4.96-6.97,5.58-8.22,10.32-16.91,14.29-26.02,.26-.6,.28-1.88-.05-2.09-3.52-2.18-7.13-4.2-11.03-6.44Z" fill="#f9f9f9"/><path d="M219.61,398.09v-13.59c13.24,1.58,26.41,1.66,39.67-.17,.13,.58,.32,1.03,.32,1.47,.03,3.47-.03,6.94,.04,10.4,.02,1.32-.48,1.8-1.78,1.95-10.5,1.21-21.02,1.45-31.56,.56-2.2-.19-4.39-.4-6.7-.62Z" fill="#111"/><path d="M384.79,259.61c.32-6.95,.88-13.52,.86-20.08-.02-6.56-.63-13.12-.99-19.91,.49-.04,1.15-.14,1.81-.14,2.36-.02,4.71,0,7.07,0,4.37,0,4.44,0,4.88,4.26,1.16,11.28,1.08,22.56-.1,33.84-.17,1.6-.72,2.12-2.3,2.08-3.73-.09-7.46-.03-11.23-.03Z" fill="#111"/><path d="M219.48,94.78c0-4.4,.02-8.41-.01-12.43-.01-1.35,.91-1.39,1.82-1.43,7.68-.37,15.37-.88,23.05-1,4.42-.06,8.85,.58,13.28,.81,1.47,.08,2.07,.56,2.03,2.12-.1,3.79-.03,7.59-.03,11.71-13.44-1.59-26.62-1.73-40.14,.22Z" fill="#111"/><path d="M94.75,259.57c-4.44,0-8.58,.04-12.72-.07-.38-.01-1.03-1.05-1.06-1.64-.4-8.09-.88-16.19-.98-24.28-.06-4.62,.53-9.24,.83-13.96h13.74c-1.61,13.34-1.68,26.52,.19,39.95Z" fill="#111"/><path d="M329.31,355c2.35,4.02,4.53,7.77,6.89,11.82-4.26,2.88-8.23,5.93-12.54,8.39-6.62,3.77-13.49,7.09-20.22,10.67-1.67,.89-2.52,.51-3.37-1.13-1.69-3.25-3.59-6.38-5.56-9.84,12.49-5.11,23.92-11.68,34.8-19.91Z" fill="#111"/><path d="M184.56,104.1c-12.54,5.12-23.96,11.72-34.81,19.89-2.3-3.93-4.52-7.71-6.94-11.86,5.07-3.33,9.84-6.8,14.93-9.71,5.89-3.36,12.07-6.21,18.09-9.33,1.36-.7,2.16-.61,2.95,.87,1.78,3.35,3.75,6.6,5.78,10.14Z" fill="#111"/><path d="M104.12,294.47c5.15,12.54,11.7,23.99,19.92,34.82-3.73,2.18-7.28,4.3-10.92,6.27-.35,.19-1.44-.44-1.83-.96-5.75-7.6-10.66-15.72-14.87-24.26-1.26-2.55-2.41-5.15-3.51-7.77-.2-.48-.09-1.52,.23-1.72,3.54-2.15,7.15-4.19,10.99-6.39Z" fill="#111"/><path d="M184.24,375.35c-2.19,3.82-4.36,7.58-6.65,11.56-12.37-5.35-23.89-11.83-34.66-20.09,2.27-3.94,4.46-7.75,6.62-11.5,5.74,3.72,11.17,7.55,16.9,10.86,5.68,3.28,11.66,6.04,17.78,9.17Z" fill="#111"/><path d="M374.91,184.54c-5.13-12.58-11.69-23.96-19.89-34.82,3.93-2.3,7.71-4.51,11.78-6.89,2.81,4.14,5.8,7.98,8.18,12.17,3.86,6.8,7.3,13.84,10.97,20.76,.79,1.49,.45,2.3-1.02,3.08-3.29,1.75-6.49,3.68-10.02,5.7Z" fill="#111"/><path d="M336.21,112.07c-2.38,4.13-4.56,7.9-6.89,11.94-10.65-8.31-22.11-14.83-34.67-20.03,2.23-3.88,4.3-7.55,6.5-11.14,.18-.29,1.41-.23,1.96,.05,7.32,3.81,14.68,7.56,21.87,11.62,3.84,2.17,7.36,4.93,11.24,7.57Z" fill="#111"/><path d="M103.99,184.39c-4.09-2.35-7.86-4.51-11.85-6.8,5.34-12.38,11.83-23.92,20.09-34.66,3.92,2.26,7.7,4.42,11.8,6.79-8.28,10.62-14.81,22.07-20.04,34.68Z" fill="#111"/><path d="M375.05,294.61c3.89,2.24,7.51,4.26,11.03,6.44,.34,.21,.31,1.49,.05,2.09-3.96,9.11-8.7,17.8-14.29,26.02-1.55,2.29-3.2,4.51-4.96,6.97-3.94-2.27-7.76-4.46-11.86-6.82,8.26-10.64,14.81-22.06,20.03-34.7Z" fill="#111"/></g><g><polygon points="257.29 305.01 261.85 305.4 262.5 305.4 262.5 304.62 259.24 304.22 257.29 304.22 257.29 305.01" fill="#111"/><g><path d="M253.62,284.91l2.31,2.25,.71-2.27h-1.31c-.53,0-1.11,0-1.71,.02Z" fill="#111"/><path d="M252.21,186.8l-.14-.17h.65c-.43-3.09-.65-5.33-.65-6.71v-9.99l-4.63,3.42-2.34-.6,1.32-5.29,5.65,1.69v-3.83l.65-2.76c-.43,0-.65-.13-.65-.39,.43-2.7,.65-4.8,.65-6.31v-4.34c0-1.45-1.09-2.37-3.26-2.76l-2.81,.24c-3.03,6.17-8.19,11.19-13.37,15.63-2.71,2.33-5.61,4.57-8.97,5.85,9.21,5.59,18.52,11.03,27.9,16.33Zm-10.98-19.08l1.09,.49,.07,2.66-2.14-.99,.98-2.16Z" fill="#111"/><path d="M248.07,197.47l5.14-1.9c-.2-1.43-.57-3.61-1.13-6.55-10.22-5.76-20.36-11.69-30.38-17.79-2.02,.39-4.06,.4-6.12,.39v.02c0,1.51-.22,3.62-.65,6.31,.43,.53,.65,.92,.65,1.18l-.65,.79c.43,2.89,.65,5.39,.65,7.5,0,.53,.43,.79,1.3,.79h2.61l1.95-.79h.65v.79c7.39,0,11.08,2.76,11.08,8.29v5.82l3.38,.11-.4,3.73-1.79,2.44c-.54-1.35-.94-2.75-1.2-4.18v.76l-.65,1.97c.43,0,.65,.13,.65,.39,0,1.51-.22,3.62-.65,6.31l.65,.79c-.36,.55-.65,1.41-.86,2.56,6.89-5.08,13.83-10.09,20.85-15-.11-.92-.24-1.88-.44-2.95l.65-1.97c-1.76-.3-3.57-.24-5.31,.19Zm-21.35-11.97l-2.15-1-.87-2.35,3.21,1.48-.2,1.87Z" fill="#111"/><path d="M270.97,297.51c-4.93,0-8.75-.11-11.46-.32-3.94,2.16-7.88,4.31-11.84,6.44,.37,.27,.69,.61,.95,1.06,.27-.15,.54-.29,.84-.48l3.26,1.18,1.96-.79-.65-.79v-.39l4.56-.79c3.15,.26,4.89,.39,5.21,.39,.87-.26,1.52-.39,1.95-.39,0,.26,.22,.39,.65,.39,0,.26-.22,.66-.65,1.18,0,.79,.43,1.18,1.3,1.18h2.61c.87,0,1.3-.26,1.3-.79v-1.97l.65-4.74c-.43,0-.65-.13-.65-.39Zm-1.3,5.92h-.65v-.79h.65v.79Z" fill="#111"/><path d="M232.34,234.47c-.04,1.05,.01,2.08,.19,3.06h.64v.39h-.57c.1,.46,.23,.91,.41,1.33,.57,1.35,.58,2.87-.29,3.96,.61,2.26,.97,5,1.07,8.21,6.53,1.94,13.06,3.89,19.58,5.81v-14.97c0-.37,.07-.75,.18-1.12-.08-.76-.06-1.45,.08-2.29,.12-.73,.45-1.42,.77-2.08,.03-.05,.06-.09,.09-.14h0c-.01-.89,0-1.77,0-2.66,0-.8,.24-1.45,.61-1.97-.47-.73-.61-1.45-.51-2.1l-.67,.25-.29-.78,.87-.78c-.75-1.36-1.13-3.25-1.13-5.66v-4.34l-.65-.79c.43,0,.65-.13,.65-.39v-4.34l-.65-2.76c.43,0,.65-.13,.65-.39l-.65-.79c.43,0,.65-.13,.65-.39v-3.4l-1.33,.49-.24-.64c-3.55,2.51-7.07,5.04-10.58,7.6l2.35,1.5-1.29,1.39-1.08-.51,.2-1.85-.19-.52c-3.08,2.24-6.15,4.5-9.2,6.78-.1,1.2-.15,2.57-.15,4.15v1.97c0,.21-.02,.42-.06,.64,.61,.56,1.05,1.38,1.11,2.51,.1,1.92-.11,3.8-.59,5.63Zm9.31-.88h1.3v.39h-1.3v-.39Zm-7.82,2.76h-1.3v-.79h1.3v.79Zm4.58,6.04l-.2,1.87-2.15-1-.87-2.35,3.21,1.48Zm-5.23-10.38h1.3v1.18h-1.3v-1.18Z" fill="#111"/><path d="M265.42,288.92l-.29-.78,.5-.45c-1.08-.89-2.11-1.83-3.11-2.8h-2.6l-.02,.87c-1.69,1.75-3.9,2.91-6.3,3.28l-1.36-1.3,.89-2.81c-1.97,.05-4.27,.17-6.91,.36-.87-.26-3.26-.53-7.17-.79v-.39c3.91,0,7.17-.13,9.77-.39,1.74,.26,3.26,.39,4.56,.39,.43,0,1.09-.13,1.95-.39v.39l1.63-.2,.98-3.1c-3.04-1.54-4.56-3.47-4.56-5.78v-.78l-.67-.32,.2-1.85-.2-.53-1.16-.74,.78-.29,.38,1.03,.66,.42v-12.66c-3.86-1.13-7.73-2.26-11.59-3.4-2.65-.79-5.31-1.58-7.96-2.36,0,7.92-.44,14.17-1.3,18.73l3.91,.39v.79h-3.68c.1,.53,.04,1.11-.23,1.7v1.06h3.26c0,.53-.43,.79-1.3,.79h-.65l-1.3-.39c-.96,1.16-2.21,2.14-3.73,2.94-.28,.25-.58,.48-.87,.72,.33,0,.65,.12,.84,.46,.24,.43,.14,1.15-.36,1.37-.87,.38-1.14,1.06-1.52,1.87-.43,.91-1.02,1.65-1.87,2.2-1.68,1.09-4.03,.89-5.79,.11-.08-.04-.16-.09-.24-.13-1.07,.66-2.11,1.35-3.13,2.08-.1,.34-.19,.67-.29,.99h0v.03l-.02,.03c-.16,.48-.33,.95-.55,1.39,.41,3.4,.82,5.31,1.23,5.68,.43,0,.65-.13,.65-.39,.43,0,.65,.13,.65,.39l4.56-.39h1.3v.79c-5.21,.72-7.82,1.38-7.82,1.97v4.34c0,1.32,2.17,1.97,6.52,1.97,0,.33-1.95,.85-5.86,1.58,0,.26,.22,.66,.65,1.18-.43,.46-.65,.99-.65,1.58v1.58c0,.53,.87,.79,2.61,.79v.39c0,.53-.87,.79-2.61,.79v4.34c0,.12,.23,.26,.67,.43,1.54-.8,3.08-1.59,4.62-2.39,3.66-1.91,7.32-3.85,10.97-5.78-.28,0-.57,0-.85-.03-.91,.2-1.8,.47-2.7,.71-.54,.15-1.06-.18-1.23-.7-.17-.51,.19-1.09,.7-1.23,.08-.02,.17-.05,.25-.07-.05-.09-.12-.17-.15-.27-.25-.79,.05-1.6,.64-2.11h-3.79l-1.3-.4c0-.46,.43-.72,1.3-.79h2.36c.03-.58,.5-1.15,1.22-.93,1.27,.37,2.6,.57,3.93,.68,.36-.42,.75-.8,1.21-1.15,.02-.01,.04-.02,.05-.03,.18-.28,.48-.49,.83-.49,1,0,2.01-.1,3.01-.07,1.03,.03,2.15,.18,3.02,.78,.07,.05,.11,.11,.17,.17,1.15-.33,2.46-.65,3.68-.68,3.77-2.03,7.54-4.08,11.3-6.14-.05-.01-.11-.02-.15-.03,0-.24,.48-.45,1.38-.64,1.53-.84,3.07-1.68,4.6-2.52h-.77v-.79h1.95v.13c1.79-.99,3.58-1.98,5.37-2.98-.67-.48-1.31-.97-1.92-1.46l-1.18,.44Zm-34.85,10.96l-3.91-.39-4.56,.39c-.76,0-1.19-.26-1.3-.79,.43,0,1.09-.13,1.95-.39,2.93,.26,5.32,.39,7.17,.39h.65v.79Zm0-3.55h-2.61v-.39c.43,0,1.09-.13,1.95-.39h.65v.79Zm11.34-8.28l2.39,.75-3.14,1.63-1.36-1.3,2.11-1.08Zm-1.8-26.35c.22-.23,.48-.42,.77-.55,.84-.38,1.79-.41,2.66-.09h.55l-2.82,3.53-1.66-2.08c.11-.3,.28-.58,.5-.81Zm.3,7.84l1.09,.49,.07,2.66-2.14-.99,.98-2.16Zm2.54,6.66c-2.17,1.05-3.26,1.97-3.26,2.76h-.65c0-.79-.22-1.71-.65-2.76h4.56Zm-9.77,2.76h1.3v.79h-1.3v-.79Zm0,2.76l1.3,.39c0,.53-.43,.79-1.3,.79v-1.18Zm0,11.05l1.3,.39c0,.53-.43,.79-1.3,.79v-1.18Zm1.3,9.08h-1.3v-.39h1.3v.39Zm-1.3-3.95v-.79l.65-.79c2.39,0,4.56,.26,6.52,.79,.87-.26,3.26-.53,7.17-.79,0,.79-4.78,1.32-14.34,1.58Zm14.34-4.74h-3.26l-1.3-.39c0-.46,.43-.72,1.3-.79h.65c1.09,.53,1.95,.79,2.61,.79v.39Zm9.12,.39l-3.26-.39v-.39c.98,0,1.85-.13,2.61-.39,1.74,.53,2.61,.92,2.61,1.18h-1.95Z" fill="#111"/><path d="M265.76,306.19c-1.74,0-3.48,.13-5.21,.39l-2.61-.39-3.26,.39c-.98,0-1.85-.13-2.61-.39-.76,.26-1.63,.39-2.61,.39l-.55-.07c-.13,.2-.32,.37-.56,.42-1.08,.25-2.16,.32-3.24,.31-.13,.19-.21,.36-.21,.52h-1.3c0-.23-.05-.41-.12-.57-.71-.05-1.42-.11-2.13-.17-1.15,.61-2.29,1.23-3.44,1.85-.12,.15-.25,.27-.41,.36,.15,.13,.24,.29,.24,.51v.39l-1.3,1.18c-1.03-.09-1.8-.23-2.35-.41-4.77,2.53-9.56,5.04-14.35,7.54,.52,.12,1.07,.24,1.71,.37h4.56c1.52,0,5.65-.79,12.38-2.37v-.79h-1.3v-.39c3.04,0,4.56-.26,4.56-.79,.22,0,3.04,.13,8.47,.39v.39h-3.26v.39c0,.94,3.14,1.58,9.42,1.92-.07-.29-.1-.58-.06-.87l-4.71-2.37-1.14,.67,.84-.83,.3,.16,2.76-1.64-1.54-.19c-4.34,.26-7.6,.39-9.77,.39h-.65v-.79h2.61c1.52,0,3.48-.13,5.86-.39,.83,.22,2.36,.44,4.58,.67l2.38-.4c.58-.35,1.72-.71,3.47-1.06,.76,.26,1.63,.39,2.61,.39v.39c-1.9,.48-3.36,.81-4.39,.99-.16,.93-.37,1.85-.67,2.75-.23,.83-.31,1.51-.26,2.07,2.36-.23,3.92-.45,4.67-.68v.39c5.65-.2,8.47-.72,8.47-1.58v-.39l-.65-.79c.43,0,.65-.13,.65-.39v-.79l-.65-.79c-.76,0-1.85,.26-3.26,.79-1.74,0-2.82-.53-3.26-1.58,4.34,0,6.52-.39,6.52-1.18v-1.18h-2.61v-.39c2.17,0,3.26-.39,3.26-1.18v-.39c-3.91-.33-5.86-.72-5.86-1.18Zm-35.19,10.26h-.65v-.79h.65v.79Zm3.91-.39h-1.3v-.39c0-.46,.43-.72,1.3-.79l1.3,.39c0,.53-.43,.79-1.3,.79Zm1.95-2.76h-3.26c0-.46,.43-.72,1.3-.79h1.95v.79Zm12.62-5c.12-.03,.22-.09,.31-.17,.08-.08,.14-.17,.19-.27v-.39l.06,.02c.01,.12,0,.24-.05,.35,0,0-.01,.01-.01,.02v.46h-.86c.12,.02,.24,.02,.36-.02Zm9.54,.66l-.65,.79c-1.52,0-6.08,.13-13.68,.39-1.3,0-1.96-.26-1.96-.79,4.34-.53,9.34-.92,14.99-1.18,0,.26,.43,.39,1.3,.39v.39Zm6.52,5.13c0,.46-1.3,.86-3.91,1.18,0-.26-.65-.39-1.95-.39,0-.46,.43-.72,1.3-.79h4.56Z" fill="#111"/><path d="M269.02,295.93h1.96v-4.45c-.18-.1-.36-.21-.54-.32-2.63,1.46-5.26,2.93-7.9,4.38,2.27,.26,4.43,.39,6.49,.39Z" fill="#111"/></g><g><polygon points="254.33 169.16 250.82 167.46 250.1 172.17 251.38 172.7 254.33 169.16" fill="#111"/><path d="M221.17,219.55l.47-3.73c0,.49-.47,1.48-1.39,2.98l.91,.75Z" fill="#111"/><path d="M221.21,196.38v-.74h-.46l.06,.14c.01,.16,.06,.31,.13,.42,.07,.11,.17,.17,.27,.18Z" fill="#111"/><polygon points="221.14 235.3 221.42 233.94 220.68 234.54 221.14 235.3" fill="#111"/><path d="M220.84,299.54c-.06,.03-.11,.09-.16,.16-.05,.07-.08,.16-.1,.26-.02,.1-.03,.2-.02,.3,0,.1,0,.21,.02,.3,.02,.1,.06,.19,.1,.26,.05,.07,.1,.13,.16,.16,.06,.03,.12,.04,.19,.03l.06,.13c-.02-.1-.03-.21-.02-.32,.01-.11,.04-.21,.08-.29,.04-.09,.09-.15,.15-.2s.13-.07,.19-.06l-.45-.75c-.06-.01-.13,0-.19,.03Z" fill="#111"/><path d="M228.93,240.12c-.92,1.25-1.67,2.37-2.3,3.36l5.06-2.97v-1.43l-.46-.76c-.86,.19-1.67,.82-2.3,1.8Z" fill="#111"/><polygon points="221.42 233.94 222.52 233.06 221.61 233.05 221.42 233.94" fill="#111"/><path d="M218,197.08c-.28,.44-.51,.94-.69,1.5-.18,.55-.41,1.05-.69,1.48l.92,.75,1.37-2.22-.91-1.51Z" fill="#111"/><polygon points="211.86 252.8 211.88 253.86 212.2 253.31 211.86 252.8" fill="#111"/><path d="M219.2,291.28c0,.1,0,.2,.02,.3,.02,.1,.05,.18,.1,.25,.04,.07,.1,.13,.16,.16s.12,.05,.18,.03l.06,.13c.07,0,.13-.01,.19-.06,.06-.04,.11-.11,.15-.2,.04-.09,.07-.19,.08-.29,0-.11,0-.22-.02-.32h-.91Z" fill="#111"/><polygon points="218.29 283.06 220.13 282.33 220.59 280.83 219.68 278.58 218.3 280.82 218.29 283.06" fill="#111"/><polygon points="219.59 328.64 220.04 327.9 218.21 326.4 219.59 328.64" fill="#111"/><path d="M218.72,203.89c-.06,.03-.11,.09-.16,.16-.04,.07-.08,.16-.1,.25s-.03,.2-.02,.3h.92l-.47-.74c-.06-.01-.12,0-.18,.03Z" fill="#111"/><path d="M258,325.84l2.96,.02c0-.12,0-.24,0-.36l.03,.02c.08-.31,.11-.66,.07-1-.04-.34-.14-.65-.3-.88l-2.3-1.52-.46,3.73Z" fill="#111"/><polygon points="215.53 289.74 215.99 289.74 215.53 288.98 215.53 289.74" fill="#111"/><polygon points="214.68 251.71 213.77 249.47 211.93 250.95 213.31 252.46 214.68 251.71" fill="#111"/><path d="M214.76,211.27h-.46l.06,.22c-.3,0-.5,.43-.51,1.28h.91v-1.5Z" fill="#111"/><polygon points="214.74 221.07 213.83 220.33 213.37 222.57 214.28 223.32 214.74 221.07" fill="#111"/><path d="M214.26,234.43l.92,.77,.46-.76c-.5,.06-1-.21-1.38-.75v.74Z" fill="#111"/><path d="M207.24,327.89c.08-.26,.12-.54,.13-.83l-.91-.75-.46,1.5,.91,.75c.14-.19,.25-.42,.32-.67Z" fill="#111"/><path d="M216.58,246.36l1.13-3.59c-1.04,1.11-2.12,2.1-3.24,2.98,.7,.2,1.41,.41,2.11,.61Z" fill="#111"/><path d="M213.13,319.62l-1.33-2.17-.46,2.99,.07,.07c.57-.3,1.15-.59,1.72-.89Z" fill="#111"/><path d="M208.21,250.47c.18,.02,.35-.03,.52-.13,.17-.1,.32-.25,.45-.45,.18-.28,.33-.61,.44-.98,.1-.37,.16-.77,.17-1.18l-2.29-.39,.05,2.1,.67,1.02Z" fill="#111"/><path d="M210.68,177.99l-.09-.07-.07,.23c.05-.06,.11-.1,.16-.16Z" fill="#111"/><path d="M258.28,323.09c.04,.07,.1,.13,.16,.16,.06,.03,.12,.04,.19,.03,.06,.01,.12,0,.18-.03,.06-.03,.11-.09,.16-.16s.08-.16,.1-.25c.02-.1,.03-.2,.02-.3h-.92c0,.1,0,.2,.02,.3,.02,.1,.05,.19,.1,.26Z" fill="#111"/><path d="M270.55,319.75c-.59-2.38-.89-4.91-.9-7.47v-6.92c-1.21,1.82-2.02,4.25-2.29,6.91l-.46,.74c.16,1.48,.64,2.82,1.36,3.76,.67,1.17,1.44,2.18,2.29,2.98Z" fill="#111"/><polygon points="235.2 321.72 236.57 323.97 236.58 320.88 235.2 320.11 235.2 321.72" fill="#111"/><path d="M208.34,256.79h-.65l.03,.12c-.37,.53-.6,1.27-.64,2.06l.63-1.1,.63-1.08Z" fill="#111"/><path d="M245.6,314.58v.1s.02,0,.03,0l-.03-.09Z" fill="#111"/><polygon points="247.38 326.55 248.76 328.06 248.77 325.82 247.84 325.07 247.38 326.55" fill="#111"/><path d="M240.41,324.19c.08,.26,.12,.53,.13,.82l.46-.74v-1.5l-.91,.76c.13,.19,.24,.41,.32,.67Z" fill="#111"/><path d="M248.38,308.61h0s.02,.02,.03,.02l-.03-.02Z" fill="#111"/><path d="M248.38,308.62c-.17-.02-.34-.09-.49-.21-.16-.13-.31-.32-.43-.54l1.38,2.25c-.27-.39-.43-.93-.45-1.5Z" fill="#111"/><path d="M249.72,322.07c1.09-.02,2.18,.23,3.22,.76-.92-2.49-1.83-3.74-2.74-3.75l-3.22,.73c.3,.74,.71,1.33,1.19,1.73,.48,.4,1.02,.58,1.56,.53Z" fill="#111"/><polygon points="267.52 233.36 268.43 233.36 268.89 232.62 267.98 231.86 267.52 233.36" fill="#111"/><path d="M261.61,198.37c.07,1.79,.37,3.54,.91,5.11l.03,.02c1.84-1.98,2.91-3.72,3.18-5.24-.37-.68-.78-1.29-1.22-1.84-.97,.65-1.94,1.29-2.9,1.95Z" fill="#111"/><path d="M266.25,199.13c-.16-.13-.33-.2-.5-.22l-.46,1.48,.91,.75,.46-1.48c-.11-.22-.25-.4-.41-.53Z" fill="#111"/><polygon points="263.4 228.1 264.31 228.85 264.78 226.62 263.86 225.86 263.4 228.1" fill="#111"/><path d="M252.54,292.54c-.02,.09-.06,.18-.1,.24-.05,.07-.11,.12-.17,.15-.06,.03-.13,.03-.19,.01h.47v-.41Z" fill="#111"/><path d="M252.71,329.58c-.06,.03-.11,.09-.16,.16-.04,.07-.08,.16-.1,.25-.02,.1-.03,.2-.02,.3l.07,.02c.06,0,.11-.03,.16-.07,.05-.04,.1-.1,.13-.17,.04-.07,.06-.15,.08-.24,.02-.09,.02-.18,.01-.28-.06-.01-.12,0-.18,.03Z" fill="#111"/><polygon points="228.84 302.22 229.29 302.97 230.22 302.23 229.75 301.48 228.84 302.22" fill="#111"/><path d="M261.21,326.6h.46l-.46-.74h-.26c-.03,.45,.02,.74,.25,.74Z" fill="#111"/><path d="M258.45,313.16l.47-.76,.03,.02c.01-.11,0-.22-.02-.32s-.06-.2-.11-.27c-.05-.08-.11-.13-.18-.16-.07-.03-.13-.03-.2,0-.35,.04-.68,.31-.91,.74l.91,.77Z" fill="#111"/><path d="M257.18,296.19l-1.9,.52-1.22,1.19c1.04-.57,2.08-1.13,3.12-1.7Z" fill="#111"/><path d="M257.57,299.33c.08-.39,.14-.79,.2-1.19-.88,.48-1.76,.96-2.64,1.44l1.05,.86c-.03,.3-.01,.61,.05,.91,.06,.29,.16,.56,.29,.77s.3,.38,.48,.48,.37,.12,.56,.08v3.73l.46-3.73c-.61-.49-.75-1.54-.45-3.36Z" fill="#111"/><path d="M252.57,292.21l-.03-.02v.35s0-.01,0-.02c.02-.1,.03-.21,.03-.31Z" fill="#111"/><path d="M265.08,310.22c.16,0,.23,.24,.23,.74h.46l-.91-1.51c0,.49,.07,.76,.22,.76Z" fill="#111"/><polygon points="245.36 317.89 243.99 317.89 242.15 319.36 243.06 320.11 245.36 318.64 245.36 317.89" fill="#111"/><polygon points="221.08 293.21 221.08 292.47 220.17 290.98 219.7 292.46 220.17 293.97 221.08 293.21" fill="#111"/><path d="M245.59,314.68c-1.18,.01-1.8,.67-1.83,2.14l1.38,2.24,.45-4.38Z" fill="#111"/><path d="M269.37,207.21l.91,.75,.23-.13,.22,.13v1.5h2.3v-.75c0-.1,0-.21-.02-.3-.02-.1-.06-.19-.1-.26-.04-.07-.1-.13-.16-.16-.06-.03-.12-.04-.19-.03-.35-.04-.68-.31-.91-.75l-1.11,.61-1.18-.62Z" fill="#111"/><polygon points="254.72 171.59 255.31 172.05 256.01 170.81 254.72 169.47 254.83 169.94 254.72 171.59" fill="#111"/><polygon points="248.58 168.12 247.99 167.69 247.45 169.61 248.63 170.49 248.58 168.12" fill="#111"/><polygon points="254.08 168.81 254.72 169.47 254.51 168.55 254.08 168.81" fill="#111"/><polygon points="261.67 184.95 262.96 184.18 264.36 181.75 263.35 181.56 261.51 184.25 261.67 184.95" fill="#111"/><polygon points="229.93 327.49 230.25 328.89 231.97 327.85 230.64 326.26 229.93 327.49" fill="#111"/><path d="M230.98,321.28l.11-1.65-3.02,1.82c.95-.38,1.94-.44,2.91-.17Z" fill="#111"/><polygon points="216.49 309.11 214.73 307.8 215.21 309.89 216.39 310.78 216.49 309.11" fill="#111"/><path d="M211.32,303.55l-.23,3.33,1.72-1.04,.11-1.67c-.97-1.49-2.21-2.42-3.53-2.64l-2.7,3.23,.74,1.14,3.88-2.34Z" fill="#111"/><path d="M254.63,194.03l.11-1.65-3.02,1.82c.95-.38,1.94-.44,2.91-.17Z" fill="#111"/><polygon points="241.84 206.49 241.24 206.06 240.71 207.99 241.88 208.86 241.84 206.49" fill="#111"/><path d="M243.38,198.24l-.13,.27,.16,.02c.1,1.91,.38,3.79,.82,5.58l.98-2.17,.22-3.32-1.98-.1-.06-.27Z" fill="#111"/><path d="M241.5,198.58c-.16,.12-.3,.28-.42,.49-.12,.21-.21,.45-.27,.72l.91,1.85,1.54-3.13h-.3c-.47-.3-.99-.27-1.45,.07Z" fill="#111"/><polygon points="254.93 223.32 256.21 222.55 257.62 220.12 256.6 219.94 254.77 222.63 254.93 223.32" fill="#111"/><polygon points="259.88 252.6 260.2 253.99 261.92 252.95 260.58 251.36 259.88 252.6" fill="#111"/><path d="M260.92,246.38l.11-1.65-3.02,1.82c.95-.38,1.94-.44,2.91-.17Z" fill="#111"/><polygon points="254.27 262.32 254.86 262.77 255.56 261.54 254.27 260.19 254.38 260.67 254.27 262.32" fill="#111"/><polygon points="248.13 258.84 247.54 258.41 247 260.34 248.17 261.22 248.13 258.84" fill="#111"/><path d="M264.65,266.13l-.13,.27,.16,.02c.1,1.91,.38,3.79,.82,5.58l.98-2.17,.22-3.32-1.98-.1-.06-.27Z" fill="#111"/><path d="M247.79,250.93c-.16,.12-.3,.28-.42,.49-.12,.21-.21,.45-.27,.72l.91,1.85,1.54-3.13h-.3c-.47-.3-.99-.27-1.45,.07Z" fill="#111"/><polygon points="246.44 234.22 244.68 232.9 245.16 234.99 246.33 235.89 246.44 234.22" fill="#111"/><path d="M262,214.36l-.23,3.33,1.72-1.04,.11-1.67c-.97-1.49-2.21-2.42-3.53-2.64l-2.7,3.23,.74,1.14,3.88-2.34Z" fill="#111"/><polygon points="261.22 275.68 262.5 274.9 263.91 272.47 262.9 272.29 261.06 274.98 261.22 275.68" fill="#111"/><polygon points="230.78 283.04 229.91 282.59 229.36 285.44 230.95 284.7 230.78 283.04" fill="#111"/><polygon points="229.51 269.86 228.92 270.34 229.09 272 230.54 271.17 230.24 271.01 229.51 269.86" fill="#111"/><path d="M243.99,312.33c.04-.28,.05-.57,.02-.85-.03-.28-.09-.55-.18-.79l-1.45,.03,.57,3.91,.19-.38c.43-.43,.73-1.12,.85-1.92Z" fill="#111"/><polygon points="247.94 277.03 249.66 275.57 248.35 274.9 247.2 275.87 247.94 277.03" fill="#111"/><path d="M256.03,274.1l-1.47-2.33-.55,2.85,.74,1.16c1.32-.33,2.53-1.36,3.45-2.92l.09-5.45-1.01,.26-1.25,6.43Z" fill="#111"/><polygon points="218.76 270.61 218.35 272.74 218.67 276.04 219.38 274.84 219.2 270.83 218.76 270.61" fill="#111"/></g></g></svg>