<?xml version="1.0" encoding="UTF-8"?><svg id="Layer_1" xmlns="http://www.w3.org/2000/svg" viewBox="0 0 510.81 510.81"><path d="M316.92,503.92c-.16,.05-.33,.1-.49,.15-.03,.02-.05,.04-.08,.06-.98,.47-2.02,.76-3.07,1.04,.99-.14,1.98-.27,2.97-.4,.21-.29,.44-.57,.68-.85Z" fill="#231f20"/><path d="M313.19,506.23c-.38,.38-.73,.77-1.08,1.17,1.15-.53,2.31-1.02,3.49-1.47,0-.02,0-.05,0-.07-.79,.1-1.58,.2-2.37,.32-.01,.02-.02,.04-.04,.06Z" fill="#231f20"/><path d="M301.01,508.41c-3.09,.68-6.16,1.44-9.21,2.29,3.09-.66,6.15-1.46,9.21-2.29Z" fill="#231f20"/><path d="M309.9,508.47c.47-.59,.95-1.16,1.45-1.73-5.25,1.25-10.43,2.79-15.66,4.07h9.89c1.42-.82,2.86-1.61,4.32-2.34Z" fill="#231f20"/><path d="M317.66,504.6c.93-.11,1.86-.21,2.79-.31h0c1.08-.28,2.16-.58,3.23-.89,.87-.7,1.68-1.46,2.46-2.24-2.43,.72-4.86,1.44-7.28,2.17-.43,.4-.83,.82-1.2,1.27Z" fill="#231f20"/><path d="M309.9,510.13c.43-.23,.97-.25,1.46-.39,3.77-1.11,7.15-2.7,10.11-4.69-.43,.12-.86,.25-1.3,.36-3.31,.98-6.49,2.31-9.58,3.84-.23,.29-.46,.59-.69,.89Z" fill="#231f20"/><path d="M31.51,178.65s0-.05,.01-.07c-1.26,.51-2.52,1.03-3.79,1.52-.76,.3-1.53,.59-2.29,.89-.21,.48-.42,.97-.63,1.45,2.23-1.27,4.47-2.52,6.7-3.8Z" fill="#231f20"/><path d="M9.69,190.95c1.84-1.02,3.68-2.04,5.52-3.07,1.66-.93,3.31-1.88,4.96-2.81,.82-.99,1.63-1.98,2.43-2.98-2.05,.79-4.11,1.58-6.16,2.38-.38,.17-.76,.36-1.14,.53-1.93,1.92-3.81,3.9-5.6,5.95Z" fill="#231f20"/><path d="M4.6,191.14c-.66,1.17-1.27,2.37-1.79,3.65,1.46-.81,2.93-1.63,4.39-2.44,1.76-2.11,3.6-4.16,5.51-6.14-.58,.27-1.16,.52-1.73,.8-2.15,1.35-4.27,2.72-6.37,4.13Z" fill="#231f20"/><path d="M20.73,185.92c-.4,.49-.79,.99-1.2,1.47,.87-.49,1.73-.99,2.59-1.49,.16-.34,.33-.69,.49-1.03-.62,.35-1.25,.7-1.87,1.06Z" fill="#231f20"/><path d="M7.7,193.29c3.2-1.4,6.35-2.94,9.43-4.59,.4-.48,.81-.95,1.21-1.43-3.5,1.97-7.01,3.92-10.51,5.88-.04,.05-.09,.1-.13,.15Z" fill="#231f20"/><path d="M24.09,184.02c-.15,.32-.29,.64-.43,.96,.31-.19,.62-.36,.93-.55,2.25-1.38,4.45-2.83,6.63-4.31,.01-.06,.02-.12,.04-.18-1.58,.91-3.17,1.82-4.75,2.72-.8,.45-1.6,.9-2.41,1.36Z" fill="#231f20"/><path d="M46.04,175.6c-1.14,1.13-2.3,2.23-3.5,3.29,.88-.46,1.76-.92,2.64-1.38,.38-.63,.75-1.27,1.11-1.91h-.24Z" fill="#231f20"/><path d="M19.8,192.65c-.26,.49-.52,.98-.79,1.47,.59-.37,1.17-.75,1.76-1.12,.34-.32,.68-.64,1.02-.97,.59-.57,1.17-1.16,1.76-1.74-.42,.25-.85,.5-1.27,.76-.83,.51-1.65,1.06-2.47,1.6Z" fill="#231f20"/><path d="M13.92,196.76c.82-.33,1.65-.65,2.47-.98,.29-.19,.59-.38,.88-.56,.27-.48,.53-.96,.79-1.44-1.33,.91-2.65,1.85-3.94,2.81-.07,.06-.14,.11-.21,.17Z" fill="#231f20"/><path d="M36.04,175.6c-.51,0-1.02,0-1.53,0-.53,0-1.06,.01-1.58,.03-.04,.45-.09,.9-.15,1.35,1.09-.45,2.18-.91,3.26-1.38Z" fill="#231f20"/><path d="M26.09,179.46c1.86-.71,3.73-1.39,5.62-2.05,.08-.52,.14-1.03,.2-1.55-1.89,.8-3.75,1.65-5.6,2.55,.09,.1,.13,.24,.05,.42-.02,.04-.03,.08-.05,.12h0c-.07,.17-.15,.34-.22,.51Z" fill="#231f20"/><path d="M29.43,175.88c-.8,.09-1.59,.19-2.37,.32-1.35,.55-2.7,1.11-4.05,1.67-1.07,.91-2.12,1.84-3.17,2.79,3.13-1.71,6.33-3.31,9.58-4.78Z" fill="#231f20"/><path d="M24.05,180.25c.31-.4,.63-.8,.93-1.2-2.22,1.11-4.41,2.29-6.57,3.51,1.87-.8,3.75-1.56,5.64-2.31Z" fill="#231f20"/><path d="M16.18,182.71c1.27-1.22,2.56-2.42,3.88-3.59-1.48,.64-2.96,1.28-4.43,1.94-1.44,.65-2.87,1.32-4.3,1.99-1.48,1.22-2.83,2.58-4.04,4.07,1.6-.68,3.2-1.34,4.82-1.99,1.35-.82,2.71-1.63,4.08-2.42Z" fill="#231f20"/><path d="M44.31,175.6c-3.45,1.89-6.8,3.94-10.08,6.11-.72,.9-1.46,1.77-2.2,2.65,.32-.17,.64-.34,.96-.51,1.8-.96,3.62-1.9,5.43-2.84,2.15-1.7,4.23-3.5,6.2-5.41h-.31Z" fill="#231f20"/><path d="M42.21,175.6h-1.37c-.64,.19-1.29,.37-1.93,.56-.11,.1-.21,.21-.31,.31-.8,.91-1.6,1.83-2.4,2.74,1.97-1.26,3.98-2.47,6.02-3.62Z" fill="#231f20"/><path d="M7.12,200.85c.1-.13,.2-.27,.3-.4-2.3,.94-4.6,1.87-6.9,2.82-.15,.97-.27,1.96-.35,2.98,2.33-1.77,4.65-3.58,6.95-5.39Z" fill="#231f20"/><path d="M4.16,200.71c1.5-.61,2.99-1.22,4.49-1.83,.41-.52,.83-1.03,1.25-1.55-.13,.08-.25,.15-.38,.23-1.78,1.06-3.57,2.11-5.36,3.15Z" fill="#231f20"/><path d="M13.22,195.98c.37-.28,.74-.54,1.11-.81,1.18-.93,2.37-1.86,3.55-2.78-1.77,1.14-3.56,2.25-5.35,3.35-.65,.78-1.31,1.56-1.94,2.35,.86-.72,1.74-1.42,2.63-2.1Z" fill="#231f20"/><path d="M14.52,200c-.62,.53-1.23,1.08-1.86,1.6-3.04,2.49-6.27,4.92-9.73,6.91-1.04,1.62-2.02,3.28-2.92,4.98,0,1.66,0,3.32,0,4.99,1.08-1.33,2.19-2.64,3.35-3.9,2.18-2.74,4.52-5.35,6.97-7.84,1.43-2.22,2.84-4.46,4.19-6.73Z" fill="#231f20"/><path d="M2.04,217.94c.28-.09,.55-.2,.83-.3,1.02-1.42,2.03-2.85,3.03-4.29-.64,.65-1.26,1.32-1.88,2-.68,.85-1.34,1.72-1.98,2.59Z" fill="#231f20"/><path d="M7.5,215.81c.2-1.2,.34-2.41,.42-3.63-1.11,1.63-2.24,3.25-3.38,4.85,.81-.31,1.61-.64,2.41-.98,.18-.08,.37-.17,.55-.25Z" fill="#231f20"/><path d="M3.92,205.25c-.14-.09-.24-.26-.26-.43-1.19,.92-2.38,1.84-3.58,2.74-.02,.44-.03,.89-.04,1.33,.74-.37,1.47-.76,2.19-1.17,.54-.84,1.12-1.65,1.69-2.47Z" fill="#231f20"/><path d="M14.14,204.48c.06-.09,.13-.17,.19-.26-1.09,1.02-2.15,2.07-3.2,3.13-.71,1.09-1.42,2.18-2.15,3.27-.02,1.58-.16,3.15-.4,4.72,2.31-1.05,4.58-2.2,6.8-3.43,.55-.6,1.1-1.19,1.65-1.79-2.31,1.51-4.75,2.82-7.32,3.86-.45,.18-.72-.39-.56-.73,1.42-3.05,3.11-5.97,4.99-8.75Z" fill="#231f20"/><path d="M32.67,199.16c-1.23,.92-2.45,1.87-3.66,2.83-.27,.54-.56,1.07-.85,1.6,3.48-2.59,6.84-5.38,9.96-8.39-1.83,1.3-3.66,2.61-5.45,3.96Z" fill="#231f20"/><path d="M12.2,217.15c-.76,.71-1.51,1.42-2.27,2.12-.47,.44-1.14-.23-.71-.71,1.36-1.47,2.72-2.94,4.08-4.42-1.61,.84-3.25,1.64-4.91,2.38-.94,5.22-2.89,10.3-5.15,15.06,.8-.63,1.58-1.28,2.34-1.94,.84-2.73,2.04-5.34,3.49-7.8,.96-1.63,2.01-3.19,3.14-4.7Z" fill="#231f20"/><path d="M24.81,207.22c-1.76,1.2-3.55,2.35-5.37,3.46-2.49,4.47-5.11,8.85-7.81,13.19,4.52-4.67,8.62-9.78,12.22-15.16,.33-.49,.64-.99,.96-1.49Z" fill="#231f20"/><path d="M26.14,205.06c.29-.48,.58-.96,.86-1.45-1.6,1.31-3.16,2.67-4.68,4.06,1.24-.82,2.47-1.65,3.68-2.51,.05-.03,.1-.07,.15-.11Z" fill="#231f20"/><path d="M370.34,190.63c.24-.07,.49-.13,.73-.2,.04-.08,.1-.16,.21-.21,2.75-1.27,5.5-2.56,8.24-3.86,.42-.41,.84-.82,1.27-1.23-1.16,.35-2.32,.69-3.48,1.03-.39,.19-.79,.38-1.18,.57-.21,.1-.41,.05-.55-.06-.49,.15-.98,.29-1.48,.44,.14,.22,.12,.55-.15,.71-1.33,.8-2.53,1.74-3.62,2.8Z" fill="#231f20"/><path d="M376.75,185.29c2.08-1.06,4.14-2.16,6.16-3.33,.65-.38,1.3-.77,1.94-1.16,.04-.06,.08-.12,.11-.18-.02,0-.04,.02-.06,.03-.03,.01-.06,.02-.09,.04-2.98,1.5-5.88,3.18-8.8,4.82,.24-.07,.49-.14,.73-.22Z" fill="#231f20"/><path d="M374.44,185.18c1.16-.64,2.32-1.27,3.47-1.92-.73,.25-1.46,.49-2.2,.73-.44,.38-.85,.8-1.28,1.19Z" fill="#231f20"/><path d="M384.52,178.88c.76-.58,1.52-1.16,2.27-1.74,.25-.19,.49-.38,.74-.58,.03-.04,.06-.08,.09-.12-1.25,.45-2.5,.93-3.73,1.44-.04,.06-.08,.12-.15,.16-1.17,.78-2.35,1.59-3.51,2.42,1.42-.54,2.85-1.08,4.28-1.59Z" fill="#231f20"/><path d="M382.99,176.31c-1.95,1.13-3.9,2.26-5.86,3.39,1.13-.5,2.27-.97,3.41-1.43,.21-.1,.42-.2,.64-.29,1.12-.74,2.21-1.53,3.26-2.38h-.06c-.46,.24-.92,.47-1.39,.71Z" fill="#231f20"/><path d="M389.31,182.88c-.15,.18-.3,.34-.45,.52,.46-.06,.91-.1,1.36-.19,.53-.22,1.06-.44,1.59-.67,.66-.46,1.29-.94,1.9-1.46-.63,.21-1.27,.42-1.9,.62-.84,.39-1.67,.78-2.5,1.17Z" fill="#231f20"/><path d="M376.43,191.93c.08-.04,.15-.08,.23-.12,1.34-.7,2.69-1.4,4.04-2.09,.31-.25,.62-.48,.93-.73-1.75,.95-3.49,1.92-5.2,2.95Z" fill="#231f20"/><path d="M371.95,193.55c.08-.06,.16-.11,.24-.17,.74-1.02,1.55-1.97,2.42-2.87-1.85,.54-3.7,1.06-5.57,1.54-.24,.29-.48,.57-.7,.88-1.12,1.59-2.06,3.31-3.02,5.01,1.11-.68,2.2-1.39,3.29-2.11,1.05-.74,2.12-1.47,3.19-2.18,.05-.03,.1-.06,.15-.09Z" fill="#231f20"/><path d="M389.93,186.18c-1.76,.89-3.53,1.78-5.29,2.67-.11,.3-.21,.6-.33,.89-.28,.71-.59,1.42-.95,2.1,3.08-2.16,6.24-4.2,9.31-6.35-.91,.23-1.83,.45-2.74,.69Z" fill="#231f20"/><g><polygon points="158.51 149.49 152.38 130.57 149.48 153.14 157.6 157.73 158.51 149.49" fill="#231f20"/><polygon points="99.54 109.44 95.58 106.14 86.33 116.24 89.83 119.32 99.54 109.44" fill="#231f20"/><path d="M379.63,343.06c-.18-.06-.36-.23-.51-.49-.15-.26-.27-.59-.35-.98-.08-.39-.11-.81-.1-1.23l-1.28,2.94c-.03,.4,0,.81,.05,1.2,.06,.39,.15,.74,.27,1.03,.12,.29,.28,.51,.44,.65,.17,.13,.35,.18,.52,.13,.18,.05,.35,0,.52-.13,.17-.13,.32-.36,.44-.65,.12-.29,.22-.64,.27-1.03,.06-.39,.07-.8,.05-1.2l.22-.36c-.17,.14-.36,.18-.54,.12Z" fill="#231f20"/><polygon points="144.13 369.81 143.13 363.65 140.35 361.79 143.26 372.03 144.13 369.81" fill="#231f20"/><polygon points="345.18 346.31 341.31 352.19 345.18 361.07 349.05 361.07 347.77 349.25 345.18 346.31" fill="#231f20"/><path d="M128.7,364.94l-.84,2.15,.22-.36c1.3-.42,2.48-1.89,3.34-4.15-.66-1.36-1.53-.57-2.72,2.36Z" fill="#231f20"/><polygon points="360.59 378.77 360.59 375.83 359.27 378.77 360.59 378.77" fill="#231f20"/><polygon points="82.98 362.5 81.7 371.39 82.98 374.33 84.08 374.61 86.67 371.68 87.95 362.79 89.23 362.79 88.82 360.95 88.14 362.5 82.98 362.5" fill="#231f20"/><path d="M89.33,344.81c-1.09,.29-2.18-.24-3.12-1.51-.27-.52-.57-.92-.91-1.16-.33-.25-.68-.34-1.03-.27h-1.28l2.56,2.94,3.42,15.67,2.96-6.78-2.59-8.88Z" fill="#231f20"/><path d="M147.41,445.05l-2.75-1.86-1.72,12.68c1.8-.89,3.39-3.26,4.47-6.67,.14-.25,.25-.56,.32-.92,.08-.36,.12-.76,.12-1.15s-.04-.79-.12-1.15c-.08-.36-.19-.68-.32-.92Z" fill="#231f20"/><path d="M2.28,432.68c-.12,.28-.27,.5-.44,.63-.08,.06-.17,.11-.25,.13h1.02v-2.34c0,.2-.03,.39-.06,.58-.06,.38-.15,.72-.27,1Z" fill="#231f20"/><path d="M2.61,430.5v.6c0-.2,0-.4,0-.6Z" fill="#231f20"/><path d="M1.59,433.44h-.26c.09,.02,.18,.02,.26,0Z" fill="#231f20"/><polygon points="166.85 462.17 166.98 470.27 170.63 470.27 169.6 464.03 166.85 462.17" fill="#231f20"/><path d="M422.55,402.41l-1.28,5.88,2.59,2.94,1.28-5.87c-.32-.87-.72-1.58-1.16-2.08-.45-.51-.93-.8-1.43-.86Z" fill="#231f20"/><polygon points="408.39 402.41 413.55 405.35 416.11 396.47 412.27 393.53 408.39 402.41" fill="#231f20"/><path d="M167.85,411.94l.39,.46c-.1-.34-.17-.7-.27-1.03l-.13,.57Z" fill="#231f20"/><polygon points="88.82 360.95 88.98 360.57 88.96 360.47 88.79 360.86 88.82 360.95" fill="#231f20"/><path d="M130.01,500.86c.28,.49,.51,1.1,.68,1.8,.17,.7,.27,1.48,.29,2.28,.04,.81,.15,1.59,.32,2.31,.17,.71,.4,1.34,.68,1.85l.22-.58c1.29,1.73,2.79,2.51,4.28,2.22l.88-2.15v-4.16l-.94-2-6.41-1.58Z" fill="#231f20"/><polygon points="421.21 170.37 423.77 173.3 426.37 164.42 422.49 164.42 421.21 170.37" fill="#231f20"/><path d="M497.17,167.36v.69c.01-.23,.01-.46,0-.69Z" fill="#231f20"/><path d="M496.16,170.37h-.27c.09,.03,.18,.02,.27,0Z" fill="#231f20"/><path d="M496.16,170.37h1.01v-2.32c0,.17-.02,.35-.05,.51-.06,.39-.15,.74-.27,1.03-.12,.29-.28,.51-.44,.65-.08,.07-.17,.11-.25,.13Z" fill="#231f20"/><path d="M392.84,167.14h0c0-.08,.02-.14,.02-.22l-.03,.22Z" fill="#231f20"/><path d="M392.84,167.14c-.04,1.1-.15,2.18-.36,3.18-.16,.73-.36,1.41-.6,2.01l3.25-7.44c-.63,1.31-1.44,2.11-2.29,2.26Z" fill="#231f20"/><path d="M391.89,172.33l-.33,.76c.12-.24,.23-.5,.33-.76Z" fill="#231f20"/><path d="M395.14,164.88c.1-.21,.2-.44,.3-.68l-.3,.68Z" fill="#231f20"/><polygon points="440.67 165.75 439.8 165.75 437.23 162.81 435.92 165.75 437.23 171.7 440.67 165.75" fill="#231f20"/><path d="M498.98,178.86c.17-.13,.32-.34,.45-.62,.13-.28,.22-.63,.28-1.01,.06-.38,.08-.79,.06-1.2l.03-.21c-.19-.08-.38-.05-.56,.08-.18,.13-.35,.36-.48,.68-.13,.31-.23,.69-.28,1.11-.05,.42-.06,.86-.02,1.29,.18,.06,.35,.02,.52-.1Z" fill="#231f20"/><polygon points="450.11 127.56 447.52 121.68 444.95 127.56 448.83 130.57 450.11 127.56" fill="#231f20"/><path d="M458.08,163.03l2.09-11.82h.5l-.31-1.15-.19,.93c-3.19-2.01-6.5-2.93-9.81-2.72l2.56,8.88,5.16,5.88Z" fill="#231f20"/><polygon points="442.36 162.81 440.67 165.75 442.36 165.75 442.36 162.81" fill="#231f20"/><path d="M461.95,139.38c-.03-1.13-.16-2.23-.38-3.23-.22-1.01-.53-1.91-.9-2.64l-3.87,2.94,3.56,13.61,.31-1.79c.92-2.46,1.38-5.65,1.28-8.88Z" fill="#231f20"/><polygon points="487.7 151.2 490.29 154.14 494.14 145.33 490.29 145.33 487.7 151.2" fill="#231f20"/><path d="M448.61,93.25c.22-1.01,.53-1.91,.91-2.63l.03-.43c-.34-.81-.75-1.45-1.2-1.89s-.94-.68-1.43-.69l-1.28,5.95,2.59,2.94c.02-1.13,.15-2.23,.37-3.24Z" fill="#231f20"/><path d="M365.81,142.65v.92c.03-.31,.02-.61,0-.92Z" fill="#231f20"/><path d="M365.79,142.32c.01,.11,.02,.22,.02,.33v-2.09h-.71c.16,.15,.3,.37,.42,.66,.12,.31,.22,.69,.27,1.09Z" fill="#231f20"/><path d="M440.49,131.96v-2.94l-3.84,2.94,2.56,5.87c.84,0,1.28-1.93,1.28-5.87Z" fill="#231f20"/><path d="M429.37,137.91c-.15-.1-.32-.13-.48-.08-.02,.4,0,.8,.06,1.18,.06,.38,.15,.72,.27,1,.12,.28,.27,.5,.44,.63,.16,.13,.34,.18,.51,.13l.03-.43c0-.37-.05-.73-.12-1.06-.07-.33-.17-.62-.29-.86-.12-.24-.27-.41-.42-.51Z" fill="#231f20"/><path d="M461.37,105.38h-.26c.09,.02,.18,.02,.26,0Z" fill="#231f20"/><path d="M462.39,103.04c0,.19-.03,.39-.06,.57-.06,.38-.15,.72-.28,1-.12,.28-.27,.5-.44,.63-.08,.06-.17,.11-.25,.13h1.02v-2.34Z" fill="#231f20"/><path d="M462.39,102.44v.6c0-.2,0-.4,0-.6Z" fill="#231f20"/><polygon points="376.09 137.62 375.06 133.61 374.81 134.68 376.09 137.62" fill="#231f20"/><path d="M399.27,108.1l1.31-5.88-1.31-3.01,.03-.22c-.19-.07-.38-.03-.56,.11-.18,.14-.34,.38-.47,.7-.13,.32-.22,.71-.27,1.13-.05,.42-.05,.86,0,1.29,.07,2.27,.53,4.38,1.28,5.88Z" fill="#231f20"/><path d="M375.06,133.61l3.63-16.62c.52,.17,1.06,.06,1.56-.33,.5-.39,.96-1.04,1.33-1.9,.37-.86,.65-1.91,.82-3.07,.17-1.16,.21-2.38,.13-3.58h6.44l-6.44-2.94c-.84,3.94-2.66,4.87-5.78,2.94-1.89-1.45-3.83-2.44-5.81-2.94l1.31,17.7,2.81,10.75Z" fill="#231f20"/><path d="M365.07,140.51c-.17-.15-.36-.21-.54-.17l-.03,.22h.6s-.02-.04-.03-.05Z" fill="#231f20"/><path d="M395.46,59.59c0-1,.41-1.5,1.28-1.5v-2.94l-2.59,5.88c.84,0,1.31-.43,1.31-1.43Z" fill="#231f20"/><polygon points="81.76 12.41 81.76 15.35 83.08 12.41 81.76 12.41" fill="#231f20"/><path d="M446.93,149.66c.18,.06,.35,.02,.52-.1,.17-.13,.32-.34,.45-.62,.13-.28,.22-.63,.28-1.01,.06-.38,.08-.79,.06-1.2h-1.31v2.94Z" fill="#231f20"/><path d="M365.24,343l-2.56,5.88,.53,.62v5.63c.17,.04,.35,0,.51-.13,.16-.13,.31-.34,.44-.63,.12-.28,.22-.63,.27-1,.06-.38,.08-.78,.06-1.18l.22-.36c0-.2,0-.4-.02-.59l.55,.65,2.59-3.01-1.31-5.88h-1.28Z" fill="#231f20"/><polygon points="48.98 97.89 46.41 97.89 46.41 109.71 50.29 103.84 48.98 97.89" fill="#231f20"/><path d="M60.57,115.66v-20.71c-.31,6.27-1.18,12.32-2.56,17.77l2.56,2.94Z" fill="#231f20"/><path d="M173.19,65.48l2.09-11.82h.5l-.31-1.15-.19,.93c-3.19-2.01-6.5-2.93-9.81-2.72l2.56,8.88,5.16,5.88Z" fill="#231f20"/><polygon points="142.16 89.97 140.35 78.89 137.62 87.51 139.76 92.03 142.16 89.97" fill="#231f20"/><path d="M126.18,84.69l3.16,19.4c-.67-6.12-.77-12.49-.31-18.7l-2.85-.7Z" fill="#231f20"/><polygon points="156.57 128.03 157.35 124.22 155.21 119.71 152.9 128.04 153.72 127.33 156.57 128.03" fill="#231f20"/><polygon points="153.22 174.81 154.72 167.25 150.63 167.54 149.89 171.39 153.22 174.81" fill="#231f20"/><path d="M136.89,157.51c3.3-.68,6.54-2.47,9.61-5.33l-3.76-6.27-5.73-1.36-.16,12.75-.47,.4,.47,.82,.03-1.02Z" fill="#231f20"/><polygon points="152.9 128.04 151.32 129.39 151.77 132.14 152.9 128.04" fill="#231f20"/><path d="M136.99,169.82c.2,1.03,.49,1.95,.85,2.72,.36,.77,.78,1.36,1.25,1.75l3.18-5.86-5.42-9.89-.02,1.93c-.49,3.04-.43,6.4,.16,9.35Z" fill="#231f20"/><polygon points="435.68 364.98 439.01 368.4 440.51 360.84 436.42 361.13 435.68 364.98" fill="#231f20"/><path d="M428.53,339.52l-5.73-1.36-.16,12.75-.47,.4,.47,.82,.03-1.02c1.18-.24,2.34-.63,3.5-1.15l-1.34,6.18-2.19-4-.02,1.93c-.49,3.04-.43,6.4,.16,9.35,.2,1.03,.49,1.95,.85,2.72,.36,.77,.78,1.36,1.25,1.75l3.18-5.86-2.63-4.8,2.18-5.04-1.05-2.41c1.95-.94,3.87-2.27,5.73-3.99l-3.76-6.27Z" fill="#231f20"/><polygon points="391.73 383.68 395.33 380.59 396.86 373.01 393.98 372.34 391.73 383.68" fill="#231f20"/><path d="M388.37,396.04l-2.88-.67c-2.55,6.25-4.14,14.25-4.53,22.77l5.59,17.31,1.95-4.81-4.07-24.97,5.74,1.43-1.81-11.08Z" fill="#231f20"/><path d="M199.56,46.66c-.11,0-.19-.03-.26-.08h0c.05,.08,.08,.17,.06,.28,0,.05-.02,.09-.03,.13h0s-.01,.03-.02,.04c-.04,.19-.11,.36-.21,.52-.05,.12-.09,.23-.14,.35,.99-.41,1.99-.8,3-1.16-.01-.01-.02-.03-.03-.04-.79,.07-1.62-.03-2.39-.03Z" fill="#231f20"/><path d="M201.3,50c-.02-.08-.03-.15-.05-.23-.56,.15-1.12,.3-1.68,.45-.1,.14-.19,.28-.29,.41,.31-.17,.81,0,.76,.42,0,.05-.03,.09-.04,.13h.02c-.18,.72-.32,1.44-.47,2.15,.09-.14,.16-.29,.26-.44,.15-.23,.46-.28,.69-.17,.36-.59,.75-1.17,1.21-1.7-.03-.06-.06-.11-.09-.17-.4-.02-.62-.59-.32-.86Z" fill="#231f20"/><path d="M205.92,47.02c0,.18,.01,.36,.02,.53,.85-.19,1.7-.36,2.56-.48,.06,0,.12,0,.18,.01,.19-.07,.37-.14,.56-.21,.35-.41,.64-.85,.87-1.32-1.36,.23-2.71,.55-4.04,.91-.05,.18-.11,.37-.16,.55Z" fill="#231f20"/><path d="M324.61,497.63c.54-.07,1.08-.15,1.62-.24,.25-.13,.49-.25,.74-.38,1.01-1.04,1.99-2.11,2.94-3.2-1.86,1.12-3.58,2.48-5.31,3.81Z" fill="#231f20"/><path d="M322.95,498.87c-.25,.18-.5,.36-.75,.54-.88,.61-1.82,1.2-2.8,1.73-.11,.1-.23,.2-.34,.31,.26-.07,.52-.15,.78-.22,1.2-.9,2.48-1.7,3.76-2.43-.14,.02-.27,.04-.41,.05-.08,0-.16,.01-.24,.02Z" fill="#231f20"/><path d="M314.6,492.14c2.57-1.19,5.17-2.33,7.78-3.44,.21-.09,.43-.18,.64-.27-2.52,.68-5,1.52-7.41,2.53-1.54,.65-3.05,1.38-4.52,2.19,1.17-.33,2.34-.67,3.51-1.01Z" fill="#231f20"/><path d="M309.09,494.72c-.18,.03-.32-.02-.43-.12-.79,.51-1.56,1.05-2.31,1.62,1-.53,2.01-1.04,3.02-1.55-.09,.02-.18,.03-.27,.04Z" fill="#231f20"/><path d="M293.9,501.87c-.25,.07-.49,.15-.74,.22-2.42,.82-4.81,1.74-7.17,2.72,1.65-.23,3.3-.38,4.96-.5,1.13-.65,2.29-1.28,3.46-1.86,.27-.18,.55-.35,.82-.54-.27,.05-.55,.09-.82,.14-.23,.04-.4-.05-.51-.19Z" fill="#231f20"/><path d="M240.6,410.3c-.74,.21-1.48,.41-2.23,.54-.25,.04-.48-.11-.58-.31-.78,.34-1.56,.67-2.34,1.02,1.34-.21,2.67-.45,3.99-.73,.8-.17,1.6-.36,2.4-.55-.42,0-.84,.01-1.25,.02Z" fill="#231f20"/><path d="M245.8,410.39c-.19,.13-.38,.26-.56,.4-.16,.12-.32,.11-.45,.04-.33,.24-.65,.48-.98,.73,1.08-.25,2.14-.58,3.15-1.01-.39-.08-.78-.12-1.17-.15Z" fill="#231f20"/><path d="M509.74,199.46c-4.42-14.93-16.14-23.83-31.76-23.84-21.85-.02-43.7-.05-65.55-.04,1.14-1.87,2.06-4.34,2.69-7.21,.68-3.11,.99-6.57,.91-10.04-.05-7.01,.38-14,1.28-20.71-4.28,5.95-6.44,11.82-6.44,17.7l1.25,20.25c-.98,0-1.96,0-2.95,0-1.38,.87-2.76,1.72-4.17,2.54-.58,.34-1.18,.66-1.77,.99-.33,.73-.67,1.46-1.03,2.17,.06,.15,.12,.29,.19,.44,.25,.52-.41,.97-.75,.65-.04,.07-.08,.14-.12,.22,3.02-.52,6.06-.91,9.14-1.11,.4-.03,.59,.44,.43,.75-.88,1.73-2.06,3.18-3.44,4.41l-1.1-.42c1.24-1.05,2.34-2.25,3.2-3.67-2.98,.23-5.93,.64-8.87,1.17-.56,.97-1.13,1.93-1.75,2.86-.27,.4-.93,.26-.93-.25,0-.71,.04-1.41,.11-2.1-.21,.04-.43,.09-.64,.14-.25,.69-.47,1.38-.66,2.09-.14,.55-.98,.43-.98-.13,0-.54,.03-1.08,.07-1.62-.13,.03-.26,.06-.39,.08-.48,1.14-.72,2.38-1.09,3.55-.44,1.4-1.06,2.71-2.09,3.77-.34,.35-1,0-.84-.49,.09-.28,.2-.55,.29-.82h.84l-.46-1.06c.47-1.29,.96-2.58,1.49-3.85-4.06,2.88-8.31,5.49-12.29,8.47-.47,.35-.99-.4-.61-.79,1.1-1.13,1.79-2.59,2.36-4.04-.68,.34-1.36,.69-2.04,1.04-3.33,2.63-6.91,4.95-10.59,7.05-.45,.26-.9-.25-.68-.68,.09-.18,.2-.34,.29-.52-1.33,.75-2.65,1.51-3.96,2.29-.16,.09-.3,.09-.42,.04-.58,.36-1.16,.71-1.75,1.04-.43,.25-.94-.25-.68-.68,1.34-2.23,2.52-4.58,4.02-6.71-2.94,.75-5.9,1.44-8.89,2.01-.47,.09-.86-.46-.49-.84,.69-.69,1.39-1.37,2.09-2.06,.02-.04,.05-.08,.08-.12,.03-.04,.06-.08,.1-.11-2.05,.66-4.1,1.33-6.13,2.03-.62,.21-.86-.74-.27-.96,.4-.15,.79-.32,1.19-.48l.2,.46h.94c-.1-.26-.19-.53-.28-.8,2.24-.92,4.44-1.92,6.63-2.95,.17-.22,.35-.44,.51-.66-.77,.33-1.53,.66-2.29,.99-.58,.26-1.09-.6-.5-.86,.12-.06,.25-.12,.37-.17-.53,.16-.87-.67-.37-.92,1.29-.64,2.57-1.31,3.85-1.97,1.66-1.09,3.21-2.37,4.85-3.47,.42-.28,.81,.19,.71,.58,.08-.04,.15-.08,.23-.12,.7-1.49,1.56-2.94,2.1-4.51,.21-.61,1.17-.34,.96,.27-.41,1.2-1.03,2.33-1.62,3.48,.53-.28,1.06-.56,1.59-.84,2.36-1.73,4.8-3.35,7.35-4.79-13.04,.02-26.07,.06-39.11,.13-2.31,.01-3.8-.27-4.74-1.03l1.81-4.36-2.52-11.04-.74,5.46c.03-7.6,.05-15.2,.07-22.8l.47-1.13c-.11-1.54-.27-3.05-.45-4.54,.03-16.94,.03-33.87,.03-50.81l.71-.6-.71-4.33c0-15.27-.01-30.54-.02-45.81C335.21,13.12,322.06,.02,300.38,.01c-30.26-.01-60.52-.02-90.78,0-20.59,.02-33.99,13.44-34,34.05,0,11.73-.01,23.47-.02,35.2l-1.6-3.43-.3,6.53,1.9,4.81c-.01,31.02,0,62.04,.12,93.05,.02,4.44-1.17,5.49-5.53,5.47-39.76-.14-79.51-.12-119.27-.1-.86,.47-1.73,.92-2.6,1.37-.98,1.2-1.95,2.41-2.92,3.62-.52,1.08-1.07,2.14-1.68,3.18-3.36,5.72-7.91,10.7-13.08,14.83-.18,.41-.36,.82-.54,1.22-.02,.05-.05,.1-.07,.15,3.88-3.01,7.88-5.86,11.92-8.65,.49-.34,.97,.39,.61,.79-2.59,2.84-5.4,5.48-8.33,7.96-2.33,1.97-4.74,3.85-7.23,5.63-3.21,5.42-7.13,10.46-11.24,15.15-2.05,2.33-4.18,4.6-6.43,6.74-1.21,1.91-2.43,3.81-3.65,5.71-.32,.49-1.02,.16-.91-.39,.1-.52,.22-1.04,.34-1.55-1.61,1.34-3.29,2.59-5.08,3.67,0,21.96-.01,43.93,0,65.89,.01,20.94,13.34,34.28,34.28,34.29,26.37,.01,52.75,.03,79.12,.01,1.78,3.01,3.1,3.42,3.85,1.41,.2-.44,.38-.92,.55-1.41,17.38-.01,34.76-.04,52.15-.11,4.57-.02,5.76,1.2,5.74,5.75-.1,26.69-.12,53.38-.12,80.07l-7.34-8.54c2.9,10.05,5.37,20.7,7.34,31.87,0,10.42,0,20.85,0,31.27,0,17.86,6.69,27.6,23.41,34.18,.57,.22,1.02,.72,1.53,1.1h76.06c1.86-.62,3.72-1.27,5.55-1.97-1.18,.26-2.38,.46-3.6,.58-.47,.05-.61-.54-.35-.84-.46,.05-.93,.1-1.4,.14-.53,.04-.63-.68-.25-.93,4.95-3.28,10.67-4.98,16.35-6.66,1.69-.57,3.38-1.1,5.1-1.56,.23-.07,.46-.15,.68-.22,.08-.03,.15-.02,.22,0,1.06-.27,2.12-.51,3.19-.74,.14-.08,.28-.17,.42-.25,.01-.1,.06-.19,.14-.27,1.93-1.92,4.13-3.56,6.47-4.97,4.4-2.65,9.28-4.51,14.24-5.8,1.63-.42,3.29-.78,4.96-1.08,2.14-.87,4.29-1.73,6.44-2.59,.28-1.83,.44-3.71,.44-5.67,.01-10.56,.02-21.13,.03-31.69l2.76,6.36,2.59-11.82-5.16-11.82-.19,.87c.01-23.49,0-46.98-.09-70.47l1.78-.65-1.8-3.97c-.02-4.48-.02-8.96-.05-13.45-.02-5.1,1.33-6.25,6.3-6.23,44.71,.2,89.43,.12,134.15,.12,17.85,0,27.57-6.68,34.17-23.41,.22-.57,.72-1.02,1.1-1.53v-108.74c-.93-.4-.84-1.3-1.07-2.08ZM44.59,274.52c-.53-.21-1.08-.33-1.64-.42,.04,.07,.06,.15,.06,.23,.1-.03,.2-.05,.3-.08,.39-.11,.83,.37,.56,.73-2.21,3.03-5.57,4.5-9.18,4.83-.87,.66-1.77,1.28-2.65,1.87-.21,.14-.48,.06-.63-.12-.08-.08-.12-.18-.13-.29,0-.05-.02-.09-.03-.14-.09,.04-.17,.1-.26,.13-.41,.17-.79-.4-.56-.73,.34-.51,.65-1.02,.97-1.52-1.03,.53-2.07,1.02-3.2,1.32-.1,.02-.18,.02-.26,0-.58,.46-1.16,.93-1.74,1.39-.5,.4-1.11-.2-.71-.71,.66-.82,1.41-1.56,2.2-2.25-.12-.15-.16-.37-.06-.57,1.12-2.17,3.14-3.41,5.42-4.1,.35-.23,.7-.47,1.04-.72-.54,.26-1.06,.54-1.58,.85-.44,.26-.83-.22-.71-.6-.26,.07-.53,.13-.8,.18-.63,.11-.9-.85-.27-.96,2.71-.48,4.91-2.19,7.21-3.6,.48-.85,.86-1.74,1.07-2.7,.13-.63,1.1-.36,.96,.27-.24,1.14-.71,2.21-1.32,3.21-.1,.18-.21,.34-.32,.51,.42-.16,.84-.32,1.25-.49,.55-.22,.84,.63,.39,.91-.34,.21-.72,.37-1.12,.48,.36,.05,.58,.5,.29,.84-.31,.36-.64,.7-.98,1.03,.12,0,.23,0,.34,0,2.1-.44,4.35-.54,6.36,.23,.59,.23,.33,1.2-.27,.96Zm11.17-35.08c0-.06,0-.13,0-.19v-.08s-.03-.08-.04-.12c-.06,0-.11,0-.02-.01-.07,.02-.15,.03-.22,.06,0,0-.07,.03-.1,.04l-.09,.04c-.09,.04-.18,.09-.27,.14-.92,.5-1.76,1.14-2.7,1.61-.24,.12-.54,.07-.68-.18-.13-.22-.06-.56,.18-.68,.58-.29,1.12-.63,1.66-.98,.45-.29,.9-.59,1.39-.81,.41-.18,.9-.34,1.33-.11,.46,.25,.56,.8,.56,1.28,0,.64-.99,.64-1,0Zm28.81-23.62c-.56,0-.68-.84-.13-.98,1.4-.35,2.8-.7,4.19-1.05,.62-.16,.88,.79,.28,.96,.56-.03,1.11-.07,1.67-.13,.3-.03,.59-.08,.88-.13-.23-.43,.38-.96,.81-.57,.42,.38,1.41,.09,1.88-.03,.47-.12,1-.4,1.49-.42,.18,0,.34,.1,.43,.25h0c.12,.19,.08,.45-.08,.61-.43,.43-1.23,.54-1.78,.66-1.05,.24-2.11,.43-3.17,.57-2.15,.28-4.31,.26-6.47,.26Zm16.33,39.83c-2.89,.96-5.84,1.82-8.85,2.33-.63,.11-.9-.86-.27-.96,3.01-.51,5.96-1.37,8.85-2.33,.61-.2,.87,.76,.27,.96Zm50.99,31.25c-.16,.61-1.31,.78-1.83,.91-.4,.1-.65-.25-.62-.57-5.14,.5-10.31,.96-15.42,1.7,3.91,.05,7.83,.2,11.71,.67,.62,.08,.66,.99,0,1-.76,.01-1.49,.21-2.23,.37-.04,0-.08,.01-.13,.02-.32,.13-.65,.25-.97,.38,.26,.19,.53,.33,.81,.48,.53-.34,1.08-.63,1.69-.84,.4-.14,.64,.22,.6,.55,.2,.04,.4,.12,.59,.28,.13,.11,.15,.27,.13,.42,.2,.05,.39,.13,.57,.28,.01,0,.01,.02,.02,.03,.47-.12,.93-.25,1.36-.44,.21-.09,.42-.2,.56-.34,.03-.03,.07-.05,.05-.05,.02,0,0-.03,.01,0-.27-.58,.6-1.09,.86-.5,.67,1.47-1.65,2.05-2.62,2.3-2.22,.57-4.51,.86-6.77,1.23-.63,.1-.88-.75-.27-.96,.55-.19,1.05-.47,1.52-.78-1.36,.01-2.72,.04-4.05,.35-.63,.15-.87-.76-.27-.96,1.05-.36,2.08-.79,3.1-1.23-1.69,.12-3.38,.12-5.06,.12h0c-.23,0-.46,0-.69,0-.64,0-.64-1,0-1,.23,0,.46,0,.69,0h0c.65,0,1.3-.01,1.94-.09,.04,0,.07,0,.11-.01,.3-.04,.59-.09,.88-.17-3.31-.13-6.62-.13-9.92-.13-.55,0-.69-.87-.13-.98,2.34-.46,4.69-.83,7.06-1.15,4.27-.58,8.56-.99,12.84-1.41,.95-.09,1.96-.31,2.91-.25,.43,.03,1.11,.17,.95,.76ZM219.96,39.65c-2.54,.69-5.11,1.23-7.7,1.73-.16,1-.35,2-.63,2.96,.17-.02,.33-.06,.5-.07,.4-.05,.59,.45,.43,.75-.36,.67-.86,1.17-1.39,1.63,.08,.22,.03,.5-.18,.64-.86,.58-1.67,1.22-2.44,1.9-.11,.26-.24,.51-.36,.76,.23,.13,.37,.4,.19,.66-.04,.07-.1,.12-.14,.19,3.59,.19,7.21-.42,10.76-.92,.63-.09,.88,.74,.27,.96-5.37,2-11.19,2.88-15.96,6.24-.15,.1-.31,.09-.45,.02-.16-.05-.28-.17-.29-.37,0-.02,0-.04,0-.06,0,0,0-.01,0-.02v-.03s0-.06,.01-.09c.1-.98,.19-1.96,.26-2.94-.08-.04-.16-.1-.2-.19-.22-.45-.36-.91-.46-1.36-.67,.86-1.19,1.82-1.78,2.74,.21,.04,.39,.19,.38,.47,0,.04-.01,.09-.02,.13h0c-.06,.4-.24,.79-.46,1.15-.39,.8-.89,1.47-1.59,2.02-.32,.32-.68,.58-1.09,.66-.02,0-.05,.01-.07,.02-.02,0-.04,.01-.06,.01-.02,0-.04-.01-.06-.01-.02,0-.04,0-.06-.01-.09-.02-.17-.06-.23-.13h0s-.06-.08-.08-.12c-.03-.07-.05-.14-.05-.22h0c0-.09,.01-.18,.05-.26,.94-1.91,1.28-3.95,1.7-6-.39,.19-.8,.33-1.14,.44-.29,.1-.53-.11-.6-.36-.18,.27-.35,.54-.5,.83-.26,.5-1.1,.15-.91-.39,.24-.7,.54-1.37,.86-2.03-1.05,.23-2.1,.43-3.17,.57-.5,.06-.68-.72-.25-.93,1.31-.65,2.64-1.28,3.99-1.88,.08-.33,.25-.59,.48-.86,.01-.01,.03-.03,.05-.04,.47-.82,.87-1.66,1.22-2.53-1.13,.03-2.32,.34-3.26,.63-.57,.17-.84-.61-.39-.91,.4-.26,.81-.5,1.22-.75-.1-.21-.06-.49,.18-.65,2.51-1.64,5.33-2.36,8.21-2.95,.3-.12,.6-.24,.89-.36,.13-.43,.27-.85,.45-1.28,.02-.13,.09-.24,.23-.31,.04-.02,.08-.03,.12-.05h0c1.59-.72,3.3-.72,5.02-.72,.35,0,.58,.4,.47,.69,.08,0,.15,0,.23,0,.34,0,.54,.31,.48,.63-.01,.05-.02,.11-.03,.17,2.38-.5,4.81-.79,7.24-.8,.57,0,.68,.84,.13,.98Zm42.06,361.7c-2.07,1.03-4.15,2.05-6.22,3.09-.33,.29-.71,.45-1.11,.56-.26,.13-.52,.26-.77,.39,.44-.06,.88-.11,1.33-.14,.73-.22,1.46-.43,2.19-.61,.37-.09,.61,.21,.62,.51,.07,0,.14,0,.21,0,1.28,0,2.59,.02,3.86-.16,.54-.12,1.07-.24,1.61-.35,.63-.13,.88,.77,.27,.96-.51,.16-1.04,.27-1.57,.35-1.84,.4-3.67,.84-5.48,1.32-1.86,.49-3.71,1.01-5.56,1.53-.57,.58-1.19,1.11-1.89,1.56-2.24,1.46-4.91,2.14-7.52,2.58-.44,.07-.91-.48-.49-.84,.43-.36,.88-.69,1.33-1.03-3.43,.83-6.89,1.52-10.41,1.88-.49,.05-.68-.72-.25-.93,1.14-.57,2.3-1.11,3.46-1.64-.21,0-.43,.01-.64,.01-.47,0-.71-.71-.25-.93,1.82-.87,3.78-.98,5.71-1.45,.2-.05,.36,.01,.47,.12,2.93-1.19,5.89-2.33,8.84-3.49v-.58c0-.17,.09-.36,.25-.43,1.99-.96,4.25-1,6.32-1.69,.89-.39,1.77-.78,2.64-1.19-5.65,1.62-11.31,3.23-16.96,4.85-.62,.18-.88-.79-.27-.96,7.34-2.1,14.68-4.19,22.02-6.29,.55-.16,.88,.64,.39,.91-.75,.42-1.52,.8-2.29,1.19,.42,.07,.66,.67,.2,.9Zm23.82-77.37c.07-.07,.15-.12,.24-.16,0-.01,.02-.02,.06-.02,.19-.08,.4-.13,.6-.17,.2-.09,.44-.2,.55-.3,.27-.25,.61-.12,.77,.11,.37-.05,.74-.11,1.12-.15,1.47-.16,2.94-.27,4.39-.55,.53-.1,.92,.65,.39,.91-.59,.3-1.18,.62-1.76,.95,.19,0,.38-.02,.58-.02,.64,0,.64,1,0,1-1.08,0-2.09,.11-3.13,.45-.14,.05-.27,.02-.37-.04-.03,.01-.06,.03-.1,.04-.38,.13-.66-.26-.62-.58-.21-.01-.4-.12-.46-.35h0c-.38,0-.77,.02-1.15,.02-.2,0-.39-.14-.46-.32-.19,.05-.39,.08-.54-.02-.27-.18-.34-.55-.1-.79Zm7.64,8.98c-.6,.3-1.22,.58-1.83,.85-.51,1.5-1.99,2.32-3.43,2.8-.42,.14-.85,.25-1.28,.34-.12,.09-.28,.12-.44,.08-.84,.16-1.7,.27-2.55,.36-.59,.26-1.18,.51-1.78,.74-.35,.13-.73-.27-.61-.62,.37-1.1,.83-2.27,1.82-2.95,.44-.3,.96-.46,1.49-.55,.31-.23,.64-.43,1-.57,.08-.03,.16-.03,.24,0,.04-.02,.09-.03,.14-.03,.63-.91,1.83-1.16,2.99-1.19,.03-.19,.17-.38,.36-.41,.74-.12,1.48-.23,2.21-.35,.25-.04,.49,.05,.59,.29,.07,.17,.04,.39-.09,.53,0,.03-.02,.07-.02,.1,.27-.11,.53-.23,.8-.34,.53-.2,.89,.67,.39,.91Zm6.16,8.31c-.22,.22-.63,.19-.79-.1-.04-.08-.08-.17-.14-.24-.02-.02-.08-.07-.04-.05-.03-.02-.04-.01-.13,.02-.3,.11-.58,.3-.87,.44-.47,.24-.88-.29-.71-.65-.55,.19-1.1,.39-1.62,.65-.27,.13-.52,.01-.66-.18-.09,.06-.18,.12-.27,.18-.54,.36-1.04-.51-.5-.86,1.21-.81,2.43-1.67,3.73-2.33,.22-.11,.44-.05,.59,.09,.05-.22,.25-.39,.48-.39,.3,0,.6,0,.91-.01,.16,0,.31-.02,.46-.03,.04,0,.08,0,.13-.01,0,0,0,0,0,0h0c.07-.01,.15-.02,.22-.04,.28-.05,.53,.08,.62,.35,.06,.18-.02,.38-.16,.51,.17,.08,.3,.25,.29,.44-.03,.91-.96,1.63-1.54,2.22Zm3.02-19.36c.04,.16,0,.34-.11,.46-.04,.17-.15,.32-.34,.38-.11,.04-.21,.09-.32,.13-.56,.61-1.32,.88-2.15,.98-.56,.28-1.13,.55-1.73,.75-.43,.15-.74-.38-.59-.71-.35-.09-.53-.54-.25-.82,.21-.2,.44-.38,.68-.53,.02-.02,.05-.03,.08-.04,.45-.28,.93-.49,1.42-.68,.06-.08,.14-.14,.26-.16,.04,0,.09,0,.13-.01h0c-.1,0,.02-.02,.04-.03,.04-.01,.08-.03,.12-.04,.05-.01,.09-.02,.14-.03h.04s.03-.01,.05-.02c.14-.16,.3-.33,.47-.46,0-.09,0-.18,0-.26,0-.02-.01-.11-.01-.12,0-.03,0-.06-.02-.08-.02-.1-.05-.2-.08-.3-.03-.11-.07-.22-.12-.33-.01-.03-.01-.03,0,0-.01-.03-.03-.06-.04-.09-.03-.06-.06-.12-.09-.18-.12-.24-.07-.54,.18-.68,.22-.13,.56-.06,.68,.18,.1,.2,.18,.41,.25,.62v-.03c-.02-.05-.04-.1-.05-.16,0-.02-.06-.16-.01-.04-.11-.25-.07-.54,.18-.68,.22-.13,.57-.07,.68,.18,.1,.21,.15,.42,.21,.64,.03,.11,.05,.22,.08,.33,.01,.05,.03,.1,.05,.16,0,.02,.06,.16,.01,.04,.14,.3,.03,.57-.25,.71,.1,.05,.2,.11,.31,.16,.29,.15,.3,.55,.1,.77Zm32.45-152.48l1.11,4.92c-.86-.97-1.12-2.53-1.11-4.92Zm57.33,24.92c-.59,.25-1.09-.61-.5-.86,3.58-1.53,7.27-2.83,10.71-4.67,.27-.14,.53-.29,.79-.44,.02,.39,.05,.77,.09,1.14-3.53,1.97-7.54,3.33-11.08,4.84Zm96.07,91.66c-.65,.33-1.27,.71-1.88,1.1,.34,.18,.35,.83-.1,.93-.04,0-.09,0-.13,.02h0s-.06,0-.08,.01c-.21,.03-.42,.06-.62,.07-.29,.04-.59,.09-.88,.13-.5,.31-1.01,.62-1.54,.88-.41,.21-.78-.18-.75-.52-1.19,.19-2.37,.35-3.58,.36-.08,0-.14-.02-.21-.05-1.96,.38-3.92,.81-5.86,1.31,.01,.04,.01,.07,.02,.11l.09-.02c.63-.13,.89,.79,.27,.96-4.38,1.2-8.64,2.78-12.99,4.09-.08,.07-.17,.12-.31,.12-.05,0-.1,0-.15,.01-.49,.14-.97,.3-1.47,.44-.18,.05-.33-.01-.45-.12-1.38,.39-2.7,1.06-3.98,1.7-.58,.29-1.04-.51-.5-.86,1.81-1.19,3.75-2.14,5.72-3.04-.01-.08-.02-.16,0-.23-.46,0-.62-.53-.35-.85,.86-1.02,1.94-1.74,3.13-2.29,1.37-1.32,2.9-2.44,4.61-3.29,1.55-.78,3.2-1.34,4.84-1.89,.39-.13,.83,.38,.56,.73-.45,.59-.92,1.16-1.41,1.71,.09,0,.19-.01,.28-.01,.56,0,.69,.87,.13,.98-.57,.12-1.15,.25-1.73,.39-.14,.14-.27,.28-.41,.41,6.51-1.12,12.95-2.62,19.35-4.22,.54-.13,.9,.65,.39,.91Z" fill="#231f20"/><path d="M281.25,506.3c-.77,.37-1.53,.76-2.28,1.18,2.82-.36,5.59-1,8.3-1.84-1.83,.22-3.64,.52-5.44,.96-.26,.06-.48-.09-.58-.3Z" fill="#231f20"/><path d="M283.61,509.66c.99-.37,1.99-.7,3.02-.97-.36,0-.72,.03-1.09,.03-.1,0-.18-.03-.25-.07-1.07,.45-2.15,.88-3.24,1.29,.52-.1,1.04-.19,1.55-.28Z" fill="#231f20"/><path d="M322.14,495.75c-1.63,.81-3.25,1.64-4.85,2.53,.17,0,.35-.02,.52-.03,1.77-.72,3.56-1.59,5.13-2.73-.27,.07-.53,.15-.8,.23Z" fill="#231f20"/><path d="M311.07,503.67s.05-.06,.08-.08c.25-.19,.5-.36,.75-.54-1.39,.53-2.78,1.06-4.17,1.58,1.11-.32,2.22-.64,3.34-.96Z" fill="#231f20"/><path d="M314.12,498.37c.35,0,.7-.02,1.05-.03,.44-.25,.87-.51,1.31-.76,.27-.15,.55-.29,.82-.44-1.33,.39-2.66,.8-3.98,1.21,.27,0,.54,.01,.8,.01Z" fill="#231f20"/><path d="M320.85,493.79c-.17,.04-.34,.08-.5,.12-1.18,.52-2.38,1.06-3.56,1.63-.72,.49-1.46,.95-2.23,1.38,2.41-.73,4.83-1.43,7.25-2.11,.92-.45,1.84-.88,2.77-1.31,.1-.17,.2-.34,.31-.51-1.35,.24-2.69,.5-4.03,.8Z" fill="#231f20"/><path d="M316.51,492.74c1.93-.23,3.85-.49,5.75-.85,.36-.12,.71-.25,1.06-.38,.36-.16,.71-.32,1.07-.49-2.41,.23-4.78,.77-7.13,1.4-.25,.1-.5,.21-.75,.32Z" fill="#231f20"/><path d="M331.96,488.12c-2.63,.54-5.24,1.17-7.82,1.93,.86-.09,1.71-.15,2.58-.15,.41-.21,.81-.42,1.21-.63,.56-.3,1.02,.48,.53,.84,1.24-.53,2.42-1.18,3.5-1.98Z" fill="#231f20"/><path d="M333.64,486.76c.17-.03,.34,.02,.45,.12,.03-.12,.07-.24,.1-.37-1.36,.1-2.72,.23-4.07,.43-.53,.08-1.06,.17-1.58,.26-1.36,.56-2.72,1.12-4.08,1.69,3.02-.86,6.09-1.55,9.17-2.14Z" fill="#231f20"/><path d="M310.23,495.37c-.51,.26-1.03,.5-1.53,.76-.45,.23-.89,.48-1.34,.72,1.01-.41,2.04-.79,3.07-1.16-.1-.08-.17-.19-.19-.32Z" fill="#231f20"/><path d="M329.5,490.74c-.82,.38-1.67,.69-2.52,.98,.2,.1,.34,.31,.28,.55,1.72-.76,3.44-1.5,5.18-2.21,.32-.26,.64-.52,.96-.78,.16-.47,.3-.94,.43-1.42-1.28,1.19-2.75,2.15-4.34,2.88Z" fill="#231f20"/><path d="M307.83,497.71c.06,.11,.07,.23,.05,.37,0,.06-.05,.1-.07,.14,.13,0,.25,.01,.38,.02,.45-.24,.9-.49,1.36-.72,1.05-.55,2.12-1.07,3.19-1.58-1.66,.52-3.29,1.12-4.9,1.77Z" fill="#231f20"/><path d="M302.08,503.46s-.07,.06-.1,.1c1.09-.12,2.17-.26,3.25-.44,.09-.12,.16-.25,.25-.37-1.13,.24-2.27,.47-3.4,.71Z" fill="#231f20"/><path d="M312.19,500.14c.41-.26,.81-.52,1.23-.78-1.02,0-2.04-.01-3.06-.04h-.02c-.75,.57-1.46,1.17-2.12,1.82,1.33-.31,2.66-.63,3.97-1Z" fill="#231f20"/><path d="M303.87,502.08h0c.87-.18,1.74-.36,2.62-.55,.41-.45,.83-.89,1.28-1.31-.71,.25-1.41,.51-2.11,.78-.58,.38-1.18,.74-1.78,1.08Z" fill="#231f20"/><path d="M296.93,503.96c0-.15,.07-.28,.24-.37,1.36-.68,2.74-1.3,4.14-1.91-.67,.13-1.34,.27-2,.37-.19,.03-.34-.03-.45-.13-.39,.2-.77,.4-1.16,.59-.75,.5-1.5,1.01-2.24,1.53,.49-.03,.99-.05,1.48-.08Z" fill="#231f20"/><path d="M291.18,507.27c1.08-.31,2.16-.61,3.24-.91,.02,0,.04-.02,.07-.03,.04,0,.08-.02,.12-.02,1.64-.45,3.28-.92,4.87-1.51l.02-.03c-.64,.05-1.28,.09-1.92,.13-1.92,.7-3.89,1.32-5.85,1.92-.19,.15-.37,.31-.55,.46Z" fill="#231f20"/><path d="M207.39,51.94c-.2,.73-.46,1.44-.77,2.12,2.27-1.03,4.68-1.76,7.08-2.48-2.05,.22-4.12,.33-6.17,.17-.05,.06-.09,.13-.14,.19Z" fill="#231f20"/><path d="M207.17,42.33l-.27,.05-.08,.16c-.04,.35-.09,.69-.15,1.04,.38,.11,.55,.7,.13,.91-.11,.05-.21,.12-.31,.18-.05,.24-.11,.48-.16,.71,.37-.1,.74-.18,1.11-.26-.01-.95-.09-1.88-.27-2.79Z" fill="#231f20"/><path d="M209.14,41.96h0c0,.87,.02,1.94-.28,2.84,.57-.11,1.14-.22,1.71-.32,.32-.93,.51-1.92,.67-2.92-.7,.13-1.4,.26-2.09,.39Z" fill="#231f20"/><path d="M205.13,50.23c-.09,0-.18,.01-.27,.02-.29,.75-.61,1.5-.95,2.23-.04,.8-.1,1.61-.18,2.41,.51-.65,1.04-1.29,1.57-1.93-.04-.9-.11-1.81-.17-2.72Z" fill="#231f20"/></g><path d="M391.27,178.69c-.57,.1-1.14,.2-1.71,.32-.52,.35-1.04,.7-1.57,1.03-.11,.09-.21,.19-.32,.28,1.1-.48,2.21-.96,3.32-1.43,.09-.07,.18-.13,.28-.2Z" fill="#231f20"/><path d="M391.53,180.04c-.13,.18-.27,.35-.4,.52,1.19-.71,2.37-1.43,3.53-2.18-1.02,.44-2.04,.89-3.07,1.34,.02,.11,0,.22-.06,.32Z" fill="#231f20"/><path d="M364.27,189.03c2.15-.66,4.31-1.31,6.47-1.95-.43-.16-.86-.26-1.38-.27-.13,0-.25-.06-.34-.14-1.51,.72-3.01,1.44-4.52,2.15-.08,.07-.15,.14-.23,.21Z" fill="#231f20"/><path d="M369.68,188.88c-2.79,1.35-5.66,2.51-8.69,3.29-.32,.31-.64,.61-.95,.92,2.67-.54,5.33-1.17,7.97-1.85,.51-.82,1.08-1.6,1.67-2.36Z" fill="#231f20"/><path d="M12.79,208.55c-.77,1.29-1.51,2.6-2.18,3.95,3.25-1.45,6.28-3.36,9.11-5.52,.23-.17,.44-.35,.66-.53,.18-.2,.37-.4,.55-.6,.21-.4,.42-.81,.63-1.21-2.76,1.51-5.63,2.82-8.6,3.89-.06,.02-.12,.02-.18,.02Z" fill="#231f20"/><path d="M8.56,226.9c1.25-1.98,2.49-3.96,3.71-5.95,1.61-2.63,3.19-5.28,4.72-7.95-.44,.48-.89,.96-1.31,1.46-3.57,4.11-6.71,8.73-8.6,13.85,.09-.08,.18-.16,.27-.25,.41-.38,.81-.77,1.21-1.15Z" fill="#231f20"/><path d="M1.53,232.8c2.46-4.93,4.66-10.28,5.74-15.78-.89,.38-1.79,.75-2.69,1.09-1.01,3.91-2.63,7.56-4.58,11.06,0,.07,0,.14,0,.21,.21,.08,.36,.26,.27,.55-.08,.24-.18,.48-.27,.72,0,1.07,0,2.15,0,3.22,.51-.32,1.02-.65,1.51-1,0-.02,0-.04,.02-.06Z" fill="#231f20"/><path d="M16.05,197.39c.07-.11,.13-.23,.2-.34-3.48,2.23-6.92,4.53-10.24,6.98-.59,.82-1.18,1.63-1.75,2.47,.18-.12,.37-.23,.55-.35,3.99-2.58,7.69-5.58,11.24-8.76Z" fill="#231f20"/><path d="M14.7,202.51c.77-.7,1.57-1.38,2.36-2.06,1.49-1.95,3.05-3.84,4.65-5.71-.77,.3-1.54,.61-2.32,.92-.85,.79-1.7,1.59-2.57,2.37-1.1,1.91-2.24,3.8-3.4,5.68,.43-.4,.85-.8,1.28-1.2Z" fill="#231f20"/><path d="M1.25,221.57l-.05,.07c-.44,.61-.84,1.26-1.19,1.93,0,1.16,0,2.32,0,3.48,1.28-2.47,2.38-5.03,3.19-7.7-.71,.69-1.37,1.43-1.96,2.23Z" fill="#231f20"/><path d="M6.35,194.96c-1.49,1.88-2.91,3.81-4.26,5.79,3.25-1.88,6.5-3.78,9.71-5.73,1.18-1.42,2.38-2.84,3.58-4.25-1.34,.69-2.69,1.36-4.05,2.01-1.64,.77-3.3,1.49-4.97,2.19Z" fill="#231f20"/><path d="M1.11,200.41c1.09-1.61,2.25-3.18,3.43-4.73-.81,.32-1.61,.66-2.43,.96-.42,1.23-.76,2.53-1.06,3.86,.02-.03,.04-.06,.06-.09Z" fill="#231f20"/><path d="M17.72,189.54c-1.07,1.27-2.14,2.54-3.21,3.81,1.93-1.21,3.85-2.45,5.75-3.71,.36-.7,.71-1.4,1.05-2.1-1.19,.68-2.39,1.35-3.59,2Z" fill="#231f20"/><path d="M21.97,188.47c.68-.46,1.35-.93,2.02-1.4,2.33-1.64,4.58-3.39,6.8-5.18,.03-.11,.06-.22,.09-.33-2.63,1.76-5.3,3.45-8.01,5.06-.3,.62-.59,1.24-.9,1.85Z" fill="#231f20"/><path d="M31.83,190.85c-.36,.14-.73,.27-1.09,.41-.87,.58-1.74,1.18-2.6,1.78-1.24,3.06-2.64,6.06-4.12,9.01,.32-.2,.63-.39,.95-.6,2.01-2.2,4.01-4.39,6.01-6.6,.41-1.31,.72-2.65,.85-4Z" fill="#231f20"/><path d="M28.49,189.26c-.53,.34-1.05,.69-1.58,1.03-.53,.66-1.06,1.32-1.59,1.98,.79-.3,1.59-.6,2.38-.9,.28-.7,.53-1.41,.78-2.11Z" fill="#231f20"/><path d="M24.09,193.81c-.64,.81-1.28,1.63-1.92,2.45,1.53-1.2,3.08-2.38,4.66-3.5-.92,.35-1.83,.7-2.75,1.06Z" fill="#231f20"/><path d="M26.54,194.18c-1.29,.94-2.58,1.89-3.84,2.87-1.03,.8-2.04,1.63-3.04,2.47-1.86,2.46-3.69,4.94-5.46,7.46,2.83-1.11,5.57-2.43,8.2-3.95,1.41-2.78,2.74-5.59,3.97-8.44,.06-.13,.11-.27,.17-.41Z" fill="#231f20"/><path d="M41.19,185.87c-1.91,2.39-3.84,4.76-5.82,7.09,.84-.86,1.66-1.73,2.44-2.65,1.21-1.41,2.34-2.9,3.38-4.44Z" fill="#231f20"/><path d="M38.98,181.85c-2.93,2.3-5.97,4.44-9.07,6.49-.29,.85-.6,1.71-.92,2.55,.43-.16,.86-.33,1.29-.49,.63-.42,1.24-.85,1.88-1.26,.27-.18,.61,0,.71,.28,1.25-.47,2.5-.96,3.76-1.42,.19-.07,.34-.02,.45,.09,1.57-1.76,3.15-3.51,4.71-5.28,.82-1.2,1.61-2.42,2.39-3.65-.47,.25-.94,.5-1.41,.74-1.26,.65-2.51,1.3-3.77,1.94Z" fill="#231f20"/><path d="M32.86,190.47c-.06,.93-.2,1.85-.4,2.76,1.18-1.31,2.36-2.62,3.53-3.93-1.04,.39-2.09,.78-3.13,1.17Z" fill="#231f20"/><path d="M322.84,500.4c1.76-.48,3.51-.95,5.27-1.42,.58-.71,1.13-1.44,1.64-2.2-1.76,.84-3.51,1.69-5.21,2.64-.56,.31-1.13,.64-1.69,.98Z" fill="#231f20"/></svg>