<?xml version="1.0" encoding="UTF-8"?>
<svg id="Capa_1" data-name="Capa 1" xmlns="http://www.w3.org/2000/svg" viewBox="0 0 1417.32 226.77">
  <path d="m1035.13,121.06c-.95,1.1-2.13,2.08-3.66,2.9,1.08-1.5,1.77-2.93,2.29-4.34l1.37,1.43Z" fill="#222"/>
  <path d="m1387.75,198.35c1.05.18,1.74.54,2.02,1.14l-1.86,1.28,1.23,1.28c.51-.74.73-1.66.63-2.56l1.23-1.94.63-3.88s-.05.01-.08.01c1.06-1.32,2.15-2.61,3.21-3.93,4.77-5.96,9.46-11.99,14.1-18.06-3.17,16.96-6.93,33.8-10.43,50.7-.84,4.05-2.67,5.22-6.95,3.78-7.04-2.37-14.09-4.69-21.15-7,5.89-6.87,11.69-13.82,17.42-20.84Zm16.41-9.66v-1.31l-1.23-1.28-1.26,1.28,2.48,1.31Zm-10.51,3.85l1.26,1.31v-2.59c-.15-.02-.3-.02-.44.02-.14.04-.28.11-.4.21-.12.1-.22.22-.29.35-.07.14-.11.29-.13.44v.26Z" fill="#222"/>
  <path d="m835.11,57.85c2.34-.88,4.68-1.76,7.02-2.65.4.11.82.16,1.23.1.13-.22.21-.47.34-.69,4.79-1.81,9.59-3.61,14.38-5.42.44.29.94.72,1.53,1.33l.66.28c-.54.58-1.09,1.43-1.65,2.56,1.36.11,2.73-.07,4.03-.52,1.3-.45,2.49-1.17,3.52-2.12h.04l-2.71-.55-.42-2.87c2.82-1.06,5.65-2.13,8.47-3.19l-.46,1.4.86.85c.26-.2.47-.47.62-.77.15-.3.22-.64.22-.98,0-.31-.08-.62-.21-.9,8.51-3.21,16.98-6.66,25.61-9.5,12.13-4,24.37-7.57,36.29-12.24,5.1-2,11.05-4.47,16.99-7.5,1.4.63,2.79,1.33,4.17,2.14,2.29,1.33,5.04,2.43,7.61,2.51,22.48.68,44.97,1.1,67.45,1.62,1.34.03,2.68.33,4.46.57-.49,6.57-5.6,5.86-9.34,7.01-1.62-2.21-3.24-4.53-4.86-7.12l1.45,7.77,1.38.36c-.4.31-.77.67-1.06,1.14.5,4.23,2.48,6.08,5.91,6.46l2.4,1.94.33,1.03h.99l1.98,1.51-1.71-1.86h-.53l-1.32-1.03c-.13-.52-.34-1.02-.51-1.53.19,0,.37.01.57,0,7.74-.37,15.51-.17,23.27-.1,8.46.08,15.58-.38,23.11,7.99,7.7,8.56,16.81,15.55,26.82,21.28,2.3,2.61,4.58,5.24,6.9,7.83l-2.18-.58.63,2.59,1.23.63,1.86-.63-.64-1.01c5.78,6.43,11.61,12.79,17.5,19.12-1.24.64-2.43,1.38-3.54,2.24l-1.11-1.71-1.23.63,1.22,1.93s-.06.04-.09.07l.15.53v2.59l4.13-1.72,1.22-3.75c1.35,1.45,2.7,2.92,4.06,4.37-.05.32-.13.62-.16.94l1.57.55c11.48,12.24,23.06,24.39,34.56,36.61.85.9,1.69,1.82,2.54,2.73.04.07.1.13.12.21.08.22.1.46.08.7.17-.03.34-.09.51-.13,4.45,4.75,8.89,9.51,13.3,14.3-9.48-3.83-19.03-7.68-30.31-3.68-9.25,3.28-19.59,3.33-29.48,4.54-5.22.63-9.83,1.54-12.21-6.49-3.51-11.84-8.31-22.81-15.57-31.98l1.19-1.24v-1.28c0-.46-.82-.66-2.46-.66-.86-1.44-1.9-2.74-3.11-3.88v2.11c-3.92-4.01-8.39-7.62-13.69-10.62-10.93-6.17-21.68-2.23-24.72,10.61-3.35,14.15-10.87,20.18-25.15,20.19-4.7,0-9.4,0-14.1,0-15.95-.02-25.11-10.57-22.93-26.79.43-3.24,2.09-6.3,3.23-9.57-.94-.19-1.6-.43-2.27-.45-28.52-1.02-57.1-1.11-85.52-3.33-18.38-1.43-36.5-6.22-54.81-9.03-16.97-2.61-33.99-4.97-51.05-6.74-5.14-.53-10.3-.94-15.45-1.3,15.61-5.96,31.24-11.9,46.87-17.8Zm301.39,77.98l1.68,1.72h1.64c.51,1.19,1.36,2.18,2.44,2.84,1.08.66,2.33.94,3.57.82,1.24-.12,2.41-.65,3.35-1.51.94-.86,1.6-2,1.88-3.27.29-1.27.18-2.59-.3-3.8-.48-1.2-1.31-2.22-2.36-2.9-1.06-.69-2.3-1.01-3.54-.92-1.24.09-2.43.58-3.39,1.41-.85.17-1.66.53-2.37,1.05-.71.52-1.31,1.19-1.76,1.96l-.84,1.75v.84Zm-1.43-19.54l1.64-.88v-2.56l-1.64-3.47c-.65,1.64-.93,3.41-.84,5.19,0,1.14.29,1.72.84,1.72Zm-11.15-22.77l.8-.84h-2.48c.45.48,1.04.78,1.68.84Zm3.03,16.14v-2.59c-.55,0-1.35-.57-2.48-1.72-1.13-1.14-1.9-1.72-2.48-1.72-2.06,2.46-3.48,5.43-4.13,8.62l.84,3.43,8.26-6.03Zm-7.52,12.54l.63,3.22,2.46-2.59-3.08-.63Zm2.48,9l-1.86-1.28-.63,1.28,1.26,1.28,1.23-1.28Zm-2.81,19.94l1.23-.63-1.86-1.28-.63,1.28,1.26.63Zm-11.03-22.54c.47.48.89,1.02,1.26,1.6.2.32.48.57.8.74.33.17.69.25,1.05.22.32,0,.64-.07.93-.21.29-.14.55-.35.76-.61.21-.26.35-.56.44-.89.08-.33.09-.67.03-1l.3.14c-.32-1.58-1.07-3.03-2.16-4.19-1.05-1.47-2.19-2.87-3.41-4.19-.44.54-.65,1.23-.6,1.94.15,1.36.57,2.67,1.23,3.85.11.92-.12,1.84-.63,2.59Zm-7.92-21.34l1.26.66,1.23-2.59v-.63h-.63l-1.86,1.28v1.28Zm-13.6-8.4c.54-.64.95-1.38,1.21-2.18.26-.8.36-1.65.31-2.5h-1.51v4.68Zm2.96-15.47l2.96-1.58-1.45-1.51h-4.48l2.96,3.09Zm-7.58-22.26c1.45,1.51,2.56,2.27,3.29,2.27l4.35-2.27v3.43l2.22,1.11-2.22-4.54-7.64-5.7v5.7Zm-81.67-14.27c-.11-.36-.11-.74-.12-1.11.04-.04.06-.09.1-.12l-.15-.39c-.02.17.05.34.05.51-.2.2-.38.41-.5.66-.15.3-.23.63-.26.96l.86,1.75.82-.86c-.36-.4-.63-.88-.8-1.4Zm6.08,5.99v-2.3l-2.2,1.12v1.57l-.78-1.21-2.53.89.7,2.87-.76-.8v2.27l.9-.9v.05s3.4-1.75,3.4-1.75l-.55-.85,1.82-.97Zm-3.81-2.11h2.18l2.18-2.27h-3.29l-1.06,2.27Zm1.52-14.96c.48.86,1.6.1,3.05-1.51l.24-.76c-.73,0-1.79.76-3.29,2.27Zm5.44,9.85v1.75l2.53.89.82-1.79-3.35-.85Zm5.65,9.04c-1.23-.06-2.47.15-3.62.6-1.16.45-2.21,1.15-3.11,2.04-1.81,1.93-3.5,3.98-5.06,6.13,1.98-.17,3.94-.56,5.84-1.16l.08-1.01,5.88-3.07v-3.53Zm-4.3,23.52h-2.22l-2.18,2.27-1.11,1.16h1.11v-1.16l4.4-2.27Zm5.25-36.71l1.11-2.27c-.73,0-1.11.76-1.11,2.27Zm1.28,17.39c-.44-.07-.89-.02-1.32.12-.42.15-.81.39-1.13.72-.32.33-.56.73-.71,1.17-.15.44-.19.91-.14,1.37-.04,1,.23,2,.77,2.83l.34.61c2.18-2.27,3.29-3.79,3.29-4.54l-1.11-2.27Zm3.35,36.53l-2.2,2.3,3.33,3.47,1.08-3.47-2.2-2.3Zm7.15-26.54v7.77h2.96v-6.02l.94,3.04,1.12-3.47-1.12-2.3-.94,2.01v-1.03h-2.96Zm-2.7,12.37c-.03.21-.02.42.04.63.06.2.17.39.31.54.14.15.31.27.5.34s.4.1.6.07h1.51v-1.58h-2.96Zm3.33,2.52l3.28.1,1.12-1.17v-2.4c-.73,0-2.2,1.12-4.4,3.47Zm4.38-17.99l-1.11-2.27-1.06,1.11,1.06,2.27,1.11-1.11Zm-.53-11.07l-2.96,1.58,1.45,1.58h4.48l1.51-3.16h-4.48Zm12.79,29.84l3.03.88.22-3.22-3.25,2.34Zm28.13,1.57l.14.03c-.45-3.05-1.24-4.64-2.41-4.76l-2.19-.23c1.14,2.23,2.69,3.95,4.47,4.96Zm-6,.63l.6.14-2.29-2.85c0,1.68.46,2.59,1.69,2.71Zm-5.24,3.59l.82-3.16-1.75-1.42-1.42,2.48,2.35,2.11Zm-4.2-7.5l2.57-1.31c-.98-.48-1.85-1.16-2.57-1.99v3.3Zm-1.38-4.68l1.45-6.19.8-1.04.25.46,1.94-1.17-1.01-.81,4.02-5.21-2.97,3.09h-4.48l-7.44,6.19,4.2,3.31-2.09.47c.76.83,1.39,1.4,1.72,1.42l3.11-.43-.03-.1c.18.01.35-.02.53,0Zm-6.62,9.27c-.42-.06-.84-.01-1.24.13-.4.14-.76.38-1.05.69l.08-.03-2.32,2.08c1.28.86,2.72,1.41,4.23,1.6,1.23,0,2.35-1.11,3.33-3.62l-3.03-.85Zm-46.23,35.61c4.93,3.19,9.33,5.69,15.3,5.26,9.13-.65,18.61,1.71,26.87-4.84,1.05-.83,2.18-2.56,3.21-4.6l.17.17,2.53-.85c-.58-.01-1.15-.16-1.67-.43-.13-.06-.28-.08-.41-.13,2-4.51,3.23-10.09,1.56-12.14-1.26-1.54-3.29-2.42-5.42-3.3v-1.43h-3.23s-.09-.04-.13-.06c-.01.02-.02.04-.03.06h-.82l.59.5c-2.83,5.96-2.74,12.3-5.24,17.19l-.33-.26-2.51.63c1.84-6.09-1.07-11.39-5.37-16.67-4.9,6.03-6.54,15.1-15.56,16.73.92-.8,2.33-1.43,2.67-2.44.52-1.6.97-3.23,1.41-4.86l.84.43h1.67l1.67-3.49-1.67-3.49c-.41.44-.76.94-1.13,1.41.18-.7.36-1.4.55-2.09-2.98-.79-5.94-2.12-8.94-2.25-4.15-.19-9.68-1.97-11.02,4.45-1.25,5.99-2.5,11.99,4.46,16.51Zm-67.89-75.14l-.86.89.86,1.75v-2.64Zm22.98-7.41c-.45.04-.88.17-1.28.39l.07-1.09c-.45-.04-.9.02-1.33.16-.43.15-.82.38-1.16.69.97,1.06,2.1,1.95,3.35,2.64,1.12,0,1.67-.89,1.67-2.64-.43-.14-.88-.2-1.32-.16Zm2.83-3.65l-.82,3.49,1.67,1.75-.86-5.24Zm4.65,22.5l-.84,1.72.84.88v-2.59Zm-1.13,7.93l-1.64.88,3.29,3.43-1.64-4.31Zm8.11.72l-.8,1.87c.04,1.31.31,2.61.8,3.81.26.6.39,1.25.39,1.91s-.13,1.31-.39,1.91l4.97-5.19-4.97-4.31Zm16.15,15.53l.84.84.8-1.72c-.21-.25-.46-.46-.74-.61-.28-.15-.59-.24-.91-.27v1.75Zm-.24-50.68h1.67l.86-1.79-.86-.85h-.86l-1.67,4.39.86-1.75Zm-5.91-3.53l-.82-1.75-4.2-1.75.82,3.49,2.53.89,1.67-.89Zm-11.53,58.22c.16.16.36.29.57.37.21.08.44.11.67.09h1.57l2.49-2.59,2.48-6.07-2.48-.84c-1.68,0-2.9,1.14-3.65,3.43-.62,1.92-1.6,3.68-2.89,5.19.45-.02.89.12,1.24.42Zm-4.5-4.73l1.65-.88-.8-.84c-.55,0-.84.27-.84.84s-.26.88-.8.88c-.93-.17-1.79-.62-2.48-1.3-.69-.67-1.55-1.12-2.49-1.3h-1.64v1.72l4.13,6.9,3.29-6.03Zm-7.31,6.03v-2.59l-1.68,1.75,1.68.84Zm-5.67-31.18l.86-1.75-1.71-.85-.82.85,1.67,1.75Zm-1.88-33.19l.82.85c.16-.14.35-.23.56-.27l1.97,2.06c-.02-.34-.1-.68-.25-.99-.15-.31-.35-.58-.61-.8-.13-.16-.31-.28-.52-.33-.2-.05-.41-.03-.6.05l-.56-.58h-.82l-.86-.89-2.53.89h3.38Zm-13.4,55.1c.43.15.88.22,1.33.18h.86l.86-1.75-1.71-1.75-2.49,2.6c.34.32.73.56,1.16.71Zm-3.15-15.39l1.67.85h.86l.86-.85-.86-2.64h-3.38l.86,2.64Zm-1.67-2.64h.63l-.37-.58,2.27-4.7,1.67-.89h-.86c-.23-.02-.46.01-.68.1-.22.08-.42.21-.59.37-.63.37-1.36.52-2.08.43l-1.67,2.64,1.93,2.06-.26.58Zm-2.73-18.47l2.49-1.75-.82-2.64h-2.53c.74,1.32,1.04,2.87.86,4.39Zm-15.56,9.31c.78.85,1.97.5,3.72-1.09l-4.8-1.44c.02.96.41,1.87,1.08,2.52Zm-5.86,9.83l1.67-3.53-2.53-3.49-1.67,4.39,2.53,2.64Zm-4.87-17.35l.86.85c1.49-1.09,2.64-1.98,3.16-1.98l.19-.66-.82-2.6-3.38,3.49v.89Zm-6.45,18.97l1.9-3.03-1.82.54-.67,1.86.6.62Zm-9.69-9.54l.82-.89-1.67-.85-.86.85c.44.52,1.05.84,1.71.89Zm-31.26,9.81c.48-.57,1.05-1.05,1.67-1.44l.04.12c.62-.35,1.18-.8,1.67-1.32l-1.67-1.75-2.53,2.64.82,1.75Zm-14.17,5.63c1.12,0,1.67-.31,1.67-.89v-1.32l-1.67.43v1.79Zm-10.93.85l2.53-.85-.86-1.79-2.53.89.86,1.75Z" fill="#222"/>
  <path d="m917.96,23.12c-12.26,4.09-24.51,7.92-36.63,12.48-6.31,2.38-12.61,4.76-18.92,7.14l-.27-1.87c0-.58-1.41-1.47-4.24-2.64l-2.49-4.39c-.69,1.96-.98,4.05-.86,6.13l3.35,3.53-.15.99c-3.88,1.46-7.75,2.93-11.63,4.39.17-.53.4-1.05.54-1.59l.05.1-.04-.12s0,.01,0,.02l-2.48-5.18c-.5,1.7-1.2,3.33-2.08,4.85-.75,1.31-1.36,2.71-1.86,4.14-10.94,4.12-21.9,8.23-32.83,12.38-10.01,3.8-20.02,7.63-30.02,11.46-5.89-.34-11.78-.66-17.67-1.01-14.82-.87-29.65-1.69-44.48-2.52,10.3-13.19,20.48-26.49,30.37-40.05l.02.02h1.46l3.18-4.31-1.17-.5c3.63-5.02,7.21-10.08,10.8-15.13h154.55c.42-2.94.78-5.49,1.2-8.46,2.38.22,4.36.41,6.3.59.29,2.94.53,5.3.82,8.27,4.73,0,9.19.36,13.57-.08,3.13-.32,6.07-.01,8.93.64-8.85,4.22-18.08,7.62-27.31,10.7Zm-183.71,44.98l-.86,3.49h2.53l2.53-2.64-2.12-1.46,3.77-3.39-1.15-4.58-5.91,2.59,2.15,5.49-.94.5Zm9.21-29.91c-.95.19-1.81.73-2.42,1.51-.45.57-.69,1.26-.81,1.98h-1.27c-.02.34.09.68.3.94.21.26.52.42.84.46h.19l.5-.45h2.67v-4.43Zm-5.39,15.33h0s-.15-.13-.15-.13c.05.04.09.09.15.13v4.26l2.53,4.39,3.38,2.64,1.67-2.64c-1.77-3.52-4.39-6.49-7.59-8.64Zm49.92,13.69l.67-1.4,1-.35v-1.75l-1,2.1-1.52.54.85.86Zm-2.87-24.96l1.03-1.07c-.37-.03-.74.06-1.09.17l-.72-1.47-1.67.89.86,2.64,1.09-1.17h.51Zm-3.3,9.08c1.14-1.18,1.89-2.72,2.12-4.39l-.86-.89h-1.67l-3.31,9.67c1.32-1.39,2.56-2.85,3.72-4.39Zm11.31-21.27c.01-1.09-.28-2.16-.86-3.07-.57-.91-.87-1.98-.86-3.07l-3.35-.89c-.67.89-.98,2.02-.86,3.14.02,1.34-.26,2.67-.82,3.88l-5.06-4.39c-.69,1.01-.99,2.26-.86,3.49.03,1.29.48,2.53,1.26,3.53.91,1.24,1.89,2.42,2.94,3.53v.85h1.71c1.13,0,2.25-.15,3.35-.43,1.11-.29,2.24-.44,3.38-.43v-6.17Zm41.43,7.24c-.17-1.07-.6-2.08-1.25-2.93-.65-.85-1.5-1.51-2.46-1.92.02.24-.01.48-.09.71-.08.23-.2.44-.36.61-.29.37-.43.84-.41,1.32,0,.82.17,1.63.51,2.37.34.74.84,1.39,1.46,1.9l.15.12c1.31,1.09,2.55,2.27,3.72,3.53-.58-1.86-1-3.77-1.26-5.71Zm24-19.7h-1.46l-.13.13-.18-.3-2.53-.89h-2.53c0,4.11-1.38,5.86-4.2,5.28v12.3c.58-2.38,1.28-4.73,2.12-7.02,2.17-1.4,4.61-2.3,7.14-2.64.26-.28.61-.48.98-.55.37-.08.76-.03,1.11.13.68.25,1.4.39,2.12.43l-3.03-5.06.59-1.8Zm11.5,11.74h-1.46c-.02.21,0,.41.07.61.07.19.17.37.31.52.14.15.31.26.5.33.15.06.31.06.46.06-.81.23-1.58.57-2.26,1.11-1.23.96-2.1,2.35-2.45,3.91l6.73-5.28c-.65-.03-1.28.09-1.9.25v-1.49Zm4.83-6.38c-.22-.46-.54-.86-.95-1.15-.14-.15-.29-.29-.45-.43v-.47l-1.67-.85c.41.43,1,.85,1.56,1.32l-.71,3.07,1.67,1.75c.24-.22.44-.49.58-.79.14-.3.22-.63.24-.96.03-.51-.06-1.03-.28-1.49Z" fill="#222"/>
  <path d="m710.07,71.13c-8.8-.49-17.6-.99-26.4-1.49l-.74-1.54-.86.85.6.63c-.65-.04-1.3-.07-1.94-.11-16.54-.94-33.08-1.97-49.62-2.91-4.92-.28-9.84-.56-14.75-.84.44-.24.84-.54,1.28-.76-3.28-.99-6.66-1.58-10.08-1.75-.28.63-.48,1.3-.62,1.98-5.2-.3-10.4-.59-15.6-.89l.06-5.74c.51,0,.89-.53,1.27-1.53l4.32-2.99-2.92-9.02c-.11,2.51-.34,5.01-.7,7.5-.14,1.53-.43,3.05-.89,4.51h-1.27v1.53h-5.72l-1.19-.65c0,.91.18,1.81.53,2.64.36.86.89,1.62,1.56,2.25.65.61,1.41,1.06,2.23,1.35-3.9-.22-7.8-.42-11.7-.63l-1.37-.73v.66c-3.13-.17-6.27-.34-9.4-.51l.96-1-.82-1.79-2.53.89.44,1.79c-.24-.01-.49-.03-.73-.04l-3.61-3.28c.33-.49.52-.89.52-1.14-.24-2.16-1.08-4.2-2.42-5.86l.33-.7c-1.11-1.71-2.35-3.32-3.72-4.81l-2.53.89-.82,2.64c-.5,1.06-1.07,2.09-1.71,3.07-.6,1.19-.89,2.53-.82,3.88v1.79c1.12.6,2.36,1.18,3.72,1.75.93.46,1.92.76,2.94.89h2.53c.31-.34.57-.63.82-.92l.2,1.57c-2.5-.13-5-.28-7.5-.4-13.78-.7-27.58-.95-41.37-1.55-1.24-.05-2.47-.16-3.71-.23l-.02-.02-.02.02c-5.49-.32-10.98-.75-16.46-1.27-1.51-.14-3.07-.87-4.38-1.71-2.72-1.75-5.3-3.75-8.8-6.28-.16-1.49-.45-4.09-.79-7.19.08.03.15.07.23.08.13.02.26,0,.38-.03l.33-1.22h-85.41c-9.85-7.41-19.59-14.96-29.24-22.64.04-.16.1-.3.1-.49v-4.43l-3.6-3.72h6.78v.41l.8-.41h7.38l-1.79,4.6,1.07,2.19,2.1-4.38v-2.41h23.31c1.03,1.67,2.21,3.24,3.6,4.6,1.31,1.74,3.19,2.92,5.27,3.31l1.07-1.12c3.76-.65,7.21-2.59,9.8-5.5h.75l1.07-1.12h1.03v-.17h212.88l-.77,3.28,3.35-1.75-2.22-1.53h9.81v1.53l-.85,1.75v1.79c.68-1.03.98-2.29.85-3.53l1.47-1.53h41.19c-.05.24-.17.47-.19.72v7.76c.3-.47.73-1.44,1.3-2.91l.37-.97c.53-1.22.82-2.54.86-3.88.03-.24-.04-.48-.04-.72h65.65c-6.37,8.93-12.77,17.83-19.28,26.65-8.23,11.15-16.66,22.13-25.19,33.03ZM383.58,23.75s-.02.04-.02.05c-.22-.7-.77-1.55-1.89-2.73l-3.17,3.26,2.1,4.43c1.93-2.74,2.94-4.23,2.96-4.97.06.17.21.39.21.54l-.19-.59Zm64.44,5.66l-2.1,1.12v2.19l3.17-1.07-1.07-2.24Zm17.35-10.44c-.18-.38-.3-.79-.33-1.21l-1.03,1.07,1.03,2.24,1.07-1.12c-.31-.27-.56-.61-.74-.98Zm14.46.98c-.33.25-.59.58-.78.96-.18.38-.28.8-.28,1.23s.1.85.28,1.23.45.71.78.97l1.03-2.19-1.03-2.19Zm4.2,11l2.15-2.19h-4.24l2.1,2.19Zm4.25-12.12l-2.1,1.12,1.03,1.12,2.1-1.12-1.03-1.12Zm15.85,6.96c-.36-.19-.75-.31-1.16-.34-.78-.11-1.58.08-2.24.53l.09.59,2.15,1.07,2.1-1.07c-.26-.32-.58-.59-.94-.78Zm2.36,28.81c.11,2.03.63,4,1.54,5.8,2.31-5.89,5.23-11.49,8.71-16.72l-9.34,4.98c-.7,1.89-1.01,3.92-.9,5.94Zm7.21-36.45c-.4.03-.8.15-1.16.34-.36.19-.68.46-.94.78l1.03,2.19,2.1-1.12-1.03-2.19Zm1.13,7.02l-1.67,2.64,3.35,1.75,1.67-2.64-3.35-1.75Zm9.44,3.4l-.82-.89-.86.89c-.04.96.27,1.9.86,2.64l.82-.89v-1.75Zm5.91-5.28l-1.71-.89-.82,1.79,2.53,1.75v-2.64Zm11.23-6l-1.67,4.39,2.49,2.64c2.88-.84,5.4-2.65,7.18-5.16l.41-.97c-2.75-.72-5.58-1.02-8.4-.89Zm24.03,34.98l-.82.85c.21.26.46.47.75.62.29.15.6.25.92.27l.82-.89-1.67-.85Zm4.35-11.67l.38.39v.72c-.02.48.12.95.41,1.32.16.17.29.38.36.61.08.23.11.47.08.71l.21-.15c-.14.56-.33,1.11-.58,1.63-.46.81-.75,1.71-.86,2.64l.86,1.75c.24.18.52.25.79.38l.06.33c.03-.09.08-.16.11-.25.76.33,1.56.53,2.39.43.32-.03.63-.12.92-.27.29-.15.54-.36.75-.62l-.21-1.34,3.05-3.21-2.1-4.38-1.77,1.82c-.19-.53-.46-1.02-.84-1.42-.16-.17-.39-.23-.57-.37l-.53-2.26-2.53.85v.67h-.38Zm1.89-13.34l-.82.85,1.67.89.82-.89-1.67-.85Zm3.58,7.45l-1.53,1.39,2.67,3.18,2.99-1.26-4.13-3.32Zm12.39,8.09c-.83,1.1-1.35,1.75-2.16,2.48l-.38.04-.35.33h-1.56l.44,1.19c-1.38,1.33-2.61,2.82-3.66,4.45l-.57-.89-3.38,1.75c-1.03.57-2.18.87-3.35.89l2.53,3.49c.95-.5,1.93-.95,2.94-1.32.86-.36,1.61-.92,2.29-1.57l.59,2.36,4.51-2.65c-.34-2.29-.98-4.53-1.91-6.63l1.11-1.06h.41c.14-.11.2-.26.32-.37l6.42-.63-4.26-1.86Zm14.56-5.49c-.2-.8-.54-1.55-1.02-2.2-.39-.06-.79-.04-1.17.07-.38.1-.74.28-1.06.53-.3.25-.65.43-1.02.53-.37.1-.76.13-1.14.07.78.96,1.71,1.79,2.73,2.46,1,.68,1.89,1.51,2.67,2.45l.13-1.46c.12-.82.07-1.65-.12-2.44Zm19.27,18.17c.05.2.14.38.27.54.13.16.29.28.47.35.18.08.38.11.57.1l1.59-1.59h-2.92c-.04.2-.04.41.02.61Zm1.41-31.99l-.82.89,1.67.89,1.67-1.79h-2.53Zm10.11-5.24l-1.71,1.75,1.71,2.64,3.35-1.75c-1.67-1.79-2.79-2.64-3.35-2.64Zm6.96-.99l-2.92,1.26-1.97,7.43,4.32.27,1.91-7.36-1.33-1.59Zm42.81,23.01v-1.46l-2.73-1.72-1.46,1.39,4.2,1.79Zm-6.82,28.61c.29,0,.56-.12.76-.33.2-.21.32-.49.32-.79s-.11-.58-.32-.79c-.2-.21-.47-.33-.76-.33-.61-.24-.89.49-.89,2l-.14.24h1.03Zm2.31-25.61l.86-2.64-2.53-.89-1.71,2.64,3.38.89Zm-16.81-17.58l1.67.89.82-1.75c0-.62-.56-.89-1.67-.89h-.82v1.75Zm-5.7,18.08c-.5-.18-1.02-.23-1.54-.21l.25-.23-.45.2c.07,0,.13.03.2.03l-1.28,1.17h4.32c-.43-.42-.94-.75-1.5-.95Zm8.15-25.9c-.41-.08-.84,0-1.19.23l-.08.19c-.17.17-.37.29-.58.37-.22.08-.45.11-.68.09.8.24,1.52.69,2.11,1.3.59.61,1.03,1.36,1.27,2.19.03-.89.17-1.78.41-2.64.3-1.16,0-1.75-1.26-1.75Zm2.11,28.96h3.32l-1.67-1.75-1.65,1.75Zm17.02-27.65l-3.9-.3c-1.67-.86-3.46-1.41-5.33-1.51-1.45-.05-2.89.26-4.2.89v8.77c-.12-.02-.24-.01-.35.03-.11.04-.21.1-.3.19-.08.09-.15.19-.18.31-.04.12-.04.24-.03.36.05.16.05.34,0,.5l.86-.5v-.89h5.88v-5.28l3.75-2.36,2.21,2.64,2.92-1.26-1.33-1.59Zm8.01,17.24h-3.38l2.53,2.6h1.67l-.82-2.6Zm3.43,3.26l1.53-1.39-1.53-.13v1.53Zm1.97-10.55c-.21-.07-.44-.09-.66-.04-.22.05-.42.15-.59.31-.17.15-.29.35-.37.57-.07.22-.08.46-.04.69h1.65v-1.53Zm2.7,27.08c-.52,1.16.45,3.65,2.98,7.45,2.53,3.8,4.35,5.71,5.47,5.71l.82-1.75c0-4.68.15-6.74.45-6.17.26.58,1.82-.85,4.61-4.39-.78-.8-1.63-1.52-2.53-2.17-.7-.69-1.58-1.14-2.53-1.32-.56,0-1.67.85-3.35,2.64v.85c-2.01.12-4.01-.17-5.91-.85Zm11.17-25.9c-1.91,1.46-3.41,3.44-4.33,5.72h.19c2.42.11,4.81-.66,6.75-2.17,1.94-1.51,3.33-3.67,3.93-6.12-2.36.22-4.62,1.12-6.53,2.58Zm26.11-11.73l-2.99,1.33,1.33,1.59,2.99-1.26-1.33-1.66Z" fill="#222"/>
  <path d="m167.51,42.74v-.11h-1.07l1.37-4.41-2.8-1.49-1.43,2.92,2.86,2.99.12.11h-73.25c-9.58-10.53-19.32-20.9-29.04-31.28h82.38l.14.15h3.17c-.09-.07-.21-.09-.31-.15h16.33c.09.42.19.83.35,1.23.39,1.05.56,2.18.51,3.31l4.35-4.54h69.85l.86,2.65c2.5-.18,5.01.19,7.37,1.07l-3.56-3.72h32.07v.41c-.05.3-.03.61.06.9.09.29.24.56.45.77.2.22.46.38.73.48.28.1.57.13.86.09l.86-2.65h63.61c1.46,1.2,2.91,2.4,4.37,3.59-.91-.24-1.78-.62-2.52-1.25-.57-.54-1.25-.96-1.98-1.22-.73-.26-1.51-.36-2.28-.3-2.24-.07-4.43.63-6.26,1.98-1.82,1.35-3.17,3.29-3.85,5.51.64.35,1.31.64,1.97.93v5.24l2.1-1.07c-.68-1.22-1.15-2.54-1.52-3.9,2.85,1.17,5.88,1.8,8.95,1.84.46.35.92.48,1.39.47l.88.61v-.81c1.48-.66,2.95-2.84,4.21-6.11l.32-.76c11.09,9.01,22.27,17.89,33.64,26.52h-32.22c-.53-.16-1.06-.33-1.61-.42-3.29-.27-6.48-1.29-9.34-2.99l1.12,3.41h-174.23ZM84.12,14.72l-5.6,2.92,5.6,2.92,2.8-1.43h1.43l1.43,1.43-5.66-5.84Zm18.03,10.25c-.02.2,0,.4.07.59.07.19.17.36.31.5.14.14.3.25.48.32.18.07.38.09.57.07l.25-1.49h-1.68Zm28.74-11.13c-.38.45-.67.97-.86,1.54-.18.57-.26,1.17-.22,1.77l1.07,1.07,1.03-2.19-1.03-2.19Zm6.02,20.01l-2.15,2.19,2.15,3.31,1.03-3.31-1.03-2.19Zm24.4-13.39l-1.07,2.19,1.07,1.12,1.03-2.24-1.03-1.07Zm40.73,15.02c-.21-.8-.72-1.48-1.41-1.89-.69-.41-1.51-.52-2.28-.3-.77.22-1.42.75-1.81,1.47-.39.72-.5,1.58-.29,2.38-.43,1.32-.96,2.61-1.59,3.85l5.27,1.12,3.08-2.58c.34.25.75.38,1.17.39l-.37-1.07,1.4-1.17c-1.15-.57-2.22-1.3-3.17-2.19Zm14.18-11.5c-.93,0-1.43.45-1.43,1.43h1.43v-1.43Zm17.26-4.38l-1.07,2.19,1.07,2.19,2.1-1.12-2.1-3.26Zm29.11,5.9l-2.1-1.12c-2.35,1.52-4.48,3.37-6.34,5.5l3.17,5.5,4.2-5.5c-.02-.3.02-.6.11-.89.1-.29.25-.55.45-.77.36-.45.55-1.02.51-1.61v-1.12Zm11.01-8.14c0-.44-.42-.73-.98-.88l.09-.29s-.06,0-.09,0v-1.03l-1.07-1.07v2.19c.35-.09.71-.11,1.07-.09v.29c.08,1.45.41,2.87.98,4.19v-3.31Zm12.74,4.33l-2.1,3.31,1.03,2.19,3.17-3.31-2.1-2.19Zm34.02-.41l-4.11,2.84c-.07-.07-.11-.17-.18-.24v.37l-.02.02.02.06v2.87l.79-.83,2.1,5.4,4.32-5.97-2.92-4.51Zm5.03-5.09l-1.07,1.07c-.01.15,0,.3.05.45.05.14.13.27.23.38.1.11.23.19.37.24s.28.07.43.05v-2.19Zm2.15,17.1l-1.4,1.53,1.4,2.99,1.46-1.53-1.46-2.99Z" fill="#222"/>
  <path d="m25.84,0c.59.22,1.18.44,1.78.66.26,3.56.53,7.13.8,10.79h29.77c4,4.26,7.99,8.52,11.98,12.78l-4.32,2.23,5.66,4.41,2.42-2.59c4.46,4.79,8.9,9.61,13.32,14.44h-16.53l.79-1.61-1.43,1.49v.11h-9.83v-.11s-.06.11-.06.11H0V11.84h20.94c1.81-4.38,3.35-8.11,4.9-11.84Zm31.55,24.98l2.86-1.43v-2.99l-5.66-5.84-7.03,2.92,9.82,7.33Z" fill="#222"/>
  <path d="m1178.07,139.45c1.86-.78,3.65-1.75,5.32-2.92l.18-.65c-1.57-.67-3.27-.97-4.97-.88-1.36-.04-2.7.25-3.95.81-3.58-3.81-7.15-7.63-10.74-11.43-7.99-8.44-15.97-16.89-23.93-25.37.18-.31.3-.6.3-.85l.29.38c-.03-1.26-.47-2.47-1.24-3.43-.78-1.09-1.46-2.25-2.05-3.47-.64.85-1.16,1.78-1.63,2.74-1.98-2.12-3.97-4.24-5.95-6.37.39-1.04.7-2.12.82-3.24,0-1.13-.22-2.25-.65-3.28-.43-1.04-1.05-1.97-1.84-2.75h-.84l-.8.84,1.54,6.53c-4.38-4.74-8.7-9.55-13.01-14.35,2.63,1.22,5.3,2.39,8.01,3.47,8.61,3.42,14.84,3.48,22-2.1,4.47-3.48,9.78-8.21,14.7-8.2,1.6,0,3.19.08,4.79.11l1.63,5.09h.84l1.64-1.72v-3.29c15.96.42,31.92,1.68,47.87,2.59-.03.08-.07.15-.07.24l.15.46c-.05.35-.02.71.09,1.05.11.34.29.65.53.9.24.25.54.44.86.55.32.11.67.14,1.01.09.32-.02.63-.11.91-.26.28-.15.53-.36.74-.62.05-.35.02-.7-.09-1.04-.11-.33-.28-.64-.52-.88-.14-.15-.33-.22-.5-.32,17.77.98,35.54,1.9,53.31,2.87,17.93.97,35.87,1.89,53.8,2.95,11.27.67,22.58,1.35,33.96,2.05l-.13.36,1.13,1.3c.03.51.1,1.02.22,1.53l-.33.92.58.61c-.13-.5-.21-1.01-.26-1.53l.33-.91-.55-.61c-.01-.55-.16-1.07-.25-1.61,17.47,1.07,35.17,2.16,53.56,3.28.91,12,3.04,23.01,2.26,33.79-1.19,16.39-3.69,32.72-6.49,48.92-10.77,14.37-21.84,28.52-33.34,42.31-3.81,4.57-7.68,9.08-11.56,13.59-20.52-6.69-41.08-13.27-61.48-20.35-36.26-12.57-72.2-26.13-108.48-38.65-5.86-6.46-11.77-12.88-17.73-19.25Zm-15.75-25.75h-.8c-.76-2.4-2.2-4.5-4.13-6.03l-1.68-.88h-2.49l-3.29-2.59-.84,4.31,1.68,1.75,10.75,3.43v.88l.8.84v-1.72Zm8.22-39.02c-.1-1.25-.53-2.45-1.24-3.47v6.07c1.02,1.07,1.46.19,1.17-1.53l.07-1.07Zm203.17,18.16h-1.21l-.59.57h-1.17l-2.49,3.59,3.66-3.51h1.17l.62-.61h1.13l1.86-2.98-3,2.94Zm32.53-8.85c.17-.14.32-.32.43-.53.11-.2.17-.43.19-.66.02-.23.08-.46.19-.66.11-.2.25-.38.43-.52l-4.13.42-.62.61v1.22l.55.61c1.01.18,2.05.01,2.96-.5Zm-2.23,26.47l.62-.57-2.81-3.17-.62.61,2.81,3.13Zm-37.35,15.97c1.87-1.24,4-1.98,6.21-2.17,2.11-.22,4.19-.65,6.21-1.3l1.64-1.72,3.33-.88-2.49-.84c0,1.14-1.79,1.41-5.37.84-2.33-.43-4.69-.71-7.05-.84l-.64.67c-.01-.05-.03-.1-.04-.16l.27-.7c-.09.07-.16.16-.21.27s-.08.22-.08.34c0,.03.02.06.02.09l-.13.33c-.55,4.04-1.53,6.07-2.92,6.07-1.17.19-2.24.79-3.03,1.72h3.03c1.97,0,2.38-.57,1.24-1.72Zm-2.01,55.69v-4.84l1.34-1.39h-1.34v-.68l2.49-.84v-2.59c-1.41.62-2.66,1.56-3.67,2.75-1.01,1.2-1.74,2.62-2.14,4.15l3.32,3.43Zm-3.98-92.65c.45.17.87.41,1.24.72v.53h.55c.39.62.6,1.35.6,2.1s-.21,1.48-.6,2.1h1.17l3.65-3.51-4.68-.73c-.12-.22-.27-.43-.44-.61l.95-5.42-2.45,2.37v2.44Zm-133.28,44.13l1.51-4.61-3.03-1.58-1.45,3.09,2.96,3.09Zm-3.42,4.1l1.64,2.59,2.49-1.75-2.49-1.72h-.8l-.84.88Zm10.56-13.08h-1.68v9.5l1.68,2.59,2.45-.84.84-2.59c-.19-1.83-.75-3.6-1.64-5.19l-1.64-3.47Zm4.14.68l-1.26,1.28v1.31l1.86-1.31-.6-1.28Zm12.34-12.73c-.14-.3-.34-.57-.59-.79l-.8.88.8,1.72.84-.84c-.02-.34-.11-.66-.25-.97Zm23.91-30.27l-.8,6.06c.46-.54,1.02-.98,1.64-1.3.74-.54,1.31-1.3,1.64-2.17l-2.49-2.59Zm7.31,5.19l-.84,1.72,2.49,1.72.84-.84-2.49-2.59Zm53.4,1.75l.22.65-1.21,1.14,10.56-.8c-3.95-3.13-7.05-3.24-9.58-.99Zm12.94-5.01l-2.3-1.3v1.22l2.3,1.3v-1.22Zm-1.06,19.77l-4.13.46c-1.88-.15-3.64-1.05-4.9-2.52l.07-1.07c-1.68-2.29-2.89-3.81-3.66-4.69-.08,1.51.28,3.01,1.02,4.31.76,1.29,1.12,2.8,1.02,4.31l1.68,1.91,1.79-.57,1.83-1.75,1.57,4.35.58.65-.62.57,6.51-1.56-2.78-4.39Zm-5.45,14.99s.01.01.02.02l-.46.44v1.22l.55.65.58-1.79c-.21-.2-.43-.37-.67-.52l.02-.02s-.02,0-.03,0l3.13-3.04-.99-4.92-1.83,1.75-4.13,1.68-1.83,1.75v1.22c1.11.44,2.28.7,3.47.76.79.01,1.54.29,2.17.79h0Zm13.63-23.61c-.58.3-1.22.44-1.86.42l-.47-.53-1.75.53h2.23l2.34,2.63,1.83-1.75-2.3-1.3Zm2.34,72.92c0-2.86-.84-4.62-2.49-5.19l-.84,5.19h3.33Zm-7.61,12.18c.07.23.2.43.36.6.16.17.36.29.58.36.22.07.45.09.68.05l.8-.88h.84l-2.48-2.59-.84,1.75c-.03.24-.01.48.06.7Zm1.53-2.89l2.45-2.56-2.45-.88-3.33,1.72,3.33,1.72Zm-17.93,28.98h4.35l3.91-4.04-1.87-2.08,4.76-3.55.15-.1s.05.06.07.1l.53-.42s0-.07.01-.11l-.62.43c-.3-.78-.74-1.48-1.35-2.03-.64-.57-1.41-.97-2.23-1.15-1.08-.34-2.11-.82-3.07-1.45v-.31l-1.68-.84c.47.42.97.81,1.5,1.14-.38.84-.89,1.61-1.5,2.29-.33.43-.53.93-.66,1.46l-2.3-2.55v13.2Zm-8.47-18.25c.21.07.41.19.58.35.62.39,1.36.56,2.08.46,1.37-.03,2.71-.45,3.87-1.22,1.16-.77,2.1-1.85,2.71-3.13h-2.59c-1.3.1-2.56.55-3.66,1.3-1.39.88-2.59,1.6-3.65,2.17.22-.02.45,0,.66.07Zm-2.82-61.02l4.57-1.07c-1.14-1.06-2.37-2.03-3.66-2.9-2.08-1.53-3.33-2.06-3.65-1.68l-.62,1.83,3.36,3.81Zm-3.91,6.6l-.51-3.09-2.92.57,1.1,2.52h2.34Zm-4.2,6.68l1.24-2.4-.55-.65c-.77-.84-1.32-1.07-1.75-.69l-1.24,2.4,2.3,1.33Zm-5.12-6.98c.4-.38.62-1.79.73-4.23l-7.49-5.8-4.71,1.07v2.44l2.23,2.52c1.47,1.47,3.23,2.57,5.15,3.24.38.02.76.11,1.1.28.35.17.65.41.91.71.58.66,1.28.58,2.08-.23Zm-6.63,60.52c.83-.35,1.54-.95,2.05-1.72.51-.79,1.23-1.41,2.08-1.75-.76.47-1.61.77-2.49.88-.88.09-1.73.39-2.48.88l.84,1.72Zm1.59-48.62h.51l.58-.57c-1.53,0-3.18-.23-4.93-.5-1.84-.3-3.71-.3-5.56,0,1.56,1.08,3.18,2.06,4.86,2.94.84.72,2.52.11,4.53-1.87Zm-7.64,12.78c.58.73,1.4,1.2,2.3,1.33l-.58-1.87-1.72-.69v1.22Zm-6.29,31.63c.28.59.67,1.12,1.15,1.54.64-.4,1.24-.86,1.79-1.37l.29.11c.61-.54,1.3-.98,2.05-1.3l-.8-2.59-3.33-2.59-1.64,4.31c.04.66.21,1.3.49,1.89Zm-1.75-107.5l1.64-3.43-1.64-2.59-.84,2.59.84,3.43Zm-9.52,91.92l3.29,1.72v-5.19l.84-.84c0-.57-.55-.88-1.64-.88h-2.48c-1.1,0-2.19,1.14-3.33,3.47l3.33,1.72Zm-12.28-23.46c0,1.14,1.39,1.72,4.17,1.72l-3.32,3.47v1.72h.84l.8.84h4.97c.89.82,1.86,1.55,2.89,2.17.86.65,1.85,1.09,2.89,1.3h1.68l3.29-3.47v-.84l-12.39-4.31c-.94-.42-1.68-1.2-2.08-2.17-.67-.86-1.5-1.56-2.45-2.06l.4-.95-1.68,1.72v.88Zm-2.1-65.98l.33-.73c.44-.03.88-.03,1.32,0v4.2h3.29l-.8-3.47c-1.64,0-2.48-.31-2.48-.88s-.26-.84-.84-.84l-.48.99c-.69,0-1.17.34-1.17.73h.84Zm-5.35,56.18l.84-.88-.84-1.72-.84.84.84,1.75Zm-2.06-44.96l1.64-5.19-2.49-4.31-2.45,4.31c-.01,1.11.29,2.2.88,3.12.59.92,1.43,1.64,2.41,2.07Zm-5.39,22.57l.84,1.75,1.64-1.75h-2.49Zm2.49,20.64l-2.49-1.3v-.42l-.4-.88,1.24-2.59h-2.49l1.24,2.59-.4.88.8.42v3.05l2.49.84v-2.59Zm-1.41,37.66l-1.68-1.72-3.29,1.72h4.97Zm-8.33-56.18l-.63-.65c-.41,0-.71.31-.93.97-.22.66-.52.97-.93.97h-2.46l3.68,3.22v-3.87l1.26-.63Zm-12.07,21.23c.08.68.29,1.34.63,1.94.4.85.81,1.28,1.23,1.28l1.23-2.56c2.16-.67,4.07-2.03,5.46-3.87l-1.86-1.94-3.71.66-3.68-1.94-5.46,8.38,2.48.66,3.69-2.59Zm-7.58,8.57l2.48-.88v-2.56c-.27,0-.53-.08-.75-.24-.22-.16-.39-.38-.49-.64-.1-.26-.27-.48-.49-.63-.22-.16-.48-.24-.75-.24-1.1,0-1.68.88-1.68,2.59l1.68,2.59Zm-3.7-28.51h1.09c1.22-.23,2.32-.92,3.08-1.94h3.11c-.62-1.59-1.55-3.03-2.73-4.22-.63.54-1.28,1.08-2.07,1.65-1.16.74-2.04,1.88-2.48,3.22v1.28Zm-37.07-25.25l-2.49,1.72,1.64.88,1.68-1.75-.84-.84Zm20.36,34.69h1.23c-.02-.35.09-.7.3-.97.11-.13.2-.28.25-.45.05-.17.07-.34.05-.52v-1.91c-.35-.79-.86-1.49-1.49-2.05-.64-.56-1.38-.97-2.19-1.19v4.53l1.86,2.56Z" fill="#222"/>
  <path d="m1388.78,88.14l1.75.69c-.4-.42-.48-.72-.26-.92.17-.14-.08-.59-.36-.99h.03l-.29-.38c.09.1.17.25.26.38h-1.14v1.22Z" fill="#222"/>
  <path d="m1379.05,118.5v1.22c.1.05.2.08.31.09.11,0,.21-.01.32-.05h.51l-1.13-1.26Z" fill="#222"/>
  <path d="m1388.46,133.22c-.1-.02-.19-.06-.28-.12s-.16-.13-.21-.22l-.11.11.59.65.58-.57c-.08.06-.17.11-.27.14s-.2.03-.3.01Z" fill="#222"/>
  <path d="m1396.82,85.89c.05.11.12.2.21.27l.58-.61v-1.22l-.58.61c-.09.07-.16.16-.21.27s-.08.22-.08.34.03.23.08.34Z" fill="#222"/>
  <path d="m1372.6,174.18h.84c0-.57,0-.88-.44-.88s-.4-.27-.4-.84l-.8.84c0,.57.26.88.8.88Z" fill="#222"/>
  <polygon points="1221.5 87.49 1221.5 88.33 1222.34 87.49 1221.5 87.49" fill="#222"/>
  <path d="m1290.45,153.54v.65c-.02-.14.02-.29.1-.4.08-.12.2-.2.34-.22l.16-.03h-.6Z" fill="#222"/>
  <path d="m1348.17,93.21l-.62.61c.1.06.21.09.32.1.11,0,.23-.01.33-.06h.51l-.55-.65Z" fill="#222"/>
  <polygon points="1359.46 82.11 1358.92 81.54 1358.29 82.11 1359.46 82.11" fill="#222"/>
  <path d="m1346.27,178.39c.04.11.1.21.18.3.08.08.18.15.28.19s.22.06.33.04v-1.72l-.84.84c-.01.12,0,.24.04.35Z" fill="#222"/>
  <path d="m1262.01,149.7l.8,1.72h.84c-.55-.57-.84-.99-.84-1.3s-.26-.72-.8-1.3v.88Z" fill="#222"/>
  <path d="m1219.8,129.09c-.01.12,0,.24.04.35.04.11.1.21.18.29.08.08.18.14.29.18.11.04.22.04.33.03l.8-.84c-.17-.26-.39-.49-.65-.65-.26-.17-.55-.29-.85-.34l-.15.11v.88Z" fill="#222"/>
  <path d="m1200.37,105.08l.8.88v-.88c0-.57-.26-.88-.8-.88v.88Z" fill="#222"/>
  <polygon points="1190.91 88.33 1191.75 87.49 1190.07 87.49 1190.91 88.33" fill="#222"/>
  <polygon points="1161.85 77.92 1161.85 78.8 1162.69 77.92 1161.85 77.92" fill="#222"/>
  <path d="m1163.17,104.2c-.11-.01-.23,0-.33.04-.11.04-.21.1-.29.19-.08.08-.14.19-.18.3-.04.11-.05.23-.04.35h.84v-.88Z" fill="#222"/>
  <path d="m1162.32,139.75c.06.16.16.29.3.38h.51l-.84-.88c-.04.16-.03.34.03.49Z" fill="#222"/>
  <path d="m1127.15,101.12c.34.02.67-.02.99-.13.32-.11.61-.29.86-.52l-.63-.63-1.23.63v.66Z" fill="#222"/>
  <path d="m1123.14,126.7c.1.03.2.03.3,0,.1-.03.19-.08.26-.16.07-.08.12-.17.15-.27.03-.1.02-.21,0-.31l-.08.08h-.63v.66Z" fill="#222"/>
  <path d="m1116.04,98.52c.18-.16.32-.36.43-.58.1-.22.16-.46.17-.71l-1.23-.63-.63.63,1.26,1.28Z" fill="#222"/>
  <path d="m1096.92,108.2c.15.09.33.11.5.06.17-.05.31-.17.39-.33h-.63v-.66h-.52c-.08.16-.1.35-.05.52.05.17.16.32.31.41Z" fill="#222"/>
  <path d="m1083,73.15c.48,0,.94-.2,1.28-.54h-.63c-.08-.06-.18-.09-.28-.09-.1,0-.2.02-.28.07-.09.05-.16.12-.21.21-.05.09-.07.19-.07.3l.19.06Z" fill="#222"/>
  <path d="m1013.01,47.09v1.12c0-.77.39-1.12,1.13-1.12h-1.13Z" fill="#222"/>
  <path d="m1042.13,70.7c-.09-.23-.23-.43-.4-.6l-.65.6.52,1.31.68-.6c0-.24-.05-.49-.15-.71Z" fill="#222"/>
  <path d="m1053.18,82.25c.04.09.1.17.17.23.07.06.16.11.25.13.09.02.19.02.28,0v-1.28c-.09-.02-.19-.02-.28,0-.09.02-.18.07-.25.13-.07.06-.13.14-.17.23-.04.09-.06.18-.06.28s.02.19.06.28Z" fill="#222"/>
  <path d="m937.97,28.84c-.01.12,0,.24.04.36.04.11.1.22.18.3.08.09.18.15.29.19.11.04.23.06.34.04l.82-.89h-1.67Z" fill="#222"/>
  <path d="m957.35,38.58h-.82c-.02.12-.01.24.02.35.03.11.09.22.17.3.08.08.18.15.29.18.11.04.22.04.34.02v-.85Z" fill="#222"/>
  <path d="m973.49,58.99c-.03-.11-.09-.21-.17-.29-.08-.08-.18-.14-.28-.18-.11-.03-.22-.04-.33-.02v.84h.8c.02-.11.01-.23-.02-.34Z" fill="#222"/>
  <path d="m985.63,54.03l.07.12v-.89h-.82c-.07.47.34.78.74.78Z" fill="#222"/>
  <polygon points="983.12 81.76 984.36 80.92 983.12 80.92 983.12 81.76" fill="#222"/>
  <polygon points="931.82 51.63 932.67 51.63 931.82 50.73 931.82 51.63" fill="#222"/>
  <path d="m928.62,81.95c.03.13.09.25.17.35.08.1.18.19.3.24.12.06.24.09.37.09s.25-.03.37-.09c.11-.06.22-.14.3-.24.08-.1.14-.22.17-.35.03-.13.03-.26,0-.39h-1.67c-.03.13-.03.27,0,.39Z" fill="#222"/>
  <path d="m926.76,74.53c.59,0,.86-.27.86-.85h-.86v.85Z" fill="#222"/>
  <polygon points="919.55 43.05 920.4 43.05 919.55 42.2 919.55 43.05" fill="#222"/>
  <polygon points="839.27 32.45 838.42 32.45 839.27 33.34 840.95 33.34 839.27 32.45" fill="#222"/>
  <path d="m908.61,62.18l.13.15-.07-.12s-.04-.03-.06-.03l-.42-.47c-.78-.85-1.34-1.09-1.75-.7.55.67,1.33,1.07,2.17,1.17Z" fill="#222"/>
  <polygon points="904.65 51.5 904.09 50.84 903.46 51.46 904.65 51.5" fill="#222"/>
  <polygon points="900.58 40.41 899.76 41.3 900.58 41.3 900.58 40.41" fill="#222"/>
  <path d="m861.87,55.69c.05.09.12.17.21.23.08.06.18.1.28.13.08.02.15,0,.23,0v.19l.07-.19s-.05,0-.07,0v-.66h-.82c.01.11.05.21.1.3Z" fill="#222"/>
  <path d="m852.62,60.63c.11.02.23.01.34-.02.11-.04.21-.1.29-.18.08-.08.14-.19.18-.3.03-.11.04-.23.02-.35l-.82-.89v1.75Z" fill="#222"/>
  <path d="m853.46,42.16l1.71-.86c.01-.12,0-.24-.04-.36-.04-.11-.1-.22-.18-.3s-.18-.15-.29-.19c-.11-.04-.23-.06-.34-.04-.41-.06-.83.02-1.19.23l-.07.19c-.17.17-.37.29-.58.37-.22.08-.45.11-.68.09l1.67.86Z" fill="#222"/>
  <path d="m829.71,29.44c.12.14.29.23.48.25l.15.12.86-.89h-1.67c0,.19.07.38.19.52Z" fill="#222"/>
  <polygon points="742.99 12.3 744.06 13.42 744.25 12.3 742.99 12.3" fill="#222"/>
  <path d="m723.32,68.95c-.02.12,0,.24.02.35.04.11.09.22.17.3s.18.15.28.19c.11.04.22.06.34.04v-1.75c-.1-.02-.2-.01-.29.01-.1.02-.19.07-.27.13-.08.06-.15.14-.2.23-.05.09-.08.19-.1.29l.04.2Z" fill="#222"/>
  <polygon points="662.64 31.04 663.46 31.04 663.46 30.15 662.41 30.15 662.64 31.04" fill="#222"/>
  <path d="m652.66,27.9h.36l.07-.19c-.11.12-.29.12-.43.19h-2.13c.94.31,1.61.27,2.13,0Z" fill="#222"/>
  <path d="m613.63,29.68c-.01-.12,0-.24.04-.36s.1-.22.18-.3.18-.15.29-.19.23-.05.34-.04h-1.15l.3.89Z" fill="#222"/>
  <path d="m531,31.22v-.89h-.82c.56,0,.82.27.82.89Z" fill="#222"/>
  <path d="m491.44,29.89h1.03v-1.12c-.84-.58-1.21-.24-1.21.54l.19.58Z" fill="#222"/>
  <path d="m416.42,26.58v-1.12c-.14-.02-.29,0-.43.05s-.26.13-.36.24c-.1.11-.18.24-.23.38-.05.14-.07.29-.05.45h1.07Z" fill="#222"/>
  <path d="m388.01,29.89c.09.15.21.28.36.36.15.09.32.13.49.12l.19.58v-1.07c0-.78-.33-1.12-1.03-1.12v1.12Z" fill="#222"/>
  <path d="m307.33,14.11v-1.12c0,.73-.33,1.12-1.03,1.12h1.03Z" fill="#222"/>
  <polygon points="243.27 27.2 244.3 27.2 243.27 26.08 243.27 27.2" fill="#222"/>
  <path d="m226.49,22.54c-.01-.15,0-.3.05-.45.05-.14.13-.27.23-.38.1-.11.23-.19.36-.24s.28-.07.43-.05c-.42-.68-.7-1.02-1.49-1.02l.42-.05c-.14-.03-.28-.02-.42.03-.14.05-.26.12-.36.23-.1.1-.18.23-.22.38-.04.14-.05.29-.03.44l1.03,1.12Z" fill="#222"/>
  <path d="m163.27,37.17h1.07c.01-.15,0-.3-.05-.45-.05-.14-.13-.27-.23-.38-.1-.11-.23-.19-.36-.24-.14-.05-.28-.07-.43-.05v1.12Z" fill="#222"/>
  <path d="m156.62,32.9c.07.19.17.36.31.51.14.14.3.25.48.32.18.07.38.09.57.07l-1.43-1.49c-.02.2,0,.4.07.59Z" fill="#222"/>
  <polygon points="151.98 18.23 153.05 17.16 151.98 17.16 151.98 18.23" fill="#222"/>
  <path d="m130.7,27.05h1.03c-.14.02-.28,0-.41-.05-.13-.05-.25-.13-.35-.23s-.17-.23-.22-.36-.06-.28-.05-.43v1.07Z" fill="#222"/>
  <path d="m417.9,12.74h-9.8c-2.7-.03-5.38-.47-7.96-1.29h19.88l-.16.17h-1.21c0,.39-.51.73-.75,1.12Z" fill="#222"/>
  <path d="m1095.98,114.07l1.83.39v1.58c-.58-.68-1.22-1.31-1.83-1.97Z" fill="#222"/>
</svg>