<?xml version="1.0" encoding="UTF-8"?><svg id="Capa_1" xmlns="http://www.w3.org/2000/svg" xmlns:xlink="http://www.w3.org/1999/xlink" viewBox="0 0 479.06 479.06"><defs><filter id="drop-shadow-1" filterUnits="userSpaceOnUse"><feOffset dx="-1.42" dy="2.83"/><feGaussianBlur result="blur" stdDeviation="2.83"/><feFlood flood-color="#000" flood-opacity=".75"/><feComposite in2="blur" operator="in"/><feComposite in="SourceGraphic"/></filter></defs><g><path d="M394.86,421.97c42.62-37.31,69.25-83.42,80.3-139.09h-52.58v-86.77h52.1c.02-11.42-13.27-49.64-24.94-71.2-14.02-25.92-32.32-48.41-54.95-67.7-8.84,15.27-17.59,30.36-26.4,45.57-25.18-14.55-50.09-28.95-75.09-43.39,8.87-15.32,17.55-30.31,26.42-45.63-53.64-18.43-106.88-18.27-160.45,0,8.9,15.43,17.57,30.44,26.34,45.64-25.13,14.52-50.03,28.91-75.08,43.38-8.88-15.32-17.6-30.38-26.42-45.61-22.3,19.1-40.37,41.33-54.42,66.82-12.42,22.54-21.02,46.45-25.8,72.13,1.15,0,2.03,0,2.91,0,15.7,0,31.39,.04,47.09-.05,2.12-.01,2.65,.56,2.65,2.67-.07,27.16-.05,54.31-.05,81.47v2.69H3.85c10.98,55.66,37.49,101.85,80.24,139.03,8.94-15.43,17.66-30.48,26.46-45.66,25.15,14.54,50.06,28.93,75.08,43.39-8.86,15.32-17.54,30.32-26.4,45.65,53.67,18.42,106.9,18.25,160.43-.02-8.91-15.43-17.57-30.44-26.34-45.63,25.13-14.52,50.04-28.91,75.09-43.38,8.84,15.27,17.53,30.28,26.46,45.7Z" fill="#fff"/><path d="M57.09,394.9c15.42-8.93,30.42-17.62,45.7-26.46-14.47-25.05-28.86-49.96-43.38-75.09-15.18,8.77-30.19,17.43-45.63,26.34-18.27-53.53-18.44-106.77-.02-160.43,15.33,8.87,30.33,17.54,45.65,26.4,14.46-25.02,28.85-49.92,43.39-75.08-15.18-8.8-30.23-17.52-45.66-26.46C94.31,41.38,140.49,14.87,196.15,3.89V56.52h2.69c27.16,0,54.31-.03,81.47,.05,2.11,0,2.68-.53,2.67-2.65-.09-15.7-.05-31.39-.05-47.09,0-.88,0-1.75,0-2.91,25.68,4.78,49.58,13.38,72.13,25.8,25.5,14.05,47.72,32.12,66.82,54.42-15.23,8.82-30.29,17.55-45.61,26.42,14.47,25.05,28.86,49.96,43.38,75.08,15.2-8.77,30.21-17.43,45.64-26.34,18.27,53.57,18.44,106.81,0,160.45-15.32-8.87-30.31-17.55-45.63-26.42-14.44,24.99-28.84,49.9-43.39,75.09,15.21,8.81,30.31,17.56,45.57,26.4-19.28,22.63-41.78,40.93-67.7,54.95-21.56,11.66-59.78,24.96-71.2,24.94v-52.1h-86.77v52.58c-55.67-11.06-101.78-37.68-139.09-80.3Zm162.52,3.19c2.31,.21,4.5,.43,6.7,.62,10.54,.9,21.06,.65,31.56-.56,1.3-.15,1.8-.62,1.78-1.95-.07-3.47-.01-6.94-.04-10.4,0-.44-.19-.89-.32-1.47-13.27,1.83-26.44,1.75-39.67,.17v13.59Zm165.19-138.48c3.77,0,7.5-.06,11.23,.03,1.58,.04,2.13-.48,2.3-2.08,1.18-11.28,1.26-22.56,.1-33.84-.44-4.27-.5-4.26-4.88-4.26-2.36,0-4.71-.01-7.07,0-.66,0-1.32,.1-1.81,.14,.36,6.79,.97,13.35,.99,19.91,.02,6.56-.54,13.13-.86,20.08ZM219.48,94.78c13.52-1.94,26.7-1.8,40.14-.22,0-4.11-.07-7.91,.03-11.71,.04-1.56-.56-2.04-2.03-2.12-4.43-.23-8.86-.88-13.28-.81-7.69,.11-15.37,.63-23.05,1-.91,.04-1.83,.09-1.82,1.43,.03,4.01,.01,8.03,.01,12.43Zm-124.73,164.79c-1.87-13.43-1.81-26.61-.19-39.95h-13.74c-.3,4.71-.89,9.34-.83,13.96,.1,8.1,.58,16.19,.98,24.28,.03,.59,.68,1.62,1.06,1.64,4.14,.12,8.28,.07,12.72,.07Zm234.56,95.43c-10.88,8.23-22.31,14.8-34.8,19.91,1.97,3.45,3.87,6.59,5.56,9.84,.85,1.64,1.7,2.02,3.37,1.13,6.72-3.58,13.6-6.91,20.22-10.67,4.31-2.45,8.28-5.51,12.54-8.39-2.36-4.05-4.55-7.79-6.89-11.82ZM184.56,104.1c-2.03-3.54-4-6.79-5.78-10.14-.79-1.48-1.59-1.58-2.95-.87-6.03,3.12-12.21,5.97-18.09,9.33-5.09,2.91-9.86,6.38-14.93,9.71,2.43,4.14,4.64,7.93,6.94,11.86,10.85-8.17,22.28-14.77,34.81-19.89Zm-80.44,190.37c-3.83,2.21-7.44,4.24-10.99,6.39-.32,.2-.43,1.24-.23,1.72,1.1,2.62,2.25,5.22,3.51,7.77,4.21,8.54,9.13,16.66,14.87,24.26,.39,.52,1.48,1.15,1.83,.96,3.64-1.97,7.19-4.1,10.92-6.27-8.22-10.83-14.77-22.28-19.92-34.82Zm80.13,80.87c-6.13-3.13-12.11-5.89-17.78-9.17-5.73-3.31-11.16-7.14-16.9-10.86-2.16,3.75-4.35,7.55-6.62,11.5,10.77,8.26,22.29,14.74,34.66,20.09,2.29-3.97,4.45-7.74,6.65-11.56Zm190.67-190.81c3.53-2.02,6.73-3.94,10.02-5.7,1.47-.79,1.81-1.59,1.02-3.08-3.67-6.91-7.11-13.95-10.97-20.76-2.38-4.19-5.37-8.04-8.18-12.17-4.08,2.39-7.86,4.6-11.78,6.89,8.2,10.86,14.76,22.23,19.89,34.82Zm-38.71-72.48c-3.88-2.64-7.4-5.39-11.24-7.57-7.18-4.06-14.55-7.8-21.87-11.62-.54-.28-1.78-.34-1.96-.05-2.2,3.59-4.27,7.26-6.5,11.14,12.56,5.2,24.02,11.73,34.67,20.03,2.33-4.04,4.51-7.81,6.89-11.94ZM103.99,184.39c5.23-12.61,11.76-24.06,20.04-34.68-4.11-2.36-7.88-4.53-11.8-6.79-8.26,10.75-14.75,22.28-20.09,34.66,3.99,2.29,7.76,4.46,11.85,6.8Zm271.06,110.22c-5.21,12.64-11.76,24.06-20.03,34.7,4.11,2.36,7.92,4.55,11.86,6.82,1.75-2.46,3.4-4.68,4.96-6.97,5.58-8.22,10.32-16.91,14.29-26.02,.26-.6,.28-1.88-.05-2.09-3.52-2.18-7.13-4.2-11.03-6.44Z"/><path d="M219.61,398.09v-13.59c13.24,1.58,26.41,1.66,39.67-.17,.13,.58,.32,1.03,.32,1.47,.03,3.47-.03,6.94,.04,10.4,.02,1.32-.48,1.8-1.78,1.95-10.5,1.21-21.02,1.45-31.56,.56-2.2-.19-4.39-.4-6.7-.62Z" fill="#fff"/><path d="M384.79,259.61c.32-6.95,.88-13.52,.86-20.08-.02-6.56-.63-13.12-.99-19.91,.49-.04,1.15-.14,1.81-.14,2.36-.02,4.71,0,7.07,0,4.37,0,4.44,0,4.88,4.26,1.16,11.28,1.08,22.56-.1,33.84-.17,1.6-.72,2.12-2.3,2.08-3.73-.09-7.46-.03-11.23-.03Z" fill="#fff"/><path d="M219.48,94.78c0-4.4,.02-8.41-.01-12.43-.01-1.35,.91-1.39,1.82-1.43,7.68-.37,15.37-.88,23.05-1,4.42-.06,8.85,.58,13.28,.81,1.47,.08,2.07,.56,2.03,2.12-.1,3.79-.03,7.59-.03,11.71-13.44-1.59-26.62-1.73-40.14,.22Z" fill="#fff"/><path d="M94.75,259.57c-4.44,0-8.58,.04-12.72-.07-.38-.01-1.03-1.05-1.06-1.64-.4-8.09-.88-16.19-.98-24.28-.06-4.62,.53-9.24,.83-13.96h13.74c-1.61,13.34-1.68,26.52,.19,39.95Z" fill="#fff"/><path d="M329.31,355c2.35,4.02,4.53,7.77,6.89,11.82-4.26,2.88-8.23,5.93-12.54,8.39-6.62,3.77-13.49,7.09-20.22,10.67-1.67,.89-2.52,.51-3.37-1.13-1.69-3.25-3.59-6.38-5.56-9.84,12.49-5.11,23.92-11.68,34.8-19.91Z" fill="#fff"/><path d="M184.56,104.1c-12.54,5.12-23.96,11.72-34.81,19.89-2.3-3.93-4.52-7.71-6.94-11.86,5.07-3.33,9.84-6.8,14.93-9.71,5.89-3.36,12.07-6.21,18.09-9.33,1.36-.7,2.16-.61,2.95,.87,1.78,3.35,3.75,6.6,5.78,10.14Z" fill="#fff"/><path d="M104.12,294.47c5.15,12.54,11.7,23.99,19.92,34.82-3.73,2.18-7.28,4.3-10.92,6.27-.35,.19-1.44-.44-1.83-.96-5.75-7.6-10.66-15.72-14.87-24.26-1.26-2.55-2.41-5.15-3.51-7.77-.2-.48-.09-1.52,.23-1.72,3.54-2.15,7.15-4.19,10.99-6.39Z" fill="#fff"/><path d="M184.24,375.35c-2.19,3.82-4.36,7.58-6.65,11.56-12.37-5.35-23.89-11.83-34.66-20.09,2.27-3.94,4.46-7.75,6.62-11.5,5.74,3.72,11.17,7.55,16.9,10.86,5.68,3.28,11.66,6.04,17.78,9.17Z" fill="#fff"/><path d="M374.91,184.54c-5.13-12.58-11.69-23.96-19.89-34.82,3.93-2.3,7.71-4.51,11.78-6.89,2.81,4.14,5.8,7.98,8.18,12.17,3.86,6.8,7.3,13.84,10.97,20.76,.79,1.49,.45,2.3-1.02,3.08-3.29,1.75-6.49,3.68-10.02,5.7Z" fill="#fff"/><path d="M336.21,112.07c-2.38,4.13-4.56,7.9-6.89,11.94-10.65-8.31-22.11-14.83-34.67-20.03,2.23-3.88,4.3-7.55,6.5-11.14,.18-.29,1.41-.23,1.96,.05,7.32,3.81,14.68,7.56,21.87,11.62,3.84,2.17,7.36,4.93,11.24,7.57Z" fill="#fff"/><path d="M103.99,184.39c-4.09-2.35-7.86-4.51-11.85-6.8,5.34-12.38,11.83-23.92,20.09-34.66,3.92,2.26,7.7,4.42,11.8,6.79-8.28,10.62-14.81,22.07-20.04,34.68Z" fill="#fff"/><path d="M375.05,294.61c3.89,2.24,7.51,4.26,11.03,6.44,.34,.21,.31,1.49,.05,2.09-3.96,9.11-8.7,17.8-14.29,26.02-1.55,2.29-3.2,4.51-4.96,6.97-3.94-2.27-7.76-4.46-11.86-6.82,8.26-10.64,14.81-22.06,20.03-34.7Z" fill="#fff"/></g><g filter="url(#drop-shadow-1)"><path d="M152.74,278.15c.36-.18,.63-.27,.81-.27v-.27c-.85-1.25-1.39-1.88-1.61-1.88h-1.07c-.9,.45-1.34,.81-1.34,1.07v.54c0,.4,1.07,.67,3.22,.81Z" fill="#fff"/><path d="M165.63,284.6c0,.18-.09,.27-.27,.27,0,.36,.98,1.34,2.95,2.95l.54-.27c0,.58,.09,1.03,.27,1.34,1.3-.18,2.1-.36,2.42-.54,0-.45-.72-.71-2.15-.81v-.27l1.88-.54h.54l.54,.27c0-.18,.09-.27,.27-.27,0-.18-.09-.27-.27-.27l.27-1.34v-.27h-4.3l-2.68-.27Z" fill="#fff"/><path d="M171.53,274.39l.54,.81c.36,0,.54-.18,.54-.54v-1.07h-.27c-.54,.27-.81,.54-.81,.81Z" fill="#fff"/><path d="M169.26,293.15c.32,0,.53-.09,.72-.29-.21-.04-.41-.11-.59-.22,0-.31,.34-.49,1.01-.53,.06-.17,.11-.34,.15-.51l-.63-.84c-.18,0-.45,.09-.81,.27-.18-.18-1.61-.36-4.3-.54-.36,.18-.63,.27-.81,.27,0-.18-.09-.27-.27-.27h-.27v.27c1.48,1.38,3.21,2.22,5.17,2.54,.17-.09,.37-.15,.61-.16Z" fill="#fff"/><path d="M155.69,291.58c0-.31-.18-.49-.54-.54v.54l.27,.54,1.34-.27v-.54h-.54l-.54,.27Z" fill="#fff"/><path d="M281.86,290.23h.54v-.27c-1.57-1.61-2.46-2.42-2.68-2.42h-.54l-.81,.54h-.27l-1.88-.27c0-.31,.18-.49,.54-.54h1.34v-.54c-.67,0-1.57-.63-2.68-1.88v-.27h.54c1.25,1.07,1.97,1.61,2.15,1.61l1.07-.81-.27-.54c.4,0,.76-.09,1.07-.27l-.81-1.07-1.34,.81-4.03-.81v.27c-.89,0-1.34-.18-1.34-.54-1.61,0-2.42,.36-2.42,1.07h-.27l-1.07-1.07c-.89,0-1.43,.27-1.61,.81v.27c0,.36,.18,.54,.54,.54l-.54,.81v.27c0,.36,.18,.54,.54,.54l.54-.27c0-.4-.09-.76-.27-1.07v-.27l.54,.27-.27,1.88c0,.22,.36,.4,1.07,.54l.54-.27c0,.22,.36,.4,1.07,.54,.27-.54,.54-.81,.81-.81h2.15v1.07c-1.07,0-1.61,.27-1.61,.81v.27c0,.36,1.07,.63,3.22,.81,0-.18,.09-.27,.27-.27,0-.18-.09-.27-.27-.27l.27-1.34h.27c.45,1.61,.89,2.42,1.34,2.42h.81v-.81h.54c1.34,1.61,2.24,2.42,2.68,2.42,.98-.18,1.7-.27,2.15-.27v-.27l-1.61-1.07v-.27Zm-4.3-5.1h.54v.27h-.54v-.27Zm-9.13-.81h-.27v-.54h.81c0,.36-.18,.54-.54,.54Zm10.2,4.56h-.27v-.54h.27v.54Zm2.15,1.34h-.54c0-.31,.18-.49,.54-.54v.54Z" fill="#fff"/><path d="M243.48,279.5c-.31,0-.49,.18-.54,.54v.81h.54v-1.34Z" fill="#fff"/><path d="M274.08,290.77l-1.34-.54c-1.21,.18-2.01,.36-2.42,.54l.81,1.07,1.88-.54h.54l1.34,.27,.54-.81v-.27h-.27c-.4,0-.76,.09-1.07,.27Z" fill="#fff"/><path d="M271.93,289.7v-.54c-.36,0-.81-.36-1.34-1.07h-2.95c0,.18-.09,.45-.27,.81,0,.27,.36,.54,1.07,.81l.54-.27c1.21,.18,2.19,.27,2.95,.27Z" fill="#fff"/><path d="M267.1,282.45l.27,.54,1.34-.81c-.22-.89-.49-1.34-.81-1.34h-.27c-.31,0-.49,.18-.54,.54v.27h.54v.27c0,.36-.18,.54-.54,.54Z" fill="#fff"/><path d="M287.77,286.47c-.09,0-.98-.81-2.68-2.42-.49,0-1.03,.18-1.61,.54,0-.18-.09-.45-.27-.81h.81c0-.36-.63-.63-1.88-.81-.72,.18-1.34,.27-1.88,.27v.27c1.16,1.43,1.97,2.15,2.42,2.15l1.07-.27c.45,0,1.25,.72,2.42,2.15l.54-.27-.27-.54h.54l.27,1.34v.81c.54,0,.81,.18,.81,.54,.36,0,.54-.18,.54-.54v-.81l-1.07-1.07,.27-.54Z" fill="#fff"/><path d="M285.62,287.82c-1.25-.58-1.88-1.12-1.88-1.61h-.81l1.07,2.68h-.81c0-.67-.54-1.12-1.61-1.34h-.27c.72,1.25,1.34,1.88,1.88,1.88l1.88,1.61c0,.18-.09,.45-.27,.81,0,.54,.18,.81,.54,.81h.81c1.61,0,2.42-.63,2.42-1.88-.31-.67-1.3-1.65-2.95-2.95Zm1.61,2.95l-.27,.54-1.34-.27c0-.31,.18-.49,.54-.54h1.07v.27Z" fill="#fff"/><path d="M285.89,283.25c0,.94,.81,1.92,2.42,2.95h.27v-2.95c-.22,0-.76-.27-1.61-.81l-1.07,.81Zm1.34,.27h.27v.54h-.27v-.54Z" fill="#fff"/><path d="M284.28,282.72h.27c0-.4,.36-.94,1.07-1.61v-.27h-.81c-.49,0-1.03,.18-1.61,.54,.49,.9,.85,1.34,1.07,1.34Z" fill="#fff"/><path d="M275.42,282.45v-.54c-.27-.54-.54-.81-.81-.81l-.81,.54h-.27c0-.27-.18-.63-.54-1.07-.94,.36-1.66,.54-2.15,.54v.27l1.07,1.34,3.22-.27h.27Z" fill="#fff"/><path d="M278.37,282.18c0-.71-.36-1.16-1.07-1.34-.54,0-.81,.18-.81,.54v.27c.36,0,.89,.18,1.61,.54h.27Z" fill="#fff"/><path d="M268.44,279.5l.54-.27c0,.18,.09,.27,.27,.27h.27c.36,0,.54-.18,.54-.54v-.27l-2.68-2.68c0,.18-.09,.45-.27,.81l.27,.54-.27,1.34,1.34,.81Z" fill="#fff"/><path d="M280.79,285.4h-.54l-.54,.27c0,.72,.45,1.34,1.34,1.88h.27l.27-1.61-.81-.54Z" fill="#fff"/><path d="M282.4,282.18c-.27-.54-.54-.81-.81-.81h-2.15v.27c0,.27,.72,.63,2.15,1.07l.81-.54Z" fill="#fff"/><path d="M310.99,181.19l-.2,1.4,.54,.27h1.34v-1.63c-.56-.01-1.12-.03-1.68-.04Z" fill="#fff"/><path d="M306.22,230.1h.81v-.81c0-.36-.18-1.25-.54-2.68h-.54v1.61l.27,.54h-.27l.27,1.34Z" fill="#fff"/><path d="M299.78,280.3c-.18-.27-.27-.81-.27-1.61h-.54v1.34l.27,.54,.54-.27Z" fill="#fff"/><g><path d="M165.71,286.78v-.08l-.08,.05h-1.07l-.54-.27c0-.31,.45-.58,1.34-.81l-.81-1.07-.21,.06,.15,.46c-.13-.14-.24-.27-.35-.4l-1.47,.42c-.31,0-.49-.18-.54-.54v-.27c.6-.06,1.11-.11,1.56-.17-.34-.45-.53-.79-.55-.98h-.06c-.02-.15-.03-.29,0-.43,0-.01,0-.02,0-.03h-1.15l-.05,.45-.44-.45h-.12v-.12l-.16-.16c.43-.67,.77-1.44,1-2.28-.49,.27-.95,.41-1.38,.41h-2.42l-.65,.34,.04-.34h-4.76l1.34-1.07v-.81c-2.52,0-4.05,.17-4.6,.49l-.12,.47-.12,.05v.06c0,.54,.54,.81,1.61,.81,0,.34-.5,.52-1.49,.53,.09,.44,.18,.88,.25,1.32,.26-.04,.49-.12,.71-.24,1.79,.13,2.68,.4,2.68,.81-.4,0-.76,.09-1.07,.27l-.54-.27-1.61,.27h-.05c.03,.29,.06,.57,.08,.86,1.05,.12,1.58,.37,1.58,.75v.27c0,.15-.33,.45-.97,.88l.55,.59,.03,.26,.02,.03c1.44-.2,2.38-.43,2.78-.68l.27,.54v.27c-.36,0-.9,.18-1.61,.54,0,.18,.09,.45,.27,.81,0,.13-.15,.27-.45,.4,.08,.13,.17,.27,.25,.4h.2c0,.1-.02,.18-.04,.25,.13,.21,.25,.43,.38,.65,.07-.03,.13-.06,.21-.1,.31,.18,.67,.27,1.07,.27h1.34c.18,0,.27-.09,.27-.27,1.79-.18,2.68-.45,2.68-.81s-.36-.54-1.07-.54c0-.18,.09-.27,.27-.27-.27-1.97-.72-2.95-1.34-2.95s-1.43,.09-2.42,.27c-.58-.54-1.03-.81-1.34-.81v-.27c1.48,0,2.46-.27,2.95-.81,.85,.72,1.57,1.07,2.15,1.07l1.07-.81h1.07l.54,.27c0,.36-.27,.98-.81,1.88-.72,0-1.25-.36-1.61-1.07l-.54,.27c.27,.54,.54,.81,.81,.81l-.27,.54c.71,.85,1.07,1.84,1.07,2.95h.81c0-.54,.18-.81,.54-.81h.27c.81,.67,1.61,1.03,2.42,1.07,1.07-.49,1.61-.85,1.61-1.07l-.27-.54-1.88,.54v-.27l.54-.81c.4,0,.76,.09,1.07,.27l1.61-.27h.54c0,.4,.09,.76,.27,1.07v.27l-.54-.27v.54h1.34c.36,0,.54-.18,.54-.54l-1.65-1.86c-.32-.05-.64-.13-.95-.26Zm-10.02,1.58h.54v.54h-.54v-.54Zm-.27,.81h.54v.54h-.54v-.54Zm-.81-.27v.27h-1.07v-.27c0-.31,.18-.49,.54-.54,.36,0,.54,.18,.54,.54Zm.81-7.78h.27v.54h-.27v-.54Zm1.07,2.68v-.54c.36,0,.54,.18,.54,.54h-.54Zm-.27-.81h-2.15v-.27c.71,0,1.07-.27,1.07-.81h2.42c.36,0,.54,.18,.54,.54-.85,0-1.48,.18-1.88,.54Zm2.68,.27c0-.4-.09-.76-.27-1.07h1.34c-.45,.72-.81,1.07-1.07,1.07Z" fill="#fff"/><path d="M161.41,181.37l.02,.47-.69-.33c-2.92,.63-5.84,1.23-8.83,1.46l-.7,6.01-.41-.09c-.13,.28-.2,.59-.2,.93v12.89c0,.36,.27,.54,.81,.54,3.31,0,5.23,1.34,5.75,4l1.54,.71,.04,1.17-1.07-.5-.47-1.15c.07,.44,.11,.91,.11,1.41-.18,1.57-.27,2.46-.27,2.68l.27,.54c-.18,.31-.27,.67-.27,1.07v6.17c0,.63,.09,1.43,.27,2.42-.18,.22-.27,.85-.27,1.88,0,.85,.09,1.74,.27,2.68-.4,3.53-.76,5.5-1.07,5.91,0,.62-.63,1.34-1.9,2.17,.13,.61,.23,1.22,.28,1.83,.16,.09,.31,.2,.46,.32,.08,.07,.16,.15,.24,.24h.93v.27l-.36,.54c.06,.11,.12,.22,.17,.34h0l.06,.12s-.05-.08-.06-.12c-.09,0-.17,.03-.25,.06,.46,.69,.87,1.8,1.25,3.35-.18,0-.27,.09-.27,.27v13.15c0,.36,.18,.54,.54,.54h3.49c.36,0,.54,.18,.54,.54l-2.68,.27-1.07-.27c-.54,.4-.81,.67-.81,.81v1.61l.27,1.34c-.18,0-.27,.27-.27,.81v.27l.54,.81c0,.18-.09,.27-.27,.27-.27,2.73-.9,4.61-1.88,5.64h1.34c.63,0,1.43-.09,2.42-.27,.36,.18,.63,.27,.81,.27,.36-.18,.63-.27,.81-.27h.27c0,.36-.18,.54-.54,.54h-.27c-1.03,0-2.46,.09-4.3,.27-.31,0-.49-.18-.54-.54l-2.68,.81h-2.42l.27,1.34c-.54,0-.81,.18-.81,.54v.27l.54,.81v.27l-.54,.81v.81c0,.36,.27,.54,.81,.54l-.81,1.07v.27c0,.36,.18,.54,.54,.54h1.61c.36,0,.54-.18,.54-.54-.4-.67-.94-1.03-1.61-1.07v-.27h.54c.76,0,1.48,.63,2.15,1.88,0,1.66,.98,2.55,2.95,2.68,.54,0,.81-.36,.81-1.07h.27c0,.72,.27,1.07,.81,1.07v.54h-1.07l-1.88-.27c0,.18-.09,.27-.27,.27l.27,1.07h2.71l.11-.89,.78,.22,.16,.67h1.62c0-.18-.09-.45-.27-.81v-.27h.27l1.07,1.07h.27v-.81h.27c1.43,.67,2.15,1.12,2.15,1.34v.54h-.54l-1.34-.81c-.05,.03-.1,.05-.15,.08l-.22,1.88c.41-.13,.98-.34,1.72-.62,.58,.36,1.57,.63,2.95,.81,0,.27-.36,.54-1.07,.81-.31-.18-.67-.27-1.07-.27h-.87l.47,1.39c.74-.1,1.24-.21,1.47-.31,.31,.18,.67,.27,1.07,.27h5.37c.36,0,.54-.18,.54-.54v-1.34l-.27-.54c.18,0,.27-.09,.27-.27v-4.3c0-.31-.18-.49-.54-.54l.27-.54-1.88-2.42c-.31,0-.49,.18-.54,.54l.54,.81c0,.36-.18,.54-.54,.54h-.54c0-.54-.27-.81-.81-.81v-.27c.58,0,1.3-.81,2.15-2.42l.54,.27h.81c.54-1.21,.81-1.92,.81-2.15,0-.45-.63-.89-1.88-1.34h-1.07v.27c.71,.81,1.07,1.25,1.07,1.34v.27c-.76,0-1.57-.18-2.42-.54-.31,.18-.67,.27-1.07,.27h-.54c-.31,0-.49-.18-.54-.54l-.54,.27c0,.18,.09,.45,.27,.81v.27h-.81l-1.34,.27v-1.07c1.07,0,1.61-.45,1.61-1.34h2.95v-.54c-1.7,0-2.77-1.07-3.22-3.22v-1.61c0-.76-.09-1.74-.27-2.95,.18-.31,.27-.67,.27-1.07l-.27-1.34,.27-1.34c0-.89-.09-2.24-.27-4.03,0-1.16,.18-3.85,.54-8.05,0-2.22,2.33-3.52,6.97-3.9,0-.01,0-.03,0-.04,.06-.93,.22-1.83,.5-2.68,1.11,.47,2.14,1.25,3.02,2.29-.01,.13-.04,.27-.07,.4,.26,.11,.46,.17,.6,.17l.54-.27,.54,.27c3.36-.54,5.95-1.7,7.78-3.49,2.15-2.15,3.67-5.82,4.56-11.01-.76-.36-1.3-.54-1.61-.54v-.54c.18,0,.45,.09,.81,.27,.18,0,.45-.09,.81-.27,0-2.04,.38-3.76,1.13-5.16-.08-.17-.13-.37-.13-.6v-1.4c-.32-.22-.55-.57-.55-1.08v-4.18c-.3-.81-.45-1.68-.45-2.61l.27-.54-.27-1.61v-11.54c0-2.24-.36-4.3-1.07-6.17-.78-2.26-1.71-4.22-2.78-5.87-.16,.43-.29,.89-.38,1.36-.08,.42-.25,.78-.51,1.04-.25,.26-.57,.39-.9,.39l-.84-.43-.39,.04-.4-3.54c-.09-.43-.07-.88,.06-1.28,.07-.23,.1-.48,.1-.73-3.93-1.62-8.18-2.34-12.52-1.88-3.04,.32-6.02,.98-9,1.63Zm-7.33,14.64c-.27,.54-.54,.81-.81,.81h-.27v-.27c0-.27,.36-.54,1.07-.81v.27Zm3.22,1.88h.54v.27h-.54v-.27Zm.81,9.4h-.54v-.27h.54v.27Zm0-1.61c0,.36-.18,.54-.54,.54v-.81c0-.31,.18-.49,.54-.54v.81Zm12.88,73.65l.39-.04-.33,.57,.06,.52c-.13,.13-.24,.27-.35,.42l-.04-.38,.33-.56-.06-.53Zm-1.6-7.88c.36,0,.54,.18,.54,.54h-.54v-.54Zm-2.68-83.76c.36,0,.54,.18,.54,.54v.54h-.27l-.54-.27c.18-.36,.27-.63,.27-.81Zm-5.53,31.75c.36-.28,.8-.35,1.23-.2l.26-.02,.09-.2,.07,.18,1.69-.13,.08,2.33-.66,1.61c-.52-1.19-.9-2.47-1.14-3.79h-.14l-1.06,2.33-.92-1.19c.03-.19,.09-.37,.18-.53,.09-.16,.19-.29,.32-.38Zm2.76-20.69l.3-1.39,.54,.24,.22,1.64-1.07-.49Zm-1.63,27.79l-1.07-.49,.3-1.39,.54,.24,.22,1.64Zm-2.05-17.64h.54v.27h-.54v-.27Zm-2.15,23.35h-.54v-.27h.54v.27Zm1.34-1.88c0,.45,.71,1.16,2.15,2.15l-.27,.54c-.4,0-1.3-.54-2.68-1.61,.27-.71,.54-1.07,.81-1.07Zm0,30.33c0,.18,.09,.27,.27,.27h2.95l.54,.27-.27,.54c-.54,0-1.61-.18-3.22-.54l-1.34,.27-.27-.54c.58,0,1.03-.09,1.34-.27Zm4.03-5.37v.27c-.4,0-.76,.09-1.07,.27l-.27-.54h1.34Zm-.81-9.93v-.54h.27v.54h-.27Zm-.27,23.35h.81v.27h-.81v-.27Zm-.27-1.07c0-.31,.18-.49,.54-.54h.27v.54h-.81Zm-4.56-4.03v-.54h1.34l.54-.27c0,.18,.09,.27,.27,.27h.54l1.61-.27h.27v.27c-1.16,.36-1.97,.54-2.42,.54h-2.15Zm3.22,1.89l-1.11-.86,.9-.79,.66,1.24-.45,.41Zm-2.68,3.21h1.07v.27h-1.07v-.27Zm-2.15,2.95v.27h-.54v-.27h.54Zm-.54-2.68v.54h-.54c0-.31,.18-.49,.54-.54Zm.81,6.44c-.18,0-.45,.09-.81,.27l-.27-.54h1.07v.27Zm1.34,0h-1.07v-.27h1.07v.27Zm.02-4.59l-1.16,.72-.27-1.14,.46-.39,.72,.73,.26,.08,.57-.36-.06,.51-.51-.15Zm1.05,1.37l-.54,.27-.27-.54c0-.31,.18-.49,.54-.54h1.07l1.34,.27v.54h-2.15Zm2.42,5.64h-1.07v-.27h1.07v.27Zm0-2.15h-1.61v-.54l1.61,.27v.27Zm6.98,3.76c0,.36-.18,.54-.54,.54v-.54h.54Zm-.54-4.3v-.27h.54v.27h-.54Zm1.88,6.44h.27v.54c-.54,0-1.16,.09-1.88,.27,0-.36,.54-.63,1.61-.81Zm-2.95-10.47c.71,.36,1.25,.9,1.61,1.61-.27,.54-.54,.81-.81,.81h-.27c0-.81-.09-1.34-.27-1.61l-.54,.27,.27-1.07Zm-.54,1.34v.27l-.27,.54c-.27-.18-.81-.27-1.61-.27v-.81c.71,.18,1.34,.27,1.88,.27Zm-1.88-2.89l-.13,.28,.07,.22-.15-.04-.88,1.85-1.44-1.46-.3-.89-.12-.02v-.27h.02l-.19-.57c.54,.14,1.06,.33,1.58,.57h.2l-.04,.08c.4,.2,.79,.42,1.17,.67l.08-.14-.8-2.65,1.23-.17c.1,.16,.17,.34,.22,.53,.05,.19,.06,.39,.05,.59-.04,.56-.24,1.07-.57,1.42Zm-.26-18.85v-.27h.54v.27h-.54Zm-.33-8.12l-.07-2.33-3.12,2.01-.72-.71,2.04-2.51c1.14,.03,2.27,.55,3.21,1.49l.04,1.17-1.38,.89Zm1.67-4.77l-2.68-.27-.54,.27c0-.27-.98-.45-2.95-.54l.27-.54c1.34,0,3.4,.18,6.17,.54l-.27,.54Zm.39-45.97h-.14l-1.06,2.33-.92-1.19c.03-.19,.09-.37,.18-.53,.09-.16,.19-.29,.32-.38,.36-.28,.8-.35,1.23-.2l.26-.02,.09-.2,.07,.18,1.69-.13,.08,2.33-.66,1.61c-.52-1.19-.9-2.47-1.14-3.79Zm4.26,5.84l-2.22,2.75-1.13-.24,.24-3.34,3.11,.84Zm3.4,40.13c0,.36-.18,.54-.54,.54h-1.88l-1.61-.27c-.36,.18-.63,.27-.81,.27-.27,0-.98-.18-2.15-.54v-.54h3.49l.54-.27c0,.36,.18,.54,.54,.54h2.42v.27Zm-4.3-2.42h.27c.36,0,.54,.18,.54,.54v.27c-.54-.27-.81-.54-.81-.81Zm6.98,3.22h-.81c-.31,0-.49-.18-.54-.54v-.81h.54c0,.54,.27,.81,.81,.81v.54Zm-.25-4.08l-1.03,.66-.19-.47,1.35-2.05,.88,.03-1,1.83Zm3.74,4.34h-.81v-.27h.81v.27Zm.54-5.1h-.54v-.27h.54v.27Zm.81,2.68h-.54v-.27h.54v.27Zm2.3,1.64l-.83-.43,.16-1.21h-.01c0-.09,.02-.17,.04-.23l.02-.16,.06,.03c.09-.1,.22-.16,.41-.18h.27v.27l-.11,.21,.21,.11-.22,1.59Zm.66-2.99h-.54c-.31,0-.49-.18-.54-.54h1.07v.54Zm4.56-6.98h-.27c-.54,0-.81-.18-.81-.54v-.27c.45,.36,.81,.54,1.07,.54v.27Zm-1.58-5.23l.9-.53c.23,.28,.53,.43,.83,.43,.05-.02,.11-.02,.16,0,.05,.02,.1,.05,.15,.09,.04,.05,.08,.1,.11,.17,.03,.07,.04,.14,.04,.21l.06,.53-1.96,.22-.12-1.04-.2-.07-.19,.11-.83-.43,1.05,.32Zm-.03,3.62v.27h-.27c-1.79-.4-2.68-.85-2.68-1.34h.27c.4,0,1.3,.36,2.68,1.07Zm-3.92-8.91l-.27,1.07-.83-.43,.27-1.08c.15,0,.3,.03,.45,.1,.14,.07,.28,.19,.39,.33Zm-1.29-4.83c.29,1.94,.3,3.85,.04,5.8-.06,.42-.27,.75-.55,.98,.77,.97,1.16,2.03,1.16,3.19v.54c.45,0,1.52,.36,3.22,1.07v.54h-.27l-2.68-1.07h-.27v.27c-.63,3.13-1.7,5.19-3.22,6.17l-4.3,1.61h-2.15c-4.47,0-6.71-1.52-6.71-4.56v-4.56l.27-1.88c-.18,0-.27-.09-.27-.27h.27l-.27-1.34v-5.37l.27-1.88c-.18,0-.27-.09-.27-.27l.27-2.68c0-4.12,2.42-6.17,7.25-6.17,5.91,0,8.86,2.59,8.86,7.78-.08,.65-.3,1.36-.65,2.1Zm.12-30.83h.27v.54h-.27v-.54Zm-1.88,8.86c.54,0,.81-.27,.81-.81h.54v.27c-.22,0-.67,.36-1.34,1.07v-.54Zm-3.56,1.24l-1.38,.89-.38-.94,.5-.93,1.26,.97Zm-1.4-5.62l.04,1.16c-.84-.09-1.68,.04-2.46,.4l2.42-1.56Zm-3.82,13.13l-.54-.26-.04-1.16-.13-.32-.59-.4,.34-.22,.25,.62,1.21,.81-.5,.93Z" fill="#fff"/><path d="M150.77,183.05l-.44,2.22c.06,.41,.11,.79,.17,1.14l.39-3.37s-.08,0-.12,0Z" fill="#fff"/></g><g><polygon points="238.37 282.72 238.37 282.29 238.08 282.71 238.11 282.72 238.37 282.72" fill="#fff"/><path d="M237.56,283.44l-1.1,.54-.14-.49,.06-.08c-1.03-.28-1.9-.44-2.58-.44v-.27c.18,0,.45-.09,.81-.27,.54,0,1.16,.09,1.88,.27l.54-.27,.14,.03,.73-.87,.48,.07v-6.75l-.27-.54c-.81,0-1.97,.09-3.49,.27-.13,0-.67-.09-1.61-.27,0-.54,.98-.81,2.95-.81h1.88l.81-.54c-.17-9.16-.26-16.58-.27-22.27l-.04-.03,.04-.17c0-.3,0-.6,0-.89v-1.61l-.54-.81c-.14,.02-.27,.03-.39,.05,0,.02,0,.04,0,.06,.43,2.26-.72,4.29-2.62,5.53-.04,1.71-.46,3.43-1.22,5.06-.26,.57-.94,.75-1.53,.62-.31,1.01-.73,1.98-1.25,2.85,0,.02,.02,.04,.03,.06-.63,2.86-1.25,4.3-1.88,4.3,0,.42-.22,.78-.66,1.08l-.18,2.17-.84,1.52c-.3-.98-.5-2.01-.62-3.06-.25,.06-.53,.11-.82,.16l-.71,1.18-.61-1.02c-.89,.08-1.91,.12-3.08,.12h-2.01c-.02,.19-.07,.38-.16,.55-.35,.66-1.2,.81-1.82,.51-.3,.39-.73,.58-1.26,.62-.71,.04-1.41,.14-2.12,.15-.25,0-.48-.07-.68-.19-.28-.03-.58-.08-.88-.16-.76-.19-1.1-.98-.96-1.69,.07-.37,.22-.69,.41-.98,0-.12,0-.24,.03-.36,.16-.7,.19-1.41,.45-2.09,.15-.41,.43-.71,.77-.87-.24-1.6-.37-3.76-.37-6.49v-3.76l.27-3.22c-.31-.18-.76-.27-1.34-.27v-.27c.89,0,1.34-.18,1.34-.54v-2.95c0-2.25,.19-4.11,.57-5.56-.77-2.8-1.29-5.63-.82-8.55,.08-.47,.32-.75,.64-.89-.34-1.51-.55-3.66-.63-6.45-.08,.2-.17,.39-.27,.58-.43,.76-1.05,1.3-1.75,1.52l2-3.51c0-.34,0-.68,0-1.03,.36-2.28,.54-3.62,.54-4.03l-.27-.54c.18,0,.27-.09,.27-.27v-2.3l-2.72,1.34-.64-.79,2.31-2.26c.36,.05,.71,.15,1.05,.3v-4.07c0-1.16,.18-2.42,.54-3.76,.49-2.15,2.19-3.22,5.1-3.22,0,.18,.09,.27,.27,.27h1.07c.31,0,.58-.81,.81-2.42-.18-.31-.27-.67-.27-1.07v-5.91l-.27-1.34c.18,0,.27-.09,.27-.27l-.15-2.16-1.17,.58,.2-2.32-3.32,1.64-.64-.79,2.31-2.26c.91,.13,1.76,.57,2.5,1.27l-.25-3.47c.18,0,.27-.09,.27-.27-.18-.31-.27-.67-.27-1.07v-.57c-1.92,.03-3.82,.02-5.7-.41-.15,.06-.3,.1-.47,.11-3.42,.16-6.8-.31-10.18-.82-1.76,.02-3.52,.06-5.24-.21l1.01,.45v2.09l.2,.27h.01l.05,.06,2.09-1.38,.39-1.04v.52c0,.14,0,.28-.04,.42-.03,.13-.09,.26-.16,.37-.17,.38-.24,.83-.2,1.27l-1.18,1.05-.9-1.2h-.01l-.05-.06-.24,.17v-.52l-1.18-.52-.39-1.05,.04-.44,.36-.47c-.25-.04-.5-.09-.75-.15v6.1l.27,.54c-.18,0-.27,.09-.27,.27v2.68l.27,2.68c-.18,0-.27,.09-.27,.27,.18,.98,.27,1.79,.27,2.42v2.95l-.27,2.68c.36,.72,.63,1.07,.81,1.07,4.47,0,6.71,1.34,6.71,4.03v2.42l.27,1.88c-.18,0-.27,.09-.27,.27l.27,.54-.27,1.61,.27,.54c-.18,.31-.27,.67-.27,1.07v5.91c0,.63-.09,1.43-.27,2.42l.54,3.22c-.18,0-.27,.09-.27,.27v1.61c0,.91-.11,1.76-.33,2.56h.03l2.35,1.56c-.76,.3-1.49,.72-2.17,1.26-.29,.25-.59,.47-.9,.68,.41,1.57,.72,3.16,.76,4.8,0,.24-.04,.44-.11,.61,.25,.67,.46,1.41,.63,2.22-.18,0-.27,.09-.27,.27v2.68c0,.76,.09,1.74,.27,2.95-.18,.36-.27,.63-.27,.81l.27,1.07-.27,1.07c0,.18,.09,.45,.27,.81l-.27,1.61v6.17c0,1.66-.09,3.18-.27,4.56,0,1.7-1.43,3.22-4.3,4.56l-.81-.54h-1.34c-.31,0-.58,.45-.81,1.34l.27,.54c-.18,.31-.27,.67-.27,1.07l.27,.54c-.18,0-.27,.09-.27,.27v8.05l2.68-.27h3.76l.54-.27c0,.18,.09,.27,.27,.27h4.03l1.88,.27c0-.31,.45-.49,1.34-.54h1.41l-.03-.12c.1,.04,.19,.08,.28,.12h1.28l.54,.27c0,.13-.19,.26-.56,.39,.41,.26,.81,.55,1.2,.87l.09-.13-.49-2.73,1.24-.02c.08,.17,.13,.36,.16,.55,.02,.2,.02,.4-.02,.59-.1,.56-.36,1.04-.73,1.34l-.16,.26,.04,.23-.15-.06-.7,1.12h.6v.54h-.94l-.05,.08-.06-.08h-.56c-1.43,0-3.13,.09-5.1,.27-.36-.18-.63-.27-.81-.27v-.54c.4,0,.76-.09,1.07-.27l1.61,.27h2.42l.54-.27c0,.18,.09,.27,.27,.27h.14l-.78-1-.15-.71c-.64,.12-1.45,.24-2.43,.37,0-.18-.09-.27-.27-.27h-.54c-.44,0-.81,.02-1.1,.05l.32,.42,.25,.11,.61-.29-.12,.49-.49-.2-1.24,.59-.11-.9h-.01c-.98-.17-1.79-.26-2.42-.26h-2.68c-1.16,0-2.95,.09-5.37,.27,0-.18-.18-.27-.54-.27v4.03c0,.36,.18,.54,.54,.54h.27l.81-.54-.27,1.88v.54c-.36,0-.67,.1-.93,.31,.22,.17,.44,.34,.66,.51h.27v.2c.18,.13,.36,.26,.54,.38v-.5l1.19-1.57,.21,.43c.5-.21,1.55-.49,3.15-.83,.94,.18,1.48,.27,1.61,.27,.18,0,.89-.09,2.15-.27,.54,.27,.81,.54,.81,.81v.27c-.4,0-.76,.09-1.07,.27l-4.3-.54-2.1,.53,.31,.64-.39,1.05-.47,.15c.35,.3,.47,.69,.41,1.07,.75,.38,1.49,.8,2.16,1.3l.34-.17h1.34c.09,0,.36,.18,.81,.54h.27c1.25-.85,1.88-1.39,1.88-1.61,.31,0,.73,.16,1.25,.47l.37-1.58,.75,.31,.14,1.16-.89,.34c.53,.35,1.15,.83,1.86,1.45,.4,0,.83,.05,1.28,.15,.45-.65,.82-1.38,1.09-2.19l-.55,2.33c.37,.11,.76,.25,1.17,.43,.04-.08,.08-.17,.11-.27,.03-.13,.05-.27,.04-.41l.18,.82c.15,.07,.3,.14,.45,.22,0-.18,.09-.27,.27-.27l-.27-.54h1.61v.81h3.49v-.81h4.83c1.25,0,1.88-.81,1.88-2.42,.36,0,.54,.27,.54,.81,.81,0,1.52-.18,2.15-.54l.65,.86c.25-.12,.5-.23,.76-.33h-.06v-.27h.54v.09c.13-.04,.26-.09,.39-.12,.12-.43,.44-.82,.91-1.01,.47-.19,.94-.27,1.42-.27,.02-.01,.03-.02,.05-.04,.65-.47,1.29-.23,1.66,.26,.21,.1,.38,.27,.49,.47,.09-.07,.18-.15,.26-.22,.5-.45,1.08-.47,1.54-.24v-2.95l-.27-.54c-.4,0-.76,.09-1.07,.27-.31,0-.49-.18-.54-.54v-.27h1.34c.54-.27,.81-.54,.81-.81,0-.09-.34-.51-1-1.26l-.08,.11Zm-1.87-1.8h-.81v-.27h.81v.27Zm-.81-2.15c0,.18,.09,.45,.27,.81h-.54c-.31,0-.49-.18-.54-.54,.18,0,.45-.09,.81-.27Zm.7-10.66l-.27-.97,.6-.86,1.14,1.11-1.47,.73Zm.72-6.47l-.1,1.15c-.83-.19-1.67-.15-2.49,.12l2.58-1.27Zm-22.59-70.41l.96,.32-1.52,6.5-.96-.32,1.52-6.5Zm-13.97,9.07c-.3-.35-.49-.83-.55-1.36l-.05-.09,.28,.34c.39,.48,.49,.84,.31,1.1Zm-.3,78.2h-.27v-.54h.27v.54Zm-.54-1.07l.27-1.34,.54,.27c-.27,.72-.54,1.07-.81,1.07Zm1.34,0v-.54h.54c0,.36-.18,.54-.54,.54Zm3.49-.81h-.81v-.27h.81v.27Zm8.28-35.61l.39,1.04v.52l-.39-.52v-1.04Zm-1.78,3.95c.5,.11,.96,.4,1.35,.82,.36,.4,.63,.91,.81,1.49h0l.05,.13s-.04-.08-.05-.13c-.21-.02-.43,.08-.59,.26-.16,.18-.37,.27-.58,.25-.38,0-.76-.1-1.1-.32-.34-.22-.64-.55-.87-.95-.48-.82-1-1.61-1.56-2.35,.83,.35,1.68,.62,2.54,.79Zm.75,3.48v.54h-1.07v-.27c.18,0,.45-.09,.81-.27h.27Zm-7.78-53.86c-.33-.38-.17-1.1,.53-2.1l-.03-.14,.05,.11s-.01,.02-.02,.03l.6,2.78c-.43-.03-.84-.27-1.13-.69Zm1.03,7.7v-.73l.29,.36-.29,.38Zm1.25-19.49l-.78-.52h1.17l-.39,.52Zm1.08,39.4l-.39-.52c.11-.14,.24-.25,.38-.32,.14-.07,.3-.1,.45-.09l-.05-.11c.15,.01,.3,.06,.44,.15,.14,.09,.26,.22,.35,.37l-1.18,.52Zm2.26,36.29c.54-.69,1.23-1.13,1.97-1.26l.4,.53v1l-4.33,2.08c.54-.69,1.19-1.48,1.97-2.35Zm-1.6,18.15l-1.61,.27v-.54h1.61v.27Zm6.44-.27l-1.88,.27h-3.22v-.27c.45,0,1.7-.18,3.76-.54,.31,.18,.76,.27,1.34,.27v.27Zm.31-1.14l-1.01-.98,.98-.68,.52,1.31-.49,.35Zm-15.07,5.44h-.54v-.27h.54v.27Zm1.13,2.92l-.27-2.3,.35-1.49,.37,.16,.15,2.8-.61,.83Zm8.8,.3h-1.88v-.54h1.88v.54Zm20.18-.75l-.64-.81,.47-1.99,1.26,1.63,1.07-4.49,.86-.18-.07,3.81c-.79,1.09-1.83,1.81-2.95,2.05Zm1.57,2.9v.27h-1.07v-.27h1.07Zm-.25-14.21l.18,.64,1.11,.94-.6,.86-.51-.32,.1-1.15-.09-.33-.54-.46,.37-.18Zm.52,5.89v.27l-1.34,.27h-1.34l-1.34-.27v-.27h4.03Zm-2.68,3.22v1.07c-.31,0-.49-.18-.54-.54,0-.31,.18-.49,.54-.54Zm-2.95-.27h-.27l-.81-.54c.49-.89,.85-1.34,1.07-1.34h.27c-.18,.72-.27,1.34-.27,1.88Zm.54,.27h.27c0,.4,.09,.76,.27,1.07-.4,0-.76,.09-1.07,.27-.54-.27-.81-.54-.81-.81v-.27l1.34-.27Zm-1.34,4.03c.36,.18,.63,.27,.81,.27v.27c0,.36-.18,.54-.54,.54,0-.18-.09-.45-.27-.81v-.27Zm.68-.73l-.64-.81,.99-.68,1.12,.47-1.47,1.02Zm1.2-4.37v-.54h.27c0,.18,.09,.45,.27,.81l-.54-.27Zm.54,5.91h.27v.81h-.27v-.81Zm0-.27v-.81h.27v.81h-.27Zm.54-10.2c.31,.18,.67,.27,1.07,.27v.27h-4.03v-.27c.98,0,1.97-.09,2.95-.27Zm-2.61-4.06l.51,.3,.03,1.66-1-.61,.46-1.35Zm-3.02,2.18h1.61v.54c-.13,0-.67-.09-1.61-.27v-.27Zm-.81,4.56l1.88-.27h1.61c0,.36-.18,.54-.54,.54h-.27c-.4,0-.76-.09-1.07-.27l-.54,.27h-1.07v-.27Zm-10.74,5.37h1.07c0,.36-.18,.54-.54,.54h-.54v-.54Zm.27,3.22c-.18,0-.36-.27-.54-.81,.72-.36,1.7-.54,2.95-.54h.27c0,.31-.89,.76-2.68,1.34Zm3.22-.81v-.54l1.34-.27,1.07,.81c-.49,1.07-.85,1.61-1.07,1.61h-.27c0-.4,.09-.76,.27-1.07,0-.36-.45-.54-1.34-.54Zm2.95,3.22h-1.34c-.31,0-.49-.18-.54-.54v-.27h1.07l1.34-.27c.54,.4,.81,.67,.81,.81l-1.34,.27Zm1.34-7.78c.18,0,.45-.09,.81-.27,0,.18,.09,.27,.27,.27h1.07c.76,0,1.74-.09,2.95-.27l1.07,.54c0,.27-.36,.54-1.07,.81-1.16-.36-1.97-.54-2.42-.54h-2.68v-.54Zm1.34,5.64c-.31,0-.49-.18-.54-.54l1.34-.27c.54,.27,.81,.54,.81,.81h-1.61Zm2.42-3.22h-2.42v-.54c.13,.18,.94,.27,2.42,.27v.27Zm.82,6.98v.52c-.14,.11-.27,.24-.39,.38v-.38l.39-.52v-.53h.39l-.39,.53Zm10.73-2.15c-1.97-.18-3.67-.27-5.1-.27h-2.68l-2.68,.27-.27-.54v-.27c3.22-.18,4.83-.36,4.83-.54,0,.18,.09,.27,.27,.27h1.88l2.68,.27c0-.18,.09-.27,.27-.27,0-.31-.18-.49-.54-.54v-.54h.27c0,.58,.45,1.03,1.34,1.34,.18,0,.45-.09,.81-.27,.36,0,.54,.18,.54,.54-.49,0-1.03,.18-1.61,.54Zm4.03-.54c0-.31,.18-.49,.54-.54v.81h-.54v-.27Z" fill="#fff"/></g><g><path d="M270.59,267.15c-.6,.05-1.12,.1-1.56,.16l-.06,.67,1.62-.79s0-.02,0-.03Z" fill="#fff"/><path d="M286.58,273.41l-.4,1.03v-.52c0-.06,0-.12,0-.18-.1,.07-.2,.11-.3,.11v-.54h-.54l.27,1.34v.27h-.54c0-.67-.27-1.39-.81-2.15,.54,0,.81-.27,.81-.81h.81c0,.18-.09,.27-.27,.27,0,.24,.28,.47,.83,.71,.12-.34,.17-.71,.14-1.08l1.19-1.04,.84,1.13c.15-.02,.22-.1,.22-.26v-.54h-.54v-.54h.54v-1.88c0-.49-.18-1.03-.54-1.61-.13,0-.85,.09-2.15,.27-1.97-.45-2.95-.89-2.95-1.34-.18,0-.45,.09-.81,.27h-.27c0-.18,.09-.45,.27-.81,0-.18-.27-1.07-.81-2.68v-.81h-.54c0,.54-.18,.81-.54,.81h-4.03c-.31,0-.49-.18-.54-.54,1.61,0,3.4-.18,5.37-.54v-.54l-4.3-5.1v-.27c.67,.67,1.74,1.66,3.22,2.95,.36,0,.54-.18,.54-.54v-.54c-.18-4.47-.63-6.71-1.34-6.71v-.27c0-.31,.18-.49,.54-.54-.4-3.09-.85-5.5-1.34-7.25l-.54,.27,.27-1.07,.54,.27h.27v-1.07c0-.4-.09-.76-.27-1.07,0-1.48,1.07-3.09,3.22-4.83v-.54c-2.37-1.79-3.8-3.13-4.3-4.03l-.21-.91-1.95,3.39c-.03-.95,.2-1.89,.64-2.65,.32-.55,.73-.98,1.2-1.26l-1.82-7.97h.27c0-.54-.09-.81-.27-.81,0-2.86-.36-4.3-1.07-4.3,0-.18,.09-.45,.27-.81,0-.49-.09-2.28-.27-5.37,0-1.25-1.25-1.88-3.76-1.88,0-.31,.18-.49,.54-.54h1.88l.54,.27c0-.18,.09-.27,.27-.27,0-.45-.09-1.79-.27-4.03h-.18l-2.31,2.24c-1.13-.16-2.19-.82-3.01-1.86l.1-1.17,1.48-.72-.06,.7h.23v.27h-.26l-.12,1.36,2.33-1.14c-.41-.22-.88-.56-1.41-1.03,.27-.71,.54-1.07,.81-1.07,0,.54,.54,1.07,1.61,1.61h.54c0-2.24-.54-6.35-1.61-12.35h.27c-.49-2.48-.9-5.74-1.24-9.77-2.36-.53-4.69-1.19-7.03-1.79-1.57,.34-3.31,.68-4.89,1.27-.08,.68-.17,1.46-.25,2.32l.41,.35-.37,.18-.06-.24c-.19,2.13-.37,4.78-.53,7.95l.27,.54c-.36,0-.72,1.61-1.07,4.83l2.42,1.61h-.27c-.58,0-1.21-.27-1.88-.81-.31,0-.49,.18-.54,.54v1.61l1.07,1.07h-1.34c0,3.04-.36,6.17-1.07,9.4,.16,0,.25,.08,.26,.22l.78-1.09,1.1-.54v.04c.02-.3,.19-.47,.54-.52h.54l1.61,.27,.54-.27,1.07,.27,.54-.27c.36,0,.54,.18,.54,.54l-.27,.54c-.31,0-.49-.18-.54-.54-.4,0-.76,.09-1.07,.27-.18,0-.45-.09-.81-.27l-1.61,.27h-.54l-.53-.26,.12,.42-1.58,1.87-.5-.08c-1.07,8.31-1.67,12.49-1.8,12.54,0,6.04-1.16,9.62-3.49,10.74v.27c.58,0,2.19,.72,4.83,2.15,.49,0,1.74,.98,3.76,2.95v.27l-.27,.54c-2.17-2.32-4.49-3.92-6.95-4.82l.1,.35-1.08,1.28c1.17,1.31,1.76,2.64,1.76,3.99l-1.08,9.91,1.07-.52,.27,.97-.61,.86-.79-.78-.74,6.73c0,.36,.18,.54,.54,.54h2.42c.36,0,.54,.18,.54,.54h-1.61v.54h.27l.54-.27c0,.36,.18,.54,.54,.54,0,.36-.18,.54-.54,.54h-1.07c-.76-.4-1.21-.85-1.34-1.34l-.54,.27c0,.18,.09,.45,.27,.81l-1.34,4.03c.36,.18,.63,.27,.81,.27v.54h-.27c-2.19,1.61-3.62,2.42-4.3,2.42h-2.42v.54h1.88l1.61-.27c.27,.18,.81,.27,1.61,.27v.54h-1.07c-.98,0-2.24,.09-3.76,.27-.36-.18-.63-.27-.81-.27l-.27,.54c0,1.52,.09,3.13,.27,4.83l-.27,1.34c.22,1.07,.49,1.61,.81,1.61l-.54,.81v.81h.54l.27-1.34v-2.15l-.27-.54h.81c0,.4,.09,.76,.27,1.07-.18,0-.27,.09-.27,.27v1.07h.54v.27c-.54,0-.81,.18-.81,.54v.27c0,.54,.72,.81,2.15,.81v.27c-1.43,0-2.15,.18-2.15,.54v1.07c0,.27,.36,.54,1.07,.81,1.21-.18,2.19-.27,2.95-.27l1.34,.27c0-.31,.18-.49,.54-.54,.89,1.03,2.06,1.74,3.49,2.15,.76,0,1.74-.09,2.95-.27,.27,0,.81,.45,1.61,1.34,0,.18-.09,.45-.27,.81v.27h.54v-.81h.54c0,.72,.36,1.07,1.07,1.07,0,.27-.36,.54-1.07,.81-.31-.18-.67-.27-1.07-.27h-3.22v-.54c.45,0,1.16-.27,2.15-.81l-.74-.92-.26,.67c-.34-.26-.69-.48-1.06-.65-.22,.06-.43,.1-.63,.1h-1.88v.54c0,.27,.72,.9,2.15,1.88-.18,0-.45-.09-.81-.27-.18,0-.45,.09-.81,.27-1.3-1.61-2.01-2.42-2.15-2.42h-1.34l.27,1.34h1.34l.54,.27-1.61,1.07-.54-.27h-.54v.81l2.68,1.07c.72-.31,1.07-.85,1.07-1.61h1.07c0,.18-.09,.27-.27,.27,.27,.54,.54,.81,.81,.81,0,.07-.01,.16-.04,.25l.52-.35,.77,1.58h-1.57v-.5c-.12,.26-.29,.56-.49,.9-.72,0-1.25-.36-1.61-1.07l-4.3,.54c0-.45-.36-.71-1.07-.81v-.27c1.25,0,1.97-.09,2.15-.27,0-.39-.35-.93-1.03-1.61h.5c.27,0,.54-.36,.81-1.07,0-.51-.42-.84-1.25-.98l-.47,1.23c.17-.03,.38-.12,.65-.25,0,.18-.09,.45-.27,.81v.23c-.15-.15-.32-.3-.5-.47l-.11,.29-.3,.26c.07,.07,.11,.14,.11,.22-.14,0-.27,.01-.4,.04l-.6,.52c0-.11,0-.22,0-.32-.03,.01-.06,.02-.08,.04l-.54-.27c-1.25,.18-1.88,.45-1.88,.81h.27l.54-.27c0,.54,.36,.9,1.07,1.07,0,.9-.36,1.43-1.07,1.61,0,.36,.18,.54,.54,.54h.54l2.68-.27v.32h.23v.69l.78,1.4-.79,.53-.39-.53,.4-1.04v-.35l-.26-.46c-.36,0-.88,.19-1.58,.53,0,.72,.27,1.07,.81,1.07v.27h-.27c-1.3-.22-2.19-.58-2.68-1.07h-.27v1.61c.72,0,1.07,.18,1.07,.54h.81l1.88,.27c0-.18,.09-.27,.27-.27,0,.18,.09,.27,.27,.27,1.39,0,2.64-.54,3.76-1.61h-.54v-.27h.27l.54,.27,2.42-1.34,1.07,.54c0-.18,.09-.27,.27-.27,0-.36-.45-.54-1.34-.54,0-.27,.36-.54,1.07-.81,.4,.54,.85,.81,1.34,.81v.27c-.18,0-.45,.09-.81,.27,0,.36,.18,.54,.54,.54l.81-.54c.36,0,.54,.18,.54,.54,.36,0,.54-.18,.54-.54l1.61,.27v.54c0,.36-.18,.54-.54,.54,0,.36,.18,.54,.54,.54h.27c.36,0,.54-.18,.54-.54,.4,0,.76,.09,1.07,.27,.22,0,1.12-.27,2.68-.81,0-.4-.63-.67-1.88-.81v-.27c.72,0,1.34-.45,1.88-1.34v-.54l-.27-.54c-.89,.22-1.34,.49-1.34,.81-2.1-.71-3.27-1.07-3.49-1.07l-1.34,.27-.54-.27c-.58,.36-1.12,.54-1.61,.54-.31,0-.49-.18-.54-.54v-.27c1.92-.18,3.09-.36,3.49-.54,.31,.18,.67,.27,1.07,.27h2.42c0-.4-.09-.76-.27-1.07-.89-.67-1.34-1.12-1.34-1.34,.18,0,.45,.09,.81,.27l1.07-.27c.18,0,.27,.27,.27,.81,.89,0,1.43-.27,1.61-.81v-1.34h-.54v.81h-.27c-.89-.67-1.34-1.12-1.34-1.34v-.54c.18,0,.45,.09,.81,.27l1.07-.27c0-1.03,.09-2.46,.27-4.3-1.57-.98-2.64-1.97-3.22-2.95v-.81l.81,.54c.45,1.07,1.07,1.61,1.88,1.61,.36,0,.54-.18,.54-.54v-1.61c0-.31-.89-.67-2.68-1.07l-1.34,.54c-.94-.81-1.74-1.34-2.42-1.61,0,.36-.18,.54-.54,.54h-.27c0-.18,.09-.45,.27-.81,0-.18-.09-.45-.27-.81l.54-.81c.81,.72,1.25,1.07,1.34,1.07l-.27,.54v.27h1.88l.54-.27c-1.52-2.15-2.42-3.22-2.68-3.22h-1.07l-.54,.27v-.27c-.4,0-.76,.09-1.07,.27h0l.79,2.43-.42,1.41-.69-1.97h-.21c0-.13,.04-.23,.1-.32l-.52-1.47,.06-.22c-1.01-.2-1.53-.51-1.53-.94-.18,0-.45,.09-.81,.27h-.27v-.27l.27-.54,.54,.27h2.13l.05-.17,.23,.71h.27v-.54h.54v.54h.54l.54-.27v.27l1.61-.27c.58,1.25,2.19,3.04,4.83,5.37,.36,0,.54-.18,.54-.54v-2.95l-.27-1.34c.18,0,.27-.09,.27-.27,0-.45-.54-.71-1.61-.81l-1.34,.27c-2.33-1.25-3.49-2.68-3.49-4.3v-2.68l.27-.54c-.36-.18-.63-.27-.81-.27l.54-.81v-1.07c-.67-.89-1.12-1.34-1.34-1.34h-.27v.27c0,.36,.18,.54,.54,.54,0,.9-.27,1.34-.81,1.34l.27,.54v.27h-.54l.27-.54c-.18,0-.45-.09-.81-.27,.36-.76,.54-1.3,.54-1.61h-2.15v-1.07c1.61,0,2.42-.27,2.42-.81h.54l1.61,2.42c.36,0,.54-.18,.54-.54v-1.61c-.36-.71-.81-1.07-1.34-1.07v-.54h.27l1.34,.27c0-.81,.09-1.34,.27-1.61,0-.46,.29-.8,.85-1.02l.14-1.58,.84-1.52c.27,.9,.46,1.84,.58,2.8,.25-.02,.52-.03,.81-.03,0,.06,.01,.1,.03,.14l.73-1.19,.71,1.19c.88-.09,1.47-.14,1.76-.14,.36,0,.54-.45,.54-1.34h.27c.36,0,.54,.18,.54,.54v.27h-.54v.54h4.56l.54,.27c.72,4.65,1.43,6.98,2.15,6.98-.27,.54-.54,.81-.81,.81,.31,2.19,.67,3.53,1.07,4.03v.54l-.54-.27c-.31,0-.49,.18-.54,.54v.27l.27,1.34c-.18,0-.27,.09-.27,.27l-.54-.27c-.6,.45-1.02,.81-1.29,1.09l1.12-.55,.63,.8-2.32,2.25c-1.12-.16-2.16-.8-2.98-1.82-.35,.11-.53,.24-.53,.38v2.68c0,.36,.18,.54,.54,.54h3.22l1.88,.27v.27c-.31,0-.76,.18-1.34,.54l-2.42-.27c-1.25,.13-1.88,.4-1.88,.81l.54,.81-.54,.81v.81c3.4,2.68,5.37,4.03,5.91,4.03l1.34-.27,3.49,1.34h.27c.36,0,.54-.18,.54-.54,.63,0,2.51,.09,5.64,.27v-.27c-.36-.71-.81-1.07-1.34-1.07-1.3-1.79-2.19-2.68-2.68-2.68-.89-1.83-1.61-2.82-2.15-2.95-.27,0-.81-.81-1.61-2.42v-.27c.18,0,.27,.09,.27,.27,.18,0,.45-.09,.81-.27,.18,0,.27,.27,.27,.81h.54v-.81h.27c0,.54,.36,1.16,1.07,1.88h-.54c0,.49,.18,1.03,.54,1.61,.18,0,.45-.09,.81-.27h.27v.27h-.54l.27,1.34c2.06,2.33,3.76,3.49,5.1,3.49v.54l-.27,.54,.54,.27h1.34c0,.18-.09,.45-.27,.81,0,.72,.54,1.07,1.61,1.07,.18-2.1,.27-3.62,.27-4.56v-4.83l-.22-.44-2.04,1.34Zm-8.2-14.05c.36,0,.54,.18,.54,.54v.27c-.54-.27-.81-.54-.81-.81h.27Zm-18.79-71.14h-.81v-.27h.81v.27Zm.18,17.3c-1.05-.59-1.98-1.49-2.72-2.63,.24-1.06,1.16-2.27,2.74-3.65h.03c.46,1.14,.72,2.39,.76,3.68-.17,.92-.44,1.8-.81,2.6Zm-4.74,23.77v-.54c.36,0,.54,.18,.54,.54h-.54Zm-10.74,44.29h-.27c0-.76-.09-1.48-.27-2.15l.54-.27c0,.4,.09,.76,.27,1.07-.18,0-.27,.45-.27,1.34Zm0-2.68c-.58-.54-1.03-.81-1.34-.81v-.27c.27,0,.63-.18,1.07-.54h1.07v1.07c-.54,0-.81,.18-.81,.54Zm1.07,.27h-.54v-.27h.54v.27Zm1.88,1.34c-.69,0-1.21-.42-1.57-1.25l-.51-.69v-1.56l1.17,1.57-.28,.73c.5,.44,.9,.67,1.18,.67v.54Zm2.15,19.6h-.54v-.54h.54v.54Zm12.35-1.07v.54h-.54c0-.31,.18-.49,.54-.54Zm-4.03-1.88h1.34c.36,0,.54,.18,.54,.54l-1.34,.27h-.54l-.54-.27c0-.31,.18-.49,.54-.54Zm4.83-11.01c.36,0,.54,.18,.54,.54h-.54v-.54Zm-2.42,1.88h.54l.54,.27c-.18,.36-.27,.63-.27,.81h-.27c-.31,0-.49-.18-.54-.54v-.54Zm-2.15-.27v-.27c0-.31,.18-.49,.54-.54l-.81-1.07v-.54h.27c.22,0,.85,.72,1.88,2.15l-1.88,.27Zm-.27-3.49v-.54h.27c.36,0,.54,.18,.54,.54h-.81Zm-.54-2.68h1.61v.27c0,.36-.18,.54-.54,.54h-1.07v-.81Zm0,5.64h.54v.27h-.54v-.27Zm4.56-10.2h.54c.36,0,.54,.18,.54,.54l-.54,.81,.27,.54h-.54c-.27,0-.54-.36-.81-1.07,.36,0,.54-.27,.54-.81Zm-3.49-1.61v.27h-1.34v-.27h1.34Zm-1.34-3.22c.54,.27,.81,.54,.81,.81-.18,0-.45,.09-.81,.27v-1.07Zm.27,1.34h.27v.54h-.81c0-.31,.18-.49,.54-.54Zm-8.59,13.42l-.27-.54h1.07v.27c-.18,0-.45,.09-.81,.27Zm1.88-3.49c0,.36-.18,.54-.54,.54-.58-.54-1.03-.81-1.34-.81v-.27h1.34c.36,0,.54,.18,.54,.54Zm-.54-3.22v-.54h.27v.54h-.27Zm0,8.32c-.31,0-.49-.18-.54-.54v-.27h.54v.81Zm.81-1.88h-1.07v-.27h1.07v.27Zm.54-2.95l-.27-.54c0-.31,.18-.49,.54-.54h1.07l1.34,.27v.54h-2.15l-.54,.27Zm1.34,4.56h-.54v-.54c.18,0,.45-.09,.81-.27h.27v.27c0,.36-.18,.54-.54,.54Zm1.61,.81h-1.07v-.27h1.07v.27Zm0-2.15h-1.61v-.54l1.61,.27v.27Zm2.68-2.15v.54c-.13,0-.67-.09-1.61-.27v-.27h1.61Zm-1.61-5.64c0,.18,.09,.27,.27,.27l-.27,.54c-.18,0-.27-.09-.27-.27l-.54,.27c0,.36,.45,.54,1.34,.54l-.27,.54c-.36,0-.98-.18-1.88-.54,.36-.89,.89-1.34,1.61-1.34Zm-1.61-.81h.27c0,.36-.18,.54-.54,.54h-.27c-1.03,0-2.46,.09-4.3,.27-.31,0-.49-.18-.54-.54h1.34c.63,0,1.43-.09,2.42-.27,.36,.18,.63,.27,.81,.27,.36-.18,.63-.27,.81-.27Zm-1.07-1.07c.36,.18,.63,.27,.81,.27,0,.36-.18,.54-.54,.54h-.54v-.27l.27-.54Zm2.68-2.95c-.22,0-1.12,.27-2.68,.81-.31-.18-.67-.27-1.07-.27h-.81v-.54h1.34l.54-.27c0,.18,.09,.27,.27,.27h.54l1.61-.27h.27v.27Zm.54-2.15l.54,.27c0,.36-.72,.63-2.15,.81-.72-.09-1.07-.36-1.07-.81h-.27l-1.34,.27c0-.18-.09-.27-.27-.27,.18-.36,.27-.63,.27-.81h.54l.81,.54h2.95Zm-1.07-1.61h.27v.54h-.27v-.54Zm13.15,8.05v-.54h.54c0,.36-.18,.54-.54,.54Zm7.16-6.79l-.96-.32,1.55-6.5,.96,.32-1.55,6.5Zm-.71-10.93v-.27l1.07,.27v.27l-.27,.54c-.54-.27-.81-.54-.81-.81Zm1.61-8.86v-.81h.54v.81h-.54Zm1.88-.27l-.27,.54-.54-.27c0-.31,.18-.49,.54-.54h.27v.27Zm-7.76-24.74l-.46,1.34-.51-.3-.03-1.66,1,.62Zm-6.47-27.07h.27c1.16,0,2.77,.9,4.83,2.68-.94,0-2.64-.89-5.1-2.68Zm3.16,9.66l-1.5-.92,.1-1.16,1,.63,.4,1.46Zm-3.16-19.59h.27v-.2l1,.62-.46,1.34-.51-.3v-.72c-.17-.08-.26-.23-.29-.48v-.27Zm-1.34,1.61h.81c0,.36-.18,.54-.54,.54h-.27v-.54Zm-.54,20.94h-.27v-.54h.27v.54Zm.54-1.34h-.81v-.27h.81v.27Zm0-11.81c-.54-.27-.81-.54-.81-.81h.27c.36,0,.54,.18,.54,.54v.27Zm.66-2.35h-.26l-.11,.18-.05-.19-1.7-.08,.2-2.32,.84-1.52c.37,1.25,.6,2.56,.68,3.9h.14l1.33-2.17,.77,1.29c-.05,.19-.13,.36-.24,.5-.1,.15-.23,.26-.36,.34-.39,.23-.84,.25-1.24,.05Zm-.92,38.59c.18,0,.36-.89,.54-2.68-.18,0-.27-.09-.27-.27,.13-.22,.31-1.74,.54-4.56-.18,0-.27-.09-.27-.27,.13,0,.27-.51,.43-1.53l-.21-.18,.3-.42c.09-.66,.18-1.47,.28-2.43l-.27-.54c.31-.45,.76-3.31,1.34-8.59-.18,0-.27-.09-.27-.27,.27,0,.45-1.16,.54-3.49v-.27h.54c.27,3.76,.63,5.64,1.07,5.64h1.88v.54c-.31,0-1.03,.18-2.15,.54,.36,3.53,.98,8.1,1.88,13.69-.18,0-.27,.09-.27,.27l.43,2.48,1.13-1.86,.77,1.29c-.05,.19-.13,.36-.24,.5-.1,.15-.23,.26-.36,.34-.39,.23-.84,.25-1.24,.05l.58,3.36h-.27c0,.13,.09,.67,.27,1.61,0,1.12-.81,2.28-2.42,3.49h-.27c-2.06,0-3.4-1.61-4.03-4.83,.18,0,.27-.09,.27-.27v-.81l-.27-.54Zm-3.49-12.08h.81v.54h-.81v-.54Zm.26,7.84l.27,.97-.61,.86-1.14-1.12,1.48-.72Zm-1.33,1.82h.27c.36,0,.54,.18,.54,.54v.27h-.81v-.81Zm1.61,8.59h-.54v-.54h.54v.54Zm-1.03-3.95l.1-1.15c.83,.19,1.67,.16,2.49-.11l-2.59,1.26Zm-4.34,18.44h.54v.54h-.54v-.54Zm-1.61,9.66h-.54v-.81h.54v.81Zm2.15-4.56c-.67,1.07-1.12,1.61-1.34,1.61h-.81c.4-1.07,1.12-1.61,2.15-1.61Zm-1.34,4.03h-.54v-.27h.54v.27Zm-.76-.79l.1-1.15c.83,.19,1.67,.16,2.49-.11l-2.59,1.26Zm4.52-4.04h-.54c0-.18,.09-.45,.27-.81l-.54-.81h.81c0,.18,.09,.45,.27,.81-.18,.36-.27,.63-.27,.81Zm.22-7.68l.61-.86,.5,.32-.1,1.15,.09,.33,.54,.46-.37,.18-.18-.64-1.1-.94Zm1.66,7.14c-.36-.18-.63-.27-.81-.27v-.81h.81c0,.18,.09,.45,.27,.81-.18,0-.27,.09-.27,.27Zm2.77-4.79l-2.99-1.2,2.53-2.46,1.09,.38-.63,3.29Zm5.01,1.84h-.54c0-.71-.27-1.07-.81-1.07-.29-.81-.58-1.47-.87-1.99l-.37,1.07-.51-.3-.03-1.66,.58,.36c-.23-.32-.45-.56-.68-.71v-.27h.27c.76,0,1.74,1.43,2.95,4.3v.27Zm2.95,.27l-.54-.27,.27-1.07h.27v1.34Zm.81,.27h-.54c0-.31,.18-.49,.54-.54v.54Zm.27-8.59c0,.36-.54,.63-1.61,.81-.13,0-.85-.09-2.15-.27-.36,.18-.63,.27-.81,.27,0-.18-.09-.27-.27-.27l-2.95,.54v-.27l-1.07,1.07-1.34-1.34h-.54c-.36,0-.54,.27-.54,.81h-.81v-1.34c0-.27,.72-.63,2.15-1.07,2.15-2.86,3.67-4.3,4.56-4.3,2.86,.81,4.3,1.61,4.3,2.42,.4,1.07,1.03,1.61,1.88,1.61v.27c-.4,0-.76,.09-1.07,.27l.27,.54v.27Zm1.07,2.15h-.54v-.27h.54v.27Zm-.93-5.96l.1-1.16,1,.63,.4,1.46-1.5-.92Zm2.54,13.21h-.27c-.31,0-.49-.18-.54-.54v-.27h.27c.36,0,.54,.18,.54,.54v.27Zm.5-9.75l.1-1.17,1.48-.72-.08,.9h.15v.27h-.17l-.1,1.16,3.33-1.62,.63,.8-.89,.87,.16,.95h-.54c0-.13-.04-.28-.13-.46l-.92,.89c-1.13-.16-2.19-.82-3.01-1.86Zm.3,9.75v-.54h.54v.54h-.54Zm0,20.67c.36,0,.54,.18,.54,.54h-.81l.27-.54Zm-1.61-1.88l.27-1.07c.36,0,.54,.18,.54,.54v.27c-.18,0-.45,.09-.81,.27Zm-4.03,4.3l1.88-.27h.27v.27c0,.36-.18,.54-.54,.54h-.27l-1.34-.27v-.27Zm2.95,2.42c-1.61-.13-2.42-.4-2.42-.81l1.61,.27,1.07-.27h.27l-.54,.81Zm6.98-2.15c-.18,0-.45,.09-.81,.27-.27,0-1.7-.09-4.3-.27h-.27v-.27l.54-.81c.31,.18,1.12,.36,2.42,.54l.81-.54c1.07,.49,1.61,.85,1.61,1.07Zm-1.88-4.83c-.54-.13-.89-.49-1.07-1.07h.54l.81,.54-.27,.54Zm.54-1.88l-1.34,.27-1.34-.27v-.54h2.68v.54Zm1.61-.27l-.27,.54c-.36-.18-.63-.27-.81-.27,0-.31,.18-.49,.54-.54h.54v.27Zm.54-2.15h-.27v-.54h.27v.54Zm3.49,2.42h1.07v.27h-1.07v-.27Zm-1.07,7.25v-.54h.27c.36,0,.54,.18,.54,.54h-.81Zm1.61,0v-.54c.36,0,.54,.18,.54,.54h-.54Zm-.08-1.54l.06-.07-1.32-.26v-.27h.81c.35,0,.52,.17,.53,.5l.32-.42,.78,.52h-1.17Zm5.72,5.56h-.54l-1.34-.27v-.27h.54l1.34,.27v.27Z" fill="#fff"/><path d="M242.94,284.33v.81l.27,.54c.18,0,.27-.09,.27-.27,.84,.06,1.5,.14,1.98,.24,.05-.97,.17-1.93,.37-2.86l-.12-.08-1.5,1.18,.08,.17c-.31,0-.49,.18-.54,.54l-.54-.27h-.27Z" fill="#fff"/><path d="M255.47,283.3h.12l-.04-.05s-.06,.03-.09,.05Z" fill="#fff"/><path d="M245.85,282.79l1.05,.58c.66-.2,1.75-.42,3.28-.65,0-.45-.89-.71-2.68-.81-1.03,0-1.89,.08-2.6,.25,.2,.09,.39,.23,.56,.42l.24,.13,.15-.13v.2Z" fill="#fff"/><path d="M250.19,234.66h-.27l-.54,.27,.27,.54c.31,.25,.6,.51,.87,.76l.44-.62,.96-.47c-.57-.2-1.15-.36-1.73-.48Z" fill="#fff"/></g><path d="M306.22,292.11c-.89-1.07-1.34-1.7-1.34-1.88v-.54c.27,0,.54,.36,.81,1.07l2.42-.54c.4,0,.76,.09,1.07,.27,.89-.36,2.51-.54,4.83-.54l1.34,.27c0,.36-.18,.54-.54,.54h-.54l-1.34-.27c0,.36-.54,.54-1.61,.54,1.79,1.43,3.31,2.15,4.56,2.15h4.56v-.81c-.14,0-.56-.22-1.26-.66-.39-.13-.77-.29-1.15-.49l.06-.23c-.11-.08-.22-.15-.34-.23l-.54,.27v-.54c-3.22-1.88-5.01-3.13-5.37-3.76l-1.88,.27v1.61l-1.34-2.42c.18,0,.45-.09,.81-.27l.54,.27c.18,0,.45-.09,.81-.27,1.61,.18,2.59,.36,2.95,.54,.36,.85,1.17,1.36,2.43,1.54-.98-1.42-1.5-2.44-1.5-2.9l-.09-.02c-.01-.22,.01-.45,.07-.66,.05-.21,.14-.41,.25-.58,.11-.17,.19-.36,.24-.57,.05-.21,.07-.43,.06-.65l.77,3.57h2.07v.27c-.65,0-1.31,.08-1.96,.23l.29,1.33c.27,.03,.56,.05,.87,.05v.27h-.8v.05l-.02-.05h-.52l-.54-.27v.27c0,.22,.81,.85,2.42,1.88,.19-.03,.38-.08,.56-.11l.34-1.35,2.49-.83h0c.06-.2,.09-.42,.09-.65v-1.07h-2.42v-.27c1.16,0,1.97-.27,2.42-.81,0-.36-.27-.54-.81-.54v-.27c.54,0,.81-.45,.81-1.34v-5.37l-.27-.54-.54,.27h-1.07v-.54c.98,0,1.61-.45,1.88-1.34v-3.49c0-1.97-.72-2.95-2.15-2.95,0,.18-.09,.27-.27,.27l.27,.54v.27h-.54v-.54c-2.24-.63-3.76-1.34-4.56-2.15h-.27v5.91l.27,1.34c-.54,0-.81-1.61-.81-4.83v-2.68l-.27-1.34c.54,0,.81-.18,.81-.54v-.81h-.54v-1.07h.54l-.27-1.88v-4.3h-.54v-1.39l-.39-.38,.39-.27v-1.72l-.27-.54c.18,0,.27-.09,.27-.27v-.27l-.27-.54h.27l-.27-1.34v-1.34l.27-1.88h.27v4.3c0,.36,.18,.54,.54,.54,.89-4.92,1.7-8.14,2.42-9.66l-.27-.54c.28-.79,.69-1.5,1.22-2.14,.01-1.55,.48-2.96,.84-4.46,.11-.45,.39-.73,.73-.87,.16-.4,.33-.79,.52-1.17l-.36-.76,.27-2.42c0-.31-.36-.49-1.07-.54v-.54l.54,.27h.81l1.34-5.91h-.54v-.54h.54l1.27-4.67-4.56,2.25-1.01-1.25,3.65-3.57c.6,.08,1.19,.26,1.75,.51l-.31-.51h.54l1.34-3.49c0-2.59,1.34-5.19,4.03-7.78v-2.68h.54v1.88l.27,.54,1.07-.27c2.33,0,3.49-.63,3.49-1.88v-4.56l-.23,.33-.8-.5,.15-1.82-.15-.53-.86-.73,.58-.29,.28,1.01,1.09,.92c.04-.63,.11-1.26,.21-1.89-.18-.67-.27-1.65-.27-2.95v-2.68l-.27-.54h.27c-.14-2.37-.23-4.27-.26-5.72-1.44-.02-2.89-.05-4.33-.1,.22,.12,.4,.19,.56,.19v.54c-.45-.36-.81-.54-1.07-.54v-.2c-4.83-.17-9.66-.46-14.5-.6v1.34c0,.54,.98,.81,2.95,.81v.27l-.27,.54-4.56-.81c-.31,0-.49,.18-.54,.54v.27l.27,.54h-.27l.27,1.88v4.83c0,1.16-.09,2.95-.27,5.37,.54,.31,.81,1.12,.81,2.42v2.68l.27,1.34c5.01,.85,7.52,1.57,7.52,2.15-.54,0-1.61-.27-3.22-.81h-.54c.72,.76,1.07,1.66,1.07,2.68v.54c-.72,3.13-1.07,4.92-1.07,5.37,0,.18,.18,.27,.54,.27v.54h-.27l-.54-.27c-.89,4.65-1.79,8.68-2.68,12.08,.18,0,.27,.09,.27,.27-.31,0-.49,.18-.54,.54v.54c0,.36,.36,.54,1.07,.54v.27c-.81,0-1.34,.09-1.61,.27-.81,3.4-1.7,5.1-2.68,5.1-.33,0-.82-.47-1.47-1.4l-1.92,.92,.44,2.62c-.18,0-.27,.27-.27,.81h-.27c0-.82-.14-1.88-.41-3.18l-2.4,1.15c.59-.77,1.28-1.61,2.06-2.51-.02,0-.04-.01-.06-.01h-2.42v-.54h2.95c.09-.11,.19-.21,.28-.32,.03-.43,.11-.77,.26-1.02-.31,0-.49-.18-.54-.54v-2.95c0-.54-1.16-.98-3.49-1.34v-.54l3.22,.81c.18,0,.36-.27,.54-.81l-4.03-15.03v-1.88c0-1.34,.98-2.59,2.95-3.76,1.97,0,2.95-.71,2.95-2.15l-.54-1.34,.27-.54c0-.13-.09-.67-.27-1.61,0-1.03,.09-2.46,.27-4.3v-.54c0-2.33-1.07-3.49-3.22-3.49v-.27h.27c1.34,.36,2.15,.54,2.42,.54,.36,0,.54-.18,.54-.54v-2.68l-.27-2.68c.18,0,.27-.09,.27-.27l-.27-1.61v-2.14c-.27,.02-.54,.04-.81,.06v.74h-.27l-.1-.72c-.68,.04-1.36,.08-2.05,.1,.7,.76,1.33,1.15,1.88,1.15l-.27,.54c-.39,0-1.19-.56-2.4-1.66-1.07,.02-2.14,.02-3.21-.04-.02,0-.05,0-.07,0-.21,.34-.58,.58-1.12,.55h-.03c-.44,.3-.85,.6-1.22,.9h-.81c0-.36-.18-.68-.52-.98-.33,0-.67,0-1-.01-2.21,.42-4.43,.84-6.66,1.19l-.14,.07h-.27c-.57,.08-1.14,.17-1.71,.24-.43,.06-.95,.15-1.51,.23v1.14l-.27,1.34c.36,0,.54,.63,.54,1.88v1.07l-.27,1.34c4.25,1.61,6.58,2.42,6.98,2.42v.27h-.27c-.81,0-2.86-.63-6.17-1.88h-.27c0,.94-.09,2.46-.27,4.56,0,.18,.09,.45,.27,.81-.18,.31-.27,.67-.27,1.07v1.34l.27,1.61c-.18,.31-.27,.76-.27,1.34v1.61l.81,1.07c.4,0,.76-.09,1.07-.27,2.91,0,4.97,1.43,6.17,4.3,1.97,8.1,3.22,12.39,3.76,12.89,0,1,.22,1.77,.64,2.3h.12l-.08,.05c.49,.58,1.25,.87,2.27,.87v.27h-.54l-1.34-.27c0,.18-.09,.27-.27,.27,.36,1.74,.72,3,1.07,3.76,.18,0,.27-.09,.27-.27l.54,.27c0,.61-.02,1.19-.05,1.74,.57,.1,1.04,.52,.95,1.28-.07,.63-.08,1.27-.06,1.9,.15,.11,.28,.27,.37,.49,.75,1.73,.74,3.33,.24,5.13-.04,.15-.1,.28-.18,.39,1.31,.52,2.68,.9,4.1,1.14v.27h-.27c-1.03,0-2.01-.18-2.95-.54h-.27c3.04,9.13,4.56,15.48,4.56,19.06v1.07l.27,1.34c-.45,4.65-.98,6.98-1.61,6.98v.27l6.44,.81h.27v.54c-1.74,0-4.25-.36-7.52-1.07-3.04,.67-4.56,1.21-4.56,1.61,0,.58,.09,1.03,.27,1.34l-.27,1.61v2.42c.72,0,1.07,.18,1.07,.54h-1.07v1.61c.72,0,1.07,.72,1.07,2.15v.54c.31,0,.76-.18,1.34-.54,0,.18,.45,.45,1.34,.81l.54-.27c.4,0,.76,.09,1.07,.27,.85-.14,1.62-.27,2.31-.4l.16-.67h-.33v-.54c.19,0,.33,.06,.42,.16l.4-1.7,.49,.21c-.04-.42-.12-.96-.24-1.62v-.54h.27c.1,1.11,.22,1.88,.36,2.32l.29,.12,.23,1.82c1.56-.38,2.34-.73,2.34-1.04,.36,0,.98,.27,1.88,.81,.36,0,.54-.27,.54-.81h.27c0,.33,.06,.64,.17,.93,.03-.09,.06-.17,.09-.26l-.07,.31c.13,.32,.34,.62,.61,.9-.36,.45-.54,.81-.54,1.07-.19-.02-.36-.04-.53-.06l-.78,3.29-.99-1.28c.51-.62,.97-1.32,1.37-2.07-1.23-.17-2-.4-2.29-.69h-2.42c-.54,.27-.81,.54-.81,.81l.27,.54c-.18,0-.27,.09-.27,.27v2.95h-.54v-4.3l-2.68,.27h-4.56c-.54,.27-.81,.54-.81,.81v3.22c0,.36,.18,.54,.54,.54h1.34c.4,0,.76-.09,1.07-.27,.36,.13,1.88,.31,4.56,.54,0-.18,.18-.27,.54-.27s.54,.18,.54,.54c-.18,0-.45,.09-.81,.27-.18,0-.45-.09-.81-.27-1.83,.31-3.18,.76-4.03,1.34v-.54l.27-.54h-2.68l-.54,.27c.18,2.1,.27,3.62,.27,4.56v.27h.27l1.07-.81v.27l-.54,.81v.27c1.07,0,1.61,.27,1.61,.81h.81l.54,.27c2.15-.27,3.22-.71,3.22-1.34Zm12.07-4.5h.09s-.06,0-.09,0v1.63c-.09,.01-.17,0-.25-.04-.08-.04-.15-.1-.21-.18-.06-.08-.1-.18-.13-.28-.03-.11-.04-.22-.03-.33-.02-.12,0-.25,.03-.36,.03-.12,.09-.22,.16-.3,.07-.08,.16-.14,.25-.16,.06-.02,.12,0,.19,.02Zm12.9-103.69h.27c0,.58,.09,1.03,.27,1.34l-.54,.27v-1.61Zm-.81,4.56h.27c.36,0,.54,.18,.54,.54h-.81v-.54Zm-1.07-.27h.81v.27h-.81v-.27Zm-4.3,11.27h-.27v-1.07h.27v1.07Zm0-4.56h-.27v-1.07h.27v1.07Zm2.95,5.37h-.27v-.54h.27v.54Zm0-1.34h-.27c0-1.03-.09-1.65-.27-1.88h.27l-.27-1.34v-.27l.27-3.22h.27v6.71Zm.81,1.07h.27v.54h-.27v-.54Zm-6.33-14.87c.16-.23,.36-.42,.57-.54,.62-.37,1.33-.41,1.97-.09h.41l.17-.29,.08,.3,2.68,.11-.3,3.67-1.32,2.4c-.48-1.58-.8-3.23-.99-4.91h-.17v-.54h.12c-.02-.24-.05-.47-.07-.71l-.22-.02-2.09,3.46-1.23-2.04c.08-.3,.21-.57,.37-.8Zm.22,7.72l.81,.48,.05,2.62-1.59-.97,.72-2.13Zm-1.94,4.74v.27c-.18,0-.45,.09-.81,.27h-.27v-.27c.18,0,.45-.09,.81-.27h.27Zm-1.07-13.69h.27v.81h-.27v-.81Zm-6.71,11.27h-.27l-.27-1.34v-2.68c0-.31,.18-.49,.54-.54v4.56Zm.81-7.25l.54-.27c0,.18,.09,.27,.27,.27-.18,.31-.27,.67-.27,1.07h-.27c0-.36-.36-.81-1.07-1.34,.18,0,.45,.09,.81,.27Zm.54,11.01h-.27v-.54h.27v.54Zm.54-6.17h-.27c-.72-.45-1.07-.81-1.07-1.07h.27c.45,.36,.81,.54,1.07,.54v.54Zm2.95-6.71l-.27,.54-.54-.27h-1.61v-.54h2.42v.27Zm.54-.27h-.27v-.54h.27v.54Zm.81,12.89h-.27v-.54h.27v.54Zm0-11.01v-.27h.81v.27h-.81Zm-.27,22.82h.27v1.07h-.27v-1.07Zm-1.88,2.68c.72,0,1.79-.18,3.22-.54v.54c-1.43,.36-2.33,.54-2.68,.54h-.54v-.54Zm1.07,18.25c-.4,0-.76,.09-1.07,.27v-.54h1.07v.27Zm-1.88-2.95c1.07,.18,1.61,.45,1.61,.81v.27c-.58-.36-1.12-.54-1.61-.54v-.54Zm-1.61,2.68h2.15v.27h-2.15v-.27Zm-1.88,10.47h.27l.27,2.68v2.15h-.27l-.27-1.34v-3.49Zm-8.59-18.52h.27v.54h-.27v-.54Zm1.88-25.5h-.27c0-1.34-.09-2.33-.27-2.95l.54-.27v3.22Zm-.54-5.1h.27v.54h-.27v-.54Zm-.27,.81h.54v.27h-.54v-.27Zm.54-10.47c0-.31,.18-.49,.54-.54v1.34l-.27,3.22h-.27v-4.03Zm-18.52,0h-.27v-.54h.27v.54Zm8.39-1.43v.82c-.14,0-.27-.07-.37-.2-.1-.12-.16-.29-.18-.47l-.07-.16h.62Zm-7.05,5.46c0-1.79,.27-2.68,.81-2.68-.18,1.57-.27,2.46-.27,2.68h-.54Zm2.42,4.03c-1.03-.67-1.57-1.21-1.61-1.61v-.27h.27c.22,0,.67,.54,1.34,1.61v.27Zm-.34-3.78l-1.25-.82c.38-.47,.7-1.03,.94-1.64,.24-.62,.56-1.18,.94-1.66l1.23,1.66-1.86,2.46Zm-.2,6.73h.27v1.34h-.27v-1.34Zm-4.3,2.42h.54v.27h-.54v-.27Zm.73,4.08h-1.24c.02-.94,.29-1.42,.7-1.42l-.07-.24h.62v1.66Zm1.69,1.56h-.27v-.81h.27v.81Zm-1.34-4.3v.54h-.27v-.81l.27-.54c2.64,1.21,4.79,2.55,6.44,4.03h-.54c-3.53-2.15-5.5-3.22-5.91-3.22Zm6.71,11.01c-.31,0-.49-.18-.54-.54v-.27c.54,.27,.81,.54,.81,.81h-.27Zm.27-12.08h-.54v-.27h.54v.27Zm0-5.1l-1.11-.12h-1.22s0-.09,0-.14h-.08v-.55l.28,.03c.05-.06,.11-.11,.17-.14,.08-.04,.16-.05,.25-.04l.18,.24,1.53,.17v.54Zm.54,17.72h-.27v-.54h.27v.54Zm1.07-2.15c-.06,.13-.13,.24-.19,.34l-.07,.47-.21-.14c-.11,.09-.22,.14-.33,.14h-.54v-.54c.07,0,.14-.01,.22-.03l-.38-.25c1.07-1.43,1.68-2.44,1.84-3.03l.04-.26c0,.08-.02,.17-.04,.26l-.43,2.78h.1v.27Zm0-6.44v-.27c.31,0,.67,.63,1.07,1.88-.4,.54-.67,.81-.81,.81,0-.18,.09-.45,.27-.81-.36-.58-.54-1.12-.54-1.61Zm1.07,2.15h.54v.27h-.54v-.27Zm.27-4.3h-.27c-.31,0-.85-.63-1.61-1.88v-.54c.94,.63,1.57,1.34,1.88,2.15v.27Zm-.81,16.11c0-.18-.09-.45-.27-.81v-.27c.54,.27,.81,.54,.81,.81v.27h-.54Zm1.61,5.64l-.27,1.07h-.27v-.27c.18-.18,.27-.89,.27-2.15h.27v1.34Zm-.54-3.49c0-.49-.27-1.12-.81-1.88h.27c.31,0,.67,.54,1.07,1.61l-.54,.27Zm0-10.47h-.27c0-.31,.18-.49,.54-.54h.27c0,.36-.18,.54-.54,.54Zm1.07-2.42h-.27v-.54h.27v.54Zm2.15,1.07c-.36,0-.98-.27-1.88-.81l.27-.54c1.07,.49,1.61,.85,1.61,1.07v.27Zm-.28-14.81c-1.05,.9-2.18,1.64-3.35,2.21l-.08-.16h-1.85c.01-.23,0-.45-.06-.67h-.56v-.27h.47c-.05-.11-.1-.22-.16-.31-.26-.61-.37-1.31-.31-2,1.76-1.41,3.64-2.52,5.61-3.29l3.71,2.49c-1.2,.48-2.35,1.15-3.42,1.99Zm2.16,42.46h-.27v-.54h.27v.54Zm4.56,26.58h.27l.27,1.34c0,.36-.18,.54-.54,.54v-1.88Zm-.81-20.13c-.18,.31-.27,.67-.27,1.07h-.27v-1.07h.54Zm-.81-2.15h.27v1.07h-.27v-1.07Zm-1.07,5.37h1.61l.54,.27-.27,.54c-1.25-.18-1.88-.45-1.88-.81Zm2.15,15.03v.81h-.54c.18-.36,.27-.63,.27-.81h.27Zm-.81-7.78v-4.83l.27-1.34h.27v7.52h-.27l-.27-1.34Zm.81,17.99c0,.36-.18,.54-.54,.54v-.81h.54v.27Zm2.45-2.29l-.78-.32-1.96,.93-.23-1.84,.25-.16v-1.41l-.27-.54,.54-.27c0,.85,.02,1.52,.05,2l.23-.15,.99,1.27,.4,.17,.96-.46-.19,.78Zm.78-27.24h-.54v-.27h.54v.27Zm-9.13,39.46c-.36-.18-.63-.27-.81-.27v-.54h.27c.36,0,.54,.18,.54,.54v.27Zm1.88-.81h-.54v-.27c0-.31,.18-.49,.54-.54v.81Zm2.42,.54h-1.34c-.31,0-.49-.18-.54-.54l1.88,.27v.27Zm2.68-3.49h-.27v-.54h.27v.54Zm7.78,5.37h-.54v-.54h.54v.54Zm-4.3-3.49v-1.34h.27c.54,.27,.81,.54,.81,.81-.27,0-.63,.18-1.07,.54Zm1.34-.27v-.81c.31,.4,1.92,.85,4.83,1.34v.54c-.4,0-2.01-.36-4.83-1.07Zm-3.22,9.4c.36,0,.54,.18,.54,.54v.27c-.54-.27-.81-.54-.81-.81h.27Zm-8.59,3.76v-.27h1.34v.27h-1.34Zm1.88,4.3h-.54v-.27h.54v.27Z" fill="#fff"/><g><polygon points="196.14 185.18 192.25 184.01 191.44 187.25 192.87 187.62 196.14 185.18" fill="#fff"/><path d="M159.26,219.85l.53-2.57c0,.34-.52,1.02-1.54,2.05l1.01,.51Z" fill="#fff"/><path d="M159.31,203.91v-.51h-.51l.06,.1c.01,.11,.06,.21,.15,.29,.08,.08,.19,.12,.3,.12Z" fill="#fff"/><polygon points="159.23 230.69 159.54 229.75 158.72 230.16 159.23 230.69" fill="#fff"/><path d="M158.89,274.89c-.07,.02-.13,.06-.18,.11-.05,.05-.09,.11-.11,.18-.02,.07-.03,.14-.02,.21,0,.07,0,.14,.02,.21,.02,.07,.06,.13,.11,.18,.05,.05,.11,.09,.18,.11,.07,.02,.14,.03,.21,.02l.06,.09c-.02-.07-.03-.14-.02-.22,.01-.07,.04-.14,.08-.2,.04-.06,.1-.11,.17-.14s.14-.04,.21-.04l-.51-.51c-.07-.01-.14,0-.21,.02Z" fill="#fff"/><path d="M167.9,234c-1.02,.86-1.86,1.63-2.56,2.31l5.63-2.04v-.99l-.52-.53c-.96,.13-1.86,.56-2.55,1.24Z" fill="#fff"/><polygon points="159.54 229.75 160.77 229.14 159.75 229.14 159.54 229.75" fill="#fff"/><path d="M155.74,204.39c-.31,.3-.57,.65-.77,1.03-.2,.38-.46,.73-.77,1.02l1.03,.51,1.53-1.53-1.01-1.04Z" fill="#fff"/><polygon points="148.92 242.73 148.94 243.45 149.29 243.08 148.92 242.73" fill="#fff"/><path d="M157.08,269.2c0,.07,0,.14,.02,.2,.02,.07,.06,.13,.11,.17,.05,.05,.11,.09,.17,.11s.13,.03,.2,.02l.06,.09c.07,0,.15,0,.21-.04,.07-.03,.12-.08,.17-.14,.04-.06,.07-.13,.08-.2,.01-.07,0-.15-.02-.22h-1.02Z" fill="#fff"/><polygon points="156.07 263.55 158.11 263.04 158.62 262.01 157.61 260.46 156.07 262 156.07 263.55" fill="#fff"/><polygon points="157.5 294.9 158.01 294.39 155.97 293.37 157.5 294.9" fill="#fff"/><path d="M156.54,209.08c-.07,.02-.12,.06-.17,.11-.05,.05-.09,.11-.11,.17s-.03,.14-.02,.2h1.03l-.52-.51c-.07,0-.14,0-.2,.02Z" fill="#fff"/><path d="M200.22,292.98h3.29c-.01-.07-.01-.16,0-.24h.04c.09-.2,.12-.44,.07-.68-.05-.23-.16-.44-.33-.61l-2.56-1.04-.52,2.57Z" fill="#fff"/><polygon points="152.99 268.14 153.5 268.14 153 267.62 152.99 268.14" fill="#fff"/><polygon points="152.05 241.97 151.04 240.44 148.99 241.45 150.52 242.49 152.05 241.97" fill="#fff"/><path d="M152.13,214.15h-.51l.06,.15c-.33,0-.56,.3-.57,.88h1.02v-1.03Z" fill="#fff"/><polygon points="152.11 220.9 151.1 220.38 150.59 221.93 151.6 222.44 152.11 220.9" fill="#fff"/><path d="M151.58,230.09l1.03,.53,.51-.52c-.56,.04-1.11-.15-1.53-.52v.51Z" fill="#fff"/><polygon points="146.82 235.24 145.42 235.29 145.42 236.74 146.5 236.34 146.82 235.24" fill="#fff"/><path d="M146.67,295.2c.09-.18,.14-.37,.15-.57l-1.01-.51-.51,1.03,1.01,.51c.15-.13,.27-.29,.36-.46Z" fill="#fff"/><path d="M151.79,239.33c.69,.04,1.37-.07,2.01-.32l1.61-3.18c-1.76,1.16-3.63,2.16-5.59,2.94,.61,.33,1.27,.52,1.96,.56Z" fill="#fff"/><polygon points="153.27 289.57 151.74 288.02 151.23 290.08 152.76 291.1 153.27 289.57" fill="#fff"/><path d="M144.85,241.12c.2,.01,.39-.02,.58-.09,.19-.07,.36-.17,.5-.31,.2-.19,.37-.42,.48-.67,.12-.25,.18-.53,.19-.81l-2.55-.27,.06,1.45,.74,.7Z" fill="#fff"/><path d="M147.6,191.25l-.1-.05-.08,.16c.06-.04,.12-.07,.18-.11Z" fill="#fff"/><path d="M200.54,291.08c.05,.05,.11,.09,.18,.11,.07,.02,.14,.03,.21,.02,.07,0,.14,0,.2-.02,.07-.02,.12-.06,.17-.11s.09-.11,.11-.17c.02-.07,.03-.14,.02-.2h-1.03c0,.07,0,.14,.02,.21,.02,.07,.06,.13,.11,.18Z" fill="#fff"/><path d="M214.18,288.79c-.65-1.63-.99-3.38-1-5.14v-4.76c-1.35,1.25-2.25,2.93-2.55,4.76l-.51,.51c.18,1.02,.71,1.94,1.51,2.59,.74,.81,1.6,1.5,2.54,2.05Z" fill="#fff"/><polygon points="174.87 290.14 176.4 291.7 176.4 289.56 174.87 289.03 174.87 290.14" fill="#fff"/><path d="M144.99,245.47h-.72l.04,.09c-.41,.36-.66,.87-.71,1.42l.7-.76,.7-.75Z" fill="#fff"/><path d="M186.44,285.23v.07s.02,0,.04,0l-.04-.06Z" fill="#fff"/><polygon points="188.42 293.47 189.95 294.51 189.96 292.96 188.93 292.45 188.42 293.47" fill="#fff"/><path d="M180.66,291.85c.09,.18,.14,.37,.15,.56l.51-.51v-1.04l-1.01,.52c.15,.13,.27,.28,.36,.46Z" fill="#fff"/><path d="M189.53,281.13h0s.02,.01,.04,.01h-.04Z" fill="#fff"/><path d="M189.53,281.13c-.19-.02-.38-.06-.55-.15-.18-.09-.35-.22-.48-.37l1.53,1.55c-.3-.27-.48-.64-.5-1.03Z" fill="#fff"/><path d="M191.02,290.38c1.21-.02,2.42,.16,3.58,.52-1.02-1.71-2.04-2.58-3.05-2.58l-3.58,.5c.33,.51,.78,.92,1.32,1.19,.54,.27,1.13,.4,1.73,.37Z" fill="#fff"/><polygon points="210.82 229.35 211.83 229.35 212.34 228.84 211.33 228.32 210.82 229.35" fill="#fff"/><path d="M205.27,202.62c-.48,.8-.83,1.66-1.04,2.57,.06,1.26,.41,2.5,1.02,3.61h.04c2.05-1.35,3.24-2.55,3.54-3.59-.98-1.12-2.2-2-3.56-2.58Z" fill="#fff"/><path d="M209.41,205.8c-.17-.09-.37-.14-.56-.15l-.51,1.02,1.01,.51,.51-1.02c-.12-.15-.28-.28-.45-.36Z" fill="#fff"/><polygon points="206.23 225.73 207.25 226.25 207.77 224.71 206.75 224.19 206.23 225.73" fill="#fff"/><path d="M194.15,270.07c-.03,.06-.06,.12-.11,.17-.05,.05-.12,.09-.19,.11-.07,.02-.14,.02-.22,0h.52v-.28Z" fill="#fff"/><path d="M194.34,295.56c-.07,.02-.12,.06-.17,.11-.05,.05-.09,.11-.11,.17-.02,.07-.03,.14-.02,.2h.07c.06,.01,.13,0,.18-.03,.06-.03,.11-.07,.15-.12,.04-.05,.07-.11,.09-.17,.02-.06,.02-.13,.01-.19-.07,0-.14,0-.2,.02Z" fill="#fff"/><polygon points="167.79 276.73 168.3 277.24 169.33 276.73 168.81 276.22 167.79 276.73" fill="#fff"/><polygon points="195.16 273.95 194.65 274.46 195.34 274.05 195.16 273.95" fill="#fff"/><path d="M203.8,293.51h.51l-.51-.51h-.28c-.04,.31,.02,.51,.28,.51Z" fill="#fff"/><path d="M200.73,284.25l.52-.52h.04c.01-.06,0-.14-.02-.21s-.07-.14-.12-.19c-.05-.05-.12-.09-.19-.11-.07-.02-.15-.02-.22,0-.39,.03-.76,.21-1.02,.51l1.01,.53Z" fill="#fff"/><path d="M198.27,276.13c.07,.2,.18,.38,.33,.53s.33,.26,.53,.33c.2,.07,.41,.09,.62,.06v2.57l.51-2.57c-.68-.34-.84-1.06-.5-2.31,.25-.75,.43-1.53,.51-2.32l-3.06,.51-1.86,1.12,2.87,1.46c-.03,.21-.01,.42,.06,.62Z" fill="#fff"/><path d="M194.19,269.84h-.04v.23h0c.03-.08,.04-.15,.03-.23Z" fill="#fff"/><path d="M208.11,282.23c.17,0,.26,.16,.26,.51h.51l-1.01-1.04c0,.34,.07,.52,.25,.52Z" fill="#fff"/><polygon points="186.17 287.51 184.64 287.51 182.6 288.52 183.61 289.04 186.17 288.02 186.17 287.51" fill="#fff"/><polygon points="159.17 270.53 159.17 270.02 158.16 268.99 157.63 270.01 158.15 271.05 159.17 270.53" fill="#fff"/><path d="M186.43,285.3c-1.31,0-2,.46-2.04,1.47l1.53,1.54,.51-3.01Z" fill="#fff"/><path d="M212.88,211.36l1.01,.51,.26-.09,.25,.09v1.04h2.56v-.52c.01-.07,0-.14-.02-.21-.02-.07-.06-.13-.11-.18-.05-.05-.11-.09-.18-.11-.07-.02-.14-.03-.21-.02-.39-.03-.76-.22-1.01-.51l-1.24,.42-1.31-.43Z" fill="#fff"/><polygon points="196.58 186.85 197.23 187.17 198.02 186.32 196.58 185.39 196.7 185.72 196.58 186.85" fill="#fff"/><polygon points="189.76 184.46 189.09 184.17 188.5 185.49 189.8 186.1 189.76 184.46" fill="#fff"/><polygon points="195.87 184.94 196.58 185.39 196.35 184.76 195.87 184.94" fill="#fff"/><polygon points="204.31 196.04 205.74 195.51 207.3 193.84 206.18 193.71 204.14 195.57 204.31 196.04" fill="#fff"/><polygon points="279.13 299.02 279.48 299.98 281.39 299.26 279.91 298.17 279.13 299.02" fill="#fff"/><path d="M170.17,289.84l.12-1.14-3.36,1.25c1.06-.26,2.16-.3,3.23-.12Z" fill="#fff"/><polygon points="154.06 281.47 152.11 280.57 152.64 282 153.94 282.62 154.06 281.47" fill="#fff"/><path d="M148.31,277.65l-.25,2.29,1.92-.71,.12-1.15c-1.08-1.02-2.46-1.66-3.93-1.82l-3,2.22,.83,.78,4.32-1.61Z" fill="#fff"/><polygon points="195.32 206.57 195.67 207.53 197.59 206.81 196.1 205.72 195.32 206.57" fill="#fff"/><path d="M196.48,202.29l.12-1.14-3.36,1.25c1.06-.26,2.16-.3,3.23-.12Z" fill="#fff"/><polygon points="189.08 213.26 189.73 213.57 190.52 212.72 189.08 211.79 189.2 212.12 189.08 213.26" fill="#fff"/><polygon points="182.26 210.87 181.59 210.57 181 211.89 182.3 212.5 182.26 210.87" fill="#fff"/><path d="M183.97,205.19l-.14,.19h.18c.11,1.33,.42,2.62,.91,3.85l1.09-1.5,.24-2.29-2.2-.07-.07-.19Z" fill="#fff"/><polygon points="188.37 211.34 189.08 211.79 188.85 211.16 188.37 211.34" fill="#fff"/><path d="M181.88,205.42c-.18,.08-.34,.2-.47,.34-.13,.14-.24,.31-.3,.5l1.01,1.27,1.72-2.16h-.33c-.53-.2-1.11-.18-1.62,.05Z" fill="#fff"/><polygon points="180.37 193.92 178.42 193.02 178.94 194.45 180.25 195.07 180.37 193.92" fill="#fff"/><polygon points="196.81 222.45 198.24 221.91 199.8 220.24 198.68 220.12 196.64 221.97 196.81 222.45" fill="#fff"/><polygon points="202.32 242.59 202.67 243.55 204.59 242.83 203.1 241.74 202.32 242.59" fill="#fff"/><path d="M203.48,238.31l.12-1.14-3.36,1.25c1.06-.26,2.16-.3,3.23-.12Z" fill="#fff"/><polygon points="196.08 249.28 196.73 249.59 197.52 248.74 196.08 247.81 196.2 248.14 196.08 249.28" fill="#fff"/><polygon points="189.26 246.88 188.59 246.59 188 247.91 189.3 248.52 189.26 246.88" fill="#fff"/><path d="M207.62,251.9l-.14,.19h.18c.11,1.33,.42,2.62,.91,3.85l1.09-1.5,.24-2.29-2.2-.07-.07-.19Z" fill="#fff"/><polygon points="195.37 247.36 196.08 247.81 195.85 247.18 195.37 247.36" fill="#fff"/><path d="M188.88,241.44c-.18,.08-.34,.2-.47,.34-.13,.14-.24,.31-.3,.5l1.01,1.27,1.72-2.16h-.33c-.53-.2-1.11-.18-1.62,.05Z" fill="#fff"/><polygon points="187.37 229.94 185.41 229.04 185.94 230.47 187.25 231.09 187.37 229.94" fill="#fff"/><path d="M204.67,216.28l-.25,2.29,1.92-.71,.12-1.15c-1.08-1.02-2.46-1.66-3.93-1.82l-3,2.22,.83,.78,4.32-1.61Z" fill="#fff"/><polygon points="203.81 258.47 205.24 257.93 206.8 256.26 205.67 256.13 203.63 257.99 203.81 258.47" fill="#fff"/><polygon points="169.96 263.53 168.99 263.22 168.37 265.19 170.14 264.68 169.96 263.53" fill="#fff"/><polygon points="168.54 254.46 167.89 254.79 168.08 255.94 169.69 255.36 169.35 255.26 168.54 254.46" fill="#fff"/><path d="M184.64,283.68c.05-.19,.05-.39,.02-.58-.03-.19-.1-.38-.2-.55l-1.62,.02,.64,2.69,.21-.26c.48-.3,.82-.77,.95-1.32Z" fill="#fff"/><polygon points="189.04 259.39 190.95 258.39 189.5 257.93 188.21 258.6 189.04 259.39" fill="#fff"/><path d="M198.04,257.38l-1.64-1.61-.61,1.96,.83,.8c1.46-.23,2.81-.94,3.84-2.01l.1-3.75-1.12,.18-1.39,4.42Z" fill="#fff"/><polygon points="156.59 254.98 156.13 256.44 156.48 258.71 157.27 257.89 157.07 255.13 156.59 254.98" fill="#fff"/></g><g><polygon points="292.03 247.52 292.31 246.43 286.77 244.71 286.5 245.8 292.03 247.52" fill="#fff"/><polygon points="277.26 265.51 278.27 262.12 275.47 261.42 275.15 262.66 277.26 265.51" fill="#fff"/><polygon points="296.85 269.25 300.05 267.74 298.84 267.27 295.48 268.75 296.85 269.25" fill="#fff"/><path d="M311.27,250.26l2.22,.46c-.29,0-.88-.46-1.78-1.34l-.44,.88Z" fill="#fff"/><path d="M325.05,250.3h.44v-.44l-.09,.05c-.1,.01-.19,.06-.25,.13-.07,.07-.1,.16-.11,.26Z" fill="#fff"/><polygon points="301.89 250.23 302.7 250.5 302.35 249.79 301.89 250.23" fill="#fff"/><path d="M299.02,257.78c-.74-.89-1.41-1.62-2-2.23l1.76,4.9h.85l.45-.45c-.11-.84-.49-1.62-1.07-2.22Z" fill="#fff"/><path d="M229.91,264.26c-.06,.02-.11,.05-.15,.09s-.08,.09-.1,.15c-.02,.06-.03,.12-.02,.18h.88l-.44-.44c-.06,0-.12,0-.18,.02Z" fill="#fff"/><polygon points="221.65 262.87 221.2 264.21 222.08 264.65 222.53 263.76 221.65 262.87" fill="#fff"/><path d="M310.54,259.37c.15-.98,.38-1.94,.68-2.88-.63,.63-1.3,1.22-2,1.76-.34,.26-.62,.6-.81,.99-.19,.39-.28,.81-.28,1.24-.02,.24,.06,.48,.21,.66,.16,.18,.24,.42,.22,.67,.49-.2,.93-.5,1.27-.91,.37-.44,.61-.97,.7-1.53Z" fill="#fff"/><path d="M308.57,261.81h0s-.07,.04-.11,.05l.11-.05Z" fill="#fff"/><polygon points="313.01 261.82 313.9 261.38 313.01 261.38 312.57 261.82 313.01 261.82" fill="#fff"/><polygon points="302.7 250.5 303.23 251.57 303.23 250.68 302.7 250.5" fill="#fff"/><path d="M289.79,231.99h-3.22c.6,1.18,1.58,2.12,2.77,2.67l.45-2.67Z" fill="#fff"/><path d="M324.64,247.19c-.26-.27-.56-.5-.89-.67-.33-.17-.63-.4-.88-.67l-.45,.89,1.32,1.33,.9-.88Z" fill="#fff"/><polygon points="328.26 242.87 327.64 242.89 327.96 243.19 328.26 242.87" fill="#fff"/><polygon points="280.22 229.51 280.56 230.44 281.52 230.73 280.52 229.18 280.22 229.51" fill="#fff"/><polygon points="246.36 248.73 246.8 249.17 247.69 247.39 246.36 248.73" fill="#fff"/><path d="M285.54,230.26l.29-.32-.08,.05c-.45,.06-.86,.28-1.16,.62,.23,.21,.53,.09,.94-.35Z" fill="#fff"/><path d="M320.58,247.89c-.02-.06-.05-.11-.09-.15-.04-.04-.09-.08-.15-.1s-.12-.03-.18-.02v.89l.44-.45c0-.06,0-.12-.02-.18Z" fill="#fff"/><polygon points="292.13 243.97 293.46 243.09 292.58 241.31 291.68 242.64 292.13 243.97" fill="#fff"/><path d="M316.19,244.05v-.44l-.13,.05c0-.29-.26-.49-.76-.5v.88h.89Z" fill="#fff"/><polygon points="310.36 244.03 310.8 243.15 309.47 242.7 309.02 243.58 310.36 244.03" fill="#fff"/><path d="M289.47,234.54c-.35,.34-.56,.79-.59,1.28l2.37-.68c-.85-.79-1.46-.97-1.79-.6Z" fill="#fff"/><polygon points="299.6 230.63 299.16 230.63 299.3 230.91 299.54 230.67 301.32 230.68 301.76 229.34 301.32 228.9 300.95 228.86 300.05 229.29 299.6 230.63" fill="#fff"/><path d="M299.12,233.34c.37-.04,.75,.04,1.08,.23,.09,.08,.2,.14,.31,.18,.11,.04,.24,.05,.36,.04h.44l-.88-.44-1.17-2.36-1.02,1.02,.89,1.34Z" fill="#fff"/><path d="M302.41,243.56l-.46,.89,.45,.44c-.03-.49,.13-.97,.45-1.34h-.44Z" fill="#fff"/><path d="M279.01,217.7c-.03,.05-.04,.11-.04,.17s.01,.12,.04,.17c.03,.05,.06,.1,.11,.14l.95,.28,.6-1.91c-.62,.13-1.17,.49-1.55,1-.05,.04-.09,.08-.11,.14Z" fill="#fff"/><path d="M329.11,220.35c.02-.06,.05-.11,.1-.15,.04-.04,.09-.07,.15-.09,.06-.02,.12-.03,.18-.02h-.44v.44c0-.06,0-.12,.02-.18Z" fill="#fff"/><path d="M247.63,241.04c.15,.08,.32,.12,.49,.13l.44-.88-.89-.44-.45,.88c.11,.13,.25,.24,.4,.31Z" fill="#fff"/><path d="M332.86,245.55c-.04,.6,.06,1.2,.28,1.75l2.75,1.41c-1.01-1.53-1.87-3.16-2.54-4.87-.28,.53-.45,1.11-.48,1.71Z" fill="#fff"/><path d="M329.66,239.33c0,.17,.02,.34,.07,.5,.06,.16,.15,.31,.27,.43,.16,.18,.36,.32,.58,.42,.22,.1,.46,.16,.7,.16l.23-2.22-1.25,.05-.61,.65Z" fill="#fff"/><path d="M334.33,248.69l.04-.09-.14-.07c.03,.05,.06,.11,.09,.16Z" fill="#fff"/><path d="M291.38,235.1l-.12,.03s.01,.01,.02,.02l.1-.05Z" fill="#fff"/><polygon points="239.43 270.1 240.31 270.1 240.32 268.32 238.98 269.21 239.43 270.1" fill="#fff"/><path d="M236.32,267.86l-.88-.45v3.12c.1-.94,.4-1.85,.88-2.67Z" fill="#fff"/><path d="M271.65,273.31l-.44-.44h-.32c.12,.14,.23,.29,.32,.44h.44Z" fill="#fff"/><polygon points="272.1 273.31 271.65 273.31 272.1 273.75 272.1 273.31" fill="#fff"/><polygon points="299.96 237.56 299.96 236.23 299.52 237.11 299.96 237.56" fill="#fff"/><path d="M228.19,267.88c.08-.15,.12-.32,.13-.49l-.44-.44v1.34c.13-.11,.23-.25,.31-.4Z" fill="#fff"/><polygon points="282.91 235.7 283.24 236.03 283.54 235.7 282.91 235.7" fill="#fff"/><polygon points="250.47 263.85 249.13 265.18 250.97 265.19 251.43 263.85 250.47 263.85" fill="#fff"/><path d="M266.36,245.91l-3.55-2.69c.19,.79,.64,1.49,1.29,1.98s1.45,.74,2.26,.7Z" fill="#fff"/><path d="M293.17,285.92c-.58,.59-1.04,.88-1.33,.88l.43,2.68-1.79,1.76c-.07,1.06,.08,2.12,.43,3.12l1.33-2.2c1.42-.57,2.14-1,2.24-1.35l.9-5.78-2.22,.89Z" fill="#fff"/><polygon points="299.25 230.98 299.31 230.92 299.3 230.91 299.25 230.96 299.25 230.98" fill="#fff"/><polygon points="322.71 226.32 323.03 226.64 323.33 226.32 322.71 226.32" fill="#fff"/><path d="M282.62,208.63v.63l.32,.3,2.21,.24c-.1-.07-.18-.17-.23-.27-.06-.11-.09-.22-.1-.34-.01-.12-.05-.24-.11-.35-.06-.11-.14-.2-.23-.28l-.08,.09c-.45-.26-.96-.38-1.48-.34l-.3,.32Z" fill="#fff"/><path d="M327.56,230.86v-.63l-.07,.03c-.31-.36-.75-.58-1.23-.62l.66,.61,.65,.61Z" fill="#fff"/><path d="M266.39,239.68c.13-.11,.24-.25,.32-.4s.12-.32,.13-.49l-.1,.05c.01-.17-.01-.34-.07-.51-.06-.16-.15-.31-.27-.43l-.44,.44,.44,1.34Z" fill="#fff"/><path d="M254.72,273.93h-.06s0,.02,0,.03l.05-.03Z" fill="#fff"/><polygon points="247.6 275.65 246.7 276.99 248.03 276.99 248.48 276.1 247.6 275.65" fill="#fff"/><path d="M222.37,276.14s.1-.08,.15-.1c.06-.02,.12-.03,.18-.02h-.44v.45c0-.06,0-.12,.01-.18,.02-.06,.05-.11,.09-.15Z" fill="#fff"/><path d="M249,268.89c-.15,.08-.32,.12-.49,.13l.44,.44h.9l-.45-.88c-.11,.13-.25,.23-.4,.31Z" fill="#fff"/><path d="M258.27,276.62h0s0,.02,0,.03v-.03Z" fill="#fff"/><polygon points="259.17 273.06 258.28 273.06 258.72 273.5 259.17 273.06" fill="#fff"/><path d="M258.27,276.62c.01-.17,.05-.33,.13-.48,.08-.16,.19-.3,.32-.42l-1.34,1.33c.23-.26,.55-.41,.89-.44Z" fill="#fff"/><polygon points="224.49 274.28 224.93 274.73 225.82 274.73 225.37 273.84 224.49 274.28" fill="#fff"/><polygon points="242.94 277.22 243.4 276.78 242.95 275.88 241.76 276.77 242.06 276.78 242.94 277.22" fill="#fff"/><path d="M221.64,274.74c-.06,.02-.11,.05-.16,.09-.04,.04-.08,.09-.1,.15-.02,.06-.03,.12-.02,.18v.03c.05,.01,.12,0,.18-.01,.06-.02,.12-.05,.17-.1,.05-.05,.08-.1,.1-.17,.02-.06,.02-.13,0-.19-.06,0-.12,0-.18,.02Z" fill="#fff"/><path d="M306.65,280.95c-.69-.41-1.44-.72-2.22-.9-1.09,.05-2.16,.36-3.12,.89v.03c1.17,1.78,2.2,2.82,3.11,3.08,.97-.85,1.73-1.91,2.23-3.1Z" fill="#fff"/><polygon points="238.93 282.06 238.48 282.51 239.38 283.4 240.26 282.52 238.93 282.06" fill="#fff"/><path d="M234.85,278.94l.11,.17,.07-.14c1.1,.31,2.24,.45,3.39,.42l-.88-1.34-1.78-.89-.73,1.78h-.17Z" fill="#fff"/><polygon points="241.18 277.21 241.76 276.77 241.18 276.77 241.18 277.21" fill="#fff"/><path d="M234.4,280.72c.01,.17,.05,.34,.13,.49,.08,.15,.18,.29,.31,.4l1.34-.44-1.22-2.05-.11,.27c-.32,.37-.48,.85-.45,1.34Z" fill="#fff"/><polygon points="224.63 278.47 223.3 279.79 224.62 279.79 225.52 278.91 224.63 278.47" fill="#fff"/><path d="M323.41,293.93c.08-.15,.12-.32,.13-.49l-.88-.45-.44,.88,.88,.44c.13-.11,.24-.24,.32-.39Z" fill="#fff"/><path d="M219.77,282l1.78,.9v-1.78l-.89-.44c-1.16,.57-2.1,1.5-2.67,2.66l.89,3.12,.89-.44v-4.01Z" fill="#fff"/><path d="M225.09,289.53s-.01,0-.02,0c.06,.05,.08,.12,0,.23-.29,.44,0,.67,.89,.67l.44-.89h-1.32Z" fill="#fff"/><polygon points="306.18 291.17 305.73 292.05 307.06 292.51 307.51 291.61 306.18 291.17" fill="#fff"/><path d="M239.12,287.19c0,.17-.05,.34-.13,.49s-.18,.29-.32,.39v.06c.11,.12,.25,.22,.4,.29s.32,.1,.49,.11l.45-.89-.89-.44Z" fill="#fff"/><path d="M270.59,264.34c-.11-.04-.22-.1-.31-.18-.09-.08-.2-.14-.31-.18-.11-.04-.24-.06-.36-.05v.06c-.28,0-.91,.44-1.78,1.27l3.11-.89c-.12,0-.24,0-.35-.04Z" fill="#fff"/><path d="M241.81,281.86v.44l1.33-.44-.88-.89c-.29,0-.44,.29-.44,.88Z" fill="#fff"/><path d="M245.79,280.81c-.02-.06-.05-.11-.09-.15-.04-.04-.09-.08-.15-.1-.06-.02-.12-.03-.18-.02v.06c0,.06,0,.11,.03,.16,.02,.05,.06,.09,.1,.13,.04,.04,.09,.06,.15,.08,.05,.02,.11,.02,.16,.01,0-.06,0-.12-.02-.18Z" fill="#fff"/><polygon points="262.07 257.69 261.63 258.13 262.07 259.02 262.51 258.57 262.07 257.69" fill="#fff"/><path d="M234.35,285.95s.09-.07,.15-.09c.06-.02,.12-.03,.18-.02h-.44v.44c0-.06,0-.12,.02-.18,.02-.06,.05-.11,.1-.15Z" fill="#fff"/><path d="M267.82,266.15c-.06,0-.12,0-.18,.02-.06,.02-.11,.05-.15,.09s-.07,.09-.1,.15c-.02,.06-.03,.12-.02,.18h.88s.02-.09,0-.13c-.01-.07-.04-.13-.09-.18-.04-.05-.1-.09-.16-.11-.06-.02-.13-.03-.2-.02Z" fill="#fff"/><path d="M247.57,289.05v.44l.44-.44v-.25c-.27-.03-.44,.02-.44,.25Z" fill="#fff"/><path d="M244.78,294.05c.08,.23,.1,.47,.08,.71-.02,.12,0,.24,.03,.36s.1,.22,.19,.31c.09,.09,.19,.15,.31,.19,.12,.04,.24,.05,.36,.03h.88l-1.32-1.34-.44-2.67-.45,1.78c.16,.18,.28,.39,.36,.62Z" fill="#fff"/><path d="M268.26,266.59h0s0,.04,0,.06v-.06Z" fill="#fff"/><path d="M261.03,287.91l1.76,1.34,.46-2.66-.45-1.78-1.33-.45c-.34,.84-.5,1.75-.45,2.66v.88Z" fill="#fff"/><polygon points="252.75 273.69 252.75 272.36 251.87 270.58 251.43 271.47 252.31 273.69 252.75 273.69" fill="#fff"/><path d="M239.41,279.2c-.06,.02-.11,.05-.16,.09-.04,.04-.08,.09-.1,.15-.02,.06-.03,.12-.02,.18h.45v-.44c-.06,0-.12,0-.18,.02Z" fill="#fff"/><path d="M254.66,273.92c0-1.14-.4-1.74-1.27-1.77l-1.33,1.33,2.6,.44Z" fill="#fff"/><polygon points="312.93 270.54 313.81 270.55 313.82 268.77 312.48 269.65 312.93 270.54" fill="#fff"/><path d="M309.82,268.3l-.88-.45v3.12c.1-.94,.4-1.85,.88-2.67Z" fill="#fff"/><polygon points="316.45 277.66 316.9 277.22 316.45 276.33 315.26 277.22 315.56 277.22 316.45 277.66" fill="#fff"/><polygon points="314.68 277.66 315.26 277.22 314.68 277.22 314.68 277.66" fill="#fff"/><polygon points="326.25 274.13 326.25 272.81 325.37 271.03 324.93 271.91 325.81 274.13 326.25 274.13" fill="#fff"/><path d="M285.29,272.34l.98,.11-1.08-2.92c.23,.92,.26,1.88,.1,2.82Z" fill="#fff"/><polygon points="275.81 265.89 275.54 266.46 276.27 267.15 277.08 265.9 276.79 266 275.81 265.89" fill="#fff"/><polygon points="277.88 259.95 278.14 259.37 276.99 258.86 276.47 259.99 277.88 259.95" fill="#fff"/><polygon points="277.47 265.28 277.08 265.9 277.62 265.69 277.47 265.28" fill="#fff"/><polygon points="292.53 258.31 293.31 256.61 292.07 257.07 291.54 258.21 292.53 258.31" fill="#fff"/><path d="M295.84,253.3l-1.98-.22,.62,1.67,.99,.1c.88-.94,1.44-2.14,1.57-3.42l-1.92-2.61-.68,.72,1.39,3.76Z" fill="#fff"/><polygon points="267.86 272.63 268.32 273.87 269.77 275.24 269.88 274.25 268.28 272.48 267.86 272.63" fill="#fff"/><polygon points="247.04 258.75 246.21 259.05 246.82 260.72 247.77 259.43 247.04 258.75" fill="#fff"/><path d="M250.73,259.76l.98,.11-1.08-2.92c.23,.92,.26,1.88,.1,2.82Z" fill="#fff"/><polygon points="241.25 253.31 240.98 253.88 241.72 254.56 242.52 253.31 242.23 253.42 241.25 253.31" fill="#fff"/><polygon points="243.32 247.37 243.58 246.79 242.43 246.27 241.91 247.41 243.32 247.37" fill="#fff"/><path d="M248.23,248.86l-.16-.12v.15c-1.15,.1-2.27,.37-3.33,.79l1.29,.95,1.98,.21,.06-1.92,.16-.06Z" fill="#fff"/><polygon points="242.91 252.7 242.52 253.31 243.06 253.11 242.91 252.7" fill="#fff"/><path d="M248.03,247.04c-.07-.16-.17-.29-.29-.41-.12-.12-.27-.21-.43-.27l-1.1,.88,1.86,1.49v-.29c.18-.46,.16-.96-.04-1.41Z" fill="#fff"/><polygon points="233.3 260.05 233.76 261.29 235.21 262.65 235.32 261.67 233.72 259.89 233.3 260.05" fill="#fff"/><polygon points="322.75 281.66 321.92 281.97 322.54 283.64 323.49 282.34 322.75 281.66" fill="#fff"/><path d="M326.45,282.67l.98,.11-1.08-2.92c.23,.92,.26,1.88,.1,2.82Z" fill="#fff"/><polygon points="316.97 276.23 316.7 276.8 317.43 277.48 318.23 276.23 317.95 276.33 316.97 276.23" fill="#fff"/><polygon points="319.03 270.29 319.29 269.71 318.15 269.19 317.62 270.32 319.03 270.29" fill="#fff"/><path d="M323.95,271.78l-.16-.12v.15c-1.15,.1-2.27,.37-3.33,.79l1.29,.95,1.98,.21,.06-1.92,.16-.06Z" fill="#fff"/><polygon points="318.63 275.61 318.23 276.23 318.78 276.03 318.63 275.61" fill="#fff"/><path d="M323.74,269.96c-.07-.16-.17-.29-.29-.41-.12-.12-.27-.21-.43-.27l-1.1,.88,1.86,1.49v-.29c.18-.46,.16-.96-.04-1.41Z" fill="#fff"/><polygon points="269.7 251.78 270.48 250.07 269.24 250.53 268.71 251.67 269.7 251.78" fill="#fff"/><polygon points="309.02 282.96 309.48 284.21 310.93 285.57 311.03 284.59 309.43 282.81 309.02 282.96" fill="#fff"/><polygon points="291.6 287.76 290.77 288.07 291.39 289.73 292.34 288.44 291.6 287.76" fill="#fff"/><path d="M295.3,288.77l.98,.11-1.08-2.92c.23,.92,.26,1.88,.1,2.82Z" fill="#fff"/><polygon points="285.82 282.32 285.55 282.89 286.28 283.58 287.08 282.32 286.8 282.43 285.82 282.32" fill="#fff"/><polygon points="287.88 276.38 288.14 275.8 287 275.28 286.47 276.42 287.88 276.38" fill="#fff"/><path d="M292.8,277.87l-.16-.12v.15c-1.15,.1-2.27,.37-3.33,.79l1.29,.95,1.98,.21,.06-1.92,.16-.06Z" fill="#fff"/><polygon points="287.48 281.71 287.08 282.32 287.63 282.12 287.48 281.71" fill="#fff"/><path d="M292.59,276.05c-.07-.16-.17-.29-.29-.41-.12-.12-.27-.21-.43-.27l-1.1,.88,1.86,1.49v-.29c.18-.46,.16-.96-.04-1.41Z" fill="#fff"/><polygon points="302.54 274.74 303.32 273.04 302.08 273.5 301.54 274.64 302.54 274.74" fill="#fff"/><path d="M305.85,269.73l-1.98-.22,.62,1.67,.99,.1c.88-.94,1.44-2.14,1.57-3.42l-1.92-2.61-.68,.72,1.39,3.76Z" fill="#fff"/><polygon points="273.49 259.57 273.75 258.73 272.06 258.19 272.5 259.73 273.49 259.57" fill="#fff"/><path d="M270.42,261.87l-.69,.71,2.97,.94c-.87-.39-1.65-.95-2.28-1.65Z" fill="#fff"/><polygon points="281.33 258.34 281.05 257.77 280.06 257.93 280.55 259.34 280.64 259.05 281.33 258.34" fill="#fff"/><polygon points="284.76 263.61 285.05 264.17 286.17 263.58 285.59 262.47 284.76 263.61" fill="#fff"/><path d="M270.91,284.18l.2-.05-.11-.1c.62-.96,1.1-2.01,1.41-3.11l-1.54,.44-1.38,1.43,1.48,1.22-.05,.16Z" fill="#fff"/><polygon points="280.8 260.02 280.55 259.34 280.38 259.89 280.8 260.02" fill="#fff"/><path d="M282.13,267.53c.16,.04,.34,.05,.5,.02,.17-.03,.33-.09,.47-.18l-.02-1.41-2.32,.56,.22,.18c.26,.41,.67,.71,1.14,.82Z" fill="#fff"/><polygon points="277.07 276.19 277.93 277.86 278.33 276.59 277.76 275.47 277.07 276.19" fill="#fff"/><polygon points="334.74 241.05 334.7 239.83 333.44 239.82 333.79 240.76 334.74 241.05" fill="#fff"/></g></g></svg>